# Blender 4.3.0
# www.blender.org
o Cylinder
v 0.000000 -2.222326 -24.639294
v 0.000000 2.461280 -24.949701
v 21.506798 -2.372143 -12.416955
v 21.581551 2.438592 -12.460114
v 21.783520 -2.618121 12.576721
v 21.911142 2.731566 12.650404
v 0.000000 -2.521282 25.027647
v 0.000000 2.703216 25.263983
v -21.498627 -2.364882 12.412238
v -21.509331 2.374394 12.418418
v -21.627184 -2.479155 -12.486461
v -21.953594 2.769298 -12.674913
v 10.903604 -2.656571 -18.885595
v 10.879222 2.607808 -18.843365
v 21.857744 -2.707108 0.000000
v 21.446415 2.295783 0.000000
v 10.953802 -2.756967 18.972542
v 10.737366 2.324099 18.597664
v -10.855711 -2.560787 18.802645
v -10.773078 2.395522 18.659517
v -21.322392 -2.171761 0.000000
v -21.578501 2.427866 0.000000
v -10.867464 -2.584293 -18.823000
v -10.823475 2.496315 -18.746809
v 10.700561 0.000000 -18.533915
v 21.763075 0.000000 0.000000
v 10.926908 0.000000 18.925962
v -10.741658 0.000000 18.605099
v 10.825317 2.472884 -6.250000
v -10.825317 2.228613 -6.250000
v 0.000000 2.906216 12.500000
v -21.442717 0.000000 0.000000
v -10.590042 0.000000 -18.342491
v 0.000000 -2.791539 -12.500000
v 10.825317 -2.661891 6.250000
v -10.825317 -2.374506 6.250000
v 16.237976 2.693668 3.125000
v -5.412659 2.880577 -15.625000
v -10.825317 2.193467 12.500000
v -10.825317 -2.163250 -12.500000
v 16.237976 -2.575618 -3.125000
v -5.412659 -2.768695 15.625000
v 5.412659 2.533891 -15.625000
v -16.237976 2.503972 3.125000
v 10.825317 2.690022 12.500000
v 10.825317 -2.014256 -12.500000
v 5.412659 -2.710182 15.625000
v -16.237976 -2.141248 -3.125000
v -16.237976 -2.791493 9.375000
v 16.237976 -2.493781 9.375000
v 0.000000 -2.503026 -18.750000
v 0.000000 2.064889 18.750000
v -16.237976 2.063179 -9.375000
v 16.237976 2.859258 -9.375000
v -5.412659 -2.952103 -3.125000
v 5.412659 -2.106742 -3.125000
v 0.000000 -2.499811 6.250000
v 5.412659 2.848829 3.125000
v 0.000000 2.466573 -6.250000
v -5.412659 2.781080 3.125000
vn 0.5119 0.1511 -0.8457
vn 0.9994 0.0349 0.0057
vn 0.4840 0.0195 0.8748
vn -0.5115 0.0887 0.8547
vn 0.0320 0.9991 -0.0264
vn -0.9981 -0.0553 0.0257
vn -0.4668 0.2098 -0.8591
vn -0.0331 -0.9986 -0.0407
vn 0.5059 -0.1357 -0.8518
vn 0.9898 0.1365 -0.0411
vn 0.5247 0.1609 0.8360
vn -0.5024 -0.0262 0.8643
vn 0.0544 0.9979 -0.0364
vn -0.0337 0.9974 -0.0644
vn 0.0172 0.9993 -0.0329
vn -0.9980 -0.0558 0.0280
vn -0.4892 -0.1838 -0.8526
vn 0.0293 -0.9974 0.0662
vn -0.0085 -0.9996 -0.0267
vn -0.0171 -0.9992 0.0361
vn -0.0069 -0.9998 -0.0209
vn 0.0295 -0.9962 -0.0818
vn -0.0502 -0.9973 0.0531
vn -0.0040 -1.0000 -0.0074
vn 0.0356 -0.9993 -0.0078
vn -0.0264 -0.9996 0.0069
vn 0.0713 -0.9924 0.1007
vn -0.0146 -0.9988 -0.0461
vn 0.0078 -0.9988 -0.0476
vn -0.4742 -0.1838 -0.8610
vn -0.9984 -0.0558 0.0053
vn 0.0199 0.9980 0.0602
vn -0.0220 0.9908 0.1334
vn 0.0313 0.9947 -0.0975
vn 0.0022 0.9996 -0.0281
vn -0.0061 0.9991 -0.0423
vn 0.0722 0.9935 0.0876
vn -0.0072 0.9999 0.0107
vn -0.0652 0.9978 0.0104
vn 0.0856 0.9963 0.0123
vn -0.5219 -0.0262 0.8526
vn 0.4591 0.1609 0.8737
vn 0.9905 0.1366 0.0123
vn 0.4863 -0.1357 -0.8632
vn -0.0579 -0.9970 -0.0505
vn 0.0778 -0.9966 0.0279
vn -0.0150 -0.9998 -0.0138
vn -0.4572 -0.0603 -0.8873
vn -1.0000 -0.0023 -0.0049
vn 0.0143 0.9994 -0.0318
vn -0.0006 0.9992 -0.0404
vn -0.0256 0.9987 -0.0441
vn -0.5195 -0.0386 0.8536
vn 0.5004 -0.0239 0.8655
vn 0.9997 -0.0157 -0.0176
vn 0.5037 -0.0571 -0.8620
vn 0.4900 -0.0154 -0.8716
vn 0.9997 -0.0238 -0.0066
vn 0.4941 -0.0393 0.8685
vn -0.4986 -0.0023 0.8669
vn -0.9978 -0.0611 0.0269
vn -0.5190 -0.0565 -0.8529
vn -0.4946 0.2099 -0.8434
vn -0.9984 -0.0553 -0.0150
vn -0.4957 0.0887 0.8639
vn 0.5082 0.0195 0.8610
vn 0.9990 0.0349 -0.0273
vn 0.4660 0.1510 -0.8718
vn -0.0657 0.9975 0.0246
vn -0.0256 0.9985 0.0478
vn 0.0167 0.9996 0.0234
vn -0.0063 0.9999 -0.0097
vn -0.0063 0.9993 -0.0371
vn -0.0220 0.9987 -0.0462
vn -0.0037 1.0000 -0.0018
vn 0.0143 0.9999 0.0087
vn 0.0200 0.9998 0.0054
vn -0.0116 -0.9993 -0.0353
vn 0.0054 -0.9997 -0.0256
vn 0.0054 -0.9997 0.0232
vn -0.0116 -0.9984 0.0548
vn 0.0779 -0.9970 0.0031
vn -0.0150 -0.9986 -0.0505
vn 0.0293 -0.9994 0.0192
vn -0.0746 -0.9964 -0.0408
vn -0.0747 -0.9970 0.0183
vn 0.0716 -0.9969 0.0315
vn -0.0432 -0.9985 -0.0348
vn -0.0432 -0.9985 -0.0342
vn -0.0006 1.0000 0.0068
vn 0.0320 0.9992 0.0256
vn -0.0219 0.9981 0.0567
vn 0.0461 0.9977 -0.0501
vn -0.0831 0.9963 0.0213
vn -0.0657 0.9973 -0.0322
vn -0.0578 -0.9961 0.0667
vn -0.0138 -0.9998 -0.0172
vn -0.0469 -0.9988 -0.0149
vn 0.0208 -0.9995 0.0241
vn 0.0684 -0.9976 -0.0146
vn -0.0904 -0.9958 -0.0168
vn -0.0153 -0.9998 0.0113
vn 0.0133 -0.9994 0.0307
vn -0.0050 -0.9995 -0.0302
vn -0.0341 -0.9944 0.0996
vn 0.0078 -0.9989 -0.0461
vn -0.0147 -0.9988 -0.0476
vn -0.0046 0.9982 0.0598
vn 0.0293 0.9906 0.1334
vn -0.0254 0.9949 -0.0975
vn -0.0168 0.9998 0.0044
vn -0.0429 0.9989 0.0214
vn 0.1092 0.9937 0.0235
vn -0.0135 0.9999 -0.0000
vn -0.0277 0.9968 0.0753
vn 0.0477 0.9974 -0.0535
vt 0.916667 0.750000
vt 0.833333 0.500000
vt 0.916667 0.500000
vt 0.750000 0.750000
vt 0.666667 0.500000
vt 0.750000 0.500000
vt 0.583333 0.750000
vt 0.500000 0.500000
vt 0.583333 0.500000
vt 0.416667 0.750000
vt 0.333333 0.500000
vt 0.416667 0.500000
vt 0.250000 0.490000
vt 0.198038 0.400000
vt 0.301962 0.400000
vt 0.250000 0.750000
vt 0.166667 0.500000
vt 0.250000 0.500000
vt 0.083333 0.750000
vt -0.000000 0.500000
vt 0.083333 0.500000
vt 0.957846 0.370000
vt 0.905885 0.280000
vt 0.853923 0.370000
vt 0.833333 1.000000
vt 0.916667 1.000000
vt 0.666667 1.000000
vt 0.750000 1.000000
vt 0.500000 1.000000
vt 0.583333 1.000000
vt 0.333333 1.000000
vt 0.416667 1.000000
vt 0.457846 0.250000
vt 0.405885 0.220000
vt 0.457846 0.130000
vt 0.146077 0.430000
vt 0.146077 0.070000
vt 0.146077 0.130000
vt 0.042154 0.130000
vt 0.166667 1.000000
vt 0.250000 1.000000
vt -0.000000 1.000000
vt 0.083333 1.000000
vt 0.646077 0.430000
vt 0.646077 0.370000
vt 0.542154 0.370000
vt 0.957846 0.250000
vt 0.646077 0.070000
vt 0.698038 0.100000
vt 0.750000 0.010000
vt 0.542154 0.250000
vt 0.594115 0.280000
vt 0.646077 0.190000
vt 0.594115 0.160000
vt 0.542154 0.130000
vt 0.853923 0.070000
vt 0.801962 0.100000
vt 0.853923 0.190000
vt 0.905885 0.160000
vt 0.957846 0.130000
vt 0.853923 0.430000
vt 0.750000 0.370000
vt 0.750000 0.430000
vt 0.750000 0.490000
vt 0.353923 0.070000
vt 0.353923 0.130000
vt 0.250000 0.130000
vt 0.250000 0.070000
vt 0.250000 0.010000
vt 0.042154 0.250000
vt 0.094115 0.220000
vt 0.146077 0.310000
vt 0.094115 0.340000
vt 0.042154 0.370000
vt 0.353923 0.430000
vt 0.353923 0.310000
vt 0.405885 0.340000
vt 0.457846 0.370000
vt 1.000000 1.000000
vt 0.698038 0.280000
vt 0.801962 0.280000
vt 0.750000 0.190000
vt 0.301962 0.220000
vt 0.250000 0.310000
vt 0.198038 0.220000
vt 1.000000 0.500000
s 0
f 25/1/1 3/2/1 13/3/1
f 26/4/2 5/5/2 15/6/2
f 27/7/3 7/8/3 17/9/3
f 28/10/4 9/11/4 19/12/4
f 2/13/5 38/14/5 43/15/5
f 32/16/6 11/17/6 21/18/6
f 33/19/7 1/20/7 23/21/7
f 3/22/8 41/23/8 46/24/8
f 4/25/9 25/1/9 14/26/9
f 6/27/10 26/4/10 16/28/10
f 8/29/11 27/7/11 18/30/11
f 10/31/12 28/10/12 20/32/12
f 16/33/13 37/34/13 6/35/13
f 24/36/14 38/14/14 2/13/14
f 20/37/15 39/38/15 10/39/15
f 12/40/16 32/16/16 22/41/16
f 2/42/17 33/19/17 24/43/17
f 23/44/18 40/45/18 11/46/18
f 15/47/19 41/23/19 3/22/19
f 19/48/20 42/49/20 7/50/20
f 21/51/21 48/52/21 36/53/21
f 36/53/22 49/54/22 21/51/22
f 9/55/23 49/54/23 19/48/23
f 17/56/24 47/57/24 35/58/24
f 35/58/25 50/59/25 17/56/25
f 5/60/26 50/59/26 15/47/26
f 13/61/27 46/24/27 34/62/27
f 34/62/28 51/63/28 13/61/28
f 1/64/29 51/63/29 23/44/29
f 12/40/30 24/43/30 33/19/30
f 10/31/31 22/41/31 32/16/31
f 18/65/32 45/66/32 31/67/32
f 31/67/33 52/68/33 18/65/33
f 8/69/34 52/68/34 20/37/34
f 22/70/35 44/71/35 30/72/35
f 30/72/36 53/73/36 22/70/36
f 12/74/37 53/73/37 24/36/37
f 14/75/38 43/15/38 29/76/38
f 29/76/39 54/77/39 14/75/39
f 4/78/40 54/77/40 16/33/40
f 8/29/41 20/32/41 28/10/41
f 6/27/42 18/30/42 27/7/42
f 4/25/43 16/28/43 26/4/43
f 2/79/44 14/26/44 25/1/44
f 34/62/45 55/80/45 40/45/45
f 34/62/46 56/81/46 55/80/46
f 35/58/47 47/57/47 57/82/47
f 33/19/48 11/17/48 12/40/48
f 32/16/49 9/11/49 10/31/49
f 29/76/50 58/83/50 37/34/50
f 29/76/51 59/84/51 58/83/51
f 30/72/52 44/71/52 60/85/52
f 28/10/53 7/8/53 8/29/53
f 27/7/54 5/5/54 6/27/54
f 26/4/55 3/2/55 4/25/55
f 25/1/56 1/86/56 2/79/56
f 4/25/57 3/2/57 25/1/57
f 6/27/58 5/5/58 26/4/58
f 8/29/59 7/8/59 27/7/59
f 10/31/60 9/11/60 28/10/60
f 12/40/61 11/17/61 32/16/61
f 2/42/62 1/20/62 33/19/62
f 33/19/63 23/21/63 11/17/63
f 32/16/64 21/18/64 9/11/64
f 28/10/65 19/12/65 7/8/65
f 27/7/66 17/9/66 5/5/66
f 26/4/67 15/6/67 3/2/67
f 25/1/68 13/3/68 1/86/68
f 60/85/69 39/38/69 31/67/69
f 60/85/70 44/71/70 39/38/70
f 44/71/71 10/39/71 39/38/71
f 58/83/72 60/85/72 31/67/72
f 58/83/73 59/84/73 60/85/73
f 59/84/74 30/72/74 60/85/74
f 37/34/75 45/66/75 6/35/75
f 37/34/76 58/83/76 45/66/76
f 58/83/77 31/67/77 45/66/77
f 57/82/78 42/49/78 36/53/78
f 57/82/79 47/57/79 42/49/79
f 47/57/80 7/50/80 42/49/80
f 55/80/81 57/82/81 36/53/81
f 55/80/82 56/81/82 57/82/82
f 56/81/83 35/58/83 57/82/83
f 40/45/84 48/52/84 11/46/84
f 40/45/85 55/80/85 48/52/85
f 55/80/86 36/53/86 48/52/86
f 46/24/87 56/81/87 34/62/87
f 46/24/88 41/23/88 56/81/88
f 41/23/89 35/58/89 56/81/89
f 43/15/90 59/84/90 29/76/90
f 43/15/91 38/14/91 59/84/91
f 38/14/92 30/72/92 59/84/92
f 16/33/93 29/76/93 37/34/93
f 24/36/94 30/72/94 38/14/94
f 20/37/95 31/67/95 39/38/95
f 23/44/96 34/62/96 40/45/96
f 15/47/97 35/58/97 41/23/97
f 19/48/98 36/53/98 42/49/98
f 21/51/99 11/46/99 48/52/99
f 36/53/100 19/48/100 49/54/100
f 9/55/101 21/51/101 49/54/101
f 17/56/102 7/50/102 47/57/102
f 35/58/103 15/47/103 50/59/103
f 5/60/104 17/56/104 50/59/104
f 13/61/105 3/22/105 46/24/105
f 34/62/106 23/44/106 51/63/106
f 1/64/107 13/61/107 51/63/107
f 18/65/108 6/35/108 45/66/108
f 31/67/109 20/37/109 52/68/109
f 8/69/110 18/65/110 52/68/110
f 22/70/111 10/39/111 44/71/111
f 30/72/112 24/36/112 53/73/112
f 12/74/113 22/70/113 53/73/113
f 14/75/114 2/13/114 43/15/114
f 29/76/115 16/33/115 54/77/115
f 4/78/116 14/75/116 54/77/116
