# Blender 4.3.0
# www.blender.org
o Cylinder
v 0.000000 -2.354614 -24.811140
v 0.000000 2.413677 -24.887865
v 21.422173 -2.296919 -12.368097
v 21.408758 2.284997 -12.360353
v 21.817072 -2.647945 12.596092
v 21.890059 2.712825 12.638232
v 0.000000 -2.574270 25.096479
v 0.000000 2.435944 24.916790
v -21.783012 -2.617670 12.576428
v -21.439804 2.312591 12.378277
v -21.975752 -2.788997 -12.687706
v -21.645523 2.495456 -12.497048
v 10.829814 -2.508994 -18.757790
v 10.878134 2.605632 -18.841480
v 21.464600 -2.313967 0.000000
v 21.378740 2.228108 0.000000
v 10.652384 -2.154136 18.450470
v 10.968218 2.785798 18.997511
v -10.654764 -2.158898 18.454594
v -10.914322 2.678006 18.904160
v -21.310291 -2.159660 0.000000
v -21.475048 2.324414 0.000000
v -10.938817 -2.726998 -18.946589
v -10.767161 2.383690 -18.649271
v 10.861738 0.000000 -18.813084
v 21.978943 0.000000 0.000000
v 10.897801 0.000000 18.875546
v -10.640809 0.000000 18.430424
v 10.825317 2.071497 -6.250000
v -10.825317 2.974679 -6.250000
v 0.000000 2.213681 12.500000
v -21.533300 0.000000 0.000000
v -10.632750 0.000000 -18.416462
v 0.000000 -2.711324 -12.500000
v 10.825317 -2.767632 6.250000
v -10.825317 -2.241464 6.250000
v 16.237976 2.663822 3.125000
v -5.412659 2.732482 -15.625000
v -10.825317 2.099674 12.500000
v -10.825317 -2.583594 -12.500000
v 16.237976 -2.815631 -3.125000
v -5.412659 -2.160376 15.625000
v 5.412659 2.251258 -15.625000
v -16.237976 2.073072 3.125000
v 10.825317 2.586636 12.500000
v 10.825317 -2.312942 -12.500000
v 5.412659 -2.251180 15.625000
v -16.237976 -2.245679 -3.125000
v -16.237976 -2.878981 9.375000
v 16.237976 -2.480199 9.375000
v 0.000000 -2.852021 -18.750000
v 0.000000 2.634596 18.750000
v -16.237976 2.696794 -9.375000
v 16.237976 2.933645 -9.375000
v -5.412659 -2.025318 -3.125000
v 5.412659 -2.378302 -3.125000
v 0.000000 -2.940321 6.250000
v 5.412659 2.954642 3.125000
v 0.000000 2.270883 -6.250000
v -5.412659 2.899033 3.125000
vn 0.5167 -0.0254 -0.8558
vn 0.9756 -0.2169 -0.0331
vn 0.5224 -0.2220 0.8233
vn -0.4674 0.0129 0.8839
vn 0.0444 0.9990 -0.0084
vn -0.9931 -0.1025 0.0572
vn -0.4668 0.2190 -0.8568
vn 0.0022 -0.9985 -0.0548
vn 0.5238 -0.0126 -0.8517
vn 0.9644 0.2598 -0.0490
vn 0.4756 -0.0505 0.8782
vn -0.5113 -0.2001 0.8358
vn 0.0598 0.9974 -0.0407
vn -0.0343 0.9979 -0.0544
vn 0.0210 0.9958 -0.0896
vn -0.9996 0.0251 0.0140
vn -0.4979 -0.1121 -0.8599
vn 0.0180 -0.9996 0.0219
vn 0.0966 -0.9953 -0.0017
vn -0.0182 -0.9993 -0.0332
vn -0.0123 -0.9999 0.0076
vn 0.0556 -0.9928 -0.1063
vn -0.0010 -0.9968 0.0797
vn -0.0085 -0.9987 0.0501
vn 0.0238 -0.9984 0.0505
vn -0.0150 -0.9995 -0.0261
vn 0.0368 -0.9988 0.0313
vn 0.0317 -0.9992 0.0225
vn -0.0099 -0.9966 -0.0818
vn -0.4900 -0.1121 -0.8645
vn -0.9997 0.0251 0.0029
vn -0.0344 0.9990 -0.0299
vn -0.0122 0.9977 -0.0672
vn 0.0044 0.9995 0.0322
vn -0.0070 0.9958 0.0917
vn -0.0561 0.9984 0.0083
vn -0.0132 0.9990 -0.0415
vn -0.0399 0.9983 0.0422
vn -0.1338 0.9901 0.0414
vn 0.1272 0.9919 0.0049
vn -0.4762 -0.2001 0.8563
vn 0.5023 -0.0505 0.8632
vn 0.9656 0.2601 0.0035
vn 0.4860 -0.0126 -0.8739
vn -0.0118 -0.9977 0.0662
vn -0.0325 -0.9980 0.0542
vn 0.0159 -0.9978 0.0642
vn -0.4618 0.0608 -0.8849
vn -0.9976 0.0692 -0.0054
vn 0.0268 0.9966 -0.0784
vn 0.0184 0.9964 -0.0833
vn -0.0760 0.9958 0.0519
vn -0.5253 0.0305 0.8503
vn 0.4960 -0.0136 0.8682
vn 0.9990 0.0030 -0.0455
vn 0.4857 -0.0141 -0.8740
vn 0.5214 0.0030 -0.8533
vn 0.9999 -0.0137 0.0100
vn 0.4899 0.0312 0.8712
vn -0.4766 0.0684 0.8765
vn -0.9979 0.0616 0.0213
vn -0.5176 -0.0138 -0.8555
vn -0.4822 0.2190 -0.8482
vn -0.9939 -0.1026 -0.0411
vn -0.5286 0.0129 0.8488
vn 0.4451 -0.2219 0.8676
vn 0.9762 -0.2170 -0.0036
vn 0.4875 -0.0254 -0.8728
vn -0.0105 0.9968 0.0789
vn -0.0760 0.9963 0.0411
vn 0.0202 0.9997 -0.0145
vn -0.0051 0.9971 0.0758
vn -0.0051 0.9975 -0.0698
vn 0.0648 0.9975 -0.0294
vn -0.0114 0.9999 0.0016
vn 0.0268 0.9994 0.0237
vn -0.0344 0.9977 0.0590
vn -0.0644 -0.9969 0.0458
vn -0.0084 -0.9969 0.0781
vn -0.0084 -0.9992 -0.0389
vn -0.0643 -0.9961 -0.0601
vn -0.0325 -0.9964 -0.0785
vn 0.0159 -0.9986 -0.0507
vn 0.0176 -0.9988 0.0462
vn 0.0203 -0.9987 0.0477
vn 0.0204 -0.9997 -0.0113
vn 0.0368 -0.9992 0.0143
vn -0.0403 -0.9987 -0.0303
vn -0.0404 -0.9990 -0.0182
vn 0.0184 0.9998 0.0085
vn 0.0444 0.9987 0.0235
vn 0.0649 0.9978 0.0117
vn 0.0342 0.9960 -0.0827
vn -0.0380 0.9981 -0.0478
vn -0.0105 0.9959 -0.0901
vn -0.0118 -0.9997 0.0224
vn 0.0688 -0.9966 0.0448
vn 0.0033 -1.0000 0.0067
vn 0.0132 -0.9987 0.0488
vn 0.1198 -0.9928 0.0050
vn -0.0694 -0.9968 -0.0389
vn 0.0282 -0.9994 -0.0180
vn 0.0479 -0.9988 0.0090
vn -0.0375 -0.9992 0.0128
vn 0.0011 -0.9995 0.0313
vn -0.0118 -0.9997 0.0225
vn 0.0315 -0.9962 -0.0817
vn -0.0110 0.9995 -0.0304
vn 0.0030 0.9977 -0.0672
vn -0.0145 0.9994 0.0322
vn 0.0475 0.9989 0.0008
vn -0.0237 0.9986 -0.0477
vn -0.0454 0.9989 0.0143
vn -0.0405 0.9983 0.0412
vn -0.0870 0.9887 0.1221
vn 0.0790 0.9937 -0.0791
vt 0.916667 0.750000
vt 0.833333 0.500000
vt 0.916667 0.500000
vt 0.750000 0.750000
vt 0.666667 0.500000
vt 0.750000 0.500000
vt 0.583333 0.750000
vt 0.500000 0.500000
vt 0.583333 0.500000
vt 0.416667 0.750000
vt 0.333333 0.500000
vt 0.416667 0.500000
vt 0.250000 0.490000
vt 0.198038 0.400000
vt 0.301962 0.400000
vt 0.250000 0.750000
vt 0.166667 0.500000
vt 0.250000 0.500000
vt 0.083333 0.750000
vt -0.000000 0.500000
vt 0.083333 0.500000
vt 0.957846 0.370000
vt 0.905885 0.280000
vt 0.853923 0.370000
vt 0.833333 1.000000
vt 0.916667 1.000000
vt 0.666667 1.000000
vt 0.750000 1.000000
vt 0.500000 1.000000
vt 0.583333 1.000000
vt 0.333333 1.000000
vt 0.416667 1.000000
vt 0.457846 0.250000
vt 0.405885 0.220000
vt 0.457846 0.130000
vt 0.146077 0.430000
vt 0.146077 0.070000
vt 0.146077 0.130000
vt 0.042154 0.130000
vt 0.166667 1.000000
vt 0.250000 1.000000
vt -0.000000 1.000000
vt 0.083333 1.000000
vt 0.646077 0.430000
vt 0.646077 0.370000
vt 0.542154 0.370000
vt 0.957846 0.250000
vt 0.646077 0.070000
vt 0.698038 0.100000
vt 0.750000 0.010000
vt 0.542154 0.250000
vt 0.594115 0.280000
vt 0.646077 0.190000
vt 0.594115 0.160000
vt 0.542154 0.130000
vt 0.853923 0.070000
vt 0.801962 0.100000
vt 0.853923 0.190000
vt 0.905885 0.160000
vt 0.957846 0.130000
vt 0.853923 0.430000
vt 0.750000 0.370000
vt 0.750000 0.430000
vt 0.750000 0.490000
vt 0.353923 0.070000
vt 0.353923 0.130000
vt 0.250000 0.130000
vt 0.250000 0.070000
vt 0.250000 0.010000
vt 0.042154 0.250000
vt 0.094115 0.220000
vt 0.146077 0.310000
vt 0.094115 0.340000
vt 0.042154 0.370000
vt 0.353923 0.430000
vt 0.353923 0.310000
vt 0.405885 0.340000
vt 0.457846 0.370000
vt 1.000000 1.000000
vt 0.698038 0.280000
vt 0.801962 0.280000
vt 0.750000 0.190000
vt 0.301962 0.220000
vt 0.250000 0.310000
vt 0.198038 0.220000
vt 1.000000 0.500000
s 0
f 25/1/1 3/2/1 13/3/1
f 26/4/2 5/5/2 15/6/2
f 27/7/3 7/8/3 17/9/3
f 28/10/4 9/11/4 19/12/4
f 2/13/5 38/14/5 43/15/5
f 32/16/6 11/17/6 21/18/6
f 33/19/7 1/20/7 23/21/7
f 3/22/8 41/23/8 46/24/8
f 4/25/9 25/1/9 14/26/9
f 6/27/10 26/4/10 16/28/10
f 8/29/11 27/7/11 18/30/11
f 10/31/12 28/10/12 20/32/12
f 16/33/13 37/34/13 6/35/13
f 24/36/14 38/14/14 2/13/14
f 20/37/15 39/38/15 10/39/15
f 12/40/16 32/16/16 22/41/16
f 2/42/17 33/19/17 24/43/17
f 23/44/18 40/45/18 11/46/18
f 15/47/19 41/23/19 3/22/19
f 19/48/20 42/49/20 7/50/20
f 21/51/21 48/52/21 36/53/21
f 36/53/22 49/54/22 21/51/22
f 9/55/23 49/54/23 19/48/23
f 17/56/24 47/57/24 35/58/24
f 35/58/25 50/59/25 17/56/25
f 5/60/26 50/59/26 15/47/26
f 13/61/27 46/24/27 34/62/27
f 34/62/28 51/63/28 13/61/28
f 1/64/29 51/63/29 23/44/29
f 12/40/30 24/43/30 33/19/30
f 10/31/31 22/41/31 32/16/31
f 18/65/32 45/66/32 31/67/32
f 31/67/33 52/68/33 18/65/33
f 8/69/34 52/68/34 20/37/34
f 22/70/35 44/71/35 30/72/35
f 30/72/36 53/73/36 22/70/36
f 12/74/37 53/73/37 24/36/37
f 14/75/38 43/15/38 29/76/38
f 29/76/39 54/77/39 14/75/39
f 4/78/40 54/77/40 16/33/40
f 8/29/41 20/32/41 28/10/41
f 6/27/42 18/30/42 27/7/42
f 4/25/43 16/28/43 26/4/43
f 2/79/44 14/26/44 25/1/44
f 34/62/45 55/80/45 40/45/45
f 34/62/46 56/81/46 55/80/46
f 35/58/47 47/57/47 57/82/47
f 33/19/48 11/17/48 12/40/48
f 32/16/49 9/11/49 10/31/49
f 29/76/50 58/83/50 37/34/50
f 29/76/51 59/84/51 58/83/51
f 30/72/52 44/71/52 60/85/52
f 28/10/53 7/8/53 8/29/53
f 27/7/54 5/5/54 6/27/54
f 26/4/55 3/2/55 4/25/55
f 25/1/56 1/86/56 2/79/56
f 4/25/57 3/2/57 25/1/57
f 6/27/58 5/5/58 26/4/58
f 8/29/59 7/8/59 27/7/59
f 10/31/60 9/11/60 28/10/60
f 12/40/61 11/17/61 32/16/61
f 2/42/62 1/20/62 33/19/62
f 33/19/63 23/21/63 11/17/63
f 32/16/64 21/18/64 9/11/64
f 28/10/65 19/12/65 7/8/65
f 27/7/66 17/9/66 5/5/66
f 26/4/67 15/6/67 3/2/67
f 25/1/68 13/3/68 1/86/68
f 60/85/69 39/38/69 31/67/69
f 60/85/70 44/71/70 39/38/70
f 44/71/71 10/39/71 39/38/71
f 58/83/72 60/85/72 31/67/72
f 58/83/73 59/84/73 60/85/73
f 59/84/74 30/72/74 60/85/74
f 37/34/75 45/66/75 6/35/75
f 37/34/76 58/83/76 45/66/76
f 58/83/77 31/67/77 45/66/77
f 57/82/78 42/49/78 36/53/78
f 57/82/79 47/57/79 42/49/79
f 47/57/80 7/50/80 42/49/80
f 55/80/81 57/82/81 36/53/81
f 55/80/82 56/81/82 57/82/82
f 56/81/83 35/58/83 57/82/83
f 40/45/84 48/52/84 11/46/84
f 40/45/85 55/80/85 48/52/85
f 55/80/86 36/53/86 48/52/86
f 46/24/87 56/81/87 34/62/87
f 46/24/88 41/23/88 56/81/88
f 41/23/89 35/58/89 56/81/89
f 43/15/90 59/84/90 29/76/90
f 43/15/91 38/14/91 59/84/91
f 38/14/92 30/72/92 59/84/92
f 16/33/93 29/76/93 37/34/93
f 24/36/94 30/72/94 38/14/94
f 20/37/95 31/67/95 39/38/95
f 23/44/96 34/62/96 40/45/96
f 15/47/97 35/58/97 41/23/97
f 19/48/98 36/53/98 42/49/98
f 21/51/99 11/46/99 48/52/99
f 36/53/100 19/48/100 49/54/100
f 9/55/101 21/51/101 49/54/101
f 17/56/102 7/50/102 47/57/102
f 35/58/103 15/47/103 50/59/103
f 5/60/104 17/56/104 50/59/104
f 13/61/105 3/22/105 46/24/105
f 34/62/106 23/44/106 51/63/106
f 1/64/107 13/61/107 51/63/107
f 18/65/108 6/35/108 45/66/108
f 31/67/109 20/37/109 52/68/109
f 8/69/110 18/65/110 52/68/110
f 22/70/111 10/39/111 44/71/111
f 30/72/112 24/36/112 53/73/112
f 12/74/113 22/70/113 53/73/113
f 14/75/114 2/13/114 43/15/114
f 29/76/115 16/33/115 54/77/115
f 4/78/116 14/75/116 54/77/116
