# Blender 4.3.0
# www.blender.org
o Cylinder
v 0.000000 -2.390462 -24.857708
v 0.000000 2.307166 -24.749504
v 21.634573 -2.485723 -12.490727
v 21.812513 2.643893 -12.593461
v 21.542526 -2.403903 12.437583
v 21.669249 2.516546 12.510747
v 0.000000 -2.498616 24.998203
v 0.000000 2.206643 24.618919
v -21.546440 -2.407382 12.439843
v -21.959751 2.774775 12.678469
v -21.541332 -2.402840 -12.436894
v -21.357859 2.239753 -12.330966
v 10.845954 -2.541272 -18.785742
v 10.685225 2.219817 -18.507353
v 21.967340 -2.816703 0.000000
v 21.686932 2.536297 0.000000
v 10.671363 -2.192094 18.483343
v 10.874872 2.599109 18.835833
v -10.728456 -2.306279 18.582232
v -10.890972 2.631307 18.863716
v -21.832857 -2.682221 0.000000
v -21.354013 2.203383 0.000000
v -10.894453 -2.638270 -18.869747
v -10.949562 2.748487 -18.965199
v 10.577753 0.000000 -18.321205
v 22.002052 0.000000 0.000000
v 10.992946 0.000000 19.040340
v -10.825452 0.000000 18.750233
v 10.825317 2.380316 -6.250000
v -10.825317 2.865130 -6.250000
v 0.000000 2.249851 12.500000
v -21.632496 0.000000 0.000000
v -10.891982 0.000000 -18.865467
v 0.000000 -2.838654 -12.500000
v 10.825317 -2.101637 6.250000
v -10.825317 -2.940089 6.250000
v 16.237976 2.777934 3.125000
v -5.412659 2.832457 -15.625000
v -10.825317 2.500879 12.500000
v -10.825317 -2.614656 -12.500000
v 16.237976 -2.642480 -3.125000
v -5.412659 -2.988908 15.625000
v 5.412659 2.138760 -15.625000
v -16.237976 2.121862 3.125000
v 10.825317 2.206336 12.500000
v 10.825317 -2.844113 -12.500000
v 5.412659 -2.992992 15.625000
v -16.237976 -2.776813 -3.125000
v -16.237976 -2.511123 9.375000
v 16.237976 -2.708469 9.375000
v 0.000000 -2.494834 -18.750000
v 0.000000 2.235983 18.750000
v -16.237976 2.901236 -9.375000
v 16.237976 2.162922 -9.375000
v -5.412659 -2.069592 -3.125000
v 5.412659 -2.417848 -3.125000
v 0.000000 -2.063632 6.250000
v 5.412659 2.540686 3.125000
v 0.000000 2.187056 -6.250000
v -5.412659 2.916749 3.125000
vn 0.4923 0.2065 -0.8456
vn 0.9993 -0.0123 0.0345
vn 0.5059 -0.2814 0.8154
vn -0.4914 -0.0838 0.8669
vn 0.0639 0.9978 -0.0195
vn -0.9970 0.0745 -0.0217
vn -0.4817 0.0019 -0.8763
vn 0.0331 -0.9994 0.0024
vn 0.4700 -0.0963 -0.8774
vn 0.9924 0.1233 0.0016
vn 0.4651 0.0904 0.8807
vn -0.4877 -0.0497 0.8716
vn 0.0452 0.9990 0.0016
vn 0.0144 0.9987 -0.0490
vn 0.0243 0.9995 -0.0202
vn -0.9921 0.1254 0.0007
vn -0.4680 -0.0418 -0.8827
vn -0.0197 -0.9998 0.0039
vn -0.0162 -0.9995 -0.0261
vn -0.0746 -0.9927 0.0950
vn -0.0201 -0.9998 -0.0058
vn -0.0510 -0.9975 0.0486
vn -0.0050 -0.9997 0.0252
vn 0.1534 -0.9881 -0.0054
vn -0.1065 -0.9943 -0.0087
vn 0.0375 -0.9987 0.0344
vn -0.0005 -0.9988 -0.0481
vn -0.0045 -0.9985 -0.0549
vn 0.0134 -0.9998 -0.0171
vn -0.5356 -0.0418 -0.8435
vn -0.9907 0.1252 -0.0530
vn 0.0040 0.9981 -0.0619
vn -0.0334 0.9994 0.0022
vn 0.0363 0.9993 0.0050
vn -0.0240 0.9976 0.0653
vn -0.0275 0.9979 0.0592
vn -0.0905 0.9937 -0.0657
vn -0.0224 0.9997 -0.0128
vn 0.0324 0.9994 -0.0135
vn -0.0815 0.9966 0.0077
vn -0.4682 -0.0497 0.8822
vn 0.5040 0.0905 0.8589
vn 0.9923 0.1233 0.0109
vn 0.5015 -0.0964 -0.8598
vn -0.0206 -0.9973 0.0699
vn -0.0321 -0.9975 0.0633
vn -0.0035 -0.9953 -0.0966
vn -0.5230 0.0401 -0.8514
vn -0.9968 -0.0791 -0.0084
vn -0.0219 0.9993 -0.0297
vn -0.0178 0.9995 -0.0274
vn -0.0732 0.9966 0.0368
vn -0.4864 0.0702 0.8709
vn 0.5261 -0.0262 0.8500
vn 0.9991 -0.0351 -0.0224
vn 0.5224 0.0196 -0.8525
vn 0.4602 -0.0337 -0.8872
vn 0.9991 -0.0262 0.0318
vn 0.4627 0.0712 0.8836
vn -0.4924 -0.0792 0.8668
vn -0.9991 0.0398 -0.0150
vn -0.4785 0.0202 -0.8778
vn -0.5171 0.0019 -0.8559
vn -0.9970 0.0745 0.0213
vn -0.5126 -0.0838 0.8546
vn 0.4622 -0.2815 0.8409
vn 0.9996 -0.0123 -0.0270
vn 0.4801 0.2065 -0.8525
vn 0.0231 0.9981 0.0576
vn -0.0732 0.9973 0.0020
vn 0.0237 0.9983 -0.0540
vn 0.0347 0.9981 0.0510
vn 0.0347 0.9977 -0.0576
vn 0.0625 0.9972 -0.0416
vn -0.0286 0.9986 0.0444
vn -0.0219 0.9986 0.0482
vn 0.0040 0.9994 0.0333
vn 0.0806 -0.9954 -0.0517
vn -0.0004 -0.9951 -0.0984
vn -0.0004 -0.9986 0.0525
vn 0.0806 -0.9957 -0.0459
vn -0.0321 -0.9993 0.0192
vn -0.0035 -0.9994 0.0357
vn -0.0199 -0.9994 -0.0288
vn 0.0652 -0.9977 0.0204
vn 0.0651 -0.9964 -0.0549
vn -0.0005 -0.9990 0.0451
vn -0.0207 -0.9992 0.0335
vn -0.0207 -0.9987 0.0457
vn -0.0178 0.9997 -0.0155
vn 0.0639 0.9974 0.0318
vn 0.0625 0.9975 0.0326
vn 0.0150 0.9986 -0.0510
vn -0.0097 0.9999 -0.0091
vn 0.0232 0.9995 -0.0202
vn -0.0207 -0.9998 0.0039
vn -0.0470 -0.9984 0.0305
vn -0.0988 -0.9938 0.0518
vn -0.0298 -0.9993 -0.0231
vn -0.0492 -0.9975 0.0517
vn -0.0067 -0.9997 0.0222
vn 0.0932 -0.9900 0.1060
vn -0.0874 -0.9953 -0.0419
vn 0.0182 -0.9975 0.0677
vn 0.0331 -0.9983 -0.0480
vn 0.0137 -0.9984 -0.0549
vn -0.0043 -0.9998 -0.0171
vn -0.0285 0.9977 -0.0616
vn 0.0363 0.9993 0.0022
vn -0.0334 0.9994 0.0050
vn 0.0422 0.9982 -0.0430
vn 0.0120 0.9999 -0.0093
vn -0.1298 0.9915 0.0030
vn -0.0040 0.9998 0.0208
vn 0.0128 0.9988 -0.0472
vn -0.0610 0.9972 0.0433
vt 0.916667 0.750000
vt 0.833333 0.500000
vt 0.916667 0.500000
vt 0.750000 0.750000
vt 0.666667 0.500000
vt 0.750000 0.500000
vt 0.583333 0.750000
vt 0.500000 0.500000
vt 0.583333 0.500000
vt 0.416667 0.750000
vt 0.333333 0.500000
vt 0.416667 0.500000
vt 0.250000 0.490000
vt 0.198038 0.400000
vt 0.301962 0.400000
vt 0.250000 0.750000
vt 0.166667 0.500000
vt 0.250000 0.500000
vt 0.083333 0.750000
vt -0.000000 0.500000
vt 0.083333 0.500000
vt 0.957846 0.370000
vt 0.905885 0.280000
vt 0.853923 0.370000
vt 0.833333 1.000000
vt 0.916667 1.000000
vt 0.666667 1.000000
vt 0.750000 1.000000
vt 0.500000 1.000000
vt 0.583333 1.000000
vt 0.333333 1.000000
vt 0.416667 1.000000
vt 0.457846 0.250000
vt 0.405885 0.220000
vt 0.457846 0.130000
vt 0.146077 0.430000
vt 0.146077 0.070000
vt 0.146077 0.130000
vt 0.042154 0.130000
vt 0.166667 1.000000
vt 0.250000 1.000000
vt -0.000000 1.000000
vt 0.083333 1.000000
vt 0.646077 0.430000
vt 0.646077 0.370000
vt 0.542154 0.370000
vt 0.957846 0.250000
vt 0.646077 0.070000
vt 0.698038 0.100000
vt 0.750000 0.010000
vt 0.542154 0.250000
vt 0.594115 0.280000
vt 0.646077 0.190000
vt 0.594115 0.160000
vt 0.542154 0.130000
vt 0.853923 0.070000
vt 0.801962 0.100000
vt 0.853923 0.190000
vt 0.905885 0.160000
vt 0.957846 0.130000
vt 0.853923 0.430000
vt 0.750000 0.370000
vt 0.750000 0.430000
vt 0.750000 0.490000
vt 0.353923 0.070000
vt 0.353923 0.130000
vt 0.250000 0.130000
vt 0.250000 0.070000
vt 0.250000 0.010000
vt 0.042154 0.250000
vt 0.094115 0.220000
vt 0.146077 0.310000
vt 0.094115 0.340000
vt 0.042154 0.370000
vt 0.353923 0.430000
vt 0.353923 0.310000
vt 0.405885 0.340000
vt 0.457846 0.370000
vt 1.000000 1.000000
vt 0.698038 0.280000
vt 0.801962 0.280000
vt 0.750000 0.190000
vt 0.301962 0.220000
vt 0.250000 0.310000
vt 0.198038 0.220000
vt 1.000000 0.500000
s 0
f 25/1/1 3/2/1 13/3/1
f 26/4/2 5/5/2 15/6/2
f 27/7/3 7/8/3 17/9/3
f 28/10/4 9/11/4 19/12/4
f 2/13/5 38/14/5 43/15/5
f 32/16/6 11/17/6 21/18/6
f 33/19/7 1/20/7 23/21/7
f 3/22/8 41/23/8 46/24/8
f 4/25/9 25/1/9 14/26/9
f 6/27/10 26/4/10 16/28/10
f 8/29/11 27/7/11 18/30/11
f 10/31/12 28/10/12 20/32/12
f 16/33/13 37/34/13 6/35/13
f 24/36/14 38/14/14 2/13/14
f 20/37/15 39/38/15 10/39/15
f 12/40/16 32/16/16 22/41/16
f 2/42/17 33/19/17 24/43/17
f 23/44/18 40/45/18 11/46/18
f 15/47/19 41/23/19 3/22/19
f 19/48/20 42/49/20 7/50/20
f 21/51/21 48/52/21 36/53/21
f 36/53/22 49/54/22 21/51/22
f 9/55/23 49/54/23 19/48/23
f 17/56/24 47/57/24 35/58/24
f 35/58/25 50/59/25 17/56/25
f 5/60/26 50/59/26 15/47/26
f 13/61/27 46/24/27 34/62/27
f 34/62/28 51/63/28 13/61/28
f 1/64/29 51/63/29 23/44/29
f 12/40/30 24/43/30 33/19/30
f 10/31/31 22/41/31 32/16/31
f 18/65/32 45/66/32 31/67/32
f 31/67/33 52/68/33 18/65/33
f 8/69/34 52/68/34 20/37/34
f 22/70/35 44/71/35 30/72/35
f 30/72/36 53/73/36 22/70/36
f 12/74/37 53/73/37 24/36/37
f 14/75/38 43/15/38 29/76/38
f 29/76/39 54/77/39 14/75/39
f 4/78/40 54/77/40 16/33/40
f 8/29/41 20/32/41 28/10/41
f 6/27/42 18/30/42 27/7/42
f 4/25/43 16/28/43 26/4/43
f 2/79/44 14/26/44 25/1/44
f 34/62/45 55/80/45 40/45/45
f 34/62/46 56/81/46 55/80/46
f 35/58/47 47/57/47 57/82/47
f 33/19/48 11/17/48 12/40/48
f 32/16/49 9/11/49 10/31/49
f 29/76/50 58/83/50 37/34/50
f 29/76/51 59/84/51 58/83/51
f 30/72/52 44/71/52 60/85/52
f 28/10/53 7/8/53 8/29/53
f 27/7/54 5/5/54 6/27/54
f 26/4/55 3/2/55 4/25/55
f 25/1/56 1/86/56 2/79/56
f 4/25/57 3/2/57 25/1/57
f 6/27/58 5/5/58 26/4/58
f 8/29/59 7/8/59 27/7/59
f 10/31/60 9/11/60 28/10/60
f 12/40/61 11/17/61 32/16/61
f 2/42/62 1/20/62 33/19/62
f 33/19/63 23/21/63 11/17/63
f 32/16/64 21/18/64 9/11/64
f 28/10/65 19/12/65 7/8/65
f 27/7/66 17/9/66 5/5/66
f 26/4/67 15/6/67 3/2/67
f 25/1/68 13/3/68 1/86/68
f 60/85/69 39/38/69 31/67/69
f 60/85/70 44/71/70 39/38/70
f 44/71/71 10/39/71 39/38/71
f 58/83/72 60/85/72 31/67/72
f 58/83/73 59/84/73 60/85/73
f 59/84/74 30/72/74 60/85/74
f 37/34/75 45/66/75 6/35/75
f 37/34/76 58/83/76 45/66/76
f 58/83/77 31/67/77 45/66/77
f 57/82/78 42/49/78 36/53/78
f 57/82/79 47/57/79 42/49/79
f 47/57/80 7/50/80 42/49/80
f 55/80/81 57/82/81 36/53/81
f 55/80/82 56/81/82 57/82/82
f 56/81/83 35/58/83 57/82/83
f 40/45/84 48/52/84 11/46/84
f 40/45/85 55/80/85 48/52/85
f 55/80/86 36/53/86 48/52/86
f 46/24/87 56/81/87 34/62/87
f 46/24/88 41/23/88 56/81/88
f 41/23/89 35/58/89 56/81/89
f 43/15/90 59/84/90 29/76/90
f 43/15/91 38/14/91 59/84/91
f 38/14/92 30/72/92 59/84/92
f 16/33/93 29/76/93 37/34/93
f 24/36/94 30/72/94 38/14/94
f 20/37/95 31/67/95 39/38/95
f 23/44/96 34/62/96 40/45/96
f 15/47/97 35/58/97 41/23/97
f 19/48/98 36/53/98 42/49/98
f 21/51/99 11/46/99 48/52/99
f 36/53/100 19/48/100 49/54/100
f 9/55/101 21/51/101 49/54/101
f 17/56/102 7/50/102 47/57/102
f 35/58/103 15/47/103 50/59/103
f 5/60/104 17/56/104 50/59/104
f 13/61/105 3/22/105 46/24/105
f 34/62/106 23/44/106 51/63/106
f 1/64/107 13/61/107 51/63/107
f 18/65/108 6/35/108 45/66/108
f 31/67/109 20/37/109 52/68/109
f 8/69/110 18/65/110 52/68/110
f 22/70/111 10/39/111 44/71/111
f 30/72/112 24/36/112 53/73/112
f 12/74/113 22/70/113 53/73/113
f 14/75/114 2/13/114 43/15/114
f 29/76/115 16/33/115 54/77/115
f 4/78/116 14/75/116 54/77/116
