# Blender 4.3.0
# www.blender.org
o Cylinder
v 0.000000 -2.615583 -25.150145
v 0.000000 2.727527 -25.295561
v 21.387751 -2.266321 -12.348224
v 21.784220 2.618742 -12.577125
v 21.812773 -2.644124 12.593611
v 21.374723 2.254741 12.340702
v 0.000000 -2.349766 24.804844
v 0.000000 2.757679 25.334734
v -21.456425 -2.327367 12.387873
v -21.904640 2.725785 12.646649
v -21.737137 -2.576891 -12.549941
v -21.958097 2.773303 -12.677514
v 10.961641 -2.772646 -18.986120
v 10.823512 2.496389 -18.746872
v 21.711351 -2.560716 0.000000
v 21.559032 2.408399 0.000000
v 10.991302 -2.831964 19.037493
v 10.989308 2.827978 19.034040
v -10.824003 -2.497371 18.747723
v -10.830154 2.509674 18.758377
v -21.672430 -2.521794 0.000000
v -21.355316 2.204685 0.000000
v -10.757816 -2.365000 -18.633085
v -10.882504 2.614372 -18.849051
v 10.903450 0.000000 -18.885330
v 21.728954 0.000000 0.000000
v 10.624323 0.000000 18.401867
v -10.578945 0.000000 18.323271
v 10.825317 2.381528 -6.250000
v -10.825317 2.381279 -6.250000
v 0.000000 2.602615 12.500000
v -21.687916 0.000000 0.000000
v -10.646639 0.000000 -18.440519
v 0.000000 -2.933008 -12.500000
v 10.825317 -2.617675 6.250000
v -10.825317 -2.559658 6.250000
v 16.237976 2.851841 3.125000
v -5.412659 2.714239 -15.625000
v -10.825317 2.372182 12.500000
v -10.825317 -2.056987 -12.500000
v 16.237976 -2.942037 -3.125000
v -5.412659 -2.901212 15.625000
v 5.412659 2.833476 -15.625000
v -16.237976 2.690421 3.125000
v 10.825317 2.189308 12.500000
v 10.825317 -2.254705 -12.500000
v 5.412659 -2.333884 15.625000
v -16.237976 -2.456960 -3.125000
v -16.237976 -2.633582 9.375000
v 16.237976 -2.407772 9.375000
v 0.000000 -2.489897 -18.750000
v 0.000000 2.041175 18.750000
v -16.237976 2.843274 -9.375000
v 16.237976 2.498550 -9.375000
v -5.412659 -2.849859 -3.125000
v 5.412659 -2.953717 -3.125000
v 0.000000 -2.913128 6.250000
v 5.412659 2.774706 3.125000
v 0.000000 2.461286 -6.250000
v -5.412659 2.795007 3.125000
vn 0.5351 0.0419 -0.8437
vn 0.9999 -0.0069 -0.0081
vn 0.4584 0.2508 0.8526
vn -0.5015 0.1926 0.8435
vn -0.0110 0.9999 -0.0048
vn -1.0000 -0.0061 0.0052
vn -0.5143 0.0936 -0.8525
vn -0.0000 -0.9973 -0.0731
vn 0.4890 0.0639 -0.8700
vn 0.9974 0.0704 0.0158
vn 0.4828 -0.2499 0.8393
vn -0.4767 -0.1963 0.8569
vn 0.0911 0.9958 0.0138
vn -0.0143 0.9999 -0.0066
vn 0.0316 0.9993 -0.0219
vn -0.9874 0.1490 0.0536
vn -0.5002 -0.1776 -0.8475
vn 0.0473 -0.9976 0.0506
vn 0.0842 -0.9961 -0.0260
vn -0.0297 -0.9966 0.0774
vn 0.0042 -0.9999 -0.0134
vn 0.0051 -0.9999 -0.0149
vn -0.0377 -0.9986 0.0363
vn -0.0794 -0.9967 -0.0157
vn 0.0488 -0.9987 -0.0174
vn -0.0387 -0.9992 -0.0063
vn 0.0623 -0.9948 0.0807
vn -0.0272 -0.9971 -0.0707
vn -0.0114 -0.9997 0.0196
vn -0.4810 -0.1776 -0.8586
vn -0.9876 0.1490 -0.0490
vn 0.0380 0.9944 -0.0982
vn -0.0734 0.9933 0.0892
vn 0.0429 0.9932 -0.1081
vn -0.0551 0.9964 -0.0647
vn 0.0348 0.9956 0.0868
vn 0.0013 0.9997 -0.0234
vn 0.0674 0.9977 0.0092
vn -0.0163 0.9998 0.0092
vn -0.0121 0.9998 0.0165
vn -0.5056 -0.1963 0.8401
vn 0.5148 -0.2498 0.8201
vn 0.9973 0.0704 0.0190
vn 0.5176 0.0639 -0.8532
vn -0.0806 -0.9960 -0.0377
vn -0.0096 -0.9999 0.0033
vn 0.0273 -0.9986 0.0460
vn -0.4614 -0.0402 -0.8863
vn -0.9961 -0.0885 0.0020
vn -0.0071 0.9989 -0.0460
vn 0.0074 0.9993 -0.0377
vn -0.0097 0.9992 -0.0385
vn -0.5345 -0.0872 0.8407
vn 0.4752 0.0877 0.8755
vn 0.9966 -0.0815 -0.0126
vn 0.5023 -0.0235 -0.8644
vn 0.5145 -0.0818 -0.8536
vn 0.9959 0.0897 0.0122
vn 0.5283 -0.0876 0.8445
vn -0.4629 -0.0862 0.8822
vn -0.9991 -0.0410 0.0123
vn -0.5371 -0.0229 -0.8432
vn -0.4839 0.0936 -0.8701
vn -0.9998 -0.0061 0.0175
vn -0.4812 0.1926 0.8552
vn 0.4921 0.2509 0.8336
vn 0.9996 -0.0069 -0.0264
vn 0.4902 0.0419 -0.8706
vn -0.0213 0.9992 0.0328
vn -0.0097 0.9992 0.0395
vn 0.0321 0.9994 0.0154
vn 0.0019 0.9998 0.0194
vn 0.0019 0.9994 -0.0345
vn -0.0074 0.9992 -0.0398
vn -0.0052 0.9977 0.0675
vn -0.0071 0.9978 0.0664
vn 0.0381 0.9985 0.0403
vn -0.0326 -0.9993 -0.0176
vn 0.0523 -0.9981 0.0315
vn 0.0523 -0.9982 0.0291
vn -0.0326 -0.9994 0.0121
vn -0.0096 -1.0000 -0.0012
vn 0.0273 -0.9994 0.0201
vn 0.0477 -0.9987 -0.0151
vn -0.0362 -0.9973 -0.0634
vn -0.0363 -0.9993 0.0100
vn 0.0625 -0.9973 -0.0383
vn 0.0011 -0.9973 -0.0737
vn 0.0011 -0.9994 0.0352
vn 0.0074 0.9990 0.0439
vn -0.0110 0.9994 0.0333
vn -0.0074 0.9995 0.0312
vn 0.0401 0.9965 -0.0731
vn -0.0292 0.9994 0.0186
vn -0.0213 0.9995 -0.0220
vn -0.0806 -0.9955 0.0491
vn 0.0375 -0.9977 0.0561
vn -0.0716 -0.9974 0.0050
vn 0.0144 -0.9999 0.0043
vn 0.0165 -0.9999 0.0050
vn -0.0491 -0.9987 0.0165
vn -0.0647 -0.9971 -0.0398
vn 0.0219 -0.9993 0.0291
vn -0.0130 -0.9986 -0.0509
vn -0.0022 -0.9968 0.0796
vn -0.0123 -0.9974 -0.0707
vn -0.0254 -0.9995 0.0196
vn -0.0076 0.9952 -0.0971
vn 0.0431 0.9951 0.0894
vn -0.0682 0.9918 -0.1079
vn -0.0677 0.9967 -0.0440
vn 0.0746 0.9970 0.0181
vn -0.0391 0.9981 0.0466
vn 0.0422 0.9985 -0.0346
vt 0.916667 0.750000
vt 0.833333 0.500000
vt 0.916667 0.500000
vt 0.750000 0.750000
vt 0.666667 0.500000
vt 0.750000 0.500000
vt 0.583333 0.750000
vt 0.500000 0.500000
vt 0.583333 0.500000
vt 0.416667 0.750000
vt 0.333333 0.500000
vt 0.416667 0.500000
vt 0.250000 0.490000
vt 0.198038 0.400000
vt 0.301962 0.400000
vt 0.250000 0.750000
vt 0.166667 0.500000
vt 0.250000 0.500000
vt 0.083333 0.750000
vt -0.000000 0.500000
vt 0.083333 0.500000
vt 0.957846 0.370000
vt 0.905885 0.280000
vt 0.853923 0.370000
vt 0.833333 1.000000
vt 0.916667 1.000000
vt 0.666667 1.000000
vt 0.750000 1.000000
vt 0.500000 1.000000
vt 0.583333 1.000000
vt 0.333333 1.000000
vt 0.416667 1.000000
vt 0.457846 0.250000
vt 0.405885 0.220000
vt 0.457846 0.130000
vt 0.146077 0.430000
vt 0.146077 0.070000
vt 0.146077 0.130000
vt 0.042154 0.130000
vt 0.166667 1.000000
vt 0.250000 1.000000
vt -0.000000 1.000000
vt 0.083333 1.000000
vt 0.646077 0.430000
vt 0.646077 0.370000
vt 0.542154 0.370000
vt 0.957846 0.250000
vt 0.646077 0.070000
vt 0.698038 0.100000
vt 0.750000 0.010000
vt 0.542154 0.250000
vt 0.594115 0.280000
vt 0.646077 0.190000
vt 0.594115 0.160000
vt 0.542154 0.130000
vt 0.853923 0.070000
vt 0.801962 0.100000
vt 0.853923 0.190000
vt 0.905885 0.160000
vt 0.957846 0.130000
vt 0.853923 0.430000
vt 0.750000 0.370000
vt 0.750000 0.430000
vt 0.750000 0.490000
vt 0.353923 0.070000
vt 0.353923 0.130000
vt 0.250000 0.130000
vt 0.250000 0.070000
vt 0.250000 0.010000
vt 0.042154 0.250000
vt 0.094115 0.220000
vt 0.146077 0.310000
vt 0.094115 0.340000
vt 0.042154 0.370000
vt 0.353923 0.430000
vt 0.353923 0.310000
vt 0.405885 0.340000
vt 0.457846 0.370000
vt 1.000000 1.000000
vt 0.698038 0.280000
vt 0.801962 0.280000
vt 0.750000 0.190000
vt 0.301962 0.220000
vt 0.250000 0.310000
vt 0.198038 0.220000
vt 1.000000 0.500000
s 0
f 25/1/1 3/2/1 13/3/1
f 26/4/2 5/5/2 15/6/2
f 27/7/3 7/8/3 17/9/3
f 28/10/4 9/11/4 19/12/4
f 2/13/5 38/14/5 43/15/5
f 32/16/6 11/17/6 21/18/6
f 33/19/7 1/20/7 23/21/7
f 3/22/8 41/23/8 46/24/8
f 4/25/9 25/1/9 14/26/9
f 6/27/10 26/4/10 16/28/10
f 8/29/11 27/7/11 18/30/11
f 10/31/12 28/10/12 20/32/12
f 16/33/13 37/34/13 6/35/13
f 24/36/14 38/14/14 2/13/14
f 20/37/15 39/38/15 10/39/15
f 12/40/16 32/16/16 22/41/16
f 2/42/17 33/19/17 24/43/17
f 23/44/18 40/45/18 11/46/18
f 15/47/19 41/23/19 3/22/19
f 19/48/20 42/49/20 7/50/20
f 21/51/21 48/52/21 36/53/21
f 36/53/22 49/54/22 21/51/22
f 9/55/23 49/54/23 19/48/23
f 17/56/24 47/57/24 35/58/24
f 35/58/25 50/59/25 17/56/25
f 5/60/26 50/59/26 15/47/26
f 13/61/27 46/24/27 34/62/27
f 34/62/28 51/63/28 13/61/28
f 1/64/29 51/63/29 23/44/29
f 12/40/30 24/43/30 33/19/30
f 10/31/31 22/41/31 32/16/31
f 18/65/32 45/66/32 31/67/32
f 31/67/33 52/68/33 18/65/33
f 8/69/34 52/68/34 20/37/34
f 22/70/35 44/71/35 30/72/35
f 30/72/36 53/73/36 22/70/36
f 12/74/37 53/73/37 24/36/37
f 14/75/38 43/15/38 29/76/38
f 29/76/39 54/77/39 14/75/39
f 4/78/40 54/77/40 16/33/40
f 8/29/41 20/32/41 28/10/41
f 6/27/42 18/30/42 27/7/42
f 4/25/43 16/28/43 26/4/43
f 2/79/44 14/26/44 25/1/44
f 34/62/45 55/80/45 40/45/45
f 34/62/46 56/81/46 55/80/46
f 35/58/47 47/57/47 57/82/47
f 33/19/48 11/17/48 12/40/48
f 32/16/49 9/11/49 10/31/49
f 29/76/50 58/83/50 37/34/50
f 29/76/51 59/84/51 58/83/51
f 30/72/52 44/71/52 60/85/52
f 28/10/53 7/8/53 8/29/53
f 27/7/54 5/5/54 6/27/54
f 26/4/55 3/2/55 4/25/55
f 25/1/56 1/86/56 2/79/56
f 4/25/57 3/2/57 25/1/57
f 6/27/58 5/5/58 26/4/58
f 8/29/59 7/8/59 27/7/59
f 10/31/60 9/11/60 28/10/60
f 12/40/61 11/17/61 32/16/61
f 2/42/62 1/20/62 33/19/62
f 33/19/63 23/21/63 11/17/63
f 32/16/64 21/18/64 9/11/64
f 28/10/65 19/12/65 7/8/65
f 27/7/66 17/9/66 5/5/66
f 26/4/67 15/6/67 3/2/67
f 25/1/68 13/3/68 1/86/68
f 60/85/69 39/38/69 31/67/69
f 60/85/70 44/71/70 39/38/70
f 44/71/71 10/39/71 39/38/71
f 58/83/72 60/85/72 31/67/72
f 58/83/73 59/84/73 60/85/73
f 59/84/74 30/72/74 60/85/74
f 37/34/75 45/66/75 6/35/75
f 37/34/76 58/83/76 45/66/76
f 58/83/77 31/67/77 45/66/77
f 57/82/78 42/49/78 36/53/78
f 57/82/79 47/57/79 42/49/79
f 47/57/80 7/50/80 42/49/80
f 55/80/81 57/82/81 36/53/81
f 55/80/82 56/81/82 57/82/82
f 56/81/83 35/58/83 57/82/83
f 40/45/84 48/52/84 11/46/84
f 40/45/85 55/80/85 48/52/85
f 55/80/86 36/53/86 48/52/86
f 46/24/87 56/81/87 34/62/87
f 46/24/88 41/23/88 56/81/88
f 41/23/89 35/58/89 56/81/89
f 43/15/90 59/84/90 29/76/90
f 43/15/91 38/14/91 59/84/91
f 38/14/92 30/72/92 59/84/92
f 16/33/93 29/76/93 37/34/93
f 24/36/94 30/72/94 38/14/94
f 20/37/95 31/67/95 39/38/95
f 23/44/96 34/62/96 40/45/96
f 15/47/97 35/58/97 41/23/97
f 19/48/98 36/53/98 42/49/98
f 21/51/99 11/46/99 48/52/99
f 36/53/100 19/48/100 49/54/100
f 9/55/101 21/51/101 49/54/101
f 17/56/102 7/50/102 47/57/102
f 35/58/103 15/47/103 50/59/103
f 5/60/104 17/56/104 50/59/104
f 13/61/105 3/22/105 46/24/105
f 34/62/106 23/44/106 51/63/106
f 1/64/107 13/61/107 51/63/107
f 18/65/108 6/35/108 45/66/108
f 31/67/109 20/37/109 52/68/109
f 8/69/110 18/65/110 52/68/110
f 22/70/111 10/39/111 44/71/111
f 30/72/112 24/36/112 53/73/112
f 12/74/113 22/70/113 53/73/113
f 14/75/114 2/13/114 43/15/114
f 29/76/40 16/33/40 54/77/40
f 4/78/39 14/75/39 54/77/39
