# Blender 4.3.0
# www.blender.org
o Cylinder
v 0.000000 -2.384007 -24.849321
v 0.000000 2.476655 -24.969673
v 21.767591 -2.603963 -12.567525
v 21.871149 2.696013 -12.627314
v 21.897821 -2.719723 12.642714
v 21.890347 2.713080 12.638397
v 0.000000 -2.214641 24.629313
v 0.000000 2.689270 25.245869
v -21.846266 -2.673895 12.612947
v -21.433718 2.307182 12.374763
v -21.698954 -2.542951 -12.527897
v -21.802502 2.634994 -12.587681
v 10.990965 -2.831292 -19.036909
v 10.808434 2.466232 -18.720757
v 21.607193 -2.456558 0.000000
v 21.814001 2.663365 0.000000
v 10.906068 -2.661499 18.889864
v 10.867229 2.583821 18.822592
v -10.769746 -2.388857 18.653746
v -10.986670 2.822703 19.029472
v -21.687494 -2.536859 0.000000
v -21.542633 2.391999 0.000000
v -10.958121 -2.765604 -18.980022
v -10.954391 2.758143 -18.973560
v 10.811464 0.000000 -18.726007
v 21.428814 0.000000 0.000000
v 10.979513 0.000000 19.017076
v -10.671922 0.000000 18.484312
v 10.825317 2.044713 -6.250000
v -10.825317 2.431924 -6.250000
v 0.000000 2.586851 12.500000
v -22.108278 0.000000 0.000000
v -10.669321 0.000000 -18.479807
v 0.000000 -2.631499 -12.500000
v 10.825317 -2.815207 6.250000
v -10.825317 -2.496217 6.250000
v 16.237976 2.465280 3.125000
v -5.412659 2.577102 -15.625000
v -10.825317 2.763350 12.500000
v -10.825317 -2.273278 -12.500000
v 16.237976 -2.153822 -3.125000
v -5.412659 -2.073761 15.625000
v 5.412659 2.738186 -15.625000
v -16.237976 2.118165 3.125000
v 10.825317 2.802580 12.500000
v 10.825317 -2.210513 -12.500000
v 5.412659 -2.665587 15.625000
v -16.237976 -2.552098 -3.125000
v -16.237976 -2.055444 9.375000
v 16.237976 -2.021315 9.375000
v 0.000000 -2.015979 -18.750000
v 0.000000 2.850076 18.750000
v -16.237976 2.055013 -9.375000
v 16.237976 2.958281 -9.375000
v -5.412659 -2.957802 -3.125000
v 5.412659 -2.265016 -3.125000
v 0.000000 -2.475769 6.250000
v 5.412659 2.971892 3.125000
v 0.000000 2.353763 -6.250000
v -5.412659 2.431261 3.125000
vn 0.5087 0.1258 -0.8517
vn 0.9971 0.0724 -0.0214
vn 0.4632 -0.0551 0.8845
vn -0.4788 0.0816 0.8741
vn -0.0149 0.9997 -0.0194
vn -0.9865 -0.1636 0.0010
vn -0.4677 0.2044 -0.8599
vn -0.0358 -0.9990 0.0267
vn 0.4824 0.0025 -0.8759
vn 0.9897 -0.1431 -0.0054
vn 0.5075 0.0866 0.8573
vn -0.5167 -0.2175 0.8281
vn -0.0376 0.9993 -0.0037
vn 0.0290 0.9996 0.0061
vn -0.0428 0.9990 -0.0101
vn -0.9729 0.2301 0.0245
vn -0.4742 -0.2024 -0.8568
vn 0.0245 -0.9969 0.0752
vn -0.0626 -0.9980 0.0109
vn 0.0372 -0.9986 -0.0380
vn 0.0005 -1.0000 0.0057
vn -0.0386 -0.9965 0.0736
vn 0.0665 -0.9950 -0.0749
vn -0.0065 -0.9999 0.0122
vn 0.1388 -0.9903 0.0112
vn -0.1121 -0.9935 -0.0181
vn 0.0387 -0.9947 0.0954
vn -0.0762 -0.9923 -0.0977
vn 0.0669 -0.9960 0.0601
vn -0.4951 -0.2024 -0.8449
vn -0.9731 0.2301 0.0101
vn -0.0199 0.9992 0.0347
vn 0.0248 0.9988 -0.0421
vn -0.0019 0.9997 0.0247
vn 0.0238 0.9986 0.0471
vn -0.0368 0.9977 -0.0567
vn 0.0467 0.9940 0.0985
vn 0.0695 0.9970 0.0336
vn -0.1474 0.9885 0.0336
vn 0.0481 0.9988 0.0028
vn -0.4826 -0.2177 0.8483
vn 0.4867 0.0866 0.8693
vn 0.9897 -0.1431 0.0041
vn 0.5005 0.0025 -0.8657
vn -0.0330 -0.9980 -0.0538
vn 0.0639 -0.9980 0.0021
vn -0.0313 -0.9995 -0.0021
vn -0.4713 -0.0196 -0.8818
vn -0.9957 0.0843 0.0386
vn 0.0466 0.9963 -0.0716
vn 0.0284 0.9962 -0.0821
vn -0.0289 0.9994 0.0168
vn -0.5127 -0.1071 0.8518
vn 0.5044 0.0014 0.8634
vn 0.9993 -0.0192 0.0309
vn 0.4963 -0.0215 -0.8679
vn 0.4864 -0.0194 -0.8735
vn 0.9993 0.0013 -0.0368
vn 0.4699 -0.1101 0.8758
vn -0.4788 0.0815 0.8741
vn -0.9994 -0.0203 -0.0285
vn -0.5160 -0.0212 -0.8563
vn -0.5010 0.2044 -0.8410
vn -0.9864 -0.1636 -0.0142
vn -0.4846 0.0816 0.8709
vn 0.4931 -0.0551 0.8682
vn 0.9973 0.0724 0.0119
vn 0.4678 0.1257 -0.8749
vn 0.0163 0.9995 -0.0260
vn -0.0289 0.9982 -0.0520
vn -0.0424 0.9981 -0.0442
vn -0.0499 0.9987 0.0122
vn -0.0498 0.9981 -0.0370
vn 0.0072 1.0000 -0.0041
vn 0.0085 0.9995 -0.0311
vn 0.0467 0.9989 -0.0089
vn -0.0199 0.9994 0.0295
vn 0.0019 -0.9990 0.0439
vn -0.0546 -0.9984 0.0113
vn -0.0546 -0.9984 0.0172
vn 0.0019 -0.9987 0.0503
vn 0.0639 -0.9979 0.0144
vn -0.0313 -0.9987 -0.0405
vn 0.0248 -0.9996 -0.0154
vn -0.0374 -0.9980 -0.0513
vn -0.0374 -0.9989 0.0276
vn 0.0389 -0.9991 0.0166
vn 0.0103 -0.9999 0.0001
vn 0.0102 -0.9979 -0.0645
vn 0.0285 0.9979 0.0574
vn -0.0149 0.9994 0.0324
vn 0.0072 0.9998 0.0196
vn -0.0458 0.9988 -0.0184
vn 0.0173 0.9995 0.0255
vn 0.0163 0.9998 -0.0087
vn -0.0330 -0.9965 0.0764
vn -0.0114 -0.9970 -0.0769
vn 0.0634 -0.9980 0.0084
vn -0.0025 -1.0000 0.0005
vn -0.0760 -0.9971 0.0090
vn 0.1042 -0.9945 -0.0095
vn -0.0214 -0.9991 0.0372
vn 0.0893 -0.9913 0.0972
vn -0.0634 -0.9927 -0.1023
vn -0.0352 -0.9950 0.0936
vn 0.0700 -0.9927 -0.0978
vn -0.0723 -0.9956 0.0601
vn 0.0077 0.9994 0.0345
vn -0.0036 0.9991 -0.0421
vn 0.0243 0.9994 0.0247
vn 0.0478 0.9988 0.0064
vn -0.0846 0.9961 0.0264
vn 0.0938 0.9954 0.0173
vn 0.0257 0.9987 -0.0429
vn -0.1109 0.9891 0.0971
vn 0.0121 0.9982 -0.0596
vt 0.916667 0.750000
vt 0.833333 0.500000
vt 0.916667 0.500000
vt 0.750000 0.750000
vt 0.666667 0.500000
vt 0.750000 0.500000
vt 0.583333 0.750000
vt 0.500000 0.500000
vt 0.583333 0.500000
vt 0.416667 0.750000
vt 0.333333 0.500000
vt 0.416667 0.500000
vt 0.250000 0.490000
vt 0.198038 0.400000
vt 0.301962 0.400000
vt 0.250000 0.750000
vt 0.166667 0.500000
vt 0.250000 0.500000
vt 0.083333 0.750000
vt -0.000000 0.500000
vt 0.083333 0.500000
vt 0.957846 0.370000
vt 0.905885 0.280000
vt 0.853923 0.370000
vt 0.833333 1.000000
vt 0.916667 1.000000
vt 0.666667 1.000000
vt 0.750000 1.000000
vt 0.500000 1.000000
vt 0.583333 1.000000
vt 0.333333 1.000000
vt 0.416667 1.000000
vt 0.457846 0.250000
vt 0.405885 0.220000
vt 0.457846 0.130000
vt 0.146077 0.430000
vt 0.146077 0.070000
vt 0.146077 0.130000
vt 0.042154 0.130000
vt 0.166667 1.000000
vt 0.250000 1.000000
vt -0.000000 1.000000
vt 0.083333 1.000000
vt 0.646077 0.430000
vt 0.646077 0.370000
vt 0.542154 0.370000
vt 0.957846 0.250000
vt 0.646077 0.070000
vt 0.698038 0.100000
vt 0.750000 0.010000
vt 0.542154 0.250000
vt 0.594115 0.280000
vt 0.646077 0.190000
vt 0.594115 0.160000
vt 0.542154 0.130000
vt 0.853923 0.070000
vt 0.801962 0.100000
vt 0.853923 0.190000
vt 0.905885 0.160000
vt 0.957846 0.130000
vt 0.853923 0.430000
vt 0.750000 0.370000
vt 0.750000 0.430000
vt 0.750000 0.490000
vt 0.353923 0.070000
vt 0.353923 0.130000
vt 0.250000 0.130000
vt 0.250000 0.070000
vt 0.250000 0.010000
vt 0.042154 0.250000
vt 0.094115 0.220000
vt 0.146077 0.310000
vt 0.094115 0.340000
vt 0.042154 0.370000
vt 0.353923 0.430000
vt 0.353923 0.310000
vt 0.405885 0.340000
vt 0.457846 0.370000
vt 1.000000 1.000000
vt 0.698038 0.280000
vt 0.801962 0.280000
vt 0.750000 0.190000
vt 0.301962 0.220000
vt 0.250000 0.310000
vt 0.198038 0.220000
vt 1.000000 0.500000
s 0
f 25/1/1 3/2/1 13/3/1
f 26/4/2 5/5/2 15/6/2
f 27/7/3 7/8/3 17/9/3
f 28/10/4 9/11/4 19/12/4
f 2/13/5 38/14/5 43/15/5
f 32/16/6 11/17/6 21/18/6
f 33/19/7 1/20/7 23/21/7
f 3/22/8 41/23/8 46/24/8
f 4/25/9 25/1/9 14/26/9
f 6/27/10 26/4/10 16/28/10
f 8/29/11 27/7/11 18/30/11
f 10/31/12 28/10/12 20/32/12
f 16/33/13 37/34/13 6/35/13
f 24/36/14 38/14/14 2/13/14
f 20/37/15 39/38/15 10/39/15
f 12/40/16 32/16/16 22/41/16
f 2/42/17 33/19/17 24/43/17
f 23/44/18 40/45/18 11/46/18
f 15/47/19 41/23/19 3/22/19
f 19/48/20 42/49/20 7/50/20
f 21/51/21 48/52/21 36/53/21
f 36/53/22 49/54/22 21/51/22
f 9/55/23 49/54/23 19/48/23
f 17/56/24 47/57/24 35/58/24
f 35/58/25 50/59/25 17/56/25
f 5/60/26 50/59/26 15/47/26
f 13/61/27 46/24/27 34/62/27
f 34/62/28 51/63/28 13/61/28
f 1/64/29 51/63/29 23/44/29
f 12/40/30 24/43/30 33/19/30
f 10/31/31 22/41/31 32/16/31
f 18/65/32 45/66/32 31/67/32
f 31/67/33 52/68/33 18/65/33
f 8/69/34 52/68/34 20/37/34
f 22/70/35 44/71/35 30/72/35
f 30/72/36 53/73/36 22/70/36
f 12/74/37 53/73/37 24/36/37
f 14/75/38 43/15/38 29/76/38
f 29/76/39 54/77/39 14/75/39
f 4/78/40 54/77/40 16/33/40
f 8/29/41 20/32/41 28/10/41
f 6/27/42 18/30/42 27/7/42
f 4/25/43 16/28/43 26/4/43
f 2/79/44 14/26/44 25/1/44
f 34/62/45 55/80/45 40/45/45
f 34/62/46 56/81/46 55/80/46
f 35/58/47 47/57/47 57/82/47
f 33/19/48 11/17/48 12/40/48
f 32/16/49 9/11/49 10/31/49
f 29/76/50 58/83/50 37/34/50
f 29/76/51 59/84/51 58/83/51
f 30/72/52 44/71/52 60/85/52
f 28/10/53 7/8/53 8/29/53
f 27/7/54 5/5/54 6/27/54
f 26/4/55 3/2/55 4/25/55
f 25/1/56 1/86/56 2/79/56
f 4/25/57 3/2/57 25/1/57
f 6/27/58 5/5/58 26/4/58
f 8/29/59 7/8/59 27/7/59
f 10/31/60 9/11/60 28/10/60
f 12/40/61 11/17/61 32/16/61
f 2/42/62 1/20/62 33/19/62
f 33/19/63 23/21/63 11/17/63
f 32/16/64 21/18/64 9/11/64
f 28/10/65 19/12/65 7/8/65
f 27/7/66 17/9/66 5/5/66
f 26/4/67 15/6/67 3/2/67
f 25/1/68 13/3/68 1/86/68
f 60/85/69 39/38/69 31/67/69
f 60/85/70 44/71/70 39/38/70
f 44/71/71 10/39/71 39/38/71
f 58/83/72 60/85/72 31/67/72
f 58/83/73 59/84/73 60/85/73
f 59/84/74 30/72/74 60/85/74
f 37/34/75 45/66/75 6/35/75
f 37/34/76 58/83/76 45/66/76
f 58/83/77 31/67/77 45/66/77
f 57/82/78 42/49/78 36/53/78
f 57/82/79 47/57/79 42/49/79
f 47/57/80 7/50/80 42/49/80
f 55/80/81 57/82/81 36/53/81
f 55/80/82 56/81/82 57/82/82
f 56/81/83 35/58/83 57/82/83
f 40/45/84 48/52/84 11/46/84
f 40/45/85 55/80/85 48/52/85
f 55/80/86 36/53/86 48/52/86
f 46/24/87 56/81/87 34/62/87
f 46/24/88 41/23/88 56/81/88
f 41/23/89 35/58/89 56/81/89
f 43/15/90 59/84/90 29/76/90
f 43/15/91 38/14/91 59/84/91
f 38/14/92 30/72/92 59/84/92
f 16/33/93 29/76/93 37/34/93
f 24/36/94 30/72/94 38/14/94
f 20/37/95 31/67/95 39/38/95
f 23/44/96 34/62/96 40/45/96
f 15/47/97 35/58/97 41/23/97
f 19/48/98 36/53/98 42/49/98
f 21/51/99 11/46/99 48/52/99
f 36/53/100 19/48/100 49/54/100
f 9/55/101 21/51/101 49/54/101
f 17/56/102 7/50/102 47/57/102
f 35/58/103 15/47/103 50/59/103
f 5/60/104 17/56/104 50/59/104
f 13/61/105 3/22/105 46/24/105
f 34/62/106 23/44/106 51/63/106
f 1/64/107 13/61/107 51/63/107
f 18/65/108 6/35/108 45/66/108
f 31/67/109 20/37/109 52/68/109
f 8/69/110 18/65/110 52/68/110
f 22/70/111 10/39/111 44/71/111
f 30/72/112 24/36/112 53/73/112
f 12/74/113 22/70/113 53/73/113
f 14/75/114 2/13/114 43/15/114
f 29/76/115 16/33/115 54/77/115
f 4/78/116 14/75/116 54/77/116
