# Blender 4.3.0
# www.blender.org
o Cylinder
v 0.000000 -2.568419 -25.088879
v 0.000000 2.214790 -24.629507
v 21.923313 -2.742384 -12.657431
v 21.735060 2.575044 -12.548742
v 21.877886 -2.702002 12.631204
v 21.591333 2.447287 12.465762
v 0.000000 -2.692516 25.250082
v 0.000000 2.302189 24.743038
v -21.796804 -2.629929 12.584391
v -21.707153 2.550240 12.532631
v -21.914190 -2.734276 -12.652164
v -21.947710 2.764069 -12.671516
v 10.821474 -2.492314 -18.743343
v 10.734833 2.319032 -18.593275
v 21.903004 -2.752366 0.000000
v 21.970499 2.819861 0.000000
v 10.743267 -2.335901 18.607885
v 10.803667 2.456700 18.712502
v -10.831435 -2.512236 18.760597
v -10.894998 2.639359 18.870689
v -21.760393 -2.609756 0.000000
v -21.456869 2.306236 0.000000
v -10.752483 -2.354334 -18.623848
v -10.808603 2.466572 -18.721050
v 10.619005 0.000000 -18.392656
v 21.809561 0.000000 0.000000
v 10.788229 0.000000 18.685760
v -10.784574 0.000000 18.679430
v 10.825317 2.930463 -6.250000
v -10.825317 2.408923 -6.250000
v 0.000000 2.853318 12.500000
v -21.396042 0.000000 0.000000
v -10.746255 0.000000 -18.613060
v 0.000000 -2.315920 -12.500000
v 10.825317 -2.590325 6.250000
v -10.825317 -2.831289 6.250000
v 16.237976 2.759687 3.125000
v -5.412659 2.857245 -15.625000
v -10.825317 2.991354 12.500000
v -10.825317 -2.633947 -12.500000
v 16.237976 -2.846756 -3.125000
v -5.412659 -2.799257 15.625000
v 5.412659 2.343772 -15.625000
v -16.237976 2.978365 3.125000
v 10.825317 2.671499 12.500000
v 10.825317 -2.338027 -12.500000
v 5.412659 -2.630958 15.625000
v -16.237976 -2.484225 -3.125000
v -16.237976 -2.932633 9.375000
v 16.237976 -2.788119 9.375000
v 0.000000 -2.882767 -18.750000
v 0.000000 2.041963 18.750000
v -16.237976 2.640619 -9.375000
v 16.237976 2.977200 -9.375000
v -5.412659 -2.868819 -3.125000
v 5.412659 -2.337550 -3.125000
v 0.000000 -2.589318 6.250000
v 5.412659 2.924407 3.125000
v 0.000000 2.853337 -6.250000
v -5.412659 2.299972 3.125000
vn 0.4773 0.1603 -0.8640
vn 0.9994 0.0339 0.0019
vn 0.5264 -0.0384 0.8494
vn -0.4907 0.0373 0.8705
vn 0.0473 0.9980 -0.0427
vn -0.9903 0.1383 0.0107
vn -0.5152 0.0053 -0.8571
vn -0.0369 -0.9988 -0.0329
vn 0.4810 -0.0994 -0.8711
vn 0.9980 -0.0570 0.0287
vn 0.4875 -0.0126 0.8730
vn -0.5034 -0.0834 0.8600
vn 0.0059 0.9995 0.0301
vn -0.0233 0.9961 -0.0851
vn -0.0403 0.9977 0.0547
vn -0.9989 -0.0263 0.0377
vn -0.4799 -0.0505 -0.8758
vn 0.0097 -0.9989 -0.0455
vn 0.0171 -0.9999 -0.0008
vn -0.0351 -0.9989 0.0308
vn 0.0013 -0.9993 -0.0378
vn -0.0009 -0.9994 -0.0339
vn -0.0214 -0.9981 0.0570
vn 0.0436 -0.9988 0.0209
vn -0.0482 -0.9986 0.0202
vn 0.0130 -0.9999 0.0040
vn -0.0020 -0.9997 0.0247
vn 0.0359 -0.9953 0.0903
vn -0.0496 -0.9975 -0.0495
vn -0.4777 -0.0505 -0.8771
vn -0.9995 -0.0264 -0.0194
vn 0.0168 0.9993 0.0346
vn -0.0376 0.9910 0.1286
vn 0.0542 0.9976 -0.0433
vn -0.0682 0.9927 -0.0997
vn 0.0168 0.9988 0.0450
vn 0.0242 0.9997 -0.0045
vn -0.0229 0.9985 -0.0493
vn -0.0370 0.9981 -0.0492
vn 0.0611 0.9979 -0.0206
vn -0.4748 -0.0834 0.8761
vn 0.5011 -0.0126 0.8653
vn 0.9982 -0.0570 -0.0176
vn 0.4884 -0.0994 -0.8669
vn 0.0293 -0.9987 -0.0420
vn 0.0490 -0.9983 -0.0306
vn -0.0001 -1.0000 -0.0044
vn -0.4697 -0.0060 -0.8828
vn -0.9995 0.0170 -0.0283
vn 0.0152 0.9998 0.0094
vn -0.0071 1.0000 -0.0035
vn 0.0625 0.9977 -0.0245
vn -0.5023 0.0873 0.8603
vn 0.4888 0.0552 0.8707
vn 0.9994 0.0354 0.0013
vn 0.5174 0.0818 -0.8518
vn 0.4588 0.0344 -0.8879
vn 0.9984 0.0558 0.0065
vn 0.5018 0.0874 0.8606
vn -0.4873 0.0172 0.8731
vn -0.9991 -0.0059 0.0422
vn -0.4998 0.0828 -0.8622
vn -0.4719 0.0053 -0.8816
vn -0.9904 0.1383 -0.0026
vn -0.5131 0.0373 0.8575
vn 0.4716 -0.0384 0.8810
vn 0.9994 0.0339 0.0016
vn 0.4984 0.1604 -0.8520
vn 0.0127 0.9977 -0.0662
vn 0.0625 0.9973 -0.0375
vn -0.0404 0.9989 0.0220
vn -0.0576 0.9980 -0.0257
vn -0.0576 0.9980 0.0257
vn -0.0410 0.9985 0.0353
vn 0.0209 0.9996 0.0215
vn 0.0152 0.9997 0.0182
vn 0.0168 0.9997 0.0173
vn 0.0223 -0.9997 -0.0095
vn 0.0155 -0.9998 -0.0134
vn 0.0155 -0.9999 0.0023
vn 0.0223 -0.9996 0.0169
vn 0.0490 -0.9988 0.0015
vn -0.0001 -0.9996 -0.0269
vn 0.0088 -0.9997 0.0210
vn -0.0355 -0.9994 -0.0045
vn -0.0355 -0.9992 -0.0165
vn -0.0020 -1.0000 -0.0011
vn -0.0470 -0.9985 -0.0271
vn -0.0470 -0.9989 0.0002
vn -0.0071 0.9983 -0.0584
vn 0.0474 0.9985 -0.0269
vn -0.0410 0.9989 0.0241
vn -0.0004 0.9998 0.0185
vn -0.0748 0.9972 0.0045
vn 0.0127 0.9984 0.0553
vn 0.0293 -0.9985 -0.0452
vn 0.0012 -0.9996 0.0280
vn -0.0382 -0.9989 0.0255
vn 0.0281 -0.9996 0.0095
vn 0.0334 -0.9991 0.0255
vn -0.0554 -0.9985 -0.0018
vn 0.0448 -0.9988 0.0188
vn -0.0254 -0.9995 -0.0192
vn -0.0097 -0.9990 0.0432
vn -0.0360 -0.9990 0.0247
vn -0.0478 -0.9948 0.0902
vn 0.0360 -0.9981 -0.0495
vn 0.0209 0.9992 0.0346
vn 0.0557 0.9901 0.1285
vn -0.0385 0.9983 -0.0433
vn -0.1150 0.9931 -0.0216
vn 0.0401 0.9992 0.0047
vn 0.0008 0.9993 0.0361
vn -0.0025 0.9999 -0.0128
vn 0.0008 0.9999 0.0163
vn 0.0237 0.9961 -0.0852
vt 0.916667 0.750000
vt 0.833333 0.500000
vt 0.916667 0.500000
vt 0.750000 0.750000
vt 0.666667 0.500000
vt 0.750000 0.500000
vt 0.583333 0.750000
vt 0.500000 0.500000
vt 0.583333 0.500000
vt 0.416667 0.750000
vt 0.333333 0.500000
vt 0.416667 0.500000
vt 0.250000 0.490000
vt 0.198038 0.400000
vt 0.301962 0.400000
vt 0.250000 0.750000
vt 0.166667 0.500000
vt 0.250000 0.500000
vt 0.083333 0.750000
vt -0.000000 0.500000
vt 0.083333 0.500000
vt 0.957846 0.370000
vt 0.905885 0.280000
vt 0.853923 0.370000
vt 0.833333 1.000000
vt 0.916667 1.000000
vt 0.666667 1.000000
vt 0.750000 1.000000
vt 0.500000 1.000000
vt 0.583333 1.000000
vt 0.333333 1.000000
vt 0.416667 1.000000
vt 0.457846 0.250000
vt 0.405885 0.220000
vt 0.457846 0.130000
vt 0.146077 0.430000
vt 0.146077 0.070000
vt 0.146077 0.130000
vt 0.042154 0.130000
vt 0.166667 1.000000
vt 0.250000 1.000000
vt -0.000000 1.000000
vt 0.083333 1.000000
vt 0.646077 0.430000
vt 0.646077 0.370000
vt 0.542154 0.370000
vt 0.957846 0.250000
vt 0.646077 0.070000
vt 0.698038 0.100000
vt 0.750000 0.010000
vt 0.542154 0.250000
vt 0.594115 0.280000
vt 0.646077 0.190000
vt 0.594115 0.160000
vt 0.542154 0.130000
vt 0.853923 0.070000
vt 0.801962 0.100000
vt 0.853923 0.190000
vt 0.905885 0.160000
vt 0.957846 0.130000
vt 0.853923 0.430000
vt 0.750000 0.370000
vt 0.750000 0.430000
vt 0.750000 0.490000
vt 0.353923 0.070000
vt 0.353923 0.130000
vt 0.250000 0.130000
vt 0.250000 0.070000
vt 0.250000 0.010000
vt 0.042154 0.250000
vt 0.094115 0.220000
vt 0.146077 0.310000
vt 0.094115 0.340000
vt 0.042154 0.370000
vt 0.353923 0.430000
vt 0.353923 0.310000
vt 0.405885 0.340000
vt 0.457846 0.370000
vt 1.000000 1.000000
vt 0.698038 0.280000
vt 0.801962 0.280000
vt 0.750000 0.190000
vt 0.301962 0.220000
vt 0.250000 0.310000
vt 0.198038 0.220000
vt 1.000000 0.500000
s 0
f 25/1/1 3/2/1 13/3/1
f 26/4/2 5/5/2 15/6/2
f 27/7/3 7/8/3 17/9/3
f 28/10/4 9/11/4 19/12/4
f 2/13/5 38/14/5 43/15/5
f 32/16/6 11/17/6 21/18/6
f 33/19/7 1/20/7 23/21/7
f 3/22/8 41/23/8 46/24/8
f 4/25/9 25/1/9 14/26/9
f 6/27/10 26/4/10 16/28/10
f 8/29/11 27/7/11 18/30/11
f 10/31/12 28/10/12 20/32/12
f 16/33/13 37/34/13 6/35/13
f 24/36/14 38/14/14 2/13/14
f 20/37/15 39/38/15 10/39/15
f 12/40/16 32/16/16 22/41/16
f 2/42/17 33/19/17 24/43/17
f 23/44/18 40/45/18 11/46/18
f 15/47/19 41/23/19 3/22/19
f 19/48/20 42/49/20 7/50/20
f 21/51/21 48/52/21 36/53/21
f 36/53/22 49/54/22 21/51/22
f 9/55/23 49/54/23 19/48/23
f 17/56/24 47/57/24 35/58/24
f 35/58/25 50/59/25 17/56/25
f 5/60/26 50/59/26 15/47/26
f 13/61/27 46/24/27 34/62/27
f 34/62/28 51/63/28 13/61/28
f 1/64/29 51/63/29 23/44/29
f 12/40/30 24/43/30 33/19/30
f 10/31/31 22/41/31 32/16/31
f 18/65/32 45/66/32 31/67/32
f 31/67/33 52/68/33 18/65/33
f 8/69/34 52/68/34 20/37/34
f 22/70/35 44/71/35 30/72/35
f 30/72/36 53/73/36 22/70/36
f 12/74/37 53/73/37 24/36/37
f 14/75/38 43/15/38 29/76/38
f 29/76/39 54/77/39 14/75/39
f 4/78/40 54/77/40 16/33/40
f 8/29/41 20/32/41 28/10/41
f 6/27/42 18/30/42 27/7/42
f 4/25/43 16/28/43 26/4/43
f 2/79/44 14/26/44 25/1/44
f 34/62/45 55/80/45 40/45/45
f 34/62/46 56/81/46 55/80/46
f 35/58/47 47/57/47 57/82/47
f 33/19/48 11/17/48 12/40/48
f 32/16/49 9/11/49 10/31/49
f 29/76/50 58/83/50 37/34/50
f 29/76/51 59/84/51 58/83/51
f 30/72/52 44/71/52 60/85/52
f 28/10/53 7/8/53 8/29/53
f 27/7/54 5/5/54 6/27/54
f 26/4/55 3/2/55 4/25/55
f 25/1/56 1/86/56 2/79/56
f 4/25/57 3/2/57 25/1/57
f 6/27/58 5/5/58 26/4/58
f 8/29/59 7/8/59 27/7/59
f 10/31/60 9/11/60 28/10/60
f 12/40/61 11/17/61 32/16/61
f 2/42/62 1/20/62 33/19/62
f 33/19/63 23/21/63 11/17/63
f 32/16/64 21/18/64 9/11/64
f 28/10/65 19/12/65 7/8/65
f 27/7/66 17/9/66 5/5/66
f 26/4/67 15/6/67 3/2/67
f 25/1/68 13/3/68 1/86/68
f 60/85/69 39/38/69 31/67/69
f 60/85/70 44/71/70 39/38/70
f 44/71/71 10/39/71 39/38/71
f 58/83/72 60/85/72 31/67/72
f 58/83/73 59/84/73 60/85/73
f 59/84/74 30/72/74 60/85/74
f 37/34/75 45/66/75 6/35/75
f 37/34/76 58/83/76 45/66/76
f 58/83/77 31/67/77 45/66/77
f 57/82/78 42/49/78 36/53/78
f 57/82/79 47/57/79 42/49/79
f 47/57/80 7/50/80 42/49/80
f 55/80/81 57/82/81 36/53/81
f 55/80/82 56/81/82 57/82/82
f 56/81/83 35/58/83 57/82/83
f 40/45/84 48/52/84 11/46/84
f 40/45/85 55/80/85 48/52/85
f 55/80/86 36/53/86 48/52/86
f 46/24/87 56/81/87 34/62/87
f 46/24/88 41/23/88 56/81/88
f 41/23/89 35/58/89 56/81/89
f 43/15/90 59/84/90 29/76/90
f 43/15/91 38/14/91 59/84/91
f 38/14/92 30/72/92 59/84/92
f 16/33/93 29/76/93 37/34/93
f 24/36/94 30/72/94 38/14/94
f 20/37/95 31/67/95 39/38/95
f 23/44/96 34/62/96 40/45/96
f 15/47/97 35/58/97 41/23/97
f 19/48/98 36/53/98 42/49/98
f 21/51/99 11/46/99 48/52/99
f 36/53/100 19/48/100 49/54/100
f 9/55/101 21/51/101 49/54/101
f 17/56/102 7/50/102 47/57/102
f 35/58/103 15/47/103 50/59/103
f 5/60/104 17/56/104 50/59/104
f 13/61/105 3/22/105 46/24/105
f 34/62/106 23/44/106 51/63/106
f 1/64/107 13/61/107 51/63/107
f 18/65/108 6/35/108 45/66/108
f 31/67/109 20/37/109 52/68/109
f 8/69/110 18/65/110 52/68/110
f 22/70/111 10/39/111 44/71/111
f 30/72/112 24/36/112 53/73/112
f 12/74/113 22/70/113 53/73/113
f 14/75/114 2/13/114 43/15/114
f 29/76/115 16/33/115 54/77/115
f 4/78/116 14/75/116 54/77/116
