# Blender 4.3.0
# www.blender.org
o Cylinder
v 0.000000 -3.599998 -26.428930
v 0.000000 1.763041 -24.042677
v 20.808224 -1.751178 -12.013634
v 20.234303 1.241030 -11.682281
v 23.100178 -3.788491 13.336895
v 22.447407 3.208254 12.960017
v 0.000000 -1.440184 23.623281
v 0.000000 3.275662 26.007608
v -22.184278 -2.974354 12.808100
v -21.783880 2.618442 12.576929
v -22.062122 -2.865773 -12.737573
v -21.828604 2.658195 -12.602750
v 11.175415 -3.200189 -19.356388
v 22.728708 -3.578062 0.000000
v 20.244215 1.093595 0.000000
v 11.098361 -3.046081 19.222925
v 10.314901 1.479179 17.865934
v -10.392000 -1.633375 17.999474
v -11.620735 4.090818 20.127703
v -19.927101 -0.776485 0.000000
v -22.087200 2.936561 0.000000
v -10.518425 -1.886221 -18.218447
v -11.641324 4.131996 -20.163366
v 10.106449 0.000000 -17.504885
v 23.268915 0.000000 0.000000
v 10.109165 0.000000 17.509588
v -11.566629 0.000000 20.033989
v 10.825317 3.109063 -6.250000
v -10.825317 0.771487 -6.250000
v 0.000000 0.911085 12.500000
v -22.378248 0.000000 0.000000
v -10.801103 0.000000 -18.708057
v 0.000000 -0.039927 -12.500000
v 10.825317 -0.899517 6.250000
v -10.825317 -0.913160 6.250000
v 16.237976 1.596608 3.125000
v -5.412659 2.746914 -15.625000
v -10.825317 3.750054 12.500000
v -10.825317 -3.952787 -12.500000
v 16.237976 -0.657274 -3.125000
v -5.412659 -4.050524 15.625000
v 5.412659 1.566769 -15.625000
v -16.237976 3.548801 3.125000
v 10.825317 2.452857 12.500000
v 10.825317 -4.502172 -12.500000
v 5.412659 -0.541301 15.625000
v -16.237976 -3.618012 -3.125000
v -16.237976 -3.170654 9.375000
v 16.237976 -2.201134 9.375000
v 0.000000 -2.893227 -18.750000
v 0.000000 3.524076 18.750000
v -16.237976 1.783162 -9.375000
v 16.237976 0.161457 -9.375000
v -5.412659 -1.548354 -3.125000
v 5.412659 -3.884451 -3.125000
v 0.000000 -3.493152 6.250000
v 5.412659 3.390985 3.125000
v 0.000000 2.553229 -6.250000
v -5.412659 0.869505 3.125000
vn 0.4498 0.5551 -0.6997
vn 0.9884 -0.1492 -0.0299
vn 0.3761 0.5440 0.7501
vn -0.1552 -0.8122 0.5624
vn 0.1083 0.9930 -0.0465
vn -0.2957 -0.9335 0.2027
vn -0.6184 -0.2830 -0.7332
vn 0.2468 -0.9383 0.2423
vn 0.3327 0.9201 -0.2067
vn 0.5681 -0.2666 0.7786
vn -0.5937 -0.0263 0.8042
vn -0.0015 0.9870 -0.1608
vn 0.2049 0.9786 0.0174
vn -0.1029 0.9932 -0.0551
vn -0.9949 0.0986 -0.0226
vn -0.3608 -0.3742 -0.8543
vn -0.0833 -0.9358 -0.3426
vn -0.3767 -0.9229 -0.0801
vn -0.2181 -0.8746 0.4330
vn -0.3020 -0.8552 0.4211
vn 0.2036 -0.9264 -0.3167
vn 0.0497 -0.9885 0.1425
vn -0.3187 -0.9362 -0.1482
vn -0.1433 -0.9769 -0.1586
vn -0.2203 -0.9754 -0.0093
vn -0.3741 -0.9074 -0.1914
vn -0.0025 -0.9097 0.4153
vn -0.0903 -0.9917 0.0913
vn -0.5165 -0.3760 -0.7693
vn -0.9948 0.0986 0.0265
vn -0.1391 0.9766 0.1640
vn 0.1482 0.9124 -0.3815
vn 0.0527 0.9980 0.0342
vn 0.0395 0.9640 -0.2628
vn 0.1863 0.9825 -0.0046
vn 0.0241 0.9746 0.2225
vn 0.2046 0.9401 -0.2728
vn 0.3352 0.9024 -0.2707
vn -0.2541 0.9671 0.0124
vn -0.4528 -0.0264 0.8912
vn 0.3937 -0.2667 0.8797
vn 0.3400 0.9404 0.0116
vn 0.3396 -0.9395 0.0449
vn -0.2032 -0.9415 -0.2688
vn 0.2296 -0.9585 0.1692
vn -0.4763 0.0416 -0.8783
vn -0.9968 0.0727 0.0320
vn 0.1632 0.9845 0.0646
vn -0.0512 0.9969 -0.0595
vn 0.2376 0.9601 -0.1472
vn -0.3160 -0.4281 0.8467
vn 0.3262 0.0812 0.9418
vn 0.9519 0.2075 -0.2252
vn 0.5520 0.3390 -0.7619
vn 0.4725 0.1860 -0.8615
vn 0.9947 0.0949 0.0396
vn 0.5170 -0.3862 0.7639
vn -0.5753 0.0749 0.8145
vn -0.9985 0.0431 -0.0345
vn -0.4597 0.3610 -0.8114
vn -0.3911 -0.2857 -0.8749
vn -0.2951 -0.9317 -0.2119
vn -0.2601 -0.8207 0.5087
vn 0.3962 0.5445 0.7393
vn 0.9730 -0.1469 -0.1779
vn 0.4304 0.5554 -0.7115
vn 0.2508 0.9565 -0.1491
vn 0.2373 0.9586 -0.1576
vn -0.1024 0.9940 0.0378
vn -0.2251 0.9662 0.1256
vn -0.2266 0.9730 0.0439
vn -0.1618 0.9833 0.0832
vn -0.0594 0.9904 -0.1248
vn 0.1635 0.9865 0.0043
vn -0.1388 0.9743 0.1776
vn -0.2277 -0.9554 -0.1883
vn 0.3061 -0.9443 0.1206
vn 0.3068 -0.9464 0.1013
vn -0.2313 -0.9705 -0.0678
vn -0.2103 -0.9743 -0.0807
vn 0.2295 -0.9579 0.1725
vn -0.0959 -0.9952 -0.0198
vn 0.1859 -0.9723 0.1420
vn 0.1850 -0.9675 0.1723
vn -0.3764 -0.9130 -0.1571
vn 0.2785 -0.9343 0.2224
vn 0.2829 -0.9490 0.1388
vn -0.0508 0.9897 -0.1335
vn 0.1083 0.9932 -0.0420
vn -0.1614 0.9804 0.1134
vn 0.1705 0.9835 0.0602
vn 0.0471 0.9716 0.2319
vn 0.2536 0.9672 -0.0168
vn 0.3236 -0.8953 -0.3062
vn -0.3169 -0.9256 -0.2069
vn -0.4510 -0.8917 -0.0380
vn -0.4720 -0.8539 0.2192
vn 0.3492 -0.9344 -0.0702
vn -0.1428 -0.9710 -0.1918
vn -0.2412 -0.9327 -0.2681
vn -0.2263 -0.9740 -0.0137
vn -0.1367 -0.9784 -0.1553
vn 0.2695 -0.9485 -0.1664
vn -0.0660 -0.9077 0.4144
vn -0.0224 -0.9955 0.0916
vn -0.0707 0.9826 0.1716
vn -0.0007 0.9226 -0.3857
vn 0.1971 0.9798 0.0335
vn -0.1188 0.9925 0.0280
vn 0.0477 0.9716 0.2319
vn 0.1650 0.9861 -0.0184
vn 0.2604 0.9545 -0.1452
vn 0.3532 0.9040 -0.2408
vn -0.1910 0.9736 0.1247
vt 0.916667 0.750000
vt 0.833333 0.500000
vt 0.916667 0.500000
vt 0.750000 0.750000
vt 0.666667 0.500000
vt 0.750000 0.500000
vt 0.583333 0.750000
vt 0.500000 0.500000
vt 0.583333 0.500000
vt 0.416667 0.750000
vt 0.333333 0.500000
vt 0.416667 0.500000
vt 0.250000 0.490000
vt 0.198038 0.400000
vt 0.301962 0.400000
vt 0.250000 0.750000
vt 0.166667 0.500000
vt 0.250000 0.500000
vt 0.083333 0.750000
vt -0.000000 0.500000
vt 0.083333 0.500000
vt 0.957846 0.370000
vt 0.905885 0.280000
vt 0.853923 0.370000
vt 0.666667 1.000000
vt 0.750000 1.000000
vt 0.500000 1.000000
vt 0.583333 1.000000
vt 0.333333 1.000000
vt 0.416667 1.000000
vt 0.457846 0.250000
vt 0.405885 0.220000
vt 0.457846 0.130000
vt 0.146077 0.430000
vt 0.146077 0.070000
vt 0.146077 0.130000
vt 0.042154 0.130000
vt 0.166667 1.000000
vt 0.250000 1.000000
vt -0.000000 1.000000
vt 0.083333 1.000000
vt 0.646077 0.430000
vt 0.646077 0.370000
vt 0.542154 0.370000
vt 0.957846 0.250000
vt 0.646077 0.070000
vt 0.698038 0.100000
vt 0.750000 0.010000
vt 0.542154 0.250000
vt 0.594115 0.280000
vt 0.646077 0.190000
vt 0.594115 0.160000
vt 0.542154 0.130000
vt 0.853923 0.070000
vt 0.801962 0.100000
vt 0.853923 0.190000
vt 0.905885 0.160000
vt 0.957846 0.130000
vt 0.853923 0.430000
vt 0.750000 0.370000
vt 0.750000 0.430000
vt 0.750000 0.490000
vt 0.353923 0.070000
vt 0.353923 0.130000
vt 0.250000 0.130000
vt 0.250000 0.070000
vt 0.250000 0.010000
vt 0.042154 0.250000
vt 0.094115 0.220000
vt 0.146077 0.310000
vt 0.094115 0.340000
vt 0.042154 0.370000
vt 0.353923 0.430000
vt 0.353923 0.310000
vt 0.405885 0.340000
vt 0.457846 0.370000
vt 0.833333 1.000000
vt 0.698038 0.280000
vt 0.801962 0.280000
vt 0.750000 0.190000
vt 0.301962 0.220000
vt 0.250000 0.310000
vt 0.198038 0.220000
vt 1.000000 0.500000
vt 1.000000 1.000000
s 0
f 24/1/1 3/2/1 13/3/1
f 25/4/2 5/5/2 14/6/2
f 26/7/3 7/8/3 16/9/3
f 27/10/4 9/11/4 18/12/4
f 2/13/5 37/14/5 42/15/5
f 31/16/6 11/17/6 20/18/6
f 32/19/7 1/20/7 22/21/7
f 3/22/8 40/23/8 45/24/8
f 6/25/9 25/4/9 15/26/9
f 8/27/10 26/7/10 17/28/10
f 10/29/11 27/10/11 19/30/11
f 15/31/12 36/32/12 6/33/12
f 23/34/13 37/14/13 2/13/13
f 19/35/14 38/36/14 10/37/14
f 12/38/15 31/16/15 21/39/15
f 2/40/16 32/19/16 23/41/16
f 22/42/17 39/43/17 11/44/17
f 14/45/18 40/23/18 3/22/18
f 18/46/19 41/47/19 7/48/19
f 20/49/20 47/50/20 35/51/20
f 35/51/21 48/52/21 20/49/21
f 9/53/22 48/52/22 18/46/22
f 16/54/23 46/55/23 34/56/23
f 34/56/24 49/57/24 16/54/24
f 5/58/25 49/57/25 14/45/25
f 13/59/26 45/24/26 33/60/26
f 33/60/27 50/61/27 13/59/27
f 1/62/28 50/61/28 22/42/28
f 12/38/29 23/41/29 32/19/29
f 10/29/30 21/39/30 31/16/30
f 17/63/31 44/64/31 30/65/31
f 30/65/32 51/66/32 17/63/32
f 8/67/33 51/66/33 19/35/33
f 21/68/34 43/69/34 29/70/34
f 29/70/35 52/71/35 21/68/35
f 12/72/36 52/71/36 23/34/36
f 24/73/37 42/15/37 28/74/37
f 28/74/38 53/75/38 24/73/38
f 4/76/39 53/75/39 15/31/39
f 8/27/40 19/30/40 27/10/40
f 6/25/41 17/28/41 26/7/41
f 4/77/42 15/26/42 25/4/42
f 33/60/43 54/78/43 39/43/43
f 33/60/44 55/79/44 54/78/44
f 34/56/45 46/55/45 56/80/45
f 32/19/46 11/17/46 12/38/46
f 31/16/47 9/11/47 10/29/47
f 28/74/48 57/81/48 36/32/48
f 28/74/49 58/82/49 57/81/49
f 29/70/50 43/69/50 59/83/50
f 27/10/51 7/8/51 8/27/51
f 26/7/52 5/5/52 6/25/52
f 25/4/53 3/2/53 4/77/53
f 24/1/54 1/84/54 2/85/54
f 4/77/55 3/2/55 24/1/55
f 6/25/56 5/5/56 25/4/56
f 8/27/57 7/8/57 26/7/57
f 10/29/58 9/11/58 27/10/58
f 12/38/59 11/17/59 31/16/59
f 2/40/60 1/20/60 32/19/60
f 32/19/61 22/21/61 11/17/61
f 31/16/62 20/18/62 9/11/62
f 27/10/63 18/12/63 7/8/63
f 26/7/64 16/9/64 5/5/64
f 25/4/65 14/6/65 3/2/65
f 24/1/66 13/3/66 1/84/66
f 59/83/67 38/36/67 30/65/67
f 59/83/68 43/69/68 38/36/68
f 43/69/69 10/37/69 38/36/69
f 57/81/70 59/83/70 30/65/70
f 57/81/71 58/82/71 59/83/71
f 58/82/72 29/70/72 59/83/72
f 36/32/73 44/64/73 6/33/73
f 36/32/74 57/81/74 44/64/74
f 57/81/75 30/65/75 44/64/75
f 56/80/76 41/47/76 35/51/76
f 56/80/77 46/55/77 41/47/77
f 46/55/78 7/48/78 41/47/78
f 54/78/79 56/80/79 35/51/79
f 54/78/80 55/79/80 56/80/80
f 55/79/81 34/56/81 56/80/81
f 39/43/82 47/50/82 11/44/82
f 39/43/83 54/78/83 47/50/83
f 54/78/84 35/51/84 47/50/84
f 45/24/85 55/79/85 33/60/85
f 45/24/86 40/23/86 55/79/86
f 40/23/87 34/56/87 55/79/87
f 42/15/88 58/82/88 28/74/88
f 42/15/89 37/14/89 58/82/89
f 37/14/90 29/70/90 58/82/90
f 15/31/91 28/74/91 36/32/91
f 23/34/92 29/70/92 37/14/92
f 19/35/93 30/65/93 38/36/93
f 22/42/94 33/60/94 39/43/94
f 14/45/95 34/56/95 40/23/95
f 18/46/96 35/51/96 41/47/96
f 20/49/97 11/44/97 47/50/97
f 35/51/98 18/46/98 48/52/98
f 9/53/99 20/49/99 48/52/99
f 16/54/100 7/48/100 46/55/100
f 34/56/101 14/45/101 49/57/101
f 5/58/102 16/54/102 49/57/102
f 13/59/103 3/22/103 45/24/103
f 33/60/104 22/42/104 50/61/104
f 1/62/105 13/59/105 50/61/105
f 17/63/106 6/33/106 44/64/106
f 30/65/107 19/35/107 51/66/107
f 8/67/108 17/63/108 51/66/108
f 21/68/109 10/37/109 43/69/109
f 29/70/110 23/34/110 52/71/110
f 12/72/111 21/68/111 52/71/111
f 24/73/112 2/13/112 42/15/112
f 28/74/113 15/31/113 53/75/113
f 4/76/114 24/73/114 53/75/114
