# Blender 4.3.0
# www.blender.org
o Cylinder
v 0.000000 -3.240048 -25.961346
v 0.000000 2.880686 -25.494518
v 21.549585 -2.410177 -12.441659
v 20.574881 1.543768 -11.878913
v 22.805239 -3.526321 13.166612
v 20.108999 1.129635 11.609936
v 0.000000 -2.681251 25.235449
v 0.000000 2.227333 24.645798
v -20.891472 -1.825184 12.061697
v -21.471621 2.340874 12.396646
v -20.288521 -1.289213 -11.713583
v -21.466978 2.336749 -12.393966
v 10.871051 -2.591465 -18.829212
v 10.448553 1.746479 -18.097424
v 20.091978 -0.941361 0.000000
v 20.409464 1.258843 0.000000
v 10.080519 -1.010418 17.459970
v 10.759152 2.367671 18.635399
v -10.959409 -2.768179 18.982252
v -11.187247 3.223853 19.376881
v -20.861376 -1.710749 0.000000
v -23.263893 4.113241 0.000000
v -11.706265 -4.261877 -20.275846
v -10.048938 0.947257 -17.405270
v 10.204550 0.000000 -17.674799
v 10.581431 0.000000 18.327578
v -10.655075 0.000000 18.455132
v 10.825317 4.266601 -6.250000
v -10.825317 1.726989 -6.250000
v 0.000000 2.453357 12.500000
v -19.400625 0.000000 0.000000
v -9.782572 0.000000 -16.943913
v 0.000000 -2.755076 -12.500000
v 10.825317 -2.493142 6.250000
v -10.825317 -1.003862 6.250000
v 16.237976 1.198268 3.125000
v -5.412659 0.132537 -15.625000
v -10.825317 2.435990 12.500000
v -10.825317 -4.097181 -12.500000
v 16.237976 -1.001590 -3.125000
v -5.412659 -0.928863 15.625000
v 5.412659 3.398546 -15.625000
v -16.237976 2.657711 3.125000
v 10.825317 2.846493 12.500000
v 10.825317 -1.049118 -12.500000
v 5.412659 -0.608964 15.625000
v -16.237976 -0.109552 -3.125000
v -16.237976 -3.696606 9.375000
v 16.237976 -4.379752 9.375000
v 0.000000 -2.886840 -18.750000
v 0.000000 1.257631 18.750000
v -16.237976 0.145662 -9.375000
v 16.237976 1.228285 -9.375000
v -5.412659 -4.329015 -3.125000
v 5.412659 -0.668313 -3.125000
v 0.000000 -1.952132 6.250000
v 5.412659 4.951321 3.125000
v 0.000000 1.204251 -6.250000
v -5.412659 3.198970 3.125000
vn 0.4508 0.4574 -0.7665
vn 0.5094 -0.6919 0.5117
vn -0.5446 0.2143 0.8108
vn -0.2872 0.9518 0.1075
vn -0.7604 0.6493 -0.0138
vn -0.3708 0.6701 -0.6430
vn -0.1259 -0.9890 0.0777
vn 0.5001 -0.2691 -0.8231
vn 0.9895 -0.1428 0.0240
vn 0.4838 -0.1484 0.8625
vn -0.5148 -0.3132 0.7981
vn -0.0063 0.9999 0.0110
vn 0.0542 0.9539 0.2953
vn -0.0078 0.9934 -0.1142
vn -0.7289 -0.6846 -0.0076
vn -0.4878 -0.4893 -0.7229
vn -0.2801 -0.9586 0.0520
vn -0.0725 -0.9914 0.1085
vn 0.1571 -0.9522 -0.2621
vn 0.1945 -0.9595 -0.2038
vn 0.2653 -0.9084 -0.3232
vn -0.2477 -0.9419 0.2271
vn -0.1323 -0.9838 0.1213
vn -0.3770 -0.9212 0.0968
vn 0.2586 -0.9364 -0.2371
vn 0.1513 -0.9601 0.2351
vn 0.0273 -0.9994 0.0211
vn 0.1103 -0.9927 0.0486
vn -0.3997 -0.4898 -0.7748
vn -0.7289 -0.6846 0.0075
vn -0.0362 0.9963 0.0774
vn -0.0988 0.9774 0.1870
vn 0.1622 0.9737 -0.1601
vn 0.1961 0.9805 0.0159
vn -0.0304 0.9121 -0.4088
vn 0.2334 0.9333 0.2731
vn 0.2102 0.9549 -0.2098
vn 0.3872 0.8992 -0.2036
vn -0.0593 0.9980 0.0231
vn -0.4273 -0.3130 0.8482
vn 0.5816 -0.1477 0.8000
vn 0.9897 -0.1428 0.0104
vn 0.5370 -0.2685 -0.7997
vn 0.1225 -0.9879 -0.0951
vn 0.3202 -0.9470 0.0259
vn -0.0492 -0.9843 0.1694
vn -0.3972 -0.2923 -0.8699
vn -0.9821 -0.1255 -0.1404
vn 0.3252 0.9381 0.1193
vn -0.2654 0.9383 -0.2218
vn -0.0495 0.9907 -0.1269
vn -0.5156 0.1022 0.8507
vn 0.4553 0.5081 0.7311
vn 0.9701 0.2268 0.0869
vn 0.6177 0.0598 -0.7841
vn 0.4477 0.2332 -0.8632
vn 0.8744 0.4775 -0.0865
vn 0.5257 0.1015 0.8446
vn -0.5067 -0.1390 0.8509
vn -0.9514 -0.2897 0.1040
vn -0.6665 0.0567 -0.7434
vn -0.3952 0.6698 -0.6286
vn -0.7605 0.6493 0.0043
vn -0.4853 0.2147 0.8476
vn 0.1109 -0.6785 0.7262
vn 0.4686 0.4572 -0.7559
vn -0.0016 0.9968 0.0802
vn -0.0499 0.9974 0.0524
vn -0.0092 0.9995 0.0290
vn -0.1575 0.9731 0.1683
vn -0.1530 0.9449 -0.2894
vn 0.0474 0.9822 -0.1816
vn 0.1747 0.9820 -0.0718
vn 0.3275 0.9446 0.0230
vn -0.0352 0.9706 0.2383
vn -0.0871 -0.9945 0.0583
vn 0.0293 -0.9917 0.1252
vn 0.0290 -0.9804 -0.1951
vn -0.0835 -0.9534 0.2899
vn 0.3199 -0.9459 0.0551
vn -0.0492 -0.9853 -0.1634
vn -0.2564 -0.9339 0.2492
vn -0.3570 -0.9159 0.1835
vn -0.3605 -0.9250 0.1199
vn 0.1544 -0.9796 0.1289
vn -0.0308 -0.9993 0.0228
vn -0.0303 -0.9843 -0.1741
vn -0.2716 0.9600 0.0679
vn -0.2884 0.9558 0.0572
vn 0.0478 0.9889 -0.1406
vn 0.1549 0.9619 0.2254
vn 0.1933 0.9796 -0.0550
vn -0.0016 0.9935 -0.1139
vn 0.1230 -0.9924 0.0071
vn 0.0975 -0.9901 -0.1012
vn 0.2398 -0.9620 -0.1308
vn 0.3159 -0.9486 -0.0187
vn 0.3843 -0.9150 -0.1227
vn -0.3779 -0.9258 -0.0097
vn -0.0010 -0.9774 -0.2113
vn -0.1017 -0.9197 -0.3791
vn -0.0722 -0.9390 0.3363
vn -0.1237 -0.9643 0.2341
vn 0.1139 -0.9933 0.0209
vn 0.0275 -0.9984 0.0489
vn 0.1886 0.9789 0.0784
vn 0.1802 0.9661 0.1848
vn -0.1030 0.9815 -0.1614
vn 0.1506 0.9815 0.1185
vn -0.2344 0.9685 -0.0840
vn 0.4192 0.9053 -0.0690
vn 0.2281 0.9577 -0.1753
vn 0.3999 0.8985 -0.1809
vn -0.0277 0.9966 0.0776
vt 0.916667 0.750000
vt 0.833333 0.500000
vt 0.916667 0.500000
vt 0.583333 0.750000
vt 0.500000 0.500000
vt 0.583333 0.500000
vt 0.416667 0.750000
vt 0.333333 0.500000
vt 0.416667 0.500000
vt 0.250000 0.490000
vt 0.198038 0.400000
vt 0.301962 0.400000
vt 0.250000 0.750000
vt 0.166667 0.500000
vt 0.250000 0.500000
vt 0.083333 0.750000
vt -0.000000 0.500000
vt 0.083333 0.500000
vt 0.957846 0.370000
vt 0.905885 0.280000
vt 0.853923 0.370000
vt 0.833333 1.000000
vt 0.916667 1.000000
vt 0.666667 1.000000
vt 0.750000 0.750000
vt 0.750000 1.000000
vt 0.500000 1.000000
vt 0.583333 1.000000
vt 0.333333 1.000000
vt 0.416667 1.000000
vt 0.457846 0.250000
vt 0.405885 0.220000
vt 0.457846 0.130000
vt 0.146077 0.430000
vt 0.146077 0.070000
vt 0.146077 0.130000
vt 0.042154 0.130000
vt 0.166667 1.000000
vt 0.250000 1.000000
vt -0.000000 1.000000
vt 0.083333 1.000000
vt 0.646077 0.430000
vt 0.646077 0.370000
vt 0.542154 0.370000
vt 0.957846 0.250000
vt 0.646077 0.070000
vt 0.698038 0.100000
vt 0.750000 0.010000
vt 0.542154 0.250000
vt 0.594115 0.280000
vt 0.646077 0.190000
vt 0.594115 0.160000
vt 0.542154 0.130000
vt 0.853923 0.070000
vt 0.801962 0.100000
vt 0.853923 0.190000
vt 0.905885 0.160000
vt 0.957846 0.130000
vt 0.853923 0.430000
vt 0.750000 0.370000
vt 0.750000 0.430000
vt 0.750000 0.490000
vt 0.353923 0.070000
vt 0.353923 0.130000
vt 0.250000 0.130000
vt 0.250000 0.070000
vt 0.250000 0.010000
vt 0.042154 0.250000
vt 0.094115 0.220000
vt 0.146077 0.310000
vt 0.094115 0.340000
vt 0.042154 0.370000
vt 0.353923 0.430000
vt 0.353923 0.310000
vt 0.405885 0.340000
vt 0.457846 0.370000
vt 1.000000 1.000000
vt 0.698038 0.280000
vt 0.801962 0.280000
vt 0.750000 0.190000
vt 0.301962 0.220000
vt 0.250000 0.310000
vt 0.198038 0.220000
vt 0.666667 0.500000
vt 1.000000 0.500000
s 0
f 25/1/1 3/2/1 13/3/1
f 26/4/2 7/5/2 17/6/2
f 27/7/3 9/8/3 19/9/3
f 2/10/4 37/11/4 42/12/4
f 31/13/5 11/14/5 21/15/5
f 32/16/6 1/17/6 23/18/6
f 3/19/7 40/20/7 45/21/7
f 4/22/8 25/1/8 14/23/8
f 6/24/9 15/25/9 16/26/9
f 8/27/10 26/4/10 18/28/10
f 10/29/11 27/7/11 20/30/11
f 16/31/12 36/32/12 6/33/12
f 24/34/13 37/11/13 2/10/13
f 20/35/14 38/36/14 10/37/14
f 12/38/15 31/13/15 22/39/15
f 2/40/16 32/16/16 24/41/16
f 23/42/17 39/43/17 11/44/17
f 15/45/18 40/20/18 3/19/18
f 19/46/19 41/47/19 7/48/19
f 21/49/20 47/50/20 35/51/20
f 35/51/21 48/52/21 21/49/21
f 9/53/22 48/52/22 19/46/22
f 17/54/23 46/55/23 34/56/23
f 34/56/24 49/57/24 17/54/24
f 5/58/25 49/57/25 15/45/25
f 13/59/26 45/21/26 33/60/26
f 33/60/27 50/61/27 13/59/27
f 1/62/28 50/61/28 23/42/28
f 12/38/29 24/41/29 32/16/29
f 10/29/30 22/39/30 31/13/30
f 18/63/31 44/64/31 30/65/31
f 30/65/32 51/66/32 18/63/32
f 8/67/33 51/66/33 20/35/33
f 22/68/34 43/69/34 29/70/34
f 29/70/35 52/71/35 22/68/35
f 12/72/36 52/71/36 24/34/36
f 14/73/37 42/12/37 28/74/37
f 28/74/38 53/75/38 14/73/38
f 4/76/39 53/75/39 16/31/39
f 8/27/40 20/30/40 27/7/40
f 6/24/41 18/28/41 26/4/41
f 4/22/42 16/26/42 15/25/42
f 2/77/43 14/23/43 25/1/43
f 33/60/44 54/78/44 39/43/44
f 33/60/45 55/79/45 54/78/45
f 34/56/46 46/55/46 56/80/46
f 32/16/47 11/14/47 12/38/47
f 31/13/48 9/8/48 10/29/48
f 28/74/49 57/81/49 36/32/49
f 28/74/50 58/82/50 57/81/50
f 29/70/51 43/69/51 59/83/51
f 27/7/52 7/5/52 8/27/52
f 26/4/53 5/84/53 6/24/53
f 15/25/54 3/2/54 4/22/54
f 25/1/55 1/85/55 2/77/55
f 4/22/56 3/2/56 25/1/56
f 6/24/57 5/84/57 15/25/57
f 8/27/58 7/5/58 26/4/58
f 10/29/59 9/8/59 27/7/59
f 12/38/60 11/14/60 31/13/60
f 2/40/61 1/17/61 32/16/61
f 32/16/62 23/18/62 11/14/62
f 31/13/63 21/15/63 9/8/63
f 27/7/64 19/9/64 7/5/64
f 26/4/65 17/6/65 5/84/65
f 25/1/66 13/3/66 1/85/66
f 59/83/67 38/36/67 30/65/67
f 59/83/68 43/69/68 38/36/68
f 43/69/69 10/37/69 38/36/69
f 57/81/70 59/83/70 30/65/70
f 57/81/71 58/82/71 59/83/71
f 58/82/72 29/70/72 59/83/72
f 36/32/73 44/64/73 6/33/73
f 36/32/74 57/81/74 44/64/74
f 57/81/75 30/65/75 44/64/75
f 56/80/76 41/47/76 35/51/76
f 56/80/77 46/55/77 41/47/77
f 46/55/78 7/48/78 41/47/78
f 54/78/79 56/80/79 35/51/79
f 54/78/80 55/79/80 56/80/80
f 55/79/81 34/56/81 56/80/81
f 39/43/82 47/50/82 11/44/82
f 39/43/83 54/78/83 47/50/83
f 54/78/84 35/51/84 47/50/84
f 45/21/85 55/79/85 33/60/85
f 45/21/86 40/20/86 55/79/86
f 40/20/87 34/56/87 55/79/87
f 42/12/88 58/82/88 28/74/88
f 42/12/89 37/11/89 58/82/89
f 37/11/90 29/70/90 58/82/90
f 16/31/91 28/74/91 36/32/91
f 24/34/92 29/70/92 37/11/92
f 20/35/93 30/65/93 38/36/93
f 23/42/94 33/60/94 39/43/94
f 15/45/95 34/56/95 40/20/95
f 19/46/96 35/51/96 41/47/96
f 21/49/97 11/44/97 47/50/97
f 35/51/98 19/46/98 48/52/98
f 9/53/99 21/49/99 48/52/99
f 17/54/100 7/48/100 46/55/100
f 34/56/101 15/45/101 49/57/101
f 5/58/102 17/54/102 49/57/102
f 13/59/103 3/19/103 45/21/103
f 33/60/104 23/42/104 50/61/104
f 1/62/105 13/59/105 50/61/105
f 18/63/106 6/33/106 44/64/106
f 30/65/107 20/35/107 51/66/107
f 8/67/108 18/63/108 51/66/108
f 22/68/109 10/37/109 43/69/109
f 29/70/110 24/34/110 52/71/110
f 12/72/111 22/68/111 52/71/111
f 14/73/112 2/10/112 42/12/112
f 28/74/113 16/31/113 53/75/113
f 4/76/114 14/73/114 53/75/114
