# Blender 4.3.0
# www.blender.org
o Cylinder
v 0.000000 -1.150635 -23.247133
v 0.000000 3.653722 -26.498705
v 23.078873 -3.769565 -13.324594
v 21.536125 2.398213 -12.433887
v 22.830872 -3.549106 13.181410
v 20.164869 1.179298 11.642193
v 0.000000 -1.585756 23.812382
v 0.000000 3.123196 25.809549
v -20.654957 -1.614947 11.925144
v -22.241529 3.025248 12.841153
v -20.862614 -1.799525 -12.045035
v -22.383644 3.151567 -12.923203
v 11.311304 -3.471964 -19.591755
v 11.585716 4.020781 -20.067049
v 21.964102 -2.813463 0.000000
v 22.411999 3.261355 0.000000
v 11.046089 -2.941538 19.132387
v 10.424816 1.699006 18.056311
v -10.890508 -2.630378 18.862913
v -10.680902 2.211173 18.499866
v -21.289160 -2.138529 0.000000
v -23.181574 4.030922 0.000000
v -11.400965 -3.651283 -19.747051
v -10.610760 2.070889 -18.378376
v 11.426082 0.000000 -19.790554
v 23.329245 0.000000 0.000000
v 10.284318 0.000000 17.812962
v -9.847156 0.000000 17.055775
v 10.825317 3.479494 -6.250000
v -10.825317 0.817336 -6.250000
v 0.000000 2.043480 12.500000
v -22.856319 0.000000 0.000000
v -12.031288 0.000000 -20.838802
v 0.000000 -0.024903 -12.500000
v 10.825317 -2.988226 6.250000
v -10.825317 -0.855936 6.250000
v 16.237976 1.217175 3.125000
v -5.412659 4.869001 -15.625000
v -10.825317 3.310732 12.500000
v -10.825317 -2.362626 -12.500000
v 16.237976 -0.922948 -3.125000
v -5.412659 -1.790606 15.625000
v 5.412659 0.008500 -15.625000
v -16.237976 2.379241 3.125000
v 10.825317 0.537677 12.500000
v 10.825317 -1.723203 -12.500000
v 5.412659 -0.737101 15.625000
v -16.237976 -0.882062 -3.125000
v -16.237976 -0.699176 9.375000
v 16.237976 -2.920034 9.375000
v 0.000000 -4.082592 -18.750000
v 0.000000 4.767247 18.750000
v -16.237976 1.617710 -9.375000
v 16.237976 0.495158 -9.375000
v -5.412659 -4.466116 -3.125000
v 5.412659 -3.839969 -3.125000
v 0.000000 -2.858824 6.250000
v 5.412659 3.731488 3.125000
v 0.000000 1.902086 -6.250000
v -5.412659 1.926705 3.125000
vn 0.4677 -0.0659 -0.8814
vn 0.8966 -0.4350 -0.0832
vn 0.3937 0.4592 0.7963
vn -0.4099 0.6214 0.6678
vn 0.4075 0.9076 0.1014
vn -0.8058 -0.5905 -0.0452
vn -0.2151 -0.3137 -0.9248
vn -0.1511 -0.9737 0.1704
vn 0.5987 -0.0786 -0.7971
vn 0.9373 0.2636 0.2281
vn 0.5745 -0.1624 0.8023
vn -0.3848 -0.6020 0.6996
vn -0.2557 0.9590 0.1222
vn -0.3413 0.9002 -0.2705
vn -0.0192 0.9834 0.1807
vn -0.9952 -0.0803 -0.0560
vn -0.4381 0.7962 -0.4172
vn -0.0470 -0.9828 0.1785
vn -0.3328 -0.9422 0.0398
vn 0.1198 -0.9913 -0.0544
vn 0.1805 -0.9783 -0.1015
vn 0.0451 -0.9908 0.1278
vn 0.0657 -0.9699 -0.2345
vn -0.3696 -0.9291 0.0097
vn 0.0106 -0.9999 0.0034
vn -0.0655 -0.9965 -0.0513
vn -0.1509 -0.9621 0.2269
vn 0.0855 -0.8357 0.5425
vn 0.0161 -0.8376 -0.5461
vn -0.1888 0.8023 -0.5663
vn -0.9946 -0.0803 0.0665
vn 0.1352 0.9718 -0.1934
vn 0.2363 0.8908 -0.3882
vn -0.2319 0.9474 0.2206
vn 0.2409 0.9703 -0.0225
vn 0.2023 0.9741 -0.1009
vn 0.1582 0.9763 0.1480
vn -0.5435 0.8394 0.0030
vn 0.5090 0.8586 0.0616
vn -0.3579 0.9329 -0.0395
vn -0.4153 -0.6020 0.6820
vn 0.5366 -0.1630 0.8280
vn 0.9591 0.2697 -0.0863
vn 0.4858 -0.0791 -0.8705
vn 0.1998 -0.9251 -0.3229
vn 0.0529 -0.9139 -0.4024
vn -0.0116 -0.9738 0.2271
vn -0.6350 -0.3198 -0.7032
vn -0.9309 -0.3430 0.1254
vn 0.2250 0.9688 0.1039
vn -0.1433 0.9836 -0.1092
vn 0.0414 0.9892 -0.1409
vn -0.5705 -0.3207 0.7561
vn 0.4203 0.4864 0.7660
vn 0.9630 0.2539 -0.0899
vn 0.2935 -0.5358 -0.7917
vn 0.5303 0.2497 -0.8102
vn 0.8328 0.5259 0.1731
vn 0.5128 -0.3352 0.7904
vn -0.3720 -0.3006 0.8782
vn -0.9445 -0.3097 -0.1101
vn -0.2143 -0.5475 -0.8089
vn -0.6350 -0.3199 -0.7032
vn -0.8047 -0.5897 0.0687
vn -0.3728 0.6213 0.6892
vn 0.4191 0.4597 0.7830
vn 0.8946 -0.4341 0.1060
vn 0.2949 -0.0643 -0.9534
vn 0.1159 0.9901 -0.0792
vn 0.0415 0.9916 -0.1225
vn -0.0274 0.9962 -0.0832
vn -0.1639 0.9830 0.0824
vn -0.1637 0.9817 -0.0971
vn -0.0995 0.9932 -0.0601
vn -0.0653 0.9973 0.0346
vn 0.2218 0.9549 0.1973
vn 0.1334 0.9591 0.2497
vn -0.1819 -0.9833 0.0070
vn 0.0955 -0.9813 0.1670
vn 0.0968 -0.9945 -0.0391
vn -0.1755 -0.9484 0.2639
vn 0.0572 -0.9890 0.1365
vn -0.0119 -0.9952 0.0973
vn -0.0498 -0.9906 0.1277
vn -0.3141 -0.9489 -0.0315
vn -0.3091 -0.9336 0.1811
vn -0.1479 -0.9429 -0.2983
vn 0.2596 -0.9633 -0.0676
vn 0.2597 -0.9637 -0.0624
vn -0.1387 0.9521 -0.2724
vn 0.4090 0.9110 0.0522
vn -0.0934 0.9324 0.3490
vn -0.1516 0.9373 0.3137
vn -0.5050 0.8594 0.0799
vn 0.1144 0.9776 0.1764
vn 0.2085 -0.9656 0.1551
vn -0.1506 -0.9436 -0.2948
vn 0.0695 -0.9879 -0.1386
vn 0.2301 -0.9730 -0.0192
vn -0.1088 -0.9843 -0.1390
vn 0.2201 -0.9750 0.0311
vn -0.2188 -0.9451 -0.2426
vn 0.0142 -0.9999 -0.0027
vn -0.0718 -0.9966 -0.0404
vn -0.1455 -0.9629 0.2275
vn -0.0791 -0.8361 0.5428
vn 0.0046 -0.8377 -0.5461
vn -0.0862 0.9739 -0.2098
vn -0.2055 0.8972 -0.3910
vn 0.2889 0.9324 0.2171
vn 0.2047 0.9769 0.0615
vn 0.0865 0.9908 0.1039
vn 0.2683 0.9621 -0.0489
vn -0.2614 0.8685 0.4212
vn 0.2418 0.8758 -0.4177
vn -0.1248 0.9249 0.3593
vt 0.916667 0.750000
vt 0.833333 0.500000
vt 0.916667 0.500000
vt 0.750000 0.750000
vt 0.666667 0.500000
vt 0.750000 0.500000
vt 0.583333 0.750000
vt 0.500000 0.500000
vt 0.583333 0.500000
vt 0.416667 0.750000
vt 0.333333 0.500000
vt 0.416667 0.500000
vt 0.250000 0.490000
vt 0.198038 0.400000
vt 0.301962 0.400000
vt 0.250000 0.750000
vt 0.166667 0.500000
vt 0.250000 0.500000
vt 0.083333 0.750000
vt -0.000000 0.500000
vt 0.083333 0.500000
vt 0.957846 0.370000
vt 0.905885 0.280000
vt 0.853923 0.370000
vt 0.833333 1.000000
vt 0.916667 1.000000
vt 0.666667 1.000000
vt 0.750000 1.000000
vt 0.500000 1.000000
vt 0.583333 1.000000
vt 0.333333 1.000000
vt 0.416667 1.000000
vt 0.457846 0.250000
vt 0.405885 0.220000
vt 0.457846 0.130000
vt 0.146077 0.430000
vt 0.146077 0.070000
vt 0.146077 0.130000
vt 0.042154 0.130000
vt 0.166667 1.000000
vt 0.250000 1.000000
vt -0.000000 1.000000
vt 0.083333 1.000000
vt 0.646077 0.430000
vt 0.646077 0.370000
vt 0.542154 0.370000
vt 0.957846 0.250000
vt 0.646077 0.070000
vt 0.698038 0.100000
vt 0.750000 0.010000
vt 0.542154 0.250000
vt 0.594115 0.280000
vt 0.646077 0.190000
vt 0.594115 0.160000
vt 0.542154 0.130000
vt 0.853923 0.070000
vt 0.801962 0.100000
vt 0.853923 0.190000
vt 0.905885 0.160000
vt 0.957846 0.130000
vt 0.853923 0.430000
vt 0.750000 0.370000
vt 0.750000 0.430000
vt 0.750000 0.490000
vt 0.353923 0.070000
vt 0.353923 0.130000
vt 0.250000 0.130000
vt 0.250000 0.070000
vt 0.250000 0.010000
vt 0.042154 0.250000
vt 0.094115 0.220000
vt 0.146077 0.310000
vt 0.094115 0.340000
vt 0.042154 0.370000
vt 0.353923 0.430000
vt 0.353923 0.310000
vt 0.405885 0.340000
vt 0.457846 0.370000
vt 1.000000 1.000000
vt 0.698038 0.280000
vt 0.801962 0.280000
vt 0.750000 0.190000
vt 0.301962 0.220000
vt 0.250000 0.310000
vt 0.198038 0.220000
vt 1.000000 0.500000
s 0
f 25/1/1 3/2/1 13/3/1
f 26/4/2 5/5/2 15/6/2
f 27/7/3 7/8/3 17/9/3
f 28/10/4 9/11/4 19/12/4
f 2/13/5 38/14/5 43/15/5
f 32/16/6 11/17/6 21/18/6
f 33/19/7 1/20/7 23/21/7
f 3/22/8 41/23/8 46/24/8
f 4/25/9 25/1/9 14/26/9
f 6/27/10 26/4/10 16/28/10
f 8/29/11 27/7/11 18/30/11
f 10/31/12 28/10/12 20/32/12
f 16/33/13 37/34/13 6/35/13
f 24/36/14 38/14/14 2/13/14
f 20/37/15 39/38/15 10/39/15
f 12/40/16 32/16/16 22/41/16
f 2/42/17 33/19/17 24/43/17
f 23/44/18 40/45/18 11/46/18
f 15/47/19 41/23/19 3/22/19
f 19/48/20 42/49/20 7/50/20
f 21/51/21 48/52/21 36/53/21
f 36/53/22 49/54/22 21/51/22
f 9/55/23 49/54/23 19/48/23
f 17/56/24 47/57/24 35/58/24
f 35/58/25 50/59/25 17/56/25
f 5/60/26 50/59/26 15/47/26
f 13/61/27 46/24/27 34/62/27
f 34/62/28 51/63/28 13/61/28
f 1/64/29 51/63/29 23/44/29
f 12/40/30 24/43/30 33/19/30
f 10/31/31 22/41/31 32/16/31
f 18/65/32 45/66/32 31/67/32
f 31/67/33 52/68/33 18/65/33
f 8/69/34 52/68/34 20/37/34
f 22/70/35 44/71/35 30/72/35
f 30/72/36 53/73/36 22/70/36
f 12/74/37 53/73/37 24/36/37
f 14/75/38 43/15/38 29/76/38
f 29/76/39 54/77/39 14/75/39
f 4/78/40 54/77/40 16/33/40
f 8/29/41 20/32/41 28/10/41
f 6/27/42 18/30/42 27/7/42
f 4/25/43 16/28/43 26/4/43
f 2/79/44 14/26/44 25/1/44
f 34/62/45 55/80/45 40/45/45
f 34/62/46 56/81/46 55/80/46
f 35/58/47 47/57/47 57/82/47
f 33/19/48 11/17/48 12/40/48
f 32/16/49 9/11/49 10/31/49
f 29/76/50 58/83/50 37/34/50
f 29/76/51 59/84/51 58/83/51
f 30/72/52 44/71/52 60/85/52
f 28/10/53 7/8/53 8/29/53
f 27/7/54 5/5/54 6/27/54
f 26/4/55 3/2/55 4/25/55
f 25/1/56 1/86/56 2/79/56
f 4/25/57 3/2/57 25/1/57
f 6/27/58 5/5/58 26/4/58
f 8/29/59 7/8/59 27/7/59
f 10/31/60 9/11/60 28/10/60
f 12/40/61 11/17/61 32/16/61
f 2/42/62 1/20/62 33/19/62
f 33/19/63 23/21/63 11/17/63
f 32/16/64 21/18/64 9/11/64
f 28/10/65 19/12/65 7/8/65
f 27/7/66 17/9/66 5/5/66
f 26/4/67 15/6/67 3/2/67
f 25/1/68 13/3/68 1/86/68
f 60/85/69 39/38/69 31/67/69
f 60/85/70 44/71/70 39/38/70
f 44/71/71 10/39/71 39/38/71
f 58/83/72 60/85/72 31/67/72
f 58/83/73 59/84/73 60/85/73
f 59/84/74 30/72/74 60/85/74
f 37/34/75 45/66/75 6/35/75
f 37/34/76 58/83/76 45/66/76
f 58/83/77 31/67/77 45/66/77
f 57/82/78 42/49/78 36/53/78
f 57/82/79 47/57/79 42/49/79
f 47/57/80 7/50/80 42/49/80
f 55/80/81 57/82/81 36/53/81
f 55/80/82 56/81/82 57/82/82
f 56/81/83 35/58/83 57/82/83
f 40/45/84 48/52/84 11/46/84
f 40/45/85 55/80/85 48/52/85
f 55/80/86 36/53/86 48/52/86
f 46/24/87 56/81/87 34/62/87
f 46/24/88 41/23/88 56/81/88
f 41/23/89 35/58/89 56/81/89
f 43/15/90 59/84/90 29/76/90
f 43/15/91 38/14/91 59/84/91
f 38/14/92 30/72/92 59/84/92
f 16/33/93 29/76/93 37/34/93
f 24/36/94 30/72/94 38/14/94
f 20/37/95 31/67/95 39/38/95
f 23/44/96 34/62/96 40/45/96
f 15/47/97 35/58/97 41/23/97
f 19/48/98 36/53/98 42/49/98
f 21/51/99 11/46/99 48/52/99
f 36/53/100 19/48/100 49/54/100
f 9/55/101 21/51/101 49/54/101
f 17/56/102 7/50/102 47/57/102
f 35/58/103 15/47/103 50/59/103
f 5/60/104 17/56/104 50/59/104
f 13/61/105 3/22/105 46/24/105
f 34/62/106 23/44/106 51/63/106
f 1/64/107 13/61/107 51/63/107
f 18/65/108 6/35/108 45/66/108
f 31/67/109 20/37/109 52/68/109
f 8/69/110 18/65/110 52/68/110
f 22/70/111 10/39/111 44/71/111
f 30/72/112 24/36/112 53/73/112
f 12/74/113 22/70/113 53/73/113
f 14/75/114 2/13/114 43/15/114
f 29/76/115 16/33/115 54/77/115
f 4/78/116 14/75/116 54/77/116
