# Blender 4.3.0
# www.blender.org
o Cylinder
v 0.000000 -3.619039 -26.453667
v 0.000000 3.831923 -26.730190
v 23.350677 -4.011173 -13.481520
v 23.219255 3.894338 -13.405643
v 22.012962 -2.822071 12.709190
v 22.064167 2.867590 12.738753
v 0.000000 -1.467264 23.658457
v 0.000000 3.458085 26.244581
v -22.009018 -2.818565 12.706913
v -23.179533 3.859043 13.382710
v -21.369677 -2.250255 -12.337789
v -20.603569 1.569269 -11.895476
v 10.827224 -2.503813 -18.753302
v 10.716014 2.281396 -18.560680
v 22.579491 -3.428846 0.000000
v 20.819859 1.669232 0.000000
v 10.818908 -2.487181 18.738897
v 11.519832 3.889014 19.952934
v -10.999051 -2.847464 19.050917
v -10.512811 1.874993 18.208723
v -22.154564 -3.003924 0.000000
v -20.380453 1.229831 0.000000
v -10.671628 -2.192625 -18.483803
v 10.424995 0.000000 -18.056623
v 21.418728 0.000000 0.000000
v 11.310952 0.000000 19.591145
v -10.576821 0.000000 18.319592
v 10.825317 4.365489 -6.250000
v -10.825317 2.056739 -6.250000
v 0.000000 3.969840 12.500000
v -19.962049 0.000000 0.000000
v -10.150798 0.000000 -17.581697
v 0.000000 -1.997969 -12.500000
v 10.825317 -2.346183 6.250000
v -10.825317 -2.593356 6.250000
v 16.237976 4.038534 3.125000
v -5.412659 2.089293 -15.625000
v -10.825317 4.632705 12.500000
v -10.825317 -3.644742 -12.500000
v 16.237976 -2.109376 -3.125000
v -5.412659 -2.615395 15.625000
v 5.412659 0.357844 -15.625000
v -16.237976 2.213900 3.125000
v 10.825317 2.268470 12.500000
v 10.825317 -1.109607 -12.500000
v 5.412659 -2.168055 15.625000
v -16.237976 -4.707773 -3.125000
v -16.237976 -2.446292 9.375000
v 16.237976 -0.075932 9.375000
v 0.000000 -3.254293 -18.750000
v 0.000000 1.742415 18.750000
v -16.237976 3.354334 -9.375000
v 16.237976 0.558662 -9.375000
v -5.412659 -0.503595 -3.125000
v 5.412659 -4.529829 -3.125000
v 0.000000 -2.427517 6.250000
v 5.412659 2.688131 3.125000
v 0.000000 1.444558 -6.250000
v -5.412659 0.344734 3.125000
vn 0.4004 0.3048 -0.8641
vn 0.9469 0.3205 0.0269
vn 0.3566 -0.3652 0.8599
vn -0.4781 0.2843 0.8310
vn 0.1539 0.9619 0.2259
vn -0.8076 0.5895 -0.0154
vn -0.5033 0.4283 -0.7505
vn -0.2237 -0.9743 0.0253
vn 0.3964 -0.2460 -0.8845
vn 0.9341 0.3351 -0.1228
vn 0.4797 -0.1068 0.8709
vn -0.3460 0.0671 0.9358
vn 0.3879 0.9134 -0.1238
vn -0.3876 0.9207 -0.0445
vn -0.0252 0.8996 0.4360
vn -0.9467 -0.3221 0.0086
vn -0.1310 -0.9626 -0.2370
vn -0.2176 -0.9756 0.0297
vn 0.0907 -0.9926 0.0807
vn -0.1230 -0.9505 0.2854
vn 0.0052 -0.9984 0.0561
vn 0.0308 -0.9978 -0.0581
vn -0.0524 -0.9986 -0.0113
vn 0.3918 -0.9200 -0.0102
vn -0.4402 -0.8976 0.0232
vn 0.0798 -0.9729 0.2169
vn 0.0679 -0.9781 0.1966
vn -0.0977 -0.9941 0.0471
vn -0.9382 -0.3192 -0.1335
vn 0.1513 0.9629 -0.2235
vn -0.2061 0.9218 0.3285
vn 0.0238 0.9745 -0.2231
vn -0.1539 0.9825 -0.1053
vn 0.0836 0.9633 0.2552
vn -0.1077 0.8897 -0.4436
vn -0.4089 0.9004 -0.1488
vn 0.5104 0.8471 -0.1479
vn -0.3906 0.9169 0.0823
vn -0.6123 0.0675 0.7877
vn 0.5544 -0.1066 0.8254
vn 0.9184 0.3295 0.2191
vn 0.5649 -0.2461 -0.7876
vn 0.1461 -0.9604 0.2374
vn -0.3481 -0.9360 -0.0518
vn 0.0075 -0.9997 0.0233
vn -0.4468 0.1908 -0.8740
vn -0.9702 -0.1509 -0.1897
vn -0.1231 0.9868 0.1055
vn -0.2604 0.9652 0.0223
vn 0.1696 0.9821 0.0814
vn -0.4553 -0.4139 0.7883
vn 0.5391 -0.0092 0.8422
vn 0.9904 0.0151 0.1374
vn 0.6331 -0.0287 -0.7736
vn 0.3377 0.0146 -0.9412
vn 0.9988 -0.0087 -0.0486
vn 0.3541 -0.4348 0.8280
vn -0.4025 -0.1617 0.9010
vn -0.9792 0.1874 0.0775
vn -0.6634 -0.0278 -0.7477
vn -0.4517 0.4291 -0.7822
vn -0.8077 0.5895 0.0007
vn -0.4006 0.2832 0.8714
vn 0.4325 -0.3677 0.8233
vn 0.9464 0.3204 0.0403
vn 0.5308 0.3053 -0.7906
vn 0.0563 0.9199 -0.3882
vn 0.1605 0.9294 -0.3324
vn -0.0759 0.9752 -0.2078
vn -0.2050 0.9469 -0.2478
vn -0.2116 0.9773 -0.0075
vn 0.0558 0.9874 0.1481
vn -0.0559 0.9865 0.1540
vn -0.1230 0.9857 0.1151
vn 0.1551 0.9869 -0.0454
vn 0.0153 -0.9998 -0.0112
vn 0.0413 -0.9991 0.0038
vn 0.0410 -0.9926 0.1142
vn 0.0150 -0.9777 -0.2093
vn -0.3486 -0.9372 0.0089
vn 0.0073 -0.9748 0.2228
vn -0.1316 -0.9736 -0.1864
vn 0.3601 -0.9272 0.1028
vn 0.3620 -0.9322 0.0012
vn 0.0780 -0.9502 -0.3016
vn 0.2126 -0.9511 -0.2242
vn 0.2171 -0.9709 0.1008
vn -0.2520 0.9339 -0.2537
vn 0.1579 0.9872 -0.0233
vn 0.0564 0.9978 0.0360
vn 0.3563 0.9181 -0.1737
vn -0.3304 0.9250 -0.1876
vn 0.0551 0.9003 0.4319
vn 0.1464 -0.9622 -0.2297
vn -0.1496 -0.9825 -0.1112
vn 0.0296 -0.9994 -0.0194
vn -0.3136 -0.9464 -0.0778
vn -0.0389 -0.9990 -0.0204
vn 0.0723 -0.9973 0.0137
vn -0.0784 -0.9963 0.0341
vn 0.1377 -0.8994 0.4148
vn -0.2219 -0.9056 -0.3616
vn -0.2046 -0.9554 0.2129
vn -0.0922 -0.9762 0.1962
vn 0.0691 -0.9965 0.0472
vn -0.0477 0.9770 -0.2080
vn -0.0054 0.9420 0.3357
vn -0.1564 0.9628 -0.2204
vn -0.0753 0.9754 -0.2074
vn 0.3124 0.9378 -0.1516
vn -0.3948 0.9181 0.0336
vn -0.1379 0.9241 0.3563
vn 0.4223 0.8528 -0.3074
vn -0.2505 0.9131 0.3218
vt 0.916667 0.750000
vt 0.833333 0.500000
vt 0.916667 0.500000
vt 0.750000 0.750000
vt 0.666667 0.500000
vt 0.750000 0.500000
vt 0.583333 0.750000
vt 0.500000 0.500000
vt 0.583333 0.500000
vt 0.416667 0.750000
vt 0.333333 0.500000
vt 0.416667 0.500000
vt 0.250000 0.490000
vt 0.198038 0.400000
vt 0.301962 0.400000
vt 0.250000 0.750000
vt 0.166667 0.500000
vt 0.250000 0.500000
vt 0.083333 0.750000
vt -0.000000 0.500000
vt 0.083333 0.500000
vt 0.957846 0.370000
vt 0.905885 0.280000
vt 0.853923 0.370000
vt 0.833333 1.000000
vt 0.916667 1.000000
vt 0.666667 1.000000
vt 0.750000 1.000000
vt 0.500000 1.000000
vt 0.583333 1.000000
vt 0.333333 1.000000
vt 0.416667 1.000000
vt 0.457846 0.250000
vt 0.405885 0.220000
vt 0.457846 0.130000
vt 0.146077 0.430000
vt 0.146077 0.070000
vt 0.146077 0.130000
vt 0.042154 0.130000
vt 0.166667 1.000000
vt 0.250000 1.000000
vt 0.646077 0.430000
vt 0.646077 0.370000
vt 0.542154 0.370000
vt 0.957846 0.250000
vt 0.646077 0.070000
vt 0.698038 0.100000
vt 0.750000 0.010000
vt 0.542154 0.250000
vt 0.594115 0.280000
vt 0.646077 0.190000
vt 0.594115 0.160000
vt 0.542154 0.130000
vt 0.853923 0.070000
vt 0.801962 0.100000
vt 0.853923 0.190000
vt 0.905885 0.160000
vt 0.957846 0.130000
vt 0.853923 0.430000
vt 0.750000 0.370000
vt 0.750000 0.430000
vt 0.750000 0.490000
vt 0.353923 0.070000
vt 0.353923 0.130000
vt 0.250000 0.130000
vt 0.250000 0.070000
vt 0.250000 0.010000
vt 0.042154 0.250000
vt 0.094115 0.220000
vt 0.146077 0.310000
vt 0.094115 0.340000
vt 0.042154 0.370000
vt 0.353923 0.430000
vt 0.353923 0.310000
vt 0.405885 0.340000
vt 0.457846 0.370000
vt 1.000000 1.000000
vt 0.698038 0.280000
vt 0.801962 0.280000
vt 0.750000 0.190000
vt 0.301962 0.220000
vt 0.250000 0.310000
vt 0.198038 0.220000
vt 1.000000 0.500000
vt -0.000000 1.000000
s 0
f 24/1/1 3/2/1 13/3/1
f 25/4/2 5/5/2 15/6/2
f 26/7/3 7/8/3 17/9/3
f 27/10/4 9/11/4 19/12/4
f 2/13/5 37/14/5 42/15/5
f 31/16/6 11/17/6 21/18/6
f 32/19/7 1/20/7 23/21/7
f 3/22/8 40/23/8 45/24/8
f 4/25/9 24/1/9 14/26/9
f 6/27/10 25/4/10 16/28/10
f 8/29/11 26/7/11 18/30/11
f 10/31/12 27/10/12 20/32/12
f 16/33/13 36/34/13 6/35/13
f 32/36/14 37/14/14 2/13/14
f 20/37/15 38/38/15 10/39/15
f 12/40/16 31/16/16 22/41/16
f 23/42/17 39/43/17 11/44/17
f 15/45/18 40/23/18 3/22/18
f 19/46/19 41/47/19 7/48/19
f 21/49/20 47/50/20 35/51/20
f 35/51/21 48/52/21 21/49/21
f 9/53/22 48/52/22 19/46/22
f 17/54/23 46/55/23 34/56/23
f 34/56/24 49/57/24 17/54/24
f 5/58/25 49/57/25 15/45/25
f 13/59/26 45/24/26 33/60/26
f 33/60/27 50/61/27 13/59/27
f 1/62/28 50/61/28 23/42/28
f 10/31/29 22/41/29 31/16/29
f 18/63/30 44/64/30 30/65/30
f 30/65/31 51/66/31 18/63/31
f 8/67/32 51/66/32 20/37/32
f 22/68/33 43/69/33 29/70/33
f 29/70/34 52/71/34 22/68/34
f 12/72/35 52/71/35 32/36/35
f 14/73/36 42/15/36 28/74/36
f 28/74/37 53/75/37 14/73/37
f 4/76/38 53/75/38 16/33/38
f 8/29/39 20/32/39 27/10/39
f 6/27/40 18/30/40 26/7/40
f 4/25/41 16/28/41 25/4/41
f 2/77/42 14/26/42 24/1/42
f 33/60/43 54/78/43 39/43/43
f 33/60/44 55/79/44 54/78/44
f 34/56/45 46/55/45 56/80/45
f 32/19/46 11/17/46 12/40/46
f 31/16/47 9/11/47 10/31/47
f 28/74/48 57/81/48 36/34/48
f 28/74/49 58/82/49 57/81/49
f 29/70/50 43/69/50 59/83/50
f 27/10/51 7/8/51 8/29/51
f 26/7/52 5/5/52 6/27/52
f 25/4/53 3/2/53 4/25/53
f 24/1/54 1/84/54 2/77/54
f 4/25/55 3/2/55 24/1/55
f 6/27/56 5/5/56 25/4/56
f 8/29/57 7/8/57 26/7/57
f 10/31/58 9/11/58 27/10/58
f 12/40/59 11/17/59 31/16/59
f 2/85/60 1/20/60 32/19/60
f 32/19/61 23/21/61 11/17/61
f 31/16/62 21/18/62 9/11/62
f 27/10/63 19/12/63 7/8/63
f 26/7/64 17/9/64 5/5/64
f 25/4/65 15/6/65 3/2/65
f 24/1/66 13/3/66 1/84/66
f 59/83/67 38/38/67 30/65/67
f 59/83/68 43/69/68 38/38/68
f 43/69/69 10/39/69 38/38/69
f 57/81/70 59/83/70 30/65/70
f 57/81/71 58/82/71 59/83/71
f 58/82/72 29/70/72 59/83/72
f 36/34/73 44/64/73 6/35/73
f 36/34/74 57/81/74 44/64/74
f 57/81/75 30/65/75 44/64/75
f 56/80/76 41/47/76 35/51/76
f 56/80/77 46/55/77 41/47/77
f 46/55/78 7/48/78 41/47/78
f 54/78/79 56/80/79 35/51/79
f 54/78/80 55/79/80 56/80/80
f 55/79/81 34/56/81 56/80/81
f 39/43/82 47/50/82 11/44/82
f 39/43/83 54/78/83 47/50/83
f 54/78/84 35/51/84 47/50/84
f 45/24/85 55/79/85 33/60/85
f 45/24/86 40/23/86 55/79/86
f 40/23/87 34/56/87 55/79/87
f 42/15/88 58/82/88 28/74/88
f 42/15/89 37/14/89 58/82/89
f 37/14/90 29/70/90 58/82/90
f 16/33/91 28/74/91 36/34/91
f 32/36/92 29/70/92 37/14/92
f 20/37/93 30/65/93 38/38/93
f 23/42/94 33/60/94 39/43/94
f 15/45/95 34/56/95 40/23/95
f 19/46/96 35/51/96 41/47/96
f 21/49/97 11/44/97 47/50/97
f 35/51/98 19/46/98 48/52/98
f 9/53/99 21/49/99 48/52/99
f 17/54/100 7/48/100 46/55/100
f 34/56/101 15/45/101 49/57/101
f 5/58/102 17/54/102 49/57/102
f 13/59/103 3/22/103 45/24/103
f 33/60/104 23/42/104 50/61/104
f 1/62/105 13/59/105 50/61/105
f 18/63/106 6/35/106 44/64/106
f 30/65/107 20/37/107 51/66/107
f 8/67/108 18/63/108 51/66/108
f 22/68/109 10/39/109 43/69/109
f 29/70/110 32/36/110 52/71/110
f 12/72/111 22/68/111 52/71/111
f 14/73/112 2/13/112 42/15/112
f 28/74/113 16/33/113 53/75/113
f 4/76/114 14/73/114 53/75/114
