# Blender 4.3.0
# www.blender.org
o Cylinder
v 0.000000 -3.604423 -26.434679
v 0.000000 2.633660 -25.173626
v 23.007183 -3.705839 -13.283203
v 21.179623 2.081320 -12.228061
v 21.431894 -2.305563 12.373711
v 22.124084 2.920851 12.773346
v 0.000000 -3.047162 25.710773
v 0.000000 3.901651 26.820787
v -23.173910 -3.854031 13.379463
v -20.103748 1.124967 11.606904
v -21.119459 -2.027837 -12.193326
v -22.336838 3.109963 -12.896180
v 10.892046 -2.633456 -18.865578
v 11.370092 3.589538 -19.693579
v 22.166754 -3.016113 0.000000
v 22.745783 3.595137 0.000000
v 11.216443 -3.282242 19.427448
v 11.512544 3.874439 19.940311
v -10.802786 -2.454937 18.710974
v -11.110761 3.070881 19.244402
v -21.235178 -2.084548 0.000000
v -23.249670 4.099018 0.000000
v -11.572433 -3.994214 -20.044041
v -11.096112 3.041585 -19.219030
v 11.159311 0.000000 -19.328493
v 23.053917 0.000000 0.000000
v 11.504541 0.000000 19.926451
v -10.947742 0.000000 18.962046
v 10.825317 1.495150 -6.250000
v -10.825317 1.431916 -6.250000
v 0.000000 2.554271 12.500000
v -20.008429 0.000000 0.000000
v -10.842809 0.000000 -18.780296
v 0.000000 -0.252874 -12.500000
v 10.825317 -1.002707 6.250000
v -10.825317 -0.026755 6.250000
v 16.237976 1.839627 3.125000
v -5.412659 3.337898 -15.625000
v -10.825317 1.613610 12.500000
v -10.825317 -3.992453 -12.500000
v 16.237976 -3.521234 -3.125000
v -5.412659 -3.805347 15.625000
v 5.412659 1.922781 -15.625000
v -16.237976 0.884249 3.125000
v 10.825317 2.150552 12.500000
v 10.825317 -1.533528 -12.500000
v 5.412659 -4.392059 15.625000
v -16.237976 -0.840187 -3.125000
v -16.237976 -2.023637 9.375000
v 16.237976 -0.045352 9.375000
v 0.000000 -3.385112 -18.750000
v 0.000000 2.709902 18.750000
v -16.237976 1.224999 -9.375000
v 16.237976 0.460277 -9.375000
v -5.412659 -4.583935 -3.125000
v 5.412659 -0.651735 -3.125000
v 0.000000 -0.464750 6.250000
v 5.412659 1.135466 3.125000
v 0.000000 0.563727 -6.250000
v -5.412659 4.256285 3.125000
vn 0.3957 -0.1978 -0.8968
vn 0.9568 -0.2814 0.0730
vn 0.4786 -0.1729 0.8608
vn -0.3820 -0.1163 0.9168
vn 0.1296 0.9916 0.0003
vn -0.8618 0.5072 -0.0058
vn -0.4629 0.3431 -0.8173
vn -0.1810 -0.9781 -0.1029
vn 0.5902 -0.1159 -0.7989
vn 0.9950 0.0853 0.0529
vn 0.5130 -0.0041 0.8584
vn -0.6306 -0.1042 0.7691
vn -0.2426 0.9693 0.0394
vn -0.0040 0.9971 -0.0758
vn -0.0310 0.9767 -0.2123
vn -0.7844 -0.6202 -0.0080
vn -0.4711 -0.1642 -0.8666
vn -0.1869 -0.9822 0.0187
vn 0.0558 -0.9969 0.0553
vn -0.1548 -0.9755 0.1564
vn 0.2173 -0.9752 -0.0408
vn 0.2714 -0.9524 -0.1385
vn 0.1730 -0.9741 -0.1457
vn 0.2922 -0.9409 -0.1714
vn 0.2670 -0.9482 -0.1720
vn -0.4123 -0.9106 0.0278
vn -0.1158 -0.9790 0.1679
vn 0.0663 -0.8920 0.4471
vn 0.0494 -0.9984 0.0285
vn -0.4844 -0.1643 -0.8593
vn -0.7833 -0.6194 0.0536
vn 0.0363 0.9728 -0.2287
vn -0.0981 0.9949 -0.0248
vn 0.0256 0.9889 -0.1460
vn 0.3160 0.9189 0.2361
vn 0.0939 0.9694 -0.2269
vn 0.1487 0.9557 0.2540
vn -0.1737 0.9741 0.1447
vn 0.2731 0.9488 0.1589
vn -0.3478 0.9349 -0.0712
vn -0.5549 -0.1053 0.8252
vn 0.5594 -0.0041 0.8289
vn 0.9870 0.0846 -0.1369
vn 0.4391 -0.1164 -0.8908
vn 0.3169 -0.9174 -0.2408
vn 0.3322 -0.9146 -0.2307
vn -0.0462 -0.9306 -0.3631
vn -0.4922 -0.2314 -0.8392
vn -0.8587 0.5094 -0.0564
vn -0.0649 0.9979 0.0008
vn -0.0857 0.9963 -0.0113
vn -0.2954 0.9484 -0.1152
vn -0.5465 -0.1321 0.8269
vn 0.5792 -0.1381 0.8034
vn 0.9447 0.3150 -0.0912
vn 0.4887 0.1729 -0.8551
vn 0.5070 0.3070 -0.8054
vn 0.9850 -0.1384 0.1033
vn 0.4740 -0.1389 0.8695
vn -0.4844 0.5429 0.6860
vn -0.9692 -0.2127 0.1237
vn -0.5307 0.1679 -0.8308
vn -0.5540 0.3414 -0.7593
vn -0.8604 0.5063 -0.0577
vn -0.5446 -0.1171 0.8305
vn 0.5708 -0.1722 0.8028
vn 0.9566 -0.2814 0.0751
vn 0.5712 -0.1980 -0.7966
vn -0.0844 0.9707 0.2249
vn -0.2960 0.9503 0.0970
vn -0.0477 0.9976 -0.0501
vn 0.2770 0.9608 0.0145
vn 0.2706 0.9387 -0.2135
vn 0.0755 0.9419 -0.3274
vn -0.0661 0.9953 -0.0712
vn -0.0647 0.9954 -0.0704
vn 0.0370 0.9910 -0.1286
vn -0.0378 -0.9342 -0.3547
vn -0.0505 -0.9312 -0.3610
vn -0.0538 -0.9932 0.1035
vn -0.0367 -0.9069 0.4197
vn 0.3337 -0.9188 0.2110
vn -0.0496 -0.9987 -0.0087
vn -0.1765 -0.9593 0.2206
vn -0.3242 -0.9373 0.1280
vn -0.3155 -0.9122 0.2613
vn -0.1174 -0.9928 0.0256
vn -0.2558 -0.9651 -0.0569
vn -0.2546 -0.9606 0.1111
vn -0.0853 0.9919 0.0945
vn 0.1266 0.9687 0.2135
vn 0.0776 0.9673 0.2414
vn -0.2186 0.9716 0.0905
vn -0.1302 0.9836 0.1248
vn -0.0846 0.9732 -0.2139
vn 0.3263 -0.9447 -0.0321
vn -0.0420 -0.9707 0.2365
vn -0.3346 -0.9251 -0.1797
vn 0.2403 -0.9707 -0.0022
vn 0.2438 -0.9518 -0.1859
vn 0.1995 -0.9748 -0.1000
vn 0.0755 -0.9823 0.1715
vn -0.0042 -0.9540 0.2996
vn -0.1757 -0.9081 -0.3802
vn -0.1627 -0.9725 0.1663
vn -0.0030 -0.8940 0.4480
vn 0.0691 -0.9972 0.0285
vn -0.0611 0.9736 -0.2199
vn 0.0314 0.9992 -0.0249
vn -0.0847 0.9857 -0.1456
vn 0.3611 0.9222 0.1384
vn -0.1097 0.9861 0.1247
vn 0.3211 0.9457 -0.0498
vn -0.1606 0.9734 0.1635
vn -0.0013 0.9486 -0.3163
vn -0.1124 0.9349 0.3366
vt 0.916667 0.750000
vt 0.833333 0.500000
vt 0.916667 0.500000
vt 0.750000 0.750000
vt 0.666667 0.500000
vt 0.750000 0.500000
vt 0.583333 0.750000
vt 0.500000 0.500000
vt 0.583333 0.500000
vt 0.416667 0.750000
vt 0.333333 0.500000
vt 0.416667 0.500000
vt 0.250000 0.490000
vt 0.198038 0.400000
vt 0.301962 0.400000
vt 0.250000 0.750000
vt 0.166667 0.500000
vt 0.250000 0.500000
vt 0.083333 0.750000
vt -0.000000 0.500000
vt 0.083333 0.500000
vt 0.957846 0.370000
vt 0.905885 0.280000
vt 0.853923 0.370000
vt 0.833333 1.000000
vt 0.916667 1.000000
vt 0.666667 1.000000
vt 0.750000 1.000000
vt 0.500000 1.000000
vt 0.583333 1.000000
vt 0.333333 1.000000
vt 0.416667 1.000000
vt 0.457846 0.250000
vt 0.405885 0.220000
vt 0.457846 0.130000
vt 0.146077 0.430000
vt 0.146077 0.070000
vt 0.146077 0.130000
vt 0.042154 0.130000
vt 0.166667 1.000000
vt 0.250000 1.000000
vt -0.000000 1.000000
vt 0.083333 1.000000
vt 0.646077 0.430000
vt 0.646077 0.370000
vt 0.542154 0.370000
vt 0.957846 0.250000
vt 0.646077 0.070000
vt 0.698038 0.100000
vt 0.750000 0.010000
vt 0.542154 0.250000
vt 0.594115 0.280000
vt 0.646077 0.190000
vt 0.594115 0.160000
vt 0.542154 0.130000
vt 0.853923 0.070000
vt 0.801962 0.100000
vt 0.853923 0.190000
vt 0.905885 0.160000
vt 0.957846 0.130000
vt 0.853923 0.430000
vt 0.750000 0.370000
vt 0.750000 0.430000
vt 0.750000 0.490000
vt 0.353923 0.070000
vt 0.353923 0.130000
vt 0.250000 0.130000
vt 0.250000 0.070000
vt 0.250000 0.010000
vt 0.042154 0.250000
vt 0.094115 0.220000
vt 0.146077 0.310000
vt 0.094115 0.340000
vt 0.042154 0.370000
vt 0.353923 0.430000
vt 0.353923 0.310000
vt 0.405885 0.340000
vt 0.457846 0.370000
vt 1.000000 1.000000
vt 0.698038 0.280000
vt 0.801962 0.280000
vt 0.750000 0.190000
vt 0.301962 0.220000
vt 0.250000 0.310000
vt 0.198038 0.220000
vt 1.000000 0.500000
s 0
f 25/1/1 3/2/1 13/3/1
f 26/4/2 5/5/2 15/6/2
f 27/7/3 7/8/3 17/9/3
f 28/10/4 9/11/4 19/12/4
f 2/13/5 38/14/5 43/15/5
f 32/16/6 11/17/6 21/18/6
f 33/19/7 1/20/7 23/21/7
f 3/22/8 41/23/8 46/24/8
f 4/25/9 25/1/9 14/26/9
f 6/27/10 26/4/10 16/28/10
f 8/29/11 27/7/11 18/30/11
f 10/31/12 28/10/12 20/32/12
f 16/33/13 37/34/13 6/35/13
f 24/36/14 38/14/14 2/13/14
f 20/37/15 39/38/15 10/39/15
f 12/40/16 32/16/16 22/41/16
f 2/42/17 33/19/17 24/43/17
f 23/44/18 40/45/18 11/46/18
f 15/47/19 41/23/19 3/22/19
f 19/48/20 42/49/20 7/50/20
f 21/51/21 48/52/21 36/53/21
f 36/53/22 49/54/22 21/51/22
f 9/55/23 49/54/23 19/48/23
f 17/56/24 47/57/24 35/58/24
f 35/58/25 50/59/25 17/56/25
f 5/60/26 50/59/26 15/47/26
f 13/61/27 46/24/27 34/62/27
f 34/62/28 51/63/28 13/61/28
f 1/64/29 51/63/29 23/44/29
f 12/40/30 24/43/30 33/19/30
f 10/31/31 22/41/31 32/16/31
f 18/65/32 45/66/32 31/67/32
f 31/67/33 52/68/33 18/65/33
f 8/69/34 52/68/34 20/37/34
f 22/70/35 44/71/35 30/72/35
f 30/72/36 53/73/36 22/70/36
f 12/74/37 53/73/37 24/36/37
f 14/75/38 43/15/38 29/76/38
f 29/76/39 54/77/39 14/75/39
f 4/78/40 54/77/40 16/33/40
f 8/29/41 20/32/41 28/10/41
f 6/27/42 18/30/42 27/7/42
f 4/25/43 16/28/43 26/4/43
f 2/79/44 14/26/44 25/1/44
f 34/62/45 55/80/45 40/45/45
f 34/62/46 56/81/46 55/80/46
f 35/58/47 47/57/47 57/82/47
f 33/19/48 11/17/48 12/40/48
f 32/16/49 9/11/49 10/31/49
f 29/76/50 58/83/50 37/34/50
f 29/76/51 59/84/51 58/83/51
f 30/72/52 44/71/52 60/85/52
f 28/10/53 7/8/53 8/29/53
f 27/7/54 5/5/54 6/27/54
f 26/4/55 3/2/55 4/25/55
f 25/1/56 1/86/56 2/79/56
f 4/25/57 3/2/57 25/1/57
f 6/27/58 5/5/58 26/4/58
f 8/29/59 7/8/59 27/7/59
f 10/31/60 9/11/60 28/10/60
f 12/40/61 11/17/61 32/16/61
f 2/42/62 1/20/62 33/19/62
f 33/19/63 23/21/63 11/17/63
f 32/16/64 21/18/64 9/11/64
f 28/10/65 19/12/65 7/8/65
f 27/7/66 17/9/66 5/5/66
f 26/4/67 15/6/67 3/2/67
f 25/1/68 13/3/68 1/86/68
f 60/85/69 39/38/69 31/67/69
f 60/85/70 44/71/70 39/38/70
f 44/71/71 10/39/71 39/38/71
f 58/83/72 60/85/72 31/67/72
f 58/83/73 59/84/73 60/85/73
f 59/84/74 30/72/74 60/85/74
f 37/34/75 45/66/75 6/35/75
f 37/34/76 58/83/76 45/66/76
f 58/83/77 31/67/77 45/66/77
f 57/82/78 42/49/78 36/53/78
f 57/82/79 47/57/79 42/49/79
f 47/57/80 7/50/80 42/49/80
f 55/80/81 57/82/81 36/53/81
f 55/80/82 56/81/82 57/82/82
f 56/81/83 35/58/83 57/82/83
f 40/45/84 48/52/84 11/46/84
f 40/45/85 55/80/85 48/52/85
f 55/80/86 36/53/86 48/52/86
f 46/24/87 56/81/87 34/62/87
f 46/24/88 41/23/88 56/81/88
f 41/23/89 35/58/89 56/81/89
f 43/15/90 59/84/90 29/76/90
f 43/15/91 38/14/91 59/84/91
f 38/14/92 30/72/92 59/84/92
f 16/33/93 29/76/93 37/34/93
f 24/36/94 30/72/94 38/14/94
f 20/37/95 31/67/95 39/38/95
f 23/44/96 34/62/96 40/45/96
f 15/47/97 35/58/97 41/23/97
f 19/48/98 36/53/98 42/49/98
f 21/51/99 11/46/99 48/52/99
f 36/53/100 19/48/100 49/54/100
f 9/55/101 21/51/101 49/54/101
f 17/56/102 7/50/102 47/57/102
f 35/58/103 15/47/103 50/59/103
f 5/60/104 17/56/104 50/59/104
f 13/61/105 3/22/105 46/24/105
f 34/62/106 23/44/106 51/63/106
f 1/64/107 13/61/107 51/63/107
f 18/65/108 6/35/108 45/66/108
f 31/67/109 20/37/109 52/68/109
f 8/69/110 18/65/110 52/68/110
f 22/70/111 10/39/111 44/71/111
f 30/72/112 24/36/112 53/73/112
f 12/74/113 22/70/113 53/73/113
f 14/75/114 2/13/114 43/15/114
f 29/76/115 16/33/115 54/77/115
f 4/78/116 14/75/116 54/77/116
