# Blender 4.3.0
# www.blender.org
o Cylinder
v 0.000000 -2.677542 -25.230633
v 0.000000 2.231368 -24.651043
v 21.486647 -2.354231 -12.405321
v 22.214289 3.001028 -12.825425
v 21.775223 -2.610745 12.571931
v 21.517815 2.381935 12.423316
v 0.000000 -1.922951 24.250402
v 0.000000 2.707938 25.270117
v -22.298397 -3.075792 12.873985
v -22.006773 2.816571 12.705616
v -21.597532 -2.452797 -12.469341
v -21.315588 2.202178 -12.306561
v 10.478666 -1.806704 -18.149582
v 10.771223 2.391813 -18.656305
v 21.206562 -2.055933 0.000000
v 21.008743 1.858115 0.000000
v 11.024004 -2.897368 19.094135
v 10.483746 1.816864 18.158381
v -10.655105 -2.159578 18.455183
v -10.647934 2.145238 18.442764
v -22.073704 -2.923064 0.000000
v -21.704161 2.553526 0.000000
v -10.679270 -2.207908 -18.497038
v -10.986457 2.822276 -19.029102
v 10.602974 0.000000 -18.364889
v 22.402620 0.000000 0.000000
v 10.737115 0.000000 18.597229
v -10.593568 0.000000 18.348598
v 10.825317 3.348691 -6.250000
v -10.825317 1.999352 -6.250000
v 0.000000 2.263779 12.500000
v -22.199245 0.000000 0.000000
v -10.548505 0.000000 -18.270546
v 0.000000 -2.619628 -12.500000
v 10.825317 -2.921055 6.250000
v -10.825317 -1.921100 6.250000
v 16.237976 2.344432 3.125000
v -5.412659 2.058019 -15.625000
v -10.825317 2.439375 12.500000
v -10.825317 -2.733613 -12.500000
v 16.237976 -1.888997 -3.125000
v -5.412659 -1.831003 15.625000
v 5.412659 1.543828 -15.625000
v -16.237976 2.420614 3.125000
v 10.825317 3.469977 12.500000
v 10.825317 -2.574342 -12.500000
v 5.412659 -1.838861 15.625000
v -16.237976 -3.053206 -3.125000
v -16.237976 -2.764423 9.375000
v 16.237976 -2.095221 9.375000
v 0.000000 -2.902759 -18.750000
v 0.000000 1.708506 18.750000
v -16.237976 3.334310 -9.375000
v 16.237976 2.670144 -9.375000
v -5.412659 -2.359475 -3.125000
v 5.412659 -1.712791 -3.125000
v 0.000000 -3.381777 6.250000
v 5.412659 2.060670 3.125000
v 0.000000 2.064769 -6.250000
v -5.412659 2.101795 3.125000
vn 0.4530 -0.1362 -0.8811
vn 0.8628 -0.5019 -0.0612
vn 0.4296 0.1938 0.8820
vn -0.4352 0.0567 0.8986
vn 0.0474 0.9977 0.0476
vn -0.9983 -0.0429 -0.0397
vn -0.5260 0.1176 -0.8423
vn 0.0201 -0.9979 0.0614
vn 0.4555 -0.1392 -0.8793
vn 0.7986 0.5991 -0.0580
vn 0.5564 0.2676 0.7867
vn -0.4526 -0.0505 0.8903
vn 0.0721 0.9964 -0.0450
vn 0.0911 0.9931 0.0737
vn 0.0346 0.9982 0.0484
vn -0.9811 0.1902 -0.0364
vn -0.4477 -0.2962 -0.8437
vn -0.0262 -0.9958 -0.0879
vn -0.0480 -0.9986 0.0229
vn 0.0424 -0.9984 -0.0373
vn 0.0322 -0.9943 0.1015
vn 0.1207 -0.9910 -0.0584
vn 0.0661 -0.9975 0.0258
vn -0.1882 -0.9821 0.0047
vn 0.1511 -0.9885 -0.0005
vn -0.0692 -0.9968 -0.0409
vn 0.0041 -0.9909 -0.1349
vn 0.1014 -0.9938 0.0450
vn -0.0657 -0.9972 -0.0347
vn -0.5084 -0.2962 -0.8085
vn -0.9814 0.1903 -0.0273
vn -0.1065 0.9561 0.2729
vn -0.0053 0.9961 0.0885
vn 0.0449 0.9875 -0.1514
vn 0.0376 0.9990 -0.0232
vn 0.1449 0.9755 0.1657
vn -0.1436 0.9810 -0.1301
vn -0.1969 0.9776 -0.0745
vn 0.0801 0.9938 -0.0770
vn -0.0041 0.9961 0.0884
vn -0.5372 -0.0506 0.8420
vn 0.4334 0.2683 0.8603
vn 0.7934 0.5952 0.1276
vn 0.4831 -0.1393 -0.8644
vn 0.0105 -0.9994 0.0338
vn 0.0595 -0.9963 0.0620
vn 0.0421 -0.9895 0.1385
vn -0.4744 0.0594 -0.8783
vn -0.9988 0.0495 0.0041
vn -0.0260 0.9923 0.1213
vn -0.1175 0.9907 0.0683
vn 0.0294 0.9992 -0.0279
vn -0.5037 -0.1858 0.8437
vn 0.4878 0.0511 0.8715
vn 0.9893 -0.1381 -0.0468
vn 0.5229 0.0999 -0.8465
vn 0.4542 -0.1308 -0.8812
vn 0.9967 0.0532 0.0608
vn 0.4837 -0.1882 0.8547
vn -0.4333 0.0472 0.9000
vn -0.9962 0.0625 -0.0604
vn -0.5303 0.0994 -0.8420
vn -0.4820 0.1176 -0.8683
vn -0.9989 -0.0429 -0.0179
vn -0.4780 0.0569 0.8765
vn 0.5050 0.1942 0.8410
vn 0.8639 -0.5026 0.0316
vn 0.5624 -0.1359 -0.8156
vn 0.0162 0.9995 -0.0266
vn 0.0294 0.9994 -0.0190
vn 0.0333 0.9992 -0.0212
vn 0.0038 0.9998 -0.0195
vn 0.0038 1.0000 -0.0018
vn -0.0060 1.0000 -0.0074
vn 0.1006 0.9930 -0.0611
vn -0.0260 0.9907 -0.1339
vn -0.1103 0.9902 -0.0852
vn -0.1332 -0.9873 0.0864
vn -0.0007 -0.9867 0.1628
vn -0.0007 -0.9999 -0.0102
vn -0.1337 -0.9905 -0.0308
vn 0.0590 -0.9881 -0.1418
vn 0.0420 -0.9876 -0.1515
vn -0.0262 -0.9984 -0.0491
vn 0.0640 -0.9979 0.0029
vn 0.0637 -0.9945 0.0833
vn 0.0042 -0.9956 0.0939
vn -0.0162 -0.9965 0.0822
vn -0.0162 -0.9928 -0.1186
vn -0.1169 0.9856 -0.1223
vn 0.0474 0.9985 -0.0281
vn -0.0060 1.0000 0.0028
vn 0.1238 0.9917 0.0347
vn 0.0979 0.9932 0.0627
vn 0.0162 0.9987 0.0489
vn 0.0105 -0.9961 -0.0871
vn 0.0260 -0.9952 -0.0945
vn 0.0517 -0.9985 -0.0202
vn -0.0433 -0.9983 -0.0393
vn 0.1419 -0.9897 -0.0213
vn 0.0449 -0.9989 -0.0111
vn -0.1299 -0.9873 -0.0911
vn 0.1177 -0.9913 0.0582
vn -0.0345 -0.9943 -0.1006
vn 0.0217 -0.9905 -0.1359
vn -0.0638 -0.9969 0.0452
vn 0.1059 -0.9938 -0.0345
vn 0.0991 0.9535 0.2846
vn 0.0383 0.9953 0.0884
vn -0.0188 0.9883 -0.1515
vn 0.0356 0.9992 -0.0198
vn 0.2061 0.9767 0.0603
vn -0.1986 0.9795 -0.0342
vn -0.0850 0.9884 0.1262
vn 0.1343 0.9908 0.0175
vn -0.0542 0.9985 0.0020
vt 0.916667 0.750000
vt 0.833333 0.500000
vt 0.916667 0.500000
vt 0.750000 0.750000
vt 0.666667 0.500000
vt 0.750000 0.500000
vt 0.583333 0.750000
vt 0.500000 0.500000
vt 0.583333 0.500000
vt 0.416667 0.750000
vt 0.333333 0.500000
vt 0.416667 0.500000
vt 0.250000 0.490000
vt 0.198038 0.400000
vt 0.301962 0.400000
vt 0.250000 0.750000
vt 0.166667 0.500000
vt 0.250000 0.500000
vt 0.083333 0.750000
vt -0.000000 0.500000
vt 0.083333 0.500000
vt 0.957846 0.370000
vt 0.905885 0.280000
vt 0.853923 0.370000
vt 0.833333 1.000000
vt 0.916667 1.000000
vt 0.666667 1.000000
vt 0.750000 1.000000
vt 0.500000 1.000000
vt 0.583333 1.000000
vt 0.333333 1.000000
vt 0.416667 1.000000
vt 0.457846 0.250000
vt 0.405885 0.220000
vt 0.457846 0.130000
vt 0.146077 0.430000
vt 0.146077 0.070000
vt 0.146077 0.130000
vt 0.042154 0.130000
vt 0.166667 1.000000
vt 0.250000 1.000000
vt -0.000000 1.000000
vt 0.083333 1.000000
vt 0.646077 0.430000
vt 0.646077 0.370000
vt 0.542154 0.370000
vt 0.957846 0.250000
vt 0.646077 0.070000
vt 0.698038 0.100000
vt 0.750000 0.010000
vt 0.542154 0.250000
vt 0.594115 0.280000
vt 0.646077 0.190000
vt 0.594115 0.160000
vt 0.542154 0.130000
vt 0.853923 0.070000
vt 0.801962 0.100000
vt 0.853923 0.190000
vt 0.905885 0.160000
vt 0.957846 0.130000
vt 0.853923 0.430000
vt 0.750000 0.370000
vt 0.750000 0.430000
vt 0.750000 0.490000
vt 0.353923 0.070000
vt 0.353923 0.130000
vt 0.250000 0.130000
vt 0.250000 0.070000
vt 0.250000 0.010000
vt 0.042154 0.250000
vt 0.094115 0.220000
vt 0.146077 0.310000
vt 0.094115 0.340000
vt 0.042154 0.370000
vt 0.353923 0.430000
vt 0.353923 0.310000
vt 0.405885 0.340000
vt 0.457846 0.370000
vt 1.000000 1.000000
vt 0.698038 0.280000
vt 0.801962 0.280000
vt 0.750000 0.190000
vt 0.301962 0.220000
vt 0.250000 0.310000
vt 0.198038 0.220000
vt 1.000000 0.500000
s 0
f 25/1/1 3/2/1 13/3/1
f 26/4/2 5/5/2 15/6/2
f 27/7/3 7/8/3 17/9/3
f 28/10/4 9/11/4 19/12/4
f 2/13/5 38/14/5 43/15/5
f 32/16/6 11/17/6 21/18/6
f 33/19/7 1/20/7 23/21/7
f 3/22/8 41/23/8 46/24/8
f 4/25/9 25/1/9 14/26/9
f 6/27/10 26/4/10 16/28/10
f 8/29/11 27/7/11 18/30/11
f 10/31/12 28/10/12 20/32/12
f 16/33/13 37/34/13 6/35/13
f 24/36/14 38/14/14 2/13/14
f 20/37/15 39/38/15 10/39/15
f 12/40/16 32/16/16 22/41/16
f 2/42/17 33/19/17 24/43/17
f 23/44/18 40/45/18 11/46/18
f 15/47/19 41/23/19 3/22/19
f 19/48/20 42/49/20 7/50/20
f 21/51/21 48/52/21 36/53/21
f 36/53/22 49/54/22 21/51/22
f 9/55/23 49/54/23 19/48/23
f 17/56/24 47/57/24 35/58/24
f 35/58/25 50/59/25 17/56/25
f 5/60/26 50/59/26 15/47/26
f 13/61/27 46/24/27 34/62/27
f 34/62/28 51/63/28 13/61/28
f 1/64/29 51/63/29 23/44/29
f 12/40/30 24/43/30 33/19/30
f 10/31/31 22/41/31 32/16/31
f 18/65/32 45/66/32 31/67/32
f 31/67/33 52/68/33 18/65/33
f 8/69/34 52/68/34 20/37/34
f 22/70/35 44/71/35 30/72/35
f 30/72/36 53/73/36 22/70/36
f 12/74/37 53/73/37 24/36/37
f 14/75/38 43/15/38 29/76/38
f 29/76/39 54/77/39 14/75/39
f 4/78/40 54/77/40 16/33/40
f 8/29/41 20/32/41 28/10/41
f 6/27/42 18/30/42 27/7/42
f 4/25/43 16/28/43 26/4/43
f 2/79/44 14/26/44 25/1/44
f 34/62/45 55/80/45 40/45/45
f 34/62/46 56/81/46 55/80/46
f 35/58/47 47/57/47 57/82/47
f 33/19/48 11/17/48 12/40/48
f 32/16/49 9/11/49 10/31/49
f 29/76/50 58/83/50 37/34/50
f 29/76/51 59/84/51 58/83/51
f 30/72/52 44/71/52 60/85/52
f 28/10/53 7/8/53 8/29/53
f 27/7/54 5/5/54 6/27/54
f 26/4/55 3/2/55 4/25/55
f 25/1/56 1/86/56 2/79/56
f 4/25/57 3/2/57 25/1/57
f 6/27/58 5/5/58 26/4/58
f 8/29/59 7/8/59 27/7/59
f 10/31/60 9/11/60 28/10/60
f 12/40/61 11/17/61 32/16/61
f 2/42/62 1/20/62 33/19/62
f 33/19/63 23/21/63 11/17/63
f 32/16/64 21/18/64 9/11/64
f 28/10/65 19/12/65 7/8/65
f 27/7/66 17/9/66 5/5/66
f 26/4/67 15/6/67 3/2/67
f 25/1/68 13/3/68 1/86/68
f 60/85/69 39/38/69 31/67/69
f 60/85/70 44/71/70 39/38/70
f 44/71/71 10/39/71 39/38/71
f 58/83/72 60/85/72 31/67/72
f 58/83/73 59/84/73 60/85/73
f 59/84/74 30/72/74 60/85/74
f 37/34/75 45/66/75 6/35/75
f 37/34/76 58/83/76 45/66/76
f 58/83/77 31/67/77 45/66/77
f 57/82/78 42/49/78 36/53/78
f 57/82/79 47/57/79 42/49/79
f 47/57/80 7/50/80 42/49/80
f 55/80/81 57/82/81 36/53/81
f 55/80/82 56/81/82 57/82/82
f 56/81/83 35/58/83 57/82/83
f 40/45/84 48/52/84 11/46/84
f 40/45/85 55/80/85 48/52/85
f 55/80/86 36/53/86 48/52/86
f 46/24/87 56/81/87 34/62/87
f 46/24/88 41/23/88 56/81/88
f 41/23/89 35/58/89 56/81/89
f 43/15/90 59/84/90 29/76/90
f 43/15/91 38/14/91 59/84/91
f 38/14/92 30/72/92 59/84/92
f 16/33/93 29/76/93 37/34/93
f 24/36/94 30/72/94 38/14/94
f 20/37/95 31/67/95 39/38/95
f 23/44/96 34/62/96 40/45/96
f 15/47/97 35/58/97 41/23/97
f 19/48/98 36/53/98 42/49/98
f 21/51/99 11/46/99 48/52/99
f 36/53/100 19/48/100 49/54/100
f 9/55/101 21/51/101 49/54/101
f 17/56/102 7/50/102 47/57/102
f 35/58/103 15/47/103 50/59/103
f 5/60/104 17/56/104 50/59/104
f 13/61/105 3/22/105 46/24/105
f 34/62/106 23/44/106 51/63/106
f 1/64/107 13/61/107 51/63/107
f 18/65/108 6/35/108 45/66/108
f 31/67/109 20/37/109 52/68/109
f 8/69/110 18/65/110 52/68/110
f 22/70/111 10/39/111 44/71/111
f 30/72/112 24/36/112 53/73/112
f 12/74/113 22/70/113 53/73/113
f 14/75/114 2/13/114 43/15/114
f 29/76/115 16/33/115 54/77/115
f 4/78/116 14/75/116 54/77/116
