# Blender 4.3.0
# www.blender.org
o Cylinder
v 0.000000 -2.661004 -25.209150
v 0.000000 2.873160 -25.484741
v 21.539188 -2.400934 -12.435656
v 21.378624 2.258211 -12.342955
v 21.797850 -2.630859 12.584995
v 22.097155 2.896912 12.757798
v 0.000000 -2.648166 25.192471
v 0.000000 2.900118 25.519766
v -21.397863 -2.275312 12.354062
v -21.568041 2.426581 12.452313
v -21.502092 -2.367959 -12.414239
v -22.115629 2.913331 -12.768464
v 11.011527 -2.872415 -19.072525
v 10.825114 2.499594 -18.749649
v 21.767555 -2.616920 0.000000
v 21.533224 2.382590 0.000000
v 11.154480 -3.158319 19.320127
v 10.525782 1.900935 18.231190
v -10.851728 -2.552822 18.795746
v -10.682182 2.213732 18.502083
v -21.983208 -2.832570 0.000000
v -21.059603 1.908974 0.000000
v -10.844661 -2.538687 -18.783504
v -11.119094 3.087548 -19.258837
v 10.748701 0.000000 -18.617296
v 21.006348 0.000000 0.000000
v 10.924368 0.000000 18.921560
v -10.723687 0.000000 18.573971
v 10.825317 1.614022 -6.250000
v -10.825317 1.761228 -6.250000
v 0.000000 2.907115 12.500000
v -22.203495 0.000000 0.000000
v -10.574619 0.000000 -18.315779
v 0.000000 -2.611785 -12.500000
v 10.825317 -1.799559 6.250000
v -10.825317 -1.982771 6.250000
v 16.237976 2.570865 3.125000
v -5.412659 1.528006 -15.625000
v -10.825317 3.151823 12.500000
v -10.825317 -2.213316 -12.500000
v 16.237976 -2.451395 -3.125000
v -5.412659 -2.876107 15.625000
v 5.412659 2.942556 -15.625000
v -16.237976 3.493999 3.125000
v 10.825317 2.930559 12.500000
v 10.825317 -2.450747 -12.500000
v 5.412659 -3.269909 15.625000
v -16.237976 -2.250147 -3.125000
v -16.237976 -2.085700 9.375000
v 16.237976 -1.849204 9.375000
v 0.000000 -2.315613 -18.750000
v 0.000000 2.850709 18.750000
v -16.237976 3.172121 -9.375000
v 16.237976 2.196399 -9.375000
v -5.412659 -2.258219 -3.125000
v 5.412659 -3.411160 -3.125000
v 0.000000 -2.742139 6.250000
v 5.412659 3.307900 3.125000
v 0.000000 2.422246 -6.250000
v -5.412659 2.183090 3.125000
vn 0.5188 0.1799 -0.8357
vn 0.9602 0.2793 -0.0020
vn 0.4661 0.1441 0.8729
vn -0.5167 0.0998 0.8503
vn -0.1293 0.9895 0.0640
vn -0.9961 -0.0775 -0.0415
vn -0.4969 0.2081 -0.8425
vn 0.0047 -1.0000 -0.0028
vn 0.5169 -0.0610 -0.8538
vn 0.9758 -0.2158 -0.0344
vn 0.5499 0.3846 0.7414
vn -0.4849 0.0375 0.8738
vn 0.0115 0.9991 -0.0408
vn 0.1339 0.9694 0.2058
vn -0.0672 0.9855 0.1556
vn -0.8525 0.5108 0.1107
vn -0.4656 -0.3326 -0.8201
vn 0.0149 -0.9986 0.0517
vn -0.0203 -0.9996 -0.0170
vn -0.0342 -0.9985 0.0431
vn 0.0886 -0.9958 -0.0227
vn 0.0479 -0.9976 0.0501
vn 0.0061 -0.9986 -0.0530
vn 0.0869 -0.9906 -0.1052
vn 0.0512 -0.9932 -0.1045
vn -0.1388 -0.9903 -0.0008
vn 0.0148 -0.9978 0.0644
vn -0.0518 -0.9975 -0.0473
vn 0.0204 -0.9984 0.0534
vn -0.4754 -0.3326 -0.8145
vn -0.8564 0.5132 -0.0563
vn -0.0021 0.9843 0.1767
vn 0.0903 0.9959 0.0090
vn -0.0594 0.9982 -0.0073
vn -0.1451 0.9546 -0.2602
vn 0.1368 0.9700 0.2010
vn -0.0301 0.9993 -0.0241
vn 0.1215 0.9901 0.0701
vn -0.0664 0.9953 0.0705
vn -0.0177 0.9998 -0.0099
vn -0.5504 0.0374 0.8341
vn 0.3674 0.3846 0.8468
vn 0.9764 -0.2159 -0.0101
vn 0.5258 -0.0610 -0.8484
vn -0.0368 -0.9992 0.0164
vn -0.1059 -0.9941 -0.0236
vn 0.0863 -0.9907 -0.1056
vn -0.4533 -0.1120 -0.8843
vn -0.9976 -0.0373 0.0582
vn 0.0673 0.9879 -0.1397
vn 0.0738 0.9880 -0.1359
vn 0.1194 0.9863 -0.1133
vn -0.5334 -0.0498 0.8444
vn 0.4930 -0.0538 0.8684
vn 0.9988 0.0337 0.0363
vn 0.5299 -0.0422 -0.8470
vn 0.5026 0.0345 -0.8639
vn 0.9960 -0.0516 -0.0734
vn 0.5064 -0.0508 0.8608
vn -0.4974 -0.0361 0.8668
vn -0.9925 -0.1176 -0.0337
vn -0.5529 -0.0414 -0.8322
vn -0.4993 0.2081 -0.8411
vn -0.9957 -0.0774 0.0507
vn -0.5046 0.0998 0.8576
vn 0.5240 0.1441 0.8394
vn 0.9601 0.2793 -0.0128
vn 0.4815 0.1800 -0.8578
vn 0.0225 0.9957 -0.0899
vn 0.1202 0.9922 -0.0332
vn -0.0675 0.9949 0.0753
vn -0.1033 0.9945 -0.0171
vn -0.1033 0.9941 -0.0343
vn -0.0609 0.9981 -0.0097
vn 0.0038 0.9993 -0.0361
vn 0.0679 0.9977 0.0009
vn -0.0022 0.9991 0.0415
vn -0.0699 -0.9961 -0.0546
vn -0.0363 -0.9987 -0.0352
vn -0.0363 -0.9984 0.0443
vn -0.0700 -0.9975 -0.0111
vn -0.1059 -0.9943 0.0098
vn 0.0861 -0.9890 0.1203
vn 0.0145 -0.9999 0.0045
vn -0.0007 -1.0000 -0.0044
vn -0.0007 -0.9996 0.0289
vn 0.0148 -0.9955 -0.0934
vn 0.0882 -0.9948 -0.0510
vn 0.0877 -0.9890 0.1194
vn 0.0741 0.9924 0.0979
vn -0.1295 0.9914 -0.0198
vn -0.0608 0.9963 -0.0599
vn -0.0183 0.9957 -0.0910
vn 0.2059 0.9740 0.0947
vn 0.0223 0.9878 0.1539
vn -0.0367 -0.9980 0.0518
vn -0.0521 -0.9979 0.0393
vn -0.0856 -0.9953 -0.0454
vn 0.0824 -0.9960 -0.0341
vn -0.0072 -0.9989 -0.0454
vn 0.0610 -0.9973 0.0421
vn -0.0164 -0.9983 0.0556
vn -0.0420 -0.9975 0.0569
vn -0.0492 -0.9867 -0.1550
vn 0.0043 -0.9979 0.0641
vn 0.0207 -0.9987 -0.0473
vn -0.0489 -0.9974 0.0533
vn -0.0011 0.9843 0.1768
vn -0.0597 0.9982 0.0090
vn 0.0895 0.9960 -0.0073
vn -0.2817 0.9581 -0.0513
vn 0.1994 0.9753 0.0949
vn -0.0932 0.9920 0.0857
vn 0.0589 0.9975 -0.0394
vn -0.0894 0.9955 0.0307
vn 0.0050 0.9996 0.0294
vt 0.916667 0.750000
vt 0.833333 0.500000
vt 0.916667 0.500000
vt 0.750000 0.750000
vt 0.666667 0.500000
vt 0.750000 0.500000
vt 0.583333 0.750000
vt 0.500000 0.500000
vt 0.583333 0.500000
vt 0.416667 0.750000
vt 0.333333 0.500000
vt 0.416667 0.500000
vt 0.250000 0.490000
vt 0.198038 0.400000
vt 0.301962 0.400000
vt 0.250000 0.750000
vt 0.166667 0.500000
vt 0.250000 0.500000
vt 0.083333 0.750000
vt -0.000000 0.500000
vt 0.083333 0.500000
vt 0.957846 0.370000
vt 0.905885 0.280000
vt 0.853923 0.370000
vt 0.833333 1.000000
vt 0.916667 1.000000
vt 0.666667 1.000000
vt 0.750000 1.000000
vt 0.500000 1.000000
vt 0.583333 1.000000
vt 0.333333 1.000000
vt 0.416667 1.000000
vt 0.457846 0.250000
vt 0.405885 0.220000
vt 0.457846 0.130000
vt 0.146077 0.430000
vt 0.146077 0.070000
vt 0.146077 0.130000
vt 0.042154 0.130000
vt 0.166667 1.000000
vt 0.250000 1.000000
vt -0.000000 1.000000
vt 0.083333 1.000000
vt 0.646077 0.430000
vt 0.646077 0.370000
vt 0.542154 0.370000
vt 0.957846 0.250000
vt 0.646077 0.070000
vt 0.698038 0.100000
vt 0.750000 0.010000
vt 0.542154 0.250000
vt 0.594115 0.280000
vt 0.646077 0.190000
vt 0.594115 0.160000
vt 0.542154 0.130000
vt 0.853923 0.070000
vt 0.801962 0.100000
vt 0.853923 0.190000
vt 0.905885 0.160000
vt 0.957846 0.130000
vt 0.853923 0.430000
vt 0.750000 0.370000
vt 0.750000 0.430000
vt 0.750000 0.490000
vt 0.353923 0.070000
vt 0.353923 0.130000
vt 0.250000 0.130000
vt 0.250000 0.070000
vt 0.250000 0.010000
vt 0.042154 0.250000
vt 0.094115 0.220000
vt 0.146077 0.310000
vt 0.094115 0.340000
vt 0.042154 0.370000
vt 0.353923 0.430000
vt 0.353923 0.310000
vt 0.405885 0.340000
vt 0.457846 0.370000
vt 1.000000 1.000000
vt 0.698038 0.280000
vt 0.801962 0.280000
vt 0.750000 0.190000
vt 0.301962 0.220000
vt 0.250000 0.310000
vt 0.198038 0.220000
vt 1.000000 0.500000
s 0
f 25/1/1 3/2/1 13/3/1
f 26/4/2 5/5/2 15/6/2
f 27/7/3 7/8/3 17/9/3
f 28/10/4 9/11/4 19/12/4
f 2/13/5 38/14/5 43/15/5
f 32/16/6 11/17/6 21/18/6
f 33/19/7 1/20/7 23/21/7
f 3/22/8 41/23/8 46/24/8
f 4/25/9 25/1/9 14/26/9
f 6/27/10 26/4/10 16/28/10
f 8/29/11 27/7/11 18/30/11
f 10/31/12 28/10/12 20/32/12
f 16/33/13 37/34/13 6/35/13
f 24/36/14 38/14/14 2/13/14
f 20/37/15 39/38/15 10/39/15
f 12/40/16 32/16/16 22/41/16
f 2/42/17 33/19/17 24/43/17
f 23/44/18 40/45/18 11/46/18
f 15/47/19 41/23/19 3/22/19
f 19/48/20 42/49/20 7/50/20
f 21/51/21 48/52/21 36/53/21
f 36/53/22 49/54/22 21/51/22
f 9/55/23 49/54/23 19/48/23
f 17/56/24 47/57/24 35/58/24
f 35/58/25 50/59/25 17/56/25
f 5/60/26 50/59/26 15/47/26
f 13/61/27 46/24/27 34/62/27
f 34/62/28 51/63/28 13/61/28
f 1/64/29 51/63/29 23/44/29
f 12/40/30 24/43/30 33/19/30
f 10/31/31 22/41/31 32/16/31
f 18/65/32 45/66/32 31/67/32
f 31/67/33 52/68/33 18/65/33
f 8/69/34 52/68/34 20/37/34
f 22/70/35 44/71/35 30/72/35
f 30/72/36 53/73/36 22/70/36
f 12/74/37 53/73/37 24/36/37
f 14/75/38 43/15/38 29/76/38
f 29/76/39 54/77/39 14/75/39
f 4/78/40 54/77/40 16/33/40
f 8/29/41 20/32/41 28/10/41
f 6/27/42 18/30/42 27/7/42
f 4/25/43 16/28/43 26/4/43
f 2/79/44 14/26/44 25/1/44
f 34/62/45 55/80/45 40/45/45
f 34/62/46 56/81/46 55/80/46
f 35/58/47 47/57/47 57/82/47
f 33/19/48 11/17/48 12/40/48
f 32/16/49 9/11/49 10/31/49
f 29/76/50 58/83/50 37/34/50
f 29/76/51 59/84/51 58/83/51
f 30/72/52 44/71/52 60/85/52
f 28/10/53 7/8/53 8/29/53
f 27/7/54 5/5/54 6/27/54
f 26/4/55 3/2/55 4/25/55
f 25/1/56 1/86/56 2/79/56
f 4/25/57 3/2/57 25/1/57
f 6/27/58 5/5/58 26/4/58
f 8/29/59 7/8/59 27/7/59
f 10/31/60 9/11/60 28/10/60
f 12/40/61 11/17/61 32/16/61
f 2/42/62 1/20/62 33/19/62
f 33/19/63 23/21/63 11/17/63
f 32/16/64 21/18/64 9/11/64
f 28/10/65 19/12/65 7/8/65
f 27/7/66 17/9/66 5/5/66
f 26/4/67 15/6/67 3/2/67
f 25/1/68 13/3/68 1/86/68
f 60/85/69 39/38/69 31/67/69
f 60/85/70 44/71/70 39/38/70
f 44/71/71 10/39/71 39/38/71
f 58/83/72 60/85/72 31/67/72
f 58/83/73 59/84/73 60/85/73
f 59/84/74 30/72/74 60/85/74
f 37/34/75 45/66/75 6/35/75
f 37/34/76 58/83/76 45/66/76
f 58/83/77 31/67/77 45/66/77
f 57/82/78 42/49/78 36/53/78
f 57/82/79 47/57/79 42/49/79
f 47/57/80 7/50/80 42/49/80
f 55/80/81 57/82/81 36/53/81
f 55/80/82 56/81/82 57/82/82
f 56/81/83 35/58/83 57/82/83
f 40/45/84 48/52/84 11/46/84
f 40/45/85 55/80/85 48/52/85
f 55/80/86 36/53/86 48/52/86
f 46/24/87 56/81/87 34/62/87
f 46/24/88 41/23/88 56/81/88
f 41/23/89 35/58/89 56/81/89
f 43/15/90 59/84/90 29/76/90
f 43/15/91 38/14/91 59/84/91
f 38/14/92 30/72/92 59/84/92
f 16/33/93 29/76/93 37/34/93
f 24/36/94 30/72/94 38/14/94
f 20/37/95 31/67/95 39/38/95
f 23/44/96 34/62/96 40/45/96
f 15/47/97 35/58/97 41/23/97
f 19/48/98 36/53/98 42/49/98
f 21/51/99 11/46/99 48/52/99
f 36/53/100 19/48/100 49/54/100
f 9/55/101 21/51/101 49/54/101
f 17/56/102 7/50/102 47/57/102
f 35/58/103 15/47/103 50/59/103
f 5/60/104 17/56/104 50/59/104
f 13/61/105 3/22/105 46/24/105
f 34/62/106 23/44/106 51/63/106
f 1/64/107 13/61/107 51/63/107
f 18/65/108 6/35/108 45/66/108
f 31/67/109 20/37/109 52/68/109
f 8/69/110 18/65/110 52/68/110
f 22/70/111 10/39/111 44/71/111
f 30/72/112 24/36/112 53/73/112
f 12/74/113 22/70/113 53/73/113
f 14/75/114 2/13/114 43/15/114
f 29/76/115 16/33/115 54/77/115
f 4/78/116 14/75/116 54/77/116
