# Blender 4.3.0
# www.blender.org
o Cylinder
v 0.000000 -2.030604 -24.390240
v 0.000000 1.917562 -24.243402
v 21.251202 -2.144942 -12.269386
v 21.601631 2.456440 -12.471707
v 21.466614 -2.336425 12.393755
v 21.454575 2.325721 12.386805
v 0.000000 -2.889423 25.505867
v 0.000000 2.531055 25.040342
v -22.294882 -3.072667 12.871956
v -22.134171 2.929816 12.779169
v -21.401426 -2.278478 -12.356120
v -20.987659 1.910686 -12.117231
v 11.133939 -3.117235 -19.284548
v 10.788601 2.426569 -18.686405
v 21.565174 -2.414540 0.000000
v 21.014116 1.863488 0.000000
v 10.950542 -2.750448 18.966896
v 10.660599 2.170567 18.464699
v -10.853729 -2.556823 18.799212
v -10.556648 1.962668 18.284653
v -22.109295 -2.958654 0.000000
v -21.541220 2.390586 0.000000
v -10.655716 -2.160800 -18.456242
v -10.536844 1.923060 -18.250351
v 11.201447 0.000000 -19.401478
v 20.915979 0.000000 0.000000
v 10.616539 0.000000 18.388386
v -11.286264 0.000000 19.548384
v 10.825317 1.878876 -6.250000
v -10.825317 2.582138 -6.250000
v 0.000000 2.629247 12.500000
v -22.637894 0.000000 0.000000
v -10.974176 0.000000 -19.007832
v 0.000000 -3.178498 -12.500000
v 10.825317 -3.171528 6.250000
v -10.825317 -2.766860 6.250000
v 16.237976 1.748174 3.125000
v -5.412659 2.327067 -15.625000
v -10.825317 3.125916 12.500000
v -10.825317 -2.527294 -12.500000
v 16.237976 -1.598674 -3.125000
v -5.412659 -3.107800 15.625000
v 5.412659 2.041631 -15.625000
v -16.237976 2.019659 3.125000
v 10.825317 3.309178 12.500000
v 10.825317 -2.756567 -12.500000
v 5.412659 -1.641843 15.625000
v -16.237976 -2.980821 -3.125000
v -16.237976 -1.871072 9.375000
v 16.237976 -1.929396 9.375000
v 0.000000 -1.980091 -18.750000
v 0.000000 2.682934 18.750000
v -16.237976 2.505859 -9.375000
v 16.237976 2.241696 -9.375000
v -5.412659 -2.607224 -3.125000
v 5.412659 -3.302226 -3.125000
v 0.000000 -2.475667 6.250000
v 5.412659 1.943288 3.125000
v 0.000000 2.011538 -6.250000
v -5.412659 2.439164 3.125000
vn 0.5721 -0.0431 -0.8191
vn 0.9657 0.2596 0.0060
vn 0.4960 0.2360 0.8356
vn -0.4244 -0.3200 0.8470
vn 0.0263 0.9992 -0.0309
vn -0.9823 -0.1755 -0.0659
vn -0.4640 -0.2827 -0.8395
vn 0.0563 -0.9943 0.0903
vn 0.4711 0.3221 -0.8212
vn 0.9981 -0.0526 -0.0335
vn 0.5236 -0.0405 0.8510
vn -0.3048 0.5931 0.7452
vn -0.0474 0.9982 -0.0356
vn -0.0411 0.9965 -0.0732
vn -0.0121 0.9802 0.1977
vn -0.9074 0.4163 -0.0579
vn -0.4499 0.4140 -0.7913
vn -0.0243 -0.9978 -0.0621
vn -0.1410 -0.9899 -0.0181
vn -0.0667 -0.9961 0.0586
vn 0.0064 -0.9998 0.0191
vn -0.0713 -0.9847 0.1589
vn 0.1157 -0.9837 -0.1377
vn -0.2161 -0.9758 0.0344
vn 0.2069 -0.9779 0.0303
vn -0.0808 -0.9967 0.0056
vn 0.0389 -0.9977 0.0548
vn -0.1087 -0.9763 -0.1872
vn 0.0172 -0.9998 0.0090
vn -0.4611 0.4140 -0.7849
vn -0.9073 0.4162 -0.0597
vn -0.0616 0.9807 0.1855
vn 0.0478 0.9988 -0.0086
vn -0.0691 0.9973 0.0241
vn 0.0257 0.9969 0.0747
vn -0.0160 0.9999 0.0033
vn -0.0633 0.9924 -0.1058
vn -0.0464 0.9980 0.0441
vn -0.0415 0.9982 0.0441
vn -0.0129 0.9988 0.0469
vn -0.4555 0.5954 0.6618
vn 0.4907 -0.0406 0.8704
vn 0.9976 -0.0525 0.0445
vn 0.4215 0.3216 -0.8479
vn -0.0600 -0.9979 0.0261
vn -0.0641 -0.9977 0.0238
vn -0.0636 -0.9901 0.1248
vn -0.5507 0.1016 -0.8285
vn -0.9991 0.0273 0.0331
vn 0.0180 0.9998 0.0035
vn 0.0123 0.9999 0.0002
vn -0.0387 0.9985 0.0376
vn -0.4501 0.0764 0.8897
vn 0.4840 0.0026 0.8751
vn 0.9964 -0.0741 0.0402
vn 0.4015 0.0340 -0.9152
vn 0.5656 -0.0792 -0.8208
vn 0.9990 0.0025 -0.0439
vn 0.5418 0.0719 0.8374
vn -0.5239 0.0272 0.8513
vn -0.9875 0.1043 -0.1180
vn -0.4351 0.0335 -0.8998
vn -0.4712 -0.2827 -0.8355
vn -0.9843 -0.1759 -0.0157
vn -0.5051 -0.3203 0.8015
vn 0.5084 0.2359 0.8282
vn 0.9655 0.2596 -0.0190
vn 0.4130 -0.0431 -0.9097
vn 0.0458 0.9979 -0.0467
vn -0.0385 0.9947 -0.0951
vn -0.0199 0.9942 -0.1059
vn 0.0457 0.9979 -0.0466
vn 0.0458 0.9988 -0.0191
vn 0.0526 0.9985 -0.0152
vn 0.0904 0.9895 -0.1126
vn 0.0178 0.9879 -0.1542
vn -0.0623 0.9921 -0.1086
vn 0.0269 -0.9983 -0.0518
vn 0.1342 -0.9909 0.0107
vn 0.1340 -0.9896 -0.0515
vn 0.0269 -0.9996 -0.0015
vn -0.0640 -0.9967 0.0509
vn -0.0641 -0.9966 0.0509
vn -0.0243 -0.9978 -0.0623
vn 0.0345 -0.9990 -0.0284
vn 0.0345 -0.9994 0.0029
vn 0.0389 -0.9986 -0.0357
vn 0.1554 -0.9873 0.0322
vn 0.1550 -0.9850 -0.0758
vn 0.0123 0.9999 0.0103
vn 0.0264 0.9995 0.0184
vn 0.0526 0.9986 0.0032
vn -0.0109 0.9997 0.0202
vn -0.0499 0.9972 -0.0560
vn 0.0450 0.9798 0.1949
vn -0.0599 -0.9962 -0.0630
vn -0.0401 -0.9814 -0.1878
vn -0.0912 -0.9957 0.0165
vn -0.0340 -0.9978 -0.0569
vn -0.1542 -0.9879 0.0162
vn 0.1913 -0.9815 -0.0059
vn -0.0914 -0.9805 -0.1739
vn 0.1473 -0.9799 0.1344
vn -0.0215 -0.9951 -0.0970
vn 0.0572 -0.9968 0.0556
vn 0.0115 -0.9820 -0.1883
vn -0.1012 -0.9948 0.0089
vn 0.0925 0.9776 0.1892
vn -0.0677 0.9977 -0.0086
vn 0.0486 0.9985 0.0241
vn 0.0918 0.9951 -0.0377
vn 0.0173 0.9984 -0.0544
vn -0.0992 0.9941 -0.0439
vn -0.0587 0.9980 0.0225
vn -0.0337 0.9978 0.0574
vn -0.0213 0.9992 0.0323
vt 0.916667 0.750000
vt 0.833333 0.500000
vt 0.916667 0.500000
vt 0.750000 0.750000
vt 0.666667 0.500000
vt 0.750000 0.500000
vt 0.583333 0.750000
vt 0.500000 0.500000
vt 0.583333 0.500000
vt 0.416667 0.750000
vt 0.333333 0.500000
vt 0.416667 0.500000
vt 0.250000 0.490000
vt 0.198038 0.400000
vt 0.301962 0.400000
vt 0.250000 0.750000
vt 0.166667 0.500000
vt 0.250000 0.500000
vt 0.083333 0.750000
vt -0.000000 0.500000
vt 0.083333 0.500000
vt 0.957846 0.370000
vt 0.905885 0.280000
vt 0.853923 0.370000
vt 0.833333 1.000000
vt 0.916667 1.000000
vt 0.666667 1.000000
vt 0.750000 1.000000
vt 0.500000 1.000000
vt 0.583333 1.000000
vt 0.333333 1.000000
vt 0.416667 1.000000
vt 0.457846 0.250000
vt 0.405885 0.220000
vt 0.457846 0.130000
vt 0.146077 0.430000
vt 0.146077 0.070000
vt 0.146077 0.130000
vt 0.042154 0.130000
vt 0.166667 1.000000
vt 0.250000 1.000000
vt -0.000000 1.000000
vt 0.083333 1.000000
vt 0.646077 0.430000
vt 0.646077 0.370000
vt 0.542154 0.370000
vt 0.957846 0.250000
vt 0.646077 0.070000
vt 0.698038 0.100000
vt 0.750000 0.010000
vt 0.542154 0.250000
vt 0.594115 0.280000
vt 0.646077 0.190000
vt 0.594115 0.160000
vt 0.542154 0.130000
vt 0.853923 0.070000
vt 0.801962 0.100000
vt 0.853923 0.190000
vt 0.905885 0.160000
vt 0.957846 0.130000
vt 0.853923 0.430000
vt 0.750000 0.370000
vt 0.750000 0.430000
vt 0.750000 0.490000
vt 0.353923 0.070000
vt 0.353923 0.130000
vt 0.250000 0.130000
vt 0.250000 0.070000
vt 0.250000 0.010000
vt 0.042154 0.250000
vt 0.094115 0.220000
vt 0.146077 0.310000
vt 0.094115 0.340000
vt 0.042154 0.370000
vt 0.353923 0.430000
vt 0.353923 0.310000
vt 0.405885 0.340000
vt 0.457846 0.370000
vt 1.000000 1.000000
vt 0.698038 0.280000
vt 0.801962 0.280000
vt 0.750000 0.190000
vt 0.301962 0.220000
vt 0.250000 0.310000
vt 0.198038 0.220000
vt 1.000000 0.500000
s 0
f 25/1/1 3/2/1 13/3/1
f 26/4/2 5/5/2 15/6/2
f 27/7/3 7/8/3 17/9/3
f 28/10/4 9/11/4 19/12/4
f 2/13/5 38/14/5 43/15/5
f 32/16/6 11/17/6 21/18/6
f 33/19/7 1/20/7 23/21/7
f 3/22/8 41/23/8 46/24/8
f 4/25/9 25/1/9 14/26/9
f 6/27/10 26/4/10 16/28/10
f 8/29/11 27/7/11 18/30/11
f 10/31/12 28/10/12 20/32/12
f 16/33/13 37/34/13 6/35/13
f 24/36/14 38/14/14 2/13/14
f 20/37/15 39/38/15 10/39/15
f 12/40/16 32/16/16 22/41/16
f 2/42/17 33/19/17 24/43/17
f 23/44/18 40/45/18 11/46/18
f 15/47/19 41/23/19 3/22/19
f 19/48/20 42/49/20 7/50/20
f 21/51/21 48/52/21 36/53/21
f 36/53/22 49/54/22 21/51/22
f 9/55/23 49/54/23 19/48/23
f 17/56/24 47/57/24 35/58/24
f 35/58/25 50/59/25 17/56/25
f 5/60/26 50/59/26 15/47/26
f 13/61/27 46/24/27 34/62/27
f 34/62/28 51/63/28 13/61/28
f 1/64/29 51/63/29 23/44/29
f 12/40/30 24/43/30 33/19/30
f 10/31/31 22/41/31 32/16/31
f 18/65/32 45/66/32 31/67/32
f 31/67/33 52/68/33 18/65/33
f 8/69/34 52/68/34 20/37/34
f 22/70/35 44/71/35 30/72/35
f 30/72/36 53/73/36 22/70/36
f 12/74/37 53/73/37 24/36/37
f 14/75/38 43/15/38 29/76/38
f 29/76/39 54/77/39 14/75/39
f 4/78/40 54/77/40 16/33/40
f 8/29/41 20/32/41 28/10/41
f 6/27/42 18/30/42 27/7/42
f 4/25/43 16/28/43 26/4/43
f 2/79/44 14/26/44 25/1/44
f 34/62/45 55/80/45 40/45/45
f 34/62/46 56/81/46 55/80/46
f 35/58/47 47/57/47 57/82/47
f 33/19/48 11/17/48 12/40/48
f 32/16/49 9/11/49 10/31/49
f 29/76/50 58/83/50 37/34/50
f 29/76/51 59/84/51 58/83/51
f 30/72/52 44/71/52 60/85/52
f 28/10/53 7/8/53 8/29/53
f 27/7/54 5/5/54 6/27/54
f 26/4/55 3/2/55 4/25/55
f 25/1/56 1/86/56 2/79/56
f 4/25/57 3/2/57 25/1/57
f 6/27/58 5/5/58 26/4/58
f 8/29/59 7/8/59 27/7/59
f 10/31/60 9/11/60 28/10/60
f 12/40/61 11/17/61 32/16/61
f 2/42/62 1/20/62 33/19/62
f 33/19/63 23/21/63 11/17/63
f 32/16/64 21/18/64 9/11/64
f 28/10/65 19/12/65 7/8/65
f 27/7/66 17/9/66 5/5/66
f 26/4/67 15/6/67 3/2/67
f 25/1/68 13/3/68 1/86/68
f 60/85/69 39/38/69 31/67/69
f 60/85/70 44/71/70 39/38/70
f 44/71/71 10/39/71 39/38/71
f 58/83/72 60/85/72 31/67/72
f 58/83/73 59/84/73 60/85/73
f 59/84/74 30/72/74 60/85/74
f 37/34/75 45/66/75 6/35/75
f 37/34/76 58/83/76 45/66/76
f 58/83/77 31/67/77 45/66/77
f 57/82/78 42/49/78 36/53/78
f 57/82/79 47/57/79 42/49/79
f 47/57/80 7/50/80 42/49/80
f 55/80/81 57/82/81 36/53/81
f 55/80/82 56/81/82 57/82/82
f 56/81/83 35/58/83 57/82/83
f 40/45/84 48/52/84 11/46/84
f 40/45/85 55/80/85 48/52/85
f 55/80/86 36/53/86 48/52/86
f 46/24/87 56/81/87 34/62/87
f 46/24/88 41/23/88 56/81/88
f 41/23/89 35/58/89 56/81/89
f 43/15/90 59/84/90 29/76/90
f 43/15/91 38/14/91 59/84/91
f 38/14/92 30/72/92 59/84/92
f 16/33/93 29/76/93 37/34/93
f 24/36/94 30/72/94 38/14/94
f 20/37/95 31/67/95 39/38/95
f 23/44/96 34/62/96 40/45/96
f 15/47/97 35/58/97 41/23/97
f 19/48/98 36/53/98 42/49/98
f 21/51/99 11/46/99 48/52/99
f 36/53/100 19/48/100 49/54/100
f 9/55/101 21/51/101 49/54/101
f 17/56/102 7/50/102 47/57/102
f 35/58/103 15/47/103 50/59/103
f 5/60/104 17/56/104 50/59/104
f 13/61/105 3/22/105 46/24/105
f 34/62/106 23/44/106 51/63/106
f 1/64/107 13/61/107 51/63/107
f 18/65/108 6/35/108 45/66/108
f 31/67/109 20/37/109 52/68/109
f 8/69/110 18/65/110 52/68/110
f 22/70/111 10/39/111 44/71/111
f 30/72/112 24/36/112 53/73/112
f 12/74/113 22/70/113 53/73/113
f 14/75/114 2/13/114 43/15/114
f 29/76/115 16/33/115 54/77/115
f 4/78/116 14/75/116 54/77/116
