# Blender 4.3.0
# www.blender.org
o Cylinder
v 0.000000 -2.871568 -25.482677
v 0.000000 3.002604 -25.652893
v 21.912447 -2.732725 -12.651157
v 21.585056 2.441708 -12.462139
v 21.669325 -2.516613 12.510791
v 21.484318 2.352160 12.403976
v 0.000000 -2.186949 24.593340
v 0.000000 3.107873 25.789644
v -22.251350 -3.033972 12.846823
v -22.292736 3.070765 12.870717
v -21.200140 -2.099554 -12.239907
v -21.387156 2.265795 -12.347880
v 10.561102 -1.971574 -18.292366
v 10.783001 2.415368 -18.676706
v 21.015491 -1.864864 0.000000
v 22.293047 3.142405 0.000000
v 10.837899 -2.525163 18.771791
v 10.827656 2.504677 18.754049
v -10.804638 -2.458642 18.714182
v -10.772474 2.394315 18.658472
v -21.977505 -2.826867 0.000000
v -22.185873 3.035232 0.000000
v -10.989034 -2.827428 -19.033564
v -10.620589 2.090548 -18.395401
v 10.689705 0.000000 -18.515112
v 22.289585 0.000000 0.000000
v 11.018239 0.000000 19.084150
v -10.337787 0.000000 17.905573
v 10.825317 3.043164 -6.250000
v -10.825317 2.747078 -6.250000
v 0.000000 3.039808 12.500000
v -21.668886 0.000000 0.000000
v -10.852068 0.000000 -18.796333
v 0.000000 -2.388805 -12.500000
v 10.825317 -1.800957 6.250000
v -10.825317 -2.377966 6.250000
v 16.237976 2.853103 3.125000
v -5.412659 2.169657 -15.625000
v -10.825317 1.749983 12.500000
v -10.825317 -3.375016 -12.500000
v 16.237976 -3.487244 -3.125000
v -5.412659 -2.690611 15.625000
v 5.412659 2.987037 -15.625000
v -16.237976 3.144108 3.125000
v 10.825317 2.740950 12.500000
v 10.825317 -3.266994 -12.500000
v 5.412659 -2.776107 15.625000
v -16.237976 -3.226573 -3.125000
v -16.237976 -2.846483 9.375000
v 16.237976 -2.843760 9.375000
v 0.000000 -1.654404 -18.750000
v 0.000000 3.336334 18.750000
v -16.237976 2.808381 -9.375000
v 16.237976 3.357830 -9.375000
v -5.412659 -2.512860 -3.125000
v 5.412659 -3.458016 -3.125000
v 0.000000 -2.017946 6.250000
v 5.412659 1.668456 3.125000
v 0.000000 3.165406 -6.250000
v -5.412659 1.943150 3.125000
vn 0.4344 -0.1290 -0.8914
vn 0.8235 -0.5626 -0.0723
vn 0.4650 -0.1413 0.8739
vn -0.4405 0.3549 0.8246
vn -0.0752 0.9963 0.0422
vn -0.9925 0.1084 -0.0566
vn -0.5035 0.0964 -0.8586
vn 0.0474 -0.9976 -0.0508
vn 0.4973 -0.0770 -0.8641
vn 0.9979 -0.0011 0.0650
vn 0.5445 0.1502 0.8252
vn -0.4379 -0.3411 0.8318
vn -0.0154 0.9979 0.0626
vn -0.0460 0.9973 0.0580
vn 0.1105 0.9884 -0.1044
vn -0.9844 -0.1677 -0.0532
vn -0.5635 0.2154 -0.7976
vn -0.1236 -0.9891 -0.0798
vn 0.2701 -0.9591 0.0849
vn -0.0080 -0.9981 0.0609
vn -0.0154 -0.9950 0.0990
vn 0.0629 -0.9972 -0.0406
vn 0.0412 -0.9990 0.0175
vn 0.0795 -0.9952 -0.0576
vn -0.1571 -0.9859 -0.0569
vn 0.0926 -0.9941 -0.0566
vn -0.0790 -0.9736 -0.2141
vn -0.0248 -0.9929 -0.1167
vn 0.0999 -0.9791 0.1770
vn -0.4755 0.2162 -0.8528
vn -0.9858 -0.1679 -0.0077
vn 0.0276 0.9989 0.0377
vn 0.0765 0.9959 -0.0473
vn -0.0873 0.9957 0.0323
vn 0.0030 0.9992 -0.0406
vn 0.0185 0.9998 -0.0124
vn -0.0434 0.9934 -0.1061
vn 0.0773 0.9957 -0.0506
vn -0.0867 0.9950 -0.0500
vn 0.1330 0.9891 -0.0632
vn -0.5031 -0.3410 0.7941
vn 0.5077 0.1504 0.8483
vn 0.9984 -0.0011 -0.0567
vn 0.5386 -0.0769 -0.8390
vn 0.0907 -0.9951 0.0392
vn -0.0868 -0.9942 -0.0633
vn 0.0200 -0.9956 -0.0920
vn -0.5284 -0.0436 -0.8479
vn -0.9989 -0.0066 -0.0468
vn -0.1084 0.9907 0.0827
vn 0.0112 0.9884 0.1514
vn 0.1102 0.9937 0.0216
vn -0.5610 -0.1824 0.8075
vn 0.5314 0.0388 0.8462
vn 0.9969 0.0647 -0.0437
vn 0.5504 -0.0242 -0.8345
vn 0.4740 0.0621 -0.8783
vn 0.9976 0.0392 0.0573
vn 0.4693 -0.1946 0.8613
vn -0.3895 -0.0062 0.9210
vn -0.9986 -0.0435 -0.0308
vn -0.5291 -0.0246 -0.8482
vn -0.5466 0.0963 -0.8319
vn -0.9939 0.1085 -0.0194
vn -0.4537 0.3550 0.8174
vn 0.4955 -0.1414 0.8570
vn 0.8218 -0.5615 0.0968
vn 0.5656 -0.1289 -0.8146
vn -0.1182 0.9918 -0.0478
vn 0.1099 0.9904 0.0838
vn 0.1166 0.9900 0.0799
vn 0.0252 0.9911 -0.1305
vn 0.0251 0.9893 0.1435
vn -0.0384 0.9935 0.1074
vn 0.0367 0.9988 0.0332
vn -0.1086 0.9928 -0.0508
vn 0.0274 0.9912 -0.1292
vn 0.0332 -0.9981 -0.0524
vn -0.0079 -0.9971 -0.0761
vn -0.0079 -0.9981 0.0608
vn 0.0332 -0.9989 0.0336
vn -0.0865 -0.9910 0.1023
vn 0.0198 -0.9864 0.1629
vn -0.1232 -0.9908 -0.0554
vn 0.0657 -0.9964 0.0537
vn 0.0657 -0.9965 0.0523
vn -0.0807 -0.9945 -0.0668
vn -0.0027 -0.9998 -0.0219
vn -0.0027 -0.9845 0.1755
vn 0.0113 0.9999 -0.0125
vn -0.0751 0.9952 -0.0623
vn -0.0385 0.9958 -0.0835
vn -0.0287 0.9989 0.0368
vn 0.0134 0.9985 -0.0537
vn -0.1177 0.9878 -0.1023
vn 0.0904 -0.9922 -0.0854
vn 0.1536 -0.9533 0.2601
vn -0.0466 -0.9989 -0.0064
vn -0.1048 -0.9923 -0.0656
vn 0.0825 -0.9966 -0.0066
vn 0.0221 -0.9996 -0.0156
vn 0.0060 -0.9976 0.0692
vn -0.1005 -0.9830 -0.1539
vn 0.0305 -0.9982 0.0514
vn 0.0440 -0.9745 -0.2199
vn 0.1084 -0.9873 -0.1160
vn -0.0372 -0.9834 0.1778
vn 0.0368 0.9986 0.0377
vn -0.0866 0.9951 -0.0472
vn 0.0765 0.9965 0.0323
vn -0.0168 0.9999 -0.0029
vn 0.0420 0.9977 -0.0532
vn -0.0666 0.9956 -0.0663
vn 0.0818 0.9957 -0.0426
vn -0.0326 0.9985 0.0440
vn 0.0831 0.9854 -0.1486
vt 0.916667 0.750000
vt 0.833333 0.500000
vt 0.916667 0.500000
vt 0.750000 0.750000
vt 0.666667 0.500000
vt 0.750000 0.500000
vt 0.583333 0.750000
vt 0.500000 0.500000
vt 0.583333 0.500000
vt 0.416667 0.750000
vt 0.333333 0.500000
vt 0.416667 0.500000
vt 0.250000 0.490000
vt 0.198038 0.400000
vt 0.301962 0.400000
vt 0.250000 0.750000
vt 0.166667 0.500000
vt 0.250000 0.500000
vt 0.083333 0.750000
vt -0.000000 0.500000
vt 0.083333 0.500000
vt 0.957846 0.370000
vt 0.905885 0.280000
vt 0.853923 0.370000
vt 0.833333 1.000000
vt 0.916667 1.000000
vt 0.666667 1.000000
vt 0.750000 1.000000
vt 0.500000 1.000000
vt 0.583333 1.000000
vt 0.333333 1.000000
vt 0.416667 1.000000
vt 0.457846 0.250000
vt 0.405885 0.220000
vt 0.457846 0.130000
vt 0.146077 0.430000
vt 0.146077 0.070000
vt 0.146077 0.130000
vt 0.042154 0.130000
vt 0.166667 1.000000
vt 0.250000 1.000000
vt -0.000000 1.000000
vt 0.083333 1.000000
vt 0.646077 0.430000
vt 0.646077 0.370000
vt 0.542154 0.370000
vt 0.957846 0.250000
vt 0.646077 0.070000
vt 0.698038 0.100000
vt 0.750000 0.010000
vt 0.542154 0.250000
vt 0.594115 0.280000
vt 0.646077 0.190000
vt 0.594115 0.160000
vt 0.542154 0.130000
vt 0.853923 0.070000
vt 0.801962 0.100000
vt 0.853923 0.190000
vt 0.905885 0.160000
vt 0.957846 0.130000
vt 0.853923 0.430000
vt 0.750000 0.370000
vt 0.750000 0.430000
vt 0.750000 0.490000
vt 0.353923 0.070000
vt 0.353923 0.130000
vt 0.250000 0.130000
vt 0.250000 0.070000
vt 0.250000 0.010000
vt 0.042154 0.250000
vt 0.094115 0.220000
vt 0.146077 0.310000
vt 0.094115 0.340000
vt 0.042154 0.370000
vt 0.353923 0.430000
vt 0.353923 0.310000
vt 0.405885 0.340000
vt 0.457846 0.370000
vt 1.000000 1.000000
vt 0.698038 0.280000
vt 0.801962 0.280000
vt 0.750000 0.190000
vt 0.301962 0.220000
vt 0.250000 0.310000
vt 0.198038 0.220000
vt 1.000000 0.500000
s 0
f 25/1/1 3/2/1 13/3/1
f 26/4/2 5/5/2 15/6/2
f 27/7/3 7/8/3 17/9/3
f 28/10/4 9/11/4 19/12/4
f 2/13/5 38/14/5 43/15/5
f 32/16/6 11/17/6 21/18/6
f 33/19/7 1/20/7 23/21/7
f 3/22/8 41/23/8 46/24/8
f 4/25/9 25/1/9 14/26/9
f 6/27/10 26/4/10 16/28/10
f 8/29/11 27/7/11 18/30/11
f 10/31/12 28/10/12 20/32/12
f 16/33/13 37/34/13 6/35/13
f 24/36/14 38/14/14 2/13/14
f 20/37/15 39/38/15 10/39/15
f 12/40/16 32/16/16 22/41/16
f 2/42/17 33/19/17 24/43/17
f 23/44/18 40/45/18 11/46/18
f 15/47/19 41/23/19 3/22/19
f 19/48/20 42/49/20 7/50/20
f 21/51/21 48/52/21 36/53/21
f 36/53/22 49/54/22 21/51/22
f 9/55/23 49/54/23 19/48/23
f 17/56/24 47/57/24 35/58/24
f 35/58/25 50/59/25 17/56/25
f 5/60/26 50/59/26 15/47/26
f 13/61/27 46/24/27 34/62/27
f 34/62/28 51/63/28 13/61/28
f 1/64/29 51/63/29 23/44/29
f 12/40/30 24/43/30 33/19/30
f 10/31/31 22/41/31 32/16/31
f 18/65/32 45/66/32 31/67/32
f 31/67/33 52/68/33 18/65/33
f 8/69/34 52/68/34 20/37/34
f 22/70/35 44/71/35 30/72/35
f 30/72/36 53/73/36 22/70/36
f 12/74/37 53/73/37 24/36/37
f 14/75/38 43/15/38 29/76/38
f 29/76/39 54/77/39 14/75/39
f 4/78/40 54/77/40 16/33/40
f 8/29/41 20/32/41 28/10/41
f 6/27/42 18/30/42 27/7/42
f 4/25/43 16/28/43 26/4/43
f 2/79/44 14/26/44 25/1/44
f 34/62/45 55/80/45 40/45/45
f 34/62/46 56/81/46 55/80/46
f 35/58/47 47/57/47 57/82/47
f 33/19/48 11/17/48 12/40/48
f 32/16/49 9/11/49 10/31/49
f 29/76/50 58/83/50 37/34/50
f 29/76/51 59/84/51 58/83/51
f 30/72/52 44/71/52 60/85/52
f 28/10/53 7/8/53 8/29/53
f 27/7/54 5/5/54 6/27/54
f 26/4/55 3/2/55 4/25/55
f 25/1/56 1/86/56 2/79/56
f 4/25/57 3/2/57 25/1/57
f 6/27/58 5/5/58 26/4/58
f 8/29/59 7/8/59 27/7/59
f 10/31/60 9/11/60 28/10/60
f 12/40/61 11/17/61 32/16/61
f 2/42/62 1/20/62 33/19/62
f 33/19/63 23/21/63 11/17/63
f 32/16/64 21/18/64 9/11/64
f 28/10/65 19/12/65 7/8/65
f 27/7/66 17/9/66 5/5/66
f 26/4/67 15/6/67 3/2/67
f 25/1/68 13/3/68 1/86/68
f 60/85/69 39/38/69 31/67/69
f 60/85/70 44/71/70 39/38/70
f 44/71/71 10/39/71 39/38/71
f 58/83/72 60/85/72 31/67/72
f 58/83/73 59/84/73 60/85/73
f 59/84/74 30/72/74 60/85/74
f 37/34/75 45/66/75 6/35/75
f 37/34/76 58/83/76 45/66/76
f 58/83/77 31/67/77 45/66/77
f 57/82/78 42/49/78 36/53/78
f 57/82/79 47/57/79 42/49/79
f 47/57/80 7/50/80 42/49/80
f 55/80/81 57/82/81 36/53/81
f 55/80/82 56/81/82 57/82/82
f 56/81/83 35/58/83 57/82/83
f 40/45/84 48/52/84 11/46/84
f 40/45/85 55/80/85 48/52/85
f 55/80/86 36/53/86 48/52/86
f 46/24/87 56/81/87 34/62/87
f 46/24/88 41/23/88 56/81/88
f 41/23/89 35/58/89 56/81/89
f 43/15/90 59/84/90 29/76/90
f 43/15/91 38/14/91 59/84/91
f 38/14/92 30/72/92 59/84/92
f 16/33/93 29/76/93 37/34/93
f 24/36/94 30/72/94 38/14/94
f 20/37/95 31/67/95 39/38/95
f 23/44/96 34/62/96 40/45/96
f 15/47/97 35/58/97 41/23/97
f 19/48/98 36/53/98 42/49/98
f 21/51/99 11/46/99 48/52/99
f 36/53/100 19/48/100 49/54/100
f 9/55/101 21/51/101 49/54/101
f 17/56/102 7/50/102 47/57/102
f 35/58/103 15/47/103 50/59/103
f 5/60/104 17/56/104 50/59/104
f 13/61/105 3/22/105 46/24/105
f 34/62/106 23/44/106 51/63/106
f 1/64/107 13/61/107 51/63/107
f 18/65/108 6/35/108 45/66/108
f 31/67/109 20/37/109 52/68/109
f 8/69/110 18/65/110 52/68/110
f 22/70/111 10/39/111 44/71/111
f 30/72/112 24/36/112 53/73/112
f 12/74/113 22/70/113 53/73/113
f 14/75/114 2/13/114 43/15/114
f 29/76/115 16/33/115 54/77/115
f 4/78/116 14/75/116 54/77/116
