# Blender 4.3.0
# www.blender.org
o Cylinder
v 0.000000 -2.969217 -25.609528
v 0.000000 3.005546 -25.656713
v 21.810652 -2.642239 -12.592385
v 22.084391 2.885563 -12.750429
v 21.338518 -2.222561 12.319799
v 21.637438 2.488270 12.492381
v 0.000000 -2.957122 25.593809
v 0.000000 2.596475 25.125324
v -21.841646 -2.669788 12.610280
v -21.206236 2.104973 12.243426
v -22.152508 -2.946117 -12.789757
v -21.442532 2.315019 -12.379852
v 10.821293 -2.491951 -18.743029
v 10.621530 2.092429 -18.397030
v 22.296753 -3.146111 0.000000
v 20.991894 1.841266 0.000000
v 11.168958 -3.187273 19.345201
v 10.715304 2.279976 18.559452
v -10.730423 -2.310213 18.585638
v -10.835103 2.519571 18.766949
v -21.395565 -2.244933 0.000000
v -21.916590 2.765953 0.000000
v -10.575388 -2.000146 -18.317110
v -10.597288 2.043947 -18.355042
v 10.524876 0.000000 -18.229620
v 20.708166 0.000000 0.000000
v 10.703580 0.000000 18.539145
v -10.349431 0.000000 17.925741
v 10.825317 1.726727 -6.250000
v -10.825317 2.217266 -6.250000
v 0.000000 3.084946 12.500000
v -21.099861 0.000000 0.000000
v -11.242499 0.000000 -19.472580
v 0.000000 -2.098527 -12.500000
v 10.825317 -1.621879 6.250000
v -10.825317 -3.219822 6.250000
v 16.237976 2.302021 3.125000
v -5.412659 1.739434 -15.625000
v -10.825317 2.608159 12.500000
v -10.825317 -2.055560 -12.500000
v 16.237976 -1.664309 -3.125000
v -5.412659 -1.848181 15.625000
v 5.412659 2.629185 -15.625000
v -16.237976 1.686323 3.125000
v 10.825317 2.435429 12.500000
v 10.825317 -2.432486 -12.500000
v 5.412659 -1.561773 15.625000
v -16.237976 -1.693743 -3.125000
v -16.237976 -1.761770 9.375000
v 16.237976 -1.638777 9.375000
v 0.000000 -2.305575 -18.750000
v 0.000000 2.995693 18.750000
v -16.237976 3.282551 -9.375000
v 16.237976 2.327918 -9.375000
v -5.412659 -3.273301 -3.125000
v 5.412659 -2.754969 -3.125000
v 0.000000 -1.647206 6.250000
v 5.412659 2.051506 3.125000
v 0.000000 3.388780 -6.250000
v -5.412659 1.992882 3.125000
vn 0.4775 0.2314 -0.8476
vn 0.8921 0.4504 0.0356
vn 0.4731 0.2803 0.8352
vn -0.4576 0.3132 0.8322
vn -0.0816 0.9933 0.0813
vn -0.9901 0.1304 0.0514
vn -0.5072 -0.5517 -0.6622
vn -0.0182 -0.9956 0.0921
vn 0.4451 -0.0918 -0.8907
vn 0.9874 -0.1522 -0.0431
vn 0.5222 -0.0103 0.8527
vn -0.4865 -0.3596 0.7963
vn 0.0606 0.9967 -0.0548
vn -0.0060 0.9925 0.1220
vn -0.0488 0.9987 0.0140
vn -0.9587 -0.2831 -0.0264
vn -0.5130 0.5308 -0.6746
vn 0.0785 -0.9969 -0.0061
vn -0.2226 -0.9744 -0.0304
vn 0.0190 -0.9925 -0.1207
vn 0.0060 -0.9864 -0.1640
vn -0.1770 -0.9731 0.1475
vn 0.0938 -0.9889 -0.1150
vn -0.2030 -0.9729 -0.1110
vn 0.0663 -0.9905 -0.1201
vn -0.1490 -0.9869 0.0624
vn -0.0308 -0.9995 0.0095
vn -0.0172 -0.9993 0.0331
vn -0.0248 -0.9950 0.0963
vn -0.3978 0.5336 -0.7463
vn -0.9583 -0.2830 0.0403
vn 0.0599 0.9978 0.0267
vn 0.0669 0.9977 0.0142
vn -0.0437 0.9971 0.0624
vn 0.1188 0.9851 0.1244
vn 0.1204 0.9846 0.1272
vn -0.0764 0.9801 -0.1832
vn 0.1172 0.9927 0.0279
vn -0.0923 0.9952 0.0315
vn -0.0504 0.9957 0.0772
vn -0.4703 -0.3597 0.8058
vn 0.4857 -0.0103 0.8741
vn 0.9858 -0.1519 0.0720
vn 0.5565 -0.0918 -0.8258
vn -0.0039 -0.9919 -0.1266
vn 0.0476 -0.9941 -0.0971
vn 0.0023 -1.0000 0.0078
vn -0.5442 0.1379 -0.8276
vn -0.9911 0.1295 -0.0309
vn -0.0231 0.9986 -0.0479
vn 0.1515 0.9870 0.0533
vn -0.0283 0.9988 0.0402
vn -0.5812 0.0684 0.8109
vn 0.4939 -0.0631 0.8672
vn 0.9942 -0.0465 0.0968
vn 0.5753 -0.0065 -0.8179
vn 0.4375 -0.0473 -0.8980
vn 0.9962 -0.0609 -0.0620
vn 0.5352 0.0710 0.8418
vn -0.4405 0.1269 0.8887
vn -0.9902 0.1296 0.0516
vn -0.4805 -0.0069 -0.8770
vn -0.3222 -0.5518 -0.7692
vn -0.9910 0.1305 -0.0307
vn -0.5060 0.3130 0.8037
vn 0.5276 0.2799 0.8021
vn 0.8925 0.4507 -0.0164
vn 0.5140 0.2313 -0.8260
vn -0.0438 0.9949 -0.0906
vn -0.0282 0.9963 -0.0817
vn -0.0465 0.9964 -0.0711
vn -0.0054 0.9936 -0.1126
vn -0.0054 0.9895 0.1442
vn -0.1072 0.9905 0.0856
vn -0.0049 0.9998 -0.0171
vn -0.0231 0.9994 -0.0276
vn 0.0597 0.9954 -0.0752
vn 0.1435 -0.9877 0.0617
vn 0.0264 -0.9996 -0.0062
vn 0.0262 -0.9919 -0.1246
vn 0.1432 -0.9857 0.0883
vn 0.0473 -0.9884 0.1441
vn 0.0023 -0.9929 0.1187
vn 0.0760 -0.9937 0.0822
vn -0.1442 -0.9885 -0.0451
vn -0.1440 -0.9865 -0.0775
vn -0.0308 -0.9982 -0.0521
vn 0.1002 -0.9947 0.0236
vn 0.1000 -0.9930 0.0623
vn 0.1518 0.9884 0.0075
vn -0.0813 0.9886 -0.1270
vn -0.1069 0.9879 -0.1121
vn 0.0408 0.9956 -0.0847
vn 0.0655 0.9978 -0.0131
vn -0.0440 0.9989 0.0141
vn -0.0040 -0.9999 -0.0097
vn -0.1859 -0.9772 -0.1029
vn 0.1260 -0.9894 0.0720
vn 0.1339 -0.9899 0.0463
vn -0.2197 -0.9728 0.0734
vn 0.1440 -0.9892 -0.0282
vn -0.1375 -0.9679 -0.2102
vn -0.0692 -0.9910 0.1146
vn -0.0189 -0.9865 -0.1628
vn -0.0190 -0.9998 0.0095
vn -0.0275 -0.9991 0.0331
vn -0.0172 -0.9952 0.0963
vn -0.0049 0.9997 0.0256
vn -0.0439 0.9989 0.0143
vn 0.0676 0.9958 0.0624
vn 0.1633 0.9856 0.0437
vn 0.1988 0.9800 -0.0103
vn -0.1591 0.9864 -0.0420
vn 0.0951 0.9954 -0.0140
vn -0.0624 0.9946 0.0833
vn -0.0810 0.9964 0.0244
vt 0.916667 0.750000
vt 0.833333 0.500000
vt 0.916667 0.500000
vt 0.750000 0.750000
vt 0.666667 0.500000
vt 0.750000 0.500000
vt 0.583333 0.750000
vt 0.500000 0.500000
vt 0.583333 0.500000
vt 0.416667 0.750000
vt 0.333333 0.500000
vt 0.416667 0.500000
vt 0.250000 0.490000
vt 0.198038 0.400000
vt 0.301962 0.400000
vt 0.250000 0.750000
vt 0.166667 0.500000
vt 0.250000 0.500000
vt 0.083333 0.750000
vt -0.000000 0.500000
vt 0.083333 0.500000
vt 0.957846 0.370000
vt 0.905885 0.280000
vt 0.853923 0.370000
vt 0.833333 1.000000
vt 0.916667 1.000000
vt 0.666667 1.000000
vt 0.750000 1.000000
vt 0.500000 1.000000
vt 0.583333 1.000000
vt 0.333333 1.000000
vt 0.416667 1.000000
vt 0.457846 0.250000
vt 0.405885 0.220000
vt 0.457846 0.130000
vt 0.146077 0.430000
vt 0.146077 0.070000
vt 0.146077 0.130000
vt 0.042154 0.130000
vt 0.166667 1.000000
vt 0.250000 1.000000
vt -0.000000 1.000000
vt 0.083333 1.000000
vt 0.646077 0.430000
vt 0.646077 0.370000
vt 0.542154 0.370000
vt 0.957846 0.250000
vt 0.646077 0.070000
vt 0.698038 0.100000
vt 0.750000 0.010000
vt 0.542154 0.250000
vt 0.594115 0.280000
vt 0.646077 0.190000
vt 0.594115 0.160000
vt 0.542154 0.130000
vt 0.853923 0.070000
vt 0.801962 0.100000
vt 0.853923 0.190000
vt 0.905885 0.160000
vt 0.957846 0.130000
vt 0.853923 0.430000
vt 0.750000 0.370000
vt 0.750000 0.430000
vt 0.750000 0.490000
vt 0.353923 0.070000
vt 0.353923 0.130000
vt 0.250000 0.130000
vt 0.250000 0.070000
vt 0.250000 0.010000
vt 0.042154 0.250000
vt 0.094115 0.220000
vt 0.146077 0.310000
vt 0.094115 0.340000
vt 0.042154 0.370000
vt 0.353923 0.430000
vt 0.353923 0.310000
vt 0.405885 0.340000
vt 0.457846 0.370000
vt 1.000000 1.000000
vt 0.698038 0.280000
vt 0.801962 0.280000
vt 0.750000 0.190000
vt 0.301962 0.220000
vt 0.250000 0.310000
vt 0.198038 0.220000
vt 1.000000 0.500000
s 0
f 25/1/1 3/2/1 13/3/1
f 26/4/2 5/5/2 15/6/2
f 27/7/3 7/8/3 17/9/3
f 28/10/4 9/11/4 19/12/4
f 2/13/5 38/14/5 43/15/5
f 32/16/6 11/17/6 21/18/6
f 33/19/7 1/20/7 23/21/7
f 3/22/8 41/23/8 46/24/8
f 4/25/9 25/1/9 14/26/9
f 6/27/10 26/4/10 16/28/10
f 8/29/11 27/7/11 18/30/11
f 10/31/12 28/10/12 20/32/12
f 16/33/13 37/34/13 6/35/13
f 24/36/14 38/14/14 2/13/14
f 20/37/15 39/38/15 10/39/15
f 12/40/16 32/16/16 22/41/16
f 2/42/17 33/19/17 24/43/17
f 23/44/18 40/45/18 11/46/18
f 15/47/19 41/23/19 3/22/19
f 19/48/20 42/49/20 7/50/20
f 21/51/21 48/52/21 36/53/21
f 36/53/22 49/54/22 21/51/22
f 9/55/23 49/54/23 19/48/23
f 17/56/24 47/57/24 35/58/24
f 35/58/25 50/59/25 17/56/25
f 5/60/26 50/59/26 15/47/26
f 13/61/27 46/24/27 34/62/27
f 34/62/28 51/63/28 13/61/28
f 1/64/29 51/63/29 23/44/29
f 12/40/30 24/43/30 33/19/30
f 10/31/31 22/41/31 32/16/31
f 18/65/32 45/66/32 31/67/32
f 31/67/33 52/68/33 18/65/33
f 8/69/34 52/68/34 20/37/34
f 22/70/35 44/71/35 30/72/35
f 30/72/36 53/73/36 22/70/36
f 12/74/37 53/73/37 24/36/37
f 14/75/38 43/15/38 29/76/38
f 29/76/39 54/77/39 14/75/39
f 4/78/40 54/77/40 16/33/40
f 8/29/41 20/32/41 28/10/41
f 6/27/42 18/30/42 27/7/42
f 4/25/43 16/28/43 26/4/43
f 2/79/44 14/26/44 25/1/44
f 34/62/45 55/80/45 40/45/45
f 34/62/46 56/81/46 55/80/46
f 35/58/47 47/57/47 57/82/47
f 33/19/48 11/17/48 12/40/48
f 32/16/49 9/11/49 10/31/49
f 29/76/50 58/83/50 37/34/50
f 29/76/51 59/84/51 58/83/51
f 30/72/52 44/71/52 60/85/52
f 28/10/53 7/8/53 8/29/53
f 27/7/54 5/5/54 6/27/54
f 26/4/55 3/2/55 4/25/55
f 25/1/56 1/86/56 2/79/56
f 4/25/57 3/2/57 25/1/57
f 6/27/58 5/5/58 26/4/58
f 8/29/59 7/8/59 27/7/59
f 10/31/60 9/11/60 28/10/60
f 12/40/61 11/17/61 32/16/61
f 2/42/62 1/20/62 33/19/62
f 33/19/63 23/21/63 11/17/63
f 32/16/64 21/18/64 9/11/64
f 28/10/65 19/12/65 7/8/65
f 27/7/66 17/9/66 5/5/66
f 26/4/67 15/6/67 3/2/67
f 25/1/68 13/3/68 1/86/68
f 60/85/69 39/38/69 31/67/69
f 60/85/70 44/71/70 39/38/70
f 44/71/71 10/39/71 39/38/71
f 58/83/72 60/85/72 31/67/72
f 58/83/73 59/84/73 60/85/73
f 59/84/74 30/72/74 60/85/74
f 37/34/75 45/66/75 6/35/75
f 37/34/76 58/83/76 45/66/76
f 58/83/77 31/67/77 45/66/77
f 57/82/78 42/49/78 36/53/78
f 57/82/79 47/57/79 42/49/79
f 47/57/80 7/50/80 42/49/80
f 55/80/81 57/82/81 36/53/81
f 55/80/82 56/81/82 57/82/82
f 56/81/83 35/58/83 57/82/83
f 40/45/84 48/52/84 11/46/84
f 40/45/85 55/80/85 48/52/85
f 55/80/86 36/53/86 48/52/86
f 46/24/87 56/81/87 34/62/87
f 46/24/88 41/23/88 56/81/88
f 41/23/89 35/58/89 56/81/89
f 43/15/90 59/84/90 29/76/90
f 43/15/91 38/14/91 59/84/91
f 38/14/92 30/72/92 59/84/92
f 16/33/93 29/76/93 37/34/93
f 24/36/94 30/72/94 38/14/94
f 20/37/95 31/67/95 39/38/95
f 23/44/96 34/62/96 40/45/96
f 15/47/97 35/58/97 41/23/97
f 19/48/98 36/53/98 42/49/98
f 21/51/99 11/46/99 48/52/99
f 36/53/100 19/48/100 49/54/100
f 9/55/101 21/51/101 49/54/101
f 17/56/102 7/50/102 47/57/102
f 35/58/103 15/47/103 50/59/103
f 5/60/104 17/56/104 50/59/104
f 13/61/105 3/22/105 46/24/105
f 34/62/106 23/44/106 51/63/106
f 1/64/107 13/61/107 51/63/107
f 18/65/108 6/35/108 45/66/108
f 31/67/109 20/37/109 52/68/109
f 8/69/110 18/65/110 52/68/110
f 22/70/111 10/39/111 44/71/111
f 30/72/112 24/36/112 53/73/112
f 12/74/113 22/70/113 53/73/113
f 14/75/114 2/13/114 43/15/114
f 29/76/115 16/33/115 54/77/115
f 4/78/116 14/75/116 54/77/116
