# Blender 4.3.0
# www.blender.org
o Cylinder
v 0.000000 -2.990825 -25.637596
v 0.000000 2.925980 -25.553356
v 22.040953 -2.846954 -12.725349
v 21.543062 2.404379 -12.437893
v 21.074886 -1.988221 12.167592
v 20.973822 1.898379 12.109242
v 0.000000 -2.517128 25.022249
v 0.000000 2.689275 25.245872
v -22.134487 -2.930093 12.779352
v -21.804893 2.637120 12.589061
v -21.103252 -2.013430 -12.183969
v -21.254639 2.148002 -12.271372
v 10.844806 -2.538976 -18.783754
v 10.938948 2.727257 -18.946814
v 21.950331 -2.799692 0.000000
v 20.999876 1.849248 0.000000
v 10.481516 -1.812405 18.154518
v 11.159233 3.167824 19.328360
v -10.570820 -1.991010 18.309196
v -10.486100 1.821573 18.162458
v -21.127760 -1.977131 0.000000
v -21.215429 2.064799 0.000000
v -10.751083 -2.351533 -18.621424
v -10.961939 2.773239 -18.986635
v 10.696815 0.000000 -18.527426
v 22.620489 0.000000 0.000000
v 11.160408 0.000000 19.330393
v -10.440266 0.000000 18.083071
v 10.825317 1.827922 -6.250000
v -10.825317 1.633336 -6.250000
v 0.000000 2.293213 12.500000
v -21.005760 0.000000 0.000000
v -11.270929 0.000000 -19.521822
v 0.000000 -3.041661 -12.500000
v 10.825317 -1.720014 6.250000
v -10.825317 -3.468997 6.250000
v 16.237976 1.760315 3.125000
v -5.412659 3.227005 -15.625000
v -10.825317 2.821496 12.500000
v -10.825317 -2.227357 -12.500000
v 16.237976 -1.831276 -3.125000
v -5.412659 -2.231530 15.625000
v 5.412659 1.902678 -15.625000
v -16.237976 1.751191 3.125000
v 10.825317 2.839027 12.500000
v 10.825317 -2.220661 -12.500000
v 5.412659 -2.556623 15.625000
v -16.237976 -2.746200 -3.125000
v -16.237976 -2.586690 9.375000
v 16.237976 -1.741830 9.375000
v 0.000000 -1.785511 -18.750000
v 0.000000 1.883789 18.750000
v -16.237976 2.078202 -9.375000
v 16.237976 3.440631 -9.375000
v -5.412659 -1.997875 -3.125000
v 5.412659 -3.021650 -3.125000
v 0.000000 -2.998236 6.250000
v 5.412659 2.344447 3.125000
v 0.000000 1.870008 -6.250000
v -5.412659 1.879379 3.125000
vn 0.4752 0.1158 -0.8722
vn 0.9690 -0.2319 0.0852
vn 0.4671 -0.5977 0.6516
vn -0.4363 0.1297 0.8904
vn 0.1214 0.9920 0.0361
vn -0.9981 0.0616 -0.0022
vn -0.5168 -0.4034 -0.7551
vn -0.0542 -0.9959 0.0726
vn 0.5112 -0.1748 -0.8415
vn 0.7521 0.6591 -0.0011
vn 0.4685 0.0007 0.8835
vn -0.4441 -0.0502 0.8946
vn -0.0214 0.9998 -0.0041
vn -0.0475 0.9973 -0.0562
vn -0.0151 0.9845 0.1748
vn -0.9949 -0.1010 0.0025
vn -0.5038 0.2175 -0.8360
vn -0.0202 -0.9996 0.0200
vn -0.1685 -0.9857 0.0025
vn -0.0480 -0.9988 -0.0027
vn -0.1492 -0.9888 0.0099
vn -0.1523 -0.9882 0.0152
vn 0.0706 -0.9973 0.0217
vn 0.1469 -0.9891 -0.0034
vn 0.0004 -1.0000 -0.0077
vn -0.0854 -0.9945 0.0602
vn 0.0755 -0.9959 0.0507
vn -0.0686 -0.9781 -0.1966
vn 0.0538 -0.9836 0.1721
vn -0.5426 0.2171 -0.8115
vn -0.9940 -0.1009 -0.0420
vn -0.0503 0.9977 -0.0456
vn -0.1174 0.9910 0.0649
vn 0.0010 0.9924 -0.1231
vn 0.0520 0.9985 0.0174
vn 0.0621 0.9975 0.0344
vn -0.0211 0.9979 0.0606
vn -0.1063 0.9919 0.0693
vn -0.2496 0.9661 0.0662
vn 0.2209 0.9739 0.0531
vn -0.5562 -0.0501 0.8295
vn 0.5926 0.0007 0.8055
vn 0.7506 0.6578 0.0621
vn 0.5067 -0.1748 -0.8442
vn -0.0748 -0.9949 0.0676
vn -0.0940 -0.9940 0.0564
vn 0.1172 -0.9929 -0.0209
vn -0.5926 -0.0385 -0.8046
vn -0.9956 0.0564 -0.0750
vn 0.0539 0.9983 -0.0239
vn 0.0039 0.9986 -0.0528
vn -0.0118 0.9997 -0.0194
vn -0.5591 -0.0356 0.8283
vn 0.5890 0.0274 0.8077
vn 0.9929 0.0978 -0.0671
vn 0.5512 0.0119 -0.8343
vn 0.4717 0.0927 -0.8768
vn 0.9911 0.0277 0.1304
vn 0.4608 -0.0381 0.8867
vn -0.4240 0.0560 0.9039
vn -0.9993 -0.0361 0.0140
vn -0.4743 0.0125 -0.8803
vn -0.4925 -0.4040 -0.7708
vn -0.9954 0.0614 -0.0738
vn -0.5269 0.1299 0.8399
vn 0.3862 -0.5995 0.7010
vn 0.9725 -0.2328 0.0078
vn 0.5272 0.1157 -0.8418
vn 0.0486 0.9962 -0.0720
vn -0.0118 0.9942 -0.1067
vn -0.0175 0.9945 -0.1034
vn -0.0429 0.9989 -0.0193
vn -0.0429 0.9987 -0.0258
vn -0.0219 0.9997 -0.0136
vn 0.0897 0.9940 -0.0626
vn 0.0537 0.9951 -0.0835
vn -0.0503 0.9985 -0.0236
vn 0.0432 -0.9934 0.1062
vn -0.0300 -0.9975 0.0643
vn -0.0300 -0.9995 -0.0131
vn 0.0431 -0.9905 -0.1306
vn -0.0940 -0.9942 -0.0518
vn 0.1170 -0.9907 0.0700
vn -0.0229 -0.9974 -0.0684
vn 0.0690 -0.9975 -0.0154
vn 0.0685 -0.9909 -0.1159
vn 0.0756 -0.9963 -0.0415
vn 0.1093 -0.9938 -0.0218
vn 0.1090 -0.9912 0.0747
vn 0.0039 1.0000 0.0057
vn 0.1211 0.9899 0.0734
vn -0.0216 0.9876 0.1554
vn -0.0101 0.9999 0.0130
vn -0.1351 0.9868 0.0898
vn 0.0480 0.9841 0.1709
vn -0.0750 -0.9970 0.0193
vn -0.1323 -0.9891 -0.0647
vn 0.0168 -0.9925 0.1213
vn -0.1537 -0.9881 0.0026
vn -0.0901 -0.9883 0.1230
vn 0.0159 -0.9972 -0.0731
vn 0.1114 -0.9914 0.0684
vn -0.0509 -0.9954 0.0813
vn -0.0336 -0.9990 -0.0300
vn -0.0547 -0.9972 0.0503
vn 0.0492 -0.9792 -0.1968
vn -0.0677 -0.9828 0.1720
vn 0.0902 0.9946 -0.0523
vn -0.0096 0.9978 0.0654
vn -0.1072 0.9867 -0.1223
vn 0.0885 0.9952 -0.0411
vn 0.0306 0.9956 0.0888
vn 0.0100 0.9999 0.0067
vn -0.0650 0.9884 0.1373
vn -0.1484 0.9598 0.2383
vn 0.1136 0.9841 -0.1362
vt 0.916667 0.750000
vt 0.833333 0.500000
vt 0.916667 0.500000
vt 0.750000 0.750000
vt 0.666667 0.500000
vt 0.750000 0.500000
vt 0.583333 0.750000
vt 0.500000 0.500000
vt 0.583333 0.500000
vt 0.416667 0.750000
vt 0.333333 0.500000
vt 0.416667 0.500000
vt 0.250000 0.490000
vt 0.198038 0.400000
vt 0.301962 0.400000
vt 0.250000 0.750000
vt 0.166667 0.500000
vt 0.250000 0.500000
vt 0.083333 0.750000
vt -0.000000 0.500000
vt 0.083333 0.500000
vt 0.957846 0.370000
vt 0.905885 0.280000
vt 0.853923 0.370000
vt 0.833333 1.000000
vt 0.916667 1.000000
vt 0.666667 1.000000
vt 0.750000 1.000000
vt 0.500000 1.000000
vt 0.583333 1.000000
vt 0.333333 1.000000
vt 0.416667 1.000000
vt 0.457846 0.250000
vt 0.405885 0.220000
vt 0.457846 0.130000
vt 0.146077 0.430000
vt 0.146077 0.070000
vt 0.146077 0.130000
vt 0.042154 0.130000
vt 0.166667 1.000000
vt 0.250000 1.000000
vt -0.000000 1.000000
vt 0.083333 1.000000
vt 0.646077 0.430000
vt 0.646077 0.370000
vt 0.542154 0.370000
vt 0.957846 0.250000
vt 0.646077 0.070000
vt 0.698038 0.100000
vt 0.750000 0.010000
vt 0.542154 0.250000
vt 0.594115 0.280000
vt 0.646077 0.190000
vt 0.594115 0.160000
vt 0.542154 0.130000
vt 0.853923 0.070000
vt 0.801962 0.100000
vt 0.853923 0.190000
vt 0.905885 0.160000
vt 0.957846 0.130000
vt 0.853923 0.430000
vt 0.750000 0.370000
vt 0.750000 0.430000
vt 0.750000 0.490000
vt 0.353923 0.070000
vt 0.353923 0.130000
vt 0.250000 0.130000
vt 0.250000 0.070000
vt 0.250000 0.010000
vt 0.042154 0.250000
vt 0.094115 0.220000
vt 0.146077 0.310000
vt 0.094115 0.340000
vt 0.042154 0.370000
vt 0.353923 0.430000
vt 0.353923 0.310000
vt 0.405885 0.340000
vt 0.457846 0.370000
vt 1.000000 1.000000
vt 0.698038 0.280000
vt 0.801962 0.280000
vt 0.750000 0.190000
vt 0.301962 0.220000
vt 0.250000 0.310000
vt 0.198038 0.220000
vt 1.000000 0.500000
s 0
f 25/1/1 3/2/1 13/3/1
f 26/4/2 5/5/2 15/6/2
f 27/7/3 7/8/3 17/9/3
f 28/10/4 9/11/4 19/12/4
f 2/13/5 38/14/5 43/15/5
f 32/16/6 11/17/6 21/18/6
f 33/19/7 1/20/7 23/21/7
f 3/22/8 41/23/8 46/24/8
f 4/25/9 25/1/9 14/26/9
f 6/27/10 26/4/10 16/28/10
f 8/29/11 27/7/11 18/30/11
f 10/31/12 28/10/12 20/32/12
f 16/33/13 37/34/13 6/35/13
f 24/36/14 38/14/14 2/13/14
f 20/37/15 39/38/15 10/39/15
f 12/40/16 32/16/16 22/41/16
f 2/42/17 33/19/17 24/43/17
f 23/44/18 40/45/18 11/46/18
f 15/47/19 41/23/19 3/22/19
f 19/48/20 42/49/20 7/50/20
f 21/51/21 48/52/21 36/53/21
f 36/53/22 49/54/22 21/51/22
f 9/55/23 49/54/23 19/48/23
f 17/56/24 47/57/24 35/58/24
f 35/58/25 50/59/25 17/56/25
f 5/60/26 50/59/26 15/47/26
f 13/61/27 46/24/27 34/62/27
f 34/62/28 51/63/28 13/61/28
f 1/64/29 51/63/29 23/44/29
f 12/40/30 24/43/30 33/19/30
f 10/31/31 22/41/31 32/16/31
f 18/65/32 45/66/32 31/67/32
f 31/67/33 52/68/33 18/65/33
f 8/69/34 52/68/34 20/37/34
f 22/70/35 44/71/35 30/72/35
f 30/72/36 53/73/36 22/70/36
f 12/74/37 53/73/37 24/36/37
f 14/75/38 43/15/38 29/76/38
f 29/76/39 54/77/39 14/75/39
f 4/78/40 54/77/40 16/33/40
f 8/29/41 20/32/41 28/10/41
f 6/27/42 18/30/42 27/7/42
f 4/25/43 16/28/43 26/4/43
f 2/79/44 14/26/44 25/1/44
f 34/62/45 55/80/45 40/45/45
f 34/62/46 56/81/46 55/80/46
f 35/58/47 47/57/47 57/82/47
f 33/19/48 11/17/48 12/40/48
f 32/16/49 9/11/49 10/31/49
f 29/76/50 58/83/50 37/34/50
f 29/76/51 59/84/51 58/83/51
f 30/72/52 44/71/52 60/85/52
f 28/10/53 7/8/53 8/29/53
f 27/7/54 5/5/54 6/27/54
f 26/4/55 3/2/55 4/25/55
f 25/1/56 1/86/56 2/79/56
f 4/25/57 3/2/57 25/1/57
f 6/27/58 5/5/58 26/4/58
f 8/29/59 7/8/59 27/7/59
f 10/31/60 9/11/60 28/10/60
f 12/40/61 11/17/61 32/16/61
f 2/42/62 1/20/62 33/19/62
f 33/19/63 23/21/63 11/17/63
f 32/16/64 21/18/64 9/11/64
f 28/10/65 19/12/65 7/8/65
f 27/7/66 17/9/66 5/5/66
f 26/4/67 15/6/67 3/2/67
f 25/1/68 13/3/68 1/86/68
f 60/85/69 39/38/69 31/67/69
f 60/85/70 44/71/70 39/38/70
f 44/71/71 10/39/71 39/38/71
f 58/83/72 60/85/72 31/67/72
f 58/83/73 59/84/73 60/85/73
f 59/84/74 30/72/74 60/85/74
f 37/34/75 45/66/75 6/35/75
f 37/34/76 58/83/76 45/66/76
f 58/83/77 31/67/77 45/66/77
f 57/82/78 42/49/78 36/53/78
f 57/82/79 47/57/79 42/49/79
f 47/57/80 7/50/80 42/49/80
f 55/80/81 57/82/81 36/53/81
f 55/80/82 56/81/82 57/82/82
f 56/81/83 35/58/83 57/82/83
f 40/45/84 48/52/84 11/46/84
f 40/45/85 55/80/85 48/52/85
f 55/80/86 36/53/86 48/52/86
f 46/24/87 56/81/87 34/62/87
f 46/24/88 41/23/88 56/81/88
f 41/23/89 35/58/89 56/81/89
f 43/15/90 59/84/90 29/76/90
f 43/15/91 38/14/91 59/84/91
f 38/14/92 30/72/92 59/84/92
f 16/33/93 29/76/93 37/34/93
f 24/36/94 30/72/94 38/14/94
f 20/37/95 31/67/95 39/38/95
f 23/44/96 34/62/96 40/45/96
f 15/47/97 35/58/97 41/23/97
f 19/48/98 36/53/98 42/49/98
f 21/51/99 11/46/99 48/52/99
f 36/53/100 19/48/100 49/54/100
f 9/55/101 21/51/101 49/54/101
f 17/56/102 7/50/102 47/57/102
f 35/58/103 15/47/103 50/59/103
f 5/60/104 17/56/104 50/59/104
f 13/61/105 3/22/105 46/24/105
f 34/62/106 23/44/106 51/63/106
f 1/64/107 13/61/107 51/63/107
f 18/65/108 6/35/108 45/66/108
f 31/67/109 20/37/109 52/68/109
f 8/69/110 18/65/110 52/68/110
f 22/70/111 10/39/111 44/71/111
f 30/72/112 24/36/112 53/73/112
f 12/74/113 22/70/113 53/73/113
f 14/75/114 2/13/114 43/15/114
f 29/76/115 16/33/115 54/77/115
f 4/78/116 14/75/116 54/77/116
