# Blender 4.3.0
# www.blender.org
o Cylinder
v 0.000000 -2.687263 -25.243261
v 0.000000 2.649241 -25.193867
v 21.908642 -2.729344 -12.648961
v 21.247971 2.142073 -12.267521
v 22.076725 -2.878750 12.746004
v 21.359625 2.241320 12.331985
v 0.000000 -1.948106 24.283079
v 0.000000 3.009747 25.662178
v -21.400164 -2.277357 12.355390
v -21.456516 2.327447 12.387925
v -22.194376 -2.983333 -12.813930
v -21.448385 2.320222 -12.383231
v 10.980266 -2.809893 -19.018377
v 10.814991 2.479347 -18.732115
v 21.897963 -2.747325 0.000000
v 22.269150 3.118509 0.000000
v 11.173061 -3.195480 19.352310
v 10.528228 1.905827 18.235426
v -10.772243 -2.393852 18.658072
v -10.682600 2.214568 18.502806
v -21.442896 -2.292263 0.000000
v -21.213242 2.062612 0.000000
v -10.654303 -2.157974 -18.453793
v -10.994886 2.839134 -19.043701
v 10.623262 0.000000 -18.400030
v 21.605581 0.000000 0.000000
v 11.132911 0.000000 19.282766
v -10.837611 0.000000 18.771294
v 10.825317 1.980464 -6.250000
v -10.825317 2.633031 -6.250000
v 0.000000 2.100578 12.500000
v -22.385529 0.000000 0.000000
v -10.349095 0.000000 -17.925159
v 0.000000 -2.057750 -12.500000
v 10.825317 -1.763785 6.250000
v -10.825317 -1.704496 6.250000
v 16.237976 2.001553 3.125000
v -5.412659 2.054503 -15.625000
v -10.825317 3.022563 12.500000
v -10.825317 -2.963453 -12.500000
v 16.237976 -2.751000 -3.125000
v -5.412659 -1.895663 15.625000
v 5.412659 1.846256 -15.625000
v -16.237976 2.596531 3.125000
v 10.825317 3.443865 12.500000
v 10.825317 -3.135092 -12.500000
v 5.412659 -2.155360 15.625000
v -16.237976 -1.981907 -3.125000
v -16.237976 -2.473243 9.375000
v 16.237976 -1.839514 9.375000
v 0.000000 -1.765893 -18.750000
v 0.000000 1.553260 18.750000
v -16.237976 2.369016 -9.375000
v 16.237976 2.949974 -9.375000
v -5.412659 -1.913116 -3.125000
v 5.412659 -2.183300 -3.125000
v 0.000000 -2.475795 6.250000
v 5.412659 1.795433 3.125000
v 0.000000 1.834397 -6.250000
v -5.412659 2.303913 3.125000
vn 0.4867 0.2463 -0.8381
vn 0.9943 0.1058 -0.0129
vn 0.4059 0.0250 0.9136
vn -0.5098 -0.0545 0.8586
vn 0.0192 0.9972 0.0728
vn -0.9223 -0.3793 0.0745
vn -0.5075 0.2721 -0.8176
vn 0.0368 -0.9991 0.0197
vn 0.5170 -0.1528 -0.8423
vn 0.9765 -0.2078 0.0572
vn 0.5247 0.5318 0.6648
vn -0.4877 0.1386 0.8619
vn -0.1522 0.9866 0.0590
vn 0.0755 0.9917 0.1043
vn -0.0661 0.9887 0.1347
vn -0.8691 0.4939 0.0268
vn -0.4498 -0.4141 -0.7913
vn 0.0054 -0.9910 -0.1339
vn 0.0014 -1.0000 -0.0014
vn 0.0659 -0.9967 -0.0472
vn 0.0574 -0.9983 -0.0036
vn 0.0984 -0.9924 -0.0738
vn -0.0246 -0.9994 0.0230
vn -0.1105 -0.9883 -0.1051
vn 0.0495 -0.9927 -0.1098
vn -0.1709 -0.9853 -0.0078
vn -0.0989 -0.9937 -0.0519
vn -0.0957 -0.9943 -0.0464
vn 0.0403 -0.9893 0.1404
vn -0.4744 -0.4140 -0.7769
vn -0.8691 0.4939 -0.0276
vn -0.1192 0.9605 0.2514
vn -0.0291 0.9958 0.0872
vn 0.0652 0.9764 -0.2057
vn -0.0802 0.9959 -0.0424
vn -0.0517 0.9986 0.0052
vn -0.0285 0.9990 0.0331
vn -0.0937 0.9948 0.0398
vn -0.1540 0.9873 0.0396
vn 0.1089 0.9902 -0.0879
vn -0.5585 0.1383 0.8179
vn 0.3913 0.5355 0.7484
vn 0.9761 -0.2077 -0.0647
vn 0.5051 -0.1528 -0.8494
vn 0.0832 -0.9945 0.0634
vn -0.0250 -0.9997 0.0010
vn 0.0656 -0.9978 -0.0038
vn -0.4206 0.1321 -0.8976
vn -0.9969 -0.0127 0.0772
vn -0.0190 0.9998 0.0087
vn -0.0135 0.9998 0.0119
vn 0.0270 0.9994 0.0195
vn -0.4739 -0.2360 0.8484
vn 0.5349 0.1423 0.8329
vn 0.9909 0.1348 -0.0053
vn 0.5401 0.0078 -0.8415
vn 0.4753 0.1326 -0.8698
vn 0.9904 0.1383 -0.0054
vn 0.4324 -0.2416 0.8687
vn -0.5172 -0.0124 0.8558
vn -0.9886 0.1430 -0.0480
vn -0.5760 0.0076 -0.8174
vn -0.4382 0.2719 -0.8568
vn -0.9248 -0.3803 0.0037
vn -0.4604 -0.0545 0.8860
vn 0.5175 0.0251 0.8553
vn 0.9944 0.1058 0.0010
vn 0.4801 0.2463 -0.8420
vn 0.0848 0.9960 -0.0274
vn 0.0270 0.9978 -0.0609
vn -0.0652 0.9978 -0.0077
vn 0.0469 0.9989 -0.0054
vn 0.0469 0.9986 -0.0229
vn 0.0736 0.9973 -0.0075
vn 0.1116 0.9899 -0.0879
vn -0.0188 0.9865 -0.1626
vn -0.1225 0.9871 -0.1028
vn -0.0711 -0.9973 0.0207
vn -0.0240 -0.9986 0.0480
vn -0.0240 -0.9997 0.0089
vn -0.0711 -0.9973 -0.0188
vn -0.0249 -0.9987 -0.0455
vn 0.0656 -0.9978 0.0068
vn -0.0011 -0.9946 0.1035
vn 0.0063 -0.9942 0.1077
vn 0.0064 -0.9996 0.0259
vn -0.0989 -0.9941 0.0438
vn -0.0522 -0.9961 0.0710
vn -0.0522 -0.9958 0.0747
vn -0.0135 0.9999 -0.0065
vn 0.0192 0.9997 0.0124
vn 0.0736 0.9971 -0.0191
vn -0.1415 0.9867 0.0795
vn 0.1306 0.9913 0.0142
vn 0.0841 0.9878 0.1310
vn 0.0827 -0.9879 -0.1313
vn -0.0434 -0.9959 0.0798
vn 0.0612 -0.9966 -0.0556
vn 0.0884 -0.9949 0.0485
vn 0.1089 -0.9925 -0.0556
vn -0.0371 -0.9993 0.0013
vn -0.1380 -0.9885 -0.0626
vn -0.0517 -0.9965 0.0653
vn -0.0756 -0.9822 -0.1719
vn 0.0359 -0.9982 -0.0489
vn 0.0354 -0.9983 -0.0466
vn -0.0903 -0.9860 0.1399
vn 0.1136 0.9581 0.2628
vn 0.0595 0.9944 0.0871
vn -0.0428 0.9776 -0.2060
vn -0.0923 0.9955 -0.0231
vn -0.0584 0.9981 0.0169
vn -0.0216 0.9995 0.0212
vn -0.0516 0.9923 0.1125
vn -0.1365 0.9882 0.0701
vn 0.0980 0.9895 -0.1066
vt 0.916667 0.750000
vt 0.833333 0.500000
vt 0.916667 0.500000
vt 0.750000 0.750000
vt 0.666667 0.500000
vt 0.750000 0.500000
vt 0.583333 0.750000
vt 0.500000 0.500000
vt 0.583333 0.500000
vt 0.416667 0.750000
vt 0.333333 0.500000
vt 0.416667 0.500000
vt 0.250000 0.490000
vt 0.198038 0.400000
vt 0.301962 0.400000
vt 0.250000 0.750000
vt 0.166667 0.500000
vt 0.250000 0.500000
vt 0.083333 0.750000
vt -0.000000 0.500000
vt 0.083333 0.500000
vt 0.957846 0.370000
vt 0.905885 0.280000
vt 0.853923 0.370000
vt 0.833333 1.000000
vt 0.916667 1.000000
vt 0.666667 1.000000
vt 0.750000 1.000000
vt 0.500000 1.000000
vt 0.583333 1.000000
vt 0.333333 1.000000
vt 0.416667 1.000000
vt 0.457846 0.250000
vt 0.405885 0.220000
vt 0.457846 0.130000
vt 0.146077 0.430000
vt 0.146077 0.070000
vt 0.146077 0.130000
vt 0.042154 0.130000
vt 0.166667 1.000000
vt 0.250000 1.000000
vt -0.000000 1.000000
vt 0.083333 1.000000
vt 0.646077 0.430000
vt 0.646077 0.370000
vt 0.542154 0.370000
vt 0.957846 0.250000
vt 0.646077 0.070000
vt 0.698038 0.100000
vt 0.750000 0.010000
vt 0.542154 0.250000
vt 0.594115 0.280000
vt 0.646077 0.190000
vt 0.594115 0.160000
vt 0.542154 0.130000
vt 0.853923 0.070000
vt 0.801962 0.100000
vt 0.853923 0.190000
vt 0.905885 0.160000
vt 0.957846 0.130000
vt 0.853923 0.430000
vt 0.750000 0.370000
vt 0.750000 0.430000
vt 0.750000 0.490000
vt 0.353923 0.070000
vt 0.353923 0.130000
vt 0.250000 0.130000
vt 0.250000 0.070000
vt 0.250000 0.010000
vt 0.042154 0.250000
vt 0.094115 0.220000
vt 0.146077 0.310000
vt 0.094115 0.340000
vt 0.042154 0.370000
vt 0.353923 0.430000
vt 0.353923 0.310000
vt 0.405885 0.340000
vt 0.457846 0.370000
vt 1.000000 1.000000
vt 0.698038 0.280000
vt 0.801962 0.280000
vt 0.750000 0.190000
vt 0.301962 0.220000
vt 0.250000 0.310000
vt 0.198038 0.220000
vt 1.000000 0.500000
s 0
f 25/1/1 3/2/1 13/3/1
f 26/4/2 5/5/2 15/6/2
f 27/7/3 7/8/3 17/9/3
f 28/10/4 9/11/4 19/12/4
f 2/13/5 38/14/5 43/15/5
f 32/16/6 11/17/6 21/18/6
f 33/19/7 1/20/7 23/21/7
f 3/22/8 41/23/8 46/24/8
f 4/25/9 25/1/9 14/26/9
f 6/27/10 26/4/10 16/28/10
f 8/29/11 27/7/11 18/30/11
f 10/31/12 28/10/12 20/32/12
f 16/33/13 37/34/13 6/35/13
f 24/36/14 38/14/14 2/13/14
f 20/37/15 39/38/15 10/39/15
f 12/40/16 32/16/16 22/41/16
f 2/42/17 33/19/17 24/43/17
f 23/44/18 40/45/18 11/46/18
f 15/47/19 41/23/19 3/22/19
f 19/48/20 42/49/20 7/50/20
f 21/51/21 48/52/21 36/53/21
f 36/53/22 49/54/22 21/51/22
f 9/55/23 49/54/23 19/48/23
f 17/56/24 47/57/24 35/58/24
f 35/58/25 50/59/25 17/56/25
f 5/60/26 50/59/26 15/47/26
f 13/61/27 46/24/27 34/62/27
f 34/62/28 51/63/28 13/61/28
f 1/64/29 51/63/29 23/44/29
f 12/40/30 24/43/30 33/19/30
f 10/31/31 22/41/31 32/16/31
f 18/65/32 45/66/32 31/67/32
f 31/67/33 52/68/33 18/65/33
f 8/69/34 52/68/34 20/37/34
f 22/70/35 44/71/35 30/72/35
f 30/72/36 53/73/36 22/70/36
f 12/74/37 53/73/37 24/36/37
f 14/75/38 43/15/38 29/76/38
f 29/76/39 54/77/39 14/75/39
f 4/78/40 54/77/40 16/33/40
f 8/29/41 20/32/41 28/10/41
f 6/27/42 18/30/42 27/7/42
f 4/25/43 16/28/43 26/4/43
f 2/79/44 14/26/44 25/1/44
f 34/62/45 55/80/45 40/45/45
f 34/62/46 56/81/46 55/80/46
f 35/58/47 47/57/47 57/82/47
f 33/19/48 11/17/48 12/40/48
f 32/16/49 9/11/49 10/31/49
f 29/76/50 58/83/50 37/34/50
f 29/76/51 59/84/51 58/83/51
f 30/72/52 44/71/52 60/85/52
f 28/10/53 7/8/53 8/29/53
f 27/7/54 5/5/54 6/27/54
f 26/4/55 3/2/55 4/25/55
f 25/1/56 1/86/56 2/79/56
f 4/25/57 3/2/57 25/1/57
f 6/27/58 5/5/58 26/4/58
f 8/29/59 7/8/59 27/7/59
f 10/31/60 9/11/60 28/10/60
f 12/40/61 11/17/61 32/16/61
f 2/42/62 1/20/62 33/19/62
f 33/19/63 23/21/63 11/17/63
f 32/16/64 21/18/64 9/11/64
f 28/10/65 19/12/65 7/8/65
f 27/7/66 17/9/66 5/5/66
f 26/4/67 15/6/67 3/2/67
f 25/1/68 13/3/68 1/86/68
f 60/85/69 39/38/69 31/67/69
f 60/85/70 44/71/70 39/38/70
f 44/71/71 10/39/71 39/38/71
f 58/83/72 60/85/72 31/67/72
f 58/83/73 59/84/73 60/85/73
f 59/84/74 30/72/74 60/85/74
f 37/34/75 45/66/75 6/35/75
f 37/34/76 58/83/76 45/66/76
f 58/83/77 31/67/77 45/66/77
f 57/82/78 42/49/78 36/53/78
f 57/82/79 47/57/79 42/49/79
f 47/57/80 7/50/80 42/49/80
f 55/80/81 57/82/81 36/53/81
f 55/80/82 56/81/82 57/82/82
f 56/81/83 35/58/83 57/82/83
f 40/45/84 48/52/84 11/46/84
f 40/45/85 55/80/85 48/52/85
f 55/80/86 36/53/86 48/52/86
f 46/24/87 56/81/87 34/62/87
f 46/24/88 41/23/88 56/81/88
f 41/23/89 35/58/89 56/81/89
f 43/15/90 59/84/90 29/76/90
f 43/15/91 38/14/91 59/84/91
f 38/14/92 30/72/92 59/84/92
f 16/33/93 29/76/93 37/34/93
f 24/36/94 30/72/94 38/14/94
f 20/37/95 31/67/95 39/38/95
f 23/44/96 34/62/96 40/45/96
f 15/47/97 35/58/97 41/23/97
f 19/48/98 36/53/98 42/49/98
f 21/51/99 11/46/99 48/52/99
f 36/53/100 19/48/100 49/54/100
f 9/55/101 21/51/101 49/54/101
f 17/56/102 7/50/102 47/57/102
f 35/58/103 15/47/103 50/59/103
f 5/60/104 17/56/104 50/59/104
f 13/61/105 3/22/105 46/24/105
f 34/62/106 23/44/106 51/63/106
f 1/64/107 13/61/107 51/63/107
f 18/65/108 6/35/108 45/66/108
f 31/67/109 20/37/109 52/68/109
f 8/69/110 18/65/110 52/68/110
f 22/70/111 10/39/111 44/71/111
f 30/72/112 24/36/112 53/73/112
f 12/74/113 22/70/113 53/73/113
f 14/75/114 2/13/114 43/15/114
f 29/76/115 16/33/115 54/77/115
f 4/78/116 14/75/116 54/77/116
