# Blender 4.3.0
# www.blender.org
o Cylinder
v 0.000000 -2.900742 -25.520576
v 0.000000 2.809399 -25.401915
v 21.951405 -2.767354 -12.673649
v 21.708809 2.551710 -12.533587
v 21.620157 -2.472908 12.482404
v 22.231405 3.016249 12.835308
v 0.000000 -2.460272 24.948393
v 0.000000 3.069434 25.739712
v -22.169399 -2.961128 12.799509
v -21.215120 2.112870 12.248556
v -21.472330 -2.341504 -12.397056
v -21.115734 2.024529 -12.191175
v 11.176232 -3.201822 -19.357801
v 10.834757 2.518879 -18.766350
v 21.224224 -2.073594 0.000000
v 21.527321 2.376687 0.000000
v 10.927627 -2.704617 18.927204
v 10.953382 2.756127 18.971815
v -10.835741 -2.520846 18.768053
v -10.749104 2.347576 18.617996
v -21.353649 -2.203017 0.000000
v -21.276064 2.125433 0.000000
v -10.634122 -2.117612 -18.418839
v -10.870123 2.589611 -18.827606
v 10.442664 0.000000 -18.087225
v 22.630102 0.000000 0.000000
v 10.725112 0.000000 18.576439
v -10.775433 0.000000 18.663597
v 10.825317 2.864015 -6.250000
v -10.825317 2.078023 -6.250000
v 0.000000 1.825445 12.500000
v -20.687471 0.000000 0.000000
v -10.642231 0.000000 -18.432886
v 0.000000 -3.311299 -12.500000
v 10.825317 -2.828272 6.250000
v -10.825317 -3.192353 6.250000
v 16.237976 3.363665 3.125000
v -5.412659 2.831989 -15.625000
v -10.825317 1.642745 12.500000
v -10.825317 -1.873451 -12.500000
v 16.237976 -2.238277 -3.125000
v -5.412659 -3.380625 15.625000
v 5.412659 1.528168 -15.625000
v -16.237976 2.411916 3.125000
v 10.825317 3.067571 12.500000
v 10.825317 -2.672130 -12.500000
v 5.412659 -3.212659 15.625000
v -16.237976 -1.650827 -3.125000
v -16.237976 -2.257903 9.375000
v 16.237976 -2.141905 9.375000
v 0.000000 -1.661325 -18.750000
v 0.000000 2.068724 18.750000
v -16.237976 1.638559 -9.375000
v 16.237976 3.140147 -9.375000
v -5.412659 -3.195401 -3.125000
v 5.412659 -2.152536 -3.125000
v 0.000000 -1.890922 6.250000
v 5.412659 2.602272 3.125000
v 0.000000 2.618701 -6.250000
v -5.412659 1.909710 3.125000
vn 0.4671 0.4165 -0.7800
vn 0.8269 -0.5606 -0.0442
vn 0.4798 0.1481 0.8648
vn -0.4669 0.0478 0.8830
vn 0.1193 0.9908 0.0638
vn -0.9572 0.2894 0.0059
vn -0.5557 -0.0076 -0.8313
vn -0.0078 -0.9987 0.0507
vn 0.4755 -0.2973 -0.8280
vn 0.9048 0.4198 -0.0706
vn 0.5152 -0.1634 0.8414
vn -0.5201 0.0224 0.8538
vn 0.1502 0.9870 -0.0574
vn -0.0325 0.9993 -0.0203
vn 0.0477 0.9922 -0.1149
vn -0.9637 -0.2669 -0.0105
vn -0.5071 -0.1733 -0.8443
vn 0.0443 -0.9981 0.0426
vn -0.0012 -0.9985 0.0546
vn -0.0748 -0.9872 0.1409
vn 0.0055 -0.9862 -0.1653
vn -0.1324 -0.9890 0.0664
vn 0.0764 -0.9945 -0.0718
vn 0.0864 -0.9962 0.0090
vn 0.1208 -0.9926 0.0087
vn -0.0438 -0.9986 -0.0306
vn 0.0588 -0.9951 0.0799
vn -0.1456 -0.9566 -0.2525
vn 0.0478 -0.9825 0.1799
vn -0.5287 -0.1732 -0.8310
vn -0.9637 -0.2669 0.0045
vn -0.1139 0.9922 0.0500
vn -0.0618 0.9973 -0.0388
vn 0.0274 0.9895 -0.1417
vn -0.0256 0.9984 -0.0503
vn -0.0389 0.9966 -0.0727
vn 0.0157 0.9939 0.1089
vn -0.1949 0.9804 -0.0272
vn -0.0668 0.9974 -0.0276
vn 0.1158 0.9932 0.0155
vn -0.5532 0.0224 0.8327
vn 0.4744 -0.1634 0.8650
vn 0.9069 0.4208 0.0190
vn 0.4929 -0.2972 -0.8178
vn -0.1314 -0.9893 -0.0636
vn 0.0957 -0.9931 0.0675
vn -0.0859 -0.9922 -0.0903
vn -0.4986 0.0814 -0.8630
vn -0.9816 0.1767 -0.0728
vn -0.0702 0.9975 -0.0127
vn -0.0227 0.9996 0.0148
vn 0.0463 0.9989 -0.0088
vn -0.5206 -0.1210 0.8452
vn 0.4664 -0.1084 0.8779
vn 0.9969 0.0471 -0.0637
vn 0.5767 0.0170 -0.8168
vn 0.4338 0.0435 -0.9000
vn 0.9918 -0.1141 0.0576
vn 0.5273 -0.1204 0.8411
vn -0.4872 0.1843 0.8536
vn -0.9957 0.0791 0.0481
vn -0.5510 0.0173 -0.8344
vn -0.4855 -0.0077 -0.8742
vn -0.9563 0.2892 -0.0438
vn -0.4951 0.0478 0.8675
vn 0.5082 0.1481 0.8484
vn 0.8252 -0.5595 0.0780
vn 0.4476 0.4166 -0.7913
vn -0.0169 0.9997 0.0187
vn 0.0463 0.9974 0.0551
vn 0.0438 0.9974 0.0566
vn -0.0638 0.9969 0.0458
vn -0.0638 0.9972 0.0386
vn -0.0498 0.9977 0.0467
vn 0.0035 0.9994 0.0336
vn -0.0702 0.9975 -0.0090
vn -0.1140 0.9933 0.0165
vn 0.1189 -0.9890 -0.0885
vn 0.0153 -0.9888 -0.1483
vn 0.0155 -0.9959 0.0893
vn 0.1191 -0.9905 0.0691
vn 0.0956 -0.9920 0.0829
vn -0.0862 -0.9960 -0.0220
vn 0.0443 -0.9978 0.0493
vn -0.1410 -0.9883 -0.0579
vn -0.1408 -0.9867 -0.0810
vn 0.0587 -0.9943 0.0890
vn -0.0079 -0.9987 0.0508
vn -0.0079 -0.9977 -0.0674
vn -0.0225 0.9915 -0.1283
vn 0.1194 0.9918 -0.0464
vn -0.0498 0.9974 0.0515
vn 0.1141 0.9864 -0.1184
vn -0.0682 0.9968 0.0408
vn -0.0168 0.9933 -0.1142
vn -0.1316 -0.9906 0.0366
vn 0.0531 -0.9981 -0.0321
vn -0.1263 -0.9906 0.0530
vn 0.1134 -0.9935 0.0100
vn -0.1401 -0.9887 0.0529
vn 0.0871 -0.9948 -0.0534
vn 0.0323 -0.9946 0.0990
vn 0.0996 -0.9940 0.0457
vn -0.0208 -0.9973 -0.0703
vn -0.0073 -0.9970 0.0766
vn 0.0335 -0.9663 -0.2551
vn -0.1248 -0.9760 0.1787
vn 0.0031 0.9988 0.0480
vn 0.0264 0.9989 -0.0389
vn -0.0591 0.9882 -0.1415
vn -0.0576 0.9983 0.0013
vn -0.1042 0.9937 0.0408
vn 0.0830 0.9965 -0.0072
vn -0.0794 0.9818 0.1726
vn -0.0030 0.9966 0.0829
vn 0.0518 0.9941 -0.0955
vt 0.916667 0.750000
vt 0.833333 0.500000
vt 0.916667 0.500000
vt 0.750000 0.750000
vt 0.666667 0.500000
vt 0.750000 0.500000
vt 0.583333 0.750000
vt 0.500000 0.500000
vt 0.583333 0.500000
vt 0.416667 0.750000
vt 0.333333 0.500000
vt 0.416667 0.500000
vt 0.250000 0.490000
vt 0.198038 0.400000
vt 0.301962 0.400000
vt 0.250000 0.750000
vt 0.166667 0.500000
vt 0.250000 0.500000
vt 0.083333 0.750000
vt -0.000000 0.500000
vt 0.083333 0.500000
vt 0.957846 0.370000
vt 0.905885 0.280000
vt 0.853923 0.370000
vt 0.833333 1.000000
vt 0.916667 1.000000
vt 0.666667 1.000000
vt 0.750000 1.000000
vt 0.500000 1.000000
vt 0.583333 1.000000
vt 0.333333 1.000000
vt 0.416667 1.000000
vt 0.457846 0.250000
vt 0.405885 0.220000
vt 0.457846 0.130000
vt 0.146077 0.430000
vt 0.146077 0.070000
vt 0.146077 0.130000
vt 0.042154 0.130000
vt 0.166667 1.000000
vt 0.250000 1.000000
vt -0.000000 1.000000
vt 0.083333 1.000000
vt 0.646077 0.430000
vt 0.646077 0.370000
vt 0.542154 0.370000
vt 0.957846 0.250000
vt 0.646077 0.070000
vt 0.698038 0.100000
vt 0.750000 0.010000
vt 0.542154 0.250000
vt 0.594115 0.280000
vt 0.646077 0.190000
vt 0.594115 0.160000
vt 0.542154 0.130000
vt 0.853923 0.070000
vt 0.801962 0.100000
vt 0.853923 0.190000
vt 0.905885 0.160000
vt 0.957846 0.130000
vt 0.853923 0.430000
vt 0.750000 0.370000
vt 0.750000 0.430000
vt 0.750000 0.490000
vt 0.353923 0.070000
vt 0.353923 0.130000
vt 0.250000 0.130000
vt 0.250000 0.070000
vt 0.250000 0.010000
vt 0.042154 0.250000
vt 0.094115 0.220000
vt 0.146077 0.310000
vt 0.094115 0.340000
vt 0.042154 0.370000
vt 0.353923 0.430000
vt 0.353923 0.310000
vt 0.405885 0.340000
vt 0.457846 0.370000
vt 1.000000 1.000000
vt 0.698038 0.280000
vt 0.801962 0.280000
vt 0.750000 0.190000
vt 0.301962 0.220000
vt 0.250000 0.310000
vt 0.198038 0.220000
vt 1.000000 0.500000
s 0
f 25/1/1 3/2/1 13/3/1
f 26/4/2 5/5/2 15/6/2
f 27/7/3 7/8/3 17/9/3
f 28/10/4 9/11/4 19/12/4
f 2/13/5 38/14/5 43/15/5
f 32/16/6 11/17/6 21/18/6
f 33/19/7 1/20/7 23/21/7
f 3/22/8 41/23/8 46/24/8
f 4/25/9 25/1/9 14/26/9
f 6/27/10 26/4/10 16/28/10
f 8/29/11 27/7/11 18/30/11
f 10/31/12 28/10/12 20/32/12
f 16/33/13 37/34/13 6/35/13
f 24/36/14 38/14/14 2/13/14
f 20/37/15 39/38/15 10/39/15
f 12/40/16 32/16/16 22/41/16
f 2/42/17 33/19/17 24/43/17
f 23/44/18 40/45/18 11/46/18
f 15/47/19 41/23/19 3/22/19
f 19/48/20 42/49/20 7/50/20
f 21/51/21 48/52/21 36/53/21
f 36/53/22 49/54/22 21/51/22
f 9/55/23 49/54/23 19/48/23
f 17/56/24 47/57/24 35/58/24
f 35/58/25 50/59/25 17/56/25
f 5/60/26 50/59/26 15/47/26
f 13/61/27 46/24/27 34/62/27
f 34/62/28 51/63/28 13/61/28
f 1/64/29 51/63/29 23/44/29
f 12/40/30 24/43/30 33/19/30
f 10/31/31 22/41/31 32/16/31
f 18/65/32 45/66/32 31/67/32
f 31/67/33 52/68/33 18/65/33
f 8/69/34 52/68/34 20/37/34
f 22/70/35 44/71/35 30/72/35
f 30/72/36 53/73/36 22/70/36
f 12/74/37 53/73/37 24/36/37
f 14/75/38 43/15/38 29/76/38
f 29/76/39 54/77/39 14/75/39
f 4/78/40 54/77/40 16/33/40
f 8/29/41 20/32/41 28/10/41
f 6/27/42 18/30/42 27/7/42
f 4/25/43 16/28/43 26/4/43
f 2/79/44 14/26/44 25/1/44
f 34/62/45 55/80/45 40/45/45
f 34/62/46 56/81/46 55/80/46
f 35/58/47 47/57/47 57/82/47
f 33/19/48 11/17/48 12/40/48
f 32/16/49 9/11/49 10/31/49
f 29/76/50 58/83/50 37/34/50
f 29/76/51 59/84/51 58/83/51
f 30/72/52 44/71/52 60/85/52
f 28/10/53 7/8/53 8/29/53
f 27/7/54 5/5/54 6/27/54
f 26/4/55 3/2/55 4/25/55
f 25/1/56 1/86/56 2/79/56
f 4/25/57 3/2/57 25/1/57
f 6/27/58 5/5/58 26/4/58
f 8/29/59 7/8/59 27/7/59
f 10/31/60 9/11/60 28/10/60
f 12/40/61 11/17/61 32/16/61
f 2/42/62 1/20/62 33/19/62
f 33/19/63 23/21/63 11/17/63
f 32/16/64 21/18/64 9/11/64
f 28/10/65 19/12/65 7/8/65
f 27/7/66 17/9/66 5/5/66
f 26/4/67 15/6/67 3/2/67
f 25/1/68 13/3/68 1/86/68
f 60/85/69 39/38/69 31/67/69
f 60/85/70 44/71/70 39/38/70
f 44/71/71 10/39/71 39/38/71
f 58/83/72 60/85/72 31/67/72
f 58/83/73 59/84/73 60/85/73
f 59/84/74 30/72/74 60/85/74
f 37/34/75 45/66/75 6/35/75
f 37/34/76 58/83/76 45/66/76
f 58/83/77 31/67/77 45/66/77
f 57/82/78 42/49/78 36/53/78
f 57/82/79 47/57/79 42/49/79
f 47/57/80 7/50/80 42/49/80
f 55/80/81 57/82/81 36/53/81
f 55/80/82 56/81/82 57/82/82
f 56/81/83 35/58/83 57/82/83
f 40/45/84 48/52/84 11/46/84
f 40/45/85 55/80/85 48/52/85
f 55/80/86 36/53/86 48/52/86
f 46/24/87 56/81/87 34/62/87
f 46/24/88 41/23/88 56/81/88
f 41/23/89 35/58/89 56/81/89
f 43/15/90 59/84/90 29/76/90
f 43/15/91 38/14/91 59/84/91
f 38/14/92 30/72/92 59/84/92
f 16/33/93 29/76/93 37/34/93
f 24/36/94 30/72/94 38/14/94
f 20/37/95 31/67/95 39/38/95
f 23/44/96 34/62/96 40/45/96
f 15/47/97 35/58/97 41/23/97
f 19/48/98 36/53/98 42/49/98
f 21/51/99 11/46/99 48/52/99
f 36/53/100 19/48/100 49/54/100
f 9/55/101 21/51/101 49/54/101
f 17/56/102 7/50/102 47/57/102
f 35/58/103 15/47/103 50/59/103
f 5/60/104 17/56/104 50/59/104
f 13/61/105 3/22/105 46/24/105
f 34/62/106 23/44/106 51/63/106
f 1/64/107 13/61/107 51/63/107
f 18/65/108 6/35/108 45/66/108
f 31/67/109 20/37/109 52/68/109
f 8/69/110 18/65/110 52/68/110
f 22/70/111 10/39/111 44/71/111
f 30/72/112 24/36/112 53/73/112
f 12/74/113 22/70/113 53/73/113
f 14/75/114 2/13/114 43/15/114
f 29/76/115 16/33/115 54/77/115
f 4/78/116 14/75/116 54/77/116
