# Blender 4.3.0
# www.blender.org
o Cylinder
v 0.000000 -2.614849 -25.149191
v 0.000000 3.246537 -25.969765
v 22.314590 -3.090192 -12.883335
v 22.037205 2.843619 -12.723186
v 21.399725 -2.276968 12.355137
v 20.998789 1.920572 12.123656
v 0.000000 -2.056000 24.423235
v 0.000000 2.501251 25.001625
v -21.028818 -1.947271 12.140994
v -20.891806 1.825475 12.061890
v -21.591377 -2.447326 -12.465788
v -21.004375 1.925544 -12.126883
v 10.857158 -2.563680 -18.805149
v 11.192343 3.234042 -19.385706
v 21.422747 -2.272114 0.000000
v 22.519215 3.368571 0.000000
v 10.933822 -2.717006 18.937935
v 10.522546 1.894463 18.225584
v -11.066326 -2.982013 19.167440
v -11.083182 3.015725 19.196636
v -21.267635 -2.117005 0.000000
v -21.153629 2.003000 0.000000
v -11.191328 -3.232014 -19.383949
v -10.400831 1.651037 -18.014769
v 10.404602 0.000000 -18.021299
v 20.642122 0.000000 0.000000
v 11.182472 0.000000 19.368610
v -11.155583 0.000000 19.322037
v 10.825317 2.338103 -6.250000
v -10.825317 1.686903 -6.250000
v 0.000000 3.028113 12.500000
v -22.253689 0.000000 0.000000
v -11.123542 0.000000 -19.266539
v 0.000000 -1.664041 -12.500000
v 10.825317 -2.646037 6.250000
v -10.825317 -1.875615 6.250000
v 16.237976 3.393113 3.125000
v -5.412659 2.836063 -15.625000
v -10.825317 1.251091 12.500000
v -10.825317 -2.359858 -12.500000
v 16.237976 -3.025442 -3.125000
v -5.412659 -1.865240 15.625000
v 5.412659 3.561811 -15.625000
v -16.237976 2.816767 3.125000
v 10.825317 2.252555 12.500000
v 10.825317 -1.844582 -12.500000
v 5.412659 -3.056358 15.625000
v -16.237976 -1.545336 -3.125000
v -16.237976 -3.532627 9.375000
v 16.237976 -1.889813 9.375000
v 0.000000 -1.386972 -18.750000
v 0.000000 1.520236 18.750000
v -16.237976 2.323050 -9.375000
v 16.237976 1.838242 -9.375000
v -5.412659 -2.740805 -3.125000
v 5.412659 -1.278835 -3.125000
v 0.000000 -3.541111 6.250000
v 5.412659 2.678144 3.125000
v 0.000000 3.420496 -6.250000
v -5.412659 2.597564 3.125000
vn 0.4450 0.3328 -0.8314
vn 0.9457 0.3249 0.0019
vn 0.4324 -0.1796 0.8836
vn -0.5795 -0.0595 0.8128
vn -0.0669 0.9977 0.0046
vn -0.9059 -0.4220 0.0347
vn -0.4594 0.0419 -0.8873
vn -0.1096 -0.9921 -0.0617
vn 0.4591 -0.4379 -0.7730
vn 0.8724 -0.4861 0.0513
vn 0.4677 0.5703 0.6752
vn -0.5913 0.0477 0.8050
vn 0.0668 0.9897 0.1266
vn -0.2005 0.9775 -0.0661
vn 0.0661 0.9655 -0.2519
vn -0.8764 0.4813 -0.0139
vn -0.5228 0.6484 -0.5534
vn 0.0085 -0.9921 0.1252
vn 0.1019 -0.9923 0.0701
vn 0.1309 -0.9861 -0.1019
vn 0.0672 -0.9950 -0.0739
vn 0.1604 -0.9596 -0.2310
vn -0.2197 -0.9606 0.1700
vn 0.0650 -0.9979 -0.0061
vn 0.1422 -0.9898 -0.0068
vn -0.0745 -0.9972 -0.0005
vn -0.0166 -0.9934 0.1132
vn -0.1079 -0.9932 -0.0440
vn 0.1495 -0.9710 0.1863
vn -0.3523 0.6585 -0.6651
vn -0.8762 0.4812 0.0261
vn 0.0713 0.9953 0.0660
vn -0.0229 0.9719 0.2345
vn 0.1260 0.9800 -0.1538
vn -0.0641 0.9857 -0.1558
vn 0.0747 0.9945 0.0731
vn -0.0276 0.9950 -0.0960
vn 0.1022 0.9923 0.0705
vn 0.1324 0.9886 0.0711
vn -0.1894 0.9813 -0.0333
vn -0.4617 0.0479 0.8857
vn 0.4119 0.5716 0.7096
vn 0.8735 -0.4867 -0.0130
vn 0.4555 -0.4379 -0.7751
vn 0.0640 -0.9950 -0.0774
vn 0.1337 -0.9903 -0.0365
vn 0.0824 -0.9966 0.0040
vn -0.5621 0.1386 -0.8153
vn -0.9936 0.0383 0.1064
vn -0.0657 0.9951 -0.0740
vn 0.0995 0.9948 0.0213
vn 0.0201 0.9939 -0.1082
vn -0.4304 -0.1136 0.8954
vn 0.5781 0.0999 0.8098
vn 0.9920 0.0432 0.1184
vn 0.5807 -0.1129 -0.8063
vn 0.4052 0.0436 -0.9132
vn 0.9947 0.0926 -0.0439
vn 0.4265 -0.1139 0.8973
vn -0.5927 0.0384 0.8045
vn -0.9871 0.1387 -0.0797
vn -0.4862 -0.1212 -0.8654
vn -0.5512 0.0418 -0.8333
vn -0.9062 -0.4221 0.0237
vn -0.4242 -0.0595 0.9036
vn 0.5291 -0.1799 0.8293
vn 0.9448 0.3246 0.0448
vn 0.4746 0.3329 -0.8148
vn -0.1618 0.9856 0.0481
vn 0.0200 0.9880 0.1534
vn 0.0505 0.9894 0.1361
vn -0.0074 0.9991 -0.0416
vn -0.0074 0.9965 0.0832
vn -0.1581 0.9874 -0.0046
vn 0.0375 0.9892 0.1420
vn -0.0657 0.9944 0.0831
vn 0.0715 0.9974 0.0040
vn -0.1515 -0.9845 0.0885
vn -0.1087 -0.9875 0.1138
vn -0.1093 -0.9930 0.0457
vn -0.1521 -0.9884 0.0034
vn 0.1321 -0.9783 -0.1598
vn 0.0809 -0.9786 -0.1894
vn 0.0084 -0.9958 0.0914
vn -0.1097 -0.9937 0.0230
vn -0.1097 -0.9936 0.0283
vn -0.0167 -0.9986 0.0506
vn -0.1592 -0.9867 -0.0324
vn -0.1591 -0.9859 -0.0519
vn 0.0992 0.9924 0.0723
vn -0.0669 0.9975 -0.0236
vn -0.1581 0.9870 0.0297
vn -0.0403 0.9952 -0.0888
vn -0.2261 0.9740 -0.0111
vn -0.1565 0.9536 -0.2573
vn 0.0637 -0.9905 0.1221
vn 0.0890 -0.9918 0.0915
vn 0.1436 -0.9863 -0.0818
vn 0.1270 -0.9916 0.0230
vn 0.2504 -0.9650 -0.0780
vn -0.3040 -0.9525 0.0193
vn -0.0049 -0.9939 0.1100
vn 0.0874 -0.9922 0.0888
vn -0.0189 -0.9951 -0.0966
vn -0.1034 -0.9883 0.1122
vn 0.1649 -0.9853 -0.0437
vn -0.1049 -0.9767 0.1874
vn 0.0349 0.9973 0.0642
vn 0.1393 0.9626 0.2322
vn -0.0428 0.9870 -0.1549
vn -0.1746 0.9845 0.0183
vn 0.1161 0.9932 0.0012
vn -0.0789 0.9969 -0.0073
vn 0.0275 0.9986 -0.0448
vn -0.0013 0.9871 -0.1602
vn -0.0707 0.9825 0.1726
vt 0.916667 0.750000
vt 0.833333 0.500000
vt 0.916667 0.500000
vt 0.750000 0.750000
vt 0.666667 0.500000
vt 0.750000 0.500000
vt 0.583333 0.750000
vt 0.500000 0.500000
vt 0.583333 0.500000
vt 0.416667 0.750000
vt 0.333333 0.500000
vt 0.416667 0.500000
vt 0.250000 0.490000
vt 0.198038 0.400000
vt 0.301962 0.400000
vt 0.250000 0.750000
vt 0.166667 0.500000
vt 0.250000 0.500000
vt 0.083333 0.750000
vt -0.000000 0.500000
vt 0.083333 0.500000
vt 0.957846 0.370000
vt 0.905885 0.280000
vt 0.853923 0.370000
vt 0.833333 1.000000
vt 0.916667 1.000000
vt 0.666667 1.000000
vt 0.750000 1.000000
vt 0.500000 1.000000
vt 0.583333 1.000000
vt 0.333333 1.000000
vt 0.416667 1.000000
vt 0.457846 0.250000
vt 0.405885 0.220000
vt 0.457846 0.130000
vt 0.146077 0.430000
vt 0.146077 0.070000
vt 0.146077 0.130000
vt 0.042154 0.130000
vt 0.166667 1.000000
vt 0.250000 1.000000
vt -0.000000 1.000000
vt 0.083333 1.000000
vt 0.646077 0.430000
vt 0.646077 0.370000
vt 0.542154 0.370000
vt 0.957846 0.250000
vt 0.646077 0.070000
vt 0.698038 0.100000
vt 0.750000 0.010000
vt 0.542154 0.250000
vt 0.594115 0.280000
vt 0.646077 0.190000
vt 0.594115 0.160000
vt 0.542154 0.130000
vt 0.853923 0.070000
vt 0.801962 0.100000
vt 0.853923 0.190000
vt 0.905885 0.160000
vt 0.957846 0.130000
vt 0.853923 0.430000
vt 0.750000 0.370000
vt 0.750000 0.430000
vt 0.750000 0.490000
vt 0.353923 0.070000
vt 0.353923 0.130000
vt 0.250000 0.130000
vt 0.250000 0.070000
vt 0.250000 0.010000
vt 0.042154 0.250000
vt 0.094115 0.220000
vt 0.146077 0.310000
vt 0.094115 0.340000
vt 0.042154 0.370000
vt 0.353923 0.430000
vt 0.353923 0.310000
vt 0.405885 0.340000
vt 0.457846 0.370000
vt 1.000000 1.000000
vt 0.698038 0.280000
vt 0.801962 0.280000
vt 0.750000 0.190000
vt 0.301962 0.220000
vt 0.250000 0.310000
vt 0.198038 0.220000
vt 1.000000 0.500000
s 0
f 25/1/1 3/2/1 13/3/1
f 26/4/2 5/5/2 15/6/2
f 27/7/3 7/8/3 17/9/3
f 28/10/4 9/11/4 19/12/4
f 2/13/5 38/14/5 43/15/5
f 32/16/6 11/17/6 21/18/6
f 33/19/7 1/20/7 23/21/7
f 3/22/8 41/23/8 46/24/8
f 4/25/9 25/1/9 14/26/9
f 6/27/10 26/4/10 16/28/10
f 8/29/11 27/7/11 18/30/11
f 10/31/12 28/10/12 20/32/12
f 16/33/13 37/34/13 6/35/13
f 24/36/14 38/14/14 2/13/14
f 20/37/15 39/38/15 10/39/15
f 12/40/16 32/16/16 22/41/16
f 2/42/17 33/19/17 24/43/17
f 23/44/18 40/45/18 11/46/18
f 15/47/19 41/23/19 3/22/19
f 19/48/20 42/49/20 7/50/20
f 21/51/21 48/52/21 36/53/21
f 36/53/22 49/54/22 21/51/22
f 9/55/23 49/54/23 19/48/23
f 17/56/24 47/57/24 35/58/24
f 35/58/25 50/59/25 17/56/25
f 5/60/26 50/59/26 15/47/26
f 13/61/27 46/24/27 34/62/27
f 34/62/28 51/63/28 13/61/28
f 1/64/29 51/63/29 23/44/29
f 12/40/30 24/43/30 33/19/30
f 10/31/31 22/41/31 32/16/31
f 18/65/32 45/66/32 31/67/32
f 31/67/33 52/68/33 18/65/33
f 8/69/34 52/68/34 20/37/34
f 22/70/35 44/71/35 30/72/35
f 30/72/36 53/73/36 22/70/36
f 12/74/37 53/73/37 24/36/37
f 14/75/38 43/15/38 29/76/38
f 29/76/39 54/77/39 14/75/39
f 4/78/40 54/77/40 16/33/40
f 8/29/41 20/32/41 28/10/41
f 6/27/42 18/30/42 27/7/42
f 4/25/43 16/28/43 26/4/43
f 2/79/44 14/26/44 25/1/44
f 34/62/45 55/80/45 40/45/45
f 34/62/46 56/81/46 55/80/46
f 35/58/47 47/57/47 57/82/47
f 33/19/48 11/17/48 12/40/48
f 32/16/49 9/11/49 10/31/49
f 29/76/50 58/83/50 37/34/50
f 29/76/51 59/84/51 58/83/51
f 30/72/52 44/71/52 60/85/52
f 28/10/53 7/8/53 8/29/53
f 27/7/54 5/5/54 6/27/54
f 26/4/55 3/2/55 4/25/55
f 25/1/56 1/86/56 2/79/56
f 4/25/57 3/2/57 25/1/57
f 6/27/58 5/5/58 26/4/58
f 8/29/59 7/8/59 27/7/59
f 10/31/60 9/11/60 28/10/60
f 12/40/61 11/17/61 32/16/61
f 2/42/62 1/20/62 33/19/62
f 33/19/63 23/21/63 11/17/63
f 32/16/64 21/18/64 9/11/64
f 28/10/65 19/12/65 7/8/65
f 27/7/66 17/9/66 5/5/66
f 26/4/67 15/6/67 3/2/67
f 25/1/68 13/3/68 1/86/68
f 60/85/69 39/38/69 31/67/69
f 60/85/70 44/71/70 39/38/70
f 44/71/71 10/39/71 39/38/71
f 58/83/72 60/85/72 31/67/72
f 58/83/73 59/84/73 60/85/73
f 59/84/74 30/72/74 60/85/74
f 37/34/75 45/66/75 6/35/75
f 37/34/76 58/83/76 45/66/76
f 58/83/77 31/67/77 45/66/77
f 57/82/78 42/49/78 36/53/78
f 57/82/79 47/57/79 42/49/79
f 47/57/80 7/50/80 42/49/80
f 55/80/81 57/82/81 36/53/81
f 55/80/82 56/81/82 57/82/82
f 56/81/83 35/58/83 57/82/83
f 40/45/84 48/52/84 11/46/84
f 40/45/85 55/80/85 48/52/85
f 55/80/86 36/53/86 48/52/86
f 46/24/87 56/81/87 34/62/87
f 46/24/88 41/23/88 56/81/88
f 41/23/89 35/58/89 56/81/89
f 43/15/90 59/84/90 29/76/90
f 43/15/91 38/14/91 59/84/91
f 38/14/92 30/72/92 59/84/92
f 16/33/93 29/76/93 37/34/93
f 24/36/94 30/72/94 38/14/94
f 20/37/95 31/67/95 39/38/95
f 23/44/96 34/62/96 40/45/96
f 15/47/97 35/58/97 41/23/97
f 19/48/98 36/53/98 42/49/98
f 21/51/99 11/46/99 48/52/99
f 36/53/100 19/48/100 49/54/100
f 9/55/101 21/51/101 49/54/101
f 17/56/102 7/50/102 47/57/102
f 35/58/103 15/47/103 50/59/103
f 5/60/104 17/56/104 50/59/104
f 13/61/105 3/22/105 46/24/105
f 34/62/106 23/44/106 51/63/106
f 1/64/107 13/61/107 51/63/107
f 18/65/108 6/35/108 45/66/108
f 31/67/109 20/37/109 52/68/109
f 8/69/110 18/65/110 52/68/110
f 22/70/111 10/39/111 44/71/111
f 30/72/112 24/36/112 53/73/112
f 12/74/113 22/70/113 53/73/113
f 14/75/114 2/13/114 43/15/114
f 29/76/115 16/33/115 54/77/115
f 4/78/116 14/75/116 54/77/116
