# Blender 4.3.0
# www.blender.org
o Cylinder
v 0.000000 -1.988175 -24.335123
v 0.000000 3.036520 -25.696949
v 21.101503 -2.011876 -12.182959
v 21.160627 2.064435 -12.217094
v 22.497444 -3.252724 12.988906
v 22.086233 2.887205 12.751493
v 0.000000 -2.921152 25.547085
v 0.000000 3.194408 25.902058
v -21.525000 -2.388324 12.427464
v -22.110508 2.908783 12.765508
v -22.450787 -3.211257 -12.961967
v -21.945312 2.761938 -12.670133
v 10.690866 -2.231100 -18.517122
v 10.390224 1.629823 -17.996397
v 22.464041 -3.313398 0.000000
v 21.903307 2.752669 0.000000
v 10.735253 -2.319874 18.594006
v 10.740426 2.330219 18.602964
v -11.179173 -3.207702 19.362894
v -10.422925 1.695223 18.053036
v -20.911921 -1.761294 0.000000
v -21.233513 2.082882 0.000000
v -10.630890 -2.111149 -18.413242
v -10.809065 2.467494 -18.721849
v 10.363125 0.000000 -17.949459
v 21.347452 0.000000 0.000000
v 10.314914 0.000000 17.865955
v -10.622252 0.000000 18.398281
v 10.825317 1.439007 -6.250000
v -10.825317 1.363254 -6.250000
v 0.000000 3.362796 12.500000
v -22.560673 0.000000 0.000000
v -10.984344 0.000000 -19.025440
v 0.000000 -2.008563 -12.500000
v 10.825317 -2.796003 6.250000
v -10.825317 -3.283236 6.250000
v 16.237976 2.794285 3.125000
v -5.412659 3.502142 -15.625000
v -10.825317 3.010741 12.500000
v -10.825317 -1.835991 -12.500000
v 16.237976 -3.334028 -3.125000
v -5.412659 -1.515846 15.625000
v 5.412659 3.366735 -15.625000
v -16.237976 3.058874 3.125000
v 10.825317 1.257994 12.500000
v 10.825317 -1.395111 -12.500000
v 5.412659 -1.598502 15.625000
v -16.237976 -2.062233 -3.125000
v -16.237976 -3.566128 9.375000
v 16.237976 -3.085707 9.375000
v 0.000000 -3.195959 -18.750000
v 0.000000 2.201632 18.750000
v -16.237976 1.962736 -9.375000
v 16.237976 2.764150 -9.375000
v -5.412659 -3.629975 -3.125000
v 5.412659 -1.966331 -3.125000
v 0.000000 -3.235297 6.250000
v 5.412659 1.748738 3.125000
v 0.000000 1.741737 -6.250000
v -5.412659 2.806443 3.125000
vn 0.4944 0.2818 -0.8223
vn 0.9476 0.3193 -0.0039
vn 0.4976 0.3405 0.7978
vn -0.5080 0.3277 0.7966
vn 0.0125 0.9991 -0.0395
vn -0.7205 -0.6745 0.1610
vn -0.4587 -0.3175 -0.8300
vn -0.0537 -0.9836 -0.1724
vn 0.4736 -0.0332 -0.8801
vn 0.9801 -0.1979 -0.0120
vn 0.5090 -0.3427 0.7896
vn -0.3817 0.2273 0.8959
vn 0.0015 0.9999 -0.0106
vn -0.1245 0.9858 -0.1125
vn -0.0034 0.9730 0.2307
vn -0.8409 0.5358 0.0760
vn -0.5420 0.1404 -0.8285
vn 0.1154 -0.9921 0.0500
vn 0.0598 -0.9918 -0.1126
vn 0.1438 -0.9659 -0.2153
vn -0.1084 -0.9919 -0.0666
vn -0.0450 -0.9849 -0.1672
vn -0.1535 -0.9817 0.1130
vn -0.1544 -0.9873 0.0370
vn -0.0752 -0.9964 0.0379
vn -0.0294 -0.9996 0.0047
vn 0.0561 -0.9891 0.1362
vn 0.0843 -0.9789 0.1860
vn -0.1058 -0.9719 -0.2102
vn -0.4699 0.1406 -0.8715
vn -0.8398 0.5351 -0.0923
vn 0.1882 0.9678 -0.1674
vn -0.0093 0.9831 0.1827
vn -0.0389 0.9898 -0.1374
vn -0.0590 0.9758 -0.2105
vn 0.0899 0.9953 0.0352
vn 0.0808 0.9916 0.1005
vn 0.3308 0.9437 0.0031
vn -0.2246 0.9742 0.0241
vn 0.1051 0.9925 -0.0623
vn -0.6065 0.2265 0.7621
vn 0.4438 -0.3429 0.8279
vn 0.9791 -0.1977 -0.0484
vn 0.5922 -0.0330 -0.8051
vn -0.0157 -0.9837 -0.1792
vn 0.1514 -0.9850 -0.0830
vn 0.0401 -0.9880 0.1493
vn -0.4840 0.0835 -0.8711
vn -0.9917 -0.1135 0.0608
vn -0.0958 0.9915 -0.0880
vn 0.0280 0.9995 -0.0169
vn 0.0230 0.9860 -0.1651
vn -0.5667 -0.0477 0.8225
vn 0.3850 0.0614 0.9209
vn 0.9997 -0.0146 -0.0178
vn 0.5420 -0.2198 -0.8111
vn 0.4710 -0.0142 -0.8820
vn 0.9953 0.0639 -0.0721
vn 0.6050 -0.0461 0.7949
vn -0.4594 -0.1071 0.8817
vn -0.9959 0.0857 -0.0297
vn -0.4571 -0.2327 -0.8585
vn -0.3730 -0.3155 -0.8725
vn -0.7282 -0.6817 -0.0703
vn -0.4637 0.3280 0.8230
vn 0.4264 0.3403 0.8381
vn 0.9452 0.3185 -0.0717
vn 0.4636 0.2818 -0.8400
vn -0.0325 0.9987 -0.0405
vn 0.0233 0.9997 -0.0083
vn -0.0088 0.9999 0.0102
vn 0.0966 0.9887 -0.1144
vn 0.0971 0.9937 -0.0568
vn -0.0346 0.9906 -0.1325
vn -0.1445 0.9864 0.0782
vn -0.0956 0.9897 0.1070
vn 0.1905 0.9799 -0.0587
vn 0.0044 -0.9831 0.1828
vn -0.0075 -0.9843 0.1762
vn -0.0076 -0.9907 -0.1362
vn 0.0044 -0.9992 0.0395
vn 0.1517 -0.9873 -0.0460
vn 0.0403 -0.9930 -0.1111
vn 0.1157 -0.9924 0.0428
vn -0.1425 -0.9841 -0.1060
vn -0.1432 -0.9886 -0.0461
vn 0.0566 -0.9980 -0.0282
vn -0.1243 -0.9835 -0.1317
vn -0.1253 -0.9920 -0.0154
vn 0.0275 0.9821 0.1861
vn 0.0123 0.9840 0.1777
vn -0.0342 0.9785 0.2035
vn -0.0545 0.9922 -0.1120
vn -0.2347 0.9683 0.0854
vn -0.0316 0.9721 0.2326
vn -0.0159 -0.9988 0.0460
vn -0.0197 -0.9988 0.0459
vn 0.2894 -0.9571 0.0133
vn 0.0096 -0.9939 0.1100
vn 0.0564 -0.9984 0.0073
vn -0.2505 -0.9662 -0.0611
vn -0.0463 -0.9866 -0.1568
vn -0.0488 -0.9988 -0.0081
vn -0.0554 -0.9972 0.0498
vn -0.0636 -0.9883 0.1387
vn -0.0939 -0.9781 0.1858
vn 0.0924 -0.9732 -0.2105
vn -0.1372 0.9753 -0.1733
vn -0.0599 0.9814 0.1823
vn -0.0137 0.9904 -0.1375
vn -0.1465 0.9864 -0.0739
vn 0.0593 0.9943 0.0881
vn 0.1119 0.9926 0.0469
vn 0.2529 0.9529 -0.1671
vn -0.1770 0.9782 0.1082
vn 0.0469 0.9858 -0.1615
vt 0.916667 0.750000
vt 0.833333 0.500000
vt 0.916667 0.500000
vt 0.750000 0.750000
vt 0.666667 0.500000
vt 0.750000 0.500000
vt 0.583333 0.750000
vt 0.500000 0.500000
vt 0.583333 0.500000
vt 0.416667 0.750000
vt 0.333333 0.500000
vt 0.416667 0.500000
vt 0.250000 0.490000
vt 0.198038 0.400000
vt 0.301962 0.400000
vt 0.250000 0.750000
vt 0.166667 0.500000
vt 0.250000 0.500000
vt 0.083333 0.750000
vt -0.000000 0.500000
vt 0.083333 0.500000
vt 0.957846 0.370000
vt 0.905885 0.280000
vt 0.853923 0.370000
vt 0.833333 1.000000
vt 0.916667 1.000000
vt 0.666667 1.000000
vt 0.750000 1.000000
vt 0.500000 1.000000
vt 0.583333 1.000000
vt 0.333333 1.000000
vt 0.416667 1.000000
vt 0.457846 0.250000
vt 0.405885 0.220000
vt 0.457846 0.130000
vt 0.146077 0.430000
vt 0.146077 0.070000
vt 0.146077 0.130000
vt 0.042154 0.130000
vt 0.166667 1.000000
vt 0.250000 1.000000
vt -0.000000 1.000000
vt 0.083333 1.000000
vt 0.646077 0.430000
vt 0.646077 0.370000
vt 0.542154 0.370000
vt 0.957846 0.250000
vt 0.646077 0.070000
vt 0.698038 0.100000
vt 0.750000 0.010000
vt 0.542154 0.250000
vt 0.594115 0.280000
vt 0.646077 0.190000
vt 0.594115 0.160000
vt 0.542154 0.130000
vt 0.853923 0.070000
vt 0.801962 0.100000
vt 0.853923 0.190000
vt 0.905885 0.160000
vt 0.957846 0.130000
vt 0.853923 0.430000
vt 0.750000 0.370000
vt 0.750000 0.430000
vt 0.750000 0.490000
vt 0.353923 0.070000
vt 0.353923 0.130000
vt 0.250000 0.130000
vt 0.250000 0.070000
vt 0.250000 0.010000
vt 0.042154 0.250000
vt 0.094115 0.220000
vt 0.146077 0.310000
vt 0.094115 0.340000
vt 0.042154 0.370000
vt 0.353923 0.430000
vt 0.353923 0.310000
vt 0.405885 0.340000
vt 0.457846 0.370000
vt 1.000000 1.000000
vt 0.698038 0.280000
vt 0.801962 0.280000
vt 0.750000 0.190000
vt 0.301962 0.220000
vt 0.250000 0.310000
vt 0.198038 0.220000
vt 1.000000 0.500000
s 0
f 25/1/1 3/2/1 13/3/1
f 26/4/2 5/5/2 15/6/2
f 27/7/3 7/8/3 17/9/3
f 28/10/4 9/11/4 19/12/4
f 2/13/5 38/14/5 43/15/5
f 32/16/6 11/17/6 21/18/6
f 33/19/7 1/20/7 23/21/7
f 3/22/8 41/23/8 46/24/8
f 4/25/9 25/1/9 14/26/9
f 6/27/10 26/4/10 16/28/10
f 8/29/11 27/7/11 18/30/11
f 10/31/12 28/10/12 20/32/12
f 16/33/13 37/34/13 6/35/13
f 24/36/14 38/14/14 2/13/14
f 20/37/15 39/38/15 10/39/15
f 12/40/16 32/16/16 22/41/16
f 2/42/17 33/19/17 24/43/17
f 23/44/18 40/45/18 11/46/18
f 15/47/19 41/23/19 3/22/19
f 19/48/20 42/49/20 7/50/20
f 21/51/21 48/52/21 36/53/21
f 36/53/22 49/54/22 21/51/22
f 9/55/23 49/54/23 19/48/23
f 17/56/24 47/57/24 35/58/24
f 35/58/25 50/59/25 17/56/25
f 5/60/26 50/59/26 15/47/26
f 13/61/27 46/24/27 34/62/27
f 34/62/28 51/63/28 13/61/28
f 1/64/29 51/63/29 23/44/29
f 12/40/30 24/43/30 33/19/30
f 10/31/31 22/41/31 32/16/31
f 18/65/32 45/66/32 31/67/32
f 31/67/33 52/68/33 18/65/33
f 8/69/34 52/68/34 20/37/34
f 22/70/35 44/71/35 30/72/35
f 30/72/36 53/73/36 22/70/36
f 12/74/37 53/73/37 24/36/37
f 14/75/38 43/15/38 29/76/38
f 29/76/39 54/77/39 14/75/39
f 4/78/40 54/77/40 16/33/40
f 8/29/41 20/32/41 28/10/41
f 6/27/42 18/30/42 27/7/42
f 4/25/43 16/28/43 26/4/43
f 2/79/44 14/26/44 25/1/44
f 34/62/45 55/80/45 40/45/45
f 34/62/46 56/81/46 55/80/46
f 35/58/47 47/57/47 57/82/47
f 33/19/48 11/17/48 12/40/48
f 32/16/49 9/11/49 10/31/49
f 29/76/50 58/83/50 37/34/50
f 29/76/51 59/84/51 58/83/51
f 30/72/52 44/71/52 60/85/52
f 28/10/53 7/8/53 8/29/53
f 27/7/54 5/5/54 6/27/54
f 26/4/55 3/2/55 4/25/55
f 25/1/56 1/86/56 2/79/56
f 4/25/57 3/2/57 25/1/57
f 6/27/58 5/5/58 26/4/58
f 8/29/59 7/8/59 27/7/59
f 10/31/60 9/11/60 28/10/60
f 12/40/61 11/17/61 32/16/61
f 2/42/62 1/20/62 33/19/62
f 33/19/63 23/21/63 11/17/63
f 32/16/64 21/18/64 9/11/64
f 28/10/65 19/12/65 7/8/65
f 27/7/66 17/9/66 5/5/66
f 26/4/67 15/6/67 3/2/67
f 25/1/68 13/3/68 1/86/68
f 60/85/69 39/38/69 31/67/69
f 60/85/70 44/71/70 39/38/70
f 44/71/71 10/39/71 39/38/71
f 58/83/72 60/85/72 31/67/72
f 58/83/73 59/84/73 60/85/73
f 59/84/74 30/72/74 60/85/74
f 37/34/75 45/66/75 6/35/75
f 37/34/76 58/83/76 45/66/76
f 58/83/77 31/67/77 45/66/77
f 57/82/78 42/49/78 36/53/78
f 57/82/79 47/57/79 42/49/79
f 47/57/80 7/50/80 42/49/80
f 55/80/81 57/82/81 36/53/81
f 55/80/82 56/81/82 57/82/82
f 56/81/83 35/58/83 57/82/83
f 40/45/84 48/52/84 11/46/84
f 40/45/85 55/80/85 48/52/85
f 55/80/86 36/53/86 48/52/86
f 46/24/87 56/81/87 34/62/87
f 46/24/88 41/23/88 56/81/88
f 41/23/89 35/58/89 56/81/89
f 43/15/90 59/84/90 29/76/90
f 43/15/91 38/14/91 59/84/91
f 38/14/92 30/72/92 59/84/92
f 16/33/93 29/76/93 37/34/93
f 24/36/94 30/72/94 38/14/94
f 20/37/95 31/67/95 39/38/95
f 23/44/96 34/62/96 40/45/96
f 15/47/97 35/58/97 41/23/97
f 19/48/98 36/53/98 42/49/98
f 21/51/99 11/46/99 48/52/99
f 36/53/100 19/48/100 49/54/100
f 9/55/101 21/51/101 49/54/101
f 17/56/102 7/50/102 47/57/102
f 35/58/103 15/47/103 50/59/103
f 5/60/104 17/56/104 50/59/104
f 13/61/105 3/22/105 46/24/105
f 34/62/106 23/44/106 51/63/106
f 1/64/107 13/61/107 51/63/107
f 18/65/108 6/35/108 45/66/108
f 31/67/109 20/37/109 52/68/109
f 8/69/110 18/65/110 52/68/110
f 22/70/111 10/39/111 44/71/111
f 30/72/112 24/36/112 53/73/112
f 12/74/113 22/70/113 53/73/113
f 14/75/114 2/13/114 43/15/114
f 29/76/115 16/33/115 54/77/115
f 4/78/116 14/75/116 54/77/116
