# Blender 4.3.0
# www.blender.org
o Cylinder
v 0.000000 -2.374247 -24.836643
v 0.000000 2.202478 -24.613514
v 22.030752 -2.837888 -12.719460
v 21.401972 2.278965 -12.356434
v 20.795444 -1.739827 12.006256
v 21.709562 2.552382 12.534022
v 0.000000 -2.773624 25.355442
v 0.000000 2.283641 24.718943
v -21.596640 -2.452003 12.468825
v -21.462738 2.332978 12.391518
v -20.844389 -1.783325 -12.034513
v -22.057911 2.862026 -12.735142
v 10.594111 -2.037593 -18.349541
v 10.749299 2.347965 -18.618332
v 21.150698 -2.000069 0.000000
v 21.796984 2.646348 0.000000
v 10.974788 -2.798938 19.008890
v 10.557179 1.963730 18.285572
v -11.019624 -2.888609 19.086550
v -10.966185 2.781731 18.993988
v -21.769846 -2.619211 0.000000
v -20.933475 1.782848 0.000000
v -10.991234 -2.831829 -19.037374
v -10.559788 1.968947 -18.290091
v 10.297663 0.000000 -17.836075
v 20.926813 0.000000 0.000000
v 10.489568 0.000000 18.168465
v -11.080596 0.000000 19.192156
v 10.825317 2.257668 -6.250000
v -10.825317 1.818066 -6.250000
v 0.000000 3.097192 12.500000
v -21.009796 0.000000 0.000000
v -11.089673 0.000000 -19.207878
v 0.000000 -3.746005 -12.500000
v 10.825317 -2.686219 6.250000
v -10.825317 -3.448988 6.250000
v 16.237976 2.593152 3.125000
v -5.412659 2.256644 -15.625000
v -10.825317 2.618352 12.500000
v -10.825317 -3.156048 -12.500000
v 16.237976 -1.944859 -3.125000
v -5.412659 -2.792766 15.625000
v 5.412659 2.201735 -15.625000
v -16.237976 2.017238 3.125000
v 10.825317 1.308186 12.500000
v 10.825317 -3.515494 -12.500000
v 5.412659 -1.863896 15.625000
v -16.237976 -3.472865 -3.125000
v -16.237976 -1.561002 9.375000
v 16.237976 -3.601397 9.375000
v 0.000000 -1.321515 -18.750000
v 0.000000 3.369471 18.750000
v -16.237976 2.271349 -9.375000
v 16.237976 1.589460 -9.375000
v -5.412659 -2.028271 -3.125000
v 5.412659 -2.567128 -3.125000
v 0.000000 -3.202135 6.250000
v 5.412659 1.277760 3.125000
v 0.000000 3.264048 -6.250000
v -5.412659 2.452113 3.125000
vn 0.4398 0.2791 -0.8536
vn 0.9934 0.1112 0.0270
vn 0.4735 0.3276 0.8176
vn -0.5312 -0.0421 0.8462
vn 0.0051 1.0000 -0.0030
vn -0.9590 0.2783 -0.0544
vn -0.4633 -0.0693 -0.8835
vn 0.0624 -0.9896 0.1298
vn 0.4712 -0.3590 -0.8056
vn 0.9500 -0.3124 0.0043
vn 0.5176 -0.0687 0.8528
vn -0.5332 0.0819 0.8420
vn -0.0054 1.0000 0.0075
vn -0.0402 0.9987 -0.0302
vn -0.0265 0.9993 -0.0257
vn -0.9949 0.0426 0.0915
vn -0.4601 0.4738 -0.7509
vn -0.1377 -0.9894 -0.0456
vn -0.0507 -0.9968 0.0621
vn 0.0136 -0.9999 -0.0056
vn -0.1143 -0.9911 0.0685
vn -0.2016 -0.9529 0.2265
vn 0.0656 -0.9833 -0.1696
vn -0.1617 -0.9868 -0.0068
vn -0.1629 -0.9866 -0.0068
vn 0.3626 -0.9314 0.0309
vn 0.0206 -0.9691 -0.2457
vn -0.0493 -0.9312 -0.3612
vn 0.1298 -0.9770 0.1690
vn -0.3536 0.4717 -0.8078
vn -0.9981 0.0427 -0.0445
vn 0.1622 0.9813 -0.1037
vn 0.1300 0.9906 -0.0432
vn -0.0487 0.9827 0.1788
vn -0.0258 0.9990 -0.0361
vn 0.0415 0.9965 0.0727
vn 0.0882 0.9959 0.0224
vn -0.0232 0.9997 0.0074
vn 0.1262 0.9920 0.0065
vn -0.1463 0.9889 -0.0247
vn -0.4583 0.0819 0.8850
vn 0.4601 -0.0686 0.8852
vn 0.9498 -0.3123 -0.0211
vn 0.4583 -0.3590 -0.8130
vn -0.0538 -0.9872 0.1498
vn -0.0491 -0.9871 0.1525
vn 0.0473 -0.9923 0.1143
vn -0.5403 -0.2618 -0.7998
vn -0.9988 0.0273 -0.0416
vn -0.1206 0.9921 0.0341
vn 0.0914 0.9836 0.1556
vn -0.0401 0.9982 -0.0444
vn -0.4618 0.1108 0.8801
vn 0.4762 -0.2065 0.8547
vn 0.9913 0.1176 0.0598
vn 0.5553 0.0405 -0.8306
vn 0.4204 0.1155 -0.9000
vn 0.9784 -0.2060 -0.0191
vn 0.5431 0.1049 0.8331
vn -0.5432 0.0288 0.8391
vn -0.9681 -0.2493 0.0236
vn -0.4447 0.0436 -0.8946
vn -0.5828 -0.0690 -0.8097
vn -0.9603 0.2787 0.0096
vn -0.4937 -0.0422 0.8686
vn 0.5250 0.3270 0.7858
vn 0.9919 0.1110 0.0613
vn 0.4949 0.2794 -0.8228
vn -0.0441 0.9981 -0.0432
vn -0.0401 0.9984 -0.0409
vn -0.0263 0.9985 -0.0488
vn 0.1069 0.9858 -0.1296
vn 0.1067 0.9834 0.1468
vn -0.1324 0.9912 0.0094
vn -0.1135 0.9910 0.0703
vn -0.1204 0.9905 0.0663
vn 0.1623 0.9820 -0.0969
vn 0.0228 -0.9981 0.0567
vn 0.0851 -0.9921 0.0925
vn 0.0854 -0.9953 -0.0455
vn 0.0226 -0.9903 -0.1370
vn -0.0495 -0.9942 -0.0959
vn 0.0476 -0.9981 -0.0401
vn -0.1401 -0.9835 -0.1141
vn 0.1322 -0.9903 0.0428
vn 0.1319 -0.9885 -0.0736
vn 0.0212 -0.9934 0.1127
vn 0.0569 -0.9895 0.1329
vn 0.0573 -0.9973 -0.0458
vn 0.0924 0.9940 -0.0593
vn 0.0050 0.9940 -0.1097
vn -0.1323 0.9907 -0.0301
vn -0.0224 0.9995 -0.0228
vn -0.0616 0.9980 0.0111
vn -0.0442 0.9987 -0.0261
vn -0.0544 -0.9974 -0.0481
vn 0.0285 -0.9976 -0.0624
vn 0.0444 -0.9980 0.0442
vn -0.1976 -0.9768 -0.0830
vn -0.3101 -0.9500 0.0368
vn 0.1701 -0.9854 0.0109
vn -0.0820 -0.9870 -0.1379
vn -0.0530 -0.9794 -0.1950
vn 0.2578 -0.9410 0.2192
vn 0.0537 -0.9676 -0.2466
vn 0.1363 -0.9236 -0.3583
vn -0.0729 -0.9828 0.1700
vn -0.1124 0.9867 -0.1170
vn -0.0544 0.9976 -0.0435
vn 0.1376 0.9745 0.1773
vn -0.0198 0.9988 -0.0452
vn 0.0753 0.9971 0.0142
vn 0.0551 0.9953 0.0795
vn -0.0204 0.9997 0.0124
vn 0.0430 0.9896 -0.1371
vn -0.0636 0.9909 0.1191
vt 0.916667 0.750000
vt 0.833333 0.500000
vt 0.916667 0.500000
vt 0.750000 0.750000
vt 0.666667 0.500000
vt 0.750000 0.500000
vt 0.583333 0.750000
vt 0.500000 0.500000
vt 0.583333 0.500000
vt 0.416667 0.750000
vt 0.333333 0.500000
vt 0.416667 0.500000
vt 0.250000 0.490000
vt 0.198038 0.400000
vt 0.301962 0.400000
vt 0.250000 0.750000
vt 0.166667 0.500000
vt 0.250000 0.500000
vt 0.083333 0.750000
vt -0.000000 0.500000
vt 0.083333 0.500000
vt 0.957846 0.370000
vt 0.905885 0.280000
vt 0.853923 0.370000
vt 0.833333 1.000000
vt 0.916667 1.000000
vt 0.666667 1.000000
vt 0.750000 1.000000
vt 0.500000 1.000000
vt 0.583333 1.000000
vt 0.333333 1.000000
vt 0.416667 1.000000
vt 0.457846 0.250000
vt 0.405885 0.220000
vt 0.457846 0.130000
vt 0.146077 0.430000
vt 0.146077 0.070000
vt 0.146077 0.130000
vt 0.042154 0.130000
vt 0.166667 1.000000
vt 0.250000 1.000000
vt -0.000000 1.000000
vt 0.083333 1.000000
vt 0.646077 0.430000
vt 0.646077 0.370000
vt 0.542154 0.370000
vt 0.957846 0.250000
vt 0.646077 0.070000
vt 0.698038 0.100000
vt 0.750000 0.010000
vt 0.542154 0.250000
vt 0.594115 0.280000
vt 0.646077 0.190000
vt 0.594115 0.160000
vt 0.542154 0.130000
vt 0.853923 0.070000
vt 0.801962 0.100000
vt 0.853923 0.190000
vt 0.905885 0.160000
vt 0.957846 0.130000
vt 0.853923 0.430000
vt 0.750000 0.370000
vt 0.750000 0.430000
vt 0.750000 0.490000
vt 0.353923 0.070000
vt 0.353923 0.130000
vt 0.250000 0.130000
vt 0.250000 0.070000
vt 0.250000 0.010000
vt 0.042154 0.250000
vt 0.094115 0.220000
vt 0.146077 0.310000
vt 0.094115 0.340000
vt 0.042154 0.370000
vt 0.353923 0.430000
vt 0.353923 0.310000
vt 0.405885 0.340000
vt 0.457846 0.370000
vt 1.000000 1.000000
vt 0.698038 0.280000
vt 0.801962 0.280000
vt 0.750000 0.190000
vt 0.301962 0.220000
vt 0.250000 0.310000
vt 0.198038 0.220000
vt 1.000000 0.500000
s 0
f 25/1/1 3/2/1 13/3/1
f 26/4/2 5/5/2 15/6/2
f 27/7/3 7/8/3 17/9/3
f 28/10/4 9/11/4 19/12/4
f 2/13/5 38/14/5 43/15/5
f 32/16/6 11/17/6 21/18/6
f 33/19/7 1/20/7 23/21/7
f 3/22/8 41/23/8 46/24/8
f 4/25/9 25/1/9 14/26/9
f 6/27/10 26/4/10 16/28/10
f 8/29/11 27/7/11 18/30/11
f 10/31/12 28/10/12 20/32/12
f 16/33/13 37/34/13 6/35/13
f 24/36/14 38/14/14 2/13/14
f 20/37/15 39/38/15 10/39/15
f 12/40/16 32/16/16 22/41/16
f 2/42/17 33/19/17 24/43/17
f 23/44/18 40/45/18 11/46/18
f 15/47/19 41/23/19 3/22/19
f 19/48/20 42/49/20 7/50/20
f 21/51/21 48/52/21 36/53/21
f 36/53/22 49/54/22 21/51/22
f 9/55/23 49/54/23 19/48/23
f 17/56/24 47/57/24 35/58/24
f 35/58/25 50/59/25 17/56/25
f 5/60/26 50/59/26 15/47/26
f 13/61/27 46/24/27 34/62/27
f 34/62/28 51/63/28 13/61/28
f 1/64/29 51/63/29 23/44/29
f 12/40/30 24/43/30 33/19/30
f 10/31/31 22/41/31 32/16/31
f 18/65/32 45/66/32 31/67/32
f 31/67/33 52/68/33 18/65/33
f 8/69/34 52/68/34 20/37/34
f 22/70/35 44/71/35 30/72/35
f 30/72/36 53/73/36 22/70/36
f 12/74/37 53/73/37 24/36/37
f 14/75/38 43/15/38 29/76/38
f 29/76/39 54/77/39 14/75/39
f 4/78/40 54/77/40 16/33/40
f 8/29/41 20/32/41 28/10/41
f 6/27/42 18/30/42 27/7/42
f 4/25/43 16/28/43 26/4/43
f 2/79/44 14/26/44 25/1/44
f 34/62/45 55/80/45 40/45/45
f 34/62/46 56/81/46 55/80/46
f 35/58/47 47/57/47 57/82/47
f 33/19/48 11/17/48 12/40/48
f 32/16/49 9/11/49 10/31/49
f 29/76/50 58/83/50 37/34/50
f 29/76/51 59/84/51 58/83/51
f 30/72/52 44/71/52 60/85/52
f 28/10/53 7/8/53 8/29/53
f 27/7/54 5/5/54 6/27/54
f 26/4/55 3/2/55 4/25/55
f 25/1/56 1/86/56 2/79/56
f 4/25/57 3/2/57 25/1/57
f 6/27/58 5/5/58 26/4/58
f 8/29/59 7/8/59 27/7/59
f 10/31/60 9/11/60 28/10/60
f 12/40/61 11/17/61 32/16/61
f 2/42/62 1/20/62 33/19/62
f 33/19/63 23/21/63 11/17/63
f 32/16/64 21/18/64 9/11/64
f 28/10/65 19/12/65 7/8/65
f 27/7/66 17/9/66 5/5/66
f 26/4/67 15/6/67 3/2/67
f 25/1/68 13/3/68 1/86/68
f 60/85/69 39/38/69 31/67/69
f 60/85/70 44/71/70 39/38/70
f 44/71/71 10/39/71 39/38/71
f 58/83/72 60/85/72 31/67/72
f 58/83/73 59/84/73 60/85/73
f 59/84/74 30/72/74 60/85/74
f 37/34/75 45/66/75 6/35/75
f 37/34/76 58/83/76 45/66/76
f 58/83/77 31/67/77 45/66/77
f 57/82/78 42/49/78 36/53/78
f 57/82/79 47/57/79 42/49/79
f 47/57/80 7/50/80 42/49/80
f 55/80/81 57/82/81 36/53/81
f 55/80/82 56/81/82 57/82/82
f 56/81/83 35/58/83 57/82/83
f 40/45/84 48/52/84 11/46/84
f 40/45/85 55/80/85 48/52/85
f 55/80/86 36/53/86 48/52/86
f 46/24/87 56/81/87 34/62/87
f 46/24/88 41/23/88 56/81/88
f 41/23/89 35/58/89 56/81/89
f 43/15/90 59/84/90 29/76/90
f 43/15/91 38/14/91 59/84/91
f 38/14/92 30/72/92 59/84/92
f 16/33/93 29/76/93 37/34/93
f 24/36/94 30/72/94 38/14/94
f 20/37/95 31/67/95 39/38/95
f 23/44/96 34/62/96 40/45/96
f 15/47/97 35/58/97 41/23/97
f 19/48/98 36/53/98 42/49/98
f 21/51/99 11/46/99 48/52/99
f 36/53/100 19/48/100 49/54/100
f 9/55/101 21/51/101 49/54/101
f 17/56/102 7/50/102 47/57/102
f 35/58/103 15/47/103 50/59/103
f 5/60/104 17/56/104 50/59/104
f 13/61/105 3/22/105 46/24/105
f 34/62/106 23/44/106 51/63/106
f 1/64/107 13/61/107 51/63/107
f 18/65/108 6/35/108 45/66/108
f 31/67/109 20/37/109 52/68/109
f 8/69/110 18/65/110 52/68/110
f 22/70/111 10/39/111 44/71/111
f 30/72/112 24/36/112 53/73/112
f 12/74/113 22/70/113 53/73/113
f 14/75/114 2/13/114 43/15/114
f 29/76/115 16/33/115 54/77/115
f 4/78/116 14/75/116 54/77/116
