# Blender 4.3.0
# www.blender.org
o Cylinder
v 0.000000 -1.870114 -24.181759
v 0.000000 2.444058 -24.927330
v 21.156563 -2.060817 -12.214746
v 21.545691 2.406715 -12.439410
v 22.309423 -3.085594 12.880352
v 21.931599 2.749749 12.662214
v 0.000000 -3.217226 25.931690
v 0.000000 2.528441 25.036945
v -21.266464 -2.158513 12.278199
v -20.821823 1.763267 12.021485
v -22.122231 -2.919203 -12.772276
v -21.873001 2.697660 -12.628384
v 10.854957 -2.559278 -18.801336
v 11.169324 3.188005 -19.345837
v 21.301565 -2.150934 0.000000
v 21.230999 2.080369 0.000000
v 10.592506 -2.034382 18.346760
v 10.581187 2.011745 18.327154
v -10.875381 -2.600128 18.836714
v -10.855348 2.560060 18.802013
v -21.194849 -2.044220 0.000000
v -20.814045 1.663418 0.000000
v -11.020377 -2.890116 -19.087854
v -10.652390 2.154150 -18.450483
v 11.224414 0.000000 -19.441256
v 21.168837 0.000000 0.000000
v 11.185927 0.000000 19.374596
v -10.474097 0.000000 18.141668
v 10.825317 3.304060 -6.250000
v -10.825317 2.365443 -6.250000
v 0.000000 1.343323 12.500000
v -22.145489 0.000000 0.000000
v -10.414295 0.000000 -18.038090
v 0.000000 -1.784430 -12.500000
v 10.825317 -3.382387 6.250000
v -10.825317 -2.916781 6.250000
v 16.237976 1.549868 3.125000
v -5.412659 1.535408 -15.625000
v -10.825317 1.980516 12.500000
v -10.825317 -2.913198 -12.500000
v 16.237976 -1.330710 -3.125000
v -5.412659 -3.277847 15.625000
v 5.412659 2.737358 -15.625000
v -16.237976 2.841750 3.125000
v 10.825317 2.936879 12.500000
v 10.825317 -2.002517 -12.500000
v 5.412659 -1.996647 15.625000
v -16.237976 -2.476008 -3.125000
v -16.237976 -2.249558 9.375000
v 16.237976 -1.994100 9.375000
v 0.000000 -1.942811 -18.750000
v 0.000000 3.240282 18.750000
v -16.237976 3.053661 -9.375000
v 16.237976 2.036932 -9.375000
v -5.412659 -2.215193 -3.125000
v 5.412659 -1.633569 -3.125000
v 0.000000 -1.568961 6.250000
v 5.412659 2.582325 3.125000
v 0.000000 1.618194 -6.250000
v -5.412659 3.402765 3.125000
vn 0.5271 -0.2770 -0.8034
vn 0.9954 0.0614 -0.0734
vn 0.5405 -0.4997 0.6769
vn -0.5010 0.2948 0.8137
vn -0.1103 0.9934 0.0329
vn -0.9027 -0.4198 0.0943
vn -0.4162 0.3863 -0.8231
vn -0.0077 -0.9971 0.0759
vn 0.5555 0.0345 -0.8308
vn 0.9981 -0.0298 -0.0536
vn 0.4770 0.5144 0.7126
vn -0.5235 -0.2851 0.8029
vn -0.1333 0.9901 -0.0450
vn 0.0493 0.9909 0.1255
vn -0.0173 0.9956 -0.0916
vn -0.7754 0.6207 0.1159
vn -0.5030 -0.2158 -0.8369
vn 0.0006 -1.0000 -0.0035
vn -0.1566 -0.9876 -0.0054
vn -0.0916 -0.9943 0.0540
vn -0.0853 -0.9964 0.0024
vn -0.1035 -0.9941 0.0330
vn -0.0297 -0.9994 -0.0202
vn -0.0647 -0.9919 0.1093
vn 0.1855 -0.9762 0.1124
vn -0.1427 -0.9879 -0.0605
vn -0.0201 -0.9959 0.0879
vn -0.0566 -0.9981 0.0253
vn 0.0860 -0.9962 -0.0133
vn -0.4579 -0.2157 -0.8624
vn -0.7807 0.6249 -0.0057
vn -0.1440 0.9783 0.1493
vn 0.0990 0.9522 -0.2890
vn -0.0616 0.9918 0.1123
vn -0.1562 0.9778 -0.1399
vn 0.0320 0.9863 0.1619
vn -0.0044 0.9948 -0.1013
vn -0.0851 0.9963 -0.0111
vn 0.2265 0.9740 -0.0027
vn -0.0552 0.9982 0.0248
vn -0.4780 -0.2855 0.8307
vn 0.3562 0.5135 0.7806
vn 0.9993 -0.0299 0.0245
vn 0.4449 0.0345 -0.8949
vn 0.1037 -0.9945 0.0142
vn 0.0536 -0.9984 -0.0149
vn -0.1650 -0.9850 0.0503
vn -0.4185 0.0418 -0.9073
vn -0.9888 0.1181 0.0916
vn 0.0941 0.9870 0.1303
vn -0.1539 0.9880 -0.0128
vn -0.0516 0.9954 -0.0804
vn -0.5666 0.1268 0.8142
vn 0.5166 0.0654 0.8537
vn 0.9962 -0.0861 0.0135
vn 0.4062 -0.1556 -0.9004
vn 0.5735 -0.0909 -0.8141
vn 0.9954 0.0617 -0.0734
vn 0.4717 0.1357 0.8713
vn -0.4916 0.1123 0.8635
vn -0.9989 0.0446 -0.0120
vn -0.5219 -0.1453 -0.8405
vn -0.4567 0.3868 -0.8011
vn -0.9067 -0.4217 -0.0092
vn -0.5103 0.2947 0.8079
vn 0.3287 -0.5005 0.8009
vn 0.9980 0.0616 -0.0114
vn 0.4126 -0.2766 -0.8679
vn 0.0578 0.9816 0.1823
vn -0.0514 0.9914 0.1207
vn -0.0267 0.9939 0.1067
vn 0.0744 0.9821 0.1728
vn 0.0748 0.9867 -0.1446
vn 0.0681 0.9866 -0.1485
vn 0.0187 0.9906 -0.1358
vn 0.0945 0.9913 -0.0921
vn -0.1455 0.9883 0.0466
vn 0.1228 -0.9864 -0.1089
vn 0.1168 -0.9868 -0.1124
vn 0.1173 -0.9915 -0.0558
vn 0.1236 -0.9923 -0.0029
vn 0.0536 -0.9978 0.0378
vn -0.1646 -0.9824 -0.0882
vn -0.0006 -0.9989 0.0462
vn 0.0240 -0.9979 0.0604
vn 0.0240 -0.9979 -0.0608
vn -0.0201 -0.9994 0.0277
vn 0.0279 -0.9981 0.0554
vn 0.0274 -0.9797 -0.1986
vn -0.1538 0.9877 0.0291
vn -0.1102 0.9924 0.0549
vn 0.0688 0.9965 -0.0485
vn 0.0078 0.9837 0.1795
vn 0.1254 0.9920 -0.0154
vn 0.0585 0.9941 -0.0911
vn 0.1037 -0.9946 -0.0066
vn -0.0193 -0.9743 -0.2244
vn -0.1088 -0.9938 0.0246
vn -0.0419 -0.9966 0.0713
vn -0.1083 -0.9938 0.0246
vn -0.0236 -0.9997 -0.0094
vn 0.0428 -0.9945 -0.0953
vn 0.1837 -0.9762 0.1155
vn -0.1284 -0.9881 -0.0852
vn -0.0081 -0.9961 0.0880
vn 0.0848 -0.9961 0.0252
vn -0.0568 -0.9983 -0.0134
vn 0.0143 0.9874 0.1574
vn -0.0612 0.9551 -0.2899
vn 0.1190 0.9866 0.1117
vn -0.2441 0.9697 -0.0082
vn 0.1348 0.9908 -0.0152
vn -0.1148 0.9892 0.0906
vn -0.0715 0.9974 0.0102
vn 0.1735 0.9801 -0.0969
vn -0.0023 0.9933 0.1158
vt 0.916667 0.750000
vt 0.833333 0.500000
vt 0.916667 0.500000
vt 0.750000 0.750000
vt 0.666667 0.500000
vt 0.750000 0.500000
vt 0.583333 0.750000
vt 0.500000 0.500000
vt 0.583333 0.500000
vt 0.416667 0.750000
vt 0.333333 0.500000
vt 0.416667 0.500000
vt 0.250000 0.490000
vt 0.198038 0.400000
vt 0.301962 0.400000
vt 0.250000 0.750000
vt 0.166667 0.500000
vt 0.250000 0.500000
vt 0.083333 0.750000
vt -0.000000 0.500000
vt 0.083333 0.500000
vt 0.957846 0.370000
vt 0.905885 0.280000
vt 0.853923 0.370000
vt 0.833333 1.000000
vt 0.916667 1.000000
vt 0.666667 1.000000
vt 0.750000 1.000000
vt 0.500000 1.000000
vt 0.583333 1.000000
vt 0.333333 1.000000
vt 0.416667 1.000000
vt 0.457846 0.250000
vt 0.405885 0.220000
vt 0.457846 0.130000
vt 0.146077 0.430000
vt 0.146077 0.070000
vt 0.146077 0.130000
vt 0.042154 0.130000
vt 0.166667 1.000000
vt 0.250000 1.000000
vt -0.000000 1.000000
vt 0.083333 1.000000
vt 0.646077 0.430000
vt 0.646077 0.370000
vt 0.542154 0.370000
vt 0.957846 0.250000
vt 0.646077 0.070000
vt 0.698038 0.100000
vt 0.750000 0.010000
vt 0.542154 0.250000
vt 0.594115 0.280000
vt 0.646077 0.190000
vt 0.594115 0.160000
vt 0.542154 0.130000
vt 0.853923 0.070000
vt 0.801962 0.100000
vt 0.853923 0.190000
vt 0.905885 0.160000
vt 0.957846 0.130000
vt 0.853923 0.430000
vt 0.750000 0.370000
vt 0.750000 0.430000
vt 0.750000 0.490000
vt 0.353923 0.070000
vt 0.353923 0.130000
vt 0.250000 0.130000
vt 0.250000 0.070000
vt 0.250000 0.010000
vt 0.042154 0.250000
vt 0.094115 0.220000
vt 0.146077 0.310000
vt 0.094115 0.340000
vt 0.042154 0.370000
vt 0.353923 0.430000
vt 0.353923 0.310000
vt 0.405885 0.340000
vt 0.457846 0.370000
vt 1.000000 1.000000
vt 0.698038 0.280000
vt 0.801962 0.280000
vt 0.750000 0.190000
vt 0.301962 0.220000
vt 0.250000 0.310000
vt 0.198038 0.220000
vt 1.000000 0.500000
s 0
f 25/1/1 3/2/1 13/3/1
f 26/4/2 5/5/2 15/6/2
f 27/7/3 7/8/3 17/9/3
f 28/10/4 9/11/4 19/12/4
f 2/13/5 38/14/5 43/15/5
f 32/16/6 11/17/6 21/18/6
f 33/19/7 1/20/7 23/21/7
f 3/22/8 41/23/8 46/24/8
f 4/25/9 25/1/9 14/26/9
f 6/27/10 26/4/10 16/28/10
f 8/29/11 27/7/11 18/30/11
f 10/31/12 28/10/12 20/32/12
f 16/33/13 37/34/13 6/35/13
f 24/36/14 38/14/14 2/13/14
f 20/37/15 39/38/15 10/39/15
f 12/40/16 32/16/16 22/41/16
f 2/42/17 33/19/17 24/43/17
f 23/44/18 40/45/18 11/46/18
f 15/47/19 41/23/19 3/22/19
f 19/48/20 42/49/20 7/50/20
f 21/51/21 48/52/21 36/53/21
f 36/53/22 49/54/22 21/51/22
f 9/55/23 49/54/23 19/48/23
f 17/56/24 47/57/24 35/58/24
f 35/58/25 50/59/25 17/56/25
f 5/60/26 50/59/26 15/47/26
f 13/61/27 46/24/27 34/62/27
f 34/62/28 51/63/28 13/61/28
f 1/64/29 51/63/29 23/44/29
f 12/40/30 24/43/30 33/19/30
f 10/31/31 22/41/31 32/16/31
f 18/65/32 45/66/32 31/67/32
f 31/67/33 52/68/33 18/65/33
f 8/69/34 52/68/34 20/37/34
f 22/70/35 44/71/35 30/72/35
f 30/72/36 53/73/36 22/70/36
f 12/74/37 53/73/37 24/36/37
f 14/75/38 43/15/38 29/76/38
f 29/76/39 54/77/39 14/75/39
f 4/78/40 54/77/40 16/33/40
f 8/29/41 20/32/41 28/10/41
f 6/27/42 18/30/42 27/7/42
f 4/25/43 16/28/43 26/4/43
f 2/79/44 14/26/44 25/1/44
f 34/62/45 55/80/45 40/45/45
f 34/62/46 56/81/46 55/80/46
f 35/58/47 47/57/47 57/82/47
f 33/19/48 11/17/48 12/40/48
f 32/16/49 9/11/49 10/31/49
f 29/76/50 58/83/50 37/34/50
f 29/76/51 59/84/51 58/83/51
f 30/72/52 44/71/52 60/85/52
f 28/10/53 7/8/53 8/29/53
f 27/7/54 5/5/54 6/27/54
f 26/4/55 3/2/55 4/25/55
f 25/1/56 1/86/56 2/79/56
f 4/25/57 3/2/57 25/1/57
f 6/27/58 5/5/58 26/4/58
f 8/29/59 7/8/59 27/7/59
f 10/31/60 9/11/60 28/10/60
f 12/40/61 11/17/61 32/16/61
f 2/42/62 1/20/62 33/19/62
f 33/19/63 23/21/63 11/17/63
f 32/16/64 21/18/64 9/11/64
f 28/10/65 19/12/65 7/8/65
f 27/7/66 17/9/66 5/5/66
f 26/4/67 15/6/67 3/2/67
f 25/1/68 13/3/68 1/86/68
f 60/85/69 39/38/69 31/67/69
f 60/85/70 44/71/70 39/38/70
f 44/71/71 10/39/71 39/38/71
f 58/83/72 60/85/72 31/67/72
f 58/83/73 59/84/73 60/85/73
f 59/84/74 30/72/74 60/85/74
f 37/34/75 45/66/75 6/35/75
f 37/34/76 58/83/76 45/66/76
f 58/83/77 31/67/77 45/66/77
f 57/82/78 42/49/78 36/53/78
f 57/82/79 47/57/79 42/49/79
f 47/57/80 7/50/80 42/49/80
f 55/80/81 57/82/81 36/53/81
f 55/80/82 56/81/82 57/82/82
f 56/81/83 35/58/83 57/82/83
f 40/45/84 48/52/84 11/46/84
f 40/45/85 55/80/85 48/52/85
f 55/80/86 36/53/86 48/52/86
f 46/24/87 56/81/87 34/62/87
f 46/24/88 41/23/88 56/81/88
f 41/23/89 35/58/89 56/81/89
f 43/15/90 59/84/90 29/76/90
f 43/15/91 38/14/91 59/84/91
f 38/14/92 30/72/92 59/84/92
f 16/33/93 29/76/93 37/34/93
f 24/36/94 30/72/94 38/14/94
f 20/37/95 31/67/95 39/38/95
f 23/44/96 34/62/96 40/45/96
f 15/47/97 35/58/97 41/23/97
f 19/48/98 36/53/98 42/49/98
f 21/51/99 11/46/99 48/52/99
f 36/53/100 19/48/100 49/54/100
f 9/55/101 21/51/101 49/54/101
f 17/56/102 7/50/102 47/57/102
f 35/58/103 15/47/103 50/59/103
f 5/60/104 17/56/104 50/59/104
f 13/61/105 3/22/105 46/24/105
f 34/62/106 23/44/106 51/63/106
f 1/64/107 13/61/107 51/63/107
f 18/65/108 6/35/108 45/66/108
f 31/67/109 20/37/109 52/68/109
f 8/69/110 18/65/110 52/68/110
f 22/70/111 10/39/111 44/71/111
f 30/72/112 24/36/112 53/73/112
f 12/74/113 22/70/113 53/73/113
f 14/75/114 2/13/114 43/15/114
f 29/76/115 16/33/115 54/77/115
f 4/78/116 14/75/116 54/77/116
