# Blender 4.3.0
# www.blender.org
o Cylinder
v 0.000000 -3.190325 -25.896751
v 0.000000 2.500996 -25.001295
v 20.998280 -1.920120 -12.123363
v 21.459684 2.330266 -12.389755
v 22.463724 -3.222750 12.969437
v 21.931423 2.749594 12.662114
v 0.000000 -2.608775 25.141300
v 0.000000 3.203468 25.913826
v -21.672800 -2.519703 12.512797
v -22.376671 3.145376 12.919177
v -20.914028 -1.845228 -12.074719
v -22.489176 3.245375 -12.984132
v 11.129385 -3.108128 -19.276661
v 10.736721 2.322809 -18.596546
v 22.079300 -2.928661 0.000000
v 21.409332 2.258700 0.000000
v 10.974156 -2.797675 19.007797
v 10.843103 2.535572 18.780807
v -11.096416 -3.042190 19.219555
v -10.560935 1.971241 18.292076
v -21.824959 -2.674323 0.000000
v -22.092745 2.942105 0.000000
v -11.188550 -3.226457 -19.379137
v -10.907678 2.664719 -18.892653
v 11.013271 0.000000 -19.075546
v 21.907867 0.000000 0.000000
v 11.262843 0.000000 19.507818
v -10.890719 0.000000 18.863279
v 10.825317 2.826792 -6.250000
v -10.825317 1.252080 -6.250000
v 0.000000 2.341037 12.500000
v -20.843559 0.000000 0.000000
v -11.338121 0.000000 -19.638203
v 0.000000 -2.593879 -12.500000
v 10.825317 -2.321347 6.250000
v -10.825317 -1.451730 6.250000
v 16.237976 2.569567 3.125000
v -5.412659 1.751117 -15.625000
v -10.825317 3.438990 12.500000
v -10.825317 -1.556644 -12.500000
v 16.237976 -3.320482 -3.125000
v -5.412659 -3.731873 15.625000
v 5.412659 2.214548 -15.625000
v -16.237976 3.030248 3.125000
v 10.825317 3.057204 12.500000
v 10.825317 -2.622665 -12.500000
v 5.412659 -3.656894 15.625000
v -16.237976 -3.275853 -3.125000
v -16.237976 -2.850646 9.375000
v 16.237976 -1.352110 9.375000
v 0.000000 -3.735125 -18.750000
v 0.000000 1.879485 18.750000
v -16.237976 2.756924 -9.375000
v 16.237976 2.029697 -9.375000
v -5.412659 -3.007902 -3.125000
v 5.412659 -2.272216 -3.125000
v 0.000000 -2.907118 6.250000
v 5.412659 3.668321 3.125000
v 0.000000 2.028331 -6.250000
v -5.412659 3.667597 3.125000
vn 0.5794 0.0742 -0.8117
vn 0.9979 0.0584 -0.0283
vn 0.4752 -0.2021 0.8564
vn -0.5260 0.1339 0.8399
vn -0.0427 0.9976 0.0551
vn -0.9377 0.3441 -0.0471
vn -0.5010 -0.0923 -0.8605
vn 0.0727 -0.9906 -0.1157
vn 0.4872 0.2316 -0.8420
vn 0.9753 0.2153 -0.0486
vn 0.5353 0.3135 0.7843
vn -0.3667 0.3150 0.8754
vn 0.0357 0.9986 -0.0402
vn 0.0873 0.9877 0.1294
vn -0.0157 0.9691 0.2463
vn -0.9203 -0.3907 0.0190
vn -0.4615 0.3074 -0.8322
vn 0.0376 -0.9715 0.2338
vn 0.1159 -0.9889 -0.0926
vn -0.0340 -0.9901 0.1362
vn 0.0009 -0.9817 0.1905
vn 0.1797 -0.9757 -0.1255
vn -0.0553 -0.9984 0.0095
vn 0.1756 -0.9837 -0.0388
vn 0.1978 -0.9795 -0.0389
vn -0.2806 -0.9597 -0.0134
vn -0.0027 -0.9974 0.0713
vn 0.0638 -0.9817 0.1793
vn -0.0410 -0.9963 -0.0759
vn -0.4203 0.3068 -0.8540
vn -0.9204 -0.3908 -0.0141
vn -0.0658 0.9944 0.0828
vn -0.0604 0.9955 0.0735
vn 0.0164 0.9832 -0.1817
vn 0.0650 0.9866 -0.1496
vn 0.2068 0.9722 0.1100
vn 0.0631 0.9977 0.0257
vn -0.0429 0.9983 -0.0404
vn 0.1222 0.9916 -0.0414
vn -0.0543 0.9985 0.0055
vn -0.5793 0.3148 0.7519
vn 0.4540 0.3142 0.8338
vn 0.9765 0.2155 0.0052
vn 0.5012 0.2316 -0.8338
vn -0.0949 -0.9906 -0.0985
vn 0.0678 -0.9977 -0.0049
vn 0.0537 -0.9924 -0.1104
vn -0.5521 -0.3092 -0.7744
vn -0.9892 -0.1165 -0.0890
vn 0.1009 0.9944 -0.0310
vn -0.0729 0.9887 -0.1309
vn -0.0574 0.9743 -0.2179
vn -0.5164 -0.1128 0.8489
vn 0.5213 0.0901 0.8486
vn 0.9922 -0.1113 -0.0568
vn 0.4931 0.1352 -0.8594
vn 0.5533 -0.1118 -0.8255
vn 0.9959 0.0877 -0.0209
vn 0.4658 -0.1166 0.8772
vn -0.4824 -0.1222 0.8674
vn -0.9566 -0.2872 0.0495
vn -0.4483 0.1389 -0.8830
vn -0.6063 -0.0915 -0.7900
vn -0.9388 0.3445 0.0072
vn -0.4706 0.1340 0.8721
vn 0.4498 -0.2019 0.8700
vn 0.9948 0.0582 -0.0839
vn 0.5094 0.0745 -0.8573
vn 0.1006 0.9915 0.0822
vn -0.0588 0.9982 -0.0096
vn -0.0264 0.9992 -0.0283
vn -0.0001 0.9901 0.1401
vn -0.0001 0.9850 -0.1723
vn -0.0699 0.9750 -0.2109
vn 0.0282 0.9990 -0.0357
vn 0.1010 0.9949 0.0066
vn -0.0657 0.9926 0.1026
vn -0.1315 -0.9780 -0.1620
vn 0.0069 -0.9965 -0.0837
vn 0.0069 -0.9935 0.1133
vn -0.1327 -0.9873 0.0872
vn 0.0678 -0.9973 -0.0284
vn 0.0540 -0.9979 -0.0364
vn 0.0211 -0.9855 -0.1685
vn 0.0244 -0.9857 -0.1667
vn 0.0244 -0.9838 0.1774
vn -0.0027 -0.9994 0.0358
vn -0.0964 -0.9952 -0.0184
vn -0.0963 -0.9941 0.0504
vn -0.0735 0.9970 -0.0227
vn -0.0428 0.9991 -0.0048
vn -0.0715 0.9974 0.0118
vn 0.0568 0.9984 -0.0054
vn 0.0991 0.9890 0.1099
vn 0.0980 0.9658 0.2403
vn -0.0926 -0.9665 0.2395
vn 0.0076 -0.9939 0.1103
vn -0.1961 -0.9728 -0.1234
vn -0.1503 -0.9855 -0.0790
vn 0.1854 -0.9758 -0.1158
vn -0.0533 -0.9985 0.0130
vn 0.0642 -0.9873 0.1452
vn 0.0590 -0.9778 0.2012
vn -0.1562 -0.9607 -0.2295
vn 0.0660 -0.9951 0.0742
vn -0.0547 -0.9823 0.1794
vn 0.0525 -0.9957 -0.0759
vn 0.0264 0.9962 0.0827
vn 0.0055 0.9973 0.0736
vn -0.0589 0.9816 -0.1814
vn -0.0066 0.9999 -0.0159
vn 0.2084 0.9722 0.1073
vn 0.0657 0.9976 0.0213
vn -0.0025 0.9995 0.0320
vn 0.1002 0.9918 -0.0795
vn -0.0291 0.9984 0.0491
vt 0.916667 0.750000
vt 0.833333 0.500000
vt 0.916667 0.500000
vt 0.750000 0.750000
vt 0.666667 0.500000
vt 0.750000 0.500000
vt 0.583333 0.750000
vt 0.500000 0.500000
vt 0.583333 0.500000
vt 0.416667 0.750000
vt 0.333333 0.500000
vt 0.416667 0.500000
vt 0.250000 0.490000
vt 0.198038 0.400000
vt 0.301962 0.400000
vt 0.250000 0.750000
vt 0.166667 0.500000
vt 0.250000 0.500000
vt 0.083333 0.750000
vt -0.000000 0.500000
vt 0.083333 0.500000
vt 0.957846 0.370000
vt 0.905885 0.280000
vt 0.853923 0.370000
vt 0.833333 1.000000
vt 0.916667 1.000000
vt 0.666667 1.000000
vt 0.750000 1.000000
vt 0.500000 1.000000
vt 0.583333 1.000000
vt 0.333333 1.000000
vt 0.416667 1.000000
vt 0.457846 0.250000
vt 0.405885 0.220000
vt 0.457846 0.130000
vt 0.146077 0.430000
vt 0.146077 0.070000
vt 0.146077 0.130000
vt 0.042154 0.130000
vt 0.166667 1.000000
vt 0.250000 1.000000
vt -0.000000 1.000000
vt 0.083333 1.000000
vt 0.646077 0.430000
vt 0.646077 0.370000
vt 0.542154 0.370000
vt 0.957846 0.250000
vt 0.646077 0.070000
vt 0.698038 0.100000
vt 0.750000 0.010000
vt 0.542154 0.250000
vt 0.594115 0.280000
vt 0.646077 0.190000
vt 0.594115 0.160000
vt 0.542154 0.130000
vt 0.853923 0.070000
vt 0.801962 0.100000
vt 0.853923 0.190000
vt 0.905885 0.160000
vt 0.957846 0.130000
vt 0.853923 0.430000
vt 0.750000 0.370000
vt 0.750000 0.430000
vt 0.750000 0.490000
vt 0.353923 0.070000
vt 0.353923 0.130000
vt 0.250000 0.130000
vt 0.250000 0.070000
vt 0.250000 0.010000
vt 0.042154 0.250000
vt 0.094115 0.220000
vt 0.146077 0.310000
vt 0.094115 0.340000
vt 0.042154 0.370000
vt 0.353923 0.430000
vt 0.353923 0.310000
vt 0.405885 0.340000
vt 0.457846 0.370000
vt 1.000000 1.000000
vt 0.698038 0.280000
vt 0.801962 0.280000
vt 0.750000 0.190000
vt 0.301962 0.220000
vt 0.250000 0.310000
vt 0.198038 0.220000
vt 1.000000 0.500000
s 0
f 25/1/1 3/2/1 13/3/1
f 26/4/2 5/5/2 15/6/2
f 27/7/3 7/8/3 17/9/3
f 28/10/4 9/11/4 19/12/4
f 2/13/5 38/14/5 43/15/5
f 32/16/6 11/17/6 21/18/6
f 33/19/7 1/20/7 23/21/7
f 3/22/8 41/23/8 46/24/8
f 4/25/9 25/1/9 14/26/9
f 6/27/10 26/4/10 16/28/10
f 8/29/11 27/7/11 18/30/11
f 10/31/12 28/10/12 20/32/12
f 16/33/13 37/34/13 6/35/13
f 24/36/14 38/14/14 2/13/14
f 20/37/15 39/38/15 10/39/15
f 12/40/16 32/16/16 22/41/16
f 2/42/17 33/19/17 24/43/17
f 23/44/18 40/45/18 11/46/18
f 15/47/19 41/23/19 3/22/19
f 19/48/20 42/49/20 7/50/20
f 21/51/21 48/52/21 36/53/21
f 36/53/22 49/54/22 21/51/22
f 9/55/23 49/54/23 19/48/23
f 17/56/24 47/57/24 35/58/24
f 35/58/25 50/59/25 17/56/25
f 5/60/26 50/59/26 15/47/26
f 13/61/27 46/24/27 34/62/27
f 34/62/28 51/63/28 13/61/28
f 1/64/29 51/63/29 23/44/29
f 12/40/30 24/43/30 33/19/30
f 10/31/31 22/41/31 32/16/31
f 18/65/32 45/66/32 31/67/32
f 31/67/33 52/68/33 18/65/33
f 8/69/34 52/68/34 20/37/34
f 22/70/35 44/71/35 30/72/35
f 30/72/36 53/73/36 22/70/36
f 12/74/37 53/73/37 24/36/37
f 14/75/38 43/15/38 29/76/38
f 29/76/39 54/77/39 14/75/39
f 4/78/40 54/77/40 16/33/40
f 8/29/41 20/32/41 28/10/41
f 6/27/42 18/30/42 27/7/42
f 4/25/43 16/28/43 26/4/43
f 2/79/44 14/26/44 25/1/44
f 34/62/45 55/80/45 40/45/45
f 34/62/46 56/81/46 55/80/46
f 35/58/47 47/57/47 57/82/47
f 33/19/48 11/17/48 12/40/48
f 32/16/49 9/11/49 10/31/49
f 29/76/50 58/83/50 37/34/50
f 29/76/51 59/84/51 58/83/51
f 30/72/52 44/71/52 60/85/52
f 28/10/53 7/8/53 8/29/53
f 27/7/54 5/5/54 6/27/54
f 26/4/55 3/2/55 4/25/55
f 25/1/56 1/86/56 2/79/56
f 4/25/57 3/2/57 25/1/57
f 6/27/58 5/5/58 26/4/58
f 8/29/59 7/8/59 27/7/59
f 10/31/60 9/11/60 28/10/60
f 12/40/61 11/17/61 32/16/61
f 2/42/62 1/20/62 33/19/62
f 33/19/63 23/21/63 11/17/63
f 32/16/64 21/18/64 9/11/64
f 28/10/65 19/12/65 7/8/65
f 27/7/66 17/9/66 5/5/66
f 26/4/67 15/6/67 3/2/67
f 25/1/68 13/3/68 1/86/68
f 60/85/69 39/38/69 31/67/69
f 60/85/70 44/71/70 39/38/70
f 44/71/71 10/39/71 39/38/71
f 58/83/72 60/85/72 31/67/72
f 58/83/73 59/84/73 60/85/73
f 59/84/74 30/72/74 60/85/74
f 37/34/75 45/66/75 6/35/75
f 37/34/76 58/83/76 45/66/76
f 58/83/77 31/67/77 45/66/77
f 57/82/78 42/49/78 36/53/78
f 57/82/79 47/57/79 42/49/79
f 47/57/80 7/50/80 42/49/80
f 55/80/81 57/82/81 36/53/81
f 55/80/82 56/81/82 57/82/82
f 56/81/83 35/58/83 57/82/83
f 40/45/84 48/52/84 11/46/84
f 40/45/85 55/80/85 48/52/85
f 55/80/86 36/53/86 48/52/86
f 46/24/87 56/81/87 34/62/87
f 46/24/88 41/23/88 56/81/88
f 41/23/89 35/58/89 56/81/89
f 43/15/90 59/84/90 29/76/90
f 43/15/91 38/14/91 59/84/91
f 38/14/92 30/72/92 59/84/92
f 16/33/93 29/76/93 37/34/93
f 24/36/94 30/72/94 38/14/94
f 20/37/95 31/67/95 39/38/95
f 23/44/96 34/62/96 40/45/96
f 15/47/97 35/58/97 41/23/97
f 19/48/98 36/53/98 42/49/98
f 21/51/99 11/46/99 48/52/99
f 36/53/100 19/48/100 49/54/100
f 9/55/101 21/51/101 49/54/101
f 17/56/102 7/50/102 47/57/102
f 35/58/103 15/47/103 50/59/103
f 5/60/104 17/56/104 50/59/104
f 13/61/105 3/22/105 46/24/105
f 34/62/106 23/44/106 51/63/106
f 1/64/107 13/61/107 51/63/107
f 18/65/108 6/35/108 45/66/108
f 31/67/109 20/37/109 52/68/109
f 8/69/110 18/65/110 52/68/110
f 22/70/111 10/39/111 44/71/111
f 30/72/112 24/36/112 53/73/112
f 12/74/113 22/70/113 53/73/113
f 14/75/114 2/13/114 43/15/114
f 29/76/115 16/33/115 54/77/115
f 4/78/116 14/75/116 54/77/116
