# Blender 4.3.0
# www.blender.org
o Cylinder
v 0.000000 -3.560588 -26.377735
v 0.000000 4.741469 -27.911707
v 24.860083 -5.352888 -14.352976
v 22.642893 3.382013 -13.072881
v 22.398758 -3.165002 12.931929
v 22.050354 2.855311 12.730778
v 0.000000 -1.320492 23.467798
v 0.000000 0.222764 22.041801
v -20.269945 -1.272713 11.702858
v -18.628553 -0.186338 10.755200
v -19.371580 -0.474142 -11.184187
v -24.395973 4.940316 -14.085022
v 11.055839 -2.961038 -19.149275
v 12.185900 5.221136 -21.106598
v 22.144859 -2.994220 0.000000
v 22.682980 3.532334 0.000000
v 10.594341 -2.038052 18.349937
v 10.176274 1.201928 17.625824
v -11.677389 -4.204125 20.225832
v -10.197171 1.243721 17.662018
v -18.832344 0.318261 0.000000
v -24.504044 5.353378 0.000000
v -10.408328 -1.666030 -18.027754
v -9.961704 0.772793 -17.254179
v 12.831842 0.000000 -22.225403
v 25.884352 0.000000 0.000000
v 11.679839 0.000000 20.230074
v -10.454382 0.000000 18.107521
v 10.825317 1.137511 -6.250000
v -10.825317 4.510702 -6.250000
v 0.000000 4.429483 12.500000
v -26.089609 0.000000 0.000000
v -8.917212 0.000000 -15.445064
v 0.000000 -1.535167 -12.500000
v 10.825317 -4.797394 6.250000
v -10.825317 -4.009952 6.250000
v 16.237976 5.351779 3.125000
v -5.412659 -2.080892 -15.625000
v -10.825317 1.382557 12.500000
v -10.825317 -0.733449 -12.500000
v 16.237976 -5.483272 -3.125000
v -5.412659 -5.716084 15.625000
v 5.412659 1.994016 -15.625000
v -16.237976 5.706350 3.125000
v 10.825317 5.478234 12.500000
v 10.825317 -3.246511 -12.500000
v 5.412659 -3.838913 15.625000
v -16.237976 -4.496167 -3.125000
v -16.237976 -7.058866 9.375000
v 16.237976 -3.272543 9.375000
v 0.000000 -4.212400 -18.750000
v 0.000000 -0.154692 18.750000
v -16.237976 7.123122 -9.375000
v 16.237976 -0.166950 -9.375000
v -5.412659 0.111951 -3.125000
v 5.412659 -6.335760 -3.125000
v 0.000000 -3.742754 6.250000
v 5.412659 6.683300 3.125000
v 0.000000 -0.771386 -6.250000
v -5.412659 3.571090 3.125000
vn 0.1000 -0.7451 -0.6594
vn 0.6249 -0.7804 -0.0226
vn 0.2587 -0.7258 0.6374
vn -0.5177 0.5003 0.6940
vn -0.3310 0.8793 0.3424
vn 0.0437 -0.9967 0.0685
vn -0.1999 0.8719 -0.4470
vn -0.1648 -0.9766 -0.1379
vn 0.6177 0.2371 -0.7498
vn 0.7390 0.6698 0.0723
vn 0.0767 0.9214 0.3810
vn -0.6248 0.3746 0.6851
vn 0.3004 0.9516 0.0655
vn 0.2878 0.7778 0.5587
vn -0.2079 0.9768 0.0516
vn -0.9587 0.2840 -0.0157
vn -0.0335 -0.9259 -0.3762
vn -0.0044 -0.9861 0.1660
vn 0.2845 -0.9359 0.2076
vn 0.1012 -0.8960 0.4323
vn -0.6614 -0.6253 0.4143
vn 0.0727 -0.7739 -0.6291
vn -0.6464 -0.6260 0.4363
vn 0.2144 -0.9514 0.2211
vn 0.1431 -0.9643 0.2226
vn 0.0254 -0.9996 -0.0137
vn -0.1560 -0.9866 -0.0478
vn 0.1174 -0.9129 0.3910
vn -0.2422 -0.9667 -0.0826
vn -0.3140 -0.9250 -0.2138
vn -0.7965 0.2359 0.5567
vn -0.0746 0.7704 0.6332
vn -0.0421 0.8056 0.5909
vn 0.1468 0.9827 -0.1127
vn 0.0045 0.9923 -0.1240
vn 0.2235 0.9028 0.3675
vn 0.1104 0.8150 -0.5689
vn -0.2572 0.9376 0.2342
vn 0.3735 0.8851 0.2775
vn -0.4884 0.8726 -0.0085
vn -0.3331 0.3783 0.8637
vn 0.0377 0.9154 0.4007
vn 0.7409 0.6715 -0.0100
vn 0.4661 0.2401 -0.8515
vn -0.0732 -0.9886 0.1314
vn -0.5065 -0.8503 -0.1430
vn -0.0969 -0.9942 0.0457
vn -0.2665 -0.6355 -0.7246
vn -0.4032 0.8663 0.2947
vn 0.1085 0.8818 -0.4590
vn -0.1434 0.8133 -0.5639
vn 0.1935 0.9810 -0.0134
vn -0.2793 0.6516 0.7052
vn 0.5739 0.0605 0.8167
vn 0.9496 0.2655 -0.1668
vn 0.3459 -0.1705 -0.9227
vn 0.6077 0.2640 -0.7490
vn 0.9594 0.0647 0.2744
vn 0.1259 0.6733 0.7286
vn -0.3537 0.8584 0.3715
vn -0.5982 -0.7310 -0.3283
vn -0.7876 -0.1120 -0.6059
vn -0.2178 0.8726 -0.4372
vn 0.0434 -0.9906 -0.1293
vn -0.3441 0.5004 0.7945
vn 0.2299 -0.7232 0.6512
vn 0.6069 -0.7579 0.2394
vn 0.3802 -0.7662 -0.5180
vn -0.2703 0.9604 0.0681
vn 0.1832 0.9287 0.3225
vn -0.2795 0.8003 0.5305
vn -0.2756 0.9586 0.0713
vn -0.2364 0.8224 -0.5174
vn 0.4328 0.8870 -0.1610
vn 0.2237 0.9677 0.1161
vn 0.1219 0.9909 0.0570
vn -0.0948 0.9790 0.1806
vn 0.0242 -0.9810 -0.1925
vn 0.1699 -0.9795 -0.1081
vn 0.1567 -0.9037 0.3984
vn 0.0227 -0.9200 -0.3914
vn -0.5109 -0.8577 -0.0577
vn -0.0947 -0.9722 0.2142
vn -0.0915 -0.9048 -0.4160
vn 0.3877 -0.9108 -0.1417
vn 0.3856 -0.9058 -0.1756
vn -0.1442 -0.9121 -0.3838
vn 0.0755 -0.9592 -0.2725
vn 0.0780 -0.9900 0.1174
vn -0.1706 0.9675 0.1869
vn -0.3514 0.9334 0.0725
vn 0.4101 0.8405 -0.3542
vn 0.0453 0.9011 -0.4312
vn 0.5740 0.7880 -0.2226
vn -0.2705 0.9609 0.0588
vn -0.0729 -0.9843 0.1606
vn 0.2740 -0.9347 0.2266
vn -0.2546 -0.9666 -0.0289
vn -0.8558 -0.5115 0.0775
vn 0.4987 -0.8666 0.0184
vn -0.8394 -0.5152 -0.1732
vn 0.1203 -0.9180 0.3778
vn 0.2129 -0.9714 0.1053
vn -0.0451 -0.9931 0.1082
vn -0.1544 -0.9869 -0.0477
vn -0.1938 -0.9018 0.3863
vn 0.1090 -0.9904 -0.0846
vn 0.1615 0.7476 0.6442
vn 0.0474 0.8054 0.5908
vn -0.1435 0.9832 -0.1127
vn -0.2403 0.8032 0.5450
vn 0.5293 0.8151 -0.2353
vn -0.2420 0.9698 -0.0303
vn -0.2032 0.9327 0.2981
vn 0.0088 0.9281 -0.3722
vn -0.2072 0.8599 0.4665
vt 0.916667 0.750000
vt 0.833333 0.500000
vt 0.916667 0.500000
vt 0.750000 0.750000
vt 0.666667 0.500000
vt 0.750000 0.500000
vt 0.583333 0.750000
vt 0.500000 0.500000
vt 0.583333 0.500000
vt 0.416667 0.750000
vt 0.333333 0.500000
vt 0.416667 0.500000
vt 0.250000 0.490000
vt 0.198038 0.400000
vt 0.301962 0.400000
vt 0.250000 0.750000
vt 0.166667 0.500000
vt 0.250000 0.500000
vt 0.083333 0.750000
vt -0.000000 0.500000
vt 0.083333 0.500000
vt 0.957846 0.370000
vt 0.905885 0.280000
vt 0.853923 0.370000
vt 0.833333 1.000000
vt 0.916667 1.000000
vt 0.666667 1.000000
vt 0.750000 1.000000
vt 0.500000 1.000000
vt 0.583333 1.000000
vt 0.333333 1.000000
vt 0.416667 1.000000
vt 0.457846 0.250000
vt 0.405885 0.220000
vt 0.457846 0.130000
vt 0.146077 0.430000
vt 0.146077 0.070000
vt 0.146077 0.130000
vt 0.042154 0.130000
vt 0.166667 1.000000
vt 0.250000 1.000000
vt -0.000000 1.000000
vt 0.083333 1.000000
vt 0.646077 0.430000
vt 0.646077 0.370000
vt 0.542154 0.370000
vt 0.957846 0.250000
vt 0.646077 0.070000
vt 0.698038 0.100000
vt 0.750000 0.010000
vt 0.542154 0.250000
vt 0.594115 0.280000
vt 0.646077 0.190000
vt 0.594115 0.160000
vt 0.542154 0.130000
vt 0.853923 0.070000
vt 0.801962 0.100000
vt 0.853923 0.190000
vt 0.905885 0.160000
vt 0.957846 0.130000
vt 0.853923 0.430000
vt 0.750000 0.370000
vt 0.750000 0.430000
vt 0.750000 0.490000
vt 0.353923 0.070000
vt 0.353923 0.130000
vt 0.250000 0.130000
vt 0.250000 0.070000
vt 0.250000 0.010000
vt 0.042154 0.250000
vt 0.094115 0.220000
vt 0.146077 0.310000
vt 0.094115 0.340000
vt 0.042154 0.370000
vt 0.353923 0.430000
vt 0.353923 0.310000
vt 0.405885 0.340000
vt 0.457846 0.370000
vt 1.000000 1.000000
vt 0.698038 0.280000
vt 0.801962 0.280000
vt 0.750000 0.190000
vt 0.301962 0.220000
vt 0.250000 0.310000
vt 0.198038 0.220000
vt 1.000000 0.500000
s 0
f 25/1/1 3/2/1 13/3/1
f 26/4/2 5/5/2 15/6/2
f 27/7/3 7/8/3 17/9/3
f 28/10/4 9/11/4 19/12/4
f 2/13/5 38/14/5 43/15/5
f 32/16/6 11/17/6 21/18/6
f 33/19/7 1/20/7 23/21/7
f 3/22/8 41/23/8 46/24/8
f 4/25/9 25/1/9 14/26/9
f 6/27/10 26/4/10 16/28/10
f 8/29/11 27/7/11 18/30/11
f 10/31/12 28/10/12 20/32/12
f 16/33/13 37/34/13 6/35/13
f 24/36/14 38/14/14 2/13/14
f 20/37/15 39/38/15 10/39/15
f 12/40/16 32/16/16 22/41/16
f 2/42/17 33/19/17 24/43/17
f 23/44/18 40/45/18 11/46/18
f 15/47/19 41/23/19 3/22/19
f 19/48/20 42/49/20 7/50/20
f 21/51/21 48/52/21 36/53/21
f 36/53/22 49/54/22 21/51/22
f 9/55/23 49/54/23 19/48/23
f 17/56/24 47/57/24 35/58/24
f 35/58/25 50/59/25 17/56/25
f 5/60/26 50/59/26 15/47/26
f 13/61/27 46/24/27 34/62/27
f 34/62/28 51/63/28 13/61/28
f 1/64/29 51/63/29 23/44/29
f 12/40/30 24/43/30 33/19/30
f 10/31/31 22/41/31 32/16/31
f 18/65/32 45/66/32 31/67/32
f 31/67/33 52/68/33 18/65/33
f 8/69/34 52/68/34 20/37/34
f 22/70/35 44/71/35 30/72/35
f 30/72/36 53/73/36 22/70/36
f 12/74/37 53/73/37 24/36/37
f 14/75/38 43/15/38 29/76/38
f 29/76/39 54/77/39 14/75/39
f 4/78/40 54/77/40 16/33/40
f 8/29/41 20/32/41 28/10/41
f 6/27/42 18/30/42 27/7/42
f 4/25/43 16/28/43 26/4/43
f 2/79/44 14/26/44 25/1/44
f 34/62/45 55/80/45 40/45/45
f 34/62/46 56/81/46 55/80/46
f 35/58/47 47/57/47 57/82/47
f 33/19/48 11/17/48 12/40/48
f 32/16/49 9/11/49 10/31/49
f 29/76/50 58/83/50 37/34/50
f 29/76/51 59/84/51 58/83/51
f 30/72/52 44/71/52 60/85/52
f 28/10/53 7/8/53 8/29/53
f 27/7/54 5/5/54 6/27/54
f 26/4/55 3/2/55 4/25/55
f 25/1/56 1/86/56 2/79/56
f 4/25/57 3/2/57 25/1/57
f 6/27/58 5/5/58 26/4/58
f 8/29/59 7/8/59 27/7/59
f 10/31/60 9/11/60 28/10/60
f 12/40/61 11/17/61 32/16/61
f 2/42/62 1/20/62 33/19/62
f 33/19/63 23/21/63 11/17/63
f 32/16/64 21/18/64 9/11/64
f 28/10/65 19/12/65 7/8/65
f 27/7/66 17/9/66 5/5/66
f 26/4/67 15/6/67 3/2/67
f 25/1/68 13/3/68 1/86/68
f 60/85/69 39/38/69 31/67/69
f 60/85/70 44/71/70 39/38/70
f 44/71/71 10/39/71 39/38/71
f 58/83/72 60/85/72 31/67/72
f 58/83/73 59/84/73 60/85/73
f 59/84/74 30/72/74 60/85/74
f 37/34/75 45/66/75 6/35/75
f 37/34/76 58/83/76 45/66/76
f 58/83/77 31/67/77 45/66/77
f 57/82/78 42/49/78 36/53/78
f 57/82/79 47/57/79 42/49/79
f 47/57/80 7/50/80 42/49/80
f 55/80/81 57/82/81 36/53/81
f 55/80/82 56/81/82 57/82/82
f 56/81/83 35/58/83 57/82/83
f 40/45/84 48/52/84 11/46/84
f 40/45/85 55/80/85 48/52/85
f 55/80/86 36/53/86 48/52/86
f 46/24/87 56/81/87 34/62/87
f 46/24/88 41/23/88 56/81/88
f 41/23/89 35/58/89 56/81/89
f 43/15/90 59/84/90 29/76/90
f 43/15/91 38/14/91 59/84/91
f 38/14/92 30/72/92 59/84/92
f 16/33/93 29/76/93 37/34/93
f 24/36/94 30/72/94 38/14/94
f 20/37/95 31/67/95 39/38/95
f 23/44/96 34/62/96 40/45/96
f 15/47/97 35/58/97 41/23/97
f 19/48/98 36/53/98 42/49/98
f 21/51/99 11/46/99 48/52/99
f 36/53/100 19/48/100 49/54/100
f 9/55/101 21/51/101 49/54/101
f 17/56/102 7/50/102 47/57/102
f 35/58/103 15/47/103 50/59/103
f 5/60/104 17/56/104 50/59/104
f 13/61/105 3/22/105 46/24/105
f 34/62/106 23/44/106 51/63/106
f 1/64/107 13/61/107 51/63/107
f 18/65/108 6/35/108 45/66/108
f 31/67/109 20/37/109 52/68/109
f 8/69/110 18/65/110 52/68/110
f 22/70/111 10/39/111 44/71/111
f 30/72/112 24/36/112 53/73/112
f 12/74/113 22/70/113 53/73/113
f 14/75/114 2/13/114 43/15/114
f 29/76/115 16/33/115 54/77/115
f 4/78/116 14/75/116 54/77/116
