# Blender 4.3.0
# www.blender.org
o Cylinder
v 0.000000 -3.535954 -26.345736
v 0.000000 2.055101 -24.422068
v 23.382225 -4.039216 -13.499735
v 19.848434 0.898035 -11.459499
v 19.245308 -0.361918 11.111283
v 24.294388 4.850039 14.026371
v 0.000000 -4.266310 27.294468
v 0.000000 0.700804 22.662790
v -18.800486 0.033482 10.854465
v -23.273705 3.942751 13.437079
v -19.708393 -0.773535 -11.378646
v -23.817627 4.426227 -13.751114
v 10.376882 -1.603138 -17.973286
v 12.105986 5.061308 -20.968182
v 18.540583 0.610019 0.000000
v 21.655796 2.505161 0.000000
v 11.376584 -3.602521 19.704823
v 10.144321 1.138023 17.570480
v -11.527563 -3.904476 19.966326
v -11.866710 4.582764 20.553745
v -24.843643 -5.692974 0.000000
v -22.979267 3.828618 0.000000
v -11.809172 -4.467688 -20.454086
v -9.449052 -0.252502 -16.366238
v 11.430353 0.000000 -19.797953
v 24.812992 0.000000 0.000000
v 11.327967 0.000000 19.620613
v -11.533453 0.000000 19.976526
v 10.825317 2.913423 -6.250000
v -10.825317 6.097772 -6.250000
v 0.000000 6.274071 12.500000
v -21.852148 0.000000 0.000000
v -12.270030 0.000000 -21.252316
v 0.000000 -3.752008 -12.500000
v 10.825317 -4.492208 6.250000
v -10.825317 -1.141549 6.250000
v 16.237976 5.074755 3.125000
v -5.412659 -0.332922 -15.625000
v -10.825317 -1.563781 12.500000
v -10.825317 1.726750 -12.500000
v 16.237976 -5.627868 -3.125000
v -5.412659 0.081111 15.625000
v 5.412659 -0.401412 -15.625000
v -16.237976 0.208124 3.125000
v 10.825317 6.290573 12.500000
v 10.825317 -3.293532 -12.500000
v 5.412659 0.464156 15.625000
v -16.237976 0.919242 -3.125000
v -16.237976 -5.383393 9.375000
v 16.237976 -2.617857 9.375000
v 0.000000 1.993443 -18.750000
v 0.000000 6.301507 18.750000
v -16.237976 6.139205 -9.375000
v 16.237976 5.596189 -9.375000
v -5.412659 0.704805 -3.125000
v 5.412659 -3.939149 -3.125000
v 0.000000 -3.584173 6.250000
v 5.412659 4.395996 3.125000
v 0.000000 -0.491354 -6.250000
v -5.412659 0.894182 3.125000
vn 0.0738 -0.7699 -0.6338
vn -0.0965 -0.9921 -0.0807
vn 0.5537 0.0269 0.8323
vn -0.7821 -0.0028 0.6231
vn 0.0061 0.9641 0.2655
vn -0.8683 0.4563 -0.1946
vn -0.4245 -0.2015 -0.8827
vn -0.0740 -0.9769 -0.2005
vn 0.6949 -0.2488 -0.6747
vn 0.6033 0.7603 -0.2406
vn 0.1643 0.8996 0.4045
vn -0.5180 -0.1439 0.8432
vn 0.3152 0.9246 -0.2139
vn -0.0260 0.9687 0.2469
vn 0.3017 0.7763 -0.5535
vn -0.9583 -0.2821 0.0462
vn -0.1319 0.9831 0.1269
vn 0.2888 -0.7723 0.5658
vn 0.7486 -0.4965 0.4395
vn 0.2514 -0.8630 -0.4381
vn 0.4465 -0.7845 -0.4303
vn 0.4318 -0.8230 -0.3692
vn -0.7752 -0.4792 0.4117
vn -0.5972 -0.7983 0.0773
vn 0.3006 -0.9524 0.0507
vn 0.6355 -0.7646 -0.1072
vn 0.0404 -0.9538 -0.2979
vn -0.2004 -0.7213 -0.6630
vn 0.3366 -0.7613 0.5542
vn 0.2881 0.9504 -0.1172
vn -0.9591 -0.2824 -0.0186
vn -0.0011 0.7015 0.7127
vn 0.4533 0.8914 -0.0039
vn 0.0416 0.5722 0.8191
vn 0.1540 0.7942 0.5878
vn -0.0933 0.9802 0.1745
vn 0.1546 0.7993 -0.5807
vn -0.5997 0.7976 0.0642
vn -0.3955 0.9131 0.0988
vn 0.7294 0.6522 -0.2065
vn -0.2168 -0.1375 0.9665
vn -0.0913 0.8474 0.5231
vn 0.6086 0.7670 -0.2035
vn 0.3232 -0.2539 -0.9116
vn -0.4457 -0.8806 0.1613
vn -0.3859 -0.8995 0.2048
vn -0.0754 -0.8989 0.4317
vn -0.5682 -0.6682 -0.4804
vn -0.5916 -0.7884 0.1687
vn -0.0614 0.9798 -0.1904
vn -0.2854 0.9075 -0.3083
vn -0.0545 0.8594 0.5084
vn -0.2072 0.6672 0.7155
vn 0.4813 -0.7341 0.4790
vn 0.7284 0.6313 -0.2661
vn 0.4035 0.2977 -0.8652
vn 0.5199 0.6165 -0.5913
vn 0.6066 -0.7441 0.2797
vn 0.2321 0.6634 0.7114
vn -0.4766 -0.7943 0.3768
vn -0.7582 -0.6444 -0.0990
vn -0.2863 0.3117 -0.9060
vn -0.7774 -0.1875 -0.6004
vn -0.8593 0.4515 0.2402
vn -0.5365 -0.0030 0.8439
vn 0.7324 0.0258 0.6804
vn -0.0925 -0.9512 0.2944
vn 0.4755 -0.7786 -0.4096
vn -0.5818 0.8036 -0.1252
vn -0.0617 0.9736 0.2196
vn 0.4002 0.9146 -0.0582
vn -0.2888 0.8928 -0.3456
vn -0.2933 0.9066 -0.3033
vn 0.5122 0.8416 0.1714
vn 0.1132 0.9916 -0.0632
vn -0.0617 0.9846 -0.1633
vn -0.0015 0.9804 -0.1973
vn -0.2133 -0.9454 0.2465
vn 0.0327 -0.9243 0.3803
vn 0.0330 -0.9315 -0.3623
vn -0.2097 -0.9293 -0.3041
vn -0.3871 -0.9024 -0.1893
vn -0.0836 -0.9964 -0.0105
vn 0.2793 -0.9570 0.0788
vn -0.0197 -0.9951 -0.0971
vn -0.0194 -0.9788 -0.2040
vn 0.0423 -0.9981 -0.0443
vn -0.1523 -0.9761 -0.1551
vn -0.1541 -0.9876 0.0307
vn -0.2961 0.9413 -0.1619
vn 0.0063 0.9999 0.0132
vn 0.4999 0.8213 -0.2748
vn 0.2329 0.9096 -0.3442
vn 0.1119 0.8484 -0.5174
vn -0.4818 0.6654 -0.5702
vn -0.3611 -0.7135 0.6004
vn 0.7198 -0.5045 0.4767
vn 0.4614 -0.8740 -0.1524
vn 0.5882 -0.8045 -0.0823
vn 0.5614 -0.8163 -0.1357
vn -0.6427 -0.4694 0.6055
vn -0.2601 -0.8468 -0.4639
vn 0.4220 -0.8841 -0.2007
vn 0.5273 -0.8328 0.1688
vn -0.0796 -0.9543 -0.2882
vn 0.4475 -0.6584 -0.6052
vn -0.3085 -0.7691 0.5598
vn -0.0057 0.7018 0.7124
vn -0.1440 0.9896 -0.0043
vn 0.3608 0.5341 0.7646
vn 0.4721 0.8815 0.0029
vn 0.2844 0.8289 -0.4816
vn -0.2514 0.9662 0.0573
vn -0.3323 0.8354 0.4378
vn -0.2035 0.8888 0.4106
vn 0.6976 0.6599 -0.2791
vt 0.916667 0.750000
vt 0.833333 0.500000
vt 0.916667 0.500000
vt 0.750000 0.750000
vt 0.666667 0.500000
vt 0.750000 0.500000
vt 0.583333 0.750000
vt 0.500000 0.500000
vt 0.583333 0.500000
vt 0.416667 0.750000
vt 0.333333 0.500000
vt 0.416667 0.500000
vt 0.250000 0.490000
vt 0.198038 0.400000
vt 0.301962 0.400000
vt 0.250000 0.750000
vt 0.166667 0.500000
vt 0.250000 0.500000
vt 0.083333 0.750000
vt -0.000000 0.500000
vt 0.083333 0.500000
vt 0.957846 0.370000
vt 0.905885 0.280000
vt 0.853923 0.370000
vt 0.833333 1.000000
vt 0.916667 1.000000
vt 0.666667 1.000000
vt 0.750000 1.000000
vt 0.500000 1.000000
vt 0.583333 1.000000
vt 0.333333 1.000000
vt 0.416667 1.000000
vt 0.457846 0.250000
vt 0.405885 0.220000
vt 0.457846 0.130000
vt 0.146077 0.430000
vt 0.146077 0.070000
vt 0.146077 0.130000
vt 0.042154 0.130000
vt 0.166667 1.000000
vt 0.250000 1.000000
vt -0.000000 1.000000
vt 0.083333 1.000000
vt 0.646077 0.430000
vt 0.646077 0.370000
vt 0.542154 0.370000
vt 0.957846 0.250000
vt 0.646077 0.070000
vt 0.698038 0.100000
vt 0.750000 0.010000
vt 0.542154 0.250000
vt 0.594115 0.280000
vt 0.646077 0.190000
vt 0.594115 0.160000
vt 0.542154 0.130000
vt 0.853923 0.070000
vt 0.801962 0.100000
vt 0.853923 0.190000
vt 0.905885 0.160000
vt 0.957846 0.130000
vt 0.853923 0.430000
vt 0.750000 0.370000
vt 0.750000 0.430000
vt 0.750000 0.490000
vt 0.353923 0.070000
vt 0.353923 0.130000
vt 0.250000 0.130000
vt 0.250000 0.070000
vt 0.250000 0.010000
vt 0.042154 0.250000
vt 0.094115 0.220000
vt 0.146077 0.310000
vt 0.094115 0.340000
vt 0.042154 0.370000
vt 0.353923 0.430000
vt 0.353923 0.310000
vt 0.405885 0.340000
vt 0.457846 0.370000
vt 1.000000 1.000000
vt 0.698038 0.280000
vt 0.801962 0.280000
vt 0.750000 0.190000
vt 0.301962 0.220000
vt 0.250000 0.310000
vt 0.198038 0.220000
vt 1.000000 0.500000
s 0
f 25/1/1 3/2/1 13/3/1
f 26/4/2 5/5/2 15/6/2
f 27/7/3 7/8/3 17/9/3
f 28/10/4 9/11/4 19/12/4
f 2/13/5 38/14/5 43/15/5
f 32/16/6 11/17/6 21/18/6
f 33/19/7 1/20/7 23/21/7
f 3/22/8 41/23/8 46/24/8
f 4/25/9 25/1/9 14/26/9
f 6/27/10 26/4/10 16/28/10
f 8/29/11 27/7/11 18/30/11
f 10/31/12 28/10/12 20/32/12
f 16/33/13 37/34/13 6/35/13
f 24/36/14 38/14/14 2/13/14
f 20/37/15 39/38/15 10/39/15
f 12/40/16 32/16/16 22/41/16
f 2/42/17 33/19/17 24/43/17
f 23/44/18 40/45/18 11/46/18
f 15/47/19 41/23/19 3/22/19
f 19/48/20 42/49/20 7/50/20
f 21/51/21 48/52/21 36/53/21
f 36/53/22 49/54/22 21/51/22
f 9/55/23 49/54/23 19/48/23
f 17/56/24 47/57/24 35/58/24
f 35/58/25 50/59/25 17/56/25
f 5/60/26 50/59/26 15/47/26
f 13/61/27 46/24/27 34/62/27
f 34/62/28 51/63/28 13/61/28
f 1/64/29 51/63/29 23/44/29
f 12/40/30 24/43/30 33/19/30
f 10/31/31 22/41/31 32/16/31
f 18/65/32 45/66/32 31/67/32
f 31/67/33 52/68/33 18/65/33
f 8/69/34 52/68/34 20/37/34
f 22/70/35 44/71/35 30/72/35
f 30/72/36 53/73/36 22/70/36
f 12/74/37 53/73/37 24/36/37
f 14/75/38 43/15/38 29/76/38
f 29/76/39 54/77/39 14/75/39
f 4/78/40 54/77/40 16/33/40
f 8/29/41 20/32/41 28/10/41
f 6/27/42 18/30/42 27/7/42
f 4/25/43 16/28/43 26/4/43
f 2/79/44 14/26/44 25/1/44
f 34/62/45 55/80/45 40/45/45
f 34/62/46 56/81/46 55/80/46
f 35/58/47 47/57/47 57/82/47
f 33/19/48 11/17/48 12/40/48
f 32/16/49 9/11/49 10/31/49
f 29/76/50 58/83/50 37/34/50
f 29/76/51 59/84/51 58/83/51
f 30/72/52 44/71/52 60/85/52
f 28/10/53 7/8/53 8/29/53
f 27/7/54 5/5/54 6/27/54
f 26/4/55 3/2/55 4/25/55
f 25/1/56 1/86/56 2/79/56
f 4/25/57 3/2/57 25/1/57
f 6/27/58 5/5/58 26/4/58
f 8/29/59 7/8/59 27/7/59
f 10/31/60 9/11/60 28/10/60
f 12/40/61 11/17/61 32/16/61
f 2/42/62 1/20/62 33/19/62
f 33/19/63 23/21/63 11/17/63
f 32/16/64 21/18/64 9/11/64
f 28/10/65 19/12/65 7/8/65
f 27/7/66 17/9/66 5/5/66
f 26/4/67 15/6/67 3/2/67
f 25/1/68 13/3/68 1/86/68
f 60/85/69 39/38/69 31/67/69
f 60/85/70 44/71/70 39/38/70
f 44/71/71 10/39/71 39/38/71
f 58/83/72 60/85/72 31/67/72
f 58/83/73 59/84/73 60/85/73
f 59/84/74 30/72/74 60/85/74
f 37/34/75 45/66/75 6/35/75
f 37/34/76 58/83/76 45/66/76
f 58/83/77 31/67/77 45/66/77
f 57/82/78 42/49/78 36/53/78
f 57/82/79 47/57/79 42/49/79
f 47/57/80 7/50/80 42/49/80
f 55/80/81 57/82/81 36/53/81
f 55/80/82 56/81/82 57/82/82
f 56/81/83 35/58/83 57/82/83
f 40/45/84 48/52/84 11/46/84
f 40/45/85 55/80/85 48/52/85
f 55/80/86 36/53/86 48/52/86
f 46/24/87 56/81/87 34/62/87
f 46/24/88 41/23/88 56/81/88
f 41/23/89 35/58/89 56/81/89
f 43/15/90 59/84/90 29/76/90
f 43/15/91 38/14/91 59/84/91
f 38/14/92 30/72/92 59/84/92
f 16/33/93 29/76/93 37/34/93
f 24/36/94 30/72/94 38/14/94
f 20/37/95 31/67/95 39/38/95
f 23/44/96 34/62/96 40/45/96
f 15/47/97 35/58/97 41/23/97
f 19/48/98 36/53/98 42/49/98
f 21/51/99 11/46/99 48/52/99
f 36/53/100 19/48/100 49/54/100
f 9/55/101 21/51/101 49/54/101
f 17/56/102 7/50/102 47/57/102
f 35/58/103 15/47/103 50/59/103
f 5/60/104 17/56/104 50/59/104
f 13/61/105 3/22/105 46/24/105
f 34/62/106 23/44/106 51/63/106
f 1/64/107 13/61/107 51/63/107
f 18/65/108 6/35/108 45/66/108
f 31/67/109 20/37/109 52/68/109
f 8/69/110 18/65/110 52/68/110
f 22/70/111 10/39/111 44/71/111
f 30/72/112 24/36/112 53/73/112
f 12/74/113 22/70/113 53/73/113
f 14/75/114 2/13/114 43/15/114
f 29/76/115 16/33/115 54/77/115
f 4/78/116 14/75/116 54/77/116
