# Blender 4.3.0
# www.blender.org
o Cylinder
v 0.000000 -0.177254 -21.982683
v 0.000000 2.057017 -24.424557
v 23.039843 -3.734871 -13.302060
v 20.895668 1.828914 -12.064120
v 24.288799 -4.845049 14.023145
v 22.726496 3.456336 13.121148
v 0.000000 -1.767052 24.047888
v 0.000000 0.652192 22.599642
v -20.150839 -1.166839 11.634092
v -20.116802 1.136571 11.614441
v -20.291815 -1.292140 -11.715485
v -22.563507 3.311447 -13.027047
v 9.598632 0.046655 -16.625319
v 18.693367 0.457237 0.000000
v 20.192884 1.042265 0.000000
v 11.042060 -2.933481 19.125410
v 12.417024 5.683379 21.506916
v -10.832206 -2.513777 18.761932
v -9.820947 0.491281 17.010380
v -23.275826 -4.125173 0.000000
v -20.363571 1.212950 0.000000
v -11.119064 -3.087487 -19.258785
v -12.058138 4.965615 -20.885309
v 11.759018 0.000000 -20.367218
v 10.888796 0.000000 18.859947
v -12.406124 0.000000 21.488037
v 10.825317 3.421884 -6.250000
v -10.825317 3.347045 -6.250000
v 0.000000 1.375969 12.500000
v -18.387732 0.000000 0.000000
v -11.674732 0.000000 -20.221230
v 0.000000 -4.108927 -12.500000
v 10.825317 -3.498467 6.250000
v -10.825317 0.476161 6.250000
v 16.237976 0.008888 3.125000
v -5.412659 4.515659 -15.625000
v -10.825317 0.265892 12.500000
v -10.825317 0.189129 -12.500000
v 16.237976 -0.868307 -3.125000
v -5.412659 -6.013158 15.625000
v 5.412659 0.875903 -15.625000
v -16.237976 1.252400 3.125000
v 10.825317 0.487353 12.500000
v 10.825317 -5.405101 -12.500000
v 5.412659 -5.717612 15.625000
v -16.237976 1.336040 -3.125000
v -16.237976 0.478403 9.375000
v 16.237976 -5.235900 9.375000
v 0.000000 -5.372834 -18.750000
v 0.000000 6.679483 18.750000
v -16.237976 0.231939 -9.375000
v 16.237976 3.252960 -9.375000
v -5.412659 -4.102502 -3.125000
v 5.412659 -6.624497 -3.125000
v 0.000000 0.402087 6.250000
v 5.412659 5.838018 3.125000
v 0.000000 -0.011625 -6.250000
v -5.412659 -1.321384 3.125000
vn -0.2396 -0.9626 -0.1263
vn 0.4141 0.1035 0.9043
vn -0.4540 -0.7701 0.4480
vn 0.3179 0.9456 -0.0686
vn -0.6448 0.7641 0.0205
vn -0.1462 -0.3183 -0.9367
vn 0.1496 -0.9211 0.3594
vn -0.1225 0.9890 -0.0831
vn 0.3616 -0.9269 0.1007
vn 0.2626 -0.4645 0.8457
vn 0.0039 0.9938 0.1113
vn -0.3308 0.9374 -0.1086
vn 0.1884 0.9698 -0.1551
vn 0.0998 0.9924 -0.0718
vn -0.5225 -0.8512 -0.0489
vn -0.3115 -0.1496 -0.9384
vn 0.1742 -0.8890 0.4234
vn 0.0922 -0.9407 0.3266
vn -0.2096 -0.8124 0.5442
vn 0.4736 -0.8092 -0.3476
vn 0.1836 -0.9299 0.3188
vn 0.1614 -0.9096 -0.3829
vn 0.4268 -0.9038 0.0325
vn -0.3298 -0.9429 0.0469
vn 0.2944 -0.8491 -0.4385
vn -0.0733 -0.6122 -0.7873
vn 0.4540 -0.8733 0.1766
vn -0.0696 -0.5270 -0.8470
vn -0.5766 -0.1519 -0.8028
vn -0.5232 -0.8522 0.0055
vn 0.0705 0.8586 -0.5078
vn 0.2007 0.7470 -0.6339
vn -0.4389 0.4837 0.7573
vn -0.1221 0.9813 0.1488
vn -0.3674 0.8944 -0.2552
vn 0.1823 0.8843 0.4299
vn 0.1102 0.9413 -0.3192
vn -0.1388 0.9465 -0.2915
vn 0.3337 0.9392 0.0807
vn -0.0591 0.9954 0.0751
vn 0.4923 -0.4728 0.7308
vn 0.3632 -0.9309 -0.0395
vn 0.1474 0.9864 0.0728
vn -0.3610 -0.9091 -0.2078
vn -0.2250 -0.9658 -0.1292
vn -0.3127 -0.8679 -0.3860
vn -0.5811 -0.4750 -0.6608
vn -0.9888 0.0133 -0.1485
vn 0.4736 0.8795 0.0468
vn -0.2787 0.8788 -0.3874
vn 0.2183 0.9180 0.3311
vn -0.1033 0.5109 0.8534
vn 0.3888 0.1715 0.9052
vn 0.9278 0.3120 0.2048
vn 0.1033 -0.7338 -0.6714
vn 0.5781 0.3831 -0.7205
vn 0.9367 0.1415 -0.3203
vn 0.3095 0.4884 0.8159
vn -0.7871 0.0169 0.6166
vn -0.9009 -0.3906 0.1895
vn -0.1123 -0.7331 -0.6708
vn -0.6371 -0.3316 -0.6958
vn -0.6448 0.7641 -0.0211
vn -0.2313 -0.7781 0.5840
vn 0.3704 0.1029 0.9231
vn 0.0124 -0.9997 0.0196
vn -0.0995 0.9700 -0.2217
vn 0.2312 0.9724 -0.0312
vn 0.0881 0.9947 0.0538
vn -0.5499 0.8315 0.0783
vn -0.5407 0.8176 -0.1980
vn 0.2835 0.9137 0.2913
vn -0.2291 0.9564 -0.1811
vn 0.4622 0.8583 0.2230
vn 0.0725 0.8837 0.4625
vn -0.0056 -0.8237 -0.5669
vn 0.0227 -0.8311 -0.5556
vn 0.0245 -0.8989 0.4374
vn -0.0062 -0.8999 0.4360
vn -0.1947 -0.8355 0.5138
vn -0.3021 -0.8383 0.4539
vn 0.1683 -0.9620 0.2149
vn -0.4440 -0.8837 -0.1482
vn -0.4420 -0.8799 0.1745
vn -0.1166 -0.9740 -0.1940
vn 0.4639 -0.8724 0.1543
vn 0.4694 -0.8827 0.0233
vn -0.3013 0.9498 -0.0840
vn 0.3074 0.9142 0.2640
vn 0.2846 0.9173 0.2786
vn 0.0171 0.9427 0.3333
vn -0.0211 0.9935 0.1117
vn -0.1020 0.9944 -0.0270
vn -0.3344 -0.8422 0.4228
vn 0.4592 -0.8882 0.0159
vn -0.6064 -0.7733 -0.1851
vn 0.6015 -0.7979 -0.0397
vn -0.1334 -0.9639 -0.2304
vn 0.4382 -0.8922 0.1092
vn 0.1254 -0.8648 0.4862
vn 0.0220 -0.8571 -0.5147
vn -0.0657 -0.9784 0.1960
vn 0.0294 -0.5989 -0.8003
vn -0.2060 -0.9591 0.1940
vn 0.4373 -0.4751 -0.7636
vn -0.1914 0.8644 -0.4649
vn -0.3436 0.7161 -0.6076
vn -0.1425 0.5328 0.8342
vn -0.0148 0.9999 0.0069
vn -0.5525 0.8221 0.1375
vn 0.3987 0.9136 0.0798
vn 0.1967 0.9804 0.0106
vn 0.1313 0.9758 0.1747
vn 0.0298 0.9038 -0.4270
vt 0.916667 0.750000
vt 0.833333 0.500000
vt 0.916667 0.500000
vt 0.583333 0.750000
vt 0.500000 0.500000
vt 0.583333 0.500000
vt 0.416667 0.750000
vt 0.333333 0.500000
vt 0.416667 0.500000
vt 0.250000 0.490000
vt 0.198038 0.400000
vt 0.301962 0.400000
vt 0.250000 0.750000
vt 0.166667 0.500000
vt 0.250000 0.500000
vt 0.083333 0.750000
vt -0.000000 0.500000
vt 0.083333 0.500000
vt 0.957846 0.370000
vt 0.905885 0.280000
vt 0.853923 0.370000
vt 0.833333 1.000000
vt 0.916667 1.000000
vt 0.666667 1.000000
vt 0.750000 0.750000
vt 0.750000 1.000000
vt 0.500000 1.000000
vt 0.583333 1.000000
vt 0.333333 1.000000
vt 0.416667 1.000000
vt 0.457846 0.250000
vt 0.405885 0.220000
vt 0.457846 0.130000
vt 0.146077 0.430000
vt 0.146077 0.070000
vt 0.146077 0.130000
vt 0.042154 0.130000
vt 0.166667 1.000000
vt 0.250000 1.000000
vt -0.000000 1.000000
vt 0.083333 1.000000
vt 0.646077 0.430000
vt 0.646077 0.370000
vt 0.542154 0.370000
vt 0.957846 0.250000
vt 0.646077 0.070000
vt 0.698038 0.100000
vt 0.750000 0.010000
vt 0.542154 0.250000
vt 0.594115 0.280000
vt 0.646077 0.190000
vt 0.594115 0.160000
vt 0.542154 0.130000
vt 0.853923 0.070000
vt 0.801962 0.100000
vt 0.853923 0.190000
vt 0.905885 0.160000
vt 0.957846 0.130000
vt 0.853923 0.430000
vt 0.750000 0.370000
vt 0.750000 0.430000
vt 0.750000 0.490000
vt 0.353923 0.070000
vt 0.353923 0.130000
vt 0.250000 0.130000
vt 0.250000 0.070000
vt 0.250000 0.010000
vt 0.042154 0.250000
vt 0.094115 0.220000
vt 0.146077 0.310000
vt 0.094115 0.340000
vt 0.042154 0.370000
vt 0.353923 0.430000
vt 0.353923 0.310000
vt 0.405885 0.340000
vt 0.457846 0.370000
vt 1.000000 1.000000
vt 0.698038 0.280000
vt 0.801962 0.280000
vt 0.750000 0.190000
vt 0.301962 0.220000
vt 0.250000 0.310000
vt 0.198038 0.220000
vt 0.666667 0.500000
vt 1.000000 0.500000
s 0
f 24/1/1 3/2/1 13/3/1
f 25/4/2 7/5/2 16/6/2
f 26/7/3 9/8/3 18/9/3
f 2/10/4 36/11/4 41/12/4
f 30/13/5 11/14/5 20/15/5
f 31/16/6 1/17/6 22/18/6
f 3/19/7 39/20/7 44/21/7
f 4/22/8 24/1/8 13/23/8
f 6/24/9 14/25/9 15/26/9
f 8/27/10 25/4/10 17/28/10
f 10/29/11 26/7/11 19/30/11
f 15/31/12 35/32/12 6/33/12
f 23/34/13 36/11/13 2/10/13
f 19/35/14 37/36/14 10/37/14
f 12/38/15 30/13/15 21/39/15
f 2/40/16 31/16/16 23/41/16
f 22/42/17 38/43/17 11/44/17
f 14/45/18 39/20/18 3/19/18
f 18/46/19 40/47/19 7/48/19
f 20/49/20 46/50/20 34/51/20
f 34/51/21 47/52/21 20/49/21
f 9/53/22 47/52/22 18/46/22
f 16/54/23 45/55/23 33/56/23
f 33/56/24 48/57/24 16/54/24
f 5/58/25 48/57/25 14/45/25
f 13/59/26 44/21/26 32/60/26
f 32/60/27 49/61/27 13/59/27
f 1/62/28 49/61/28 22/42/28
f 12/38/29 23/41/29 31/16/29
f 10/29/30 21/39/30 30/13/30
f 17/63/31 43/64/31 29/65/31
f 29/65/32 50/66/32 17/63/32
f 8/67/33 50/66/33 19/35/33
f 21/68/34 42/69/34 28/70/34
f 28/70/35 51/71/35 21/68/35
f 12/72/36 51/71/36 23/34/36
f 13/73/37 41/12/37 27/74/37
f 27/74/38 52/75/38 13/73/38
f 4/76/39 52/75/39 15/31/39
f 8/27/40 19/30/40 26/7/40
f 6/24/41 17/28/41 25/4/41
f 4/22/42 15/26/42 14/25/42
f 2/77/43 13/23/43 24/1/43
f 32/60/44 53/78/44 38/43/44
f 32/60/45 54/79/45 53/78/45
f 33/56/46 45/55/46 55/80/46
f 31/16/47 11/14/47 12/38/47
f 30/13/48 9/8/48 10/29/48
f 27/74/49 56/81/49 35/32/49
f 27/74/50 57/82/50 56/81/50
f 28/70/51 42/69/51 58/83/51
f 26/7/52 7/5/52 8/27/52
f 25/4/53 5/84/53 6/24/53
f 14/25/54 3/2/54 4/22/54
f 24/1/55 1/85/55 2/77/55
f 4/22/56 3/2/56 24/1/56
f 6/24/57 5/84/57 14/25/57
f 8/27/58 7/5/58 25/4/58
f 10/29/59 9/8/59 26/7/59
f 12/38/60 11/14/60 30/13/60
f 2/40/61 1/17/61 31/16/61
f 31/16/62 22/18/62 11/14/62
f 30/13/63 20/15/63 9/8/63
f 26/7/64 18/9/64 7/5/64
f 25/4/65 16/6/65 5/84/65
f 24/1/66 13/3/66 1/85/66
f 58/83/67 37/36/67 29/65/67
f 58/83/68 42/69/68 37/36/68
f 42/69/69 10/37/69 37/36/69
f 56/81/70 58/83/70 29/65/70
f 56/81/71 57/82/71 58/83/71
f 57/82/72 28/70/72 58/83/72
f 35/32/73 43/64/73 6/33/73
f 35/32/74 56/81/74 43/64/74
f 56/81/75 29/65/75 43/64/75
f 55/80/76 40/47/76 34/51/76
f 55/80/77 45/55/77 40/47/77
f 45/55/78 7/48/78 40/47/78
f 53/78/79 55/80/79 34/51/79
f 53/78/80 54/79/80 55/80/80
f 54/79/81 33/56/81 55/80/81
f 38/43/82 46/50/82 11/44/82
f 38/43/83 53/78/83 46/50/83
f 53/78/84 34/51/84 46/50/84
f 44/21/85 54/79/85 32/60/85
f 44/21/86 39/20/86 54/79/86
f 39/20/87 33/56/87 54/79/87
f 41/12/88 57/82/88 27/74/88
f 41/12/89 36/11/89 57/82/89
f 36/11/90 28/70/90 57/82/90
f 15/31/91 27/74/91 35/32/91
f 23/34/92 28/70/92 36/11/92
f 19/35/93 29/65/93 37/36/93
f 22/42/94 32/60/94 38/43/94
f 14/45/95 33/56/95 39/20/95
f 18/46/96 34/51/96 40/47/96
f 20/49/97 11/44/97 46/50/97
f 34/51/98 18/46/98 47/52/98
f 9/53/99 20/49/99 47/52/99
f 16/54/100 7/48/100 45/55/100
f 33/56/101 14/45/101 48/57/101
f 5/58/102 16/54/102 48/57/102
f 13/59/103 3/19/103 44/21/103
f 32/60/104 22/42/104 49/61/104
f 1/62/105 13/59/105 49/61/105
f 17/63/106 6/33/106 43/64/106
f 29/65/107 19/35/107 50/66/107
f 8/67/108 17/63/108 50/66/108
f 21/68/109 10/37/109 42/69/109
f 28/70/110 23/34/110 51/71/110
f 12/72/111 21/68/111 51/71/111
f 13/73/112 2/10/112 41/12/112
f 27/74/113 15/31/113 52/75/113
f 4/76/114 13/73/114 52/75/114
