# Blender 4.3.0
# www.blender.org
o Cylinder
v 0.000000 -0.568783 -22.491291
v 0.000000 0.982500 -23.028742
v 20.694443 -1.650039 -11.947943
v 21.706352 2.549527 -12.532168
v 18.688726 0.132824 10.789941
v 23.994326 4.583314 13.853130
v 0.000000 -5.179759 28.481054
v 0.000000 5.039532 28.298927
v -18.598835 0.212728 10.738042
v -19.804516 0.858980 11.434143
v -23.571350 -4.207330 -13.608926
v -20.930429 1.859813 -12.084189
v 11.419476 -3.688304 -19.779112
v 11.778793 4.406932 -20.401470
v 22.420319 -3.269676 0.000000
v 18.793011 -0.357594 0.000000
v 10.874812 -2.598989 18.835728
v 12.468025 5.785380 21.595253
v -9.880877 -0.611139 17.114182
v -10.053726 0.956834 17.413565
v -23.674706 -4.524048 0.000000
v -20.509251 1.358627 0.000000
v -9.630243 -0.109877 -16.680071
v -10.048681 0.946745 -17.404827
v 9.407656 0.000000 -16.294538
v 21.145905 0.000000 0.000000
v 10.406528 0.000000 18.024635
v -13.072617 0.000000 22.642437
v 10.825317 -1.778613 -6.250000
v -10.825317 5.509394 -6.250000
v 0.000000 6.529099 12.500000
v -20.163944 0.000000 0.000000
v 0.000000 -2.796194 -12.500000
v 10.825317 -0.985745 6.250000
v -10.825317 -1.740483 6.250000
v 16.237976 1.033742 3.125000
v -5.412659 -1.835786 -15.625000
v -10.825317 -1.417803 12.500000
v -10.825317 -1.898035 -12.500000
v 16.237976 -3.260720 -3.125000
v -5.412659 -6.377098 15.625000
v 5.412659 6.921017 -15.625000
v -16.237976 0.117510 3.125000
v 10.825317 -0.611973 12.500000
v 10.825317 -4.435882 -12.500000
v 5.412659 -4.097263 15.625000
v -16.237976 0.478477 -3.125000
v -16.237976 -6.419060 9.375000
v 16.237976 -4.874359 9.375000
v 0.000000 -4.712198 -18.750000
v 0.000000 3.979489 18.750000
v -16.237976 5.060837 -9.375000
v 16.237976 3.819910 -9.375000
v -5.412659 -7.030140 -3.125000
v 5.412659 -0.036103 -3.125000
v 0.000000 -2.687545 6.250000
v 5.412659 -0.792212 3.125000
v 0.000000 5.937707 -6.250000
v -5.412659 3.911673 3.125000
vn 0.3340 0.7371 -0.5874
vn 0.9123 0.3556 0.2034
vn 0.5790 0.3361 0.7428
vn -0.1223 -0.9917 0.0390
vn -0.6206 0.7672 -0.1617
vn -0.7900 0.6131 0.0083
vn 0.2734 -0.9612 -0.0374
vn 0.3334 -0.7325 -0.5935
vn -0.1441 0.9479 -0.2840
vn 0.4123 -0.5803 0.7023
vn -0.0892 0.9876 0.1292
vn 0.0691 0.9311 -0.3581
vn 0.2862 0.8071 0.5164
vn 0.2693 0.8499 -0.4530
vn -0.9689 -0.2463 0.0236
vn -0.3812 -0.6208 -0.6850
vn 0.1962 -0.9206 -0.3377
vn 0.0714 -0.9870 -0.1441
vn -0.6942 -0.6285 0.3508
vn 0.3810 -0.8260 -0.4155
vn 0.4012 -0.7824 -0.4764
vn -0.5734 -0.3558 0.7380
vn 0.3283 -0.9367 -0.1214
vn -0.5396 -0.8354 -0.1050
vn 0.7631 -0.4919 0.4191
vn -0.1488 -0.9824 -0.1130
vn 0.1114 -0.9501 0.2913
vn -0.4326 -0.6042 -0.6692
vn -0.3858 -0.6209 -0.6824
vn -0.9680 -0.2460 0.0489
vn 0.4539 0.6882 -0.5660
vn -0.2151 0.9042 0.3689
vn -0.2733 0.9560 -0.1061
vn -0.0809 0.8835 0.4614
vn -0.2305 0.9364 0.2648
vn -0.2122 0.7936 -0.5702
vn 0.5646 0.7416 0.3622
vn -0.6051 0.7437 0.2843
vn 0.3727 0.8811 0.2910
vn -0.3483 0.9369 -0.0297
vn 0.4115 -0.5804 0.7027
vn -0.1475 0.9705 0.1908
vn 0.3440 -0.7325 -0.5874
vn -0.0740 -0.8921 -0.4456
vn 0.5415 -0.8381 -0.0659
vn 0.1511 -0.9610 -0.2317
vn -0.2990 0.3530 -0.8866
vn -0.4341 -0.8972 0.0810
vn -0.1631 0.9670 -0.1959
vn 0.5632 0.7901 0.2420
vn -0.3120 0.8902 0.3319
vn -0.4024 0.0163 0.9153
vn 0.4065 -0.7948 0.4507
vn 0.9720 -0.2348 -0.0043
vn 0.5404 -0.2755 -0.7951
vn 0.3252 -0.2067 -0.9228
vn 0.5862 -0.7974 0.1433
vn 0.7056 0.0126 0.7085
vn -0.3903 -0.9058 0.1650
vn -0.9211 0.3719 0.1157
vn -0.5054 -0.2825 -0.8153
vn -0.7859 0.6098 0.1025
vn -0.3326 -0.9389 -0.0882
vn 0.6171 0.3336 0.7126
vn 0.9284 0.3618 -0.0850
vn 0.3401 0.7372 -0.5839
vn -0.5878 0.8007 0.1158
vn -0.3126 0.8920 0.3266
vn 0.2437 0.9697 0.0181
vn 0.3584 0.8248 -0.4372
vn 0.3663 0.8431 0.3937
vn -0.0388 0.9811 0.1896
vn -0.3625 0.9308 -0.0459
vn -0.1658 0.9832 0.0768
vn 0.5223 0.7918 -0.3168
vn -0.0797 -0.9110 -0.4046
vn 0.1992 -0.9456 -0.2572
vn 0.2061 -0.9785 0.0044
vn -0.0776 -0.8868 0.4556
vn 0.5411 -0.8375 0.0755
vn 0.1526 -0.9706 -0.1864
vn 0.1420 -0.9369 0.3195
vn -0.5658 -0.8158 -0.1199
vn -0.5648 -0.8143 0.1334
vn -0.1401 -0.9250 0.3532
vn -0.2746 -0.9217 0.2740
vn -0.2848 -0.9562 0.0676
vn 0.5351 0.7506 0.3876
vn -0.6054 0.7484 -0.2710
vn -0.0308 0.7781 -0.6274
vn 0.0975 0.9364 -0.3372
vn 0.5704 0.7734 -0.2766
vn -0.5673 0.7728 -0.2844
vn -0.0754 -0.9088 -0.4103
vn -0.0940 -0.9786 0.1832
vn -0.7667 -0.6283 0.1320
vn 0.5537 -0.8326 -0.0152
vn 0.6606 -0.7505 0.0206
vn -0.7607 -0.3791 0.5268
vn 0.2512 -0.9676 0.0243
vn -0.3766 -0.8393 -0.3920
vn 0.7027 -0.4898 0.5161
vn 0.2748 -0.9585 -0.0760
vn -0.3665 -0.8896 0.2727
vn -0.0068 -0.6702 -0.7422
vn -0.2661 0.8104 -0.5220
vn -0.3122 0.8796 0.3588
vn -0.1179 0.9870 -0.1096
vn 0.2613 0.9649 0.0261
vn 0.1356 0.9203 -0.3670
vn -0.5838 0.8101 0.0539
vn -0.1086 0.8127 -0.5725
vn -0.4942 0.7360 0.4627
vn 0.2085 0.9775 -0.0323
vt 0.916667 0.750000
vt 0.833333 0.500000
vt 0.916667 0.500000
vt 0.750000 0.750000
vt 0.666667 0.500000
vt 0.750000 0.500000
vt 0.583333 0.750000
vt 0.500000 0.500000
vt 0.583333 0.500000
vt 0.416667 0.750000
vt 0.333333 0.500000
vt 0.416667 0.500000
vt 0.250000 0.490000
vt 0.198038 0.400000
vt 0.301962 0.400000
vt 0.250000 0.750000
vt 0.166667 0.500000
vt 0.250000 0.500000
vt 0.957846 0.370000
vt 0.905885 0.280000
vt 0.853923 0.370000
vt 0.833333 1.000000
vt 0.916667 1.000000
vt 0.666667 1.000000
vt 0.750000 1.000000
vt 0.500000 1.000000
vt 0.583333 1.000000
vt 0.333333 1.000000
vt 0.416667 1.000000
vt 0.457846 0.250000
vt 0.405885 0.220000
vt 0.457846 0.130000
vt 0.146077 0.430000
vt 0.146077 0.070000
vt 0.146077 0.130000
vt 0.042154 0.130000
vt 0.166667 1.000000
vt 0.250000 1.000000
vt -0.000000 1.000000
vt 0.083333 0.750000
vt 0.083333 1.000000
vt 0.646077 0.430000
vt 0.646077 0.370000
vt 0.542154 0.370000
vt 0.957846 0.250000
vt 0.646077 0.070000
vt 0.698038 0.100000
vt 0.750000 0.010000
vt 0.542154 0.250000
vt 0.594115 0.280000
vt 0.646077 0.190000
vt 0.594115 0.160000
vt 0.542154 0.130000
vt 0.853923 0.070000
vt 0.801962 0.100000
vt 0.853923 0.190000
vt 0.905885 0.160000
vt 0.957846 0.130000
vt 0.853923 0.430000
vt 0.750000 0.370000
vt 0.750000 0.430000
vt 0.750000 0.490000
vt 0.353923 0.070000
vt 0.353923 0.130000
vt 0.250000 0.130000
vt 0.250000 0.070000
vt 0.250000 0.010000
vt 0.042154 0.250000
vt 0.094115 0.220000
vt 0.146077 0.310000
vt 0.094115 0.340000
vt 0.042154 0.370000
vt 0.353923 0.430000
vt 0.353923 0.310000
vt 0.405885 0.340000
vt 0.457846 0.370000
vt 1.000000 1.000000
vt 0.698038 0.280000
vt 0.801962 0.280000
vt 0.750000 0.190000
vt 0.301962 0.220000
vt 0.250000 0.310000
vt 0.198038 0.220000
vt 1.000000 0.500000
vt -0.000000 0.500000
s 0
f 25/1/1 3/2/1 13/3/1
f 26/4/2 5/5/2 15/6/2
f 27/7/3 7/8/3 17/9/3
f 28/10/4 9/11/4 19/12/4
f 2/13/5 37/14/5 42/15/5
f 32/16/6 11/17/6 21/18/6
f 3/19/7 40/20/7 45/21/7
f 4/22/8 25/1/8 14/23/8
f 6/24/9 26/4/9 16/25/9
f 8/26/10 27/7/10 18/27/10
f 10/28/11 28/10/11 20/29/11
f 16/30/12 36/31/12 6/32/12
f 24/33/13 37/14/13 2/13/13
f 20/34/14 38/35/14 10/36/14
f 12/37/15 32/16/15 22/38/15
f 2/39/16 23/40/16 24/41/16
f 23/42/17 39/43/17 11/44/17
f 15/45/18 40/20/18 3/19/18
f 19/46/19 41/47/19 7/48/19
f 21/49/20 47/50/20 35/51/20
f 35/51/21 48/52/21 21/49/21
f 9/53/22 48/52/22 19/46/22
f 17/54/23 46/55/23 34/56/23
f 34/56/24 49/57/24 17/54/24
f 5/58/25 49/57/25 15/45/25
f 13/59/26 45/21/26 33/60/26
f 33/60/27 50/61/27 13/59/27
f 1/62/28 50/61/28 23/42/28
f 12/37/29 24/41/29 23/40/29
f 10/28/30 22/38/30 32/16/30
f 18/63/31 44/64/31 31/65/31
f 31/65/32 51/66/32 18/63/32
f 8/67/33 51/66/33 20/34/33
f 22/68/34 43/69/34 30/70/34
f 30/70/35 52/71/35 22/68/35
f 12/72/36 52/71/36 24/33/36
f 14/73/37 42/15/37 29/74/37
f 29/74/38 53/75/38 14/73/38
f 4/76/39 53/75/39 16/30/39
f 8/26/40 20/29/40 28/10/40
f 6/24/41 18/27/41 27/7/41
f 4/22/42 16/25/42 26/4/42
f 2/77/43 14/23/43 25/1/43
f 33/60/44 54/78/44 39/43/44
f 33/60/45 55/79/45 54/78/45
f 34/56/46 46/55/46 56/80/46
f 23/40/47 11/17/47 12/37/47
f 32/16/48 9/11/48 10/28/48
f 29/74/49 57/81/49 36/31/49
f 29/74/50 58/82/50 57/81/50
f 30/70/51 43/69/51 59/83/51
f 28/10/52 7/8/52 8/26/52
f 27/7/53 5/5/53 6/24/53
f 26/4/54 3/2/54 4/22/54
f 25/1/55 1/84/55 2/77/55
f 4/22/56 3/2/56 25/1/56
f 6/24/57 5/5/57 26/4/57
f 8/26/58 7/8/58 27/7/58
f 10/28/59 9/11/59 28/10/59
f 12/37/60 11/17/60 32/16/60
f 2/39/61 1/85/61 23/40/61
f 32/16/62 21/18/62 9/11/62
f 28/10/63 19/12/63 7/8/63
f 27/7/64 17/9/64 5/5/64
f 26/4/65 15/6/65 3/2/65
f 25/1/66 13/3/66 1/84/66
f 59/83/67 38/35/67 31/65/67
f 59/83/68 43/69/68 38/35/68
f 43/69/69 10/36/69 38/35/69
f 57/81/70 59/83/70 31/65/70
f 57/81/71 58/82/71 59/83/71
f 58/82/72 30/70/72 59/83/72
f 36/31/73 44/64/73 6/32/73
f 36/31/74 57/81/74 44/64/74
f 57/81/75 31/65/75 44/64/75
f 56/80/76 41/47/76 35/51/76
f 56/80/77 46/55/77 41/47/77
f 46/55/78 7/48/78 41/47/78
f 54/78/79 56/80/79 35/51/79
f 54/78/80 55/79/80 56/80/80
f 55/79/81 34/56/81 56/80/81
f 39/43/82 47/50/82 11/44/82
f 39/43/83 54/78/83 47/50/83
f 54/78/84 35/51/84 47/50/84
f 45/21/85 55/79/85 33/60/85
f 45/21/86 40/20/86 55/79/86
f 40/20/87 34/56/87 55/79/87
f 42/15/88 58/82/88 29/74/88
f 42/15/89 37/14/89 58/82/89
f 37/14/90 30/70/90 58/82/90
f 16/30/91 29/74/91 36/31/91
f 24/33/92 30/70/92 37/14/92
f 20/34/93 31/65/93 38/35/93
f 23/42/94 33/60/94 39/43/94
f 15/45/95 34/56/95 40/20/95
f 19/46/96 35/51/96 41/47/96
f 21/49/97 11/44/97 47/50/97
f 35/51/98 19/46/98 48/52/98
f 9/53/99 21/49/99 48/52/99
f 17/54/100 7/48/100 46/55/100
f 34/56/101 15/45/101 49/57/101
f 5/58/102 17/54/102 49/57/102
f 13/59/103 3/19/103 45/21/103
f 33/60/104 23/42/104 50/61/104
f 1/62/105 13/59/105 50/61/105
f 18/63/106 6/32/106 44/64/106
f 31/65/107 20/34/107 51/66/107
f 8/67/108 18/63/108 51/66/108
f 22/68/109 10/36/109 43/69/109
f 30/70/110 24/33/110 52/71/110
f 12/72/111 22/68/111 52/71/111
f 14/73/112 2/13/112 42/15/112
f 29/74/113 16/30/113 53/75/113
f 4/76/114 14/73/114 53/75/114
