# Blender 4.3.0
# www.blender.org
o Cylinder
v 0.000000 -0.613108 -22.548870
v 0.000000 1.064254 -23.134941
v 18.614603 -0.198712 -10.747147
v 21.410816 -2.286826 12.361541
v 22.719198 3.449849 13.116935
v 0.000000 -2.188444 24.595284
v 0.000000 0.588742 22.517218
v -21.717627 -2.559549 12.538678
v -19.959436 0.996689 11.523586
v -21.425972 -2.300297 -12.370291
v -22.956255 3.660558 -13.253799
v 10.647524 -2.144417 -18.442053
v 11.039392 2.928144 -19.120787
v 21.975967 -2.825329 0.000000
v 21.676117 2.525483 0.000000
v 9.950692 -0.750767 17.235104
v 11.767500 4.384345 20.381908
v -12.315815 -5.480964 21.331619
v -9.671530 0.192449 16.751581
v -24.156849 -5.006188 0.000000
v -20.845839 1.695213 0.000000
v -11.387855 -3.625062 -19.724342
v -11.394792 3.638936 -19.736359
v 12.186213 0.000000 -21.107140
v 20.413759 0.000000 0.000000
v 10.791777 0.000000 18.691906
v -12.439674 0.000000 21.546148
v 10.825317 0.598867 -6.250000
v -10.825317 0.964878 -6.250000
v 0.000000 5.200603 12.500000
v -22.259567 0.000000 0.000000
v -10.937881 0.000000 -18.944965
v 0.000000 0.452042 -12.500000
v 10.825317 1.492237 6.250000
v -10.825317 2.203936 6.250000
v 16.237976 1.439891 3.125000
v -5.412659 4.911686 -15.625000
v -10.825317 2.843459 12.500000
v -10.825317 -4.860684 -12.500000
v 16.237976 1.066713 -3.125000
v -5.412659 1.057020 15.625000
v 5.412659 1.249226 -15.625000
v -16.237976 1.357655 3.125000
v 10.825317 1.735342 12.500000
v 10.825317 -3.508273 -12.500000
v 5.412659 1.230926 15.625000
v -16.237976 -0.155727 -3.125000
v -16.237976 -3.477751 9.375000
v 16.237976 -6.061350 9.375000
v 0.000000 -0.758772 -18.750000
v 0.000000 4.168698 18.750000
v -16.237976 3.433270 -9.375000
v 16.237976 5.685146 -9.375000
v -5.412659 -5.130617 -3.125000
v 5.412659 0.438392 -3.125000
v 0.000000 1.696942 6.250000
v 5.412659 4.425304 3.125000
v 0.000000 3.026528 -6.250000
v -5.412659 4.155724 3.125000
vn 0.5165 -0.7877 -0.3356
vn 0.8750 0.4838 0.0189
vn 0.3325 -0.9027 0.2732
vn -0.6896 -0.0439 0.7228
vn 0.3106 0.9180 -0.2465
vn -0.9274 0.3515 -0.1279
vn -0.2922 0.2355 -0.9269
vn 0.3293 -0.9095 0.2537
vn 0.7054 0.5658 -0.4269
vn 0.8938 -0.4468 -0.0396
vn 0.2868 -0.3995 0.8707
vn 0.0445 0.9968 0.0657
vn -0.2235 0.9734 -0.0508
vn 0.0848 0.9103 -0.4052
vn -0.2213 0.7994 0.5585
vn -0.7505 0.6259 0.2123
vn -0.3268 -0.2398 -0.9141
vn -0.2339 -0.9612 -0.1462
vn -0.5489 -0.8353 -0.0325
vn 0.3445 -0.7969 -0.4962
vn 0.5003 -0.8629 -0.0716
vn 0.5687 -0.7397 -0.3598
vn -0.2160 -0.9720 -0.0920
vn -0.3262 -0.9208 -0.2140
vn -0.7600 -0.6222 -0.1876
vn 0.5648 -0.8229 0.0617
vn -0.3366 -0.9199 -0.2011
vn -0.1321 -0.9731 0.1885
vn 0.2469 -0.9683 -0.0371
vn -0.4747 -0.2435 -0.8458
vn -0.7643 0.6374 0.0974
vn 0.2872 0.8971 -0.3358
vn -0.0406 0.9858 0.1628
vn -0.4030 0.6634 0.6304
vn 0.0729 0.9973 0.0003
vn 0.2507 0.9223 0.2942
vn 0.0176 0.9995 0.0281
vn -0.1819 0.9681 0.1722
vn -0.6395 0.7583 0.1266
vn 0.8394 0.4196 -0.3455
vn -0.0482 0.9988 0.0122
vn 0.4807 -0.4065 0.7770
vn 0.8857 -0.4427 -0.1401
vn 0.1820 0.5998 -0.7791
vn 0.4242 -0.8644 -0.2698
vn 0.4422 -0.8595 -0.2565
vn -0.0189 -0.9991 -0.0388
vn -0.4752 -0.2472 -0.8445
vn -0.8727 0.4696 0.1336
vn 0.2585 0.9374 -0.2333
vn 0.2112 0.9416 -0.2624
vn -0.2461 0.9520 -0.1820
vn -0.0905 0.5967 0.7974
vn 0.4644 -0.2189 0.8581
vn 0.1272 -0.3272 -0.9364
vn 0.9715 -0.2062 -0.1165
vn 0.3017 0.5712 0.7633
vn -0.6729 0.4907 0.5536
vn -0.9678 -0.2512 -0.0185
vn -0.3130 -0.3133 -0.8966
vn -0.5529 0.2402 -0.7979
vn -0.9292 0.3522 0.1120
vn -0.2450 -0.0434 0.9685
vn 0.0616 -0.9013 0.4289
vn 0.8647 0.4781 -0.1536
vn 0.1096 -0.8044 -0.5840
vn -0.2127 0.9770 0.0139
vn -0.2502 0.9681 -0.0090
vn -0.1935 0.9801 -0.0436
vn -0.0248 0.9950 -0.0966
vn -0.0247 0.9907 -0.1336
vn -0.1825 0.9581 -0.2208
vn -0.1362 0.9846 -0.1097
vn 0.2639 0.9568 0.1222
vn 0.3034 0.9479 0.0968
vn -0.0466 -0.9944 -0.0948
vn 0.0160 -0.9981 -0.0589
vn 0.0151 -0.9373 -0.3482
vn -0.0373 -0.7974 0.6023
vn 0.4271 -0.8303 0.3581
vn -0.0188 -0.9923 0.1224
vn -0.2174 -0.9169 0.3347
vn -0.4083 -0.8884 0.2101
vn -0.3779 -0.8224 0.4252
vn -0.3371 -0.9214 0.1933
vn 0.0528 -0.9091 0.4132
vn 0.0578 -0.9952 0.0785
vn 0.2184 0.9741 -0.0585
vn 0.3205 0.9472 0.0054
vn -0.1789 0.9395 0.2922
vn -0.1853 0.9825 0.0188
vn -0.3316 0.9226 0.1969
vn -0.1770 0.8129 0.5549
vn 0.4330 -0.8823 -0.1846
vn -0.4594 -0.8589 -0.2262
vn 0.4625 -0.8076 -0.3658
vn 0.4978 -0.8637 -0.0790
vn 0.5927 -0.7398 -0.3184
vn -0.0483 -0.9785 0.2003
vn -0.2142 -0.8627 -0.4581
vn -0.5517 -0.6242 -0.5531
vn 0.1733 -0.7462 0.6428
vn 0.4225 -0.8806 -0.2148
vn 0.2249 -0.9566 0.1853
vn -0.1279 -0.9911 -0.0380
vn -0.1205 0.9452 -0.3033
vn -0.4022 0.9033 0.1491
vn -0.1082 0.7206 0.6848
vn 0.0338 0.9977 0.0579
vn 0.3256 0.9300 0.1706
vn -0.0562 0.9863 0.1552
vn -0.2100 0.9693 0.1275
vn -0.4222 0.7563 0.4998
vn 0.7452 0.4215 -0.5167
vt 0.916667 0.750000
vt 0.833333 0.500000
vt 0.916667 0.500000
vt 0.750000 0.750000
vt 0.666667 0.500000
vt 0.750000 0.500000
vt 0.583333 0.750000
vt 0.500000 0.500000
vt 0.583333 0.500000
vt 0.416667 0.750000
vt 0.333333 0.500000
vt 0.416667 0.500000
vt 0.250000 0.490000
vt 0.198038 0.400000
vt 0.301962 0.400000
vt 0.250000 0.750000
vt 0.166667 0.500000
vt 0.250000 0.500000
vt 0.083333 0.750000
vt -0.000000 0.500000
vt 0.083333 0.500000
vt 0.957846 0.370000
vt 0.905885 0.280000
vt 0.853923 0.370000
vt 0.833333 1.000000
vt 0.916667 1.000000
vt 0.666667 1.000000
vt 0.750000 1.000000
vt 0.500000 1.000000
vt 0.583333 1.000000
vt 0.333333 1.000000
vt 0.416667 1.000000
vt 0.457846 0.250000
vt 0.405885 0.220000
vt 0.457846 0.130000
vt 0.146077 0.430000
vt 0.146077 0.070000
vt 0.146077 0.130000
vt 0.042154 0.130000
vt 0.166667 1.000000
vt 0.250000 1.000000
vt -0.000000 1.000000
vt 0.083333 1.000000
vt 0.646077 0.430000
vt 0.646077 0.370000
vt 0.542154 0.370000
vt 0.957846 0.250000
vt 0.646077 0.070000
vt 0.698038 0.100000
vt 0.750000 0.010000
vt 0.542154 0.250000
vt 0.594115 0.280000
vt 0.646077 0.190000
vt 0.594115 0.160000
vt 0.542154 0.130000
vt 0.853923 0.070000
vt 0.801962 0.100000
vt 0.853923 0.190000
vt 0.905885 0.160000
vt 0.957846 0.130000
vt 0.853923 0.430000
vt 0.750000 0.370000
vt 0.750000 0.430000
vt 0.750000 0.490000
vt 0.353923 0.070000
vt 0.353923 0.130000
vt 0.250000 0.130000
vt 0.250000 0.070000
vt 0.250000 0.010000
vt 0.042154 0.250000
vt 0.094115 0.220000
vt 0.146077 0.310000
vt 0.094115 0.340000
vt 0.042154 0.370000
vt 0.353923 0.430000
vt 0.353923 0.310000
vt 0.405885 0.340000
vt 0.457846 0.370000
vt 1.000000 1.000000
vt 0.698038 0.280000
vt 0.801962 0.280000
vt 0.750000 0.190000
vt 0.301962 0.220000
vt 0.250000 0.310000
vt 0.198038 0.220000
vt 1.000000 0.500000
s 0
f 24/1/1 3/2/1 12/3/1
f 25/4/2 4/5/2 14/6/2
f 26/7/3 6/8/3 16/9/3
f 27/10/4 8/11/4 18/12/4
f 2/13/5 37/14/5 42/15/5
f 31/16/6 10/17/6 20/18/6
f 32/19/7 1/20/7 22/21/7
f 3/22/8 40/23/8 45/24/8
f 3/25/9 24/1/9 13/26/9
f 5/27/10 25/4/10 15/28/10
f 7/29/11 26/7/11 17/30/11
f 9/31/12 27/10/12 19/32/12
f 15/33/13 36/34/13 5/35/13
f 23/36/14 37/14/14 2/13/14
f 19/37/15 38/38/15 9/39/15
f 11/40/16 31/16/16 21/41/16
f 2/42/17 32/19/17 23/43/17
f 22/44/18 39/45/18 10/46/18
f 14/47/19 40/23/19 3/22/19
f 18/48/20 41/49/20 6/50/20
f 20/51/21 47/52/21 35/53/21
f 35/53/22 48/54/22 20/51/22
f 8/55/23 48/54/23 18/48/23
f 16/56/24 46/57/24 34/58/24
f 34/58/25 49/59/25 16/56/25
f 4/60/26 49/59/26 14/47/26
f 12/61/27 45/24/27 33/62/27
f 33/62/28 50/63/28 12/61/28
f 1/64/29 50/63/29 22/44/29
f 11/40/30 23/43/30 32/19/30
f 9/31/31 21/41/31 31/16/31
f 17/65/32 44/66/32 30/67/32
f 30/67/33 51/68/33 17/65/33
f 7/69/34 51/68/34 19/37/34
f 21/70/35 43/71/35 29/72/35
f 29/72/36 52/73/36 21/70/36
f 11/74/37 52/73/37 23/36/37
f 13/75/38 42/15/38 28/76/38
f 28/76/39 53/77/39 13/75/39
f 3/78/40 53/77/40 15/33/40
f 7/29/41 19/32/41 27/10/41
f 5/27/42 17/30/42 26/7/42
f 3/25/43 15/28/43 25/4/43
f 2/79/44 13/26/44 24/1/44
f 33/62/45 54/80/45 39/45/45
f 33/62/46 55/81/46 54/80/46
f 34/58/47 46/57/47 56/82/47
f 32/19/48 10/17/48 11/40/48
f 31/16/49 8/11/49 9/31/49
f 28/76/50 57/83/50 36/34/50
f 28/76/51 58/84/51 57/83/51
f 29/72/52 43/71/52 59/85/52
f 27/10/53 6/8/53 7/29/53
f 26/7/54 4/5/54 5/27/54
f 24/1/55 1/86/55 2/79/55
f 5/27/56 4/5/56 25/4/56
f 7/29/57 6/8/57 26/7/57
f 9/31/58 8/11/58 27/10/58
f 11/40/59 10/17/59 31/16/59
f 2/42/60 1/20/60 32/19/60
f 32/19/61 22/21/61 10/17/61
f 31/16/62 20/18/62 8/11/62
f 27/10/63 18/12/63 6/8/63
f 26/7/64 16/9/64 4/5/64
f 25/4/65 14/6/65 3/2/65
f 24/1/66 12/3/66 1/86/66
f 59/85/67 38/38/67 30/67/67
f 59/85/68 43/71/68 38/38/68
f 43/71/69 9/39/69 38/38/69
f 57/83/70 59/85/70 30/67/70
f 57/83/71 58/84/71 59/85/71
f 58/84/72 29/72/72 59/85/72
f 36/34/73 44/66/73 5/35/73
f 36/34/74 57/83/74 44/66/74
f 57/83/75 30/67/75 44/66/75
f 56/82/76 41/49/76 35/53/76
f 56/82/77 46/57/77 41/49/77
f 46/57/78 6/50/78 41/49/78
f 54/80/79 56/82/79 35/53/79
f 54/80/80 55/81/80 56/82/80
f 55/81/81 34/58/81 56/82/81
f 39/45/82 47/52/82 10/46/82
f 39/45/83 54/80/83 47/52/83
f 54/80/84 35/53/84 47/52/84
f 45/24/85 55/81/85 33/62/85
f 45/24/86 40/23/86 55/81/86
f 40/23/87 34/58/87 55/81/87
f 42/15/88 58/84/88 28/76/88
f 42/15/89 37/14/89 58/84/89
f 37/14/90 29/72/90 58/84/90
f 15/33/91 28/76/91 36/34/91
f 23/36/92 29/72/92 37/14/92
f 19/37/93 30/67/93 38/38/93
f 22/44/94 33/62/94 39/45/94
f 14/47/95 34/58/95 40/23/95
f 18/48/96 35/53/96 41/49/96
f 20/51/97 10/46/97 47/52/97
f 35/53/98 18/48/98 48/54/98
f 8/55/99 20/51/99 48/54/99
f 16/56/100 6/50/100 46/57/100
f 34/58/101 14/47/101 49/59/101
f 4/60/102 16/56/102 49/59/102
f 12/61/103 3/22/103 45/24/103
f 33/62/104 22/44/104 50/63/104
f 1/64/105 12/61/105 50/63/105
f 17/65/106 5/35/106 44/66/106
f 30/67/107 19/37/107 51/68/107
f 7/69/108 17/65/108 51/68/108
f 21/70/109 9/39/109 43/71/109
f 29/72/110 23/36/110 52/73/110
f 11/74/111 21/70/111 52/73/111
f 13/75/112 2/13/112 42/15/112
f 28/76/113 15/33/113 53/77/113
f 3/78/114 13/75/114 53/77/114
