# Blender 4.3.0
# www.blender.org
o Cylinder
v 0.000000 -2.658999 -25.206545
v 0.000000 2.382226 -24.847010
v 20.728739 -1.680524 -11.967743
v 21.276203 2.167170 -12.283822
v 21.968170 -2.782256 12.683330
v 21.395350 2.273077 12.352612
v 0.000000 -1.903340 24.224928
v 0.000000 1.500058 23.701046
v -21.513840 -2.378404 12.421021
v -21.614845 2.468187 12.479337
v -21.263695 -2.156049 -12.276601
v -21.508022 2.373232 -12.417663
v 10.814809 -2.478982 -18.731798
v 10.829637 2.508638 -18.757481
v 21.218489 -2.067859 0.000000
v 22.263802 3.113160 0.000000
v 10.774477 -2.398321 18.661942
v 10.656084 2.161538 18.456881
v -11.246292 -3.341941 19.479151
v -11.091172 3.031704 19.210474
v -21.072773 -1.922144 0.000000
v -21.543180 2.392546 0.000000
v -10.853901 -2.557167 -18.799509
v -10.796070 2.441506 -18.699343
v 10.417521 0.000000 -18.043674
v 21.610188 0.000000 0.000000
v 11.372625 0.000000 19.697964
v -10.883630 0.000000 18.851000
v 10.825317 2.968643 -6.250000
v -10.825317 3.781468 -6.250000
v 0.000000 3.661722 12.500000
v -22.098763 0.000000 0.000000
v -11.461503 0.000000 -19.851906
v 0.000000 -3.304671 -12.500000
v 10.825317 -1.041587 6.250000
v -10.825317 -3.648096 6.250000
v 16.237976 2.838860 3.125000
v -5.412659 1.042874 -15.625000
v -10.825317 2.205753 12.500000
v -10.825317 -3.373721 -12.500000
v 16.237976 -3.044335 -3.125000
v -5.412659 -0.827727 15.625000
v 5.412659 1.471341 -15.625000
v -16.237976 3.525950 3.125000
v 10.825317 3.088884 12.500000
v 10.825317 -1.448978 -12.500000
v 5.412659 -1.296411 15.625000
v -16.237976 -1.971761 -3.125000
v -16.237976 -3.638160 9.375000
v 16.237976 -0.874509 9.375000
v 0.000000 -3.697744 -18.750000
v 0.000000 2.765081 18.750000
v -16.237976 1.220280 -9.375000
v 16.237976 2.622590 -9.375000
v -5.412659 -3.964936 -3.125000
v 5.412659 -3.958340 -3.125000
v 0.000000 -3.610535 6.250000
v 5.412659 1.132821 3.125000
v 0.000000 3.943680 -6.250000
v -5.412659 1.150761 3.125000
vn 0.5199 0.3048 -0.7980
vn 0.9802 -0.1857 -0.0684
vn 0.3945 -0.4455 0.8037
vn -0.5401 0.2117 0.8146
vn -0.0393 0.9919 0.1210
vn -0.8820 -0.4708 0.0227
vn -0.4621 -0.4292 -0.7760
vn -0.0145 -0.9871 -0.1596
vn 0.4931 -0.3121 -0.8121
vn 0.9772 -0.2052 0.0547
vn 0.3409 0.5505 0.7621
vn -0.5287 -0.1355 0.8379
vn -0.0106 0.9977 0.0671
vn 0.1282 0.9680 0.2158
vn 0.0244 0.9923 -0.1212
vn -0.9741 0.2262 -0.0031
vn -0.4325 0.4786 -0.7641
vn -0.1176 -0.9849 -0.1271
vn 0.2166 -0.9754 -0.0404
vn 0.2306 -0.9370 -0.2623
vn -0.0905 -0.9881 -0.1244
vn -0.0818 -0.9870 -0.1385
vn -0.1690 -0.9792 0.1122
vn -0.1410 -0.9841 -0.1081
vn 0.0928 -0.9898 -0.1078
vn -0.2968 -0.9543 -0.0362
vn 0.1668 -0.9728 0.1605
vn 0.1117 -0.9918 0.0624
vn -0.1025 -0.9821 -0.1580
vn -0.4464 0.4786 -0.7561
vn -0.9741 0.2262 -0.0070
vn 0.0522 0.9865 0.1551
vn 0.0599 0.9881 0.1418
vn 0.0335 0.9683 0.2474
vn -0.1685 0.9832 -0.0705
vn -0.2784 0.9210 -0.2727
vn 0.1046 0.9764 0.1889
vn -0.2080 0.9775 -0.0360
vn 0.0426 0.9984 -0.0367
vn 0.0437 0.9958 -0.0802
vn -0.3878 -0.1347 0.9119
vn 0.4075 0.5525 0.7271
vn 0.9767 -0.2051 -0.0627
vn 0.4684 -0.3121 -0.8265
vn 0.0064 -0.9978 -0.0666
vn 0.0006 -0.9976 -0.0699
vn 0.2296 -0.9675 0.1063
vn -0.6026 -0.0573 -0.7960
vn -0.9988 -0.0213 0.0430
vn -0.1548 0.9826 0.1030
vn 0.0871 0.9669 0.2396
vn 0.2119 0.9659 0.1487
vn -0.4190 0.1381 0.8974
vn 0.5695 0.1177 0.8135
vn 0.9881 -0.1449 -0.0524
vn 0.5553 0.0592 -0.8296
vn 0.4856 -0.1400 -0.8629
vn 0.9937 0.1124 -0.0034
vn 0.3453 0.1428 0.9276
vn -0.5140 -0.0210 0.8575
vn -0.9968 -0.0556 -0.0580
vn -0.4100 0.0649 -0.9098
vn -0.4915 -0.4287 -0.7580
vn -0.8812 -0.4703 -0.0486
vn -0.4028 0.2111 0.8906
vn 0.4097 -0.4459 0.7958
vn 0.9815 -0.1859 -0.0462
vn 0.4854 0.3052 -0.8193
vn -0.1310 0.9739 -0.1852
vn 0.2143 0.9767 0.0138
vn 0.0239 0.9918 0.1259
vn 0.0016 0.9657 -0.2596
vn 0.0016 0.9581 0.2864
vn -0.0144 0.9605 0.2778
vn 0.0772 0.9969 0.0180
vn -0.1546 0.9812 -0.1154
vn 0.0514 0.9713 -0.2323
vn 0.0033 -0.9581 0.2863
vn -0.0417 -0.9641 0.2621
vn -0.0430 -0.9943 -0.0973
vn 0.0035 -0.9994 0.0358
vn 0.0006 -0.9993 0.0374
vn 0.2277 -0.9593 0.1670
vn -0.1137 -0.9901 0.0824
vn -0.1809 -0.9826 0.0425
vn -0.1806 -0.9810 -0.0711
vn 0.1667 -0.9723 -0.1640
vn 0.0822 -0.9736 -0.2131
vn 0.0814 -0.9641 0.2529
vn 0.0878 0.9745 -0.2063
vn -0.0380 0.9606 -0.2753
vn -0.0143 0.9575 -0.2880
vn -0.0295 0.9991 0.0309
vn 0.3039 0.9473 -0.1012
vn -0.1322 0.9831 -0.1262
vn 0.0063 -0.9917 -0.1286
vn 0.0442 -0.9715 0.2331
vn 0.4146 -0.9094 0.0342
vn 0.0020 -0.9998 0.0190
vn 0.0117 -0.9997 0.0235
vn -0.2563 -0.9656 -0.0446
vn -0.1199 -0.9822 -0.1448
vn -0.0324 -0.9935 0.1092
vn -0.1692 -0.9518 -0.2557
vn -0.0318 -0.9861 0.1630
vn -0.1046 -0.9926 0.0624
vn 0.1108 -0.9812 -0.1579
vn 0.0782 0.9847 0.1555
vn 0.0297 0.9894 0.1419
vn 0.0616 0.9670 0.2471
vn -0.2049 0.9788 -0.0071
vn -0.3778 0.9205 -0.1000
vn 0.2142 0.9768 -0.0009
vn -0.0986 0.9830 0.1550
vn 0.0245 0.9974 -0.0680
vn 0.0624 0.9969 -0.0481
vt 0.916667 0.750000
vt 0.833333 0.500000
vt 0.916667 0.500000
vt 0.750000 0.750000
vt 0.666667 0.500000
vt 0.750000 0.500000
vt 0.583333 0.750000
vt 0.500000 0.500000
vt 0.583333 0.500000
vt 0.416667 0.750000
vt 0.333333 0.500000
vt 0.416667 0.500000
vt 0.250000 0.490000
vt 0.198038 0.400000
vt 0.301962 0.400000
vt 0.250000 0.750000
vt 0.166667 0.500000
vt 0.250000 0.500000
vt 0.083333 0.750000
vt -0.000000 0.500000
vt 0.083333 0.500000
vt 0.957846 0.370000
vt 0.905885 0.280000
vt 0.853923 0.370000
vt 0.833333 1.000000
vt 0.916667 1.000000
vt 0.666667 1.000000
vt 0.750000 1.000000
vt 0.500000 1.000000
vt 0.583333 1.000000
vt 0.333333 1.000000
vt 0.416667 1.000000
vt 0.457846 0.250000
vt 0.405885 0.220000
vt 0.457846 0.130000
vt 0.146077 0.430000
vt 0.146077 0.070000
vt 0.146077 0.130000
vt 0.042154 0.130000
vt 0.166667 1.000000
vt 0.250000 1.000000
vt -0.000000 1.000000
vt 0.083333 1.000000
vt 0.646077 0.430000
vt 0.646077 0.370000
vt 0.542154 0.370000
vt 0.957846 0.250000
vt 0.646077 0.070000
vt 0.698038 0.100000
vt 0.750000 0.010000
vt 0.542154 0.250000
vt 0.594115 0.280000
vt 0.646077 0.190000
vt 0.594115 0.160000
vt 0.542154 0.130000
vt 0.853923 0.070000
vt 0.801962 0.100000
vt 0.853923 0.190000
vt 0.905885 0.160000
vt 0.957846 0.130000
vt 0.853923 0.430000
vt 0.750000 0.370000
vt 0.750000 0.430000
vt 0.750000 0.490000
vt 0.353923 0.070000
vt 0.353923 0.130000
vt 0.250000 0.130000
vt 0.250000 0.070000
vt 0.250000 0.010000
vt 0.042154 0.250000
vt 0.094115 0.220000
vt 0.146077 0.310000
vt 0.094115 0.340000
vt 0.042154 0.370000
vt 0.353923 0.430000
vt 0.353923 0.310000
vt 0.405885 0.340000
vt 0.457846 0.370000
vt 1.000000 1.000000
vt 0.698038 0.280000
vt 0.801962 0.280000
vt 0.750000 0.190000
vt 0.301962 0.220000
vt 0.250000 0.310000
vt 0.198038 0.220000
vt 1.000000 0.500000
s 0
f 25/1/1 3/2/1 13/3/1
f 26/4/2 5/5/2 15/6/2
f 27/7/3 7/8/3 17/9/3
f 28/10/4 9/11/4 19/12/4
f 2/13/5 38/14/5 43/15/5
f 32/16/6 11/17/6 21/18/6
f 33/19/7 1/20/7 23/21/7
f 3/22/8 41/23/8 46/24/8
f 4/25/9 25/1/9 14/26/9
f 6/27/10 26/4/10 16/28/10
f 8/29/11 27/7/11 18/30/11
f 10/31/12 28/10/12 20/32/12
f 16/33/13 37/34/13 6/35/13
f 24/36/14 38/14/14 2/13/14
f 20/37/15 39/38/15 10/39/15
f 12/40/16 32/16/16 22/41/16
f 2/42/17 33/19/17 24/43/17
f 23/44/18 40/45/18 11/46/18
f 15/47/19 41/23/19 3/22/19
f 19/48/20 42/49/20 7/50/20
f 21/51/21 48/52/21 36/53/21
f 36/53/22 49/54/22 21/51/22
f 9/55/23 49/54/23 19/48/23
f 17/56/24 47/57/24 35/58/24
f 35/58/25 50/59/25 17/56/25
f 5/60/26 50/59/26 15/47/26
f 13/61/27 46/24/27 34/62/27
f 34/62/28 51/63/28 13/61/28
f 1/64/29 51/63/29 23/44/29
f 12/40/30 24/43/30 33/19/30
f 10/31/31 22/41/31 32/16/31
f 18/65/32 45/66/32 31/67/32
f 31/67/33 52/68/33 18/65/33
f 8/69/34 52/68/34 20/37/34
f 22/70/35 44/71/35 30/72/35
f 30/72/36 53/73/36 22/70/36
f 12/74/37 53/73/37 24/36/37
f 14/75/38 43/15/38 29/76/38
f 29/76/39 54/77/39 14/75/39
f 4/78/40 54/77/40 16/33/40
f 8/29/41 20/32/41 28/10/41
f 6/27/42 18/30/42 27/7/42
f 4/25/43 16/28/43 26/4/43
f 2/79/44 14/26/44 25/1/44
f 34/62/45 55/80/45 40/45/45
f 34/62/46 56/81/46 55/80/46
f 35/58/47 47/57/47 57/82/47
f 33/19/48 11/17/48 12/40/48
f 32/16/49 9/11/49 10/31/49
f 29/76/50 58/83/50 37/34/50
f 29/76/51 59/84/51 58/83/51
f 30/72/52 44/71/52 60/85/52
f 28/10/53 7/8/53 8/29/53
f 27/7/54 5/5/54 6/27/54
f 26/4/55 3/2/55 4/25/55
f 25/1/56 1/86/56 2/79/56
f 4/25/57 3/2/57 25/1/57
f 6/27/58 5/5/58 26/4/58
f 8/29/59 7/8/59 27/7/59
f 10/31/60 9/11/60 28/10/60
f 12/40/61 11/17/61 32/16/61
f 2/42/62 1/20/62 33/19/62
f 33/19/63 23/21/63 11/17/63
f 32/16/64 21/18/64 9/11/64
f 28/10/65 19/12/65 7/8/65
f 27/7/66 17/9/66 5/5/66
f 26/4/67 15/6/67 3/2/67
f 25/1/68 13/3/68 1/86/68
f 60/85/69 39/38/69 31/67/69
f 60/85/70 44/71/70 39/38/70
f 44/71/71 10/39/71 39/38/71
f 58/83/72 60/85/72 31/67/72
f 58/83/73 59/84/73 60/85/73
f 59/84/74 30/72/74 60/85/74
f 37/34/75 45/66/75 6/35/75
f 37/34/76 58/83/76 45/66/76
f 58/83/77 31/67/77 45/66/77
f 57/82/78 42/49/78 36/53/78
f 57/82/79 47/57/79 42/49/79
f 47/57/80 7/50/80 42/49/80
f 55/80/81 57/82/81 36/53/81
f 55/80/82 56/81/82 57/82/82
f 56/81/83 35/58/83 57/82/83
f 40/45/84 48/52/84 11/46/84
f 40/45/85 55/80/85 48/52/85
f 55/80/86 36/53/86 48/52/86
f 46/24/87 56/81/87 34/62/87
f 46/24/88 41/23/88 56/81/88
f 41/23/89 35/58/89 56/81/89
f 43/15/90 59/84/90 29/76/90
f 43/15/91 38/14/91 59/84/91
f 38/14/92 30/72/92 59/84/92
f 16/33/93 29/76/93 37/34/93
f 24/36/94 30/72/94 38/14/94
f 20/37/95 31/67/95 39/38/95
f 23/44/96 34/62/96 40/45/96
f 15/47/97 35/58/97 41/23/97
f 19/48/98 36/53/98 42/49/98
f 21/51/99 11/46/99 48/52/99
f 36/53/100 19/48/100 49/54/100
f 9/55/101 21/51/101 49/54/101
f 17/56/102 7/50/102 47/57/102
f 35/58/103 15/47/103 50/59/103
f 5/60/104 17/56/104 50/59/104
f 13/61/105 3/22/105 46/24/105
f 34/62/106 23/44/106 51/63/106
f 1/64/107 13/61/107 51/63/107
f 18/65/108 6/35/108 45/66/108
f 31/67/109 20/37/109 52/68/109
f 8/69/110 18/65/110 52/68/110
f 22/70/111 10/39/111 44/71/111
f 30/72/112 24/36/112 53/73/112
f 12/74/113 22/70/113 53/73/113
f 14/75/114 2/13/114 43/15/114
f 29/76/115 16/33/115 54/77/115
f 4/78/116 14/75/116 54/77/116
