# Blender 4.3.0
# www.blender.org
o Cylinder
v 0.000000 -3.286674 -26.021914
v 0.000000 2.417881 -24.893326
v 21.532988 -2.395422 -12.432076
v 20.481684 1.460927 -11.825107
v 21.658201 -2.506726 12.504369
v 21.653801 2.502815 12.501828
v 0.000000 -2.953809 25.589506
v 0.000000 2.628652 25.167124
v -22.054682 -2.859155 12.733276
v -20.754070 1.703041 11.982368
v -21.333376 -2.217988 -12.316831
v -21.528767 2.391672 -12.429639
v 10.524129 -1.897630 -18.228327
v 10.778333 2.406031 -18.668619
v 21.314270 -2.163639 0.000000
v 21.946342 2.795704 0.000000
v 10.464035 -1.777444 18.124241
v 11.215855 3.281065 19.426430
v -10.648613 -2.146595 18.443939
v -11.274616 3.398588 19.528208
v -22.629915 -3.479270 0.000000
v -20.596769 1.446146 0.000000
v -10.242169 -1.333716 -17.739958
v -10.805141 2.459648 -18.715054
v 11.165290 0.000000 -19.338850
v 21.795937 0.000000 0.000000
v 11.592389 0.000000 20.078608
v -10.213310 0.000000 17.689974
v 10.825317 1.087110 -6.250000
v -10.825317 3.352857 -6.250000
v 0.000000 0.864920 12.500000
v -22.913153 0.000000 0.000000
v -10.248466 0.000000 -17.750864
v 0.000000 -1.527333 -12.500000
v 10.825317 -1.896917 6.250000
v -10.825317 -1.410410 6.250000
v 16.237976 1.024415 3.125000
v -5.412659 1.322602 -15.625000
v -10.825317 4.000806 12.500000
v -10.825317 -1.922775 -12.500000
v 16.237976 -4.027707 -3.125000
v -5.412659 -2.921851 15.625000
v 5.412659 1.186269 -15.625000
v -16.237976 0.804954 3.125000
v 10.825317 1.917796 12.500000
v 10.825317 -1.765179 -12.500000
v 5.412659 -3.993039 15.625000
v -16.237976 -3.792981 -3.125000
v -16.237976 -0.787955 9.375000
v 16.237976 -2.234057 9.375000
v 0.000000 -2.714052 -18.750000
v 0.000000 1.586524 18.750000
v -16.237976 4.211613 -9.375000
v 16.237976 1.337875 -9.375000
v -5.412659 -1.946790 -3.125000
v 5.412659 -3.805155 -3.125000
v 0.000000 -4.136207 6.250000
v 5.412659 1.658173 3.125000
v 0.000000 2.588470 -6.250000
v -5.412659 2.544079 3.125000
vn 0.3663 -0.5591 -0.7438
vn 0.9756 -0.2172 -0.0328
vn 0.4199 -0.7788 0.4659
vn -0.4336 0.3756 0.8191
vn 0.0125 0.9921 0.1245
vn -0.9904 -0.0806 -0.1125
vn -0.6298 -0.0093 -0.7767
vn -0.0562 -0.9775 -0.2034
vn 0.5686 0.3043 -0.7642
vn 0.9983 -0.0537 0.0221
vn 0.4338 0.2233 0.8729
vn -0.4686 -0.5290 0.7075
vn -0.2885 0.9574 0.0157
vn 0.1050 0.9786 0.1769
vn -0.2283 0.9712 0.0686
vn -0.5267 0.8437 0.1037
vn -0.4534 -0.4124 -0.7902
vn 0.0260 -0.9937 -0.1088
vn 0.3319 -0.9430 0.0234
vn -0.1149 -0.9916 0.0592
vn 0.0572 -0.9750 0.2148
vn 0.0352 -0.9667 0.2535
vn 0.1884 -0.9476 -0.2581
vn 0.3928 -0.9194 0.0212
vn -0.0668 -0.9977 0.0080
vn -0.0350 -0.9990 -0.0264
vn -0.0220 -0.9995 0.0243
vn 0.0668 -0.9803 0.1861
vn -0.1256 -0.9890 0.0779
vn -0.4587 -0.4124 -0.7871
vn -0.5294 0.8480 -0.0251
vn -0.0951 0.9777 -0.1871
vn -0.1417 0.9834 -0.1135
vn 0.1460 0.9765 -0.1586
vn -0.0327 0.9691 0.2445
vn -0.0088 0.9602 0.2791
vn -0.1671 0.9469 -0.2748
vn -0.1635 0.9810 0.1048
vn 0.0149 0.9943 0.1055
vn -0.0871 0.9911 -0.1011
vn -0.4081 -0.5296 0.7436
vn 0.5504 0.2231 0.8046
vn 0.9917 -0.0534 -0.1168
vn 0.4763 0.3062 -0.8242
vn 0.0365 -0.9991 -0.0236
vn -0.1675 -0.9758 -0.1404
vn 0.2015 -0.9742 -0.1015
vn -0.4333 -0.0404 -0.9004
vn -0.9478 0.2915 0.1294
vn 0.0584 0.9979 -0.0271
vn 0.1374 0.9903 0.0190
vn -0.1562 0.9723 0.1741
vn -0.5997 0.0604 0.7979
vn 0.6014 0.0009 0.7989
vn 0.9593 0.2730 -0.0729
vn 0.4683 0.1715 -0.8668
vn 0.5762 0.2781 -0.7685
vn 0.9999 0.0009 0.0112
vn 0.4140 0.0687 0.9077
vn -0.4260 0.2639 0.8654
vn -0.9919 -0.0450 -0.1191
vn -0.5893 0.1568 -0.7925
vn -0.4386 -0.0094 -0.8986
vn -0.9955 -0.0810 0.0489
vn -0.4966 0.3756 0.7825
vn 0.2376 -0.7830 0.5749
vn 0.9759 -0.2173 0.0212
vn 0.5416 -0.5533 -0.6328
vn 0.2782 0.9604 0.0114
vn -0.1541 0.9590 -0.2380
vn -0.2106 0.9560 -0.2043
vn 0.0809 0.9882 0.1303
vn 0.0815 0.9953 0.0517
vn 0.0704 0.9965 0.0453
vn -0.0535 0.9907 -0.1253
vn 0.0583 0.9964 -0.0613
vn -0.0968 0.9949 0.0283
vn -0.2441 -0.9696 -0.0154
vn -0.0982 -0.9926 0.0719
vn -0.0983 -0.9939 0.0502
vn -0.2433 -0.9662 -0.0852
vn -0.1677 -0.9770 -0.1313
vn 0.2019 -0.9760 0.0821
vn 0.0244 -0.9830 -0.1820
vn 0.1673 -0.9809 -0.0991
vn 0.1662 -0.9744 0.1517
vn -0.0214 -0.9743 -0.2244
vn -0.0200 -0.9745 -0.2236
vn -0.0201 -0.9774 0.2105
vn 0.1371 0.9882 -0.0687
vn 0.0125 0.9899 -0.1409
vn 0.0694 0.9825 -0.1727
vn -0.2248 0.9648 0.1362
vn 0.2435 0.9674 -0.0689
vn 0.2769 0.9557 0.0996
vn 0.0363 -0.9935 -0.1077
vn 0.1575 -0.9394 0.3045
vn -0.1761 -0.9827 -0.0568
vn -0.1033 -0.9883 -0.1121
vn -0.1468 -0.9875 -0.0575
vn 0.3505 -0.9361 0.0298
vn 0.2825 -0.9261 0.2500
vn -0.0441 -0.9985 -0.0314
vn -0.0581 -0.9982 0.0137
vn -0.0589 -0.9979 0.0262
vn -0.1133 -0.9761 0.1853
vn 0.0732 -0.9942 0.0783
vn -0.0529 0.9804 -0.1900
vn 0.1500 0.9822 -0.1134
vn -0.1381 0.9776 -0.1588
vn 0.1589 0.9871 -0.0191
vn 0.1955 0.9782 -0.0698
vn -0.3739 0.9222 0.0982
vn -0.1112 0.9746 0.1945
vn -0.0998 0.9906 -0.0933
vn 0.0278 0.9948 0.0980
vt 0.916667 0.750000
vt 0.833333 0.500000
vt 0.916667 0.500000
vt 0.750000 0.750000
vt 0.666667 0.500000
vt 0.750000 0.500000
vt 0.583333 0.750000
vt 0.500000 0.500000
vt 0.583333 0.500000
vt 0.416667 0.750000
vt 0.333333 0.500000
vt 0.416667 0.500000
vt 0.250000 0.490000
vt 0.198038 0.400000
vt 0.301962 0.400000
vt 0.250000 0.750000
vt 0.166667 0.500000
vt 0.250000 0.500000
vt 0.083333 0.750000
vt -0.000000 0.500000
vt 0.083333 0.500000
vt 0.957846 0.370000
vt 0.905885 0.280000
vt 0.853923 0.370000
vt 0.833333 1.000000
vt 0.916667 1.000000
vt 0.666667 1.000000
vt 0.750000 1.000000
vt 0.500000 1.000000
vt 0.583333 1.000000
vt 0.333333 1.000000
vt 0.416667 1.000000
vt 0.457846 0.250000
vt 0.405885 0.220000
vt 0.457846 0.130000
vt 0.146077 0.430000
vt 0.146077 0.070000
vt 0.146077 0.130000
vt 0.042154 0.130000
vt 0.166667 1.000000
vt 0.250000 1.000000
vt -0.000000 1.000000
vt 0.083333 1.000000
vt 0.646077 0.430000
vt 0.646077 0.370000
vt 0.542154 0.370000
vt 0.957846 0.250000
vt 0.646077 0.070000
vt 0.698038 0.100000
vt 0.750000 0.010000
vt 0.542154 0.250000
vt 0.594115 0.280000
vt 0.646077 0.190000
vt 0.594115 0.160000
vt 0.542154 0.130000
vt 0.853923 0.070000
vt 0.801962 0.100000
vt 0.853923 0.190000
vt 0.905885 0.160000
vt 0.957846 0.130000
vt 0.853923 0.430000
vt 0.750000 0.370000
vt 0.750000 0.430000
vt 0.750000 0.490000
vt 0.353923 0.070000
vt 0.353923 0.130000
vt 0.250000 0.130000
vt 0.250000 0.070000
vt 0.250000 0.010000
vt 0.042154 0.250000
vt 0.094115 0.220000
vt 0.146077 0.310000
vt 0.094115 0.340000
vt 0.042154 0.370000
vt 0.353923 0.430000
vt 0.353923 0.310000
vt 0.405885 0.340000
vt 0.457846 0.370000
vt 1.000000 1.000000
vt 0.698038 0.280000
vt 0.801962 0.280000
vt 0.750000 0.190000
vt 0.301962 0.220000
vt 0.250000 0.310000
vt 0.198038 0.220000
vt 1.000000 0.500000
s 0
f 25/1/1 3/2/1 13/3/1
f 26/4/2 5/5/2 15/6/2
f 27/7/3 7/8/3 17/9/3
f 28/10/4 9/11/4 19/12/4
f 2/13/5 38/14/5 43/15/5
f 32/16/6 11/17/6 21/18/6
f 33/19/7 1/20/7 23/21/7
f 3/22/8 41/23/8 46/24/8
f 4/25/9 25/1/9 14/26/9
f 6/27/10 26/4/10 16/28/10
f 8/29/11 27/7/11 18/30/11
f 10/31/12 28/10/12 20/32/12
f 16/33/13 37/34/13 6/35/13
f 24/36/14 38/14/14 2/13/14
f 20/37/15 39/38/15 10/39/15
f 12/40/16 32/16/16 22/41/16
f 2/42/17 33/19/17 24/43/17
f 23/44/18 40/45/18 11/46/18
f 15/47/19 41/23/19 3/22/19
f 19/48/20 42/49/20 7/50/20
f 21/51/21 48/52/21 36/53/21
f 36/53/22 49/54/22 21/51/22
f 9/55/23 49/54/23 19/48/23
f 17/56/24 47/57/24 35/58/24
f 35/58/25 50/59/25 17/56/25
f 5/60/26 50/59/26 15/47/26
f 13/61/27 46/24/27 34/62/27
f 34/62/28 51/63/28 13/61/28
f 1/64/29 51/63/29 23/44/29
f 12/40/30 24/43/30 33/19/30
f 10/31/31 22/41/31 32/16/31
f 18/65/32 45/66/32 31/67/32
f 31/67/33 52/68/33 18/65/33
f 8/69/34 52/68/34 20/37/34
f 22/70/35 44/71/35 30/72/35
f 30/72/36 53/73/36 22/70/36
f 12/74/37 53/73/37 24/36/37
f 14/75/38 43/15/38 29/76/38
f 29/76/39 54/77/39 14/75/39
f 4/78/40 54/77/40 16/33/40
f 8/29/41 20/32/41 28/10/41
f 6/27/42 18/30/42 27/7/42
f 4/25/43 16/28/43 26/4/43
f 2/79/44 14/26/44 25/1/44
f 34/62/45 55/80/45 40/45/45
f 34/62/46 56/81/46 55/80/46
f 35/58/47 47/57/47 57/82/47
f 33/19/48 11/17/48 12/40/48
f 32/16/49 9/11/49 10/31/49
f 29/76/50 58/83/50 37/34/50
f 29/76/51 59/84/51 58/83/51
f 30/72/52 44/71/52 60/85/52
f 28/10/53 7/8/53 8/29/53
f 27/7/54 5/5/54 6/27/54
f 26/4/55 3/2/55 4/25/55
f 25/1/56 1/86/56 2/79/56
f 4/25/57 3/2/57 25/1/57
f 6/27/58 5/5/58 26/4/58
f 8/29/59 7/8/59 27/7/59
f 10/31/60 9/11/60 28/10/60
f 12/40/61 11/17/61 32/16/61
f 2/42/62 1/20/62 33/19/62
f 33/19/63 23/21/63 11/17/63
f 32/16/64 21/18/64 9/11/64
f 28/10/65 19/12/65 7/8/65
f 27/7/66 17/9/66 5/5/66
f 26/4/67 15/6/67 3/2/67
f 25/1/68 13/3/68 1/86/68
f 60/85/69 39/38/69 31/67/69
f 60/85/70 44/71/70 39/38/70
f 44/71/71 10/39/71 39/38/71
f 58/83/72 60/85/72 31/67/72
f 58/83/73 59/84/73 60/85/73
f 59/84/74 30/72/74 60/85/74
f 37/34/75 45/66/75 6/35/75
f 37/34/76 58/83/76 45/66/76
f 58/83/77 31/67/77 45/66/77
f 57/82/78 42/49/78 36/53/78
f 57/82/79 47/57/79 42/49/79
f 47/57/80 7/50/80 42/49/80
f 55/80/81 57/82/81 36/53/81
f 55/80/82 56/81/82 57/82/82
f 56/81/83 35/58/83 57/82/83
f 40/45/84 48/52/84 11/46/84
f 40/45/85 55/80/85 48/52/85
f 55/80/86 36/53/86 48/52/86
f 46/24/87 56/81/87 34/62/87
f 46/24/88 41/23/88 56/81/88
f 41/23/89 35/58/89 56/81/89
f 43/15/90 59/84/90 29/76/90
f 43/15/91 38/14/91 59/84/91
f 38/14/92 30/72/92 59/84/92
f 16/33/93 29/76/93 37/34/93
f 24/36/94 30/72/94 38/14/94
f 20/37/95 31/67/95 39/38/95
f 23/44/96 34/62/96 40/45/96
f 15/47/97 35/58/97 41/23/97
f 19/48/98 36/53/98 42/49/98
f 21/51/99 11/46/99 48/52/99
f 36/53/100 19/48/100 49/54/100
f 9/55/101 21/51/101 49/54/101
f 17/56/102 7/50/102 47/57/102
f 35/58/103 15/47/103 50/59/103
f 5/60/104 17/56/104 50/59/104
f 13/61/105 3/22/105 46/24/105
f 34/62/106 23/44/106 51/63/106
f 1/64/107 13/61/107 51/63/107
f 18/65/108 6/35/108 45/66/108
f 31/67/109 20/37/109 52/68/109
f 8/69/110 18/65/110 52/68/110
f 22/70/111 10/39/111 44/71/111
f 30/72/112 24/36/112 53/73/112
f 12/74/113 22/70/113 53/73/113
f 14/75/114 2/13/114 43/15/114
f 29/76/115 16/33/115 54/77/115
f 4/78/116 14/75/116 54/77/116
