# Blender 4.3.0
# www.blender.org
o Cylinder
v 0.000000 -2.168428 -24.569279
v 0.000000 3.353110 -26.108206
v 21.932381 -2.750445 -12.662666
v 22.122089 2.919073 -12.772195
v 21.073753 -1.987213 12.166937
v 22.415884 3.180232 12.941817
v 0.000000 -1.789981 24.077673
v 0.000000 3.563665 26.381733
v -20.910418 -1.842026 12.072636
v -22.088293 2.889036 12.752683
v -21.198248 -2.097872 -12.238814
v -20.553228 1.524521 -11.866411
v 10.651368 -2.152106 -18.448711
v 10.709402 2.268172 -18.549229
v 22.811861 -3.661214 0.000000
v 21.719601 2.568964 0.000000
v 11.406127 -3.661607 19.755991
v 10.543692 1.936755 18.262211
v -10.614650 -2.078670 18.385113
v -10.993863 2.837087 19.041929
v -21.738010 -2.587376 0.000000
v -20.705908 1.555284 0.000000
v -11.284552 -3.418459 -19.545418
v -10.384062 1.617498 -17.985722
v 10.992395 0.000000 -19.039387
v 23.241238 0.000000 0.000000
v 10.166720 0.000000 17.609278
v -10.570163 0.000000 18.308060
v 10.825317 1.538954 -6.250000
v -10.825317 3.763615 -6.250000
v 0.000000 2.822871 12.500000
v -20.803196 0.000000 0.000000
v -10.183558 0.000000 -17.638441
v 0.000000 -3.730836 -12.500000
v 10.825317 -2.403084 6.250000
v -10.825317 -1.773592 6.250000
v 16.237976 1.641919 3.125000
v -5.412659 1.151033 -15.625000
v -10.825317 1.677114 12.500000
v -10.825317 -1.565150 -12.500000
v 16.237976 -1.379553 -3.125000
v -5.412659 -4.216395 15.625000
v 5.412659 2.160591 -15.625000
v -16.237976 1.373429 3.125000
v 10.825317 2.553128 12.500000
v 10.825317 -3.976834 -12.500000
v 5.412659 -3.188113 15.625000
v -16.237976 -1.894726 -3.125000
v -16.237976 -3.283922 9.375000
v 16.237976 -3.107723 9.375000
v 0.000000 -2.520900 -18.750000
v 0.000000 1.495344 18.750000
v -16.237976 3.115594 -9.375000
v 16.237976 1.876369 -9.375000
v -5.412659 -3.213552 -3.125000
v 5.412659 -2.391884 -3.125000
v 0.000000 -2.129948 6.250000
v 5.412659 1.750052 3.125000
v 0.000000 2.775077 -6.250000
v -5.412659 3.363590 3.125000
vn 0.4224 -0.3015 -0.8548
vn 0.9810 -0.1151 0.1560
vn 0.3723 0.5600 0.7402
vn -0.5215 0.0427 0.8522
vn -0.0917 0.9830 0.1592
vn -0.9401 0.3397 -0.0279
vn -0.3913 0.5412 -0.7443
vn 0.1104 -0.9724 0.2057
vn 0.4272 0.2416 -0.8713
vn 0.8583 0.5084 -0.0702
vn 0.5332 -0.3616 0.7648
vn -0.4735 -0.2862 0.8330
vn -0.1867 0.9817 -0.0363
vn -0.0047 0.9791 0.2033
vn 0.1016 0.9800 -0.1711
vn -0.9980 0.0624 -0.0130
vn -0.5731 -0.2393 -0.7838
vn 0.0559 -0.9665 0.2506
vn -0.3075 -0.9504 -0.0470
vn -0.1758 -0.9106 0.3740
vn 0.0998 -0.9940 -0.0447
vn 0.1711 -0.9700 -0.1725
vn -0.1632 -0.9594 0.2302
vn -0.0152 -0.9956 -0.0921
vn -0.0778 -0.9930 -0.0892
vn 0.1376 -0.9784 0.1543
vn -0.0217 -0.9560 -0.2926
vn 0.0393 -0.9810 -0.1899
vn 0.0834 -0.9947 -0.0602
vn -0.4988 -0.2406 -0.8326
vn -0.9915 0.0620 -0.1140
vn 0.0248 0.9939 0.1075
vn -0.0313 0.9777 0.2077
vn 0.1102 0.9593 -0.2600
vn -0.0957 0.9764 0.1937
vn -0.1663 0.9825 0.0843
vn -0.1812 0.9407 -0.2869
vn 0.0123 0.9982 0.0591
vn -0.0279 0.9978 0.0594
vn -0.1622 0.9865 0.0219
vn -0.5189 -0.2859 0.8056
vn 0.4125 -0.3621 0.8359
vn 0.8597 0.5092 0.0410
vn 0.5759 0.2407 -0.7813
vn -0.1958 -0.9789 -0.0591
vn 0.0753 -0.9923 0.0982
vn -0.0251 -0.9949 -0.0978
vn -0.4598 0.1714 -0.8713
vn -0.9709 -0.2353 -0.0445
vn 0.0100 0.9998 -0.0167
vn 0.1133 0.9926 0.0431
vn -0.1789 0.9731 0.1448
vn -0.4941 -0.3437 0.7986
vn 0.3990 -0.2365 0.8859
vn 0.9948 -0.0351 -0.0952
vn 0.4735 -0.2365 -0.8485
vn 0.4970 -0.0334 -0.8671
vn 0.9553 -0.2671 0.1266
vn 0.5473 -0.3308 0.7687
vn -0.4698 -0.2391 0.8498
vn -0.9845 0.1751 0.0018
vn -0.5804 -0.2186 -0.7844
vn -0.4510 0.5412 -0.7097
vn -0.9396 0.3395 0.0435
vn -0.4731 0.0427 0.8800
vn 0.4493 0.5601 0.6960
vn 0.9902 -0.1161 -0.0771
vn 0.4753 -0.3021 -0.8263
vn -0.1045 0.9876 0.1173
vn -0.1803 0.9809 0.0723
vn 0.1045 0.9902 -0.0924
vn 0.1474 0.9887 -0.0281
vn 0.1474 0.9888 0.0230
vn 0.0909 0.9958 -0.0100
vn -0.0489 0.9910 -0.1245
vn 0.0099 0.9958 -0.0910
vn 0.0248 0.9947 -0.0995
vn -0.0320 -0.9715 -0.2347
vn 0.0933 -0.9819 -0.1647
vn 0.0923 -0.9712 0.2197
vn -0.0326 -0.9905 0.1333
vn 0.0755 -0.9946 0.0714
vn -0.0252 -0.9996 0.0134
vn 0.0511 -0.9987 -0.0056
vn -0.1203 -0.9873 -0.1041
vn -0.1205 -0.9893 0.0824
vn -0.0224 -0.9878 0.1540
vn 0.0909 -0.9720 0.2168
vn 0.0930 -0.9942 -0.0549
vn 0.1135 0.9935 0.0004
vn -0.0922 0.9887 -0.1180
vn 0.0887 0.9716 -0.2195
vn -0.1305 0.9893 0.0645
vn 0.1722 0.9701 -0.1709
vn -0.1036 0.9789 -0.1762
vn -0.1894 -0.9465 0.2613
vn -0.2196 -0.9480 -0.2303
vn -0.3875 -0.9217 -0.0164
vn 0.1052 -0.9938 -0.0351
vn 0.2532 -0.9670 -0.0287
vn -0.2532 -0.9644 0.0769
vn -0.1323 -0.9881 0.0787
vn -0.1161 -0.9930 -0.0228
vn 0.2024 -0.9784 0.0420
vn 0.1006 -0.9504 -0.2945
vn 0.0911 -0.9777 -0.1893
vn 0.0362 -0.9975 -0.0604
vn -0.0577 0.9930 0.1034
vn 0.1239 0.9706 0.2062
vn -0.0524 0.9639 -0.2612
vn 0.1048 0.9902 -0.0922
vn -0.0136 0.9835 -0.1804
vn -0.3425 0.9395 -0.0068
vn 0.0329 0.9948 0.0962
vn -0.0782 0.9965 -0.0279
vn -0.1118 0.9877 0.1095
vt 0.916667 0.750000
vt 0.833333 0.500000
vt 0.916667 0.500000
vt 0.750000 0.750000
vt 0.666667 0.500000
vt 0.750000 0.500000
vt 0.583333 0.750000
vt 0.500000 0.500000
vt 0.583333 0.500000
vt 0.416667 0.750000
vt 0.333333 0.500000
vt 0.416667 0.500000
vt 0.250000 0.490000
vt 0.198038 0.400000
vt 0.301962 0.400000
vt 0.250000 0.750000
vt 0.166667 0.500000
vt 0.250000 0.500000
vt 0.083333 0.750000
vt -0.000000 0.500000
vt 0.083333 0.500000
vt 0.957846 0.370000
vt 0.905885 0.280000
vt 0.853923 0.370000
vt 0.833333 1.000000
vt 0.916667 1.000000
vt 0.666667 1.000000
vt 0.750000 1.000000
vt 0.500000 1.000000
vt 0.583333 1.000000
vt 0.333333 1.000000
vt 0.416667 1.000000
vt 0.457846 0.250000
vt 0.405885 0.220000
vt 0.457846 0.130000
vt 0.146077 0.430000
vt 0.146077 0.070000
vt 0.146077 0.130000
vt 0.042154 0.130000
vt 0.166667 1.000000
vt 0.250000 1.000000
vt -0.000000 1.000000
vt 0.083333 1.000000
vt 0.646077 0.430000
vt 0.646077 0.370000
vt 0.542154 0.370000
vt 0.957846 0.250000
vt 0.646077 0.070000
vt 0.698038 0.100000
vt 0.750000 0.010000
vt 0.542154 0.250000
vt 0.594115 0.280000
vt 0.646077 0.190000
vt 0.594115 0.160000
vt 0.542154 0.130000
vt 0.853923 0.070000
vt 0.801962 0.100000
vt 0.853923 0.190000
vt 0.905885 0.160000
vt 0.957846 0.130000
vt 0.853923 0.430000
vt 0.750000 0.370000
vt 0.750000 0.430000
vt 0.750000 0.490000
vt 0.353923 0.070000
vt 0.353923 0.130000
vt 0.250000 0.130000
vt 0.250000 0.070000
vt 0.250000 0.010000
vt 0.042154 0.250000
vt 0.094115 0.220000
vt 0.146077 0.310000
vt 0.094115 0.340000
vt 0.042154 0.370000
vt 0.353923 0.430000
vt 0.353923 0.310000
vt 0.405885 0.340000
vt 0.457846 0.370000
vt 1.000000 1.000000
vt 0.698038 0.280000
vt 0.801962 0.280000
vt 0.750000 0.190000
vt 0.301962 0.220000
vt 0.250000 0.310000
vt 0.198038 0.220000
vt 1.000000 0.500000
s 0
f 25/1/1 3/2/1 13/3/1
f 26/4/2 5/5/2 15/6/2
f 27/7/3 7/8/3 17/9/3
f 28/10/4 9/11/4 19/12/4
f 2/13/5 38/14/5 43/15/5
f 32/16/6 11/17/6 21/18/6
f 33/19/7 1/20/7 23/21/7
f 3/22/8 41/23/8 46/24/8
f 4/25/9 25/1/9 14/26/9
f 6/27/10 26/4/10 16/28/10
f 8/29/11 27/7/11 18/30/11
f 10/31/12 28/10/12 20/32/12
f 16/33/13 37/34/13 6/35/13
f 24/36/14 38/14/14 2/13/14
f 20/37/15 39/38/15 10/39/15
f 12/40/16 32/16/16 22/41/16
f 2/42/17 33/19/17 24/43/17
f 23/44/18 40/45/18 11/46/18
f 15/47/19 41/23/19 3/22/19
f 19/48/20 42/49/20 7/50/20
f 21/51/21 48/52/21 36/53/21
f 36/53/22 49/54/22 21/51/22
f 9/55/23 49/54/23 19/48/23
f 17/56/24 47/57/24 35/58/24
f 35/58/25 50/59/25 17/56/25
f 5/60/26 50/59/26 15/47/26
f 13/61/27 46/24/27 34/62/27
f 34/62/28 51/63/28 13/61/28
f 1/64/29 51/63/29 23/44/29
f 12/40/30 24/43/30 33/19/30
f 10/31/31 22/41/31 32/16/31
f 18/65/32 45/66/32 31/67/32
f 31/67/33 52/68/33 18/65/33
f 8/69/34 52/68/34 20/37/34
f 22/70/35 44/71/35 30/72/35
f 30/72/36 53/73/36 22/70/36
f 12/74/37 53/73/37 24/36/37
f 14/75/38 43/15/38 29/76/38
f 29/76/39 54/77/39 14/75/39
f 4/78/40 54/77/40 16/33/40
f 8/29/41 20/32/41 28/10/41
f 6/27/42 18/30/42 27/7/42
f 4/25/43 16/28/43 26/4/43
f 2/79/44 14/26/44 25/1/44
f 34/62/45 55/80/45 40/45/45
f 34/62/46 56/81/46 55/80/46
f 35/58/47 47/57/47 57/82/47
f 33/19/48 11/17/48 12/40/48
f 32/16/49 9/11/49 10/31/49
f 29/76/50 58/83/50 37/34/50
f 29/76/51 59/84/51 58/83/51
f 30/72/52 44/71/52 60/85/52
f 28/10/53 7/8/53 8/29/53
f 27/7/54 5/5/54 6/27/54
f 26/4/55 3/2/55 4/25/55
f 25/1/56 1/86/56 2/79/56
f 4/25/57 3/2/57 25/1/57
f 6/27/58 5/5/58 26/4/58
f 8/29/59 7/8/59 27/7/59
f 10/31/60 9/11/60 28/10/60
f 12/40/61 11/17/61 32/16/61
f 2/42/62 1/20/62 33/19/62
f 33/19/63 23/21/63 11/17/63
f 32/16/64 21/18/64 9/11/64
f 28/10/65 19/12/65 7/8/65
f 27/7/66 17/9/66 5/5/66
f 26/4/67 15/6/67 3/2/67
f 25/1/68 13/3/68 1/86/68
f 60/85/69 39/38/69 31/67/69
f 60/85/70 44/71/70 39/38/70
f 44/71/71 10/39/71 39/38/71
f 58/83/72 60/85/72 31/67/72
f 58/83/73 59/84/73 60/85/73
f 59/84/74 30/72/74 60/85/74
f 37/34/75 45/66/75 6/35/75
f 37/34/76 58/83/76 45/66/76
f 58/83/77 31/67/77 45/66/77
f 57/82/78 42/49/78 36/53/78
f 57/82/79 47/57/79 42/49/79
f 47/57/80 7/50/80 42/49/80
f 55/80/81 57/82/81 36/53/81
f 55/80/82 56/81/82 57/82/82
f 56/81/83 35/58/83 57/82/83
f 40/45/84 48/52/84 11/46/84
f 40/45/85 55/80/85 48/52/85
f 55/80/86 36/53/86 48/52/86
f 46/24/87 56/81/87 34/62/87
f 46/24/88 41/23/88 56/81/88
f 41/23/89 35/58/89 56/81/89
f 43/15/90 59/84/90 29/76/90
f 43/15/91 38/14/91 59/84/91
f 38/14/92 30/72/92 59/84/92
f 16/33/93 29/76/93 37/34/93
f 24/36/94 30/72/94 38/14/94
f 20/37/95 31/67/95 39/38/95
f 23/44/96 34/62/96 40/45/96
f 15/47/97 35/58/97 41/23/97
f 19/48/98 36/53/98 42/49/98
f 21/51/99 11/46/99 48/52/99
f 36/53/100 19/48/100 49/54/100
f 9/55/101 21/51/101 49/54/101
f 17/56/102 7/50/102 47/57/102
f 35/58/103 15/47/103 50/59/103
f 5/60/104 17/56/104 50/59/104
f 13/61/105 3/22/105 46/24/105
f 34/62/106 23/44/106 51/63/106
f 1/64/107 13/61/107 51/63/107
f 18/65/108 6/35/108 45/66/108
f 31/67/109 20/37/109 52/68/109
f 8/69/110 18/65/110 52/68/110
f 22/70/111 10/39/111 44/71/111
f 30/72/112 24/36/112 53/73/112
f 12/74/113 22/70/113 53/73/113
f 14/75/114 2/13/114 43/15/114
f 29/76/115 16/33/115 54/77/115
f 4/78/116 14/75/116 54/77/116
