# Blender 4.3.0
# www.blender.org
o Cylinder
v 0.000000 -2.161203 -24.559893
v 0.000000 2.723924 -25.290880
v 20.868008 -1.804321 -12.048150
v 21.405712 2.282290 -12.358594
v 20.869749 -1.805874 12.049155
v 20.552094 1.523503 11.865756
v 0.000000 -2.665652 25.215185
v 0.000000 2.937875 25.568813
v -20.871643 -1.807558 12.050248
v -20.712820 1.666373 11.958552
v -22.196218 -2.984972 -12.814993
v -22.553404 3.302466 -13.021214
v 11.226228 -3.301813 -19.444397
v 11.143451 3.136260 -19.301023
v 22.354588 -3.203945 0.000000
v 21.897266 2.746629 0.000000
v 10.727071 -2.303509 18.579832
v 11.416529 3.682409 19.774008
v -10.567821 -1.985012 18.304003
v -10.957182 2.763727 18.978397
v -22.403337 -3.252694 0.000000
v -22.009428 2.858789 0.000000
v -11.413630 -3.676614 -19.768988
v -11.374701 3.598754 -19.701559
v 10.133269 0.000000 -17.551336
v 23.306536 0.000000 0.000000
v 9.953521 0.000000 17.240004
v -11.029318 0.000000 19.103340
v 10.825317 0.955275 -6.250000
v -10.825317 2.693484 -6.250000
v 0.000000 1.636179 12.500000
v -22.676594 0.000000 0.000000
v -10.904500 0.000000 -18.887148
v 0.000000 -2.110644 -12.500000
v 10.825317 -3.711854 6.250000
v -10.825317 -1.348721 6.250000
v 16.237976 3.518415 3.125000
v -5.412659 1.779475 -15.625000
v -10.825317 1.895296 12.500000
v -10.825317 -1.552618 -12.500000
v 16.237976 -3.313112 -3.125000
v -5.412659 -2.560982 15.625000
v 5.412659 3.018960 -15.625000
v -16.237976 2.570610 3.125000
v 10.825317 2.703874 12.500000
v 10.825317 -2.064814 -12.500000
v 5.412659 -2.052094 15.625000
v -16.237976 -2.304677 -3.125000
v -16.237976 -3.595444 9.375000
v 16.237976 -3.239363 9.375000
v 0.000000 -2.681418 -18.750000
v 0.000000 1.711158 18.750000
v -16.237976 3.173181 -9.375000
v 16.237976 3.081888 -9.375000
v -5.412659 -0.754325 -3.125000
v 5.412659 -3.538206 -3.125000
v 0.000000 -1.000187 6.250000
v 5.412659 1.710683 3.125000
v 0.000000 3.234842 -6.250000
v -5.412659 2.183321 3.125000
vn 0.4521 0.5516 -0.7010
vn 0.9478 -0.2816 0.1495
vn 0.4230 0.5575 0.7143
vn -0.4758 -0.4215 0.7720
vn -0.1137 0.9930 0.0334
vn -0.9963 -0.0837 -0.0179
vn -0.4029 0.2659 -0.8758
vn 0.0324 -0.9881 -0.1503
vn 0.4397 -0.5414 -0.7166
vn 0.8801 0.4516 0.1463
vn 0.3862 -0.6221 0.6810
vn -0.5871 0.0518 0.8078
vn 0.2004 0.9720 0.1229
vn 0.1668 0.9679 0.1880
vn -0.0157 0.9910 -0.1332
vn -0.9727 0.2270 0.0484
vn -0.4423 -0.2525 -0.8606
vn 0.1130 -0.9561 0.2702
vn 0.0815 -0.9888 -0.1249
vn -0.0903 -0.9951 0.0401
vn 0.1570 -0.9876 0.0101
vn 0.2684 -0.9399 -0.2109
vn -0.1931 -0.9368 0.2916
vn -0.1090 -0.9877 0.1120
vn 0.0211 -0.9933 0.1136
vn 0.2187 -0.9658 0.1390
vn 0.0042 -0.9845 0.1756
vn -0.0493 -0.9946 0.0908
vn 0.0944 -0.9916 -0.0888
vn -0.4914 -0.2528 -0.8335
vn -0.9659 0.2254 0.1272
vn -0.0974 0.9874 -0.1249
vn -0.1691 0.9855 -0.0118
vn 0.0905 0.9802 -0.1763
vn 0.0326 0.9990 0.0319
vn 0.0509 0.9966 0.0648
vn -0.0026 0.9992 0.0399
vn 0.0865 0.9823 0.1663
vn -0.2846 0.9466 0.1513
vn 0.1288 0.9908 -0.0423
vn -0.5153 0.0521 0.8554
vn 0.4235 -0.6217 0.6589
vn 0.8885 0.4559 -0.0525
vn 0.4135 -0.5415 -0.7320
vn -0.0511 -0.9922 0.1140
vn -0.2491 -0.9685 -0.0037
vn -0.2429 -0.9696 0.0314
vn -0.4615 -0.0553 -0.8854
vn -0.9867 0.0492 0.1552
vn -0.1623 0.9716 -0.1720
vn 0.2059 0.9778 0.0401
vn 0.0357 0.9988 0.0337
vn -0.4941 -0.0548 0.8677
vn 0.4399 0.0912 0.8934
vn 0.9742 -0.1415 -0.1760
vn 0.5819 -0.1203 -0.8043
vn 0.4359 -0.1251 -0.8913
vn 0.9716 0.1044 0.2121
vn 0.6325 -0.0488 0.7731
vn -0.5876 0.0482 0.8077
vn -0.9981 -0.0575 -0.0240
vn -0.4777 -0.1300 -0.8688
vn -0.5102 0.2668 -0.8176
vn -0.9873 -0.0829 0.1354
vn -0.5154 -0.4205 0.7467
vn 0.4299 0.5575 0.7102
vn 0.9478 -0.2816 -0.1497
vn 0.3916 0.5518 -0.7363
vn 0.0239 0.9987 0.0445
vn 0.0357 0.9980 0.0513
vn -0.0279 0.9957 0.0878
vn 0.0436 0.9985 0.0331
vn 0.0432 0.9898 0.1360
vn -0.0498 0.9953 0.0829
vn 0.1292 0.9787 0.1596
vn -0.1647 0.9863 -0.0094
vn -0.0980 0.9940 -0.0487
vn 0.0318 -0.9887 -0.1462
vn 0.0465 -0.9894 -0.1379
vn 0.0469 -0.9982 -0.0374
vn 0.0321 -0.9985 -0.0447
vn -0.2473 -0.9618 0.1176
vn -0.2412 -0.9629 0.1214
vn 0.1252 -0.9921 -0.0073
vn 0.1418 -0.9899 0.0024
vn 0.1417 -0.9897 0.0191
vn 0.0042 -0.9882 -0.1529
vn 0.0206 -0.9894 -0.1436
vn 0.0208 -0.9993 -0.0305
vn 0.2051 0.9740 0.0960
vn -0.1133 0.9896 -0.0882
vn -0.0496 0.9909 -0.1252
vn -0.0107 0.9661 -0.2580
vn 0.2572 0.9648 0.0544
vn 0.0237 0.9909 -0.1324
vn -0.0494 -0.9576 0.2838
vn 0.0305 -0.9992 -0.0249
vn -0.1362 -0.9895 -0.0493
vn 0.1429 -0.9896 -0.0184
vn 0.3546 -0.9333 -0.0568
vn -0.2797 -0.9484 0.1493
vn -0.0089 -0.9976 -0.0689
vn 0.0648 -0.9972 0.0385
vn 0.1793 -0.9622 0.2052
vn 0.0176 -0.9842 0.1763
vn 0.0785 -0.9928 0.0907
vn -0.0604 -0.9942 -0.0890
vn 0.1102 0.9838 -0.1413
vn 0.0954 0.9954 -0.0119
vn -0.1523 0.9727 -0.1750
vn -0.0043 0.9950 0.0997
vn 0.0508 0.9966 0.0650
vn 0.0008 0.9994 0.0340
vn -0.0294 0.9995 -0.0140
vn -0.2612 0.9461 0.1915
vn 0.1207 0.9911 -0.0565
vt 0.916667 0.750000
vt 0.833333 0.500000
vt 0.916667 0.500000
vt 0.750000 0.750000
vt 0.666667 0.500000
vt 0.750000 0.500000
vt 0.583333 0.750000
vt 0.500000 0.500000
vt 0.583333 0.500000
vt 0.416667 0.750000
vt 0.333333 0.500000
vt 0.416667 0.500000
vt 0.250000 0.490000
vt 0.198038 0.400000
vt 0.301962 0.400000
vt 0.250000 0.750000
vt 0.166667 0.500000
vt 0.250000 0.500000
vt 0.083333 0.750000
vt -0.000000 0.500000
vt 0.083333 0.500000
vt 0.957846 0.370000
vt 0.905885 0.280000
vt 0.853923 0.370000
vt 0.833333 1.000000
vt 0.916667 1.000000
vt 0.666667 1.000000
vt 0.750000 1.000000
vt 0.500000 1.000000
vt 0.583333 1.000000
vt 0.333333 1.000000
vt 0.416667 1.000000
vt 0.457846 0.250000
vt 0.405885 0.220000
vt 0.457846 0.130000
vt 0.146077 0.430000
vt 0.146077 0.070000
vt 0.146077 0.130000
vt 0.042154 0.130000
vt 0.166667 1.000000
vt 0.250000 1.000000
vt -0.000000 1.000000
vt 0.083333 1.000000
vt 0.646077 0.430000
vt 0.646077 0.370000
vt 0.542154 0.370000
vt 0.957846 0.250000
vt 0.646077 0.070000
vt 0.698038 0.100000
vt 0.750000 0.010000
vt 0.542154 0.250000
vt 0.594115 0.280000
vt 0.646077 0.190000
vt 0.594115 0.160000
vt 0.542154 0.130000
vt 0.853923 0.070000
vt 0.801962 0.100000
vt 0.853923 0.190000
vt 0.905885 0.160000
vt 0.957846 0.130000
vt 0.853923 0.430000
vt 0.750000 0.370000
vt 0.750000 0.430000
vt 0.750000 0.490000
vt 0.353923 0.070000
vt 0.353923 0.130000
vt 0.250000 0.130000
vt 0.250000 0.070000
vt 0.250000 0.010000
vt 0.042154 0.250000
vt 0.094115 0.220000
vt 0.146077 0.310000
vt 0.094115 0.340000
vt 0.042154 0.370000
vt 0.353923 0.430000
vt 0.353923 0.310000
vt 0.405885 0.340000
vt 0.457846 0.370000
vt 1.000000 1.000000
vt 0.698038 0.280000
vt 0.801962 0.280000
vt 0.750000 0.190000
vt 0.301962 0.220000
vt 0.250000 0.310000
vt 0.198038 0.220000
vt 1.000000 0.500000
s 0
f 25/1/1 3/2/1 13/3/1
f 26/4/2 5/5/2 15/6/2
f 27/7/3 7/8/3 17/9/3
f 28/10/4 9/11/4 19/12/4
f 2/13/5 38/14/5 43/15/5
f 32/16/6 11/17/6 21/18/6
f 33/19/7 1/20/7 23/21/7
f 3/22/8 41/23/8 46/24/8
f 4/25/9 25/1/9 14/26/9
f 6/27/10 26/4/10 16/28/10
f 8/29/11 27/7/11 18/30/11
f 10/31/12 28/10/12 20/32/12
f 16/33/13 37/34/13 6/35/13
f 24/36/14 38/14/14 2/13/14
f 20/37/15 39/38/15 10/39/15
f 12/40/16 32/16/16 22/41/16
f 2/42/17 33/19/17 24/43/17
f 23/44/18 40/45/18 11/46/18
f 15/47/19 41/23/19 3/22/19
f 19/48/20 42/49/20 7/50/20
f 21/51/21 48/52/21 36/53/21
f 36/53/22 49/54/22 21/51/22
f 9/55/23 49/54/23 19/48/23
f 17/56/24 47/57/24 35/58/24
f 35/58/25 50/59/25 17/56/25
f 5/60/26 50/59/26 15/47/26
f 13/61/27 46/24/27 34/62/27
f 34/62/28 51/63/28 13/61/28
f 1/64/29 51/63/29 23/44/29
f 12/40/30 24/43/30 33/19/30
f 10/31/31 22/41/31 32/16/31
f 18/65/32 45/66/32 31/67/32
f 31/67/33 52/68/33 18/65/33
f 8/69/34 52/68/34 20/37/34
f 22/70/35 44/71/35 30/72/35
f 30/72/36 53/73/36 22/70/36
f 12/74/37 53/73/37 24/36/37
f 14/75/38 43/15/38 29/76/38
f 29/76/39 54/77/39 14/75/39
f 4/78/40 54/77/40 16/33/40
f 8/29/41 20/32/41 28/10/41
f 6/27/42 18/30/42 27/7/42
f 4/25/43 16/28/43 26/4/43
f 2/79/44 14/26/44 25/1/44
f 34/62/45 55/80/45 40/45/45
f 34/62/46 56/81/46 55/80/46
f 35/58/47 47/57/47 57/82/47
f 33/19/48 11/17/48 12/40/48
f 32/16/49 9/11/49 10/31/49
f 29/76/50 58/83/50 37/34/50
f 29/76/51 59/84/51 58/83/51
f 30/72/52 44/71/52 60/85/52
f 28/10/53 7/8/53 8/29/53
f 27/7/54 5/5/54 6/27/54
f 26/4/55 3/2/55 4/25/55
f 25/1/56 1/86/56 2/79/56
f 4/25/57 3/2/57 25/1/57
f 6/27/58 5/5/58 26/4/58
f 8/29/59 7/8/59 27/7/59
f 10/31/60 9/11/60 28/10/60
f 12/40/61 11/17/61 32/16/61
f 2/42/62 1/20/62 33/19/62
f 33/19/63 23/21/63 11/17/63
f 32/16/64 21/18/64 9/11/64
f 28/10/65 19/12/65 7/8/65
f 27/7/66 17/9/66 5/5/66
f 26/4/67 15/6/67 3/2/67
f 25/1/68 13/3/68 1/86/68
f 60/85/69 39/38/69 31/67/69
f 60/85/70 44/71/70 39/38/70
f 44/71/71 10/39/71 39/38/71
f 58/83/72 60/85/72 31/67/72
f 58/83/73 59/84/73 60/85/73
f 59/84/74 30/72/74 60/85/74
f 37/34/75 45/66/75 6/35/75
f 37/34/76 58/83/76 45/66/76
f 58/83/77 31/67/77 45/66/77
f 57/82/78 42/49/78 36/53/78
f 57/82/79 47/57/79 42/49/79
f 47/57/80 7/50/80 42/49/80
f 55/80/81 57/82/81 36/53/81
f 55/80/82 56/81/82 57/82/82
f 56/81/83 35/58/83 57/82/83
f 40/45/84 48/52/84 11/46/84
f 40/45/85 55/80/85 48/52/85
f 55/80/86 36/53/86 48/52/86
f 46/24/87 56/81/87 34/62/87
f 46/24/88 41/23/88 56/81/88
f 41/23/89 35/58/89 56/81/89
f 43/15/90 59/84/90 29/76/90
f 43/15/91 38/14/91 59/84/91
f 38/14/92 30/72/92 59/84/92
f 16/33/93 29/76/93 37/34/93
f 24/36/94 30/72/94 38/14/94
f 20/37/95 31/67/95 39/38/95
f 23/44/96 34/62/96 40/45/96
f 15/47/97 35/58/97 41/23/97
f 19/48/98 36/53/98 42/49/98
f 21/51/99 11/46/99 48/52/99
f 36/53/100 19/48/100 49/54/100
f 9/55/101 21/51/101 49/54/101
f 17/56/102 7/50/102 47/57/102
f 35/58/103 15/47/103 50/59/103
f 5/60/104 17/56/104 50/59/104
f 13/61/105 3/22/105 46/24/105
f 34/62/106 23/44/106 51/63/106
f 1/64/107 13/61/107 51/63/107
f 18/65/108 6/35/108 45/66/108
f 31/67/109 20/37/109 52/68/109
f 8/69/110 18/65/110 52/68/110
f 22/70/111 10/39/111 44/71/111
f 30/72/112 24/36/112 53/73/112
f 12/74/113 22/70/113 53/73/113
f 14/75/114 2/13/114 43/15/114
f 29/76/115 16/33/115 54/77/115
f 4/78/116 14/75/116 54/77/116
