# Blender 4.3.0
# www.blender.org
o Cylinder
v 0.000000 -4.864874 -28.072042
v 0.000000 5.105665 -28.384806
v 22.689693 -3.423623 -13.099901
v 21.575190 2.432937 -12.456442
v 20.371656 -1.363124 11.761581
v 24.297691 4.852977 14.028279
v 0.000000 -3.188642 25.894558
v 0.000000 1.147255 23.242743
v -21.814228 -2.645417 12.594451
v -23.981194 4.571640 13.845549
v -23.510391 -4.153144 -13.573731
v -18.735695 -0.091074 -10.817059
v 11.300467 -3.450290 -19.572985
v 9.869753 0.588891 -17.094913
v 22.652325 -3.501680 0.000000
v 24.354731 5.204067 0.000000
v 10.487935 -1.825242 18.165636
v 11.127072 3.103503 19.272655
v -11.034052 -2.917464 19.111538
v -10.870560 2.590483 18.828362
v -21.377350 -2.226718 0.000000
v -20.754139 1.603514 0.000000
v -9.832569 -0.514524 -17.030508
v -10.527804 1.904980 -18.234692
v 11.470780 0.000000 -19.867975
v 22.978245 0.000000 0.000000
v 9.540174 0.000000 16.524067
v -12.186414 0.000000 21.107487
v 10.825317 -0.258799 -6.250000
v -10.825317 5.130025 -6.250000
v 0.000000 1.719457 12.500000
v -23.860140 0.000000 0.000000
v 0.000000 -1.331644 -12.500000
v 10.825317 -3.276668 6.250000
v -10.825317 -5.297617 6.250000
v 16.237976 -1.933320 3.125000
v -5.412659 5.946062 -15.625000
v -10.825317 6.837821 12.500000
v -10.825317 0.386413 -12.500000
v 16.237976 1.117553 -3.125000
v -5.412659 -5.528560 15.625000
v 5.412659 2.893114 -15.625000
v -16.237976 1.098368 3.125000
v 10.825317 5.087401 12.500000
v 10.825317 -5.878734 -12.500000
v 5.412659 0.083972 15.625000
v -16.237976 -0.962952 -3.125000
v -16.237976 -6.595154 9.375000
v 16.237976 -0.440217 9.375000
v 0.000000 -4.815998 -18.750000
v 0.000000 2.193598 18.750000
v -16.237976 -1.989693 -9.375000
v 16.237976 0.585743 -9.375000
v -5.412659 -2.411185 -3.125000
v 5.412659 1.633806 -3.125000
v 0.000000 1.670415 6.250000
v 5.412659 0.866083 3.125000
v 0.000000 4.262033 -6.250000
v -5.412659 3.054639 3.125000
vn 0.4919 -0.0982 -0.8651
vn 0.9745 -0.0907 0.2054
vn 0.3484 0.7203 0.5998
vn -0.4175 -0.6196 0.6647
vn 0.2711 0.9612 0.0517
vn -0.6533 -0.7285 0.2061
vn 0.1990 -0.8370 0.5097
vn -0.0579 0.9692 -0.2392
vn 0.9668 -0.2557 -0.0025
vn 0.3431 -0.7150 0.6092
vn -0.1605 0.6967 0.6992
vn -0.6567 0.7539 0.0162
vn -0.5085 0.8178 -0.2696
vn -0.0858 0.8275 0.5548
vn -0.4476 0.8669 -0.2193
vn -0.5200 -0.4956 -0.6957
vn 0.3074 -0.9182 0.2499
vn -0.5823 -0.8130 -0.0065
vn -0.2236 -0.9182 0.3271
vn -0.0238 -0.9126 -0.4082
vn -0.0203 -0.9104 -0.4131
vn -0.3085 -0.8236 0.4760
vn -0.3938 -0.9137 0.1001
vn 0.4046 -0.9063 0.1219
vn -0.2811 -0.9523 0.1186
vn -0.3664 -0.8722 -0.3241
vn 0.1396 -0.8649 0.4822
vn -0.4001 -0.9165 0.0048
vn -0.5127 -0.4961 -0.7008
vn -0.4397 0.8517 -0.2851
vn -0.2851 0.9163 0.2811
vn -0.0778 0.9941 -0.0754
vn 0.0372 0.9733 0.2267
vn -0.1242 0.9356 0.3306
vn -0.5565 0.6501 -0.5173
vn 0.2922 0.7918 0.5364
vn 0.4663 0.8842 0.0280
vn -0.1046 0.9907 0.0867
vn -0.3848 0.9154 -0.1178
vn -0.1866 0.7007 0.6886
vn 0.3386 -0.7149 0.6118
vn 0.9548 -0.2525 -0.1569
vn 0.3886 0.9210 0.0288
vn -0.1536 -0.9677 -0.2001
vn 0.3485 -0.9326 0.0938
vn -0.4141 -0.9062 0.0857
vn -0.3412 0.7685 -0.5413
vn -0.9493 -0.3008 0.0910
vn 0.2503 0.9678 0.0284
vn 0.3830 0.9171 0.1111
vn -0.1693 0.9371 0.3052
vn -0.1948 0.5118 0.8368
vn 0.2991 -0.4880 0.8200
vn 0.9783 0.1941 -0.0723
vn 0.5886 -0.0253 -0.8080
vn 0.5495 0.1939 -0.8127
vn 0.8199 -0.5604 0.1168
vn 0.5529 0.4347 0.7108
vn -0.5823 -0.3054 0.7534
vn -0.5343 0.8044 -0.2599
vn -0.7507 -0.0207 -0.6603
vn -0.6669 -0.7436 -0.0479
vn -0.4221 -0.6195 0.6618
vn 0.3532 0.7203 0.5970
vn 0.9957 -0.0927 0.0023
vn 0.6060 -0.0974 -0.7895
vn 0.4245 0.8978 -0.1172
vn -0.1591 0.8802 -0.4471
vn -0.1957 0.8826 -0.4273
vn 0.1981 0.9799 0.0252
vn 0.1927 0.9530 0.2340
vn 0.0787 0.9820 0.1719
vn 0.0787 0.8192 -0.5681
vn 0.2165 0.8373 -0.5020
vn -0.2876 0.9245 -0.2502
vn 0.5135 -0.7977 -0.3161
vn 0.4250 -0.8197 -0.3841
vn 0.4599 -0.8871 -0.0403
vn 0.5405 -0.8397 0.0535
vn 0.3428 -0.9175 0.2015
vn -0.4045 -0.8851 -0.2301
vn 0.3322 -0.9415 0.0563
vn -0.1295 -0.9682 -0.2141
vn -0.1239 -0.9260 -0.3566
vn -0.3443 -0.8196 0.4580
vn -0.0377 -0.7903 0.6115
vn -0.0427 -0.8950 -0.4441
vn 0.3839 0.9192 0.0874
vn 0.2714 0.9623 0.0162
vn 0.0792 0.9881 0.1318
vn -0.5006 0.7548 0.4238
vn -0.5269 0.8174 -0.2330
vn 0.3649 0.7718 0.5206
vn -0.1547 -0.9749 0.1600
vn -0.3012 -0.7847 -0.5417
vn -0.3284 -0.9297 0.1667
vn 0.2890 -0.9531 0.0899
vn 0.3250 -0.9290 0.1772
vn -0.5954 -0.8020 -0.0473
vn -0.1567 -0.9141 -0.3739
vn 0.2110 -0.8774 0.4309
vn -0.0934 -0.9723 -0.2143
vn 0.1777 -0.9344 -0.3089
vn -0.2847 -0.8373 0.4668
vn 0.1204 -0.9927 0.0052
vn -0.0153 0.9594 0.2817
vn 0.0358 0.9965 -0.0756
vn -0.0899 0.9700 0.2259
vn 0.2159 0.9638 -0.1563
vn -0.7388 0.6460 -0.1922
vn 0.6090 0.7931 -0.0106
vn 0.4496 0.8925 -0.0359
vn -0.2747 0.9353 -0.2230
vn -0.2242 0.9568 0.1853
vt 0.916667 0.750000
vt 0.833333 0.500000
vt 0.916667 0.500000
vt 0.750000 0.750000
vt 0.666667 0.500000
vt 0.750000 0.500000
vt 0.583333 0.750000
vt 0.500000 0.500000
vt 0.583333 0.500000
vt 0.416667 0.750000
vt 0.333333 0.500000
vt 0.416667 0.500000
vt 0.250000 0.490000
vt 0.198038 0.400000
vt 0.301962 0.400000
vt 0.250000 0.750000
vt 0.166667 0.500000
vt 0.250000 0.500000
vt 0.957846 0.370000
vt 0.905885 0.280000
vt 0.853923 0.370000
vt 0.833333 1.000000
vt 0.916667 1.000000
vt 0.666667 1.000000
vt 0.750000 1.000000
vt 0.500000 1.000000
vt 0.583333 1.000000
vt 0.333333 1.000000
vt 0.416667 1.000000
vt 0.457846 0.250000
vt 0.405885 0.220000
vt 0.457846 0.130000
vt 0.146077 0.430000
vt 0.146077 0.070000
vt 0.146077 0.130000
vt 0.042154 0.130000
vt 0.166667 1.000000
vt 0.250000 1.000000
vt -0.000000 1.000000
vt 0.083333 0.750000
vt 0.083333 1.000000
vt 0.646077 0.430000
vt 0.646077 0.370000
vt 0.542154 0.370000
vt 0.957846 0.250000
vt 0.646077 0.070000
vt 0.698038 0.100000
vt 0.750000 0.010000
vt 0.542154 0.250000
vt 0.594115 0.280000
vt 0.646077 0.190000
vt 0.594115 0.160000
vt 0.542154 0.130000
vt 0.853923 0.070000
vt 0.801962 0.100000
vt 0.853923 0.190000
vt 0.905885 0.160000
vt 0.957846 0.130000
vt 0.853923 0.430000
vt 0.750000 0.370000
vt 0.750000 0.430000
vt 0.750000 0.490000
vt 0.353923 0.070000
vt 0.353923 0.130000
vt 0.250000 0.130000
vt 0.250000 0.070000
vt 0.250000 0.010000
vt 0.042154 0.250000
vt 0.094115 0.220000
vt 0.146077 0.310000
vt 0.094115 0.340000
vt 0.042154 0.370000
vt 0.353923 0.430000
vt 0.353923 0.310000
vt 0.405885 0.340000
vt 0.457846 0.370000
vt 1.000000 1.000000
vt 0.698038 0.280000
vt 0.801962 0.280000
vt 0.750000 0.190000
vt 0.301962 0.220000
vt 0.250000 0.310000
vt 0.198038 0.220000
vt 1.000000 0.500000
vt -0.000000 0.500000
s 0
f 25/1/1 3/2/1 13/3/1
f 26/4/2 5/5/2 15/6/2
f 27/7/3 7/8/3 17/9/3
f 28/10/4 9/11/4 19/12/4
f 2/13/5 37/14/5 42/15/5
f 32/16/6 11/17/6 21/18/6
f 3/19/7 40/20/7 45/21/7
f 4/22/8 25/1/8 14/23/8
f 6/24/9 26/4/9 16/25/9
f 8/26/10 27/7/10 18/27/10
f 10/28/11 28/10/11 20/29/11
f 16/30/12 36/31/12 6/32/12
f 24/33/13 37/14/13 2/13/13
f 20/34/14 38/35/14 10/36/14
f 12/37/15 32/16/15 22/38/15
f 2/39/16 23/40/16 24/41/16
f 23/42/17 39/43/17 11/44/17
f 15/45/18 40/20/18 3/19/18
f 19/46/19 41/47/19 7/48/19
f 21/49/20 47/50/20 35/51/20
f 35/51/21 48/52/21 21/49/21
f 9/53/22 48/52/22 19/46/22
f 17/54/23 46/55/23 34/56/23
f 34/56/24 49/57/24 17/54/24
f 5/58/25 49/57/25 15/45/25
f 13/59/26 45/21/26 33/60/26
f 33/60/27 50/61/27 13/59/27
f 1/62/28 50/61/28 23/42/28
f 12/37/29 24/41/29 23/40/29
f 10/28/30 22/38/30 32/16/30
f 18/63/31 44/64/31 31/65/31
f 31/65/32 51/66/32 18/63/32
f 8/67/33 51/66/33 20/34/33
f 22/68/34 43/69/34 30/70/34
f 30/70/35 52/71/35 22/68/35
f 12/72/36 52/71/36 24/33/36
f 14/73/37 42/15/37 29/74/37
f 29/74/38 53/75/38 14/73/38
f 4/76/39 53/75/39 16/30/39
f 8/26/40 20/29/40 28/10/40
f 6/24/41 18/27/41 27/7/41
f 4/22/42 16/25/42 26/4/42
f 2/77/43 14/23/43 25/1/43
f 33/60/44 54/78/44 39/43/44
f 33/60/45 55/79/45 54/78/45
f 34/56/46 46/55/46 56/80/46
f 23/40/47 11/17/47 12/37/47
f 32/16/48 9/11/48 10/28/48
f 29/74/49 57/81/49 36/31/49
f 29/74/50 58/82/50 57/81/50
f 30/70/51 43/69/51 59/83/51
f 28/10/52 7/8/52 8/26/52
f 27/7/53 5/5/53 6/24/53
f 26/4/54 3/2/54 4/22/54
f 25/1/55 1/84/55 2/77/55
f 4/22/56 3/2/56 25/1/56
f 6/24/57 5/5/57 26/4/57
f 8/26/58 7/8/58 27/7/58
f 10/28/59 9/11/59 28/10/59
f 12/37/60 11/17/60 32/16/60
f 2/39/61 1/85/61 23/40/61
f 32/16/62 21/18/62 9/11/62
f 28/10/63 19/12/63 7/8/63
f 27/7/64 17/9/64 5/5/64
f 26/4/65 15/6/65 3/2/65
f 25/1/66 13/3/66 1/84/66
f 59/83/67 38/35/67 31/65/67
f 59/83/68 43/69/68 38/35/68
f 43/69/69 10/36/69 38/35/69
f 57/81/70 59/83/70 31/65/70
f 57/81/71 58/82/71 59/83/71
f 58/82/72 30/70/72 59/83/72
f 36/31/73 44/64/73 6/32/73
f 36/31/74 57/81/74 44/64/74
f 57/81/75 31/65/75 44/64/75
f 56/80/76 41/47/76 35/51/76
f 56/80/77 46/55/77 41/47/77
f 46/55/78 7/48/78 41/47/78
f 54/78/79 56/80/79 35/51/79
f 54/78/80 55/79/80 56/80/80
f 55/79/81 34/56/81 56/80/81
f 39/43/82 47/50/82 11/44/82
f 39/43/83 54/78/83 47/50/83
f 54/78/84 35/51/84 47/50/84
f 45/21/85 55/79/85 33/60/85
f 45/21/86 40/20/86 55/79/86
f 40/20/87 34/56/87 55/79/87
f 42/15/88 58/82/88 29/74/88
f 42/15/89 37/14/89 58/82/89
f 37/14/90 30/70/90 58/82/90
f 16/30/91 29/74/91 36/31/91
f 24/33/92 30/70/92 37/14/92
f 20/34/93 31/65/93 38/35/93
f 23/42/94 33/60/94 39/43/94
f 15/45/95 34/56/95 40/20/95
f 19/46/96 35/51/96 41/47/96
f 21/49/97 11/44/97 47/50/97
f 35/51/98 19/46/98 48/52/98
f 9/53/99 21/49/99 48/52/99
f 17/54/100 7/48/100 46/55/100
f 34/56/101 15/45/101 49/57/101
f 5/58/102 17/54/102 49/57/102
f 13/59/103 3/19/103 45/21/103
f 33/60/104 23/42/104 50/61/104
f 1/62/105 13/59/105 50/61/105
f 18/63/106 6/32/106 44/64/106
f 31/65/107 20/34/107 51/66/107
f 8/67/108 18/63/108 51/66/108
f 22/68/109 10/36/109 43/69/109
f 30/70/110 24/33/110 52/71/110
f 12/72/111 22/68/111 52/71/111
f 14/73/112 2/13/112 42/15/112
f 29/74/113 16/30/113 53/75/113
f 4/76/114 14/73/114 53/75/114
