# Blender 4.3.0
# www.blender.org
o Cylinder
v 0.000000 -5.010652 -28.261412
v 0.000000 4.522986 -27.627895
v 18.682278 0.138581 -10.786219
v 23.373880 4.031783 -13.494916
v 22.500280 -3.255245 12.990543
v 22.410326 3.175292 12.938608
v 0.000000 -2.259543 24.687643
v 0.000000 4.642626 27.783335
v -23.406027 -4.060358 13.513476
v -20.008671 1.040454 11.552011
v -19.483423 -0.573560 -11.248760
v -22.895292 3.606369 -13.218603
v 11.818835 -4.487015 -20.470823
v 11.315171 3.479698 -19.598452
v 19.635324 -0.484711 0.000000
v 23.540842 4.390188 0.000000
v 11.803701 -4.456748 20.444611
v 11.673561 4.196469 20.219202
v -11.845214 -4.539771 20.516512
v -11.227634 3.304625 19.446833
v -22.371965 -3.221324 0.000000
v -20.666777 1.516152 0.000000
v -11.892126 -4.633595 -20.597767
v -11.757466 4.364278 -20.364529
v 12.538692 0.000000 -21.717651
v 23.949541 0.000000 0.000000
v 10.268365 0.000000 17.785330
v -10.400937 0.000000 18.014952
v 10.825317 5.559684 -6.250000
v -10.825317 3.824564 -6.250000
v 0.000000 2.091908 12.500000
v -24.659176 0.000000 0.000000
v -9.862907 0.000000 -17.083057
v 0.000000 -2.944310 -12.500000
v 10.825317 -1.323632 6.250000
v -10.825317 1.469202 6.250000
v 16.237976 -0.609751 3.125000
v -5.412659 2.974968 -15.625000
v -10.825317 5.519117 12.500000
v -10.825317 1.816258 -12.500000
v 16.237976 -2.605079 -3.125000
v -5.412659 -2.596881 15.625000
v 5.412659 6.595335 -15.625000
v -16.237976 6.423453 3.125000
v 10.825317 2.253099 12.500000
v 10.825317 -5.856157 -12.500000
v 5.412659 -3.371632 15.625000
v -16.237976 -3.220819 -3.125000
v -16.237976 -1.287604 9.375000
v 16.237976 -0.938898 9.375000
v 0.000000 -2.008593 -18.750000
v 0.000000 -0.392557 18.750000
v -16.237976 4.795690 -9.375000
v 16.237976 5.250437 -9.375000
v -5.412659 -5.163217 -3.125000
v 5.412659 0.067901 -3.125000
v 0.000000 -0.173537 6.250000
v 5.412659 1.518750 3.125000
v 0.000000 4.956821 -6.250000
v -5.412659 -1.881428 3.125000
vn 0.8419 -0.2656 -0.4698
vn 0.1087 -0.9671 -0.2302
vn 0.3701 0.5667 0.7361
vn -0.4207 0.5368 0.7313
vn -0.3171 0.9482 -0.0207
vn -0.7706 -0.5472 -0.3267
vn -0.3927 0.6588 -0.6418
vn 0.6160 -0.7833 -0.0840
vn 0.3488 0.5739 -0.7410
vn 0.9912 0.0923 0.0953
vn 0.4368 -0.5563 0.7069
vn -0.5325 -0.4452 0.7199
vn -0.5561 0.8306 0.0294
vn 0.0901 0.9818 0.1672
vn -0.4452 0.8603 0.2485
vn -0.3476 0.9153 0.2033
vn -0.3905 -0.6555 -0.6464
vn 0.2941 -0.7661 0.5715
vn 0.5905 -0.8010 -0.0985
vn 0.2205 -0.9707 -0.0956
vn 0.1807 -0.9174 0.3546
vn 0.4135 -0.9066 -0.0836
vn 0.1649 -0.9274 -0.3357
vn -0.0034 -0.9765 -0.2153
vn 0.1973 -0.9543 -0.2242
vn -0.2693 -0.9523 -0.1437
vn -0.2548 -0.9472 -0.1945
vn -0.2232 -0.9640 -0.1443
vn 0.1616 -0.9411 0.2970
vn -0.3757 -0.6556 -0.6550
vn -0.3544 0.9333 0.0586
vn -0.0144 0.9700 -0.2426
vn -0.3808 0.8593 0.3416
vn 0.2493 0.8459 -0.4715
vn -0.4773 0.7362 -0.4797
vn -0.0168 0.9462 0.3231
vn -0.1248 0.9881 -0.0897
vn 0.3946 0.9100 -0.1273
vn -0.0331 0.9873 -0.1551
vn 0.1525 0.9879 -0.0281
vn -0.4985 -0.4466 0.7430
vn 0.4295 -0.5564 0.7114
vn 0.9956 0.0927 -0.0148
vn 0.5094 0.5711 -0.6437
vn -0.3672 -0.8351 -0.4097
vn 0.4348 -0.8997 0.0381
vn -0.1018 -0.9580 -0.2680
vn -0.3758 -0.6279 -0.6815
vn -0.7583 0.6016 0.2511
vn 0.1702 0.8654 0.4713
vn -0.0517 0.9276 0.3700
vn 0.6035 0.7866 0.1304
vn -0.5591 -0.3393 0.7565
vn 0.3678 0.0127 0.9298
vn 0.5207 -0.8117 -0.2647
vn 0.4431 0.0594 -0.8945
vn 0.5132 -0.8120 -0.2781
vn 0.9933 0.0148 0.1145
vn 0.5753 -0.3347 0.7463
vn -0.4216 0.5562 0.7162
vn -0.6765 -0.6825 -0.2765
vn -0.7391 0.0447 -0.6721
vn -0.4187 0.6581 -0.6258
vn -0.8115 -0.5762 -0.0979
vn -0.3703 0.5359 0.7587
vn 0.4270 0.5673 0.7042
vn 0.1114 -0.9915 -0.0671
vn 0.5335 -0.3048 -0.7889
vn 0.2613 0.8253 -0.5006
vn 0.5869 0.7650 -0.2651
vn -0.4407 0.8329 0.3348
vn -0.2920 0.9295 -0.2254
vn -0.2656 0.8454 0.4634
vn -0.0866 0.8280 0.5540
vn -0.0628 0.9438 -0.3245
vn 0.1896 0.9643 -0.1850
vn -0.0149 0.9975 -0.0696
vn -0.1420 -0.9354 -0.3238
vn -0.0684 -0.9556 -0.2865
vn -0.0712 -0.9943 0.0795
vn -0.1279 -0.8430 0.5225
vn 0.4242 -0.8779 0.2223
vn -0.1053 -0.9907 -0.0863
vn 0.1962 -0.9065 -0.3738
vn -0.1494 -0.8325 -0.5335
vn -0.1518 -0.8461 0.5109
vn -0.2360 -0.8772 0.4181
vn -0.2165 -0.8769 0.4291
vn -0.2397 -0.9708 -0.0057
vn -0.0550 0.9885 0.1410
vn -0.3171 0.9482 -0.0174
vn -0.1029 0.9835 -0.1485
vn -0.2397 0.7417 0.6265
vn 0.1963 0.9802 0.0245
vn 0.2874 0.9076 0.3060
vn -0.3171 -0.7210 0.6161
vn 0.2958 -0.9086 0.2950
vn -0.0178 -0.9210 -0.3892
vn -0.1319 -0.9568 -0.2591
vn 0.2495 -0.8987 -0.3607
vn 0.3445 -0.9382 -0.0319
vn -0.1780 -0.9839 0.0145
vn 0.0816 -0.9965 -0.0187
vn -0.1402 -0.9260 -0.3504
vn 0.6136 -0.7874 -0.0588
vn 0.2346 -0.9614 -0.1439
vn -0.1543 -0.9422 0.2974
vn -0.0682 0.9692 -0.2365
vn 0.3125 0.8827 0.3509
vn -0.2715 0.8407 -0.4686
vn -0.7623 0.6434 0.0699
vn 0.1614 0.9865 0.0271
vn -0.2810 0.9395 0.1959
vn 0.2884 0.9133 -0.2877
vn 0.0757 0.9966 0.0325
vn 0.0542 0.9792 -0.1957
vt 0.916667 0.750000
vt 0.833333 0.500000
vt 0.916667 0.500000
vt 0.750000 0.750000
vt 0.666667 0.500000
vt 0.750000 0.500000
vt 0.583333 0.750000
vt 0.500000 0.500000
vt 0.583333 0.500000
vt 0.416667 0.750000
vt 0.333333 0.500000
vt 0.416667 0.500000
vt 0.250000 0.490000
vt 0.198038 0.400000
vt 0.301962 0.400000
vt 0.250000 0.750000
vt 0.166667 0.500000
vt 0.250000 0.500000
vt 0.083333 0.750000
vt -0.000000 0.500000
vt 0.083333 0.500000
vt 0.957846 0.370000
vt 0.905885 0.280000
vt 0.853923 0.370000
vt 0.833333 1.000000
vt 0.916667 1.000000
vt 0.666667 1.000000
vt 0.750000 1.000000
vt 0.500000 1.000000
vt 0.583333 1.000000
vt 0.333333 1.000000
vt 0.416667 1.000000
vt 0.457846 0.250000
vt 0.405885 0.220000
vt 0.457846 0.130000
vt 0.146077 0.430000
vt 0.146077 0.070000
vt 0.146077 0.130000
vt 0.042154 0.130000
vt 0.166667 1.000000
vt 0.250000 1.000000
vt -0.000000 1.000000
vt 0.083333 1.000000
vt 0.646077 0.430000
vt 0.646077 0.370000
vt 0.542154 0.370000
vt 0.957846 0.250000
vt 0.646077 0.070000
vt 0.698038 0.100000
vt 0.750000 0.010000
vt 0.542154 0.250000
vt 0.594115 0.280000
vt 0.646077 0.190000
vt 0.594115 0.160000
vt 0.542154 0.130000
vt 0.853923 0.070000
vt 0.801962 0.100000
vt 0.853923 0.190000
vt 0.905885 0.160000
vt 0.957846 0.130000
vt 0.853923 0.430000
vt 0.750000 0.370000
vt 0.750000 0.430000
vt 0.750000 0.490000
vt 0.353923 0.070000
vt 0.353923 0.130000
vt 0.250000 0.130000
vt 0.250000 0.070000
vt 0.250000 0.010000
vt 0.042154 0.250000
vt 0.094115 0.220000
vt 0.146077 0.310000
vt 0.094115 0.340000
vt 0.042154 0.370000
vt 0.353923 0.430000
vt 0.353923 0.310000
vt 0.405885 0.340000
vt 0.457846 0.370000
vt 1.000000 1.000000
vt 0.698038 0.280000
vt 0.801962 0.280000
vt 0.750000 0.190000
vt 0.301962 0.220000
vt 0.250000 0.310000
vt 0.198038 0.220000
vt 1.000000 0.500000
s 0
f 25/1/1 3/2/1 13/3/1
f 26/4/2 5/5/2 15/6/2
f 27/7/3 7/8/3 17/9/3
f 28/10/4 9/11/4 19/12/4
f 2/13/5 38/14/5 43/15/5
f 32/16/6 11/17/6 21/18/6
f 33/19/7 1/20/7 23/21/7
f 3/22/8 41/23/8 46/24/8
f 4/25/9 25/1/9 14/26/9
f 6/27/10 26/4/10 16/28/10
f 8/29/11 27/7/11 18/30/11
f 10/31/12 28/10/12 20/32/12
f 16/33/13 37/34/13 6/35/13
f 24/36/14 38/14/14 2/13/14
f 20/37/15 39/38/15 10/39/15
f 12/40/16 32/16/16 22/41/16
f 2/42/17 33/19/17 24/43/17
f 23/44/18 40/45/18 11/46/18
f 15/47/19 41/23/19 3/22/19
f 19/48/20 42/49/20 7/50/20
f 21/51/21 48/52/21 36/53/21
f 36/53/22 49/54/22 21/51/22
f 9/55/23 49/54/23 19/48/23
f 17/56/24 47/57/24 35/58/24
f 35/58/25 50/59/25 17/56/25
f 5/60/26 50/59/26 15/47/26
f 13/61/27 46/24/27 34/62/27
f 34/62/28 51/63/28 13/61/28
f 1/64/29 51/63/29 23/44/29
f 12/40/30 24/43/30 33/19/30
f 10/31/31 22/41/31 32/16/31
f 18/65/32 45/66/32 31/67/32
f 31/67/33 52/68/33 18/65/33
f 8/69/34 52/68/34 20/37/34
f 22/70/35 44/71/35 30/72/35
f 30/72/36 53/73/36 22/70/36
f 12/74/37 53/73/37 24/36/37
f 14/75/38 43/15/38 29/76/38
f 29/76/39 54/77/39 14/75/39
f 4/78/40 54/77/40 16/33/40
f 8/29/41 20/32/41 28/10/41
f 6/27/42 18/30/42 27/7/42
f 4/25/43 16/28/43 26/4/43
f 2/79/44 14/26/44 25/1/44
f 34/62/45 55/80/45 40/45/45
f 34/62/46 56/81/46 55/80/46
f 35/58/47 47/57/47 57/82/47
f 33/19/48 11/17/48 12/40/48
f 32/16/49 9/11/49 10/31/49
f 29/76/50 58/83/50 37/34/50
f 29/76/51 59/84/51 58/83/51
f 30/72/52 44/71/52 60/85/52
f 28/10/53 7/8/53 8/29/53
f 27/7/54 5/5/54 6/27/54
f 26/4/55 3/2/55 4/25/55
f 25/1/56 1/86/56 2/79/56
f 4/25/57 3/2/57 25/1/57
f 6/27/58 5/5/58 26/4/58
f 8/29/59 7/8/59 27/7/59
f 10/31/60 9/11/60 28/10/60
f 12/40/61 11/17/61 32/16/61
f 2/42/62 1/20/62 33/19/62
f 33/19/63 23/21/63 11/17/63
f 32/16/64 21/18/64 9/11/64
f 28/10/65 19/12/65 7/8/65
f 27/7/66 17/9/66 5/5/66
f 26/4/67 15/6/67 3/2/67
f 25/1/68 13/3/68 1/86/68
f 60/85/69 39/38/69 31/67/69
f 60/85/70 44/71/70 39/38/70
f 44/71/71 10/39/71 39/38/71
f 58/83/72 60/85/72 31/67/72
f 58/83/73 59/84/73 60/85/73
f 59/84/74 30/72/74 60/85/74
f 37/34/75 45/66/75 6/35/75
f 37/34/76 58/83/76 45/66/76
f 58/83/77 31/67/77 45/66/77
f 57/82/78 42/49/78 36/53/78
f 57/82/79 47/57/79 42/49/79
f 47/57/80 7/50/80 42/49/80
f 55/80/81 57/82/81 36/53/81
f 55/80/82 56/81/82 57/82/82
f 56/81/83 35/58/83 57/82/83
f 40/45/84 48/52/84 11/46/84
f 40/45/85 55/80/85 48/52/85
f 55/80/86 36/53/86 48/52/86
f 46/24/87 56/81/87 34/62/87
f 46/24/88 41/23/88 56/81/88
f 41/23/89 35/58/89 56/81/89
f 43/15/90 59/84/90 29/76/90
f 43/15/91 38/14/91 59/84/91
f 38/14/92 30/72/92 59/84/92
f 16/33/93 29/76/93 37/34/93
f 24/36/94 30/72/94 38/14/94
f 20/37/95 31/67/95 39/38/95
f 23/44/96 34/62/96 40/45/96
f 15/47/97 35/58/97 41/23/97
f 19/48/98 36/53/98 42/49/98
f 21/51/99 11/46/99 48/52/99
f 36/53/100 19/48/100 49/54/100
f 9/55/101 21/51/101 49/54/101
f 17/56/102 7/50/102 47/57/102
f 35/58/103 15/47/103 50/59/103
f 5/60/104 17/56/104 50/59/104
f 13/61/105 3/22/105 46/24/105
f 34/62/106 23/44/106 51/63/106
f 1/64/107 13/61/107 51/63/107
f 18/65/108 6/35/108 45/66/108
f 31/67/109 20/37/109 52/68/109
f 8/69/110 18/65/110 52/68/110
f 22/70/111 10/39/111 44/71/111
f 30/72/112 24/36/112 53/73/112
f 12/74/113 22/70/113 53/73/113
f 14/75/114 2/13/114 43/15/114
f 29/76/115 16/33/115 54/77/115
f 4/78/116 14/75/116 54/77/116
