# Blender 4.3.0
# www.blender.org
o Cylinder
v 0.000000 -3.409571 -26.181561
v 0.000000 1.330418 -23.480692
v 22.585705 -3.331186 -13.039863
v 23.230484 3.904319 -13.412127
v 22.262091 -3.043519 12.853024
v 24.044346 4.627778 13.882010
v 0.000000 -1.221314 23.338964
v 0.000000 1.409145 23.582947
v -20.369246 -1.360981 11.760190
v -23.255199 3.926303 13.426396
v -23.872478 -4.475004 -13.782783
v -22.161520 2.954122 -12.794959
v 11.941726 -4.732793 -20.683676
v 10.660223 2.169814 -18.464048
v 22.574287 -3.423644 0.000000
v 22.881416 3.730769 0.000000
v 11.134686 -3.118730 19.285841
v 11.253272 3.355901 19.491240
v -10.502528 1.854428 18.190912
v -21.287067 -2.136436 0.000000
v -23.289455 4.138804 0.000000
v -11.951064 -4.751470 -20.699850
v -11.575508 4.000364 -20.049368
v 12.454509 0.000000 -21.571842
v 25.867039 0.000000 0.000000
v 11.422370 0.000000 19.784126
v -9.870909 0.000000 17.096914
v 10.825317 4.315062 -6.250000
v -10.825317 4.532651 -6.250000
v 0.000000 5.571584 12.500000
v -22.845739 0.000000 0.000000
v -11.575734 0.000000 -20.049759
v 0.000000 1.008063 -12.500000
v 10.825317 0.300885 6.250000
v -10.825317 -2.375547 6.250000
v 16.237976 4.209438 3.125000
v -5.412659 2.776483 -15.625000
v -10.825317 -1.751415 12.500000
v -10.825317 -1.261028 -12.500000
v 16.237976 0.158267 -3.125000
v -5.412659 0.321376 15.625000
v 5.412659 1.036093 -15.625000
v -16.237976 0.730166 3.125000
v 10.825317 -1.607922 12.500000
v 10.825317 -6.807665 -12.500000
v 5.412659 -3.614413 15.625000
v -16.237976 -3.797554 -3.125000
v -16.237976 -1.717642 9.375000
v 16.237976 0.636082 9.375000
v 0.000000 0.049901 -18.750000
v 0.000000 4.699811 18.750000
v -16.237976 1.221222 -9.375000
v 16.237976 3.043385 -9.375000
v -5.412659 -6.529578 -3.125000
v 5.412659 -2.103605 -3.125000
v 0.000000 -6.100486 6.250000
v 5.412659 4.105480 3.125000
v 0.000000 -0.818044 -6.250000
v -5.412659 0.237513 3.125000
vn 0.5884 -0.2103 -0.7808
vn 0.7202 -0.6927 0.0380
vn 0.3097 -0.1778 0.9341
vn 0.1583 0.9847 -0.0722
vn -0.7834 -0.5716 0.2439
vn -0.4262 0.1556 -0.8911
vn 0.2701 -0.8409 0.4689
vn 0.0974 0.8416 -0.5313
vn 0.7764 0.6214 -0.1052
vn 0.3250 0.0985 0.9406
vn -0.3680 -0.5622 0.7406
vn 0.0400 0.9969 -0.0678
vn 0.2160 0.9759 -0.0309
vn 0.3227 0.7912 -0.5196
vn -0.9913 -0.1063 -0.0775
vn -0.2842 0.0001 -0.9588
vn 0.1892 -0.9126 0.3625
vn -0.4896 -0.8719 -0.0066
vn 0.0048 -0.9799 -0.1994
vn -0.1657 -0.9564 0.2407
vn -0.0726 -0.9939 0.0835
vn 0.0280 -0.9804 0.1950
vn 0.2421 -0.9371 -0.2516
vn 0.2046 -0.9456 -0.2529
vn -0.5264 -0.8501 0.0124
vn -0.5629 -0.7796 -0.2745
vn -0.3481 -0.9266 0.1421
vn 0.2833 -0.8695 0.4047
vn -0.5653 0.0001 -0.8249
vn -0.9943 -0.1066 0.0008
vn 0.4686 0.7065 -0.5303
vn 0.1085 0.9846 0.1373
vn -0.2461 0.8012 0.5455
vn 0.2077 0.8589 0.4682
vn -0.2565 0.8512 -0.4578
vn 0.1079 0.9496 0.2943
vn -0.2912 0.9429 -0.1617
vn 0.1294 0.9763 -0.1732
vn -0.1166 0.9931 0.0098
vn -0.3963 -0.5629 0.7254
vn 0.3913 0.0996 0.9149
vn 0.7805 0.6246 0.0284
vn 0.1672 0.8511 -0.4977
vn 0.1706 -0.8137 -0.5557
vn 0.3350 -0.8193 -0.4653
vn 0.5079 -0.8589 -0.0655
vn -0.5066 0.2273 -0.8317
vn -0.8546 -0.5048 0.1216
vn -0.0096 0.9998 0.0168
vn -0.4178 0.8811 -0.2215
vn 0.0417 0.9172 0.3961
vn -0.5397 -0.0778 0.8383
vn 0.4792 -0.2251 0.8483
vn 0.9707 -0.0978 -0.2193
vn 0.1829 0.4867 -0.8542
vn 0.6227 -0.0954 -0.7766
vn 0.9465 -0.2476 0.2068
vn 0.3046 -0.0880 0.9484
vn -0.3568 -0.4523 0.8173
vn -0.9745 0.2245 -0.0003
vn -0.2999 0.4723 -0.8288
vn -0.4930 0.1560 -0.8559
vn -0.8037 -0.5863 0.1014
vn 0.4931 -0.1814 0.8508
vn 0.7207 -0.6932 -0.0043
vn 0.3895 -0.2105 -0.8967
vn -0.5543 0.8194 -0.1462
vn 0.0442 0.9718 0.2317
vn 0.4155 0.9096 0.0009
vn -0.3184 0.8912 -0.3232
vn -0.3223 0.9019 -0.2876
vn 0.4379 0.8859 0.1531
vn -0.4333 0.8563 0.2812
vn -0.0082 0.8518 0.5238
vn 0.5431 0.8189 0.1855
vn -0.2956 -0.8591 0.4178
vn -0.3120 -0.8582 0.4077
vn -0.3412 -0.9386 0.0517
vn -0.3170 -0.9213 0.2252
vn 0.3727 -0.9116 -0.1735
vn 0.5076 -0.8585 -0.0729
vn 0.2484 -0.9616 -0.1168
vn -0.2269 -0.8991 -0.3743
vn -0.2351 -0.9316 0.2771
vn -0.5840 -0.8089 0.0687
vn 0.1747 -0.8359 0.5203
vn 0.2027 -0.9703 0.1318
vn -0.4274 0.9014 -0.0685
vn 0.1526 0.9490 0.2758
vn 0.4414 0.8930 0.0876
vn 0.0607 0.9979 -0.0238
vn 0.2289 0.9722 -0.0499
vn -0.5025 0.7429 -0.4422
vn 0.1912 -0.9123 0.3621
vn -0.3976 -0.8918 -0.2160
vn 0.1361 -0.9702 0.2005
vn -0.1928 -0.9608 0.1992
vn 0.0046 -0.9769 0.2136
vn -0.0460 -0.9965 0.0693
vn -0.0746 -0.9660 0.2474
vn -0.1270 -0.9386 0.3206
vn -0.2576 -0.8522 -0.4555
vn 0.2691 -0.9417 -0.2020
vn 0.3490 -0.9263 0.1420
vn -0.2827 -0.8696 0.4048
vn -0.3133 0.7833 -0.5369
vn -0.2658 0.9548 0.1332
vn 0.0615 0.8250 0.5617
vn 0.4304 0.9025 0.0132
vn -0.5199 0.8542 -0.0047
vn 0.3122 0.9481 -0.0603
vn -0.1399 0.9812 0.1332
vn 0.1335 0.9770 -0.1663
vn -0.1307 0.9913 -0.0150
vt 0.916667 0.750000
vt 0.833333 0.500000
vt 0.916667 0.500000
vt 0.750000 0.750000
vt 0.666667 0.500000
vt 0.750000 0.500000
vt 0.583333 0.750000
vt 0.500000 0.500000
vt 0.583333 0.500000
vt 0.250000 0.490000
vt 0.198038 0.400000
vt 0.301962 0.400000
vt 0.250000 0.750000
vt 0.166667 0.500000
vt 0.250000 0.500000
vt 0.083333 0.750000
vt -0.000000 0.500000
vt 0.083333 0.500000
vt 0.957846 0.370000
vt 0.905885 0.280000
vt 0.853923 0.370000
vt 0.833333 1.000000
vt 0.916667 1.000000
vt 0.666667 1.000000
vt 0.750000 1.000000
vt 0.500000 1.000000
vt 0.583333 1.000000
vt 0.333333 1.000000
vt 0.416667 0.750000
vt 0.416667 1.000000
vt 0.457846 0.250000
vt 0.405885 0.220000
vt 0.457846 0.130000
vt 0.146077 0.430000
vt 0.146077 0.070000
vt 0.146077 0.130000
vt 0.042154 0.130000
vt 0.166667 1.000000
vt 0.250000 1.000000
vt -0.000000 1.000000
vt 0.083333 1.000000
vt 0.646077 0.430000
vt 0.646077 0.370000
vt 0.542154 0.370000
vt 0.957846 0.250000
vt 0.646077 0.070000
vt 0.698038 0.100000
vt 0.750000 0.010000
vt 0.542154 0.250000
vt 0.594115 0.280000
vt 0.646077 0.190000
vt 0.594115 0.160000
vt 0.542154 0.130000
vt 0.853923 0.070000
vt 0.801962 0.100000
vt 0.853923 0.190000
vt 0.905885 0.160000
vt 0.957846 0.130000
vt 0.853923 0.430000
vt 0.750000 0.370000
vt 0.750000 0.430000
vt 0.750000 0.490000
vt 0.353923 0.070000
vt 0.353923 0.130000
vt 0.250000 0.130000
vt 0.250000 0.070000
vt 0.250000 0.010000
vt 0.042154 0.250000
vt 0.094115 0.220000
vt 0.146077 0.310000
vt 0.094115 0.340000
vt 0.042154 0.370000
vt 0.353923 0.430000
vt 0.353923 0.310000
vt 0.405885 0.340000
vt 0.457846 0.370000
vt 1.000000 1.000000
vt 0.698038 0.280000
vt 0.801962 0.280000
vt 0.750000 0.190000
vt 0.333333 0.500000
vt 0.301962 0.220000
vt 0.250000 0.310000
vt 0.198038 0.220000
vt 1.000000 0.500000
s 0
f 24/1/1 3/2/1 13/3/1
f 25/4/2 5/5/2 15/6/2
f 26/7/3 7/8/3 17/9/3
f 2/10/4 37/11/4 42/12/4
f 31/13/5 11/14/5 20/15/5
f 32/16/6 1/17/6 22/18/6
f 3/19/7 40/20/7 45/21/7
f 4/22/8 24/1/8 14/23/8
f 6/24/9 25/4/9 16/25/9
f 8/26/10 26/7/10 18/27/10
f 10/28/11 27/29/11 19/30/11
f 16/31/12 36/32/12 6/33/12
f 23/34/13 37/11/13 2/10/13
f 19/35/14 38/36/14 10/37/14
f 12/38/15 31/13/15 21/39/15
f 2/40/16 32/16/16 23/41/16
f 22/42/17 39/43/17 11/44/17
f 15/45/18 40/20/18 3/19/18
f 27/46/19 41/47/19 7/48/19
f 20/49/20 47/50/20 35/51/20
f 35/51/21 48/52/21 20/49/21
f 9/53/22 48/52/22 27/46/22
f 17/54/23 46/55/23 34/56/23
f 34/56/24 49/57/24 17/54/24
f 5/58/25 49/57/25 15/45/25
f 13/59/26 45/21/26 33/60/26
f 33/60/27 50/61/27 13/59/27
f 1/62/28 50/61/28 22/42/28
f 12/38/29 23/41/29 32/16/29
f 10/28/30 21/39/30 31/13/30
f 18/63/31 44/64/31 30/65/31
f 30/65/32 51/66/32 18/63/32
f 8/67/33 51/66/33 19/35/33
f 21/68/34 43/69/34 29/70/34
f 29/70/35 52/71/35 21/68/35
f 12/72/36 52/71/36 23/34/36
f 14/73/37 42/12/37 28/74/37
f 28/74/38 53/75/38 14/73/38
f 4/76/39 53/75/39 16/31/39
f 8/26/40 19/30/40 27/29/40
f 6/24/41 18/27/41 26/7/41
f 4/22/42 16/25/42 25/4/42
f 2/77/43 14/23/43 24/1/43
f 33/60/44 54/78/44 39/43/44
f 33/60/45 55/79/45 54/78/45
f 34/56/46 46/55/46 56/80/46
f 32/16/47 11/14/47 12/38/47
f 31/13/48 9/81/48 10/28/48
f 28/74/49 57/82/49 36/32/49
f 28/74/50 58/83/50 57/82/50
f 29/70/51 43/69/51 59/84/51
f 27/29/52 7/8/52 8/26/52
f 26/7/53 5/5/53 6/24/53
f 25/4/54 3/2/54 4/22/54
f 24/1/55 1/85/55 2/77/55
f 4/22/56 3/2/56 24/1/56
f 6/24/57 5/5/57 25/4/57
f 8/26/58 7/8/58 26/7/58
f 10/28/59 9/81/59 27/29/59
f 12/38/60 11/14/60 31/13/60
f 2/40/61 1/17/61 32/16/61
f 32/16/62 22/18/62 11/14/62
f 31/13/63 20/15/63 9/81/63
f 26/7/64 17/9/64 5/5/64
f 25/4/65 15/6/65 3/2/65
f 24/1/66 13/3/66 1/85/66
f 59/84/67 38/36/67 30/65/67
f 59/84/68 43/69/68 38/36/68
f 43/69/69 10/37/69 38/36/69
f 57/82/70 59/84/70 30/65/70
f 57/82/71 58/83/71 59/84/71
f 58/83/72 29/70/72 59/84/72
f 36/32/73 44/64/73 6/33/73
f 36/32/74 57/82/74 44/64/74
f 57/82/75 30/65/75 44/64/75
f 56/80/76 41/47/76 35/51/76
f 56/80/77 46/55/77 41/47/77
f 46/55/78 7/48/78 41/47/78
f 54/78/79 56/80/79 35/51/79
f 54/78/80 55/79/80 56/80/80
f 55/79/81 34/56/81 56/80/81
f 39/43/82 47/50/82 11/44/82
f 39/43/83 54/78/83 47/50/83
f 54/78/84 35/51/84 47/50/84
f 45/21/85 55/79/85 33/60/85
f 45/21/86 40/20/86 55/79/86
f 40/20/87 34/56/87 55/79/87
f 42/12/88 58/83/88 28/74/88
f 42/12/89 37/11/89 58/83/89
f 37/11/90 29/70/90 58/83/90
f 16/31/91 28/74/91 36/32/91
f 23/34/92 29/70/92 37/11/92
f 19/35/93 30/65/93 38/36/93
f 22/42/94 33/60/94 39/43/94
f 15/45/95 34/56/95 40/20/95
f 27/46/96 35/51/96 41/47/96
f 20/49/97 11/44/97 47/50/97
f 35/51/98 27/46/98 48/52/98
f 9/53/99 20/49/99 48/52/99
f 17/54/100 7/48/100 46/55/100
f 34/56/101 15/45/101 49/57/101
f 5/58/102 17/54/102 49/57/102
f 13/59/103 3/19/103 45/21/103
f 33/60/104 22/42/104 50/61/104
f 1/62/105 13/59/105 50/61/105
f 18/63/106 6/33/106 44/64/106
f 30/65/107 19/35/107 51/66/107
f 8/67/108 18/63/108 51/66/108
f 21/68/109 10/37/109 43/69/109
f 29/70/110 23/34/110 52/71/110
f 12/72/111 21/68/111 52/71/111
f 14/73/112 2/10/112 42/12/112
f 28/74/113 16/31/113 53/75/113
f 4/76/114 14/73/114 53/75/114
