# Blender 4.3.0
# www.blender.org
o Cylinder
v 0.000000 -0.917638 -22.944464
v 0.000000 4.221332 -27.236040
v 21.695141 -2.539561 -12.525696
v 22.013985 2.822979 -12.709780
v 24.047405 -4.630476 13.883777
v 19.596485 0.674061 11.314036
v 0.000000 -2.716309 25.280989
v 0.000000 4.473951 27.564222
v -20.651609 -1.611971 11.923212
v -20.661856 1.621071 11.929128
v -22.622744 -3.364110 -13.061247
v -20.457205 1.439166 -11.810972
v 10.777113 -2.403592 -18.666508
v 9.333342 -0.483920 -16.165821
v 23.819143 -4.668485 0.000000
v 20.951649 1.801022 0.000000
v 11.626836 -4.103020 20.138271
v 11.608996 4.067341 20.107372
v -12.048975 -4.947289 20.869438
v -9.835582 0.520549 17.035727
v -21.705536 -2.554901 0.000000
v -19.041317 -0.109291 0.000000
v -9.847568 -0.544522 -17.056488
v -11.861290 4.571923 -20.544357
v 23.169298 0.000000 0.000000
v 13.056756 0.000000 22.614965
v -10.440879 0.000000 18.084133
v 10.825317 2.904454 -6.250000
v -10.825317 6.095876 -6.250000
v 0.000000 6.403695 12.500000
v -25.370245 0.000000 0.000000
v -10.281492 0.000000 -17.808067
v 0.000000 -3.032899 -12.500000
v 10.825317 -1.368432 6.250000
v -10.825317 -5.752671 6.250000
v 16.237976 5.211193 3.125000
v -5.412659 -1.419827 -15.625000
v -10.825317 0.881074 12.500000
v -10.825317 -2.211465 -12.500000
v 16.237976 -1.207329 -3.125000
v -5.412659 -2.674630 15.625000
v 5.412659 2.452157 -15.625000
v -16.237976 -1.394844 3.125000
v 10.825317 5.329470 12.500000
v 10.825317 -6.532208 -12.500000
v 5.412659 -0.490111 15.625000
v -16.237976 -0.642331 -3.125000
v -16.237976 -4.894933 9.375000
v 16.237976 -5.862611 9.375000
v 0.000000 -4.293642 -18.750000
v 0.000000 -0.811581 18.750000
v -16.237976 1.761275 -9.375000
v 16.237976 2.916387 -9.375000
v -5.412659 -5.333570 -3.125000
v 5.412659 -4.380230 -3.125000
v 0.000000 -2.840076 6.250000
v 5.412659 3.280180 3.125000
v 0.000000 1.562219 -6.250000
v -5.412659 4.445131 3.125000
vn 0.2792 0.8328 -0.4781
vn 0.9903 0.1378 -0.0167
vn 0.2763 -0.5654 0.7772
vn -0.4950 0.5429 0.6784
vn -0.3225 0.9018 0.2878
vn -0.5695 -0.8169 0.0906
vn -0.2964 -0.8465 -0.4422
vn 0.3277 -0.8902 0.3164
vn 0.6232 0.7673 0.1511
vn 0.4549 0.5790 0.6766
vn -0.0950 0.9124 0.3981
vn 0.6434 0.7503 0.1518
vn 0.3228 0.7834 0.5311
vn 0.0712 0.9954 0.0636
vn 0.0171 0.9916 0.1280
vn -0.4169 -0.5685 -0.7092
vn 0.1072 -0.9409 -0.3212
vn -0.3821 -0.9196 -0.0915
vn 0.2268 -0.9651 -0.1313
vn 0.0251 -0.8716 -0.4896
vn -0.2193 -0.9690 -0.1139
vn -0.5159 -0.8366 0.1842
vn -0.4112 -0.8986 -0.1532
vn -0.5910 -0.7972 -0.1229
vn 0.1558 -0.9878 0.0001
vn -0.2597 -0.8034 -0.5359
vn 0.1680 -0.9663 0.1949
vn -0.3749 -0.7222 -0.5813
vn -0.4763 -0.5669 -0.6722
vn 0.0171 0.9898 -0.1413
vn 0.0976 0.9834 0.1531
vn -0.3417 0.6153 0.7104
vn 0.2016 0.8400 -0.5037
vn -0.2155 0.8198 0.5306
vn -0.6154 0.7878 -0.0268
vn -0.1751 0.9688 0.1752
vn 0.5319 0.7736 -0.3444
vn -0.1725 0.9397 -0.2952
vn 0.0654 0.9942 0.0854
vn -0.4948 0.8576 0.1402
vn 0.7188 0.5319 0.4477
vn 0.6263 0.7712 0.1144
vn -0.0727 -0.9581 -0.2771
vn 0.0861 -0.9779 -0.1903
vn 0.1328 -0.9768 0.1682
vn -0.4221 0.4018 -0.8126
vn -0.9300 -0.0036 0.3676
vn -0.1739 0.9748 -0.1395
vn -0.1223 0.9864 -0.1101
vn -0.4363 0.8088 0.3943
vn -0.5926 -0.2438 0.7677
vn 0.6032 0.6954 0.3906
vn 0.9926 -0.0626 -0.1041
vn 0.5064 -0.5527 -0.6619
vn 0.2746 -0.0493 -0.9603
vn 0.7077 0.6824 0.1828
vn 0.2494 -0.2931 0.9230
vn -0.5162 -0.0032 0.8564
vn -0.8403 0.4554 -0.2941
vn -0.4032 -0.5866 -0.7024
vn -0.0040 -0.8109 -0.5852
vn -0.5681 -0.8149 0.1147
vn -0.3754 0.5444 0.7501
vn 0.3499 -0.5705 0.7430
vn 0.9803 0.1365 -0.1430
vn 0.2998 0.8325 -0.4660
vn -0.4531 0.8882 0.0761
vn -0.4739 0.8785 0.0604
vn 0.0883 0.9551 -0.2828
vn 0.1033 0.9600 -0.2602
vn 0.1039 0.9659 -0.2370
vn 0.3856 0.9207 -0.0605
vn 0.4797 0.8360 0.2664
vn -0.1745 0.9781 -0.1131
vn 0.0952 0.9596 -0.2647
vn 0.2563 -0.9525 0.1648
vn 0.1961 -0.9719 0.1304
vn 0.1965 -0.9738 -0.1144
vn 0.2583 -0.9602 0.1062
vn 0.0858 -0.9740 0.2095
vn 0.1310 -0.9634 0.2339
vn 0.0850 -0.9736 0.2120
vn -0.3965 -0.9149 -0.0758
vn -0.3838 -0.8857 -0.2612
vn -0.3073 -0.9507 0.0408
vn 0.2627 -0.8962 0.3574
vn 0.2783 -0.9496 0.1444
vn -0.1230 0.9921 0.0232
vn -0.3349 0.9364 -0.1045
vn 0.3432 0.8195 -0.4588
vn 0.3431 0.8468 -0.4065
vn 0.7248 0.6776 -0.1248
vn -0.4480 0.8782 0.1676
vn -0.0707 -0.9318 -0.3561
vn -0.3338 -0.9193 -0.2085
vn 0.3807 -0.9210 0.0826
vn 0.3471 -0.9372 0.0337
vn -0.1318 -0.9903 0.0435
vn -0.5497 -0.8275 0.1140
vn -0.2639 -0.8970 -0.3547
vn -0.4127 -0.7999 -0.4356
vn 0.0499 -0.9820 0.1819
vn 0.2904 -0.7941 -0.5339
vn -0.3212 -0.9283 0.1873
vn 0.1401 -0.7713 -0.6208
vn 0.4767 0.8738 0.0959
vn -0.0430 0.6541 0.7552
vn -0.2876 0.8214 -0.4926
vn 0.4733 0.8786 -0.0631
vn -0.6104 0.7911 -0.0401
vn -0.1595 0.9762 0.1471
vn 0.5796 0.8013 -0.1481
vn 0.0512 0.9944 0.0925
vn -0.1614 0.9383 -0.3058
vt 0.916667 0.750000
vt 0.833333 0.500000
vt 0.916667 0.500000
vt 0.750000 0.750000
vt 0.666667 0.500000
vt 0.750000 0.500000
vt 0.583333 0.750000
vt 0.500000 0.500000
vt 0.583333 0.500000
vt 0.416667 0.750000
vt 0.333333 0.500000
vt 0.416667 0.500000
vt 0.250000 0.490000
vt 0.198038 0.400000
vt 0.301962 0.400000
vt 0.250000 0.750000
vt 0.166667 0.500000
vt 0.250000 0.500000
vt 0.083333 0.750000
vt -0.000000 0.500000
vt 0.083333 0.500000
vt 0.957846 0.370000
vt 0.905885 0.280000
vt 0.853923 0.370000
vt 0.666667 1.000000
vt 0.750000 1.000000
vt 0.500000 1.000000
vt 0.583333 1.000000
vt 0.333333 1.000000
vt 0.416667 1.000000
vt 0.457846 0.250000
vt 0.405885 0.220000
vt 0.457846 0.130000
vt 0.146077 0.430000
vt 0.146077 0.070000
vt 0.146077 0.130000
vt 0.042154 0.130000
vt 0.166667 1.000000
vt 0.250000 1.000000
vt -0.000000 1.000000
vt 0.083333 1.000000
vt 0.646077 0.430000
vt 0.646077 0.370000
vt 0.542154 0.370000
vt 0.957846 0.250000
vt 0.646077 0.070000
vt 0.698038 0.100000
vt 0.750000 0.010000
vt 0.542154 0.250000
vt 0.594115 0.280000
vt 0.646077 0.190000
vt 0.594115 0.160000
vt 0.542154 0.130000
vt 0.853923 0.070000
vt 0.801962 0.100000
vt 0.853923 0.190000
vt 0.905885 0.160000
vt 0.957846 0.130000
vt 0.853923 0.430000
vt 0.750000 0.370000
vt 0.750000 0.430000
vt 0.750000 0.490000
vt 0.353923 0.070000
vt 0.353923 0.130000
vt 0.250000 0.130000
vt 0.250000 0.070000
vt 0.250000 0.010000
vt 0.042154 0.250000
vt 0.094115 0.220000
vt 0.146077 0.310000
vt 0.094115 0.340000
vt 0.042154 0.370000
vt 0.353923 0.430000
vt 0.353923 0.310000
vt 0.405885 0.340000
vt 0.457846 0.370000
vt 0.833333 1.000000
vt 0.698038 0.280000
vt 0.801962 0.280000
vt 0.750000 0.190000
vt 0.301962 0.220000
vt 0.250000 0.310000
vt 0.198038 0.220000
vt 1.000000 0.500000
vt 1.000000 1.000000
s 0
f 14/1/1 3/2/1 13/3/1
f 25/4/2 5/5/2 15/6/2
f 26/7/3 7/8/3 17/9/3
f 27/10/4 9/11/4 19/12/4
f 2/13/5 37/14/5 42/15/5
f 31/16/6 11/17/6 21/18/6
f 32/19/7 1/20/7 23/21/7
f 3/22/8 40/23/8 45/24/8
f 6/25/9 25/4/9 16/26/9
f 8/27/10 26/7/10 18/28/10
f 10/29/11 27/10/11 20/30/11
f 16/31/12 36/32/12 6/33/12
f 24/34/13 37/14/13 2/13/13
f 20/35/14 38/36/14 10/37/14
f 12/38/15 31/16/15 22/39/15
f 2/40/16 32/19/16 24/41/16
f 23/42/17 39/43/17 11/44/17
f 15/45/18 40/23/18 3/22/18
f 19/46/19 41/47/19 7/48/19
f 21/49/20 47/50/20 35/51/20
f 35/51/21 48/52/21 21/49/21
f 9/53/22 48/52/22 19/46/22
f 17/54/23 46/55/23 34/56/23
f 34/56/24 49/57/24 17/54/24
f 5/58/25 49/57/25 15/45/25
f 13/59/26 45/24/26 33/60/26
f 33/60/27 50/61/27 13/59/27
f 1/62/28 50/61/28 23/42/28
f 12/38/29 24/41/29 32/19/29
f 10/29/30 22/39/30 31/16/30
f 18/63/31 44/64/31 30/65/31
f 30/65/32 51/66/32 18/63/32
f 8/67/33 51/66/33 20/35/33
f 22/68/34 43/69/34 29/70/34
f 29/70/35 52/71/35 22/68/35
f 12/72/36 52/71/36 24/34/36
f 14/73/37 42/15/37 28/74/37
f 28/74/38 53/75/38 14/73/38
f 4/76/39 53/75/39 16/31/39
f 8/27/40 20/30/40 27/10/40
f 6/25/41 18/28/41 26/7/41
f 4/77/42 16/26/42 25/4/42
f 33/60/43 54/78/43 39/43/43
f 33/60/44 55/79/44 54/78/44
f 34/56/45 46/55/45 56/80/45
f 32/19/46 11/17/46 12/38/46
f 31/16/47 9/11/47 10/29/47
f 28/74/48 57/81/48 36/32/48
f 28/74/49 58/82/49 57/81/49
f 29/70/50 43/69/50 59/83/50
f 27/10/51 7/8/51 8/27/51
f 26/7/52 5/5/52 6/25/52
f 25/4/53 3/2/53 4/77/53
f 14/1/54 1/84/54 2/85/54
f 4/77/55 3/2/55 14/1/55
f 6/25/56 5/5/56 25/4/56
f 8/27/57 7/8/57 26/7/57
f 10/29/58 9/11/58 27/10/58
f 12/38/59 11/17/59 31/16/59
f 2/40/60 1/20/60 32/19/60
f 32/19/61 23/21/61 11/17/61
f 31/16/62 21/18/62 9/11/62
f 27/10/63 19/12/63 7/8/63
f 26/7/64 17/9/64 5/5/64
f 25/4/65 15/6/65 3/2/65
f 14/1/66 13/3/66 1/84/66
f 59/83/67 38/36/67 30/65/67
f 59/83/68 43/69/68 38/36/68
f 43/69/69 10/37/69 38/36/69
f 57/81/70 59/83/70 30/65/70
f 57/81/71 58/82/71 59/83/71
f 58/82/72 29/70/72 59/83/72
f 36/32/73 44/64/73 6/33/73
f 36/32/74 57/81/74 44/64/74
f 57/81/75 30/65/75 44/64/75
f 56/80/76 41/47/76 35/51/76
f 56/80/77 46/55/77 41/47/77
f 46/55/78 7/48/78 41/47/78
f 54/78/79 56/80/79 35/51/79
f 54/78/80 55/79/80 56/80/80
f 55/79/81 34/56/81 56/80/81
f 39/43/82 47/50/82 11/44/82
f 39/43/83 54/78/83 47/50/83
f 54/78/84 35/51/84 47/50/84
f 45/24/85 55/79/85 33/60/85
f 45/24/86 40/23/86 55/79/86
f 40/23/87 34/56/87 55/79/87
f 42/15/88 58/82/88 28/74/88
f 42/15/89 37/14/89 58/82/89
f 37/14/90 29/70/90 58/82/90
f 16/31/91 28/74/91 36/32/91
f 24/34/92 29/70/92 37/14/92
f 20/35/93 30/65/93 38/36/93
f 23/42/94 33/60/94 39/43/94
f 15/45/95 34/56/95 40/23/95
f 19/46/96 35/51/96 41/47/96
f 21/49/97 11/44/97 47/50/97
f 35/51/98 19/46/98 48/52/98
f 9/53/99 21/49/99 48/52/99
f 17/54/100 7/48/100 46/55/100
f 34/56/101 15/45/101 49/57/101
f 5/58/102 17/54/102 49/57/102
f 13/59/103 3/22/103 45/24/103
f 33/60/104 23/42/104 50/61/104
f 1/62/105 13/59/105 50/61/105
f 18/63/106 6/33/106 44/64/106
f 30/65/107 20/35/107 51/66/107
f 8/67/108 18/63/108 51/66/108
f 22/68/109 10/37/109 43/69/109
f 29/70/110 24/34/110 52/71/110
f 12/72/111 22/68/111 52/71/111
f 14/73/112 2/13/112 42/15/112
f 28/74/113 16/31/113 53/75/113
f 4/76/114 14/73/114 53/75/114
