# Blender 4.3.0
# www.blender.org
o Cylinder
v 0.000000 -5.139401 -28.428661
v 0.000000 0.361513 -22.222067
v 20.815660 -1.757788 -12.017927
v 21.193344 2.093516 -12.235983
v 21.180775 -2.082344 12.228726
v 19.566494 0.647401 11.296721
v 0.000000 -0.664366 22.615480
v 0.000000 3.379596 26.142622
v -19.756523 -0.816334 11.406433
v -22.240242 3.024103 12.840409
v -20.022202 -1.052482 -11.559824
v -19.918306 0.960143 -11.499840
v 9.968328 -0.786040 -17.265652
v 10.296426 1.442228 -17.833933
v 21.285925 -2.135294 0.000000
v 19.507196 0.356584 0.000000
v 12.014321 -4.877983 20.809416
v 10.854387 2.558138 18.800350
v -9.448536 -0.253534 16.365345
v -18.827513 0.323092 0.000000
v -20.188789 1.038170 0.000000
v -11.244781 -3.338917 -19.476530
v -11.166454 3.182267 -19.340866
v 8.610591 0.000000 -14.913980
v 25.407480 0.000000 0.000000
v 12.625162 0.000000 21.867424
v 10.825317 -0.379591 -6.250000
v -10.825317 6.296177 -6.250000
v 0.000000 0.277526 12.500000
v -22.121891 0.000000 0.000000
v -9.867326 0.000000 -17.090710
v 0.000000 -5.980960 -12.500000
v 10.825317 -6.535100 6.250000
v -10.825317 0.102803 6.250000
v 16.237976 -1.293589 3.125000
v -5.412659 0.531443 -15.625000
v -10.825317 4.787165 12.500000
v -10.825317 -0.677518 -12.500000
v 16.237976 -2.863549 -3.125000
v -5.412659 -0.357144 15.625000
v 5.412659 2.579684 -15.625000
v -16.237976 -1.356431 3.125000
v 10.825317 5.453407 12.500000
v 10.825317 -0.847674 -12.500000
v 5.412659 -3.218709 15.625000
v -16.237976 0.430834 -3.125000
v -16.237976 -1.508244 9.375000
v 16.237976 -0.142318 9.375000
v 0.000000 -3.536176 -18.750000
v 0.000000 6.771535 18.750000
v -16.237976 -0.870810 -9.375000
v 16.237976 -1.521747 -9.375000
v -5.412659 -3.250844 -3.125000
v 5.412659 -0.296649 -3.125000
v 0.000000 0.919901 6.250000
v 5.412659 5.108512 3.125000
v 0.000000 3.972776 -6.250000
v -5.412659 6.765387 3.125000
vn 0.1884 0.9590 -0.2118
vn 0.4600 -0.8879 0.0078
vn 0.0692 -0.2197 0.9731
vn -0.1830 0.9674 -0.1751
vn 0.0970 -0.9894 0.1077
vn -0.4157 0.6360 -0.6501
vn -0.0816 -0.9830 -0.1643
vn 0.2222 -0.9190 -0.3256
vn 0.0603 0.9978 -0.0260
vn 0.3714 0.8072 0.4588
vn -0.4659 0.8846 -0.0203
vn 0.2909 0.9324 0.2147
vn -0.0681 0.5953 0.8006
vn -0.4731 0.8809 -0.0171
vn -0.3394 -0.6315 -0.6971
vn 0.0740 -0.9332 0.3516
vn 0.1653 -0.9855 -0.0374
vn -0.0295 -0.9993 -0.0211
vn -0.0004 -0.9994 -0.0348
vn 0.1532 -0.9610 -0.2301
vn -0.0579 -0.9713 0.2306
vn -0.3390 -0.9312 0.1337
vn 0.7603 -0.6495 0.0118
vn -0.3658 -0.9307 0.0009
vn 0.4268 -0.9000 -0.0884
vn 0.2971 -0.8892 -0.3478
vn -0.0279 -0.9862 0.1634
vn -0.4220 -0.6319 -0.6501
vn -0.4629 0.8619 -0.2072
vn -0.3982 0.8328 0.3845
vn 0.2629 0.6690 -0.6952
vn -0.6155 0.7163 0.3287
vn -0.0212 0.7805 0.6248
vn -0.6375 0.6570 -0.4024
vn 0.1780 0.8766 0.4471
vn 0.2828 0.9494 0.1364
vn 0.2795 0.9504 0.1367
vn -0.5750 0.8173 0.0368
vn 0.4927 0.7868 0.3717
vn 0.0597 0.9871 0.1483
vn 0.2326 -0.9186 -0.3195
vn -0.4399 -0.8980 0.0075
vn 0.2416 -0.8853 0.3973
vn -0.5668 -0.8231 -0.0361
vn -0.4818 0.0509 -0.8748
vn -0.8106 -0.5717 0.1272
vn 0.4982 0.8424 -0.2055
vn 0.3545 0.8817 -0.3115
vn -0.5738 0.7648 0.2930
vn -0.4663 -0.5815 0.6667
vn 0.6750 0.5623 0.4777
vn 0.9337 -0.1108 -0.3405
vn 0.5109 0.6433 -0.5702
vn 0.2197 -0.0766 -0.9725
vn 0.7471 0.5627 0.3540
vn 0.0790 -0.6553 0.7513
vn -0.3480 -0.5171 0.7820
vn -0.9814 0.0561 -0.1834
vn -0.3489 0.7013 -0.6216
vn -0.4189 0.6359 -0.6481
vn 0.0972 -0.9911 -0.0911
vn 0.7015 -0.2339 0.6732
vn 0.4595 -0.8870 -0.0458
vn -0.0357 0.9414 -0.3353
vn 0.3550 0.8521 0.3847
vn -0.5909 0.7876 -0.1750
vn -0.1478 0.8642 -0.4810
vn 0.1299 0.8488 0.5124
vn 0.1482 0.9679 -0.2028
vn 0.2069 0.9639 -0.1677
vn 0.4094 0.8360 -0.3653
vn 0.4840 0.8185 -0.3096
vn -0.4216 0.8819 0.2110
vn 0.0749 -0.9929 -0.0920
vn -0.2461 -0.9312 -0.2690
vn -0.2525 -0.9553 0.1535
vn 0.0699 -0.9258 0.3715
vn 0.2537 -0.9297 0.2671
vn -0.5539 -0.8043 -0.2154
vn 0.0555 -0.9873 0.1487
vn -0.3211 -0.9442 -0.0738
vn -0.3183 -0.9359 0.1510
vn 0.4103 -0.8653 0.2878
vn -0.2301 -0.9702 -0.0758
vn -0.2052 -0.8653 -0.4573
vn 0.3719 0.9250 0.0773
vn -0.1802 0.9525 -0.2456
vn 0.1892 0.8814 -0.4328
vn -0.2491 0.9394 0.2354
vn 0.5180 0.8290 -0.2107
vn 0.2630 0.6313 0.7296
vn -0.4127 -0.8425 0.3462
vn 0.2677 -0.9396 -0.2134
vn -0.0313 -0.9990 -0.0309
vn 0.1617 -0.9818 0.1001
vn 0.2484 -0.9663 -0.0679
vn -0.2561 -0.9596 -0.1167
vn -0.3158 -0.9435 0.1002
vn 0.5610 -0.6949 0.4498
vn -0.1141 -0.9023 -0.4158
vn -0.0909 -0.9959 0.0035
vn 0.0072 -0.9313 -0.3643
vn 0.2406 -0.9576 0.1586
vn 0.4868 0.7946 0.3629
vn -0.3166 0.6578 -0.6835
vn 0.3311 0.8576 0.3935
vn 0.5425 0.8389 -0.0431
vn -0.7629 0.6332 -0.1307
vn 0.4434 0.8963 0.0043
vn 0.0549 0.9319 -0.3584
vn 0.0771 0.9721 -0.2217
vn -0.3045 0.8118 0.4983
vt 0.916667 0.750000
vt 0.833333 0.500000
vt 0.916667 0.500000
vt 0.750000 0.750000
vt 0.666667 0.500000
vt 0.750000 0.500000
vt 0.583333 0.750000
vt 0.500000 0.500000
vt 0.583333 0.500000
vt 0.250000 0.490000
vt 0.198038 0.400000
vt 0.301962 0.400000
vt 0.250000 0.750000
vt 0.166667 0.500000
vt 0.250000 0.500000
vt 0.083333 0.750000
vt -0.000000 0.500000
vt 0.083333 0.500000
vt 0.957846 0.370000
vt 0.905885 0.280000
vt 0.853923 0.370000
vt 0.833333 1.000000
vt 0.916667 1.000000
vt 0.666667 1.000000
vt 0.750000 1.000000
vt 0.500000 1.000000
vt 0.583333 1.000000
vt 0.457846 0.250000
vt 0.405885 0.220000
vt 0.457846 0.130000
vt 0.146077 0.430000
vt 0.146077 0.070000
vt 0.146077 0.130000
vt 0.042154 0.130000
vt 0.166667 1.000000
vt 0.250000 1.000000
vt -0.000000 1.000000
vt 0.083333 1.000000
vt 0.646077 0.430000
vt 0.646077 0.370000
vt 0.542154 0.370000
vt 0.957846 0.250000
vt 0.646077 0.070000
vt 0.698038 0.100000
vt 0.750000 0.010000
vt 0.542154 0.250000
vt 0.594115 0.280000
vt 0.646077 0.190000
vt 0.594115 0.160000
vt 0.542154 0.130000
vt 0.853923 0.070000
vt 0.801962 0.100000
vt 0.853923 0.190000
vt 0.905885 0.160000
vt 0.957846 0.130000
vt 0.853923 0.430000
vt 0.750000 0.370000
vt 0.750000 0.430000
vt 0.750000 0.490000
vt 0.333333 1.000000
vt 0.353923 0.070000
vt 0.353923 0.130000
vt 0.250000 0.130000
vt 0.250000 0.070000
vt 0.250000 0.010000
vt 0.042154 0.250000
vt 0.094115 0.220000
vt 0.146077 0.310000
vt 0.094115 0.340000
vt 0.042154 0.370000
vt 0.353923 0.430000
vt 0.353923 0.310000
vt 0.405885 0.340000
vt 0.457846 0.370000
vt 1.000000 1.000000
vt 0.698038 0.280000
vt 0.801962 0.280000
vt 0.750000 0.190000
vt 0.333333 0.500000
vt 0.301962 0.220000
vt 0.250000 0.310000
vt 0.198038 0.220000
vt 0.416667 0.750000
vt 1.000000 0.500000
s 0
f 24/1/1 3/2/1 13/3/1
f 25/4/2 5/5/2 15/6/2
f 26/7/3 7/8/3 17/9/3
f 2/10/4 36/11/4 41/12/4
f 30/13/5 11/14/5 20/15/5
f 31/16/6 1/17/6 22/18/6
f 3/19/7 39/20/7 44/21/7
f 4/22/8 24/1/8 14/23/8
f 6/24/9 25/4/9 16/25/9
f 8/26/10 26/7/10 18/27/10
f 16/28/11 35/29/11 6/30/11
f 23/31/12 36/11/12 2/10/12
f 19/32/13 37/33/13 10/34/13
f 12/35/14 30/13/14 21/36/14
f 2/37/15 31/16/15 23/38/15
f 22/39/16 38/40/16 11/41/16
f 15/42/17 39/20/17 3/19/17
f 19/43/18 40/44/18 7/45/18
f 20/46/19 46/47/19 34/48/19
f 34/48/20 47/49/20 20/46/20
f 9/50/21 47/49/21 19/43/21
f 17/51/22 45/52/22 33/53/22
f 33/53/23 48/54/23 17/51/23
f 5/55/24 48/54/24 15/42/24
f 13/56/25 44/21/25 32/57/25
f 32/57/26 49/58/26 13/56/26
f 1/59/27 49/58/27 22/39/27
f 12/35/28 23/38/28 31/16/28
f 10/60/29 21/36/29 30/13/29
f 18/61/30 43/62/30 29/63/30
f 29/63/31 50/64/31 18/61/31
f 8/65/32 50/64/32 19/32/32
f 21/66/33 42/67/33 28/68/33
f 28/68/34 51/69/34 21/66/34
f 12/70/35 51/69/35 23/31/35
f 14/71/36 41/12/36 27/72/36
f 27/72/37 52/73/37 14/71/37
f 4/74/38 52/73/38 16/28/38
f 6/24/39 18/27/39 26/7/39
f 4/22/40 16/25/40 25/4/40
f 2/75/41 14/23/41 24/1/41
f 32/57/42 53/76/42 38/40/42
f 32/57/43 54/77/43 53/76/43
f 33/53/44 45/52/44 55/78/44
f 31/16/45 11/14/45 12/35/45
f 30/13/46 9/79/46 10/60/46
f 27/72/47 56/80/47 35/29/47
f 27/72/48 57/81/48 56/80/48
f 28/68/49 42/67/49 58/82/49
f 19/83/50 7/8/50 8/26/50
f 26/7/51 5/5/51 6/24/51
f 25/4/52 3/2/52 4/22/52
f 24/1/53 1/84/53 2/75/53
f 4/22/54 3/2/54 24/1/54
f 6/24/55 5/5/55 25/4/55
f 8/26/56 7/8/56 26/7/56
f 10/60/57 9/79/57 19/83/57
f 12/35/58 11/14/58 30/13/58
f 2/37/59 1/17/59 31/16/59
f 31/16/60 22/18/60 11/14/60
f 30/13/61 20/15/61 9/79/61
f 26/7/62 17/9/62 5/5/62
f 25/4/63 15/6/63 3/2/63
f 24/1/64 13/3/64 1/84/64
f 58/82/65 37/33/65 29/63/65
f 58/82/66 42/67/66 37/33/66
f 42/67/67 10/34/67 37/33/67
f 56/80/68 58/82/68 29/63/68
f 56/80/69 57/81/69 58/82/69
f 57/81/70 28/68/70 58/82/70
f 35/29/71 43/62/71 6/30/71
f 35/29/72 56/80/72 43/62/72
f 56/80/73 29/63/73 43/62/73
f 55/78/74 40/44/74 34/48/74
f 55/78/75 45/52/75 40/44/75
f 45/52/76 7/45/76 40/44/76
f 53/76/77 55/78/77 34/48/77
f 53/76/78 54/77/78 55/78/78
f 54/77/79 33/53/79 55/78/79
f 38/40/80 46/47/80 11/41/80
f 38/40/81 53/76/81 46/47/81
f 53/76/82 34/48/82 46/47/82
f 44/21/83 54/77/83 32/57/83
f 44/21/84 39/20/84 54/77/84
f 39/20/85 33/53/85 54/77/85
f 41/12/86 57/81/86 27/72/86
f 41/12/87 36/11/87 57/81/87
f 36/11/88 28/68/88 57/81/88
f 16/28/89 27/72/89 35/29/89
f 23/31/90 28/68/90 36/11/90
f 19/32/91 29/63/91 37/33/91
f 22/39/92 32/57/92 38/40/92
f 15/42/93 33/53/93 39/20/93
f 19/43/94 34/48/94 40/44/94
f 20/46/95 11/41/95 46/47/95
f 34/48/96 19/43/96 47/49/96
f 9/50/97 20/46/97 47/49/97
f 17/51/98 7/45/98 45/52/98
f 33/53/99 15/42/99 48/54/99
f 5/55/100 17/51/100 48/54/100
f 13/56/101 3/19/101 44/21/101
f 32/57/102 22/39/102 49/58/102
f 1/59/103 13/56/103 49/58/103
f 18/61/104 6/30/104 43/62/104
f 29/63/105 19/32/105 50/64/105
f 8/65/106 18/61/106 50/64/106
f 21/66/107 10/34/107 42/67/107
f 28/68/108 23/31/108 51/69/108
f 12/70/109 21/66/109 51/69/109
f 14/71/110 2/10/110 41/12/110
f 27/72/111 16/28/111 52/73/111
f 4/74/112 14/71/112 52/73/112
