# Blender 4.3.0
# www.blender.org
o Cylinder
v 0.000000 -4.161669 -27.158558
v 0.000000 2.887800 -25.503759
v 21.776897 -2.612235 -12.572897
v 22.269712 3.050295 -12.857425
v 21.394087 -2.271956 12.351882
v 21.276728 2.167634 12.284125
v 0.000000 -1.295090 23.434801
v 0.000000 1.446993 23.632113
v -21.581415 -2.438472 12.460036
v -20.422850 1.408617 11.791138
v -22.808296 -3.529049 -13.168376
v -21.219511 2.116777 -12.251091
v 11.779675 -4.408694 -20.402996
v 10.052795 0.954972 -17.411951
v 19.782545 -0.631931 0.000000
v 21.794561 2.643925 0.000000
v 10.823998 -2.497362 18.747715
v 11.591470 4.032289 20.077015
v -9.676661 -0.202713 16.760469
v -11.492183 3.833716 19.905045
v -21.020796 -1.870168 0.000000
v -23.810631 4.659974 0.000000
v -9.869866 -0.589117 -17.095110
v -9.920087 0.689559 -17.182095
v 9.749919 0.000000 -16.887354
v 23.994507 0.000000 0.000000
v 12.360215 0.000000 21.408522
v 10.825317 3.677702 -6.250000
v -10.825317 4.296973 -6.250000
v 0.000000 2.228976 12.500000
v -21.410255 0.000000 0.000000
v 0.000000 -0.569090 -12.500000
v 10.825317 0.602703 6.250000
v -10.825317 -4.836730 6.250000
v 16.237976 2.621188 3.125000
v -5.412659 3.049763 -15.625000
v -10.825317 5.384319 12.500000
v -10.825317 -3.019600 -12.500000
v 16.237976 -4.776888 -3.125000
v -5.412659 -0.875657 15.625000
v 5.412659 1.719625 -15.625000
v -16.237976 2.150536 3.125000
v 10.825317 1.545619 12.500000
v 10.825317 -3.995438 -12.500000
v 5.412659 -5.556643 15.625000
v -16.237976 -2.013724 -3.125000
v -16.237976 -2.415970 9.375000
v 16.237976 -4.386349 9.375000
v 0.000000 -0.826407 -18.750000
v 0.000000 3.051386 18.750000
v -16.237976 4.506990 -9.375000
v 16.237976 3.384635 -9.375000
v -5.412659 -0.660986 -3.125000
v 5.412659 0.012491 -3.125000
v 0.000000 -4.767722 6.250000
v 5.412659 -0.263263 3.125000
v 0.000000 1.595852 -6.250000
v -5.412659 -0.545904 3.125000
vn 0.3743 0.6774 -0.6333
vn 0.1467 -0.9779 -0.1490
vn 0.1813 -0.7671 0.6154
vn 0.1218 0.9913 0.0505
vn -0.9669 -0.2014 0.1566
vn 0.1228 -0.9806 -0.1527
vn 0.3742 -0.5348 -0.7576
vn 0.7674 0.6386 0.0571
vn 0.2050 0.3419 0.9171
vn -0.3924 -0.6686 0.6317
vn 0.0181 0.9991 0.0395
vn -0.3888 0.8927 -0.2277
vn -0.3878 0.9085 0.1553
vn -0.8852 -0.4560 -0.0926
vn -0.6307 -0.0773 -0.7722
vn 0.0632 -0.8876 -0.4563
vn 0.6545 -0.7240 0.2179
vn -0.1436 -0.9885 0.0465
vn -0.1592 -0.9669 -0.1992
vn -0.3456 -0.9304 0.1221
vn 0.1142 -0.9750 0.1907
vn 0.5666 -0.7998 -0.1983
vn -0.6028 -0.7744 -0.1921
vn 0.4586 -0.8712 -0.1755
vn -0.3017 -0.9533 0.0134
vn -0.2857 -0.9575 0.0394
vn 0.0394 -0.9288 0.3684
vn -0.4070 -0.0779 -0.9101
vn -0.8817 -0.4542 0.1281
vn 0.0598 0.9466 -0.3167
vn -0.0688 0.9891 -0.1302
vn 0.0956 0.9457 0.3108
vn 0.1783 0.9318 0.3163
vn 0.0329 0.9994 0.0102
vn -0.1148 0.8526 -0.5098
vn 0.0668 0.9683 -0.2408
vn -0.0808 0.9696 -0.2309
vn 0.0750 0.9966 0.0343
vn -0.3514 -0.6686 0.6554
vn 0.6273 0.3494 0.6960
vn 0.7678 0.6389 0.0486
vn 0.4650 -0.5350 -0.7054
vn 0.2193 -0.9686 0.1171
vn 0.0621 -0.9977 0.0261
vn 0.4218 -0.8502 -0.3151
vn -0.3317 0.2415 -0.9120
vn -0.9544 0.2952 0.0447
vn -0.2493 0.9358 0.2494
vn -0.1807 0.9396 0.2907
vn 0.2273 0.9125 0.3401
vn -0.5713 -0.0589 0.8186
vn 0.7114 0.0295 0.7022
vn 0.9836 -0.0933 -0.1541
vn 0.6802 0.1675 -0.7136
vn 0.3221 -0.0755 -0.9437
vn 0.9770 0.0290 0.2110
vn 0.1686 -0.0707 0.9831
vn -0.3713 0.2665 0.8894
vn -0.9635 0.2661 0.0310
vn -0.6730 0.1690 -0.7201
vn -0.9776 -0.2036 -0.0533
vn 0.3387 -0.7757 0.5325
vn 0.1460 -0.9734 0.1765
vn 0.3766 0.6773 -0.6320
vn 0.2556 0.8769 -0.4071
vn 0.2184 0.8767 -0.4285
vn -0.3743 0.9217 -0.1018
vn -0.0251 0.9624 -0.2704
vn -0.0255 0.9777 0.2086
vn 0.2277 0.9125 0.3399
vn -0.0575 0.9951 0.0809
vn -0.2573 0.9656 -0.0378
vn 0.0614 0.9728 -0.2232
vn 0.0059 -0.9223 0.3863
vn -0.3924 -0.9075 0.1502
vn -0.3871 -0.8953 0.2202
vn 0.0058 -0.9147 -0.4041
vn 0.0561 -0.9022 -0.4276
vn 0.4358 -0.8784 -0.1963
vn 0.0351 -0.9913 0.1266
vn 0.1221 -0.9769 0.1753
vn 0.1163 -0.9305 -0.3473
vn -0.2939 -0.9284 0.2273
vn -0.3997 -0.9034 0.1555
vn -0.3885 -0.8780 0.2796
vn -0.1880 0.9775 -0.0956
vn 0.1215 0.9891 0.0832
vn 0.2421 0.9702 0.0107
vn 0.0445 0.9953 0.0864
vn -0.3506 0.8803 -0.3195
vn 0.2729 0.9364 0.2207
vn 0.1998 -0.8827 -0.4253
vn 0.3208 -0.7296 0.6039
vn -0.0359 -0.9130 0.4064
vn 0.0476 -0.9918 0.1185
vn -0.1624 -0.8962 0.4129
vn -0.0227 -0.9987 -0.0466
vn 0.1470 -0.8219 0.5504
vn -0.4348 -0.7671 -0.4716
vn 0.2048 -0.9298 0.3057
vn 0.1255 -0.9898 0.0669
vn -0.0171 -0.9990 0.0411
vn -0.2250 -0.9057 0.3592
vn -0.0629 0.9501 -0.3055
vn 0.0543 0.9900 -0.1303
vn -0.1154 0.9437 0.3101
vn 0.2351 0.9522 0.1950
vn 0.2045 0.9345 -0.2914
vn -0.2955 0.9211 -0.2537
vn 0.1711 0.9850 0.0227
vn 0.0741 0.9966 0.0348
vn -0.0800 0.9695 -0.2316
vt 0.916667 0.750000
vt 0.833333 0.500000
vt 0.916667 0.500000
vt 0.750000 0.750000
vt 0.666667 0.500000
vt 0.750000 0.500000
vt 0.583333 0.750000
vt 0.500000 0.500000
vt 0.583333 0.500000
vt 0.250000 0.490000
vt 0.198038 0.400000
vt 0.301962 0.400000
vt 0.250000 0.750000
vt 0.166667 0.500000
vt 0.250000 0.500000
vt 0.957846 0.370000
vt 0.905885 0.280000
vt 0.853923 0.370000
vt 0.833333 1.000000
vt 0.916667 1.000000
vt 0.666667 1.000000
vt 0.750000 1.000000
vt 0.500000 1.000000
vt 0.583333 1.000000
vt 0.333333 1.000000
vt 0.416667 0.750000
vt 0.416667 1.000000
vt 0.457846 0.250000
vt 0.405885 0.220000
vt 0.457846 0.130000
vt 0.146077 0.430000
vt 0.146077 0.070000
vt 0.146077 0.130000
vt 0.042154 0.130000
vt 0.166667 1.000000
vt 0.250000 1.000000
vt -0.000000 1.000000
vt 0.083333 0.750000
vt 0.083333 1.000000
vt 0.646077 0.430000
vt 0.646077 0.370000
vt 0.542154 0.370000
vt 0.957846 0.250000
vt 0.646077 0.070000
vt 0.698038 0.100000
vt 0.750000 0.010000
vt 0.542154 0.250000
vt 0.594115 0.280000
vt 0.646077 0.190000
vt 0.594115 0.160000
vt 0.542154 0.130000
vt 0.853923 0.070000
vt 0.801962 0.100000
vt 0.853923 0.190000
vt 0.905885 0.160000
vt 0.957846 0.130000
vt 0.853923 0.430000
vt 0.750000 0.370000
vt 0.750000 0.430000
vt 0.750000 0.490000
vt 0.353923 0.070000
vt 0.353923 0.130000
vt 0.250000 0.130000
vt 0.250000 0.070000
vt 0.250000 0.010000
vt 0.042154 0.250000
vt 0.094115 0.220000
vt 0.146077 0.310000
vt 0.094115 0.340000
vt 0.042154 0.370000
vt 0.353923 0.430000
vt 0.353923 0.310000
vt 0.405885 0.340000
vt 0.457846 0.370000
vt 1.000000 1.000000
vt 0.698038 0.280000
vt 0.801962 0.280000
vt 0.750000 0.190000
vt 0.333333 0.500000
vt 0.301962 0.220000
vt 0.250000 0.310000
vt 0.198038 0.220000
vt 1.000000 0.500000
vt -0.000000 0.500000
s 0
f 25/1/1 3/2/1 13/3/1
f 26/4/2 5/5/2 15/6/2
f 27/7/3 7/8/3 17/9/3
f 2/10/4 36/11/4 41/12/4
f 31/13/5 11/14/5 21/15/5
f 3/16/6 39/17/6 44/18/6
f 4/19/7 25/1/7 14/20/7
f 6/21/8 26/4/8 16/22/8
f 8/23/9 27/7/9 18/24/9
f 10/25/10 19/26/10 20/27/10
f 16/28/11 35/29/11 6/30/11
f 24/31/12 36/11/12 2/10/12
f 20/32/13 37/33/13 10/34/13
f 12/35/14 31/13/14 22/36/14
f 2/37/15 23/38/15 24/39/15
f 23/40/16 38/41/16 11/42/16
f 15/43/17 39/17/17 3/16/17
f 19/44/18 40/45/18 7/46/18
f 21/47/19 46/48/19 34/49/19
f 34/49/20 47/50/20 21/47/20
f 9/51/21 47/50/21 19/44/21
f 17/52/22 45/53/22 33/54/22
f 33/54/23 48/55/23 17/52/23
f 5/56/24 48/55/24 15/43/24
f 13/57/25 44/18/25 32/58/25
f 32/58/26 49/59/26 13/57/26
f 1/60/27 49/59/27 23/40/27
f 12/35/28 24/39/28 23/38/28
f 10/25/29 22/36/29 31/13/29
f 18/61/30 43/62/30 30/63/30
f 30/63/31 50/64/31 18/61/31
f 8/65/32 50/64/32 20/32/32
f 22/66/33 42/67/33 29/68/33
f 29/68/34 51/69/34 22/66/34
f 12/70/35 51/69/35 24/31/35
f 14/71/36 41/12/36 28/72/36
f 28/72/37 52/73/37 14/71/37
f 4/74/38 52/73/38 16/28/38
f 8/23/39 20/27/39 19/26/39
f 6/21/40 18/24/40 27/7/40
f 4/19/41 16/22/41 26/4/41
f 2/75/42 14/20/42 25/1/42
f 32/58/43 53/76/43 38/41/43
f 32/58/44 54/77/44 53/76/44
f 33/54/45 45/53/45 55/78/45
f 23/38/46 11/14/46 12/35/46
f 31/13/47 9/79/47 10/25/47
f 28/72/48 56/80/48 35/29/48
f 28/72/49 57/81/49 56/80/49
f 29/68/50 42/67/50 58/82/50
f 19/26/51 7/8/51 8/23/51
f 27/7/52 5/5/52 6/21/52
f 26/4/53 3/2/53 4/19/53
f 25/1/54 1/83/54 2/75/54
f 4/19/55 3/2/55 25/1/55
f 6/21/56 5/5/56 26/4/56
f 8/23/57 7/8/57 27/7/57
f 10/25/58 9/79/58 19/26/58
f 12/35/59 11/14/59 31/13/59
f 2/37/60 1/84/60 23/38/60
f 31/13/61 21/15/61 9/79/61
f 27/7/62 17/9/62 5/5/62
f 26/4/63 15/6/63 3/2/63
f 25/1/64 13/3/64 1/83/64
f 58/82/65 37/33/65 30/63/65
f 58/82/66 42/67/66 37/33/66
f 42/67/67 10/34/67 37/33/67
f 56/80/68 58/82/68 30/63/68
f 56/80/69 57/81/69 58/82/69
f 57/81/70 29/68/70 58/82/70
f 35/29/71 43/62/71 6/30/71
f 35/29/72 56/80/72 43/62/72
f 56/80/73 30/63/73 43/62/73
f 55/78/74 40/45/74 34/49/74
f 55/78/75 45/53/75 40/45/75
f 45/53/76 7/46/76 40/45/76
f 53/76/77 55/78/77 34/49/77
f 53/76/78 54/77/78 55/78/78
f 54/77/79 33/54/79 55/78/79
f 38/41/80 46/48/80 11/42/80
f 38/41/81 53/76/81 46/48/81
f 53/76/82 34/49/82 46/48/82
f 44/18/83 54/77/83 32/58/83
f 44/18/84 39/17/84 54/77/84
f 39/17/85 33/54/85 54/77/85
f 41/12/86 57/81/86 28/72/86
f 41/12/87 36/11/87 57/81/87
f 36/11/88 29/68/88 57/81/88
f 16/28/89 28/72/89 35/29/89
f 24/31/90 29/68/90 36/11/90
f 20/32/91 30/63/91 37/33/91
f 23/40/92 32/58/92 38/41/92
f 15/43/93 33/54/93 39/17/93
f 19/44/94 34/49/94 40/45/94
f 21/47/95 11/42/95 46/48/95
f 34/49/96 19/44/96 47/50/96
f 9/51/97 21/47/97 47/50/97
f 17/52/98 7/46/98 45/53/98
f 33/54/99 15/43/99 48/55/99
f 5/56/100 17/52/100 48/55/100
f 13/57/101 3/16/101 44/18/101
f 32/58/102 23/40/102 49/59/102
f 1/60/103 13/57/103 49/59/103
f 18/61/104 6/30/104 43/62/104
f 30/63/105 20/32/105 50/64/105
f 8/65/106 18/61/106 50/64/106
f 22/66/107 10/34/107 42/67/107
f 29/68/108 24/31/108 51/69/108
f 12/70/109 22/66/109 51/69/109
f 14/71/110 2/10/110 41/12/110
f 28/72/111 16/28/111 52/73/111
f 4/74/112 14/71/112 52/73/112
