# Blender 4.3.0
# www.blender.org
o Cylinder
v 0.000000 -1.723333 -23.991087
v 0.000000 1.051770 -23.118723
v 21.311617 -2.198646 -12.304268
v 21.166618 2.069761 -12.220553
v 22.021767 -2.829898 12.714273
v 21.959139 2.774230 12.678115
v 0.000000 -2.581635 25.106047
v 0.000000 1.665143 23.915495
v -23.093327 -3.782401 13.332939
v -20.005651 1.037769 11.550268
v -20.319059 -1.316358 -11.731215
v -22.991261 3.691676 -13.274012
v 10.337351 -1.524077 -17.904818
v 10.487535 1.824444 -18.164946
v 21.106571 -1.955943 0.000000
v 21.059868 1.909238 0.000000
v 9.751540 -0.352469 16.890163
v 9.967427 0.784238 17.264091
v -10.327330 -1.504035 17.887461
v -20.563295 -1.412672 0.000000
v -21.029287 1.878660 0.000000
v -10.960029 -2.769420 -18.983328
v -10.105834 1.061048 -17.503819
v 10.135649 0.000000 -17.555460
v 24.336615 0.000000 0.000000
v 10.701982 0.000000 18.536377
v -9.321151 0.000000 16.144707
v 10.825317 2.687790 -6.250000
v -10.825317 2.513248 -6.250000
v 0.000000 2.704920 12.500000
v -23.150084 0.000000 0.000000
v -9.679507 0.000000 -16.765398
v 0.000000 -0.483894 -12.500000
v 10.825317 -2.417642 6.250000
v -10.825317 -2.740770 6.250000
v 16.237976 4.354567 3.125000
v -5.412659 1.587792 -15.625000
v -10.825317 -0.257310 12.500000
v -10.825317 -2.598444 -12.500000
v 16.237976 -5.001847 -3.125000
v -5.412659 -2.129313 15.625000
v 5.412659 -0.687455 -15.625000
v -16.237976 3.125158 3.125000
v 10.825317 2.803276 12.500000
v 10.825317 -2.762376 -12.500000
v 5.412659 -1.671893 15.625000
v -16.237976 -3.331308 -3.125000
v -16.237976 0.599442 9.375000
v 16.237976 -1.652229 9.375000
v 0.000000 -3.723210 -18.750000
v 0.000000 3.450923 18.750000
v -16.237976 2.782751 -9.375000
v 16.237976 4.199408 -9.375000
v -5.412659 -2.070808 -3.125000
v 5.412659 -0.109910 -3.125000
v 0.000000 -2.669066 6.250000
v 5.412659 1.375568 3.125000
v 0.000000 -0.487458 -6.250000
v -5.412659 5.047973 3.125000
vn 0.4519 0.2557 -0.8546
vn 0.5156 -0.8515 -0.0956
vn 0.2649 -0.9628 0.0532
vn -0.3229 0.8007 0.5046
vn 0.2051 0.9756 0.0783
vn -0.4792 -0.8775 -0.0172
vn -0.3578 0.6789 -0.6412
vn 0.0567 -0.9632 -0.2628
vn 0.4601 -0.3599 -0.8117
vn 0.5012 0.8602 -0.0942
vn 0.3168 0.8782 0.3584
vn 0.4030 0.9107 -0.0907
vn -0.0643 0.9910 -0.1173
vn 0.1518 0.9796 -0.1318
vn -0.6502 0.7340 0.1963
vn -0.3790 -0.6264 -0.6812
vn -0.1315 -0.9909 0.0289
vn 0.5184 -0.8548 0.0255
vn -0.1173 -0.9929 0.0196
vn -0.2643 -0.9409 0.2119
vn -0.3406 -0.8747 0.3449
vn 0.3029 -0.8547 -0.4215
vn 0.2287 -0.9511 0.2077
vn 0.0272 -0.9808 0.1931
vn -0.1683 -0.9842 -0.0555
vn -0.2017 -0.9585 -0.2014
vn 0.1496 -0.8779 0.4550
vn -0.0735 -0.9318 -0.3555
vn -0.3556 -0.6259 -0.6941
vn -0.6589 0.7438 0.1125
vn -0.0084 0.9212 0.3889
vn 0.2407 0.9638 -0.1150
vn -0.4037 0.8647 0.2989
vn -0.1543 0.9761 -0.1528
vn -0.0045 0.9956 0.0937
vn 0.1756 0.9816 -0.0754
vn -0.4634 0.8847 -0.0510
vn -0.3007 0.9518 -0.0604
vn 0.4042 0.9146 0.0155
vn 0.0493 0.8627 0.5033
vn 0.5034 0.8639 0.0157
vn 0.4201 -0.3594 -0.8333
vn 0.1914 -0.9799 -0.0554
vn 0.1779 -0.9820 -0.0635
vn 0.0231 -0.9954 0.0925
vn -0.3397 -0.4377 -0.8325
vn -0.8012 0.5748 0.1665
vn -0.2653 0.9640 -0.0182
vn -0.2813 0.9592 -0.0282
vn -0.1725 0.9714 -0.1630
vn -0.6481 0.2056 0.7333
vn 0.4595 0.0109 0.8881
vn 0.9688 0.0377 -0.2449
vn 0.4851 0.2622 -0.8342
vn 0.4302 0.0323 -0.9021
vn 0.9833 0.0122 0.1817
vn 0.4655 0.2389 0.8522
vn -0.3023 0.4949 0.8147
vn -0.8525 -0.5009 -0.1495
vn -0.5501 0.2504 -0.7967
vn -0.3810 0.6789 -0.6277
vn -0.4653 -0.8521 -0.2397
vn -0.2847 0.8009 0.5268
vn -0.1034 -0.9587 0.2650
vn 0.5178 -0.8551 0.0255
vn 0.4868 0.2559 -0.8352
vn -0.2456 0.8976 0.3661
vn -0.1591 0.8958 0.4151
vn 0.1052 0.9533 0.2832
vn 0.3208 0.9458 0.0511
vn 0.3009 0.8871 -0.3500
vn 0.2467 0.8901 -0.3831
vn -0.0000 0.9866 0.1632
vn -0.2653 0.9641 0.0064
vn -0.0090 0.9893 -0.1455
vn 0.0066 -0.9981 0.0613
vn 0.0421 -0.9958 0.0816
vn 0.0421 -0.9965 -0.0716
vn 0.0066 -0.9977 -0.0675
vn 0.1758 -0.9708 -0.1635
vn 0.0225 -0.9677 -0.2512
vn -0.1448 -0.9764 -0.1599
vn 0.1157 -0.9932 -0.0109
vn 0.1157 -0.9933 -0.0042
vn -0.2034 -0.9666 0.1560
vn -0.4117 -0.9111 0.0201
vn -0.4118 -0.9112 0.0134
vn -0.2769 0.9439 -0.1800
vn 0.2047 0.9740 0.0974
vn 0.2667 0.9620 0.0590
vn 0.2605 0.9134 -0.3128
vn -0.0585 0.9896 -0.1314
vn -0.2637 0.9637 0.0408
vn 0.1917 -0.9812 0.0219
vn 0.2846 -0.8694 0.4040
vn -0.0761 -0.9912 0.1086
vn -0.4151 -0.9096 -0.0161
vn -0.4737 -0.8734 0.1131
vn 0.5154 -0.8553 -0.0542
vn 0.2732 -0.9598 0.0639
vn 0.0937 -0.9923 0.0808
vn -0.1985 -0.9801 -0.0018
vn 0.0565 -0.9721 -0.2278
vn -0.0867 -0.8845 0.4584
vn 0.2222 -0.9109 -0.3476
vn -0.0038 0.9210 0.3896
vn -0.3172 0.9417 -0.1124
vn 0.2887 0.9049 0.3128
vn -0.3089 0.9462 0.0963
vn 0.1182 0.9858 -0.1196
vn 0.0603 0.9902 0.1263
vn -0.2474 0.8891 0.3850
vn -0.1016 0.9531 0.2851
vn 0.1829 0.9124 -0.3662
vt 0.916667 0.750000
vt 0.833333 0.500000
vt 0.916667 0.500000
vt 0.750000 0.750000
vt 0.666667 0.500000
vt 0.750000 0.500000
vt 0.583333 0.750000
vt 0.500000 0.500000
vt 0.583333 0.500000
vt 0.416667 0.750000
vt 0.333333 0.500000
vt 0.416667 0.500000
vt 0.250000 0.490000
vt 0.198038 0.400000
vt 0.301962 0.400000
vt 0.250000 0.750000
vt 0.166667 0.500000
vt 0.250000 0.500000
vt 0.083333 0.750000
vt -0.000000 0.500000
vt 0.083333 0.500000
vt 0.957846 0.370000
vt 0.905885 0.280000
vt 0.853923 0.370000
vt 0.833333 1.000000
vt 0.916667 1.000000
vt 0.666667 1.000000
vt 0.750000 1.000000
vt 0.500000 1.000000
vt 0.583333 1.000000
vt 0.457846 0.250000
vt 0.405885 0.220000
vt 0.457846 0.130000
vt 0.146077 0.430000
vt 0.146077 0.070000
vt 0.146077 0.130000
vt 0.042154 0.130000
vt 0.166667 1.000000
vt 0.250000 1.000000
vt -0.000000 1.000000
vt 0.083333 1.000000
vt 0.646077 0.430000
vt 0.646077 0.370000
vt 0.542154 0.370000
vt 0.957846 0.250000
vt 0.646077 0.070000
vt 0.698038 0.100000
vt 0.750000 0.010000
vt 0.542154 0.250000
vt 0.594115 0.280000
vt 0.646077 0.190000
vt 0.594115 0.160000
vt 0.542154 0.130000
vt 0.853923 0.070000
vt 0.801962 0.100000
vt 0.853923 0.190000
vt 0.905885 0.160000
vt 0.957846 0.130000
vt 0.853923 0.430000
vt 0.750000 0.370000
vt 0.750000 0.430000
vt 0.750000 0.490000
vt 0.333333 1.000000
vt 0.353923 0.070000
vt 0.353923 0.130000
vt 0.250000 0.130000
vt 0.250000 0.070000
vt 0.250000 0.010000
vt 0.042154 0.250000
vt 0.094115 0.220000
vt 0.146077 0.310000
vt 0.094115 0.340000
vt 0.042154 0.370000
vt 0.353923 0.430000
vt 0.353923 0.310000
vt 0.405885 0.340000
vt 0.457846 0.370000
vt 1.000000 1.000000
vt 0.698038 0.280000
vt 0.801962 0.280000
vt 0.750000 0.190000
vt 0.301962 0.220000
vt 0.250000 0.310000
vt 0.198038 0.220000
vt 1.000000 0.500000
s 0
f 24/1/1 3/2/1 13/3/1
f 25/4/2 5/5/2 15/6/2
f 26/7/3 7/8/3 17/9/3
f 27/10/4 9/11/4 19/12/4
f 2/13/5 37/14/5 42/15/5
f 31/16/6 11/17/6 20/18/6
f 32/19/7 1/20/7 22/21/7
f 3/22/8 40/23/8 45/24/8
f 4/25/9 24/1/9 14/26/9
f 6/27/10 25/4/10 16/28/10
f 8/29/11 26/7/11 18/30/11
f 16/31/12 36/32/12 6/33/12
f 23/34/13 37/14/13 2/13/13
f 27/35/14 38/36/14 10/37/14
f 12/38/15 31/16/15 21/39/15
f 2/40/16 32/19/16 23/41/16
f 22/42/17 39/43/17 11/44/17
f 15/45/18 40/23/18 3/22/18
f 19/46/19 41/47/19 7/48/19
f 20/49/20 47/50/20 35/51/20
f 35/51/21 48/52/21 20/49/21
f 9/53/22 48/52/22 19/46/22
f 17/54/23 46/55/23 34/56/23
f 34/56/24 49/57/24 17/54/24
f 5/58/25 49/57/25 15/45/25
f 13/59/26 45/24/26 33/60/26
f 33/60/27 50/61/27 13/59/27
f 1/62/28 50/61/28 22/42/28
f 12/38/29 23/41/29 32/19/29
f 10/63/30 21/39/30 31/16/30
f 18/64/31 44/65/31 30/66/31
f 30/66/32 51/67/32 18/64/32
f 8/68/33 51/67/33 27/35/33
f 21/69/34 43/70/34 29/71/34
f 29/71/35 52/72/35 21/69/35
f 12/73/36 52/72/36 23/34/36
f 14/74/37 42/15/37 28/75/37
f 28/75/38 53/76/38 14/74/38
f 4/77/39 53/76/39 16/31/39
f 6/27/40 18/30/40 26/7/40
f 4/25/41 16/28/41 25/4/41
f 2/78/42 14/26/42 24/1/42
f 33/60/43 54/79/43 39/43/43
f 33/60/44 55/80/44 54/79/44
f 34/56/45 46/55/45 56/81/45
f 32/19/46 11/17/46 12/38/46
f 31/16/47 9/11/47 10/63/47
f 28/75/48 57/82/48 36/32/48
f 28/75/49 58/83/49 57/82/49
f 29/71/50 43/70/50 59/84/50
f 27/10/51 7/8/51 8/29/51
f 26/7/52 5/5/52 6/27/52
f 25/4/53 3/2/53 4/25/53
f 24/1/54 1/85/54 2/78/54
f 4/25/55 3/2/55 24/1/55
f 6/27/56 5/5/56 25/4/56
f 8/29/57 7/8/57 26/7/57
f 10/63/58 9/11/58 27/10/58
f 12/38/59 11/17/59 31/16/59
f 2/40/60 1/20/60 32/19/60
f 32/19/61 22/21/61 11/17/61
f 31/16/62 20/18/62 9/11/62
f 27/10/63 19/12/63 7/8/63
f 26/7/64 17/9/64 5/5/64
f 25/4/65 15/6/65 3/2/65
f 24/1/66 13/3/66 1/85/66
f 59/84/67 38/36/67 30/66/67
f 59/84/68 43/70/68 38/36/68
f 43/70/69 10/37/69 38/36/69
f 57/82/70 59/84/70 30/66/70
f 57/82/71 58/83/71 59/84/71
f 58/83/72 29/71/72 59/84/72
f 36/32/73 44/65/73 6/33/73
f 36/32/74 57/82/74 44/65/74
f 57/82/75 30/66/75 44/65/75
f 56/81/76 41/47/76 35/51/76
f 56/81/77 46/55/77 41/47/77
f 46/55/78 7/48/78 41/47/78
f 54/79/79 56/81/79 35/51/79
f 54/79/80 55/80/80 56/81/80
f 55/80/81 34/56/81 56/81/81
f 39/43/82 47/50/82 11/44/82
f 39/43/83 54/79/83 47/50/83
f 54/79/84 35/51/84 47/50/84
f 45/24/85 55/80/85 33/60/85
f 45/24/86 40/23/86 55/80/86
f 40/23/87 34/56/87 55/80/87
f 42/15/88 58/83/88 28/75/88
f 42/15/89 37/14/89 58/83/89
f 37/14/90 29/71/90 58/83/90
f 16/31/91 28/75/91 36/32/91
f 23/34/92 29/71/92 37/14/92
f 27/35/93 30/66/93 38/36/93
f 22/42/94 33/60/94 39/43/94
f 15/45/95 34/56/95 40/23/95
f 19/46/96 35/51/96 41/47/96
f 20/49/97 11/44/97 47/50/97
f 35/51/98 19/46/98 48/52/98
f 9/53/99 20/49/99 48/52/99
f 17/54/100 7/48/100 46/55/100
f 34/56/101 15/45/101 49/57/101
f 5/58/102 17/54/102 49/57/102
f 13/59/103 3/22/103 45/24/103
f 33/60/104 22/42/104 50/61/104
f 1/62/105 13/59/105 50/61/105
f 18/64/106 6/33/106 44/65/106
f 30/66/107 27/35/107 51/67/107
f 8/68/108 18/64/108 51/67/108
f 21/69/109 10/37/109 43/70/109
f 29/71/110 23/34/110 52/72/110
f 12/73/111 21/69/111 52/72/111
f 14/74/112 2/13/112 42/15/112
f 28/75/113 16/31/113 53/76/113
f 4/77/114 14/74/114 53/76/114
