# Blender 4.3.0
# www.blender.org
o Cylinder
v 0.000000 -3.812226 -26.704620
v 0.000000 3.466533 -26.255543
v 21.982307 -2.794826 -12.691492
v 21.701214 2.544960 -12.529202
v 21.813036 -2.644357 12.593762
v 20.312613 1.310628 11.727492
v 0.000000 -4.040798 27.001524
v 0.000000 3.390029 26.156176
v -21.248981 -2.142972 12.268105
v -23.149885 3.832688 13.365593
v -21.206995 -2.105648 -12.243865
v -21.776527 2.611905 -12.572683
v 11.802455 -4.454254 -20.442451
v 10.629844 2.109057 -18.411430
v 21.810276 -2.659639 0.000000
v 11.285654 -3.420663 19.547325
v 11.603333 4.056015 20.097563
v -10.196996 -1.243370 17.661715
v -11.827019 4.503382 20.484999
v -20.058819 -0.908201 0.000000
v -23.918736 4.768077 0.000000
v -11.278373 -3.406101 -19.534716
v -11.877174 4.603692 -20.571871
v 9.911538 0.000000 -17.167288
v 20.178566 0.000000 0.000000
v 10.234961 0.000000 17.727472
v -10.708562 0.000000 18.547773
v 10.825317 -0.451682 -6.250000
v -10.825317 3.168876 -6.250000
v 0.000000 -0.413112 12.500000
v -23.704504 0.000000 0.000000
v -12.173873 0.000000 -21.085768
v 0.000000 0.274773 -12.500000
v 10.825317 -4.597064 6.250000
v -10.825317 -5.293954 6.250000
v 16.237976 4.404729 3.125000
v -5.412659 4.005066 -15.625000
v -10.825317 0.358691 12.500000
v -10.825317 0.218211 -12.500000
v 16.237976 -5.259823 -3.125000
v -5.412659 -1.527206 15.625000
v 5.412659 3.453138 -15.625000
v -16.237976 0.425834 3.125000
v 10.825317 0.467214 12.500000
v 10.825317 0.055411 -12.500000
v 5.412659 -1.596603 15.625000
v -16.237976 -4.529170 -3.125000
v -16.237976 -2.633743 9.375000
v 16.237976 -4.759659 9.375000
v 0.000000 -3.268285 -18.750000
v 0.000000 -0.371932 18.750000
v -16.237976 2.420217 -9.375000
v 16.237976 5.267738 -9.375000
v -5.412659 -0.357819 -3.125000
v 5.412659 -2.846292 -3.125000
v 0.000000 -3.649936 6.250000
v 5.412659 3.844402 3.125000
v 0.000000 2.319651 -6.250000
v -5.412659 4.159534 3.125000
vn 0.3922 0.6472 -0.6537
vn 0.8524 0.5229 -0.0008
vn 0.4495 0.5232 0.7240
vn -0.2976 -0.6322 0.7153
vn 0.0509 0.9984 -0.0247
vn -0.2401 -0.9637 0.1168
vn -0.4869 -0.4648 -0.7395
vn -0.2357 -0.8975 -0.3728
vn 0.4050 -0.5629 -0.7205
vn 0.4087 -0.5593 0.7212
vn -0.4577 -0.4448 0.7698
vn 0.7114 0.6975 -0.0861
vn 0.0941 0.9956 -0.0025
vn 0.2172 0.8772 -0.4281
vn -0.9861 -0.0443 -0.1604
vn -0.4182 0.1273 -0.8994
vn 0.2067 -0.8751 0.4376
vn 0.4157 -0.9094 0.0153
vn -0.1250 -0.9797 -0.1570
vn -0.5491 -0.7969 0.2520
vn -0.4355 -0.9001 0.0118
vn -0.0007 -0.9861 0.1660
vn -0.3523 -0.9311 0.0946
vn -0.0822 -0.9925 0.0906
vn 0.3542 -0.9352 0.0011
vn -0.0176 -0.8704 0.4920
vn -0.0167 -0.8698 0.4931
vn 0.0074 -0.9976 0.0682
vn -0.6387 0.1259 -0.7591
vn -0.9975 -0.0448 0.0542
vn -0.0736 0.9046 -0.4198
vn -0.3559 0.9345 -0.0062
vn 0.2883 0.8537 -0.4336
vn 0.3074 0.8507 0.4264
vn 0.0041 0.9708 -0.2397
vn -0.0626 0.9839 0.1675
vn 0.3383 0.9219 0.1887
vn -0.6705 0.7237 0.1632
vn 0.5373 0.8114 0.2301
vn -0.4210 -0.4447 0.7906
vn 0.4769 -0.5578 0.6792
vn 0.4432 -0.5626 -0.6979
vn 0.0052 -0.9979 -0.0643
vn -0.2199 -0.9565 -0.1915
vn -0.0842 -0.9621 0.2593
vn -0.6774 -0.1322 -0.7236
vn -0.9375 -0.3223 0.1313
vn -0.0465 0.8977 -0.4382
vn 0.2375 0.9277 -0.2880
vn -0.3248 0.9417 0.0880
vn -0.5957 0.0908 0.7980
vn 0.4453 0.3495 0.8243
vn 0.9903 0.0482 0.1301
vn 0.6836 0.0449 -0.7284
vn 0.3569 0.0471 -0.9330
vn 0.9374 0.3448 -0.0493
vn 0.6502 0.0859 0.7549
vn -0.4436 -0.2965 0.8458
vn -0.9756 -0.1301 -0.1766
vn -0.4038 0.0563 -0.9131
vn -0.5638 -0.4605 -0.6856
vn -0.2400 -0.9633 -0.1202
vn -0.6204 -0.6082 0.4952
vn 0.4424 0.5233 0.7283
vn 0.8524 0.5229 0.0060
vn 0.3845 0.6472 -0.6583
vn 0.0650 0.9112 0.4069
vn -0.3200 0.9279 0.1914
vn 0.2592 0.9552 -0.1428
vn 0.0263 0.9044 0.4259
vn 0.0286 0.9839 -0.1766
vn 0.0773 0.9858 -0.1488
vn -0.0535 0.9313 0.3603
vn -0.0482 0.9305 0.3630
vn -0.0751 0.9235 0.3761
vn 0.1434 -0.9442 0.2966
vn -0.0063 -0.9761 0.2174
vn -0.0063 -0.9771 -0.2129
vn 0.1377 -0.9070 -0.3980
vn -0.2191 -0.9532 -0.2082
vn -0.0864 -0.9871 -0.1345
vn 0.1963 -0.9158 -0.3504
vn 0.3476 -0.9020 -0.2561
vn 0.3459 -0.8977 -0.2729
vn -0.0193 -0.9519 -0.3058
vn -0.2001 -0.8974 -0.3933
vn -0.2173 -0.9745 -0.0565
vn 0.2400 0.9375 0.2519
vn 0.0504 0.9876 0.1485
vn 0.0775 0.9881 0.1329
vn 0.3544 0.7309 -0.5832
vn 0.0168 0.9950 0.0984
vn 0.0634 0.8890 -0.4535
vn 0.0046 -0.8891 0.4578
vn 0.2982 -0.9245 0.2375
vn 0.0843 -0.9405 0.3292
vn -0.6218 -0.7716 0.1338
vn -0.2520 -0.9075 0.3360
vn -0.1620 -0.9801 -0.1144
vn -0.1214 -0.9570 -0.2634
vn 0.0726 -0.9816 -0.1767
vn 0.2241 -0.9461 0.2336
vn -0.2120 -0.8608 0.4627
vn -0.0237 -0.8697 0.4930
vn -0.0901 -0.9936 0.0679
vn -0.1140 0.9028 -0.4148
vn 0.3803 0.9248 -0.0061
vn -0.2764 0.8568 -0.4352
vn 0.4815 0.8758 0.0336
vn -0.1994 0.9735 0.1122
vn 0.1194 0.9817 -0.1480
vn 0.1980 0.9751 -0.0996
vn -0.4164 0.7066 0.5721
vn 0.1928 0.8829 -0.4282
vt 0.916667 0.750000
vt 0.833333 0.500000
vt 0.916667 0.500000
vt 0.750000 0.750000
vt 0.666667 0.500000
vt 0.750000 0.500000
vt 0.583333 0.750000
vt 0.500000 0.500000
vt 0.583333 0.500000
vt 0.416667 0.750000
vt 0.333333 0.500000
vt 0.416667 0.500000
vt 0.250000 0.490000
vt 0.198038 0.400000
vt 0.301962 0.400000
vt 0.250000 0.750000
vt 0.166667 0.500000
vt 0.250000 0.500000
vt 0.083333 0.750000
vt -0.000000 0.500000
vt 0.083333 0.500000
vt 0.957846 0.370000
vt 0.905885 0.280000
vt 0.853923 0.370000
vt 0.833333 1.000000
vt 0.916667 1.000000
vt 0.500000 1.000000
vt 0.583333 1.000000
vt 0.333333 1.000000
vt 0.416667 1.000000
vt 0.457846 0.250000
vt 0.405885 0.220000
vt 0.457846 0.130000
vt 0.146077 0.430000
vt 0.146077 0.070000
vt 0.146077 0.130000
vt 0.042154 0.130000
vt 0.166667 1.000000
vt 0.250000 1.000000
vt -0.000000 1.000000
vt 0.083333 1.000000
vt 0.646077 0.430000
vt 0.646077 0.370000
vt 0.542154 0.370000
vt 0.957846 0.250000
vt 0.646077 0.070000
vt 0.698038 0.100000
vt 0.750000 0.010000
vt 0.542154 0.250000
vt 0.594115 0.280000
vt 0.646077 0.190000
vt 0.594115 0.160000
vt 0.542154 0.130000
vt 0.853923 0.070000
vt 0.801962 0.100000
vt 0.853923 0.190000
vt 0.905885 0.160000
vt 0.957846 0.130000
vt 0.853923 0.430000
vt 0.750000 0.370000
vt 0.750000 0.430000
vt 0.750000 0.490000
vt 0.353923 0.070000
vt 0.353923 0.130000
vt 0.250000 0.130000
vt 0.250000 0.070000
vt 0.250000 0.010000
vt 0.042154 0.250000
vt 0.094115 0.220000
vt 0.146077 0.310000
vt 0.094115 0.340000
vt 0.042154 0.370000
vt 0.353923 0.430000
vt 0.353923 0.310000
vt 0.405885 0.340000
vt 0.457846 0.370000
vt 0.666667 1.000000
vt 1.000000 1.000000
vt 0.698038 0.280000
vt 0.801962 0.280000
vt 0.750000 0.190000
vt 0.301962 0.220000
vt 0.250000 0.310000
vt 0.198038 0.220000
vt 1.000000 0.500000
s 0
f 24/1/1 3/2/1 13/3/1
f 25/4/2 5/5/2 15/6/2
f 26/7/3 7/8/3 16/9/3
f 27/10/4 9/11/4 18/12/4
f 2/13/5 37/14/5 42/15/5
f 31/16/6 11/17/6 20/18/6
f 32/19/7 1/20/7 22/21/7
f 3/22/8 40/23/8 45/24/8
f 4/25/9 24/1/9 14/26/9
f 8/27/10 26/7/10 17/28/10
f 10/29/11 27/10/11 19/30/11
f 25/31/12 36/32/12 6/33/12
f 23/34/13 37/14/13 2/13/13
f 19/35/14 38/36/14 10/37/14
f 12/38/15 31/16/15 21/39/15
f 2/40/16 32/19/16 23/41/16
f 22/42/17 39/43/17 11/44/17
f 15/45/18 40/23/18 3/22/18
f 18/46/19 41/47/19 7/48/19
f 20/49/20 47/50/20 35/51/20
f 35/51/21 48/52/21 20/49/21
f 9/53/22 48/52/22 18/46/22
f 16/54/23 46/55/23 34/56/23
f 34/56/24 49/57/24 16/54/24
f 5/58/25 49/57/25 15/45/25
f 13/59/26 45/24/26 33/60/26
f 33/60/27 50/61/27 13/59/27
f 1/62/28 50/61/28 22/42/28
f 12/38/29 23/41/29 32/19/29
f 10/29/30 21/39/30 31/16/30
f 17/63/31 44/64/31 30/65/31
f 30/65/32 51/66/32 17/63/32
f 8/67/33 51/66/33 19/35/33
f 21/68/34 43/69/34 29/70/34
f 29/70/35 52/71/35 21/68/35
f 12/72/36 52/71/36 23/34/36
f 14/73/37 42/15/37 28/74/37
f 28/74/38 53/75/38 14/73/38
f 4/76/39 53/75/39 25/31/39
f 8/27/40 19/30/40 27/10/40
f 6/77/41 17/28/41 26/7/41
f 2/78/42 14/26/42 24/1/42
f 33/60/43 54/79/43 39/43/43
f 33/60/44 55/80/44 54/79/44
f 34/56/45 46/55/45 56/81/45
f 32/19/46 11/17/46 12/38/46
f 31/16/47 9/11/47 10/29/47
f 28/74/48 57/82/48 36/32/48
f 28/74/49 58/83/49 57/82/49
f 29/70/50 43/69/50 59/84/50
f 27/10/51 7/8/51 8/27/51
f 26/7/52 5/5/52 6/77/52
f 25/4/53 3/2/53 4/25/53
f 24/1/54 1/85/54 2/78/54
f 4/25/55 3/2/55 24/1/55
f 6/77/56 5/5/56 25/4/56
f 8/27/57 7/8/57 26/7/57
f 10/29/58 9/11/58 27/10/58
f 12/38/59 11/17/59 31/16/59
f 2/40/60 1/20/60 32/19/60
f 32/19/61 22/21/61 11/17/61
f 31/16/62 20/18/62 9/11/62
f 27/10/63 18/12/63 7/8/63
f 26/7/64 16/9/64 5/5/64
f 25/4/65 15/6/65 3/2/65
f 24/1/66 13/3/66 1/85/66
f 59/84/67 38/36/67 30/65/67
f 59/84/68 43/69/68 38/36/68
f 43/69/69 10/37/69 38/36/69
f 57/82/70 59/84/70 30/65/70
f 57/82/71 58/83/71 59/84/71
f 58/83/72 29/70/72 59/84/72
f 36/32/73 44/64/73 6/33/73
f 36/32/74 57/82/74 44/64/74
f 57/82/75 30/65/75 44/64/75
f 56/81/76 41/47/76 35/51/76
f 56/81/77 46/55/77 41/47/77
f 46/55/78 7/48/78 41/47/78
f 54/79/79 56/81/79 35/51/79
f 54/79/80 55/80/80 56/81/80
f 55/80/81 34/56/81 56/81/81
f 39/43/82 47/50/82 11/44/82
f 39/43/83 54/79/83 47/50/83
f 54/79/84 35/51/84 47/50/84
f 45/24/85 55/80/85 33/60/85
f 45/24/86 40/23/86 55/80/86
f 40/23/87 34/56/87 55/80/87
f 42/15/88 58/83/88 28/74/88
f 42/15/89 37/14/89 58/83/89
f 37/14/90 29/70/90 58/83/90
f 25/31/91 28/74/91 36/32/91
f 23/34/92 29/70/92 37/14/92
f 19/35/93 30/65/93 38/36/93
f 22/42/94 33/60/94 39/43/94
f 15/45/95 34/56/95 40/23/95
f 18/46/96 35/51/96 41/47/96
f 20/49/97 11/44/97 47/50/97
f 35/51/98 18/46/98 48/52/98
f 9/53/99 20/49/99 48/52/99
f 16/54/100 7/48/100 46/55/100
f 34/56/101 15/45/101 49/57/101
f 5/58/102 16/54/102 49/57/102
f 13/59/103 3/22/103 45/24/103
f 33/60/104 22/42/104 50/61/104
f 1/62/105 13/59/105 50/61/105
f 17/63/106 6/33/106 44/64/106
f 30/65/107 19/35/107 51/66/107
f 8/67/108 17/63/108 51/66/108
f 21/68/109 10/37/109 43/69/109
f 29/70/110 23/34/110 52/71/110
f 12/72/111 21/68/111 52/71/111
f 14/73/112 2/13/112 42/15/112
f 28/74/113 25/31/113 53/75/113
f 4/76/114 14/73/114 53/75/114
