# Blender 4.3.0
# www.blender.org
o Cylinder
v 0.000000 -3.377684 -26.140139
v 0.000000 2.502608 -25.003387
v 22.642477 -3.381651 -13.072640
v 20.334402 1.330008 -11.740072
v 23.046320 -3.740617 13.305799
v 20.359331 1.352157 11.754465
v 0.000000 -1.112673 23.197838
v 0.000000 2.331541 24.781166
v -21.466406 -2.336241 12.393636
v -21.626213 2.478292 12.485901
v -20.614702 -1.579156 -11.901904
v -21.166765 2.069892 -12.220638
v 11.800902 -4.451149 -20.439762
v 11.092900 3.035161 -19.213469
v 22.037313 -2.886674 0.000000
v 23.805588 4.654930 0.000000
v 11.599726 -4.048800 20.091314
v 10.336103 1.521582 17.902657
v -11.539883 -3.929116 19.987663
v -10.129814 1.109008 17.545353
v -20.350212 -1.199592 0.000000
v -22.114401 2.963761 0.000000
v -11.432507 -3.714365 -19.801682
v -11.658880 4.167107 -20.193773
v 11.984620 0.000000 -20.757971
v 22.154301 0.000000 0.000000
v 10.191669 0.000000 17.652489
v -9.253480 0.000000 16.027498
v 10.825317 2.489604 -6.250000
v -10.825317 4.740028 -6.250000
v 0.000000 2.385788 12.500000
v -23.360180 0.000000 0.000000
v -9.633792 0.000000 -16.686216
v 0.000000 -3.856079 -12.500000
v 10.825317 -1.519379 6.250000
v -10.825317 -1.945364 6.250000
v 16.237976 1.287173 3.125000
v -5.412659 4.898542 -15.625000
v -10.825317 2.322129 12.500000
v -10.825317 -1.117704 -12.500000
v 16.237976 -2.349986 -3.125000
v -5.412659 -1.333900 15.625000
v 5.412659 3.826277 -15.625000
v -16.237976 4.534229 3.125000
v 10.825317 4.024400 12.500000
v 10.825317 -2.195399 -12.500000
v 5.412659 -4.928175 15.625000
v -16.237976 0.203158 -3.125000
v -16.237976 -2.001372 9.375000
v 16.237976 -0.917542 9.375000
v 0.000000 -2.979204 -18.750000
v 0.000000 3.019061 18.750000
v -16.237976 5.312320 -9.375000
v 16.237976 0.024473 -9.375000
v -5.412659 -4.864364 -3.125000
v 5.412659 -1.219166 -3.125000
v 0.000000 -3.692518 6.250000
v 5.412659 4.787187 3.125000
v 0.000000 4.564937 -6.250000
v -5.412659 2.860859 3.125000
vn 0.5657 -0.0820 -0.8205
vn 0.9961 -0.0404 -0.0781
vn 0.3441 0.5694 0.7466
vn -0.3149 0.7584 0.5707
vn 0.0967 0.9763 -0.1936
vn -0.3700 -0.9283 0.0378
vn -0.3639 0.6957 -0.6194
vn -0.0979 -0.9944 0.0401
vn 0.5995 0.4958 -0.6282
vn 0.9272 -0.3289 0.1794
vn 0.5342 -0.1863 0.8246
vn -0.2968 -0.8445 0.4457
vn -0.3461 0.9247 0.1583
vn 0.0478 0.9740 -0.2213
vn 0.0138 0.9726 0.2320
vn -0.9173 0.3856 -0.0993
vn -0.3562 -0.6970 -0.6224
vn 0.0645 -0.9419 0.3296
vn -0.1095 -0.9935 0.0325
vn 0.2783 -0.9451 -0.1713
vn 0.1106 -0.9529 -0.2822
vn -0.0310 -0.9969 -0.0716
vn -0.0321 -0.9858 -0.1649
vn 0.2697 -0.9445 -0.1877
vn 0.2147 -0.9586 -0.1872
vn -0.3671 -0.9296 -0.0318
vn 0.1453 -0.9469 0.2869
vn -0.1420 -0.9803 -0.1375
vn 0.0592 -0.9968 0.0537
vn -0.3643 -0.6970 -0.6177
vn -0.9207 0.3870 0.0510
vn -0.1368 0.9035 0.4062
vn 0.1346 0.9858 -0.0999
vn -0.1969 0.9741 0.1110
vn -0.2077 0.9732 -0.0985
vn -0.0278 0.9736 0.2265
vn -0.4166 0.8686 -0.2683
vn 0.1656 0.9852 0.0449
vn 0.4363 0.8986 0.0468
vn -0.3767 0.9145 -0.1476
vn -0.2399 -0.8446 0.4786
vn 0.5114 -0.1865 0.8389
vn 0.9269 -0.3288 -0.1809
vn 0.3800 0.5057 -0.7745
vn -0.2381 -0.9414 -0.2387
vn 0.3180 -0.9445 0.0820
vn 0.1913 -0.9527 -0.2360
vn -0.3790 -0.1373 -0.9152
vn -0.9889 -0.0356 0.1444
vn 0.3072 0.9500 -0.0555
vn 0.1867 0.9737 -0.1309
vn 0.1519 0.9823 0.1092
vn -0.6022 -0.3335 0.7254
vn 0.4011 0.4540 0.7956
vn 0.8850 0.4577 -0.0853
vn 0.3613 0.1770 -0.9155
vn 0.6085 0.4774 -0.6339
vn 0.8718 0.4836 0.0775
vn 0.4751 -0.3675 0.7995
vn -0.2802 -0.0277 0.9595
vn -0.9658 -0.1637 -0.2011
vn -0.6677 0.1413 -0.7309
vn -0.3687 0.6957 -0.6165
vn -0.3676 -0.9225 -0.1177
vn -0.3398 0.7584 0.5562
vn 0.4072 0.5710 0.7128
vn 0.9980 -0.0404 0.0477
vn 0.4274 -0.0820 -0.9003
vn -0.0059 0.9985 0.0540
vn 0.1512 0.9780 0.1435
vn 0.0138 0.9749 0.2221
vn -0.1732 0.9735 0.1493
vn -0.1747 0.9816 0.0776
vn 0.0159 0.9821 0.1877
vn 0.2581 0.9573 -0.1305
vn 0.3061 0.9468 -0.0997
vn -0.1476 0.9753 0.1646
vn -0.1574 -0.9754 0.1545
vn -0.3146 -0.9475 0.0567
vn -0.3055 -0.9201 0.2452
vn -0.1558 -0.9651 0.2106
vn 0.3184 -0.9457 -0.0656
vn 0.1948 -0.9703 -0.1435
vn 0.0568 -0.9836 0.1714
vn -0.4211 -0.8995 -0.1164
vn -0.4237 -0.9051 0.0372
vn 0.1490 -0.9710 0.1871
vn -0.1038 -0.9936 0.0435
vn -0.1039 -0.9942 0.0281
vn 0.1882 0.9816 0.0313
vn 0.0985 0.9949 -0.0215
vn 0.0162 0.9995 0.0262
vn -0.2894 0.9140 0.2843
vn -0.0906 0.9953 -0.0355
vn -0.0057 0.9721 0.2345
vn -0.2304 -0.9106 0.3430
vn -0.1064 -0.9940 0.0267
vn 0.3137 -0.9419 -0.1197
vn 0.3380 -0.9409 0.0225
vn -0.0743 -0.9864 -0.1463
vn 0.0117 -0.9958 -0.0903
vn -0.1345 -0.9202 0.3675
vn -0.0073 -0.9795 0.2012
vn -0.1811 -0.9201 -0.3472
vn -0.0838 -0.9612 0.2628
vn 0.0762 -0.9874 -0.1385
vn -0.1161 -0.9918 0.0535
vn 0.2750 0.8626 0.4245
vn -0.1730 0.9799 -0.0993
vn 0.1515 0.9821 0.1120
vn -0.2818 0.9583 0.0483
vn 0.1327 0.9900 -0.0486
vn -0.5050 0.8571 -0.1019
vn 0.0362 0.9864 -0.1601
vn 0.0996 0.8579 -0.5041
vn -0.1020 0.9351 0.3395
vt 0.916667 0.750000
vt 0.833333 0.500000
vt 0.916667 0.500000
vt 0.750000 0.750000
vt 0.666667 0.500000
vt 0.750000 0.500000
vt 0.583333 0.750000
vt 0.500000 0.500000
vt 0.583333 0.500000
vt 0.416667 0.750000
vt 0.333333 0.500000
vt 0.416667 0.500000
vt 0.250000 0.490000
vt 0.198038 0.400000
vt 0.301962 0.400000
vt 0.250000 0.750000
vt 0.166667 0.500000
vt 0.250000 0.500000
vt 0.083333 0.750000
vt -0.000000 0.500000
vt 0.083333 0.500000
vt 0.957846 0.370000
vt 0.905885 0.280000
vt 0.853923 0.370000
vt 0.833333 1.000000
vt 0.916667 1.000000
vt 0.666667 1.000000
vt 0.750000 1.000000
vt 0.500000 1.000000
vt 0.583333 1.000000
vt 0.333333 1.000000
vt 0.416667 1.000000
vt 0.457846 0.250000
vt 0.405885 0.220000
vt 0.457846 0.130000
vt 0.146077 0.430000
vt 0.146077 0.070000
vt 0.146077 0.130000
vt 0.042154 0.130000
vt 0.166667 1.000000
vt 0.250000 1.000000
vt -0.000000 1.000000
vt 0.083333 1.000000
vt 0.646077 0.430000
vt 0.646077 0.370000
vt 0.542154 0.370000
vt 0.957846 0.250000
vt 0.646077 0.070000
vt 0.698038 0.100000
vt 0.750000 0.010000
vt 0.542154 0.250000
vt 0.594115 0.280000
vt 0.646077 0.190000
vt 0.594115 0.160000
vt 0.542154 0.130000
vt 0.853923 0.070000
vt 0.801962 0.100000
vt 0.853923 0.190000
vt 0.905885 0.160000
vt 0.957846 0.130000
vt 0.853923 0.430000
vt 0.750000 0.370000
vt 0.750000 0.430000
vt 0.750000 0.490000
vt 0.353923 0.070000
vt 0.353923 0.130000
vt 0.250000 0.130000
vt 0.250000 0.070000
vt 0.250000 0.010000
vt 0.042154 0.250000
vt 0.094115 0.220000
vt 0.146077 0.310000
vt 0.094115 0.340000
vt 0.042154 0.370000
vt 0.353923 0.430000
vt 0.353923 0.310000
vt 0.405885 0.340000
vt 0.457846 0.370000
vt 1.000000 1.000000
vt 0.698038 0.280000
vt 0.801962 0.280000
vt 0.750000 0.190000
vt 0.301962 0.220000
vt 0.250000 0.310000
vt 0.198038 0.220000
vt 1.000000 0.500000
s 0
f 25/1/1 3/2/1 13/3/1
f 26/4/2 5/5/2 15/6/2
f 27/7/3 7/8/3 17/9/3
f 28/10/4 9/11/4 19/12/4
f 2/13/5 38/14/5 43/15/5
f 32/16/6 11/17/6 21/18/6
f 33/19/7 1/20/7 23/21/7
f 3/22/8 41/23/8 46/24/8
f 4/25/9 25/1/9 14/26/9
f 6/27/10 26/4/10 16/28/10
f 8/29/11 27/7/11 18/30/11
f 10/31/12 28/10/12 20/32/12
f 16/33/13 37/34/13 6/35/13
f 24/36/14 38/14/14 2/13/14
f 20/37/15 39/38/15 10/39/15
f 12/40/16 32/16/16 22/41/16
f 2/42/17 33/19/17 24/43/17
f 23/44/18 40/45/18 11/46/18
f 15/47/19 41/23/19 3/22/19
f 19/48/20 42/49/20 7/50/20
f 21/51/21 48/52/21 36/53/21
f 36/53/22 49/54/22 21/51/22
f 9/55/23 49/54/23 19/48/23
f 17/56/24 47/57/24 35/58/24
f 35/58/25 50/59/25 17/56/25
f 5/60/26 50/59/26 15/47/26
f 13/61/27 46/24/27 34/62/27
f 34/62/28 51/63/28 13/61/28
f 1/64/29 51/63/29 23/44/29
f 12/40/30 24/43/30 33/19/30
f 10/31/31 22/41/31 32/16/31
f 18/65/32 45/66/32 31/67/32
f 31/67/33 52/68/33 18/65/33
f 8/69/34 52/68/34 20/37/34
f 22/70/35 44/71/35 30/72/35
f 30/72/36 53/73/36 22/70/36
f 12/74/37 53/73/37 24/36/37
f 14/75/38 43/15/38 29/76/38
f 29/76/39 54/77/39 14/75/39
f 4/78/40 54/77/40 16/33/40
f 8/29/41 20/32/41 28/10/41
f 6/27/42 18/30/42 27/7/42
f 4/25/43 16/28/43 26/4/43
f 2/79/44 14/26/44 25/1/44
f 34/62/45 55/80/45 40/45/45
f 34/62/46 56/81/46 55/80/46
f 35/58/47 47/57/47 57/82/47
f 33/19/48 11/17/48 12/40/48
f 32/16/49 9/11/49 10/31/49
f 29/76/50 58/83/50 37/34/50
f 29/76/51 59/84/51 58/83/51
f 30/72/52 44/71/52 60/85/52
f 28/10/53 7/8/53 8/29/53
f 27/7/54 5/5/54 6/27/54
f 26/4/55 3/2/55 4/25/55
f 25/1/56 1/86/56 2/79/56
f 4/25/57 3/2/57 25/1/57
f 6/27/58 5/5/58 26/4/58
f 8/29/59 7/8/59 27/7/59
f 10/31/60 9/11/60 28/10/60
f 12/40/61 11/17/61 32/16/61
f 2/42/62 1/20/62 33/19/62
f 33/19/63 23/21/63 11/17/63
f 32/16/64 21/18/64 9/11/64
f 28/10/65 19/12/65 7/8/65
f 27/7/66 17/9/66 5/5/66
f 26/4/67 15/6/67 3/2/67
f 25/1/68 13/3/68 1/86/68
f 60/85/69 39/38/69 31/67/69
f 60/85/70 44/71/70 39/38/70
f 44/71/71 10/39/71 39/38/71
f 58/83/72 60/85/72 31/67/72
f 58/83/73 59/84/73 60/85/73
f 59/84/74 30/72/74 60/85/74
f 37/34/75 45/66/75 6/35/75
f 37/34/76 58/83/76 45/66/76
f 58/83/77 31/67/77 45/66/77
f 57/82/78 42/49/78 36/53/78
f 57/82/79 47/57/79 42/49/79
f 47/57/80 7/50/80 42/49/80
f 55/80/81 57/82/81 36/53/81
f 55/80/82 56/81/82 57/82/82
f 56/81/83 35/58/83 57/82/83
f 40/45/84 48/52/84 11/46/84
f 40/45/85 55/80/85 48/52/85
f 55/80/86 36/53/86 48/52/86
f 46/24/87 56/81/87 34/62/87
f 46/24/88 41/23/88 56/81/88
f 41/23/89 35/58/89 56/81/89
f 43/15/90 59/84/90 29/76/90
f 43/15/91 38/14/91 59/84/91
f 38/14/92 30/72/92 59/84/92
f 16/33/93 29/76/93 37/34/93
f 24/36/94 30/72/94 38/14/94
f 20/37/95 31/67/95 39/38/95
f 23/44/96 34/62/96 40/45/96
f 15/47/97 35/58/97 41/23/97
f 19/48/98 36/53/98 42/49/98
f 21/51/99 11/46/99 48/52/99
f 36/53/100 19/48/100 49/54/100
f 9/55/101 21/51/101 49/54/101
f 17/56/102 7/50/102 47/57/102
f 35/58/103 15/47/103 50/59/103
f 5/60/104 17/56/104 50/59/104
f 13/61/105 3/22/105 46/24/105
f 34/62/106 23/44/106 51/63/106
f 1/64/107 13/61/107 51/63/107
f 18/65/108 6/35/108 45/66/108
f 31/67/109 20/37/109 52/68/109
f 8/69/110 18/65/110 52/68/110
f 22/70/111 10/39/111 44/71/111
f 30/72/112 24/36/112 53/73/112
f 12/74/113 22/70/113 53/73/113
f 14/75/114 2/13/114 43/15/114
f 29/76/115 16/33/115 54/77/115
f 4/78/116 14/75/116 54/77/116
