# Blender 4.3.0
# www.blender.org
o Cylinder
v 0.000000 -3.849726 -26.753336
v 0.000000 3.035699 -25.695883
v 21.234320 -2.129936 -12.259640
v 21.326904 2.212238 -12.313094
v 21.204044 -2.103028 12.242161
v 22.452356 3.212654 12.962874
v 0.000000 -1.717664 23.983730
v 0.000000 0.682210 22.638636
v -21.160412 -2.064244 12.216970
v -20.518776 1.493887 11.846521
v -19.834824 -0.885920 -11.451641
v -21.631901 2.483347 -12.489183
v 11.535849 -3.921048 -19.980677
v 10.650719 2.150806 -18.447586
v 21.353617 -2.202985 0.000000
v 20.648956 1.498332 0.000000
v 9.817256 -0.483899 17.003986
v 11.855210 4.559765 20.533827
v -10.231426 -1.312230 17.721350
v -10.770732 2.390830 18.655455
v -21.618839 -2.468205 0.000000
v -22.100027 2.949388 0.000000
v -10.435866 -1.721107 -18.075451
v -10.716049 2.281466 -18.560741
v 11.322544 0.000000 -19.611221
v 23.771584 0.000000 0.000000
v 11.577918 0.000000 20.053543
v -10.583616 0.000000 18.331362
v 10.825317 2.623986 -6.250000
v -10.825317 1.588586 -6.250000
v 0.000000 1.698866 12.500000
v -20.267923 0.000000 0.000000
v -11.930213 0.000000 -20.663734
v 0.000000 -0.369466 -12.500000
v 10.825317 -2.683948 6.250000
v -10.825317 -3.374375 6.250000
v 16.237976 3.697263 3.125000
v -5.412659 1.030097 -15.625000
v -10.825317 2.742177 12.500000
v -10.825317 -3.925202 -12.500000
v 16.237976 -2.478191 -3.125000
v -5.412659 -2.803632 15.625000
v 5.412659 1.644968 -15.625000
v -16.237976 4.074203 3.125000
v 10.825317 2.257484 12.500000
v 10.825317 -1.006060 -12.500000
v 5.412659 -4.439862 15.625000
v -16.237976 -3.696795 -3.125000
v -16.237976 -4.022955 9.375000
v 16.237976 -1.882402 9.375000
v 0.000000 -0.596405 -18.750000
v 0.000000 2.327180 18.750000
v -16.237976 -0.464364 -9.375000
v 16.237976 3.092408 -9.375000
v -5.412659 -2.374004 -3.125000
v 5.412659 -0.819415 -3.125000
v 0.000000 -5.336071 6.250000
v 5.412659 0.756340 3.125000
v 0.000000 -0.320368 -6.250000
v -5.412659 1.866617 3.125000
vn 0.6071 0.1072 -0.7874
vn 0.6734 -0.7391 0.0143
vn 0.1664 -0.9842 0.0601
vn -0.3706 -0.4715 0.8002
vn -0.0559 0.9845 0.1660
vn -0.8750 0.4789 -0.0701
vn -0.4325 -0.8457 -0.3127
vn -0.1047 -0.9900 -0.0950
vn 0.4202 0.5298 -0.7367
vn 0.4258 0.8874 -0.1766
vn 0.2100 -0.1150 0.9709
vn -0.5562 -0.1542 0.8166
vn 0.3408 0.9247 -0.1697
vn 0.0936 0.9656 0.2426
vn -0.1313 0.9897 0.0577
vn -0.8494 -0.5276 -0.0121
vn -0.4158 0.7261 -0.5477
vn -0.3354 -0.8679 -0.3665
vn 0.0577 -0.9983 -0.0065
vn -0.1877 -0.9511 0.2451
vn -0.1530 -0.9807 0.1221
vn 0.0178 -0.9847 -0.1735
vn -0.1352 -0.9097 0.3927
vn 0.6151 -0.7591 0.2130
vn 0.0278 -0.9788 0.2029
vn -0.0487 -0.9988 0.0076
vn -0.0548 -0.9321 0.3580
vn -0.2733 -0.9613 0.0349
vn 0.1232 -0.9193 0.3737
vn -0.3226 0.7286 -0.6042
vn -0.8485 -0.5270 0.0485
vn -0.0496 0.9618 -0.2693
vn -0.1698 0.9805 -0.0986
vn 0.0020 0.9210 0.3896
vn -0.0371 0.9604 -0.2761
vn -0.1129 0.9089 -0.4015
vn 0.2440 0.8791 0.4095
vn -0.1157 0.9926 -0.0368
vn -0.1073 0.9935 -0.0370
vn 0.2080 0.9758 0.0680
vn -0.3640 -0.1530 0.9187
vn 0.5669 -0.1203 0.8149
vn 0.4314 0.8990 0.0759
vn 0.5076 0.5272 -0.6815
vn 0.3120 -0.9498 -0.0230
vn 0.1410 -0.9816 -0.1285
vn 0.2377 -0.9703 -0.0445
vn -0.6258 -0.5143 -0.5864
vn -0.9840 0.1730 -0.0427
vn -0.2619 0.9642 0.0409
vn -0.2622 0.9641 0.0407
vn 0.1978 0.9698 -0.1429
vn -0.3605 0.4560 0.8137
vn 0.5791 -0.2416 0.7787
vn 0.9798 -0.0233 -0.1987
vn 0.4964 0.1318 -0.8580
vn 0.5924 -0.0225 -0.8053
vn 0.9563 -0.2460 0.1583
vn 0.2182 0.4771 0.8513
vn -0.5184 0.1805 0.8359
vn -0.8827 -0.4699 0.0030
vn -0.4146 0.1381 -0.8995
vn -0.3414 -0.8615 -0.3758
vn -0.8771 0.4800 0.0170
vn -0.4736 -0.4726 0.7432
vn -0.0599 -0.9799 0.1901
vn 0.6734 -0.7392 -0.0110
vn 0.5038 0.1082 -0.8570
vn 0.0959 0.9947 -0.0375
vn 0.1998 0.9796 0.0238
vn -0.1391 0.9661 0.2176
vn 0.1019 0.9939 -0.0411
vn 0.1005 0.9802 -0.1706
vn 0.1722 0.9767 -0.1284
vn -0.0855 0.9910 0.1028
vn -0.2622 0.9650 -0.0032
vn -0.0511 0.9903 -0.1291
vn -0.1760 -0.9712 0.1607
vn -0.1471 -0.9730 0.1779
vn -0.1458 -0.9646 0.2197
vn -0.1746 -0.9634 -0.2036
vn 0.1322 -0.9207 -0.3672
vn 0.2259 -0.9222 -0.3139
vn -0.3327 -0.9277 -0.1695
vn 0.1208 -0.9882 0.0938
vn 0.1212 -0.9920 -0.0359
vn -0.0587 -0.9982 -0.0140
vn -0.1511 -0.9862 -0.0676
vn -0.1506 -0.9826 -0.1085
vn -0.2621 0.9637 0.0507
vn -0.0558 0.9832 0.1739
vn 0.1735 0.9840 0.0416
vn 0.2740 0.9248 -0.2640
vn 0.1994 0.9783 0.0568
vn 0.0958 0.9938 0.0559
vn 0.2942 -0.8957 -0.3335
vn 0.0496 -0.9987 0.0067
vn -0.2169 -0.9588 0.1836
vn -0.3161 -0.9319 -0.1780
vn 0.2094 -0.9642 0.1625
vn -0.3473 -0.9367 0.0440
vn 0.4672 -0.7058 0.5324
vn 0.0968 -0.9915 0.0867
vn -0.1001 -0.9902 0.0972
vn -0.1085 -0.9297 0.3520
vn 0.1094 -0.9933 0.0361
vn -0.2212 -0.9034 0.3672
vn -0.0684 0.9613 -0.2667
vn 0.0068 0.9950 -0.1000
vn -0.2261 0.8971 0.3795
vn -0.2639 0.9525 0.1522
vn -0.3787 0.9243 0.0487
vn 0.4859 0.8739 -0.0144
vn -0.0170 0.9892 0.1457
vn 0.0090 0.9865 0.1635
vn 0.0821 0.9848 -0.1528
vt 0.916667 0.750000
vt 0.833333 0.500000
vt 0.916667 0.500000
vt 0.750000 0.750000
vt 0.666667 0.500000
vt 0.750000 0.500000
vt 0.583333 0.750000
vt 0.500000 0.500000
vt 0.583333 0.500000
vt 0.416667 0.750000
vt 0.333333 0.500000
vt 0.416667 0.500000
vt 0.250000 0.490000
vt 0.198038 0.400000
vt 0.301962 0.400000
vt 0.250000 0.750000
vt 0.166667 0.500000
vt 0.250000 0.500000
vt 0.083333 0.750000
vt -0.000000 0.500000
vt 0.083333 0.500000
vt 0.957846 0.370000
vt 0.905885 0.280000
vt 0.853923 0.370000
vt 0.833333 1.000000
vt 0.916667 1.000000
vt 0.666667 1.000000
vt 0.750000 1.000000
vt 0.500000 1.000000
vt 0.583333 1.000000
vt 0.333333 1.000000
vt 0.416667 1.000000
vt 0.457846 0.250000
vt 0.405885 0.220000
vt 0.457846 0.130000
vt 0.146077 0.430000
vt 0.146077 0.070000
vt 0.146077 0.130000
vt 0.042154 0.130000
vt 0.166667 1.000000
vt 0.250000 1.000000
vt -0.000000 1.000000
vt 0.083333 1.000000
vt 0.646077 0.430000
vt 0.646077 0.370000
vt 0.542154 0.370000
vt 0.957846 0.250000
vt 0.646077 0.070000
vt 0.698038 0.100000
vt 0.750000 0.010000
vt 0.542154 0.250000
vt 0.594115 0.280000
vt 0.646077 0.190000
vt 0.594115 0.160000
vt 0.542154 0.130000
vt 0.853923 0.070000
vt 0.801962 0.100000
vt 0.853923 0.190000
vt 0.905885 0.160000
vt 0.957846 0.130000
vt 0.853923 0.430000
vt 0.750000 0.370000
vt 0.750000 0.430000
vt 0.750000 0.490000
vt 0.353923 0.070000
vt 0.353923 0.130000
vt 0.250000 0.130000
vt 0.250000 0.070000
vt 0.250000 0.010000
vt 0.042154 0.250000
vt 0.094115 0.220000
vt 0.146077 0.310000
vt 0.094115 0.340000
vt 0.042154 0.370000
vt 0.353923 0.430000
vt 0.353923 0.310000
vt 0.405885 0.340000
vt 0.457846 0.370000
vt 1.000000 1.000000
vt 0.698038 0.280000
vt 0.801962 0.280000
vt 0.750000 0.190000
vt 0.301962 0.220000
vt 0.250000 0.310000
vt 0.198038 0.220000
vt 1.000000 0.500000
s 0
f 25/1/1 3/2/1 13/3/1
f 26/4/2 5/5/2 15/6/2
f 27/7/3 7/8/3 17/9/3
f 28/10/4 9/11/4 19/12/4
f 2/13/5 38/14/5 43/15/5
f 32/16/6 11/17/6 21/18/6
f 33/19/7 1/20/7 23/21/7
f 3/22/8 41/23/8 46/24/8
f 4/25/9 25/1/9 14/26/9
f 6/27/10 26/4/10 16/28/10
f 8/29/11 27/7/11 18/30/11
f 10/31/12 28/10/12 20/32/12
f 16/33/13 37/34/13 6/35/13
f 24/36/14 38/14/14 2/13/14
f 20/37/15 39/38/15 10/39/15
f 12/40/16 32/16/16 22/41/16
f 2/42/17 33/19/17 24/43/17
f 23/44/18 40/45/18 11/46/18
f 15/47/19 41/23/19 3/22/19
f 19/48/20 42/49/20 7/50/20
f 21/51/21 48/52/21 36/53/21
f 36/53/22 49/54/22 21/51/22
f 9/55/23 49/54/23 19/48/23
f 17/56/24 47/57/24 35/58/24
f 35/58/25 50/59/25 17/56/25
f 5/60/26 50/59/26 15/47/26
f 13/61/27 46/24/27 34/62/27
f 34/62/28 51/63/28 13/61/28
f 1/64/29 51/63/29 23/44/29
f 12/40/30 24/43/30 33/19/30
f 10/31/31 22/41/31 32/16/31
f 18/65/32 45/66/32 31/67/32
f 31/67/33 52/68/33 18/65/33
f 8/69/34 52/68/34 20/37/34
f 22/70/35 44/71/35 30/72/35
f 30/72/36 53/73/36 22/70/36
f 12/74/37 53/73/37 24/36/37
f 14/75/38 43/15/38 29/76/38
f 29/76/39 54/77/39 14/75/39
f 4/78/40 54/77/40 16/33/40
f 8/29/41 20/32/41 28/10/41
f 6/27/42 18/30/42 27/7/42
f 4/25/43 16/28/43 26/4/43
f 2/79/44 14/26/44 25/1/44
f 34/62/45 55/80/45 40/45/45
f 34/62/46 56/81/46 55/80/46
f 35/58/47 47/57/47 57/82/47
f 33/19/48 11/17/48 12/40/48
f 32/16/49 9/11/49 10/31/49
f 29/76/50 58/83/50 37/34/50
f 29/76/51 59/84/51 58/83/51
f 30/72/52 44/71/52 60/85/52
f 28/10/53 7/8/53 8/29/53
f 27/7/54 5/5/54 6/27/54
f 26/4/55 3/2/55 4/25/55
f 25/1/56 1/86/56 2/79/56
f 4/25/57 3/2/57 25/1/57
f 6/27/58 5/5/58 26/4/58
f 8/29/59 7/8/59 27/7/59
f 10/31/60 9/11/60 28/10/60
f 12/40/61 11/17/61 32/16/61
f 2/42/62 1/20/62 33/19/62
f 33/19/63 23/21/63 11/17/63
f 32/16/64 21/18/64 9/11/64
f 28/10/65 19/12/65 7/8/65
f 27/7/66 17/9/66 5/5/66
f 26/4/67 15/6/67 3/2/67
f 25/1/68 13/3/68 1/86/68
f 60/85/69 39/38/69 31/67/69
f 60/85/70 44/71/70 39/38/70
f 44/71/71 10/39/71 39/38/71
f 58/83/72 60/85/72 31/67/72
f 58/83/73 59/84/73 60/85/73
f 59/84/74 30/72/74 60/85/74
f 37/34/75 45/66/75 6/35/75
f 37/34/76 58/83/76 45/66/76
f 58/83/77 31/67/77 45/66/77
f 57/82/78 42/49/78 36/53/78
f 57/82/79 47/57/79 42/49/79
f 47/57/80 7/50/80 42/49/80
f 55/80/81 57/82/81 36/53/81
f 55/80/82 56/81/82 57/82/82
f 56/81/83 35/58/83 57/82/83
f 40/45/84 48/52/84 11/46/84
f 40/45/85 55/80/85 48/52/85
f 55/80/86 36/53/86 48/52/86
f 46/24/87 56/81/87 34/62/87
f 46/24/88 41/23/88 56/81/88
f 41/23/89 35/58/89 56/81/89
f 43/15/90 59/84/90 29/76/90
f 43/15/91 38/14/91 59/84/91
f 38/14/92 30/72/92 59/84/92
f 16/33/93 29/76/93 37/34/93
f 24/36/94 30/72/94 38/14/94
f 20/37/95 31/67/95 39/38/95
f 23/44/96 34/62/96 40/45/96
f 15/47/97 35/58/97 41/23/97
f 19/48/98 36/53/98 42/49/98
f 21/51/99 11/46/99 48/52/99
f 36/53/100 19/48/100 49/54/100
f 9/55/101 21/51/101 49/54/101
f 17/56/102 7/50/102 47/57/102
f 35/58/103 15/47/103 50/59/103
f 5/60/104 17/56/104 50/59/104
f 13/61/105 3/22/105 46/24/105
f 34/62/106 23/44/106 51/63/106
f 1/64/107 13/61/107 51/63/107
f 18/65/108 6/35/108 45/66/108
f 31/67/109 20/37/109 52/68/109
f 8/69/110 18/65/110 52/68/110
f 22/70/111 10/39/111 44/71/111
f 30/72/112 24/36/112 53/73/112
f 12/74/113 22/70/113 53/73/113
f 14/75/114 2/13/114 43/15/114
f 29/76/115 16/33/115 54/77/115
f 4/78/116 14/75/116 54/77/116
