# Blender 4.3.0
# www.blender.org
o Cylinder
v 0.000000 -1.553502 -23.770470
v 0.000000 1.561110 -23.780365
v 21.411541 -2.287469 -12.361959
v 20.034184 1.063145 -11.566741
v 21.232906 -2.128683 12.258824
v 21.132069 2.039044 12.200605
v 0.000000 -2.437091 24.918280
v 0.000000 1.533228 23.744135
v -23.131931 -3.816717 13.355227
v -23.090385 3.779798 13.331240
v -22.210348 -2.997531 -12.823151
v -19.984032 1.018565 -11.537786
v 11.678843 -4.207032 -20.228348
v 21.155346 -2.004716 0.000000
v 20.393904 1.243282 0.000000
v 11.551092 -3.951534 20.007078
v 11.709242 4.267829 20.281002
v -11.280684 -3.410723 19.538717
v -10.609974 2.069317 18.377014
v -22.877682 -3.727034 0.000000
v -22.214008 3.063367 0.000000
v -9.868311 -0.586008 -17.092417
v -10.003062 0.855507 -17.325811
v 9.729311 0.000000 -16.851660
v 24.166336 0.000000 0.000000
v 10.538571 0.000000 18.253342
v -10.093294 0.000000 17.482098
v 10.825317 2.223539 -6.250000
v -10.825317 2.384959 -6.250000
v 0.000000 4.430475 12.500000
v -20.054621 0.000000 0.000000
v -10.864093 0.000000 -18.817162
v 0.000000 -2.394863 -12.500000
v 10.825317 -1.621903 6.250000
v -10.825317 -0.370968 6.250000
v 16.237976 1.884648 3.125000
v -5.412659 2.053535 -15.625000
v -10.825317 5.056078 12.500000
v -10.825317 -4.765007 -12.500000
v 16.237976 -0.818493 -3.125000
v -5.412659 -3.137249 15.625000
v 5.412659 2.232782 -15.625000
v -16.237976 3.622168 3.125000
v 10.825317 1.705512 12.500000
v 10.825317 -0.439253 -12.500000
v 5.412659 -0.812160 15.625000
v -16.237976 -0.108590 -3.125000
v -16.237976 -2.304359 9.375000
v 16.237976 -0.378109 9.375000
v 0.000000 -3.129939 -18.750000
v 0.000000 1.675464 18.750000
v -16.237976 0.044062 -9.375000
v 16.237976 1.234386 -9.375000
v -5.412659 -3.704164 -3.125000
v 5.412659 -0.720411 -3.125000
v 0.000000 -2.206972 6.250000
v 5.412659 1.495363 3.125000
v 0.000000 1.379688 -6.250000
v -5.412659 1.286109 3.125000
vn 0.3753 0.6797 -0.6302
vn 0.5542 -0.8323 -0.0119
vn 0.3982 0.4554 0.7962
vn -0.3950 0.5713 0.7195
vn -0.0165 0.9973 -0.0712
vn -0.7971 0.6038 -0.0071
vn -0.2252 -0.9547 -0.1944
vn -0.1724 -0.9832 0.0598
vn 0.3120 0.9467 -0.0806
vn 0.3499 -0.4786 0.8053
vn -0.3874 -0.4457 0.8070
vn 0.0999 0.9925 -0.0708
vn -0.1850 0.9659 -0.1811
vn -0.0617 0.8889 0.4540
vn -0.8161 -0.5753 -0.0558
vn -0.2867 0.8931 -0.3467
vn -0.0935 -0.7266 -0.6807
vn -0.2447 -0.9694 0.0171
vn 0.0695 -0.9970 0.0346
vn 0.3744 -0.8953 -0.2412
vn 0.3004 -0.9514 -0.0684
vn 0.1196 -0.9790 -0.1649
vn -0.3726 -0.9180 -0.1358
vn 0.3152 -0.9328 -0.1746
vn -0.3269 -0.9450 -0.0075
vn 0.1590 -0.8804 0.4468
vn -0.0766 -0.9902 0.1165
vn -0.2841 -0.9148 -0.2872
vn -0.2122 0.8955 -0.3912
vn -0.8171 -0.5760 -0.0228
vn 0.2306 0.9161 -0.3279
vn -0.2474 0.8866 0.3908
vn 0.0361 0.9989 0.0285
vn -0.0186 0.9898 -0.1414
vn -0.1629 0.9041 -0.3950
vn 0.1343 0.9697 0.2043
vn 0.3956 0.8898 -0.2275
vn 0.0568 0.9759 -0.2106
vn 0.0355 0.9992 -0.0167
vn -0.4217 -0.4466 0.7891
vn 0.5031 -0.4796 0.7190
vn 0.3129 0.9495 -0.0245
vn 0.2139 -0.9768 -0.0129
vn 0.2657 -0.9639 0.0188
vn 0.0536 -0.9917 0.1166
vn -0.5038 0.5038 -0.7017
vn -0.9747 0.0046 -0.2233
vn -0.0359 0.9977 0.0568
vn -0.0777 0.9964 0.0326
vn 0.2109 0.9775 -0.0072
vn -0.5379 0.2391 0.8084
vn 0.4925 0.0241 0.8700
vn 0.8661 0.4203 -0.2708
vn 0.5798 -0.0026 -0.8147
vn 0.3953 0.3628 -0.8439
vn 0.9711 0.0268 0.2370
vn 0.4758 0.2494 0.8435
vn -0.3030 0.0047 0.9530
vn -0.8789 0.4755 0.0366
vn -0.4152 -0.0029 -0.9097
vn 0.0606 -0.9339 -0.3523
vn -0.7971 0.6038 -0.0111
vn -0.3929 0.5713 0.7206
vn 0.5026 0.4550 0.7351
vn 0.5539 -0.8320 0.0305
vn 0.3500 0.6796 -0.6447
vn 0.0541 0.9369 -0.3455
vn 0.2036 0.9434 -0.2618
vn -0.1090 0.9901 -0.0885
vn -0.0184 0.9511 -0.3084
vn -0.0193 0.9998 -0.0012
vn 0.0923 0.9937 0.0632
vn -0.0323 0.9995 0.0004
vn -0.0359 0.9994 -0.0017
vn 0.2409 0.9572 -0.1606
vn -0.1641 -0.9678 -0.1908
vn 0.2099 -0.9774 0.0242
vn 0.2097 -0.9765 -0.0486
vn -0.1621 -0.9556 0.2462
vn 0.2657 -0.9641 0.0005
vn 0.0535 -0.9906 -0.1262
vn -0.1529 -0.9174 0.3674
vn -0.3028 -0.9116 0.2780
vn -0.3115 -0.9378 0.1536
vn 0.1773 -0.9815 0.0729
vn -0.0091 -0.9993 -0.0352
vn -0.0090 -0.9959 -0.0906
vn -0.0776 0.9959 0.0458
vn -0.0165 0.9966 0.0812
vn 0.0924 0.9956 0.0182
vn 0.1255 0.9914 -0.0366
vn -0.1979 0.9689 -0.1485
vn 0.0515 0.8911 0.4510
vn 0.1634 -0.7464 -0.6451
vn -0.1336 -0.9779 -0.1609
vn -0.1050 -0.9686 -0.2252
vn 0.4690 -0.8828 -0.0258
vn 0.2188 -0.9528 -0.2105
vn 0.2129 -0.9771 -0.0025
vn -0.2507 -0.9182 -0.3066
vn 0.0966 -0.9709 0.2191
vn -0.1154 -0.9251 -0.3618
vn -0.1615 -0.8940 0.4180
vn -0.2301 -0.9665 0.1137
vn -0.1249 -0.9466 -0.2972
vn -0.0397 0.9504 -0.3085
vn 0.0198 0.9149 0.4033
vn -0.2195 0.9752 0.0278
vn -0.0630 0.9963 -0.0577
vn -0.3167 0.9362 -0.1528
vn 0.3082 0.9452 -0.1079
vn 0.3643 0.8768 -0.3140
vn 0.1433 0.9876 -0.0644
vn -0.0331 0.9903 -0.1347
vt 0.916667 0.750000
vt 0.833333 0.500000
vt 0.916667 0.500000
vt 0.750000 0.750000
vt 0.666667 0.500000
vt 0.750000 0.500000
vt 0.583333 0.750000
vt 0.500000 0.500000
vt 0.583333 0.500000
vt 0.416667 0.750000
vt 0.333333 0.500000
vt 0.416667 0.500000
vt 0.250000 0.490000
vt 0.198038 0.400000
vt 0.301962 0.400000
vt 0.250000 0.750000
vt 0.166667 0.500000
vt 0.250000 0.500000
vt 0.083333 0.750000
vt -0.000000 0.500000
vt 0.083333 0.500000
vt 0.957846 0.370000
vt 0.905885 0.280000
vt 0.853923 0.370000
vt 0.666667 1.000000
vt 0.750000 1.000000
vt 0.500000 1.000000
vt 0.583333 1.000000
vt 0.333333 1.000000
vt 0.416667 1.000000
vt 0.457846 0.250000
vt 0.405885 0.220000
vt 0.457846 0.130000
vt 0.146077 0.430000
vt 0.146077 0.070000
vt 0.146077 0.130000
vt 0.042154 0.130000
vt 0.166667 1.000000
vt 0.250000 1.000000
vt -0.000000 1.000000
vt 0.083333 1.000000
vt 0.646077 0.430000
vt 0.646077 0.370000
vt 0.542154 0.370000
vt 0.957846 0.250000
vt 0.646077 0.070000
vt 0.698038 0.100000
vt 0.750000 0.010000
vt 0.542154 0.250000
vt 0.594115 0.280000
vt 0.646077 0.190000
vt 0.594115 0.160000
vt 0.542154 0.130000
vt 0.853923 0.070000
vt 0.801962 0.100000
vt 0.853923 0.190000
vt 0.905885 0.160000
vt 0.957846 0.130000
vt 0.853923 0.430000
vt 0.750000 0.370000
vt 0.750000 0.430000
vt 0.750000 0.490000
vt 0.353923 0.070000
vt 0.353923 0.130000
vt 0.250000 0.130000
vt 0.250000 0.070000
vt 0.250000 0.010000
vt 0.042154 0.250000
vt 0.094115 0.220000
vt 0.146077 0.310000
vt 0.094115 0.340000
vt 0.042154 0.370000
vt 0.353923 0.430000
vt 0.353923 0.310000
vt 0.405885 0.340000
vt 0.457846 0.370000
vt 0.833333 1.000000
vt 0.698038 0.280000
vt 0.801962 0.280000
vt 0.750000 0.190000
vt 0.301962 0.220000
vt 0.250000 0.310000
vt 0.198038 0.220000
vt 1.000000 0.500000
vt 1.000000 1.000000
s 0
f 24/1/1 3/2/1 13/3/1
f 25/4/2 5/5/2 14/6/2
f 26/7/3 7/8/3 16/9/3
f 27/10/4 9/11/4 18/12/4
f 2/13/5 37/14/5 42/15/5
f 31/16/6 11/17/6 20/18/6
f 32/19/7 1/20/7 22/21/7
f 3/22/8 40/23/8 45/24/8
f 6/25/9 25/4/9 15/26/9
f 8/27/10 26/7/10 17/28/10
f 10/29/11 27/10/11 19/30/11
f 15/31/12 36/32/12 6/33/12
f 23/34/13 37/14/13 2/13/13
f 19/35/14 38/36/14 10/37/14
f 12/38/15 31/16/15 21/39/15
f 2/40/16 32/19/16 23/41/16
f 22/42/17 39/43/17 11/44/17
f 14/45/18 40/23/18 3/22/18
f 18/46/19 41/47/19 7/48/19
f 20/49/20 47/50/20 35/51/20
f 35/51/21 48/52/21 20/49/21
f 9/53/22 48/52/22 18/46/22
f 16/54/23 46/55/23 34/56/23
f 34/56/24 49/57/24 16/54/24
f 5/58/25 49/57/25 14/45/25
f 13/59/26 45/24/26 33/60/26
f 33/60/27 50/61/27 13/59/27
f 1/62/28 50/61/28 22/42/28
f 12/38/29 23/41/29 32/19/29
f 10/29/30 21/39/30 31/16/30
f 17/63/31 44/64/31 30/65/31
f 30/65/32 51/66/32 17/63/32
f 8/67/33 51/66/33 19/35/33
f 21/68/34 43/69/34 29/70/34
f 29/70/35 52/71/35 21/68/35
f 12/72/36 52/71/36 23/34/36
f 24/73/37 42/15/37 28/74/37
f 28/74/38 53/75/38 24/73/38
f 4/76/39 53/75/39 15/31/39
f 8/27/40 19/30/40 27/10/40
f 6/25/41 17/28/41 26/7/41
f 4/77/42 15/26/42 25/4/42
f 33/60/43 54/78/43 39/43/43
f 33/60/44 55/79/44 54/78/44
f 34/56/45 46/55/45 56/80/45
f 32/19/46 11/17/46 12/38/46
f 31/16/47 9/11/47 10/29/47
f 28/74/48 57/81/48 36/32/48
f 28/74/49 58/82/49 57/81/49
f 29/70/50 43/69/50 59/83/50
f 27/10/51 7/8/51 8/27/51
f 26/7/52 5/5/52 6/25/52
f 25/4/53 3/2/53 4/77/53
f 24/1/54 1/84/54 2/85/54
f 4/77/55 3/2/55 24/1/55
f 6/25/56 5/5/56 25/4/56
f 8/27/57 7/8/57 26/7/57
f 10/29/58 9/11/58 27/10/58
f 12/38/59 11/17/59 31/16/59
f 2/40/60 1/20/60 32/19/60
f 32/19/61 22/21/61 11/17/61
f 31/16/62 20/18/62 9/11/62
f 27/10/63 18/12/63 7/8/63
f 26/7/64 16/9/64 5/5/64
f 25/4/65 14/6/65 3/2/65
f 24/1/66 13/3/66 1/84/66
f 59/83/67 38/36/67 30/65/67
f 59/83/68 43/69/68 38/36/68
f 43/69/69 10/37/69 38/36/69
f 57/81/70 59/83/70 30/65/70
f 57/81/71 58/82/71 59/83/71
f 58/82/72 29/70/72 59/83/72
f 36/32/73 44/64/73 6/33/73
f 36/32/74 57/81/74 44/64/74
f 57/81/75 30/65/75 44/64/75
f 56/80/76 41/47/76 35/51/76
f 56/80/77 46/55/77 41/47/77
f 46/55/78 7/48/78 41/47/78
f 54/78/79 56/80/79 35/51/79
f 54/78/80 55/79/80 56/80/80
f 55/79/81 34/56/81 56/80/81
f 39/43/82 47/50/82 11/44/82
f 39/43/83 54/78/83 47/50/83
f 54/78/84 35/51/84 47/50/84
f 45/24/85 55/79/85 33/60/85
f 45/24/86 40/23/86 55/79/86
f 40/23/87 34/56/87 55/79/87
f 42/15/88 58/82/88 28/74/88
f 42/15/89 37/14/89 58/82/89
f 37/14/90 29/70/90 58/82/90
f 15/31/91 28/74/91 36/32/91
f 23/34/92 29/70/92 37/14/92
f 19/35/93 30/65/93 38/36/93
f 22/42/94 33/60/94 39/43/94
f 14/45/95 34/56/95 40/23/95
f 18/46/96 35/51/96 41/47/96
f 20/49/97 11/44/97 47/50/97
f 35/51/98 18/46/98 48/52/98
f 9/53/99 20/49/99 48/52/99
f 16/54/100 7/48/100 46/55/100
f 34/56/101 14/45/101 49/57/101
f 5/58/102 16/54/102 49/57/102
f 13/59/103 3/22/103 45/24/103
f 33/60/104 22/42/104 50/61/104
f 1/62/105 13/59/105 50/61/105
f 17/63/106 6/33/106 44/64/106
f 30/65/107 19/35/107 51/66/107
f 8/67/108 17/63/108 51/66/108
f 21/68/109 10/37/109 43/69/109
f 29/70/110 23/34/110 52/71/110
f 12/72/111 21/68/111 52/71/111
f 24/73/112 2/13/112 42/15/112
f 28/74/113 15/31/113 53/75/113
f 4/76/114 24/73/114 53/75/114
