# Blender 4.3.0
# www.blender.org
o Cylinder
v 0.000000 -1.093305 -23.172661
v 0.000000 1.461422 -23.650869
v 21.367945 -2.248716 -12.336789
v 21.872295 2.697032 -12.627975
v 21.493227 -2.360081 12.409121
v 22.955511 3.659908 13.253371
v 0.000000 -1.856844 24.164530
v 0.000000 3.408761 26.180508
v -20.517868 -1.493090 11.845997
v -21.330355 2.215302 12.315085
v -20.849058 -1.787477 -12.037210
v -22.186136 2.976005 -12.809173
v 11.179877 -3.209112 -19.364117
v 10.536205 1.921782 -18.249243
v 23.581934 -4.431278 0.000000
v 20.802605 1.651978 0.000000
v 10.558768 -1.966907 18.288322
v 11.564352 3.978053 20.030045
v -10.887655 -2.624675 18.857973
v -11.674628 4.198604 20.221050
v -20.280075 -1.129454 0.000000
v -21.778296 2.627660 0.000000
v -10.165874 -1.181126 -17.607809
v -11.347101 3.543557 -19.653757
v 12.074097 0.000000 -20.912949
v 19.723482 0.000000 0.000000
v 11.753771 0.000000 20.358128
v -10.182323 0.000000 17.636303
v 10.825317 3.886248 -6.250000
v -10.825317 5.065556 -6.250000
v 0.000000 2.282023 12.500000
v -22.090897 0.000000 0.000000
v -10.950969 0.000000 -18.967634
v 0.000000 -1.464249 -12.500000
v 10.825317 -3.597295 6.250000
v -10.825317 -0.408388 6.250000
v 16.237976 3.149840 3.125000
v -5.412659 2.390132 -15.625000
v -10.825317 1.968431 12.500000
v -10.825317 -1.071748 -12.500000
v 16.237976 -3.071318 -3.125000
v -5.412659 -4.295055 15.625000
v 5.412659 4.769624 -15.625000
v -16.237976 4.225831 3.125000
v 10.825317 4.000998 12.500000
v 10.825317 -1.183697 -12.500000
v 5.412659 -0.313698 15.625000
v -16.237976 -2.260380 -3.125000
v -16.237976 -3.916645 9.375000
v 16.237976 -1.457800 9.375000
v 0.000000 -1.160931 -18.750000
v 0.000000 0.165675 18.750000
v -16.237976 4.262588 -9.375000
v 16.237976 3.276713 -9.375000
v -5.412659 -0.699994 -3.125000
v 5.412659 -2.678928 -3.125000
v 0.000000 -3.682662 6.250000
v 5.412659 1.381332 3.125000
v 0.000000 4.484355 -6.250000
v -5.412659 0.416451 3.125000
vn 0.5273 -0.4840 -0.6983
vn 0.7541 0.6566 0.0173
vn 0.3029 -0.7720 0.5588
vn -0.4817 0.4729 0.7378
vn -0.2079 0.9458 -0.2496
vn -0.5279 -0.8463 0.0712
vn -0.2834 -0.7990 -0.5304
vn -0.0973 -0.9850 -0.1422
vn 0.1901 0.8450 -0.4999
vn 0.8360 -0.5461 -0.0531
vn 0.4638 0.0947 0.8809
vn -0.4421 -0.5789 0.6851
vn 0.1948 0.9646 -0.1778
vn 0.1840 0.9829 0.0104
vn 0.0274 0.9612 -0.2746
vn -0.9924 0.1181 0.0348
vn -0.3594 -0.2160 -0.9078
vn 0.0726 -0.9969 0.0307
vn -0.1168 -0.9814 -0.1527
vn -0.0934 -0.9402 0.3276
vn -0.0850 -0.9670 0.2401
vn 0.3273 -0.8579 -0.3962
vn -0.3285 -0.8932 0.3070
vn -0.3583 -0.9262 0.1175
vn 0.2961 -0.9456 0.1346
vn -0.2356 -0.9643 0.1213
vn 0.0248 -0.9585 0.2841
vn -0.1825 -0.9820 -0.0477
vn 0.0003 -0.9999 -0.0153
vn -0.5129 -0.2181 -0.8303
vn -0.9922 0.1180 0.0400
vn -0.1568 0.9875 0.0184
vn -0.3285 0.8946 0.3029
vn 0.2572 0.8857 -0.3866
vn -0.2473 0.9673 -0.0562
vn -0.1822 0.9812 0.0634
vn -0.1355 0.9818 -0.1331
vn 0.4173 0.8952 -0.1566
vn 0.0176 0.9866 -0.1620
vn 0.1558 0.9833 0.0946
vn -0.4013 -0.5794 0.7094
vn 0.5109 0.0948 0.8544
vn 0.8369 -0.5467 0.0257
vn 0.2131 0.8466 -0.4878
vn -0.0362 -0.9975 0.0604
vn -0.1798 -0.9834 -0.0236
vn 0.0074 -0.9424 0.3344
vn -0.5172 -0.2764 -0.8100
vn -0.9692 -0.2250 0.1003
vn -0.1589 0.9729 0.1682
vn 0.0529 0.9567 0.2861
vn 0.3200 0.9093 0.2662
vn -0.5531 -0.2979 0.7780
vn 0.5754 -0.2490 0.7790
vn 0.9847 -0.0917 0.1480
vn 0.1967 -0.1804 -0.9637
vn 0.6593 -0.1110 -0.7436
vn 0.9618 -0.2088 -0.1769
vn 0.3378 -0.3365 0.8790
vn -0.4548 -0.2091 0.8657
vn -0.9587 -0.2784 -0.0576
vn -0.3680 -0.1711 -0.9139
vn -0.2428 -0.7974 -0.5524
vn -0.5289 -0.8479 -0.0366
vn -0.4127 0.4732 0.7783
vn 0.2796 -0.7714 0.5716
vn 0.7540 0.6566 -0.0192
vn 0.2033 -0.4710 -0.8584
vn -0.0285 0.9834 -0.1792
vn 0.3317 0.9427 0.0355
vn 0.0190 0.9745 0.2237
vn -0.0878 0.9855 -0.1454
vn -0.0830 0.9308 0.3560
vn 0.0486 0.9057 0.4211
vn 0.0325 0.9969 -0.0718
vn -0.1586 0.9708 -0.1797
vn -0.1542 0.9711 -0.1823
vn -0.2822 -0.9329 -0.2238
vn 0.3419 -0.9297 0.1367
vn 0.3448 -0.9374 0.0491
vn -0.2868 -0.9483 -0.1361
vn -0.1760 -0.9629 -0.2047
vn 0.0078 -0.9948 -0.1020
vn 0.0669 -0.9939 -0.0874
vn 0.1425 -0.9889 -0.0431
vn 0.1418 -0.9835 0.1124
vn 0.0256 -0.9894 -0.1430
vn -0.0356 -0.9835 -0.1774
vn -0.0361 -0.9964 -0.0768
vn 0.0551 0.9965 0.0621
vn -0.2137 0.9724 -0.0938
vn 0.0520 0.9678 -0.2462
vn 0.2632 0.9617 -0.0764
vn 0.2667 0.9564 -0.1190
vn -0.0278 0.9595 -0.2802
vn -0.0362 -0.9992 0.0167
vn -0.1274 -0.9835 -0.1287
vn -0.3744 -0.9130 -0.1623
vn -0.2229 -0.9728 0.0637
vn 0.4753 -0.8669 -0.1500
vn -0.5083 -0.8604 -0.0366
vn -0.1625 -0.9478 -0.2743
vn 0.1329 -0.9100 0.3928
vn -0.1002 -0.9877 -0.1202
vn -0.1008 -0.9556 0.2768
vn -0.0035 -0.9988 -0.0485
vn -0.1810 -0.9834 -0.0150
vn 0.0281 0.9996 0.0003
vn 0.3450 0.8890 0.3010
vn -0.2497 0.8875 -0.3873
vn -0.2991 0.9533 0.0428
vn -0.0839 0.9905 -0.1092
vn -0.2299 0.9726 0.0338
vn 0.2159 0.8428 -0.4930
vn 0.1631 0.9824 0.0909
vn 0.0106 0.9874 -0.1576
vt 0.916667 0.750000
vt 0.833333 0.500000
vt 0.916667 0.500000
vt 0.750000 0.750000
vt 0.666667 0.500000
vt 0.750000 0.500000
vt 0.583333 0.750000
vt 0.500000 0.500000
vt 0.583333 0.500000
vt 0.416667 0.750000
vt 0.333333 0.500000
vt 0.416667 0.500000
vt 0.250000 0.490000
vt 0.198038 0.400000
vt 0.301962 0.400000
vt 0.250000 0.750000
vt 0.166667 0.500000
vt 0.250000 0.500000
vt 0.083333 0.750000
vt -0.000000 0.500000
vt 0.083333 0.500000
vt 0.957846 0.370000
vt 0.905885 0.280000
vt 0.853923 0.370000
vt 0.833333 1.000000
vt 0.916667 1.000000
vt 0.666667 1.000000
vt 0.750000 1.000000
vt 0.500000 1.000000
vt 0.583333 1.000000
vt 0.333333 1.000000
vt 0.416667 1.000000
vt 0.457846 0.250000
vt 0.405885 0.220000
vt 0.457846 0.130000
vt 0.146077 0.430000
vt 0.146077 0.070000
vt 0.146077 0.130000
vt 0.042154 0.130000
vt 0.166667 1.000000
vt 0.250000 1.000000
vt -0.000000 1.000000
vt 0.083333 1.000000
vt 0.646077 0.430000
vt 0.646077 0.370000
vt 0.542154 0.370000
vt 0.957846 0.250000
vt 0.646077 0.070000
vt 0.698038 0.100000
vt 0.750000 0.010000
vt 0.542154 0.250000
vt 0.594115 0.280000
vt 0.646077 0.190000
vt 0.594115 0.160000
vt 0.542154 0.130000
vt 0.853923 0.070000
vt 0.801962 0.100000
vt 0.853923 0.190000
vt 0.905885 0.160000
vt 0.957846 0.130000
vt 0.853923 0.430000
vt 0.750000 0.370000
vt 0.750000 0.430000
vt 0.750000 0.490000
vt 0.353923 0.070000
vt 0.353923 0.130000
vt 0.250000 0.130000
vt 0.250000 0.070000
vt 0.250000 0.010000
vt 0.042154 0.250000
vt 0.094115 0.220000
vt 0.146077 0.310000
vt 0.094115 0.340000
vt 0.042154 0.370000
vt 0.353923 0.430000
vt 0.353923 0.310000
vt 0.405885 0.340000
vt 0.457846 0.370000
vt 1.000000 1.000000
vt 0.698038 0.280000
vt 0.801962 0.280000
vt 0.750000 0.190000
vt 0.301962 0.220000
vt 0.250000 0.310000
vt 0.198038 0.220000
vt 1.000000 0.500000
s 0
f 25/1/1 3/2/1 13/3/1
f 26/4/2 5/5/2 15/6/2
f 27/7/3 7/8/3 17/9/3
f 28/10/4 9/11/4 19/12/4
f 2/13/5 38/14/5 43/15/5
f 32/16/6 11/17/6 21/18/6
f 33/19/7 1/20/7 23/21/7
f 3/22/8 41/23/8 46/24/8
f 4/25/9 25/1/9 14/26/9
f 6/27/10 26/4/10 16/28/10
f 8/29/11 27/7/11 18/30/11
f 10/31/12 28/10/12 20/32/12
f 16/33/13 37/34/13 6/35/13
f 24/36/14 38/14/14 2/13/14
f 20/37/15 39/38/15 10/39/15
f 12/40/16 32/16/16 22/41/16
f 2/42/17 33/19/17 24/43/17
f 23/44/18 40/45/18 11/46/18
f 15/47/19 41/23/19 3/22/19
f 19/48/20 42/49/20 7/50/20
f 21/51/21 48/52/21 36/53/21
f 36/53/22 49/54/22 21/51/22
f 9/55/23 49/54/23 19/48/23
f 17/56/24 47/57/24 35/58/24
f 35/58/25 50/59/25 17/56/25
f 5/60/26 50/59/26 15/47/26
f 13/61/27 46/24/27 34/62/27
f 34/62/28 51/63/28 13/61/28
f 1/64/29 51/63/29 23/44/29
f 12/40/30 24/43/30 33/19/30
f 10/31/31 22/41/31 32/16/31
f 18/65/32 45/66/32 31/67/32
f 31/67/33 52/68/33 18/65/33
f 8/69/34 52/68/34 20/37/34
f 22/70/35 44/71/35 30/72/35
f 30/72/36 53/73/36 22/70/36
f 12/74/37 53/73/37 24/36/37
f 14/75/38 43/15/38 29/76/38
f 29/76/39 54/77/39 14/75/39
f 4/78/40 54/77/40 16/33/40
f 8/29/41 20/32/41 28/10/41
f 6/27/42 18/30/42 27/7/42
f 4/25/43 16/28/43 26/4/43
f 2/79/44 14/26/44 25/1/44
f 34/62/45 55/80/45 40/45/45
f 34/62/46 56/81/46 55/80/46
f 35/58/47 47/57/47 57/82/47
f 33/19/48 11/17/48 12/40/48
f 32/16/49 9/11/49 10/31/49
f 29/76/50 58/83/50 37/34/50
f 29/76/51 59/84/51 58/83/51
f 30/72/52 44/71/52 60/85/52
f 28/10/53 7/8/53 8/29/53
f 27/7/54 5/5/54 6/27/54
f 26/4/55 3/2/55 4/25/55
f 25/1/56 1/86/56 2/79/56
f 4/25/57 3/2/57 25/1/57
f 6/27/58 5/5/58 26/4/58
f 8/29/59 7/8/59 27/7/59
f 10/31/60 9/11/60 28/10/60
f 12/40/61 11/17/61 32/16/61
f 2/42/62 1/20/62 33/19/62
f 33/19/63 23/21/63 11/17/63
f 32/16/64 21/18/64 9/11/64
f 28/10/65 19/12/65 7/8/65
f 27/7/66 17/9/66 5/5/66
f 26/4/67 15/6/67 3/2/67
f 25/1/68 13/3/68 1/86/68
f 60/85/69 39/38/69 31/67/69
f 60/85/70 44/71/70 39/38/70
f 44/71/71 10/39/71 39/38/71
f 58/83/72 60/85/72 31/67/72
f 58/83/73 59/84/73 60/85/73
f 59/84/74 30/72/74 60/85/74
f 37/34/75 45/66/75 6/35/75
f 37/34/76 58/83/76 45/66/76
f 58/83/77 31/67/77 45/66/77
f 57/82/78 42/49/78 36/53/78
f 57/82/79 47/57/79 42/49/79
f 47/57/80 7/50/80 42/49/80
f 55/80/81 57/82/81 36/53/81
f 55/80/82 56/81/82 57/82/82
f 56/81/83 35/58/83 57/82/83
f 40/45/84 48/52/84 11/46/84
f 40/45/85 55/80/85 48/52/85
f 55/80/86 36/53/86 48/52/86
f 46/24/87 56/81/87 34/62/87
f 46/24/88 41/23/88 56/81/88
f 41/23/89 35/58/89 56/81/89
f 43/15/90 59/84/90 29/76/90
f 43/15/91 38/14/91 59/84/91
f 38/14/92 30/72/92 59/84/92
f 16/33/93 29/76/93 37/34/93
f 24/36/94 30/72/94 38/14/94
f 20/37/95 31/67/95 39/38/95
f 23/44/96 34/62/96 40/45/96
f 15/47/97 35/58/97 41/23/97
f 19/48/98 36/53/98 42/49/98
f 21/51/99 11/46/99 48/52/99
f 36/53/100 19/48/100 49/54/100
f 9/55/101 21/51/101 49/54/101
f 17/56/102 7/50/102 47/57/102
f 35/58/103 15/47/103 50/59/103
f 5/60/104 17/56/104 50/59/104
f 13/61/105 3/22/105 46/24/105
f 34/62/106 23/44/106 51/63/106
f 1/64/107 13/61/107 51/63/107
f 18/65/108 6/35/108 45/66/108
f 31/67/109 20/37/109 52/68/109
f 8/69/110 18/65/110 52/68/110
f 22/70/111 10/39/111 44/71/111
f 30/72/112 24/36/112 53/73/112
f 12/74/113 22/70/113 53/73/113
f 14/75/114 2/13/114 43/15/114
f 29/76/115 16/33/115 54/77/115
f 4/78/116 14/75/116 54/77/116
