# Blender 4.3.0
# www.blender.org
o Cylinder
v 0.000000 -3.589508 -26.415304
v 0.000000 1.498040 -23.698437
v 20.270475 -1.273172 -11.703164
v 21.623245 2.475654 -12.484187
v 20.335611 -1.331082 11.740770
v 21.176006 2.078101 12.225973
v 0.000000 -1.400056 23.571152
v 0.000000 4.024149 26.979916
v -20.841187 -1.780486 12.032664
v -23.472084 4.119092 13.551615
v -21.002861 -1.924192 -12.126007
v -21.229092 2.125292 -12.256621
v 10.166553 -1.182487 -17.608988
v 10.679345 2.208059 -18.497169
v 22.767916 -3.617270 0.000000
v 22.057365 2.906727 0.000000
v 11.045937 -2.941234 19.132124
v 11.526731 3.902812 19.964884
v -10.805236 -2.459838 18.715218
v -11.567097 3.983542 20.034800
v -22.069565 -2.918926 0.000000
v -23.163031 4.012381 0.000000
v -10.384071 -1.617517 -17.985739
v -11.524296 3.897942 -19.960667
v 9.570403 0.000000 -16.576424
v 19.365915 0.000000 0.000000
v 11.187963 0.000000 19.378122
v -10.656293 0.000000 18.457241
v 10.825317 3.319387 -6.250000
v -10.825317 0.851106 -6.250000
v 0.000000 2.262775 12.500000
v -22.570360 0.000000 0.000000
v -11.200873 0.000000 -19.400482
v 0.000000 -1.546769 -12.500000
v 10.825317 -1.938907 6.250000
v -10.825317 0.233109 6.250000
v 16.237976 4.491004 3.125000
v -5.412659 4.589873 -15.625000
v -10.825317 2.781991 12.500000
v -10.825317 -2.708066 -12.500000
v 16.237976 -1.310569 -3.125000
v -5.412659 -2.233538 15.625000
v 5.412659 -0.240255 -15.625000
v -16.237976 1.297880 3.125000
v 10.825317 0.697379 12.500000
v 10.825317 -2.028091 -12.500000
v 5.412659 -4.636331 15.625000
v -16.237976 -0.321551 -3.125000
v -16.237976 -0.355289 9.375000
v 16.237976 -1.746691 9.375000
v 0.000000 -4.469735 -18.750000
v 0.000000 1.538584 18.750000
v -16.237976 3.805123 -9.375000
v 16.237976 0.495832 -9.375000
v -5.412659 -2.053041 -3.125000
v 5.412659 -4.843226 -3.125000
v 0.000000 -4.582806 6.250000
v 5.412659 4.572909 3.125000
v 0.000000 2.381742 -6.250000
v -5.412659 0.024232 3.125000
vn 0.3601 0.7100 -0.6052
vn 0.7283 0.6850 0.0175
vn 0.3598 -0.0950 0.9282
vn -0.5446 0.1200 0.8301
vn 0.4063 0.9106 -0.0763
vn -0.9807 -0.1682 -0.1001
vn -0.5285 -0.6942 -0.4886
vn 0.0770 -0.9965 0.0318
vn 0.3530 -0.7087 -0.6109
vn 0.7337 -0.6794 0.0068
vn 0.5109 -0.1710 0.8425
vn -0.4386 -0.4158 0.7967
vn 0.3046 0.9486 0.0862
vn 0.1020 0.9499 -0.2954
vn 0.0918 0.9847 -0.1480
vn -0.9806 -0.1448 -0.1324
vn -0.3347 -0.1612 -0.9284
vn -0.0826 -0.9762 -0.2007
vn -0.2731 -0.9528 -0.1326
vn 0.0731 -0.9958 0.0547
vn 0.3389 -0.9302 -0.1407
vn 0.1904 -0.9706 0.1470
vn 0.1275 -0.9491 -0.2880
vn 0.3319 -0.9400 -0.0788
vn 0.0807 -0.9936 -0.0787
vn -0.0096 -0.9819 0.1892
vn -0.0439 -0.9865 -0.1576
vn 0.2383 -0.8797 0.4114
vn -0.2708 -0.9564 -0.1098
vn -0.5951 -0.1625 -0.7870
vn -0.9890 -0.1461 -0.0214
vn 0.1311 0.9064 -0.4015
vn -0.2110 0.9710 0.1125
vn 0.1678 0.9437 -0.2850
vn 0.3089 0.9417 0.1335
vn 0.3538 0.9036 0.2414
vn -0.2607 0.9594 -0.1077
vn -0.4538 0.8879 -0.0752
vn 0.4208 0.9030 -0.0870
vn -0.3551 0.9346 -0.0199
vn -0.4671 -0.4158 0.7803
vn 0.5969 -0.1697 0.7842
vn 0.7338 -0.6794 -0.0021
vn 0.3465 -0.7087 -0.6146
vn 0.1067 -0.9943 0.0079
vn -0.2449 -0.9502 -0.1927
vn 0.2349 -0.9617 -0.1411
vn -0.5874 -0.0589 -0.8071
vn -0.9046 -0.4208 0.0677
vn 0.0075 0.9917 -0.1283
vn -0.0849 0.9800 -0.1800
vn 0.1168 0.9929 0.0201
vn -0.4300 -0.4804 0.7644
vn 0.5975 -0.2555 0.7601
vn 0.9421 -0.3176 0.1074
vn 0.5897 0.3804 -0.7124
vn 0.3624 -0.3136 -0.8777
vn 0.9689 -0.2238 -0.1054
vn 0.3584 -0.4967 0.7904
vn -0.4372 -0.4021 0.8045
vn -0.9912 -0.0592 -0.1187
vn -0.3726 0.4371 -0.8186
vn -0.3243 -0.7102 -0.6248
vn -0.9790 -0.1680 0.1158
vn -0.4167 0.1197 0.9011
vn 0.6298 -0.0949 0.7709
vn 0.7283 0.6850 -0.0182
vn 0.3574 0.7100 -0.6067
vn 0.0463 0.9652 -0.2572
vn 0.1140 0.9690 -0.2192
vn 0.0861 0.9752 -0.2041
vn -0.3874 0.9219 0.0035
vn -0.3874 0.9219 0.0082
vn -0.1381 0.9764 0.1658
vn -0.1174 0.9423 0.3135
vn 0.0070 0.9255 0.3786
vn 0.1360 0.9408 0.3104
vn -0.4065 -0.9137 -0.0057
vn -0.2152 -0.9693 0.1187
vn -0.2102 -0.9471 0.2425
vn -0.4064 -0.9136 -0.0119
vn -0.2479 -0.9618 -0.1164
vn 0.2341 -0.9586 0.1618
vn -0.0674 -0.9755 0.2094
vn -0.1560 -0.9750 0.1582
vn -0.1562 -0.9766 0.1480
vn -0.0422 -0.9499 -0.3096
vn 0.3085 -0.9453 -0.1058
vn 0.3082 -0.9444 0.1146
vn -0.0820 0.9465 -0.3121
vn 0.4074 0.9130 -0.0202
vn -0.1336 0.9447 0.2996
vn 0.1513 0.9663 -0.2081
vn -0.2638 0.9387 0.2220
vn 0.0473 0.9871 -0.1528
vn 0.1048 -0.9770 -0.1858
vn -0.2390 -0.9498 -0.2017
vn -0.0797 -0.9744 -0.2104
vn 0.3879 -0.9208 -0.0414
vn -0.0156 -0.9773 -0.2111
vn 0.3247 -0.9441 0.0562
vn 0.0305 -0.9183 0.3948
vn -0.0560 -0.9859 0.1577
vn 0.1304 -0.9901 -0.0518
vn 0.0931 -0.9803 -0.1742
vn -0.2127 -0.8851 0.4139
vn 0.3168 -0.9423 -0.1082
vn -0.1322 0.9153 -0.3806
vn 0.2174 0.9696 0.1123
vn -0.1636 0.9444 -0.2852
vn 0.3646 0.9312 0.0010
vn 0.3886 0.9035 0.1810
vn -0.2177 0.9589 -0.1820
vn -0.2310 0.9077 0.3503
vn 0.2449 0.8914 -0.3813
vn -0.1805 0.9409 0.2866
vt 0.916667 0.750000
vt 0.833333 0.500000
vt 0.916667 0.500000
vt 0.750000 0.750000
vt 0.666667 0.500000
vt 0.750000 0.500000
vt 0.583333 0.750000
vt 0.500000 0.500000
vt 0.583333 0.500000
vt 0.416667 0.750000
vt 0.333333 0.500000
vt 0.416667 0.500000
vt 0.250000 0.490000
vt 0.198038 0.400000
vt 0.301962 0.400000
vt 0.250000 0.750000
vt 0.166667 0.500000
vt 0.250000 0.500000
vt 0.083333 0.750000
vt -0.000000 0.500000
vt 0.083333 0.500000
vt 0.957846 0.370000
vt 0.905885 0.280000
vt 0.853923 0.370000
vt 0.833333 1.000000
vt 0.916667 1.000000
vt 0.666667 1.000000
vt 0.750000 1.000000
vt 0.500000 1.000000
vt 0.583333 1.000000
vt 0.333333 1.000000
vt 0.416667 1.000000
vt 0.457846 0.250000
vt 0.405885 0.220000
vt 0.457846 0.130000
vt 0.146077 0.430000
vt 0.146077 0.070000
vt 0.146077 0.130000
vt 0.042154 0.130000
vt 0.166667 1.000000
vt 0.250000 1.000000
vt -0.000000 1.000000
vt 0.083333 1.000000
vt 0.646077 0.430000
vt 0.646077 0.370000
vt 0.542154 0.370000
vt 0.957846 0.250000
vt 0.646077 0.070000
vt 0.698038 0.100000
vt 0.750000 0.010000
vt 0.542154 0.250000
vt 0.594115 0.280000
vt 0.646077 0.190000
vt 0.594115 0.160000
vt 0.542154 0.130000
vt 0.853923 0.070000
vt 0.801962 0.100000
vt 0.853923 0.190000
vt 0.905885 0.160000
vt 0.957846 0.130000
vt 0.853923 0.430000
vt 0.750000 0.370000
vt 0.750000 0.430000
vt 0.750000 0.490000
vt 0.353923 0.070000
vt 0.353923 0.130000
vt 0.250000 0.130000
vt 0.250000 0.070000
vt 0.250000 0.010000
vt 0.042154 0.250000
vt 0.094115 0.220000
vt 0.146077 0.310000
vt 0.094115 0.340000
vt 0.042154 0.370000
vt 0.353923 0.430000
vt 0.353923 0.310000
vt 0.405885 0.340000
vt 0.457846 0.370000
vt 1.000000 1.000000
vt 0.698038 0.280000
vt 0.801962 0.280000
vt 0.750000 0.190000
vt 0.301962 0.220000
vt 0.250000 0.310000
vt 0.198038 0.220000
vt 1.000000 0.500000
s 0
f 25/1/1 3/2/1 13/3/1
f 26/4/2 5/5/2 15/6/2
f 27/7/3 7/8/3 17/9/3
f 28/10/4 9/11/4 19/12/4
f 2/13/5 38/14/5 43/15/5
f 32/16/6 11/17/6 21/18/6
f 33/19/7 1/20/7 23/21/7
f 3/22/8 41/23/8 46/24/8
f 4/25/9 25/1/9 14/26/9
f 6/27/10 26/4/10 16/28/10
f 8/29/11 27/7/11 18/30/11
f 10/31/12 28/10/12 20/32/12
f 16/33/13 37/34/13 6/35/13
f 24/36/14 38/14/14 2/13/14
f 20/37/15 39/38/15 10/39/15
f 12/40/16 32/16/16 22/41/16
f 2/42/17 33/19/17 24/43/17
f 23/44/18 40/45/18 11/46/18
f 15/47/19 41/23/19 3/22/19
f 19/48/20 42/49/20 7/50/20
f 21/51/21 48/52/21 36/53/21
f 36/53/22 49/54/22 21/51/22
f 9/55/23 49/54/23 19/48/23
f 17/56/24 47/57/24 35/58/24
f 35/58/25 50/59/25 17/56/25
f 5/60/26 50/59/26 15/47/26
f 13/61/27 46/24/27 34/62/27
f 34/62/28 51/63/28 13/61/28
f 1/64/29 51/63/29 23/44/29
f 12/40/30 24/43/30 33/19/30
f 10/31/31 22/41/31 32/16/31
f 18/65/32 45/66/32 31/67/32
f 31/67/33 52/68/33 18/65/33
f 8/69/34 52/68/34 20/37/34
f 22/70/35 44/71/35 30/72/35
f 30/72/36 53/73/36 22/70/36
f 12/74/37 53/73/37 24/36/37
f 14/75/38 43/15/38 29/76/38
f 29/76/39 54/77/39 14/75/39
f 4/78/40 54/77/40 16/33/40
f 8/29/41 20/32/41 28/10/41
f 6/27/42 18/30/42 27/7/42
f 4/25/43 16/28/43 26/4/43
f 2/79/44 14/26/44 25/1/44
f 34/62/45 55/80/45 40/45/45
f 34/62/46 56/81/46 55/80/46
f 35/58/47 47/57/47 57/82/47
f 33/19/48 11/17/48 12/40/48
f 32/16/49 9/11/49 10/31/49
f 29/76/50 58/83/50 37/34/50
f 29/76/51 59/84/51 58/83/51
f 30/72/52 44/71/52 60/85/52
f 28/10/53 7/8/53 8/29/53
f 27/7/54 5/5/54 6/27/54
f 26/4/55 3/2/55 4/25/55
f 25/1/56 1/86/56 2/79/56
f 4/25/57 3/2/57 25/1/57
f 6/27/58 5/5/58 26/4/58
f 8/29/59 7/8/59 27/7/59
f 10/31/60 9/11/60 28/10/60
f 12/40/61 11/17/61 32/16/61
f 2/42/62 1/20/62 33/19/62
f 33/19/63 23/21/63 11/17/63
f 32/16/64 21/18/64 9/11/64
f 28/10/65 19/12/65 7/8/65
f 27/7/66 17/9/66 5/5/66
f 26/4/67 15/6/67 3/2/67
f 25/1/68 13/3/68 1/86/68
f 60/85/69 39/38/69 31/67/69
f 60/85/70 44/71/70 39/38/70
f 44/71/71 10/39/71 39/38/71
f 58/83/72 60/85/72 31/67/72
f 58/83/73 59/84/73 60/85/73
f 59/84/74 30/72/74 60/85/74
f 37/34/75 45/66/75 6/35/75
f 37/34/76 58/83/76 45/66/76
f 58/83/77 31/67/77 45/66/77
f 57/82/78 42/49/78 36/53/78
f 57/82/79 47/57/79 42/49/79
f 47/57/80 7/50/80 42/49/80
f 55/80/81 57/82/81 36/53/81
f 55/80/82 56/81/82 57/82/82
f 56/81/83 35/58/83 57/82/83
f 40/45/84 48/52/84 11/46/84
f 40/45/85 55/80/85 48/52/85
f 55/80/86 36/53/86 48/52/86
f 46/24/87 56/81/87 34/62/87
f 46/24/88 41/23/88 56/81/88
f 41/23/89 35/58/89 56/81/89
f 43/15/90 59/84/90 29/76/90
f 43/15/91 38/14/91 59/84/91
f 38/14/92 30/72/92 59/84/92
f 16/33/93 29/76/93 37/34/93
f 24/36/94 30/72/94 38/14/94
f 20/37/95 31/67/95 39/38/95
f 23/44/96 34/62/96 40/45/96
f 15/47/97 35/58/97 41/23/97
f 19/48/98 36/53/98 42/49/98
f 21/51/99 11/46/99 48/52/99
f 36/53/100 19/48/100 49/54/100
f 9/55/101 21/51/101 49/54/101
f 17/56/102 7/50/102 47/57/102
f 35/58/103 15/47/103 50/59/103
f 5/60/104 17/56/104 50/59/104
f 13/61/105 3/22/105 46/24/105
f 34/62/106 23/44/106 51/63/106
f 1/64/107 13/61/107 51/63/107
f 18/65/108 6/35/108 45/66/108
f 31/67/109 20/37/109 52/68/109
f 8/69/110 18/65/110 52/68/110
f 22/70/111 10/39/111 44/71/111
f 30/72/112 24/36/112 53/73/112
f 12/74/113 22/70/113 53/73/113
f 14/75/114 2/13/114 43/15/114
f 29/76/115 16/33/115 54/77/115
f 4/78/116 14/75/116 54/77/116
