# Blender 4.3.0
# www.blender.org
o Cylinder
v 0.000000 -3.701445 -26.560713
v 0.000000 1.876574 -24.190159
v 23.235569 -3.908852 -13.415062
v 21.577187 2.434712 -12.457595
v 23.410656 -4.064474 13.516150
v 23.328360 3.991335 13.468636
v 0.000000 -3.035970 25.696234
v 0.000000 3.790384 26.676249
v -22.617535 -3.359473 13.058241
v -19.768484 0.826950 11.413340
v -21.272018 -2.163447 -12.281406
v -19.916603 0.958628 -11.498856
v 10.363681 -1.576737 -17.950422
v 20.994335 -1.843707 0.000000
v 21.095615 1.944987 0.000000
v 11.735666 -4.320679 20.326771
v 11.770369 4.390082 20.386875
v -11.312170 -3.473694 19.593252
v -10.610762 2.070893 18.378378
v -20.413380 -1.262759 0.000000
v -21.297602 2.146970 0.000000
v -10.907695 -2.664754 -18.892683
v -9.948067 0.745517 -17.230556
v 10.059723 0.000000 -17.423950
v 22.470779 0.000000 0.000000
v 9.935028 0.000000 17.207973
v -11.715405 0.000000 20.291677
v 10.825317 1.441598 -6.250000
v -10.825317 3.108468 -6.250000
v 0.000000 4.802606 12.500000
v -21.910799 0.000000 0.000000
v -12.160610 0.000000 -21.062796
v 0.000000 -0.541118 -12.500000
v 10.825317 -0.338352 6.250000
v -10.825317 -4.361944 6.250000
v 16.237976 4.616813 3.125000
v -5.412659 1.404858 -15.625000
v -10.825317 -0.094986 12.500000
v -10.825317 -1.912696 -12.500000
v 16.237976 -3.400038 -3.125000
v -5.412659 -0.603661 15.625000
v 5.412659 1.237613 -15.625000
v -16.237976 3.624718 3.125000
v 10.825317 2.535652 12.500000
v 10.825317 -3.795317 -12.500000
v 5.412659 -1.813834 15.625000
v -16.237976 -4.629082 -3.125000
v -16.237976 -0.364212 9.375000
v 16.237976 -1.700525 9.375000
v 0.000000 -3.040581 -18.750000
v 0.000000 3.348638 18.750000
v -16.237976 1.440314 -9.375000
v 16.237976 4.913171 -9.375000
v -5.412659 -0.401295 -3.125000
v 5.412659 -0.983386 -3.125000
v 0.000000 -2.270100 6.250000
v 5.412659 0.331964 3.125000
v 0.000000 0.813448 -6.250000
v -5.412659 0.292406 3.125000
vn 0.3673 0.3575 -0.8586
vn 0.7586 -0.6075 -0.2354
vn 0.3765 0.6402 0.6696
vn -0.4892 -0.2261 0.8423
vn 0.0154 0.9978 0.0647
vn -0.6414 -0.7606 0.1006
vn -0.4637 -0.6803 -0.5676
vn -0.0058 -0.9989 0.0455
vn 0.7969 0.5635 -0.2177
vn 0.3867 -0.6414 0.6626
vn -0.4796 0.7197 0.5021
vn 0.3707 0.9071 -0.1993
vn -0.1335 0.9906 -0.0298
vn 0.1378 0.9277 -0.3469
vn -0.9518 0.2718 -0.1424
vn -0.1745 0.9805 -0.0900
vn 0.0263 -0.9928 0.1165
vn 0.1963 -0.9637 0.1811
vn 0.2179 -0.9155 -0.3382
vn -0.4600 -0.8394 0.2895
vn -0.4578 -0.8423 0.2846
vn 0.2077 -0.9035 -0.3750
vn -0.1855 -0.9486 -0.2564
vn -0.0881 -0.9600 -0.2659
vn -0.2516 -0.9612 -0.1130
vn -0.2704 -0.8995 -0.3432
vn 0.1020 -0.9237 0.3694
vn -0.0354 -0.9958 0.0843
vn -0.0670 0.9859 -0.1531
vn -0.9494 0.2712 0.1586
vn 0.1986 0.9485 -0.2468
vn -0.1169 0.9673 0.2250
vn -0.1175 0.9915 -0.0553
vn -0.1845 0.9697 -0.1599
vn -0.1947 0.9646 -0.1778
vn -0.0541 0.9899 -0.1309
vn 0.2043 0.9690 -0.1390
vn -0.5659 0.8217 -0.0672
vn 0.4452 0.8939 0.0524
vn -0.4980 0.7167 0.4882
vn 0.3776 -0.6414 0.6678
vn 0.8153 0.5765 0.0542
vn 0.1252 -0.9883 0.0870
vn -0.0537 -0.9984 -0.0161
vn 0.1754 -0.9830 -0.0534
vn -0.6749 0.4412 -0.5915
vn -0.8017 0.5880 0.1079
vn -0.3661 0.9250 -0.1019
vn -0.0577 0.9948 0.0844
vn 0.2922 0.9492 0.1164
vn -0.4425 -0.1274 0.8877
vn 0.2666 0.0084 0.9638
vn 0.9666 0.2556 -0.0194
vn 0.5690 0.3216 -0.7568
vn 0.3446 0.2276 -0.9107
vn 0.9977 0.0098 -0.0664
vn 0.6645 -0.1062 0.7397
vn -0.5614 0.6042 0.5655
vn -0.8991 0.4206 -0.1209
vn -0.2847 0.3749 -0.8822
vn -0.4156 -0.6838 -0.5997
vn -0.6280 -0.7448 -0.2256
vn -0.4557 -0.2260 0.8609
vn 0.7613 -0.6096 0.2210
vn 0.5522 0.3579 -0.7530
vn -0.4042 0.8933 -0.1964
vn 0.2880 0.9355 0.2049
vn 0.0554 0.9386 0.3404
vn -0.0033 0.9019 -0.4320
vn -0.0036 0.9986 0.0534
vn 0.2043 0.9638 0.1715
vn -0.1255 0.9814 0.1454
vn -0.3680 0.9298 -0.0061
vn 0.1936 0.9243 -0.3290
vn 0.1825 -0.9445 0.2733
vn -0.1104 -0.9876 0.1118
vn -0.1093 -0.9780 -0.1774
vn 0.1815 -0.9391 -0.2920
vn -0.0530 -0.9847 -0.1657
vn 0.1756 -0.9839 -0.0337
vn 0.0175 -0.9630 -0.2689
vn 0.3631 -0.9298 -0.0598
vn 0.3578 -0.9162 -0.1805
vn -0.2858 -0.9507 0.1202
vn -0.2149 -0.9627 0.1647
vn -0.2139 -0.9583 0.1894
vn -0.0579 0.9983 0.0117
vn 0.0154 0.9984 0.0541
vn 0.2070 0.9766 -0.0579
vn 0.2134 0.8813 -0.4217
vn -0.0656 0.9744 -0.2149
vn -0.3925 0.8676 -0.3053
vn 0.1249 -0.9856 0.1143
vn 0.0763 -0.9340 0.3491
vn 0.4769 -0.8757 0.0757
vn -0.5782 -0.8098 0.0998
vn -0.5814 -0.8129 0.0329
vn 0.3839 -0.9196 -0.0829
vn -0.2081 -0.9513 -0.2273
vn -0.1968 -0.9768 -0.0849
vn -0.1465 -0.9467 -0.2867
vn -0.0361 -0.9267 -0.3741
vn -0.0368 -0.9279 0.3711
vn 0.1330 -0.9876 0.0836
vn -0.0963 0.9714 -0.2169
vn -0.1243 0.9664 0.2248
vn -0.0803 0.9952 -0.0555
vn -0.3640 0.9184 0.1550
vn -0.1689 0.9607 -0.2202
vn -0.0661 0.9917 -0.1104
vn 0.2302 0.9704 -0.0731
vn -0.3011 0.8531 0.4261
vn 0.0642 0.8291 -0.5554
vt 0.916667 0.750000
vt 0.833333 0.500000
vt 0.916667 0.500000
vt 0.750000 0.750000
vt 0.666667 0.500000
vt 0.750000 0.500000
vt 0.583333 0.750000
vt 0.500000 0.500000
vt 0.583333 0.500000
vt 0.416667 0.750000
vt 0.333333 0.500000
vt 0.416667 0.500000
vt 0.250000 0.490000
vt 0.198038 0.400000
vt 0.301962 0.400000
vt 0.250000 0.750000
vt 0.166667 0.500000
vt 0.250000 0.500000
vt 0.083333 0.750000
vt -0.000000 0.500000
vt 0.083333 0.500000
vt 0.957846 0.370000
vt 0.905885 0.280000
vt 0.853923 0.370000
vt 0.666667 1.000000
vt 0.750000 1.000000
vt 0.500000 1.000000
vt 0.583333 1.000000
vt 0.333333 1.000000
vt 0.416667 1.000000
vt 0.457846 0.250000
vt 0.405885 0.220000
vt 0.457846 0.130000
vt 0.146077 0.430000
vt 0.146077 0.070000
vt 0.146077 0.130000
vt 0.042154 0.130000
vt 0.166667 1.000000
vt 0.250000 1.000000
vt -0.000000 1.000000
vt 0.083333 1.000000
vt 0.646077 0.430000
vt 0.646077 0.370000
vt 0.542154 0.370000
vt 0.957846 0.250000
vt 0.646077 0.070000
vt 0.698038 0.100000
vt 0.750000 0.010000
vt 0.542154 0.250000
vt 0.594115 0.280000
vt 0.646077 0.190000
vt 0.594115 0.160000
vt 0.542154 0.130000
vt 0.853923 0.070000
vt 0.801962 0.100000
vt 0.853923 0.190000
vt 0.905885 0.160000
vt 0.957846 0.130000
vt 0.853923 0.430000
vt 0.750000 0.370000
vt 0.750000 0.430000
vt 0.750000 0.490000
vt 0.353923 0.070000
vt 0.353923 0.130000
vt 0.250000 0.130000
vt 0.250000 0.070000
vt 0.250000 0.010000
vt 0.042154 0.250000
vt 0.094115 0.220000
vt 0.146077 0.310000
vt 0.094115 0.340000
vt 0.042154 0.370000
vt 0.353923 0.430000
vt 0.353923 0.310000
vt 0.405885 0.340000
vt 0.457846 0.370000
vt 0.833333 1.000000
vt 0.698038 0.280000
vt 0.801962 0.280000
vt 0.750000 0.190000
vt 0.301962 0.220000
vt 0.250000 0.310000
vt 0.198038 0.220000
vt 1.000000 0.500000
vt 1.000000 1.000000
s 0
f 24/1/1 3/2/1 13/3/1
f 25/4/2 5/5/2 14/6/2
f 26/7/3 7/8/3 16/9/3
f 27/10/4 9/11/4 18/12/4
f 2/13/5 37/14/5 42/15/5
f 31/16/6 11/17/6 20/18/6
f 32/19/7 1/20/7 22/21/7
f 3/22/8 40/23/8 45/24/8
f 6/25/9 25/4/9 15/26/9
f 8/27/10 26/7/10 17/28/10
f 10/29/11 27/10/11 19/30/11
f 15/31/12 36/32/12 6/33/12
f 23/34/13 37/14/13 2/13/13
f 19/35/14 38/36/14 10/37/14
f 12/38/15 31/16/15 21/39/15
f 2/40/16 32/19/16 23/41/16
f 22/42/17 39/43/17 11/44/17
f 14/45/18 40/23/18 3/22/18
f 18/46/19 41/47/19 7/48/19
f 20/49/20 47/50/20 35/51/20
f 35/51/21 48/52/21 20/49/21
f 9/53/22 48/52/22 18/46/22
f 16/54/23 46/55/23 34/56/23
f 34/56/24 49/57/24 16/54/24
f 5/58/25 49/57/25 14/45/25
f 13/59/26 45/24/26 33/60/26
f 33/60/27 50/61/27 13/59/27
f 1/62/28 50/61/28 22/42/28
f 12/38/29 23/41/29 32/19/29
f 10/29/30 21/39/30 31/16/30
f 17/63/31 44/64/31 30/65/31
f 30/65/32 51/66/32 17/63/32
f 8/67/33 51/66/33 19/35/33
f 21/68/34 43/69/34 29/70/34
f 29/70/35 52/71/35 21/68/35
f 12/72/36 52/71/36 23/34/36
f 24/73/37 42/15/37 28/74/37
f 28/74/38 53/75/38 24/73/38
f 4/76/39 53/75/39 15/31/39
f 8/27/40 19/30/40 27/10/40
f 6/25/41 17/28/41 26/7/41
f 4/77/42 15/26/42 25/4/42
f 33/60/43 54/78/43 39/43/43
f 33/60/44 55/79/44 54/78/44
f 34/56/45 46/55/45 56/80/45
f 32/19/46 11/17/46 12/38/46
f 31/16/47 9/11/47 10/29/47
f 28/74/48 57/81/48 36/32/48
f 28/74/49 58/82/49 57/81/49
f 29/70/50 43/69/50 59/83/50
f 27/10/51 7/8/51 8/27/51
f 26/7/52 5/5/52 6/25/52
f 25/4/53 3/2/53 4/77/53
f 24/1/54 1/84/54 2/85/54
f 4/77/55 3/2/55 24/1/55
f 6/25/56 5/5/56 25/4/56
f 8/27/57 7/8/57 26/7/57
f 10/29/58 9/11/58 27/10/58
f 12/38/59 11/17/59 31/16/59
f 2/40/60 1/20/60 32/19/60
f 32/19/61 22/21/61 11/17/61
f 31/16/62 20/18/62 9/11/62
f 27/10/63 18/12/63 7/8/63
f 26/7/3 16/9/3 5/5/3
f 25/4/64 14/6/64 3/2/64
f 24/1/65 13/3/65 1/84/65
f 59/83/66 38/36/66 30/65/66
f 59/83/67 43/69/67 38/36/67
f 43/69/68 10/37/68 38/36/68
f 57/81/69 59/83/69 30/65/69
f 57/81/70 58/82/70 59/83/70
f 58/82/71 29/70/71 59/83/71
f 36/32/72 44/64/72 6/33/72
f 36/32/73 57/81/73 44/64/73
f 57/81/74 30/65/74 44/64/74
f 56/80/75 41/47/75 35/51/75
f 56/80/76 46/55/76 41/47/76
f 46/55/77 7/48/77 41/47/77
f 54/78/78 56/80/78 35/51/78
f 54/78/79 55/79/79 56/80/79
f 55/79/80 34/56/80 56/80/80
f 39/43/81 47/50/81 11/44/81
f 39/43/82 54/78/82 47/50/82
f 54/78/83 35/51/83 47/50/83
f 45/24/84 55/79/84 33/60/84
f 45/24/85 40/23/85 55/79/85
f 40/23/86 34/56/86 55/79/86
f 42/15/87 58/82/87 28/74/87
f 42/15/88 37/14/88 58/82/88
f 37/14/89 29/70/89 58/82/89
f 15/31/90 28/74/90 36/32/90
f 23/34/91 29/70/91 37/14/91
f 19/35/92 30/65/92 38/36/92
f 22/42/93 33/60/93 39/43/93
f 14/45/94 34/56/94 40/23/94
f 18/46/95 35/51/95 41/47/95
f 20/49/96 11/44/96 47/50/96
f 35/51/97 18/46/97 48/52/97
f 9/53/98 20/49/98 48/52/98
f 16/54/99 7/48/99 46/55/99
f 34/56/100 14/45/100 49/57/100
f 5/58/101 16/54/101 49/57/101
f 13/59/102 3/22/102 45/24/102
f 33/60/103 22/42/103 50/61/103
f 1/62/104 13/59/104 50/61/104
f 17/63/105 6/33/105 44/64/105
f 30/65/106 19/35/106 51/66/106
f 8/67/107 17/63/107 51/66/107
f 21/68/108 10/37/108 43/69/108
f 29/70/109 23/34/109 52/71/109
f 12/72/110 21/68/110 52/71/110
f 24/73/111 2/13/111 42/15/111
f 28/74/112 15/31/112 53/75/112
f 4/76/113 24/73/113 53/75/113
