# Blender 4.3.0
# www.blender.org
o Cylinder
v 0.000000 -3.831212 -26.729284
v 0.000000 3.932036 -26.860241
v 21.851263 -2.678338 -12.615832
v 19.836737 0.887636 -11.452745
v 19.831631 -0.883097 11.449798
v 22.053782 2.858359 12.732758
v 0.000000 -2.028848 24.387964
v 0.000000 3.970222 26.909863
v -19.915697 -0.957823 11.498333
v -22.566528 3.314140 13.028791
v -23.402775 -4.057483 -13.511599
v -23.397303 4.052604 -13.508440
v 10.212152 -1.273682 -17.687967
v 10.664965 2.179298 -18.472261
v 21.509823 -2.359190 0.000000
v 23.306948 4.156296 0.000000
v 10.441417 -1.732207 18.085064
v 10.428956 1.707286 18.063482
v -10.021133 -0.891648 17.357111
v -11.027004 2.903370 19.099333
v -23.054861 -3.904211 0.000000
v -22.260536 3.109895 0.000000
v -10.063290 -0.975961 -17.430130
v -10.236841 1.323060 -17.730728
v 9.980028 0.000000 -17.285915
v 19.995886 0.000000 0.000000
v 10.061006 0.000000 17.426172
v -10.614540 0.000000 18.384924
v 10.825317 4.918568 -6.250000
v -10.825317 2.891366 -6.250000
v 0.000000 1.511745 12.500000
v -22.675688 0.000000 0.000000
v -11.762300 0.000000 -20.372902
v 0.000000 -0.619531 -12.500000
v 10.825317 -1.994485 6.250000
v -10.825317 -5.203591 6.250000
v 16.237976 1.832129 3.125000
v -5.412659 0.762605 -15.625000
v -10.825317 4.093156 12.500000
v -10.825317 -2.030081 -12.500000
v 16.237976 -2.752653 -3.125000
v -5.412659 -1.982692 15.625000
v 5.412659 0.462023 -15.625000
v -16.237976 -0.103742 3.125000
v 10.825317 3.715786 12.500000
v 10.825317 -1.859330 -12.500000
v 5.412659 -1.954034 15.625000
v -16.237976 -0.464473 -3.125000
v -16.237976 -1.490538 9.375000
v 16.237976 -0.661286 9.375000
v 0.000000 -4.977382 -18.750000
v 0.000000 2.918789 18.750000
v -16.237976 3.054258 -9.375000
v 16.237976 1.645064 -9.375000
v -5.412659 -3.842847 -3.125000
v 5.412659 -3.653203 -3.125000
v 0.000000 -2.716372 6.250000
v 5.412659 0.122091 3.125000
v 0.000000 1.405793 -6.250000
v -5.412659 0.230886 3.125000
vn 0.4098 0.3417 -0.8458
vn 0.8404 0.5393 0.0537
vn 0.4648 0.4021 0.7889
vn -0.3021 -0.7995 0.5192
vn 0.0266 0.9587 0.2833
vn -0.9950 0.0966 0.0245
vn -0.3573 -0.9284 -0.1016
vn -0.0745 -0.9959 -0.0519
vn 0.4663 -0.5315 -0.7071
vn 0.7821 -0.6230 0.0135
vn 0.5434 -0.3938 0.7414
vn -0.4555 -0.2732 0.8473
vn -0.2837 0.9564 0.0696
vn -0.0055 0.9631 0.2690
vn -0.0573 0.9828 0.1754
vn -0.9870 0.1318 0.0923
vn -0.4111 0.8877 -0.2072
vn 0.1707 -0.9686 -0.1807
vn 0.0586 -0.9979 0.0268
vn -0.1890 -0.9756 0.1116
vn 0.1796 -0.8323 -0.5244
vn -0.3168 -0.8371 0.4459
vn -0.0693 -0.9893 0.1282
vn 0.0327 -0.9992 0.0232
vn 0.2233 -0.9743 0.0288
vn -0.1238 -0.9863 0.1090
vn -0.1132 -0.9887 -0.0982
vn 0.2315 -0.7980 0.5564
vn -0.3811 -0.9151 -0.1315
vn 0.0349 0.8854 -0.4635
vn -0.9909 0.1323 -0.0253
vn -0.1889 0.9279 0.3215
vn 0.0984 0.9708 -0.2186
vn -0.0054 0.9918 -0.1278
vn 0.2470 0.8726 0.4214
vn 0.0244 0.9997 0.0098
vn 0.1796 0.9809 -0.0742
vn -0.3989 0.8959 -0.1956
vn 0.4177 0.8854 -0.2039
vn 0.0373 0.9579 -0.2847
vn -0.5384 -0.2727 0.7974
vn 0.4149 -0.3953 0.8195
vn 0.7808 -0.6220 -0.0591
vn 0.4680 -0.5315 -0.7061
vn 0.1249 -0.9582 -0.2574
vn 0.0166 -0.9484 -0.3165
vn 0.0665 -0.9969 0.0427
vn -0.5080 0.0007 -0.8614
vn -0.8154 -0.5594 0.1491
vn -0.1441 0.9122 0.3835
vn -0.2949 0.9089 0.2947
vn -0.0296 0.9570 0.2887
vn -0.5116 -0.3330 0.7921
vn 0.4162 -0.5062 0.7553
vn 0.8739 0.4854 0.0255
vn 0.6897 -0.0122 -0.7240
vn 0.4127 0.4847 -0.7712
vn 0.8634 -0.5037 -0.0265
vn 0.5822 -0.3151 0.7495
vn -0.4643 -0.5397 0.7022
vn -0.9986 0.0007 0.0535
vn -0.4791 -0.0148 -0.8776
vn 0.1055 -0.9241 -0.3674
vn -0.9663 0.0938 0.2398
vn -0.4076 -0.7931 0.4527
vn 0.5040 0.4016 0.7647
vn 0.8416 0.5401 0.0091
vn 0.5743 0.3398 -0.7448
vn 0.2241 0.9398 -0.2578
vn -0.0284 0.9184 -0.3947
vn -0.0781 0.9260 -0.3694
vn 0.0099 0.9900 -0.1410
vn 0.0100 0.9915 0.1300
vn 0.1332 0.9710 0.1986
vn 0.0784 0.9852 -0.1527
vn -0.1499 0.9490 -0.2772
vn -0.1931 0.9483 -0.2520
vn 0.2193 -0.9546 0.2013
vn 0.0026 -0.9968 0.0795
vn 0.0026 -1.0000 -0.0069
vn 0.2239 -0.9745 -0.0122
vn 0.0174 -0.9938 0.1094
vn 0.0659 -0.9884 0.1368
vn 0.1358 -0.9615 0.2390
vn -0.2979 -0.9545 -0.0126
vn -0.2845 -0.9116 -0.2966
vn -0.1102 -0.9625 -0.2478
vn 0.0821 -0.9865 -0.1414
vn 0.0822 -0.9884 0.1274
vn -0.2977 0.9174 -0.2642
vn 0.0277 0.9961 -0.0843
vn 0.1345 0.9803 -0.1449
vn -0.1337 0.9158 0.3787
vn 0.1681 0.9778 -0.1250
vn 0.2282 0.9569 0.1795
vn 0.1269 -0.9738 -0.1886
vn 0.0198 -0.9956 0.0919
vn -0.0820 -0.9271 0.3658
vn 0.4500 -0.8930 -0.0015
vn -0.3783 -0.8534 0.3587
vn 0.0026 -0.9689 0.2476
vn 0.0371 -0.9992 0.0144
vn 0.1035 -0.9669 0.2333
vn 0.0066 -0.9930 -0.1177
vn -0.0748 -0.9919 -0.1031
vn -0.2436 -0.7956 0.5547
vn 0.3501 -0.9272 -0.1332
vn 0.0645 0.9372 0.3429
vn -0.0083 0.9755 -0.2196
vn 0.1062 0.9862 -0.1271
vn 0.4719 0.8817 -0.0027
vn 0.1044 0.9861 -0.1294
vn 0.1035 0.9928 0.0606
vn -0.1178 0.9314 0.3444
vn 0.2696 0.8598 -0.4336
vn 0.1774 0.9828 -0.0510
vt 0.916667 0.750000
vt 0.833333 0.500000
vt 0.916667 0.500000
vt 0.750000 0.750000
vt 0.666667 0.500000
vt 0.750000 0.500000
vt 0.583333 0.750000
vt 0.500000 0.500000
vt 0.583333 0.500000
vt 0.416667 0.750000
vt 0.333333 0.500000
vt 0.416667 0.500000
vt 0.250000 0.490000
vt 0.198038 0.400000
vt 0.301962 0.400000
vt 0.250000 0.750000
vt 0.166667 0.500000
vt 0.250000 0.500000
vt 0.083333 0.750000
vt -0.000000 0.500000
vt 0.083333 0.500000
vt 0.957846 0.370000
vt 0.905885 0.280000
vt 0.853923 0.370000
vt 0.833333 1.000000
vt 0.916667 1.000000
vt 0.666667 1.000000
vt 0.750000 1.000000
vt 0.500000 1.000000
vt 0.583333 1.000000
vt 0.333333 1.000000
vt 0.416667 1.000000
vt 0.457846 0.250000
vt 0.405885 0.220000
vt 0.457846 0.130000
vt 0.146077 0.430000
vt 0.146077 0.070000
vt 0.146077 0.130000
vt 0.042154 0.130000
vt 0.166667 1.000000
vt 0.250000 1.000000
vt -0.000000 1.000000
vt 0.083333 1.000000
vt 0.646077 0.430000
vt 0.646077 0.370000
vt 0.542154 0.370000
vt 0.957846 0.250000
vt 0.646077 0.070000
vt 0.698038 0.100000
vt 0.750000 0.010000
vt 0.542154 0.250000
vt 0.594115 0.280000
vt 0.646077 0.190000
vt 0.594115 0.160000
vt 0.542154 0.130000
vt 0.853923 0.070000
vt 0.801962 0.100000
vt 0.853923 0.190000
vt 0.905885 0.160000
vt 0.957846 0.130000
vt 0.853923 0.430000
vt 0.750000 0.370000
vt 0.750000 0.430000
vt 0.750000 0.490000
vt 0.353923 0.070000
vt 0.353923 0.130000
vt 0.250000 0.130000
vt 0.250000 0.070000
vt 0.250000 0.010000
vt 0.042154 0.250000
vt 0.094115 0.220000
vt 0.146077 0.310000
vt 0.094115 0.340000
vt 0.042154 0.370000
vt 0.353923 0.430000
vt 0.353923 0.310000
vt 0.405885 0.340000
vt 0.457846 0.370000
vt 1.000000 1.000000
vt 0.698038 0.280000
vt 0.801962 0.280000
vt 0.750000 0.190000
vt 0.301962 0.220000
vt 0.250000 0.310000
vt 0.198038 0.220000
vt 1.000000 0.500000
s 0
f 25/1/1 3/2/1 13/3/1
f 26/4/2 5/5/2 15/6/2
f 27/7/3 7/8/3 17/9/3
f 28/10/4 9/11/4 19/12/4
f 2/13/5 38/14/5 43/15/5
f 32/16/6 11/17/6 21/18/6
f 33/19/7 1/20/7 23/21/7
f 3/22/8 41/23/8 46/24/8
f 4/25/9 25/1/9 14/26/9
f 6/27/10 26/4/10 16/28/10
f 8/29/11 27/7/11 18/30/11
f 10/31/12 28/10/12 20/32/12
f 16/33/13 37/34/13 6/35/13
f 24/36/14 38/14/14 2/13/14
f 20/37/15 39/38/15 10/39/15
f 12/40/16 32/16/16 22/41/16
f 2/42/17 33/19/17 24/43/17
f 23/44/18 40/45/18 11/46/18
f 15/47/19 41/23/19 3/22/19
f 19/48/20 42/49/20 7/50/20
f 21/51/21 48/52/21 36/53/21
f 36/53/22 49/54/22 21/51/22
f 9/55/23 49/54/23 19/48/23
f 17/56/24 47/57/24 35/58/24
f 35/58/25 50/59/25 17/56/25
f 5/60/26 50/59/26 15/47/26
f 13/61/27 46/24/27 34/62/27
f 34/62/28 51/63/28 13/61/28
f 1/64/29 51/63/29 23/44/29
f 12/40/30 24/43/30 33/19/30
f 10/31/31 22/41/31 32/16/31
f 18/65/32 45/66/32 31/67/32
f 31/67/33 52/68/33 18/65/33
f 8/69/34 52/68/34 20/37/34
f 22/70/35 44/71/35 30/72/35
f 30/72/36 53/73/36 22/70/36
f 12/74/37 53/73/37 24/36/37
f 14/75/38 43/15/38 29/76/38
f 29/76/39 54/77/39 14/75/39
f 4/78/40 54/77/40 16/33/40
f 8/29/41 20/32/41 28/10/41
f 6/27/42 18/30/42 27/7/42
f 4/25/43 16/28/43 26/4/43
f 2/79/44 14/26/44 25/1/44
f 34/62/45 55/80/45 40/45/45
f 34/62/46 56/81/46 55/80/46
f 35/58/47 47/57/47 57/82/47
f 33/19/48 11/17/48 12/40/48
f 32/16/49 9/11/49 10/31/49
f 29/76/50 58/83/50 37/34/50
f 29/76/51 59/84/51 58/83/51
f 30/72/52 44/71/52 60/85/52
f 28/10/53 7/8/53 8/29/53
f 27/7/54 5/5/54 6/27/54
f 26/4/55 3/2/55 4/25/55
f 25/1/56 1/86/56 2/79/56
f 4/25/57 3/2/57 25/1/57
f 6/27/58 5/5/58 26/4/58
f 8/29/59 7/8/59 27/7/59
f 10/31/60 9/11/60 28/10/60
f 12/40/61 11/17/61 32/16/61
f 2/42/62 1/20/62 33/19/62
f 33/19/63 23/21/63 11/17/63
f 32/16/64 21/18/64 9/11/64
f 28/10/65 19/12/65 7/8/65
f 27/7/66 17/9/66 5/5/66
f 26/4/67 15/6/67 3/2/67
f 25/1/68 13/3/68 1/86/68
f 60/85/69 39/38/69 31/67/69
f 60/85/70 44/71/70 39/38/70
f 44/71/71 10/39/71 39/38/71
f 58/83/72 60/85/72 31/67/72
f 58/83/73 59/84/73 60/85/73
f 59/84/74 30/72/74 60/85/74
f 37/34/75 45/66/75 6/35/75
f 37/34/76 58/83/76 45/66/76
f 58/83/77 31/67/77 45/66/77
f 57/82/78 42/49/78 36/53/78
f 57/82/79 47/57/79 42/49/79
f 47/57/80 7/50/80 42/49/80
f 55/80/81 57/82/81 36/53/81
f 55/80/82 56/81/82 57/82/82
f 56/81/83 35/58/83 57/82/83
f 40/45/84 48/52/84 11/46/84
f 40/45/85 55/80/85 48/52/85
f 55/80/86 36/53/86 48/52/86
f 46/24/87 56/81/87 34/62/87
f 46/24/88 41/23/88 56/81/88
f 41/23/89 35/58/89 56/81/89
f 43/15/90 59/84/90 29/76/90
f 43/15/91 38/14/91 59/84/91
f 38/14/92 30/72/92 59/84/92
f 16/33/93 29/76/93 37/34/93
f 24/36/94 30/72/94 38/14/94
f 20/37/95 31/67/95 39/38/95
f 23/44/96 34/62/96 40/45/96
f 15/47/97 35/58/97 41/23/97
f 19/48/98 36/53/98 42/49/98
f 21/51/99 11/46/99 48/52/99
f 36/53/100 19/48/100 49/54/100
f 9/55/101 21/51/101 49/54/101
f 17/56/102 7/50/102 47/57/102
f 35/58/103 15/47/103 50/59/103
f 5/60/104 17/56/104 50/59/104
f 13/61/105 3/22/105 46/24/105
f 34/62/106 23/44/106 51/63/106
f 1/64/107 13/61/107 51/63/107
f 18/65/108 6/35/108 45/66/108
f 31/67/109 20/37/109 52/68/109
f 8/69/110 18/65/110 52/68/110
f 22/70/111 10/39/111 44/71/111
f 30/72/112 24/36/112 53/73/112
f 12/74/113 22/70/113 53/73/113
f 14/75/114 2/13/114 43/15/114
f 29/76/115 16/33/115 54/77/115
f 4/78/116 14/75/116 54/77/116
