# Blender 4.3.0
# www.blender.org
o Cylinder
v 0.000000 -1.981765 -24.326797
v 0.000000 1.339071 -23.491932
v 22.845568 -3.562180 -13.189896
v 21.984673 2.796924 -12.692857
v 22.147030 -2.941242 12.786593
v 20.222311 1.230358 11.675356
v 0.000000 -3.312869 26.055931
v 0.000000 3.450300 26.234468
v -22.101330 -2.900620 12.760209
v -21.856081 2.682622 12.618614
v -20.723650 -1.676001 -11.964806
v -22.305538 3.082139 -12.878108
v 11.460192 -3.769734 -19.849634
v 10.773764 2.396895 -18.660707
v 23.223928 -4.073276 0.000000
v 22.338749 3.188108 0.000000
v 10.587816 -2.025004 18.338636
v 10.869779 2.588921 18.827009
v -11.564957 -3.979263 20.031094
v -10.344499 1.538372 17.917196
v -20.690926 -1.540301 0.000000
v -22.258318 3.107676 0.000000
v -11.221250 -3.291856 -19.435774
v -10.749100 2.347566 -18.617987
v 9.925831 0.000000 -17.192043
v 20.828909 0.000000 0.000000
v 10.129488 0.000000 17.544788
v -11.276562 0.000000 19.531578
v 10.825317 3.086186 -6.250000
v -10.825317 0.282082 -6.250000
v 0.000000 3.852429 12.500000
v -21.536745 0.000000 0.000000
v -9.895229 0.000000 -17.139040
v 0.000000 -1.249385 -12.500000
v 10.825317 -4.118609 6.250000
v -10.825317 -0.685877 6.250000
v 16.237976 4.319743 3.125000
v -5.412659 1.279707 -15.625000
v -10.825317 4.376000 12.500000
v -10.825317 -2.425760 -12.500000
v 16.237976 -1.598752 -3.125000
v -5.412659 -3.232914 15.625000
v 5.412659 4.270360 -15.625000
v -16.237976 2.178082 3.125000
v 10.825317 4.205778 12.500000
v 10.825317 -2.913860 -12.500000
v 5.412659 -1.316553 15.625000
v -16.237976 -4.068837 -3.125000
v -16.237976 -0.760953 9.375000
v 16.237976 -3.147122 9.375000
v 0.000000 -1.922765 -18.750000
v 0.000000 0.915135 18.750000
v -16.237976 4.724528 -9.375000
v 16.237976 4.476225 -9.375000
v -5.412659 -0.957207 -3.125000
v 5.412659 -1.016559 -3.125000
v 0.000000 -2.773275 6.250000
v 5.412659 3.768581 3.125000
v 0.000000 3.598346 -6.250000
v -5.412659 2.478562 3.125000
vn 0.3830 0.6313 -0.6744
vn 0.8617 0.5067 0.0277
vn 0.5035 0.4117 0.7596
vn -0.5522 0.1431 0.8214
vn -0.2623 0.9493 -0.1733
vn -0.8765 -0.4813 0.0079
vn -0.3716 0.6272 -0.6845
vn -0.0438 -0.9856 0.1635
vn 0.3996 -0.5776 -0.7119
vn 0.9000 -0.4262 0.0917
vn 0.4617 -0.4962 0.7353
vn -0.2050 0.7650 0.6106
vn 0.2803 0.9371 0.2080
vn 0.1392 0.9849 0.1032
vn -0.1291 0.8737 0.4691
vn -0.9741 -0.2262 0.0040
vn -0.3791 -0.5880 -0.7145
vn -0.0681 -0.9895 0.1274
vn -0.3229 -0.9461 -0.0274
vn 0.0840 -0.9951 -0.0512
vn -0.1971 -0.8803 0.4315
vn 0.0484 -0.9970 0.0599
vn 0.1412 -0.9289 -0.3425
vn -0.2169 -0.9626 0.1624
vn 0.0772 -0.9821 0.1716
vn -0.0155 -0.9961 0.0869
vn -0.1512 -0.9833 0.1014
vn -0.1483 -0.9833 0.1059
vn 0.1205 -0.9927 0.0105
vn -0.3894 -0.5882 -0.7088
vn -0.9738 -0.2261 0.0234
vn -0.0316 0.9683 0.2477
vn -0.1410 0.8960 0.4211
vn 0.0826 0.9439 -0.3197
vn 0.1950 0.9771 -0.0850
vn 0.4243 0.8065 0.4116
vn -0.0866 0.9512 -0.2960
vn 0.3020 0.9518 -0.0541
vn -0.2765 0.9596 -0.0521
vn 0.2606 0.9647 -0.0370
vn -0.4902 0.7547 0.4361
vn 0.4810 -0.4957 0.7232
vn 0.9037 -0.4280 -0.0120
vn 0.3806 -0.5773 -0.7224
vn 0.1076 -0.9898 0.0930
vn -0.0055 -0.9996 0.0280
vn -0.1203 -0.9681 0.2199
vn -0.3748 -0.2934 -0.8794
vn -0.9985 0.0430 -0.0344
vn -0.0506 0.9935 -0.1015
vn 0.0472 0.9979 -0.0454
vn -0.0271 0.9766 -0.2132
vn -0.5057 -0.0228 0.8624
vn 0.4207 0.4097 0.8094
vn 0.9853 0.1242 0.1171
vn 0.5441 0.2046 -0.8137
vn 0.3232 0.1172 -0.9391
vn 0.9077 0.4196 0.0029
vn 0.6470 -0.0201 0.7622
vn -0.5384 0.0450 0.8415
vn -0.9476 -0.3188 -0.0197
vn -0.5483 0.2039 -0.8110
vn -0.4127 0.6271 -0.6606
vn -0.8671 -0.4761 -0.1466
vn -0.4637 0.1434 0.8743
vn 0.4208 0.4121 0.8082
vn 0.8620 0.5069 -0.0051
vn 0.3657 0.6311 -0.6841
vn 0.0476 0.9840 -0.1717
vn -0.0271 0.9766 -0.2133
vn -0.1517 0.9782 -0.1418
vn -0.1180 0.9900 -0.0770
vn -0.1182 0.9917 0.0502
vn -0.2925 0.9547 -0.0548
vn 0.3115 0.9308 0.1912
vn -0.0508 0.9986 -0.0172
vn -0.0326 0.9991 -0.0278
vn -0.1870 -0.9700 -0.1555
vn 0.1741 -0.9833 0.0523
vn 0.1735 -0.9800 -0.0975
vn -0.1887 -0.9787 -0.0806
vn -0.0054 -0.9823 -0.1872
vn -0.1194 -0.9611 -0.2491
vn -0.0855 -0.9718 -0.2197
vn 0.2762 -0.9610 -0.0089
vn 0.2715 -0.9447 0.1841
vn -0.1510 -0.9822 0.1116
vn -0.0529 -0.9843 0.1686
vn -0.0514 -0.9566 -0.2868
vn 0.0470 0.9940 0.0984
vn -0.2653 0.9605 -0.0843
vn -0.2922 0.9540 -0.0672
vn 0.0893 0.9795 -0.1804
vn 0.1040 0.9809 0.1645
vn 0.0429 0.8866 0.4606
vn 0.1073 -0.9873 0.1172
vn -0.1715 -0.9221 -0.3468
vn -0.0503 -0.9708 -0.2347
vn -0.4878 -0.8729 0.0112
vn -0.1234 -0.9637 -0.2369
vn 0.3076 -0.9491 -0.0672
vn -0.0281 -0.9790 -0.2020
vn 0.0842 -0.9835 0.1599
vn -0.0273 -0.9939 0.1072
vn -0.0471 -0.9926 0.1115
vn 0.1140 -0.9878 0.1064
vn -0.1581 -0.9874 0.0104
vn 0.3121 0.9210 0.2332
vn 0.0203 0.9048 0.4252
vn -0.1421 0.9375 -0.3176
vn 0.1378 0.9900 0.0290
vn 0.5797 0.8031 0.1377
vn -0.2608 0.9654 -0.0010
vn 0.0908 0.9111 -0.4020
vn -0.1250 0.9687 0.2144
vn 0.1158 0.9526 -0.2815
vt 0.916667 0.750000
vt 0.833333 0.500000
vt 0.916667 0.500000
vt 0.750000 0.750000
vt 0.666667 0.500000
vt 0.750000 0.500000
vt 0.583333 0.750000
vt 0.500000 0.500000
vt 0.583333 0.500000
vt 0.416667 0.750000
vt 0.333333 0.500000
vt 0.416667 0.500000
vt 0.250000 0.490000
vt 0.198038 0.400000
vt 0.301962 0.400000
vt 0.250000 0.750000
vt 0.166667 0.500000
vt 0.250000 0.500000
vt 0.083333 0.750000
vt -0.000000 0.500000
vt 0.083333 0.500000
vt 0.957846 0.370000
vt 0.905885 0.280000
vt 0.853923 0.370000
vt 0.833333 1.000000
vt 0.916667 1.000000
vt 0.666667 1.000000
vt 0.750000 1.000000
vt 0.500000 1.000000
vt 0.583333 1.000000
vt 0.333333 1.000000
vt 0.416667 1.000000
vt 0.457846 0.250000
vt 0.405885 0.220000
vt 0.457846 0.130000
vt 0.146077 0.430000
vt 0.146077 0.070000
vt 0.146077 0.130000
vt 0.042154 0.130000
vt 0.166667 1.000000
vt 0.250000 1.000000
vt -0.000000 1.000000
vt 0.083333 1.000000
vt 0.646077 0.430000
vt 0.646077 0.370000
vt 0.542154 0.370000
vt 0.957846 0.250000
vt 0.646077 0.070000
vt 0.698038 0.100000
vt 0.750000 0.010000
vt 0.542154 0.250000
vt 0.594115 0.280000
vt 0.646077 0.190000
vt 0.594115 0.160000
vt 0.542154 0.130000
vt 0.853923 0.070000
vt 0.801962 0.100000
vt 0.853923 0.190000
vt 0.905885 0.160000
vt 0.957846 0.130000
vt 0.853923 0.430000
vt 0.750000 0.370000
vt 0.750000 0.430000
vt 0.750000 0.490000
vt 0.353923 0.070000
vt 0.353923 0.130000
vt 0.250000 0.130000
vt 0.250000 0.070000
vt 0.250000 0.010000
vt 0.042154 0.250000
vt 0.094115 0.220000
vt 0.146077 0.310000
vt 0.094115 0.340000
vt 0.042154 0.370000
vt 0.353923 0.430000
vt 0.353923 0.310000
vt 0.405885 0.340000
vt 0.457846 0.370000
vt 1.000000 1.000000
vt 0.698038 0.280000
vt 0.801962 0.280000
vt 0.750000 0.190000
vt 0.301962 0.220000
vt 0.250000 0.310000
vt 0.198038 0.220000
vt 1.000000 0.500000
s 0
f 25/1/1 3/2/1 13/3/1
f 26/4/2 5/5/2 15/6/2
f 27/7/3 7/8/3 17/9/3
f 28/10/4 9/11/4 19/12/4
f 2/13/5 38/14/5 43/15/5
f 32/16/6 11/17/6 21/18/6
f 33/19/7 1/20/7 23/21/7
f 3/22/8 41/23/8 46/24/8
f 4/25/9 25/1/9 14/26/9
f 6/27/10 26/4/10 16/28/10
f 8/29/11 27/7/11 18/30/11
f 10/31/12 28/10/12 20/32/12
f 16/33/13 37/34/13 6/35/13
f 24/36/14 38/14/14 2/13/14
f 20/37/15 39/38/15 10/39/15
f 12/40/16 32/16/16 22/41/16
f 2/42/17 33/19/17 24/43/17
f 23/44/18 40/45/18 11/46/18
f 15/47/19 41/23/19 3/22/19
f 19/48/20 42/49/20 7/50/20
f 21/51/21 48/52/21 36/53/21
f 36/53/22 49/54/22 21/51/22
f 9/55/23 49/54/23 19/48/23
f 17/56/24 47/57/24 35/58/24
f 35/58/25 50/59/25 17/56/25
f 5/60/26 50/59/26 15/47/26
f 13/61/27 46/24/27 34/62/27
f 34/62/28 51/63/28 13/61/28
f 1/64/29 51/63/29 23/44/29
f 12/40/30 24/43/30 33/19/30
f 10/31/31 22/41/31 32/16/31
f 18/65/32 45/66/32 31/67/32
f 31/67/33 52/68/33 18/65/33
f 8/69/34 52/68/34 20/37/34
f 22/70/35 44/71/35 30/72/35
f 30/72/36 53/73/36 22/70/36
f 12/74/37 53/73/37 24/36/37
f 14/75/38 43/15/38 29/76/38
f 29/76/39 54/77/39 14/75/39
f 4/78/40 54/77/40 16/33/40
f 8/29/41 20/32/41 28/10/41
f 6/27/42 18/30/42 27/7/42
f 4/25/43 16/28/43 26/4/43
f 2/79/44 14/26/44 25/1/44
f 34/62/45 55/80/45 40/45/45
f 34/62/46 56/81/46 55/80/46
f 35/58/47 47/57/47 57/82/47
f 33/19/48 11/17/48 12/40/48
f 32/16/49 9/11/49 10/31/49
f 29/76/50 58/83/50 37/34/50
f 29/76/51 59/84/51 58/83/51
f 30/72/52 44/71/52 60/85/52
f 28/10/53 7/8/53 8/29/53
f 27/7/54 5/5/54 6/27/54
f 26/4/55 3/2/55 4/25/55
f 25/1/56 1/86/56 2/79/56
f 4/25/57 3/2/57 25/1/57
f 6/27/58 5/5/58 26/4/58
f 8/29/59 7/8/59 27/7/59
f 10/31/60 9/11/60 28/10/60
f 12/40/61 11/17/61 32/16/61
f 2/42/62 1/20/62 33/19/62
f 33/19/63 23/21/63 11/17/63
f 32/16/64 21/18/64 9/11/64
f 28/10/65 19/12/65 7/8/65
f 27/7/66 17/9/66 5/5/66
f 26/4/67 15/6/67 3/2/67
f 25/1/68 13/3/68 1/86/68
f 60/85/69 39/38/69 31/67/69
f 60/85/70 44/71/70 39/38/70
f 44/71/71 10/39/71 39/38/71
f 58/83/72 60/85/72 31/67/72
f 58/83/73 59/84/73 60/85/73
f 59/84/74 30/72/74 60/85/74
f 37/34/75 45/66/75 6/35/75
f 37/34/76 58/83/76 45/66/76
f 58/83/77 31/67/77 45/66/77
f 57/82/78 42/49/78 36/53/78
f 57/82/79 47/57/79 42/49/79
f 47/57/80 7/50/80 42/49/80
f 55/80/81 57/82/81 36/53/81
f 55/80/82 56/81/82 57/82/82
f 56/81/83 35/58/83 57/82/83
f 40/45/84 48/52/84 11/46/84
f 40/45/85 55/80/85 48/52/85
f 55/80/86 36/53/86 48/52/86
f 46/24/87 56/81/87 34/62/87
f 46/24/88 41/23/88 56/81/88
f 41/23/89 35/58/89 56/81/89
f 43/15/90 59/84/90 29/76/90
f 43/15/91 38/14/91 59/84/91
f 38/14/92 30/72/92 59/84/92
f 16/33/93 29/76/93 37/34/93
f 24/36/94 30/72/94 38/14/94
f 20/37/95 31/67/95 39/38/95
f 23/44/96 34/62/96 40/45/96
f 15/47/97 35/58/97 41/23/97
f 19/48/98 36/53/98 42/49/98
f 21/51/99 11/46/99 48/52/99
f 36/53/100 19/48/100 49/54/100
f 9/55/101 21/51/101 49/54/101
f 17/56/102 7/50/102 47/57/102
f 35/58/103 15/47/103 50/59/103
f 5/60/104 17/56/104 50/59/104
f 13/61/105 3/22/105 46/24/105
f 34/62/106 23/44/106 51/63/106
f 1/64/107 13/61/107 51/63/107
f 18/65/108 6/35/108 45/66/108
f 31/67/109 20/37/109 52/68/109
f 8/69/110 18/65/110 52/68/110
f 22/70/111 10/39/111 44/71/111
f 30/72/112 24/36/112 53/73/112
f 12/74/113 22/70/113 53/73/113
f 14/75/114 2/13/114 43/15/114
f 29/76/115 16/33/115 54/77/115
f 4/78/116 14/75/116 54/77/116
