# Blender 4.3.0
# www.blender.org
o Cylinder
v 0.000000 -1.257869 -23.386435
v 0.000000 2.344656 -24.798206
v 20.907150 -1.839114 -12.070748
v 22.131981 2.927866 -12.777905
v 23.088009 -3.777673 13.329868
v 22.828274 3.546807 13.179911
v 0.000000 -2.924737 25.551741
v 0.000000 3.322519 26.068478
v -21.742329 -2.581506 12.552939
v -22.099325 2.898843 12.759052
v -22.912434 -3.621617 -13.228500
v -20.496746 1.474314 -11.833801
v 11.596163 -4.041674 -20.085144
v 11.430992 3.711337 -19.799059
v 22.294224 -3.143582 0.000000
v 20.554144 1.403520 0.000000
v 11.053590 -2.956540 19.145380
v 11.228922 3.307201 19.449064
v -11.288686 -3.426727 19.552578
v -11.063565 2.976491 19.162659
v -21.857677 -2.707041 0.000000
v -21.211084 2.060454 0.000000
v -10.216935 -1.283248 -17.696251
v -10.715559 2.280486 -18.559893
v 11.702382 0.000000 -20.269121
v 23.847908 0.000000 0.000000
v 11.514864 0.000000 19.944330
v -10.386995 0.000000 17.990803
v 10.825317 3.405730 -6.250000
v -10.825317 3.174607 -6.250000
v 0.000000 1.957656 12.500000
v -21.883308 0.000000 0.000000
v -10.345778 0.000000 -17.919415
v 0.000000 -2.735709 -12.500000
v 10.825317 -2.426019 6.250000
v -10.825317 -2.557170 6.250000
v 16.237976 1.735185 3.125000
v -5.412659 0.424058 -15.625000
v -10.825317 4.199457 12.500000
v -10.825317 -4.546294 -12.500000
v 16.237976 -4.395002 -3.125000
v -5.412659 -0.342785 15.625000
v 5.412659 0.513656 -15.625000
v -16.237976 0.721736 3.125000
v 10.825317 1.427724 12.500000
v 10.825317 -1.313778 -12.500000
v 5.412659 -1.059486 15.625000
v -16.237976 -1.362852 -3.125000
v -16.237976 -4.317119 9.375000
v 16.237976 -3.782867 9.375000
v 0.000000 -1.953873 -18.750000
v 0.000000 2.180997 18.750000
v -16.237976 0.845901 -9.375000
v 16.237976 4.356293 -9.375000
v -5.412659 -1.414541 -3.125000
v 5.412659 -2.611386 -3.125000
v 0.000000 -2.667161 6.250000
v 5.412659 0.402965 3.125000
v 0.000000 2.085512 -6.250000
v -5.412659 3.770455 3.125000
vn 0.6585 -0.0515 -0.7508
vn 0.8940 -0.4419 -0.0743
vn 0.4780 -0.2979 0.8263
vn -0.4661 0.4655 0.7523
vn -0.0081 0.9797 0.2003
vn -0.9967 -0.0094 0.0801
vn -0.4767 -0.1969 -0.8568
vn -0.0373 -0.9555 -0.2925
vn 0.5502 0.1444 -0.8225
vn 0.3831 0.8990 -0.2123
vn 0.5006 0.1704 0.8488
vn -0.4547 -0.4139 0.7886
vn -0.0359 0.9874 -0.1544
vn 0.1661 0.9409 0.2950
vn -0.1088 0.9784 0.1757
vn -0.9482 0.3093 -0.0726
vn -0.4772 -0.3085 -0.8229
vn -0.0324 -0.8447 -0.5342
vn 0.2663 -0.9546 -0.1338
vn 0.2323 -0.9030 -0.3615
vn 0.1240 -0.9728 -0.1955
vn 0.1599 -0.9524 -0.2594
vn -0.1991 -0.9631 0.1811
vn -0.2995 -0.9535 -0.0339
vn -0.2233 -0.9741 -0.0361
vn 0.0292 -0.9984 -0.0492
vn 0.1221 -0.9299 0.3469
vn -0.1894 -0.9743 -0.1219
vn -0.0800 -0.9858 -0.1480
vn -0.5217 -0.3080 -0.7956
vn -0.9471 0.3090 -0.0862
vn 0.0472 0.9635 -0.2633
vn -0.0975 0.9946 -0.0355
vn 0.0652 0.9860 -0.1538
vn 0.0733 0.9537 0.2918
vn -0.2538 0.9329 -0.2555
vn 0.0419 0.9830 0.1787
vn -0.4698 0.8828 -0.0011
vn -0.1646 0.9862 0.0149
vn 0.3141 0.9374 0.1506
vn -0.4727 -0.4138 0.7780
vn 0.4658 0.1703 0.8683
vn 0.3872 0.9087 0.1562
vn 0.3821 0.1436 -0.9129
vn 0.1606 -0.9603 0.2281
vn -0.1096 -0.9910 0.0764
vn 0.0220 -0.9874 0.1566
vn -0.4211 0.4197 -0.8041
vn -0.9979 -0.0649 -0.0021
vn -0.1186 0.9635 0.2401
vn -0.1175 0.9634 0.2407
vn -0.2699 0.9582 0.0949
vn -0.5993 -0.0660 0.7978
vn 0.5046 0.0356 0.8626
vn 0.9440 -0.2706 -0.1888
vn 0.2761 -0.3507 -0.8949
vn 0.6105 -0.2675 -0.7455
vn 0.9971 0.0367 0.0672
vn 0.4517 -0.0735 0.8891
vn -0.4197 -0.0614 0.9056
vn -0.8971 0.4390 -0.0504
vn -0.4727 -0.3215 -0.8205
vn -0.2941 -0.1923 -0.9362
vn -0.9999 -0.0095 0.0093
vn -0.4314 0.4657 0.7727
vn 0.3990 -0.2967 0.8676
vn 0.8864 -0.4381 -0.1492
vn 0.2622 -0.0508 -0.9637
vn 0.2023 0.9767 0.0721
vn -0.2658 0.9438 -0.1966
vn -0.1163 0.9512 -0.2857
vn 0.2970 0.9548 0.0131
vn 0.2970 0.9549 -0.0001
vn 0.0994 0.9878 -0.1202
vn -0.1699 0.9833 -0.0658
vn -0.1221 0.9918 -0.0379
vn 0.0484 0.9895 -0.1361
vn -0.0099 -0.9719 0.2353
vn -0.0647 -0.9767 0.2048
vn -0.0645 -0.9738 -0.2181
vn -0.0101 -0.9919 -0.1267
vn -0.1096 -0.9916 -0.0692
vn 0.0223 -0.9997 0.0069
vn -0.0897 -0.9577 0.2734
vn -0.0045 -0.9477 0.3192
vn -0.0047 -0.9923 -0.1237
vn 0.1300 -0.9896 -0.0619
vn -0.1584 -0.9615 -0.2245
vn -0.1615 -0.9804 0.1126
vn -0.1178 0.9660 -0.2300
vn -0.0082 0.9854 -0.1699
vn 0.0975 0.9688 -0.2280
vn 0.1430 0.9853 0.0930
vn 0.3613 0.9302 -0.0643
vn 0.1993 0.9625 0.1838
vn 0.1415 -0.8457 -0.5145
vn 0.0732 -0.9667 0.2453
vn 0.4415 -0.8962 -0.0432
vn 0.2567 -0.9654 0.0463
vn 0.2811 -0.9582 -0.0528
vn -0.2943 -0.9556 0.0123
vn -0.1556 -0.9520 -0.2637
vn -0.1501 -0.9751 -0.1634
vn -0.0367 -0.9972 0.0649
vn -0.0632 -0.9411 0.3320
vn -0.0777 -0.9893 -0.1238
vn -0.1915 -0.9706 -0.1457
vn -0.1546 0.9559 -0.2496
vn 0.0703 0.9969 -0.0356
vn -0.0891 0.9841 -0.1535
vn 0.2849 0.9576 -0.0431
vn -0.3595 0.9305 -0.0708
vn 0.1677 0.9851 -0.0387
vn -0.2534 0.9090 0.3310
vn 0.0047 0.9544 0.2984
vn 0.1596 0.9780 -0.1341
vt 0.916667 0.750000
vt 0.833333 0.500000
vt 0.916667 0.500000
vt 0.750000 0.750000
vt 0.666667 0.500000
vt 0.750000 0.500000
vt 0.583333 0.750000
vt 0.500000 0.500000
vt 0.583333 0.500000
vt 0.416667 0.750000
vt 0.333333 0.500000
vt 0.416667 0.500000
vt 0.250000 0.490000
vt 0.198038 0.400000
vt 0.301962 0.400000
vt 0.250000 0.750000
vt 0.166667 0.500000
vt 0.250000 0.500000
vt 0.083333 0.750000
vt -0.000000 0.500000
vt 0.083333 0.500000
vt 0.957846 0.370000
vt 0.905885 0.280000
vt 0.853923 0.370000
vt 0.833333 1.000000
vt 0.916667 1.000000
vt 0.666667 1.000000
vt 0.750000 1.000000
vt 0.500000 1.000000
vt 0.583333 1.000000
vt 0.333333 1.000000
vt 0.416667 1.000000
vt 0.457846 0.250000
vt 0.405885 0.220000
vt 0.457846 0.130000
vt 0.146077 0.430000
vt 0.146077 0.070000
vt 0.146077 0.130000
vt 0.042154 0.130000
vt 0.166667 1.000000
vt 0.250000 1.000000
vt -0.000000 1.000000
vt 0.083333 1.000000
vt 0.646077 0.430000
vt 0.646077 0.370000
vt 0.542154 0.370000
vt 0.957846 0.250000
vt 0.646077 0.070000
vt 0.698038 0.100000
vt 0.750000 0.010000
vt 0.542154 0.250000
vt 0.594115 0.280000
vt 0.646077 0.190000
vt 0.594115 0.160000
vt 0.542154 0.130000
vt 0.853923 0.070000
vt 0.801962 0.100000
vt 0.853923 0.190000
vt 0.905885 0.160000
vt 0.957846 0.130000
vt 0.853923 0.430000
vt 0.750000 0.370000
vt 0.750000 0.430000
vt 0.750000 0.490000
vt 0.353923 0.070000
vt 0.353923 0.130000
vt 0.250000 0.130000
vt 0.250000 0.070000
vt 0.250000 0.010000
vt 0.042154 0.250000
vt 0.094115 0.220000
vt 0.146077 0.310000
vt 0.094115 0.340000
vt 0.042154 0.370000
vt 0.353923 0.430000
vt 0.353923 0.310000
vt 0.405885 0.340000
vt 0.457846 0.370000
vt 1.000000 1.000000
vt 0.698038 0.280000
vt 0.801962 0.280000
vt 0.750000 0.190000
vt 0.301962 0.220000
vt 0.250000 0.310000
vt 0.198038 0.220000
vt 1.000000 0.500000
s 0
f 25/1/1 3/2/1 13/3/1
f 26/4/2 5/5/2 15/6/2
f 27/7/3 7/8/3 17/9/3
f 28/10/4 9/11/4 19/12/4
f 2/13/5 38/14/5 43/15/5
f 32/16/6 11/17/6 21/18/6
f 33/19/7 1/20/7 23/21/7
f 3/22/8 41/23/8 46/24/8
f 4/25/9 25/1/9 14/26/9
f 6/27/10 26/4/10 16/28/10
f 8/29/11 27/7/11 18/30/11
f 10/31/12 28/10/12 20/32/12
f 16/33/13 37/34/13 6/35/13
f 24/36/14 38/14/14 2/13/14
f 20/37/15 39/38/15 10/39/15
f 12/40/16 32/16/16 22/41/16
f 2/42/17 33/19/17 24/43/17
f 23/44/18 40/45/18 11/46/18
f 15/47/19 41/23/19 3/22/19
f 19/48/20 42/49/20 7/50/20
f 21/51/21 48/52/21 36/53/21
f 36/53/22 49/54/22 21/51/22
f 9/55/23 49/54/23 19/48/23
f 17/56/24 47/57/24 35/58/24
f 35/58/25 50/59/25 17/56/25
f 5/60/26 50/59/26 15/47/26
f 13/61/27 46/24/27 34/62/27
f 34/62/28 51/63/28 13/61/28
f 1/64/29 51/63/29 23/44/29
f 12/40/30 24/43/30 33/19/30
f 10/31/31 22/41/31 32/16/31
f 18/65/32 45/66/32 31/67/32
f 31/67/33 52/68/33 18/65/33
f 8/69/34 52/68/34 20/37/34
f 22/70/35 44/71/35 30/72/35
f 30/72/36 53/73/36 22/70/36
f 12/74/37 53/73/37 24/36/37
f 14/75/38 43/15/38 29/76/38
f 29/76/39 54/77/39 14/75/39
f 4/78/40 54/77/40 16/33/40
f 8/29/41 20/32/41 28/10/41
f 6/27/42 18/30/42 27/7/42
f 4/25/43 16/28/43 26/4/43
f 2/79/44 14/26/44 25/1/44
f 34/62/45 55/80/45 40/45/45
f 34/62/46 56/81/46 55/80/46
f 35/58/47 47/57/47 57/82/47
f 33/19/48 11/17/48 12/40/48
f 32/16/49 9/11/49 10/31/49
f 29/76/50 58/83/50 37/34/50
f 29/76/51 59/84/51 58/83/51
f 30/72/52 44/71/52 60/85/52
f 28/10/53 7/8/53 8/29/53
f 27/7/54 5/5/54 6/27/54
f 26/4/55 3/2/55 4/25/55
f 25/1/56 1/86/56 2/79/56
f 4/25/57 3/2/57 25/1/57
f 6/27/58 5/5/58 26/4/58
f 8/29/59 7/8/59 27/7/59
f 10/31/60 9/11/60 28/10/60
f 12/40/61 11/17/61 32/16/61
f 2/42/62 1/20/62 33/19/62
f 33/19/63 23/21/63 11/17/63
f 32/16/64 21/18/64 9/11/64
f 28/10/65 19/12/65 7/8/65
f 27/7/66 17/9/66 5/5/66
f 26/4/67 15/6/67 3/2/67
f 25/1/68 13/3/68 1/86/68
f 60/85/69 39/38/69 31/67/69
f 60/85/70 44/71/70 39/38/70
f 44/71/71 10/39/71 39/38/71
f 58/83/72 60/85/72 31/67/72
f 58/83/73 59/84/73 60/85/73
f 59/84/74 30/72/74 60/85/74
f 37/34/75 45/66/75 6/35/75
f 37/34/76 58/83/76 45/66/76
f 58/83/77 31/67/77 45/66/77
f 57/82/78 42/49/78 36/53/78
f 57/82/79 47/57/79 42/49/79
f 47/57/80 7/50/80 42/49/80
f 55/80/81 57/82/81 36/53/81
f 55/80/82 56/81/82 57/82/82
f 56/81/83 35/58/83 57/82/83
f 40/45/84 48/52/84 11/46/84
f 40/45/85 55/80/85 48/52/85
f 55/80/86 36/53/86 48/52/86
f 46/24/87 56/81/87 34/62/87
f 46/24/88 41/23/88 56/81/88
f 41/23/89 35/58/89 56/81/89
f 43/15/90 59/84/90 29/76/90
f 43/15/91 38/14/91 59/84/91
f 38/14/92 30/72/92 59/84/92
f 16/33/93 29/76/93 37/34/93
f 24/36/94 30/72/94 38/14/94
f 20/37/95 31/67/95 39/38/95
f 23/44/96 34/62/96 40/45/96
f 15/47/97 35/58/97 41/23/97
f 19/48/98 36/53/98 42/49/98
f 21/51/99 11/46/99 48/52/99
f 36/53/100 19/48/100 49/54/100
f 9/55/101 21/51/101 49/54/101
f 17/56/102 7/50/102 47/57/102
f 35/58/103 15/47/103 50/59/103
f 5/60/104 17/56/104 50/59/104
f 13/61/105 3/22/105 46/24/105
f 34/62/106 23/44/106 51/63/106
f 1/64/107 13/61/107 51/63/107
f 18/65/108 6/35/108 45/66/108
f 31/67/109 20/37/109 52/68/109
f 8/69/110 18/65/110 52/68/110
f 22/70/111 10/39/111 44/71/111
f 30/72/112 24/36/112 53/73/112
f 12/74/113 22/70/113 53/73/113
f 14/75/114 2/13/114 43/15/114
f 29/76/115 16/33/115 54/77/115
f 4/78/116 14/75/116 54/77/116
