# Blender 4.3.0
# www.blender.org
o Cylinder
v 0.000000 -2.761887 -25.340199
v 0.000000 2.332764 -24.782757
v 22.493067 -3.248841 -12.986379
v 20.907833 1.839728 -12.071143
v 21.364891 -2.246004 12.335026
v 22.840866 3.558001 13.187181
v 0.000000 -3.117020 25.801519
v 0.000000 3.388343 26.153984
v -22.600836 -3.344629 13.048599
v -22.090633 2.891116 12.754033
v -20.789835 -1.734833 -12.003017
v -20.537731 1.510747 -11.857465
v 11.202370 -3.254097 -19.403074
v 11.575369 4.000087 -20.049128
v 22.047752 -2.897113 0.000000
v 22.778152 3.627505 0.000000
v 10.043554 -0.936491 17.395947
v 11.572625 3.994599 20.044374
v -10.778531 -2.406428 18.668962
v -10.377582 1.604538 17.974499
v -22.515692 -3.365047 0.000000
v -21.800831 2.650194 0.000000
v -10.816545 -2.482455 -18.734806
v -11.044459 2.938279 -19.129564
v 11.231197 0.000000 -19.453005
v 22.175875 0.000000 0.000000
v 10.950144 0.000000 18.966206
v -11.058215 0.000000 19.153391
v 10.825317 3.916084 -6.250000
v -10.825317 4.245400 -6.250000
v 0.000000 2.452033 12.500000
v -23.359982 0.000000 0.000000
v -11.584655 0.000000 -20.065212
v 0.000000 -0.871655 -12.500000
v 10.825317 -4.407444 6.250000
v -10.825317 -0.530423 6.250000
v 16.237976 1.898210 3.125000
v -5.412659 1.251878 -15.625000
v -10.825317 4.120578 12.500000
v -10.825317 -0.764302 -12.500000
v 16.237976 -4.398059 -3.125000
v -5.412659 -2.105622 15.625000
v 5.412659 0.329999 -15.625000
v -16.237976 1.299357 3.125000
v 10.825317 4.681684 12.500000
v 10.825317 -2.503103 -12.500000
v 5.412659 -2.885179 15.625000
v -16.237976 -3.118085 -3.125000
v -16.237976 -4.466878 9.375000
v 16.237976 -2.927683 9.375000
v 0.000000 -4.294696 -18.750000
v 0.000000 2.200074 18.750000
v -16.237976 3.561802 -9.375000
v 16.237976 4.238937 -9.375000
v -5.412659 -3.852856 -3.125000
v 5.412659 -3.313024 -3.125000
v 0.000000 -2.927348 6.250000
v 5.412659 3.823118 3.125000
v 0.000000 1.468582 -6.250000
v -5.412659 1.211699 3.125000
vn 0.4940 -0.0177 -0.8693
vn 0.9974 -0.0441 0.0575
vn 0.4181 -0.8658 0.2750
vn -0.4037 -0.2254 0.8867
vn 0.0837 0.9827 0.1654
vn -0.9558 -0.2398 -0.1700
vn -0.4531 -0.5259 -0.7198
vn -0.0696 -0.9848 -0.1589
vn 0.6179 -0.1676 -0.7682
vn 0.9865 -0.1638 -0.0056
vn 0.4579 -0.2975 0.8378
vn -0.2530 0.6402 0.7253
vn -0.2528 0.9675 0.0063
vn 0.1594 0.9650 0.2081
vn -0.0890 0.9022 0.4219
vn -0.8535 0.5021 -0.1392
vn -0.4127 0.3444 -0.8432
vn 0.1065 -0.9585 0.2643
vn 0.2327 -0.9720 0.0343
vn -0.0002 -0.9951 -0.0988
vn 0.1335 -0.9724 0.1913
vn 0.3996 -0.8403 -0.3663
vn -0.0351 -0.9711 0.2359
vn 0.2686 -0.9142 0.3035
vn 0.0854 -0.9496 0.3017
vn 0.0987 -0.9934 0.0579
vn -0.1483 -0.9840 0.0989
vn 0.1088 -0.8719 0.4775
vn -0.1614 -0.9612 -0.2236
vn -0.6035 0.3405 -0.7210
vn -0.8615 0.5069 -0.0292
vn -0.2005 0.9737 0.1085
vn -0.1575 0.9867 0.0398
vn -0.0448 0.9864 -0.1583
vn 0.0473 0.9448 0.3242
vn -0.1346 0.9908 0.0165
vn -0.3109 0.9235 -0.2246
vn -0.5238 0.8515 -0.0233
vn -0.0579 0.9983 0.0029
vn 0.3591 0.9136 -0.1909
vn -0.5428 0.6345 0.5503
vn 0.4879 -0.2975 0.8206
vn 0.9784 -0.1625 -0.1275
vn 0.3938 -0.1685 -0.9036
vn -0.0094 -0.9513 -0.3080
vn 0.0478 -0.9595 -0.2775
vn -0.1350 -0.9874 0.0824
vn -0.6655 0.0849 -0.7416
vn -0.9932 0.0850 0.0796
vn 0.1740 0.9786 0.1102
vn -0.2190 0.9687 -0.1168
vn 0.0077 0.9527 0.3038
vn -0.5242 -0.0461 0.8503
vn 0.4823 -0.2461 0.8408
vn 0.9506 0.3057 -0.0533
vn 0.4431 0.0975 -0.8911
vn 0.5390 0.3089 -0.7836
vn 0.9683 -0.2489 0.0183
vn 0.5383 -0.0456 0.8415
vn -0.4842 0.0808 0.8712
vn -0.9717 0.0854 -0.2204
vn -0.3925 0.1000 -0.9143
vn -0.5031 -0.5240 -0.6872
vn -0.9699 -0.2434 -0.0059
vn -0.5479 -0.2258 0.8055
vn 0.1055 -0.8797 0.4637
vn 0.9984 -0.0442 0.0354
vn 0.4676 -0.0177 -0.8838
vn 0.1488 0.9655 -0.2137
vn 0.0077 0.9563 -0.2923
vn -0.1107 0.9675 -0.2272
vn -0.2345 0.9721 0.0068
vn -0.2331 0.9664 -0.1081
vn 0.2450 0.9549 0.1676
vn 0.1036 0.9682 -0.2277
vn 0.1720 0.9670 -0.1878
vn -0.2017 0.9791 0.0268
vn -0.2160 -0.9756 -0.0392
vn -0.0718 -0.9964 0.0459
vn -0.0717 -0.9956 -0.0608
vn -0.2111 -0.9533 0.2160
vn 0.0497 -0.9963 0.0697
vn -0.1354 -0.9901 -0.0374
vn 0.0854 -0.9769 -0.1960
vn -0.0650 -0.9583 -0.2782
vn -0.0646 -0.9518 0.3000
vn -0.1469 -0.9746 -0.1690
vn -0.0987 -0.9849 -0.1421
vn -0.0996 -0.9933 -0.0585
vn -0.2142 0.9472 -0.2387
vn 0.0846 0.9938 -0.0718
vn 0.2451 0.9556 -0.1636
vn -0.1208 0.9538 0.2750
vn 0.3424 0.9342 -0.1006
vn 0.1393 0.9040 0.4041
vn -0.0096 -0.9640 0.2656
vn 0.1926 -0.9751 0.1102
vn -0.0292 -0.9884 -0.1492
vn -0.0301 -0.9899 -0.1388
vn 0.5338 -0.8358 -0.1283
vn -0.1735 -0.9848 0.0004
vn 0.3321 -0.9304 0.1554
vn 0.1973 -0.9731 0.1191
vn -0.0070 -0.9718 0.2359
vn -0.0591 -0.9927 0.1048
vn -0.1447 -0.8678 0.4753
vn 0.0770 -0.9711 -0.2259
vn 0.0882 0.9928 0.0817
vn -0.0602 0.9974 0.0402
vn -0.1342 0.9784 -0.1570
vn 0.2427 0.9700 -0.0128
vn -0.0679 0.9927 -0.0996
vn -0.3661 0.9218 -0.1276
vn -0.2748 0.8925 0.3576
vn -0.0156 0.9970 0.0759
vn 0.3653 0.9133 -0.1800
vt 0.916667 0.750000
vt 0.833333 0.500000
vt 0.916667 0.500000
vt 0.750000 0.750000
vt 0.666667 0.500000
vt 0.750000 0.500000
vt 0.583333 0.750000
vt 0.500000 0.500000
vt 0.583333 0.500000
vt 0.416667 0.750000
vt 0.333333 0.500000
vt 0.416667 0.500000
vt 0.250000 0.490000
vt 0.198038 0.400000
vt 0.301962 0.400000
vt 0.250000 0.750000
vt 0.166667 0.500000
vt 0.250000 0.500000
vt 0.083333 0.750000
vt -0.000000 0.500000
vt 0.083333 0.500000
vt 0.957846 0.370000
vt 0.905885 0.280000
vt 0.853923 0.370000
vt 0.833333 1.000000
vt 0.916667 1.000000
vt 0.666667 1.000000
vt 0.750000 1.000000
vt 0.500000 1.000000
vt 0.583333 1.000000
vt 0.333333 1.000000
vt 0.416667 1.000000
vt 0.457846 0.250000
vt 0.405885 0.220000
vt 0.457846 0.130000
vt 0.146077 0.430000
vt 0.146077 0.070000
vt 0.146077 0.130000
vt 0.042154 0.130000
vt 0.166667 1.000000
vt 0.250000 1.000000
vt -0.000000 1.000000
vt 0.083333 1.000000
vt 0.646077 0.430000
vt 0.646077 0.370000
vt 0.542154 0.370000
vt 0.957846 0.250000
vt 0.646077 0.070000
vt 0.698038 0.100000
vt 0.750000 0.010000
vt 0.542154 0.250000
vt 0.594115 0.280000
vt 0.646077 0.190000
vt 0.594115 0.160000
vt 0.542154 0.130000
vt 0.853923 0.070000
vt 0.801962 0.100000
vt 0.853923 0.190000
vt 0.905885 0.160000
vt 0.957846 0.130000
vt 0.853923 0.430000
vt 0.750000 0.370000
vt 0.750000 0.430000
vt 0.750000 0.490000
vt 0.353923 0.070000
vt 0.353923 0.130000
vt 0.250000 0.130000
vt 0.250000 0.070000
vt 0.250000 0.010000
vt 0.042154 0.250000
vt 0.094115 0.220000
vt 0.146077 0.310000
vt 0.094115 0.340000
vt 0.042154 0.370000
vt 0.353923 0.430000
vt 0.353923 0.310000
vt 0.405885 0.340000
vt 0.457846 0.370000
vt 1.000000 1.000000
vt 0.698038 0.280000
vt 0.801962 0.280000
vt 0.750000 0.190000
vt 0.301962 0.220000
vt 0.250000 0.310000
vt 0.198038 0.220000
vt 1.000000 0.500000
s 0
f 25/1/1 3/2/1 13/3/1
f 26/4/2 5/5/2 15/6/2
f 27/7/3 7/8/3 17/9/3
f 28/10/4 9/11/4 19/12/4
f 2/13/5 38/14/5 43/15/5
f 32/16/6 11/17/6 21/18/6
f 33/19/7 1/20/7 23/21/7
f 3/22/8 41/23/8 46/24/8
f 4/25/9 25/1/9 14/26/9
f 6/27/10 26/4/10 16/28/10
f 8/29/11 27/7/11 18/30/11
f 10/31/12 28/10/12 20/32/12
f 16/33/13 37/34/13 6/35/13
f 24/36/14 38/14/14 2/13/14
f 20/37/15 39/38/15 10/39/15
f 12/40/16 32/16/16 22/41/16
f 2/42/17 33/19/17 24/43/17
f 23/44/18 40/45/18 11/46/18
f 15/47/19 41/23/19 3/22/19
f 19/48/20 42/49/20 7/50/20
f 21/51/21 48/52/21 36/53/21
f 36/53/22 49/54/22 21/51/22
f 9/55/23 49/54/23 19/48/23
f 17/56/24 47/57/24 35/58/24
f 35/58/25 50/59/25 17/56/25
f 5/60/26 50/59/26 15/47/26
f 13/61/27 46/24/27 34/62/27
f 34/62/28 51/63/28 13/61/28
f 1/64/29 51/63/29 23/44/29
f 12/40/30 24/43/30 33/19/30
f 10/31/31 22/41/31 32/16/31
f 18/65/32 45/66/32 31/67/32
f 31/67/33 52/68/33 18/65/33
f 8/69/34 52/68/34 20/37/34
f 22/70/35 44/71/35 30/72/35
f 30/72/36 53/73/36 22/70/36
f 12/74/37 53/73/37 24/36/37
f 14/75/38 43/15/38 29/76/38
f 29/76/39 54/77/39 14/75/39
f 4/78/40 54/77/40 16/33/40
f 8/29/41 20/32/41 28/10/41
f 6/27/42 18/30/42 27/7/42
f 4/25/43 16/28/43 26/4/43
f 2/79/44 14/26/44 25/1/44
f 34/62/45 55/80/45 40/45/45
f 34/62/46 56/81/46 55/80/46
f 35/58/47 47/57/47 57/82/47
f 33/19/48 11/17/48 12/40/48
f 32/16/49 9/11/49 10/31/49
f 29/76/50 58/83/50 37/34/50
f 29/76/51 59/84/51 58/83/51
f 30/72/52 44/71/52 60/85/52
f 28/10/53 7/8/53 8/29/53
f 27/7/54 5/5/54 6/27/54
f 26/4/55 3/2/55 4/25/55
f 25/1/56 1/86/56 2/79/56
f 4/25/57 3/2/57 25/1/57
f 6/27/58 5/5/58 26/4/58
f 8/29/59 7/8/59 27/7/59
f 10/31/60 9/11/60 28/10/60
f 12/40/61 11/17/61 32/16/61
f 2/42/62 1/20/62 33/19/62
f 33/19/63 23/21/63 11/17/63
f 32/16/64 21/18/64 9/11/64
f 28/10/65 19/12/65 7/8/65
f 27/7/66 17/9/66 5/5/66
f 26/4/67 15/6/67 3/2/67
f 25/1/68 13/3/68 1/86/68
f 60/85/69 39/38/69 31/67/69
f 60/85/70 44/71/70 39/38/70
f 44/71/71 10/39/71 39/38/71
f 58/83/72 60/85/72 31/67/72
f 58/83/73 59/84/73 60/85/73
f 59/84/74 30/72/74 60/85/74
f 37/34/75 45/66/75 6/35/75
f 37/34/76 58/83/76 45/66/76
f 58/83/77 31/67/77 45/66/77
f 57/82/78 42/49/78 36/53/78
f 57/82/79 47/57/79 42/49/79
f 47/57/80 7/50/80 42/49/80
f 55/80/81 57/82/81 36/53/81
f 55/80/82 56/81/82 57/82/82
f 56/81/83 35/58/83 57/82/83
f 40/45/84 48/52/84 11/46/84
f 40/45/85 55/80/85 48/52/85
f 55/80/86 36/53/86 48/52/86
f 46/24/87 56/81/87 34/62/87
f 46/24/88 41/23/88 56/81/88
f 41/23/89 35/58/89 56/81/89
f 43/15/90 59/84/90 29/76/90
f 43/15/91 38/14/91 59/84/91
f 38/14/92 30/72/92 59/84/92
f 16/33/93 29/76/93 37/34/93
f 24/36/94 30/72/94 38/14/94
f 20/37/95 31/67/95 39/38/95
f 23/44/96 34/62/96 40/45/96
f 15/47/97 35/58/97 41/23/97
f 19/48/98 36/53/98 42/49/98
f 21/51/99 11/46/99 48/52/99
f 36/53/100 19/48/100 49/54/100
f 9/55/101 21/51/101 49/54/101
f 17/56/102 7/50/102 47/57/102
f 35/58/103 15/47/103 50/59/103
f 5/60/104 17/56/104 50/59/104
f 13/61/105 3/22/105 46/24/105
f 34/62/106 23/44/106 51/63/106
f 1/64/107 13/61/107 51/63/107
f 18/65/108 6/35/108 45/66/108
f 31/67/109 20/37/109 52/68/109
f 8/69/110 18/65/110 52/68/110
f 22/70/111 10/39/111 44/71/111
f 30/72/112 24/36/112 53/73/112
f 12/74/113 22/70/113 53/73/113
f 14/75/114 2/13/114 43/15/114
f 29/76/115 16/33/115 54/77/115
f 4/78/116 14/75/116 54/77/116
