# Blender 4.3.0
# www.blender.org
o Cylinder
v 0.000000 -1.400107 -23.571205
v 0.000000 3.132939 -25.822199
v 20.765375 -1.713090 -11.988895
v 23.006784 3.705474 -13.282973
v 23.181541 -3.860815 13.383870
v 23.161852 3.843326 13.372502
v 0.000000 -3.806255 26.696850
v 0.000000 1.986539 24.333000
v -20.809240 -1.752090 12.014221
v -22.898380 3.609124 13.220386
v -20.590919 -1.558016 -11.888173
v -23.141193 3.824950 -13.360575
v 10.061765 -0.972911 -17.427488
v 11.114640 3.078639 -19.251122
v 21.158308 -2.007678 0.000000
v 21.762512 2.611876 0.000000
v 11.464867 -3.779084 19.857731
v 10.301351 1.452077 17.842463
v -10.885366 -2.620096 18.854008
v -10.253661 1.356699 17.759861
v -21.988651 -2.838013 0.000000
v -20.871658 1.721031 0.000000
v -11.511893 -3.873138 -19.939184
v -11.129210 3.107778 -19.276356
v 10.399544 0.000000 -18.012539
v 21.592640 0.000000 0.000000
v 11.138007 0.000000 19.291595
v -11.328909 0.000000 19.622246
v 10.825317 4.201159 -6.250000
v -10.825317 3.945938 -6.250000
v 0.000000 3.321603 12.500000
v -22.596045 0.000000 0.000000
v -11.278572 0.000000 -19.535059
v 0.000000 -4.232673 -12.500000
v 10.825317 -1.397393 6.250000
v -10.825317 -4.299435 6.250000
v 16.237976 3.633235 3.125000
v -5.412659 1.568088 -15.625000
v -10.825317 3.227221 12.500000
v -10.825317 -1.337666 -12.500000
v 16.237976 -1.340467 -3.125000
v -5.412659 -4.685559 15.625000
v 5.412659 0.582324 -15.625000
v -16.237976 3.828261 3.125000
v 10.825317 4.430067 12.500000
v 10.825317 -3.685313 -12.500000
v 5.412659 -3.675054 15.625000
v -16.237976 -0.533917 -3.125000
v -16.237976 -4.302784 9.375000
v 16.237976 -3.897937 9.375000
v 0.000000 -4.068921 -18.750000
v 0.000000 2.375156 18.750000
v -16.237976 2.757319 -9.375000
v 16.237976 3.687371 -9.375000
v -5.412659 -4.511520 -3.125000
v 5.412659 -0.704646 -3.125000
v 0.000000 -2.982198 6.250000
v 5.412659 0.464584 3.125000
v 0.000000 2.758890 -6.250000
v -5.412659 3.992680 3.125000
vn 0.3411 -0.5686 -0.7486
vn 0.9624 -0.2082 -0.1743
vn 0.5045 0.1704 0.8464
vn -0.5566 -0.3191 0.7671
vn 0.0889 0.9764 0.1970
vn -0.9687 -0.2073 -0.1362
vn -0.3217 0.1174 -0.9396
vn 0.1861 -0.9731 0.1360
vn 0.4245 -0.4211 -0.8016
vn 0.9931 -0.0646 -0.0980
vn 0.3777 0.7540 0.5374
vn -0.0568 0.8223 0.5662
vn 0.1237 0.9869 -0.1038
vn 0.1240 0.9688 0.2145
vn 0.0495 0.9427 0.3299
vn -0.6882 0.6896 0.2255
vn -0.5048 0.0957 -0.8579
vn 0.0413 -0.9469 0.3189
vn -0.1216 -0.9924 -0.0204
vn -0.2438 -0.9501 0.1946
vn 0.1241 -0.8939 -0.4307
vn -0.0656 -0.9912 -0.1146
vn -0.3065 -0.8923 0.3315
vn 0.1065 -0.9786 -0.1763
vn -0.3441 -0.9275 -0.1462
vn 0.0920 -0.9844 -0.1502
vn 0.0441 -0.8723 -0.4870
vn 0.2970 -0.9545 -0.0250
vn 0.0351 -0.8744 -0.4840
vn -0.4352 0.0954 -0.8953
vn -0.6914 0.6928 -0.2049
vn -0.0895 0.8737 0.4782
vn 0.1013 0.9836 0.1490
vn -0.1052 0.9921 0.0691
vn -0.3118 0.9351 -0.1683
vn -0.2153 0.9765 0.0015
vn 0.1025 0.9908 0.0879
vn -0.4454 0.8911 -0.0869
vn 0.0454 0.9954 -0.0849
vn 0.0472 0.9951 0.0864
vn -0.3254 0.8438 0.4268
vn 0.0988 0.7309 0.6753
vn 0.9940 -0.0647 0.0878
vn 0.4600 -0.4213 -0.7816
vn -0.2544 -0.9511 -0.1751
vn 0.3274 -0.9310 0.1613
vn 0.1431 -0.9775 -0.1549
vn -0.5222 -0.4462 -0.7268
vn -0.9222 -0.3778 0.0821
vn -0.2743 0.9373 0.2152
vn -0.1258 0.9444 0.3038
vn -0.0152 0.9999 0.0038
vn -0.4113 0.3444 0.8439
vn 0.4410 0.0025 0.8975
vn 0.9233 -0.3840 -0.0088
vn 0.4742 -0.3916 -0.7885
vn 0.4198 -0.3714 -0.8281
vn 0.9931 0.0024 -0.1172
vn 0.4375 0.3398 0.8326
vn -0.5357 -0.3786 0.7548
vn -0.8900 -0.4467 -0.0916
vn -0.3517 -0.4163 -0.8384
vn -0.6419 0.1177 -0.7577
vn -0.9715 -0.2079 0.1142
vn -0.5768 -0.3182 0.7524
vn 0.4775 0.1704 0.8620
vn 0.9767 -0.2113 -0.0372
vn 0.4457 -0.5699 -0.6903
vn -0.0087 0.9970 0.0764
vn -0.0151 0.9972 0.0727
vn 0.0342 0.9984 0.0443
vn 0.3080 0.9450 -0.1102
vn 0.3094 0.9494 0.0537
vn 0.1088 0.9918 -0.0677
vn 0.0513 0.9972 -0.0551
vn -0.2729 0.9324 -0.2368
vn -0.0958 0.9354 -0.3404
vn 0.1201 -0.9867 -0.1100
vn 0.0922 -0.9877 -0.1262
vn 0.0929 -0.9951 0.0336
vn 0.1203 -0.9885 0.0918
vn 0.3315 -0.9427 -0.0376
vn 0.0288 -0.9944 0.1019
vn -0.3425 -0.9321 -0.1178
vn -0.3396 -0.9241 -0.1751
vn 0.0477 -0.9436 0.3276
vn -0.0564 -0.9604 0.2728
vn -0.0586 -0.9975 -0.0399
vn -0.1263 0.9478 -0.2929
vn 0.0893 0.9803 -0.1761
vn 0.1071 0.9767 -0.1859
vn 0.1629 0.9860 -0.0343
vn 0.2999 0.9515 -0.0682
vn -0.0082 0.9419 0.3358
vn -0.2436 -0.9109 0.3330
vn -0.0958 -0.9935 -0.0613
vn -0.2848 -0.9504 0.1253
vn 0.3427 -0.9375 -0.0607
vn 0.0768 -0.9883 0.1320
vn -0.4285 -0.8951 0.1230
vn -0.0066 -0.9999 -0.0151
vn -0.2435 -0.9181 -0.3129
vn -0.0010 -0.9999 0.0109
vn 0.1935 -0.8465 -0.4960
vn -0.0143 -0.9996 -0.0262
vn 0.3158 -0.8301 -0.4595
vn 0.0071 0.8731 0.4874
vn -0.1120 0.9825 0.1488
vn 0.0951 0.9931 0.0691
vn -0.3039 0.9355 -0.1802
vn -0.1815 0.9816 -0.0589
vn 0.0698 0.9872 0.1436
vn -0.1924 0.9231 0.3330
vn 0.1193 0.9919 0.0435
vn -0.0294 0.9985 -0.0463
vt 0.916667 0.750000
vt 0.833333 0.500000
vt 0.916667 0.500000
vt 0.750000 0.750000
vt 0.666667 0.500000
vt 0.750000 0.500000
vt 0.583333 0.750000
vt 0.500000 0.500000
vt 0.583333 0.500000
vt 0.416667 0.750000
vt 0.333333 0.500000
vt 0.416667 0.500000
vt 0.250000 0.490000
vt 0.198038 0.400000
vt 0.301962 0.400000
vt 0.250000 0.750000
vt 0.166667 0.500000
vt 0.250000 0.500000
vt 0.083333 0.750000
vt -0.000000 0.500000
vt 0.083333 0.500000
vt 0.957846 0.370000
vt 0.905885 0.280000
vt 0.853923 0.370000
vt 0.833333 1.000000
vt 0.916667 1.000000
vt 0.666667 1.000000
vt 0.750000 1.000000
vt 0.500000 1.000000
vt 0.583333 1.000000
vt 0.333333 1.000000
vt 0.416667 1.000000
vt 0.457846 0.250000
vt 0.405885 0.220000
vt 0.457846 0.130000
vt 0.146077 0.430000
vt 0.146077 0.070000
vt 0.146077 0.130000
vt 0.042154 0.130000
vt 0.166667 1.000000
vt 0.250000 1.000000
vt -0.000000 1.000000
vt 0.083333 1.000000
vt 0.646077 0.430000
vt 0.646077 0.370000
vt 0.542154 0.370000
vt 0.957846 0.250000
vt 0.646077 0.070000
vt 0.698038 0.100000
vt 0.750000 0.010000
vt 0.542154 0.250000
vt 0.594115 0.280000
vt 0.646077 0.190000
vt 0.594115 0.160000
vt 0.542154 0.130000
vt 0.853923 0.070000
vt 0.801962 0.100000
vt 0.853923 0.190000
vt 0.905885 0.160000
vt 0.957846 0.130000
vt 0.853923 0.430000
vt 0.750000 0.370000
vt 0.750000 0.430000
vt 0.750000 0.490000
vt 0.353923 0.070000
vt 0.353923 0.130000
vt 0.250000 0.130000
vt 0.250000 0.070000
vt 0.250000 0.010000
vt 0.042154 0.250000
vt 0.094115 0.220000
vt 0.146077 0.310000
vt 0.094115 0.340000
vt 0.042154 0.370000
vt 0.353923 0.430000
vt 0.353923 0.310000
vt 0.405885 0.340000
vt 0.457846 0.370000
vt 1.000000 1.000000
vt 0.698038 0.280000
vt 0.801962 0.280000
vt 0.750000 0.190000
vt 0.301962 0.220000
vt 0.250000 0.310000
vt 0.198038 0.220000
vt 1.000000 0.500000
s 0
f 25/1/1 3/2/1 13/3/1
f 26/4/2 5/5/2 15/6/2
f 27/7/3 7/8/3 17/9/3
f 28/10/4 9/11/4 19/12/4
f 2/13/5 38/14/5 43/15/5
f 32/16/6 11/17/6 21/18/6
f 33/19/7 1/20/7 23/21/7
f 3/22/8 41/23/8 46/24/8
f 4/25/9 25/1/9 14/26/9
f 6/27/10 26/4/10 16/28/10
f 8/29/11 27/7/11 18/30/11
f 10/31/12 28/10/12 20/32/12
f 16/33/13 37/34/13 6/35/13
f 24/36/14 38/14/14 2/13/14
f 20/37/15 39/38/15 10/39/15
f 12/40/16 32/16/16 22/41/16
f 2/42/17 33/19/17 24/43/17
f 23/44/18 40/45/18 11/46/18
f 15/47/19 41/23/19 3/22/19
f 19/48/20 42/49/20 7/50/20
f 21/51/21 48/52/21 36/53/21
f 36/53/22 49/54/22 21/51/22
f 9/55/23 49/54/23 19/48/23
f 17/56/24 47/57/24 35/58/24
f 35/58/25 50/59/25 17/56/25
f 5/60/26 50/59/26 15/47/26
f 13/61/27 46/24/27 34/62/27
f 34/62/28 51/63/28 13/61/28
f 1/64/29 51/63/29 23/44/29
f 12/40/30 24/43/30 33/19/30
f 10/31/31 22/41/31 32/16/31
f 18/65/32 45/66/32 31/67/32
f 31/67/33 52/68/33 18/65/33
f 8/69/34 52/68/34 20/37/34
f 22/70/35 44/71/35 30/72/35
f 30/72/36 53/73/36 22/70/36
f 12/74/37 53/73/37 24/36/37
f 14/75/38 43/15/38 29/76/38
f 29/76/39 54/77/39 14/75/39
f 4/78/40 54/77/40 16/33/40
f 8/29/41 20/32/41 28/10/41
f 6/27/42 18/30/42 27/7/42
f 4/25/43 16/28/43 26/4/43
f 2/79/44 14/26/44 25/1/44
f 34/62/45 55/80/45 40/45/45
f 34/62/46 56/81/46 55/80/46
f 35/58/47 47/57/47 57/82/47
f 33/19/48 11/17/48 12/40/48
f 32/16/49 9/11/49 10/31/49
f 29/76/50 58/83/50 37/34/50
f 29/76/51 59/84/51 58/83/51
f 30/72/52 44/71/52 60/85/52
f 28/10/53 7/8/53 8/29/53
f 27/7/54 5/5/54 6/27/54
f 26/4/55 3/2/55 4/25/55
f 25/1/56 1/86/56 2/79/56
f 4/25/57 3/2/57 25/1/57
f 6/27/58 5/5/58 26/4/58
f 8/29/59 7/8/59 27/7/59
f 10/31/60 9/11/60 28/10/60
f 12/40/61 11/17/61 32/16/61
f 2/42/62 1/20/62 33/19/62
f 33/19/63 23/21/63 11/17/63
f 32/16/64 21/18/64 9/11/64
f 28/10/65 19/12/65 7/8/65
f 27/7/66 17/9/66 5/5/66
f 26/4/67 15/6/67 3/2/67
f 25/1/68 13/3/68 1/86/68
f 60/85/69 39/38/69 31/67/69
f 60/85/70 44/71/70 39/38/70
f 44/71/71 10/39/71 39/38/71
f 58/83/72 60/85/72 31/67/72
f 58/83/73 59/84/73 60/85/73
f 59/84/74 30/72/74 60/85/74
f 37/34/75 45/66/75 6/35/75
f 37/34/76 58/83/76 45/66/76
f 58/83/77 31/67/77 45/66/77
f 57/82/78 42/49/78 36/53/78
f 57/82/79 47/57/79 42/49/79
f 47/57/80 7/50/80 42/49/80
f 55/80/81 57/82/81 36/53/81
f 55/80/82 56/81/82 57/82/82
f 56/81/47 35/58/47 57/82/47
f 40/45/83 48/52/83 11/46/83
f 40/45/84 55/80/84 48/52/84
f 55/80/85 36/53/85 48/52/85
f 46/24/86 56/81/86 34/62/86
f 46/24/87 41/23/87 56/81/87
f 41/23/88 35/58/88 56/81/88
f 43/15/89 59/84/89 29/76/89
f 43/15/90 38/14/90 59/84/90
f 38/14/91 30/72/91 59/84/91
f 16/33/92 29/76/92 37/34/92
f 24/36/93 30/72/93 38/14/93
f 20/37/94 31/67/94 39/38/94
f 23/44/95 34/62/95 40/45/95
f 15/47/96 35/58/96 41/23/96
f 19/48/97 36/53/97 42/49/97
f 21/51/98 11/46/98 48/52/98
f 36/53/99 19/48/99 49/54/99
f 9/55/100 21/51/100 49/54/100
f 17/56/101 7/50/101 47/57/101
f 35/58/102 15/47/102 50/59/102
f 5/60/103 17/56/103 50/59/103
f 13/61/104 3/22/104 46/24/104
f 34/62/105 23/44/105 51/63/105
f 1/64/106 13/61/106 51/63/106
f 18/65/107 6/35/107 45/66/107
f 31/67/108 20/37/108 52/68/108
f 8/69/109 18/65/109 52/68/109
f 22/70/110 10/39/110 44/71/110
f 30/72/111 24/36/111 53/73/111
f 12/74/112 22/70/112 53/73/112
f 14/75/113 2/13/113 43/15/113
f 29/76/114 16/33/114 54/77/114
f 4/78/115 14/75/115 54/77/115
