# Blender 4.3.0
# www.blender.org
o Cylinder
v 0.000000 -1.319337 -23.466284
v 0.000000 1.603498 -23.835428
v 22.551332 -3.300633 -13.020019
v 20.202541 1.212797 -11.663942
v 22.370199 -3.139616 12.915441
v 21.767469 2.603854 12.567454
v 0.000000 -3.703717 26.563650
v 0.000000 3.451274 26.235733
v -20.692144 -1.648004 11.946615
v -21.742771 2.581900 12.553195
v -22.210413 -2.997589 -12.823189
v -21.884207 2.707621 -12.634852
v 11.592927 -4.035203 -20.079540
v 10.252449 1.354275 -17.757763
v 20.785522 -1.634897 0.000000
v 21.553600 2.402967 0.000000
v 10.750400 -2.350166 18.620239
v 10.637881 2.125131 18.425350
v -10.913543 -2.676449 18.902811
v -11.181747 3.212852 19.367355
v -22.670843 -3.520198 0.000000
v -22.162201 3.011561 0.000000
v -11.465607 -3.780565 -19.859015
v -10.972214 2.793789 -19.004433
v 11.441009 0.000000 -19.816408
v 21.355080 0.000000 0.000000
v 10.146352 0.000000 17.573997
v -9.822712 0.000000 17.013437
v 10.825317 2.056504 -6.250000
v -10.825317 3.864692 -6.250000
v 0.000000 1.087111 12.500000
v -21.507526 0.000000 0.000000
v -10.170579 0.000000 -17.615959
v 0.000000 -2.221449 -12.500000
v 10.825317 -4.196754 6.250000
v -10.825317 -0.977960 6.250000
v 16.237976 0.367693 3.125000
v -5.412659 3.129234 -15.625000
v -10.825317 1.041392 12.500000
v -10.825317 -0.713575 -12.500000
v 16.237976 -3.145151 -3.125000
v -5.412659 -4.504221 15.625000
v 5.412659 2.362689 -15.625000
v -16.237976 2.799767 3.125000
v 10.825317 2.741072 12.500000
v 10.825317 -2.315055 -12.500000
v 5.412659 -4.632062 15.625000
v -16.237976 -4.321153 -3.125000
v -16.237976 -4.282803 9.375000
v 16.237976 -1.614796 9.375000
v 0.000000 -2.932533 -18.750000
v 0.000000 1.066473 18.750000
v -16.237976 4.610197 -9.375000
v 16.237976 2.392359 -9.375000
v -5.412659 -3.664224 -3.125000
v 5.412659 -2.477600 -3.125000
v 0.000000 -3.299603 6.250000
v 5.412659 4.679348 3.125000
v 0.000000 0.653336 -6.250000
v -5.412659 2.399277 3.125000
vn 0.5365 0.0750 -0.8406
vn 0.9333 -0.3251 -0.1524
vn 0.4908 0.4565 0.7421
vn -0.4041 0.6317 0.6615
vn 0.0700 0.9880 -0.1375
vn -0.9493 0.3137 -0.0213
vn -0.3556 0.5640 -0.7453
vn -0.0854 -0.9956 -0.0388
vn 0.2677 0.8686 -0.4169
vn 0.9965 -0.0823 -0.0156
vn 0.5028 -0.4191 0.7560
vn -0.3863 -0.6459 0.6585
vn -0.3620 0.9321 -0.0087
vn 0.0371 0.9866 -0.1589
vn 0.1322 0.9471 -0.2926
vn -0.9770 -0.2124 -0.0164
vn -0.3942 -0.4972 -0.7729
vn 0.1730 -0.9144 0.3660
vn 0.2154 -0.9645 0.1526
vn -0.2142 -0.9608 0.1763
vn 0.0361 -0.9477 0.3171
vn 0.3552 -0.8800 -0.3153
vn -0.3300 -0.8832 0.3333
vn 0.3208 -0.9365 0.1417
vn 0.3594 -0.9227 0.1399
vn -0.1908 -0.9774 -0.0905
vn -0.0084 -0.9754 0.2205
vn -0.0813 -0.9903 0.1127
vn 0.1008 -0.9414 -0.3220
vn -0.4343 -0.4977 -0.7508
vn -0.9769 -0.2124 0.0254
vn -0.1503 0.9838 0.0975
vn -0.0989 0.9951 0.0033
vn 0.1639 0.9399 -0.2994
vn -0.0184 0.9946 0.1023
vn 0.0283 0.9823 0.1854
vn -0.1645 0.9490 -0.2690
vn 0.1744 0.9823 -0.0686
vn -0.0940 0.9940 -0.0560
vn 0.2166 0.9684 -0.1239
vn -0.3895 -0.6458 0.6566
vn 0.4368 -0.4198 0.7956
vn 0.9909 -0.0819 -0.1064
vn 0.2681 0.8686 -0.4166
vn -0.1344 -0.9648 -0.2261
vn 0.1085 -0.9900 -0.0897
vn -0.0822 -0.9922 -0.0935
vn -0.3805 0.0522 -0.9233
vn -0.9689 -0.2453 0.0323
vn 0.3696 0.9280 -0.0462
vn -0.1213 0.9355 -0.3317
vn 0.0366 0.9904 0.1336
vn -0.6903 0.0331 0.7228
vn 0.3758 0.0953 0.9218
vn 0.8817 0.4703 -0.0382
vn 0.3142 -0.1190 -0.9419
vn 0.5561 0.4909 -0.6707
vn 0.9934 0.1010 -0.0535
vn 0.6557 0.0346 0.7543
vn -0.3837 -0.2238 0.8959
vn -0.9976 0.0557 0.0417
vn -0.5062 -0.1081 -0.8556
vn -0.4227 0.5651 -0.7085
vn -0.9440 0.3120 0.1075
vn -0.4047 0.6317 0.6612
vn 0.4168 0.4569 0.7858
vn 0.9310 -0.3243 0.1678
vn 0.2954 0.0732 -0.9526
vn -0.0042 0.9900 0.1410
vn 0.0365 0.9858 0.1638
vn 0.1395 0.9847 0.1042
vn -0.1997 0.9480 0.2480
vn -0.1973 0.9369 -0.2884
vn 0.2844 0.9586 -0.0143
vn 0.0136 0.9712 -0.2380
vn 0.3699 0.9288 -0.0216
vn -0.1450 0.9490 0.2799
vn -0.2036 -0.9493 -0.2395
vn -0.0117 -0.9909 -0.1341
vn -0.0118 -0.9968 0.0788
vn -0.2071 -0.9656 0.1571
vn 0.1089 -0.9938 -0.0242
vn -0.0818 -0.9876 -0.1338
vn 0.1972 -0.9477 -0.2508
vn 0.0572 -0.9424 -0.3296
vn 0.0577 -0.9504 0.3056
vn -0.0086 -0.9997 -0.0223
vn -0.0615 -0.9967 -0.0528
vn -0.0609 -0.9874 -0.1459
vn -0.1278 0.9861 0.1060
vn 0.0689 0.9737 0.2173
vn 0.2833 0.9549 0.0886
vn -0.1943 0.9397 0.2815
vn -0.0093 0.9965 -0.0836
vn -0.0040 0.9534 -0.3017
vn -0.1270 -0.9116 0.3910
vn 0.2807 -0.9582 0.0546
vn -0.3795 -0.9166 -0.1257
vn -0.1452 -0.9884 -0.0455
vn 0.4688 -0.8759 -0.1143
vn -0.4069 -0.8897 0.2068
vn 0.2782 -0.9357 0.2171
vn 0.3434 -0.9239 0.1686
vn -0.1473 -0.9752 -0.1650
vn -0.0724 -0.9742 0.2138
vn 0.0624 -0.9917 0.1128
vn -0.1261 -0.9386 -0.3211
vn 0.0118 0.9945 0.1038
vn 0.1887 0.9820 0.0032
vn -0.1035 0.9477 -0.3019
vn 0.0180 0.9993 0.0336
vn 0.1836 0.9794 -0.0843
vn -0.3038 0.9523 -0.0296
vn 0.1268 0.9766 -0.1739
vn -0.0472 0.9986 0.0256
vn 0.1538 0.9612 -0.2289
vt 0.916667 0.750000
vt 0.833333 0.500000
vt 0.916667 0.500000
vt 0.750000 0.750000
vt 0.666667 0.500000
vt 0.750000 0.500000
vt 0.583333 0.750000
vt 0.500000 0.500000
vt 0.583333 0.500000
vt 0.416667 0.750000
vt 0.333333 0.500000
vt 0.416667 0.500000
vt 0.250000 0.490000
vt 0.198038 0.400000
vt 0.301962 0.400000
vt 0.250000 0.750000
vt 0.166667 0.500000
vt 0.250000 0.500000
vt 0.083333 0.750000
vt -0.000000 0.500000
vt 0.083333 0.500000
vt 0.957846 0.370000
vt 0.905885 0.280000
vt 0.853923 0.370000
vt 0.833333 1.000000
vt 0.916667 1.000000
vt 0.666667 1.000000
vt 0.750000 1.000000
vt 0.500000 1.000000
vt 0.583333 1.000000
vt 0.333333 1.000000
vt 0.416667 1.000000
vt 0.457846 0.250000
vt 0.405885 0.220000
vt 0.457846 0.130000
vt 0.146077 0.430000
vt 0.146077 0.070000
vt 0.146077 0.130000
vt 0.042154 0.130000
vt 0.166667 1.000000
vt 0.250000 1.000000
vt -0.000000 1.000000
vt 0.083333 1.000000
vt 0.646077 0.430000
vt 0.646077 0.370000
vt 0.542154 0.370000
vt 0.957846 0.250000
vt 0.646077 0.070000
vt 0.698038 0.100000
vt 0.750000 0.010000
vt 0.542154 0.250000
vt 0.594115 0.280000
vt 0.646077 0.190000
vt 0.594115 0.160000
vt 0.542154 0.130000
vt 0.853923 0.070000
vt 0.801962 0.100000
vt 0.853923 0.190000
vt 0.905885 0.160000
vt 0.957846 0.130000
vt 0.853923 0.430000
vt 0.750000 0.370000
vt 0.750000 0.430000
vt 0.750000 0.490000
vt 0.353923 0.070000
vt 0.353923 0.130000
vt 0.250000 0.130000
vt 0.250000 0.070000
vt 0.250000 0.010000
vt 0.042154 0.250000
vt 0.094115 0.220000
vt 0.146077 0.310000
vt 0.094115 0.340000
vt 0.042154 0.370000
vt 0.353923 0.430000
vt 0.353923 0.310000
vt 0.405885 0.340000
vt 0.457846 0.370000
vt 1.000000 1.000000
vt 0.698038 0.280000
vt 0.801962 0.280000
vt 0.750000 0.190000
vt 0.301962 0.220000
vt 0.250000 0.310000
vt 0.198038 0.220000
vt 1.000000 0.500000
s 0
f 25/1/1 3/2/1 13/3/1
f 26/4/2 5/5/2 15/6/2
f 27/7/3 7/8/3 17/9/3
f 28/10/4 9/11/4 19/12/4
f 2/13/5 38/14/5 43/15/5
f 32/16/6 11/17/6 21/18/6
f 33/19/7 1/20/7 23/21/7
f 3/22/8 41/23/8 46/24/8
f 4/25/9 25/1/9 14/26/9
f 6/27/10 26/4/10 16/28/10
f 8/29/11 27/7/11 18/30/11
f 10/31/12 28/10/12 20/32/12
f 16/33/13 37/34/13 6/35/13
f 24/36/14 38/14/14 2/13/14
f 20/37/15 39/38/15 10/39/15
f 12/40/16 32/16/16 22/41/16
f 2/42/17 33/19/17 24/43/17
f 23/44/18 40/45/18 11/46/18
f 15/47/19 41/23/19 3/22/19
f 19/48/20 42/49/20 7/50/20
f 21/51/21 48/52/21 36/53/21
f 36/53/22 49/54/22 21/51/22
f 9/55/23 49/54/23 19/48/23
f 17/56/24 47/57/24 35/58/24
f 35/58/25 50/59/25 17/56/25
f 5/60/26 50/59/26 15/47/26
f 13/61/27 46/24/27 34/62/27
f 34/62/28 51/63/28 13/61/28
f 1/64/29 51/63/29 23/44/29
f 12/40/30 24/43/30 33/19/30
f 10/31/31 22/41/31 32/16/31
f 18/65/32 45/66/32 31/67/32
f 31/67/33 52/68/33 18/65/33
f 8/69/34 52/68/34 20/37/34
f 22/70/35 44/71/35 30/72/35
f 30/72/36 53/73/36 22/70/36
f 12/74/37 53/73/37 24/36/37
f 14/75/38 43/15/38 29/76/38
f 29/76/39 54/77/39 14/75/39
f 4/78/40 54/77/40 16/33/40
f 8/29/41 20/32/41 28/10/41
f 6/27/42 18/30/42 27/7/42
f 4/25/43 16/28/43 26/4/43
f 2/79/44 14/26/44 25/1/44
f 34/62/45 55/80/45 40/45/45
f 34/62/46 56/81/46 55/80/46
f 35/58/47 47/57/47 57/82/47
f 33/19/48 11/17/48 12/40/48
f 32/16/49 9/11/49 10/31/49
f 29/76/50 58/83/50 37/34/50
f 29/76/51 59/84/51 58/83/51
f 30/72/52 44/71/52 60/85/52
f 28/10/53 7/8/53 8/29/53
f 27/7/54 5/5/54 6/27/54
f 26/4/55 3/2/55 4/25/55
f 25/1/56 1/86/56 2/79/56
f 4/25/57 3/2/57 25/1/57
f 6/27/58 5/5/58 26/4/58
f 8/29/59 7/8/59 27/7/59
f 10/31/60 9/11/60 28/10/60
f 12/40/61 11/17/61 32/16/61
f 2/42/62 1/20/62 33/19/62
f 33/19/63 23/21/63 11/17/63
f 32/16/64 21/18/64 9/11/64
f 28/10/65 19/12/65 7/8/65
f 27/7/66 17/9/66 5/5/66
f 26/4/67 15/6/67 3/2/67
f 25/1/68 13/3/68 1/86/68
f 60/85/69 39/38/69 31/67/69
f 60/85/70 44/71/70 39/38/70
f 44/71/71 10/39/71 39/38/71
f 58/83/72 60/85/72 31/67/72
f 58/83/73 59/84/73 60/85/73
f 59/84/74 30/72/74 60/85/74
f 37/34/75 45/66/75 6/35/75
f 37/34/76 58/83/76 45/66/76
f 58/83/77 31/67/77 45/66/77
f 57/82/78 42/49/78 36/53/78
f 57/82/79 47/57/79 42/49/79
f 47/57/80 7/50/80 42/49/80
f 55/80/81 57/82/81 36/53/81
f 55/80/82 56/81/82 57/82/82
f 56/81/83 35/58/83 57/82/83
f 40/45/84 48/52/84 11/46/84
f 40/45/85 55/80/85 48/52/85
f 55/80/86 36/53/86 48/52/86
f 46/24/87 56/81/87 34/62/87
f 46/24/88 41/23/88 56/81/88
f 41/23/89 35/58/89 56/81/89
f 43/15/90 59/84/90 29/76/90
f 43/15/91 38/14/91 59/84/91
f 38/14/92 30/72/92 59/84/92
f 16/33/93 29/76/93 37/34/93
f 24/36/94 30/72/94 38/14/94
f 20/37/95 31/67/95 39/38/95
f 23/44/96 34/62/96 40/45/96
f 15/47/97 35/58/97 41/23/97
f 19/48/98 36/53/98 42/49/98
f 21/51/99 11/46/99 48/52/99
f 36/53/100 19/48/100 49/54/100
f 9/55/101 21/51/101 49/54/101
f 17/56/102 7/50/102 47/57/102
f 35/58/103 15/47/103 50/59/103
f 5/60/104 17/56/104 50/59/104
f 13/61/105 3/22/105 46/24/105
f 34/62/106 23/44/106 51/63/106
f 1/64/107 13/61/107 51/63/107
f 18/65/108 6/35/108 45/66/108
f 31/67/109 20/37/109 52/68/109
f 8/69/110 18/65/110 52/68/110
f 22/70/111 10/39/111 44/71/111
f 30/72/112 24/36/112 53/73/112
f 12/74/113 22/70/113 53/73/113
f 14/75/114 2/13/114 43/15/114
f 29/76/115 16/33/115 54/77/115
f 4/78/116 14/75/116 54/77/116
