# Blender 4.3.0
# www.blender.org
o Cylinder
v 0.000000 -2.069177 -24.440348
v 0.000000 2.297383 -24.736797
v 19.617495 -0.692736 -11.326166
v 21.481182 2.349375 -12.402166
v 21.021055 -1.940370 12.136512
v 20.106401 1.127327 11.608437
v 0.000000 -3.343267 26.095419
v 0.000000 1.815163 24.110376
v -20.739738 -1.690309 11.974093
v -20.012257 1.043640 11.554082
v -22.199444 -2.987837 -12.816854
v -19.915689 0.957817 -11.498329
v 10.972424 -2.794210 -19.004797
v 10.392182 1.633739 -17.999788
v 20.367346 -1.216725 0.000000
v 11.037181 -2.923723 19.116959
v 10.914773 2.678909 18.904942
v -10.387368 -1.624110 17.991449
v -10.372093 1.593561 17.964993
v -21.860365 -2.709727 0.000000
v -19.735409 0.584794 0.000000
v -9.950770 -0.750925 -17.235241
v -11.207496 3.264348 -19.411953
v 10.531004 0.000000 -18.240234
v 20.220848 0.000000 0.000000
v 9.451922 0.000000 16.371210
v -12.230528 0.000000 21.183895
v 10.825317 3.191675 -6.250000
v -10.825317 1.853421 -6.250000
v 0.000000 3.056648 12.500000
v -20.566147 0.000000 0.000000
v 0.000000 -0.720805 -12.500000
v 10.825317 -1.551092 6.250000
v -10.825317 -3.341970 6.250000
v 16.237976 2.428121 3.125000
v -5.412659 1.163177 -15.625000
v -10.825317 5.294652 12.500000
v -10.825317 -0.172873 -12.500000
v 16.237976 -1.500907 -3.125000
v -5.412659 -1.962808 15.625000
v 5.412659 4.483667 -15.625000
v -16.237976 5.434152 3.125000
v 10.825317 0.922275 12.500000
v 10.825317 -0.894599 -12.500000
v 5.412659 -2.191516 15.625000
v -16.237976 -4.873690 -3.125000
v -16.237976 -2.768473 9.375000
v 16.237976 0.062416 9.375000
v 0.000000 -0.206446 -18.750000
v 0.000000 1.530063 18.750000
v -16.237976 2.483579 -9.375000
v 16.237976 -0.080367 -9.375000
v -5.412659 -3.413441 -3.125000
v 5.412659 -0.207340 -3.125000
v 0.000000 -2.337387 6.250000
v 5.412659 5.166888 3.125000
v 0.000000 3.571338 -6.250000
v -5.412659 3.001755 3.125000
vn 0.5923 0.2984 -0.7485
vn 0.9918 0.1194 -0.0463
vn 0.3421 0.7351 0.5853
vn -0.1982 -0.9151 0.3511
vn -0.2928 0.9546 -0.0551
vn -0.9023 0.4309 0.0145
vn 0.0341 -0.9959 -0.0841
vn 0.4357 0.1672 -0.8844
vn 0.3374 -0.7375 0.5850
vn -0.2559 0.9169 0.3062
vn 0.4720 0.8779 -0.0806
vn 0.1931 0.9530 0.2333
vn -0.3992 0.7434 0.5366
vn -0.5753 0.8172 0.0355
vn -0.4007 -0.5304 -0.7471
vn 0.2329 -0.9592 0.1601
vn 0.1085 -0.9927 -0.0531
vn -0.1041 -0.9916 -0.0769
vn -0.2090 -0.9387 0.2740
vn -0.0810 -0.9958 0.0424
vn -0.1137 -0.9719 0.2063
vn -0.0641 -0.9924 -0.1048
vn 0.3394 -0.9347 -0.1053
vn -0.3685 -0.9290 -0.0355
vn -0.0154 -0.9599 0.2800
vn -0.2306 -0.9698 -0.0798
vn 0.0989 -0.9457 0.3096
vn -0.4897 -0.5290 -0.6931
vn -0.5750 0.8168 -0.0462
vn 0.1867 0.9468 -0.2623
vn -0.1050 0.9661 0.2360
vn 0.0101 0.9985 -0.0531
vn -0.4777 0.6927 -0.5404
vn -0.0004 0.9801 0.1984
vn -0.3344 0.9377 -0.0946
vn 0.4434 0.8863 -0.1339
vn 0.4551 0.8804 -0.1335
vn -0.3486 0.9268 0.1401
vn -0.2155 0.9189 0.3305
vn 0.3391 -0.7375 0.5840
vn 0.5438 0.1672 -0.8224
vn -0.0482 -0.9523 -0.3013
vn 0.2822 -0.9529 -0.1108
vn 0.0724 -0.9970 -0.0263
vn -0.3739 0.4813 -0.7928
vn -0.9652 0.2603 0.0228
vn 0.2448 0.9676 -0.0625
vn 0.0344 0.9818 -0.1870
vn 0.2129 0.9474 -0.2390
vn -0.2666 0.3461 0.8995
vn 0.3703 0.2637 0.8907
vn 0.8506 -0.5257 -0.0132
vn 0.5149 -0.0581 -0.8553
vn 0.4833 -0.5398 -0.6892
vn 0.9590 0.2828 -0.0180
vn 0.6401 0.2759 0.7170
vn -0.7290 0.2893 0.6204
vn -0.8644 0.5027 -0.0070
vn -0.5903 -0.0547 -0.8053
vn -0.9013 0.4305 0.0477
vn -0.3494 -0.9011 0.2567
vn 0.3383 0.7351 0.5875
vn 0.9910 0.1193 -0.0601
vn 0.4392 0.3010 -0.8465
vn 0.2010 0.9720 -0.1217
vn 0.2179 0.9696 -0.1114
vn -0.4274 0.8660 0.2597
vn -0.1950 0.9750 0.1069
vn -0.1958 0.9792 -0.0536
vn -0.1567 0.9872 -0.0305
vn -0.0070 0.9879 0.1547
vn 0.2351 0.9293 0.2850
vn 0.1836 0.9310 0.3155
vn 0.0920 -0.9914 0.0927
vn -0.0211 -0.9994 0.0277
vn -0.0210 -0.9925 -0.1200
vn 0.0922 -0.9939 0.0608
vn 0.2836 -0.9574 -0.0538
vn 0.0712 -0.9808 -0.1817
vn 0.2358 -0.9164 -0.3234
vn 0.1233 -0.9138 -0.3870
vn 0.1332 -0.9875 0.0844
vn -0.0160 -0.9978 0.0639
vn -0.1186 -0.9929 0.0043
vn -0.1183 -0.9902 -0.0736
vn 0.0348 0.9926 0.1167
vn -0.2924 0.9533 -0.0760
vn -0.1547 0.9747 -0.1611
vn 0.4147 0.8946 -0.1666
vn 0.2845 0.9541 0.0940
vn 0.1700 0.8224 0.5429
vn -0.0502 -0.9925 0.1119
vn 0.0506 -0.9984 0.0239
vn 0.0015 -0.9895 0.1447
vn -0.3447 -0.9382 0.0295
vn -0.0208 -0.9891 0.1455
vn -0.1768 -0.9792 0.0999
vn -0.0464 -0.9900 -0.1329
vn 0.1686 -0.9640 0.2058
vn -0.1688 -0.9135 -0.3701
vn -0.0153 -0.9599 0.2800
vn 0.0420 -0.9958 -0.0819
vn -0.2120 -0.9288 0.3040
vn -0.0466 0.9635 -0.2636
vn -0.0120 0.9714 0.2373
vn -0.1038 0.9932 -0.0528
vn -0.7970 0.6025 -0.0430
vn 0.0551 0.9930 0.1048
vn -0.4006 0.9155 0.0360
vn 0.3092 0.8666 -0.3916
vn 0.4260 0.8848 -0.1886
vn -0.2289 0.9134 0.3367
vt 0.916667 0.750000
vt 0.833333 0.500000
vt 0.916667 0.500000
vt 0.750000 0.750000
vt 0.666667 0.500000
vt 0.750000 0.500000
vt 0.583333 0.750000
vt 0.500000 0.500000
vt 0.583333 0.500000
vt 0.416667 0.750000
vt 0.333333 0.500000
vt 0.416667 0.500000
vt 0.250000 0.490000
vt 0.198038 0.400000
vt 0.301962 0.400000
vt 0.250000 0.750000
vt 0.166667 0.500000
vt 0.250000 0.500000
vt 0.957846 0.370000
vt 0.905885 0.280000
vt 0.853923 0.370000
vt 0.833333 1.000000
vt 0.916667 1.000000
vt 0.500000 1.000000
vt 0.583333 1.000000
vt 0.333333 1.000000
vt 0.416667 1.000000
vt 0.457846 0.250000
vt 0.405885 0.220000
vt 0.457846 0.130000
vt 0.146077 0.430000
vt 0.146077 0.070000
vt 0.146077 0.130000
vt 0.042154 0.130000
vt 0.166667 1.000000
vt 0.250000 1.000000
vt -0.000000 1.000000
vt 0.083333 0.750000
vt 0.083333 1.000000
vt 0.646077 0.430000
vt 0.646077 0.370000
vt 0.542154 0.370000
vt 0.957846 0.250000
vt 0.646077 0.070000
vt 0.698038 0.100000
vt 0.750000 0.010000
vt 0.542154 0.250000
vt 0.594115 0.280000
vt 0.646077 0.190000
vt 0.594115 0.160000
vt 0.542154 0.130000
vt 0.853923 0.070000
vt 0.801962 0.100000
vt 0.853923 0.190000
vt 0.905885 0.160000
vt 0.957846 0.130000
vt 0.853923 0.430000
vt 0.750000 0.370000
vt 0.750000 0.430000
vt 0.750000 0.490000
vt 0.353923 0.070000
vt 0.353923 0.130000
vt 0.250000 0.130000
vt 0.250000 0.070000
vt 0.250000 0.010000
vt 0.042154 0.250000
vt 0.094115 0.220000
vt 0.146077 0.310000
vt 0.094115 0.340000
vt 0.042154 0.370000
vt 0.353923 0.430000
vt 0.353923 0.310000
vt 0.405885 0.340000
vt 0.457846 0.370000
vt 0.666667 1.000000
vt 1.000000 1.000000
vt 0.698038 0.280000
vt 0.801962 0.280000
vt 0.750000 0.190000
vt 0.301962 0.220000
vt 0.250000 0.310000
vt 0.198038 0.220000
vt 1.000000 0.500000
vt -0.000000 0.500000
s 0
f 24/1/1 3/2/1 13/3/1
f 25/4/2 5/5/2 15/6/2
f 26/7/3 7/8/3 16/9/3
f 27/10/4 9/11/4 18/12/4
f 2/13/5 36/14/5 41/15/5
f 31/16/6 11/17/6 20/18/6
f 3/19/7 39/20/7 44/21/7
f 4/22/8 24/1/8 14/23/8
f 8/24/9 26/7/9 17/25/9
f 10/26/10 27/10/10 19/27/10
f 25/28/11 35/29/11 6/30/11
f 23/31/12 36/14/12 2/13/12
f 19/32/13 37/33/13 10/34/13
f 12/35/14 31/16/14 21/36/14
f 2/37/15 22/38/15 23/39/15
f 22/40/16 38/41/16 11/42/16
f 15/43/17 39/20/17 3/19/17
f 18/44/18 40/45/18 7/46/18
f 20/47/19 46/48/19 34/49/19
f 34/49/20 47/50/20 20/47/20
f 9/51/21 47/50/21 18/44/21
f 16/52/22 45/53/22 33/54/22
f 33/54/23 48/55/23 16/52/23
f 5/56/24 48/55/24 15/43/24
f 13/57/25 44/21/25 32/58/25
f 32/58/26 49/59/26 13/57/26
f 1/60/27 49/59/27 22/40/27
f 12/35/28 23/39/28 22/38/28
f 10/26/29 21/36/29 31/16/29
f 17/61/30 43/62/30 30/63/30
f 30/63/31 50/64/31 17/61/31
f 8/65/32 50/64/32 19/32/32
f 21/66/33 42/67/33 29/68/33
f 29/68/34 51/69/34 21/66/34
f 12/70/35 51/69/35 23/31/35
f 14/71/36 41/15/36 28/72/36
f 28/72/37 52/73/37 14/71/37
f 4/74/38 52/73/38 25/28/38
f 8/24/39 19/27/39 27/10/39
f 6/75/40 17/25/40 26/7/40
f 2/76/41 14/23/41 24/1/41
f 32/58/42 53/77/42 38/41/42
f 32/58/43 54/78/43 53/77/43
f 33/54/44 45/53/44 55/79/44
f 22/38/45 11/17/45 12/35/45
f 31/16/46 9/11/46 10/26/46
f 28/72/47 56/80/47 35/29/47
f 28/72/48 57/81/48 56/80/48
f 29/68/49 42/67/49 58/82/49
f 27/10/50 7/8/50 8/24/50
f 26/7/51 5/5/51 6/75/51
f 25/4/52 3/2/52 4/22/52
f 24/1/53 1/83/53 2/76/53
f 4/22/54 3/2/54 24/1/54
f 6/75/55 5/5/55 25/4/55
f 8/24/56 7/8/56 26/7/56
f 10/26/57 9/11/57 27/10/57
f 12/35/58 11/17/58 31/16/58
f 2/37/59 1/84/59 22/38/59
f 31/16/60 20/18/60 9/11/60
f 27/10/61 18/12/61 7/8/61
f 26/7/62 16/9/62 5/5/62
f 25/4/63 15/6/63 3/2/63
f 24/1/64 13/3/64 1/83/64
f 58/82/65 37/33/65 30/63/65
f 58/82/66 42/67/66 37/33/66
f 42/67/67 10/34/67 37/33/67
f 56/80/68 58/82/68 30/63/68
f 56/80/69 57/81/69 58/82/69
f 57/81/70 29/68/70 58/82/70
f 35/29/71 43/62/71 6/30/71
f 35/29/72 56/80/72 43/62/72
f 56/80/73 30/63/73 43/62/73
f 55/79/74 40/45/74 34/49/74
f 55/79/75 45/53/75 40/45/75
f 45/53/76 7/46/76 40/45/76
f 53/77/77 55/79/77 34/49/77
f 53/77/78 54/78/78 55/79/78
f 54/78/79 33/54/79 55/79/79
f 38/41/80 46/48/80 11/42/80
f 38/41/81 53/77/81 46/48/81
f 53/77/82 34/49/82 46/48/82
f 44/21/83 54/78/83 32/58/83
f 44/21/84 39/20/84 54/78/84
f 39/20/85 33/54/85 54/78/85
f 41/15/86 57/81/86 28/72/86
f 41/15/87 36/14/87 57/81/87
f 36/14/88 29/68/88 57/81/88
f 25/28/89 28/72/89 35/29/89
f 23/31/90 29/68/90 36/14/90
f 19/32/91 30/63/91 37/33/91
f 22/40/92 32/58/92 38/41/92
f 15/43/93 33/54/93 39/20/93
f 18/44/94 34/49/94 40/45/94
f 20/47/95 11/42/95 46/48/95
f 34/49/96 18/44/96 47/50/96
f 9/51/97 20/47/97 47/50/97
f 16/52/98 7/46/98 45/53/98
f 33/54/99 15/43/99 48/55/99
f 5/56/100 16/52/100 48/55/100
f 13/57/101 3/19/101 44/21/101
f 32/58/102 22/40/102 49/59/102
f 1/60/103 13/57/103 49/59/103
f 17/61/104 6/30/104 43/62/104
f 30/63/105 19/32/105 50/64/105
f 8/65/106 17/61/106 50/64/106
f 21/66/107 10/34/107 42/67/107
f 29/68/108 23/31/108 51/69/108
f 12/70/109 21/66/109 51/69/109
f 14/71/110 2/13/110 41/15/110
f 28/72/111 25/28/111 52/73/111
f 4/74/112 14/71/112 52/73/112
