# Blender 4.3.0
# www.blender.org
o Cylinder
v 0.000000 -1.756051 -24.033588
v 0.000000 3.567163 -26.386263
v 22.821434 -3.540727 -13.175961
v 20.313124 1.311093 -11.727787
v 21.049749 -1.965877 12.153079
v 19.933022 0.973208 11.508335
v 0.000000 -0.702069 22.664455
v 0.000000 1.662995 23.912704
v -21.540155 -2.401795 12.436214
v -22.325094 3.099529 12.889400
v -22.534681 -3.285831 -13.010405
v -23.009083 3.707517 -13.284301
v 11.598328 -4.046003 -20.088892
v 10.041202 0.931785 -17.391872
v 20.767170 -1.616544 0.000000
v 22.355108 3.204466 0.000000
v 10.928233 -2.705830 18.928255
v 11.044082 2.937523 19.128910
v -11.353434 -3.556221 19.664724
v -11.406232 3.661816 19.756172
v -21.919504 -2.768867 0.000000
v -22.120499 2.969858 0.000000
v -10.395832 -1.641038 -18.006109
v -10.496428 1.842229 -18.180347
v 9.797043 0.000000 -16.968977
v 21.971548 0.000000 0.000000
v 11.133885 0.000000 19.284456
v -9.743715 0.000000 16.876610
v 10.825317 3.496430 -6.250000
v -10.825317 4.999577 -6.250000
v 0.000000 4.927331 12.500000
v -22.002775 0.000000 0.000000
v -11.445203 0.000000 -19.823673
v 0.000000 -0.957991 -12.500000
v 10.825317 -2.004800 6.250000
v -10.825317 -0.030842 6.250000
v 16.237976 1.660477 3.125000
v -5.412659 1.902504 -15.625000
v -10.825317 0.643841 12.500000
v -10.825317 -4.117931 -12.500000
v 16.237976 -4.470010 -3.125000
v -5.412659 -0.605307 15.625000
v 5.412659 -0.262583 -15.625000
v -16.237976 3.202432 3.125000
v 10.825317 5.476481 12.500000
v 10.825317 -5.209226 -12.500000
v 5.412659 -0.288029 15.625000
v -16.237976 -4.904236 -3.125000
v -16.237976 0.163489 9.375000
v 16.237976 -2.732572 9.375000
v 0.000000 -1.516015 -18.750000
v 0.000000 0.774281 18.750000
v -16.237976 4.386037 -9.375000
v 16.237976 0.328077 -9.375000
v -5.412659 -3.086256 -3.125000
v 5.412659 -4.941220 -3.125000
v 0.000000 -4.866108 6.250000
v 5.412659 1.185107 3.125000
v 0.000000 3.360423 -6.250000
v -5.412659 4.775379 3.125000
vn 0.3698 0.6650 -0.6489
vn 0.8014 -0.5971 -0.0358
vn 0.2958 -0.1467 0.9439
vn -0.3769 0.6711 0.6384
vn 0.1902 0.9512 0.2428
vn -0.9984 -0.0300 0.0484
vn -0.3155 -0.7877 -0.5291
vn 0.1377 -0.9905 -0.0014
vn 0.4408 -0.4642 -0.7683
vn 0.9762 -0.1168 0.1828
vn 0.3908 0.0606 0.9185
vn -0.3690 -0.6722 0.6418
vn -0.1673 0.9739 0.1536
vn -0.0709 0.9905 0.1176
vn 0.1826 0.9129 -0.3651
vn -0.9971 -0.0395 0.0645
vn -0.5053 0.7046 -0.4982
vn -0.0466 -0.9096 -0.4128
vn 0.4229 -0.8849 0.1952
vn 0.2959 -0.9245 -0.2402
vn -0.0595 -0.8712 0.4872
vn 0.1035 -0.9654 0.2393
vn 0.1922 -0.8902 -0.4130
vn -0.3767 -0.9251 -0.0481
vn -0.1023 -0.9933 -0.0541
vn 0.1755 -0.9840 -0.0324
vn -0.3598 -0.9161 -0.1771
vn -0.2027 -0.9754 0.0871
vn 0.0153 -0.9989 0.0454
vn -0.1660 0.7027 -0.6919
vn -0.9991 -0.0396 -0.0155
vn -0.0473 0.9323 0.3586
vn -0.1792 0.8194 0.5445
vn 0.2283 0.9595 -0.1652
vn -0.1067 0.9861 0.1274
vn -0.1454 0.9877 0.0580
vn 0.0468 0.9674 -0.2490
vn -0.3133 0.9300 -0.1920
vn 0.3878 0.8919 -0.2326
vn -0.2892 0.9517 -0.1033
vn -0.3546 -0.6721 0.6500
vn 0.6573 0.0599 0.7513
vn 0.9814 -0.1175 -0.1519
vn 0.5213 -0.4622 -0.7174
vn 0.2798 -0.9584 -0.0561
vn -0.1608 -0.9384 -0.3059
vn 0.2431 -0.9196 0.3087
vn -0.5075 -0.0681 -0.8589
vn -0.9898 -0.1420 0.0094
vn -0.0428 0.9755 0.2158
vn -0.0122 0.9725 0.2327
vn -0.1430 0.9840 0.1061
vn -0.4879 -0.4074 0.7720
vn 0.5885 0.3801 0.7135
vn 0.8773 0.4747 -0.0710
vn 0.5907 -0.3262 -0.7380
vn 0.3585 0.4323 -0.8274
vn 0.9170 0.3770 0.1305
vn 0.2855 -0.4473 0.8476
vn -0.3274 -0.1239 0.9367
vn -0.9962 -0.0653 0.0572
vn -0.3702 -0.3755 -0.8497
vn -0.1478 -0.7750 -0.6144
vn -0.9991 -0.0300 0.0314
vn -0.3424 0.6708 0.6579
vn 0.5575 -0.1499 0.8165
vn 0.7844 -0.5844 0.2076
vn 0.3548 0.6648 -0.6573
vn -0.3610 0.9123 0.1936
vn -0.1356 0.9331 0.3330
vn 0.2113 0.9671 0.1419
vn 0.3088 0.9312 -0.1934
vn 0.3146 0.9485 0.0385
vn 0.1494 0.9868 -0.0627
vn 0.4300 0.8953 -0.1161
vn -0.0403 0.9171 -0.3966
vn -0.0466 0.9182 -0.3934
vn -0.4014 -0.8987 0.1767
vn 0.0265 -0.9042 0.4263
vn 0.0293 -0.9989 -0.0362
vn -0.4070 -0.9113 0.0620
vn -0.1682 -0.9817 -0.0893
vn 0.2525 -0.9553 0.1534
vn -0.0651 -0.9906 -0.1207
vn 0.1656 -0.9861 0.0129
vn 0.1529 -0.9102 0.3849
vn -0.3595 -0.9154 -0.1814
vn 0.0434 -0.9976 0.0536
vn 0.0418 -0.9601 0.2766
vn -0.0117 0.9304 -0.3663
vn 0.1895 0.9477 -0.2568
vn 0.1456 0.9614 -0.2336
vn -0.1130 0.9607 0.2534
vn 0.1149 0.9611 -0.2512
vn -0.3397 0.8585 -0.3842
vn 0.2593 -0.8882 -0.3793
vn 0.2809 -0.8758 0.3925
vn 0.3022 -0.9248 -0.2311
vn -0.3257 -0.9440 0.0529
vn -0.1822 -0.9492 -0.2566
vn 0.4416 -0.8971 0.0130
vn -0.2574 -0.9326 -0.2528
vn -0.0508 -0.9885 -0.1422
vn 0.1183 -0.9906 0.0685
vn 0.1289 -0.9821 -0.1374
vn 0.0183 -0.9959 0.0889
vn -0.2080 -0.9771 0.0444
vn 0.4485 0.8395 0.3067
vn 0.2513 0.8062 0.5357
vn -0.1840 0.9687 -0.1667
vn -0.0339 0.9994 -0.0106
vn 0.0375 0.9663 -0.2547
vn -0.1360 0.9886 0.0640
vn -0.0945 0.9219 0.3756
vn 0.2563 0.8644 -0.4325
vn -0.1333 0.9752 0.1765
vt 0.916667 0.750000
vt 0.833333 0.500000
vt 0.916667 0.500000
vt 0.750000 0.750000
vt 0.666667 0.500000
vt 0.750000 0.500000
vt 0.583333 0.750000
vt 0.500000 0.500000
vt 0.583333 0.500000
vt 0.416667 0.750000
vt 0.333333 0.500000
vt 0.416667 0.500000
vt 0.250000 0.490000
vt 0.198038 0.400000
vt 0.301962 0.400000
vt 0.250000 0.750000
vt 0.166667 0.500000
vt 0.250000 0.500000
vt 0.083333 0.750000
vt -0.000000 0.500000
vt 0.083333 0.500000
vt 0.957846 0.370000
vt 0.905885 0.280000
vt 0.853923 0.370000
vt 0.833333 1.000000
vt 0.916667 1.000000
vt 0.666667 1.000000
vt 0.750000 1.000000
vt 0.500000 1.000000
vt 0.583333 1.000000
vt 0.333333 1.000000
vt 0.416667 1.000000
vt 0.457846 0.250000
vt 0.405885 0.220000
vt 0.457846 0.130000
vt 0.146077 0.430000
vt 0.146077 0.070000
vt 0.146077 0.130000
vt 0.042154 0.130000
vt 0.166667 1.000000
vt 0.250000 1.000000
vt -0.000000 1.000000
vt 0.083333 1.000000
vt 0.646077 0.430000
vt 0.646077 0.370000
vt 0.542154 0.370000
vt 0.957846 0.250000
vt 0.646077 0.070000
vt 0.698038 0.100000
vt 0.750000 0.010000
vt 0.542154 0.250000
vt 0.594115 0.280000
vt 0.646077 0.190000
vt 0.594115 0.160000
vt 0.542154 0.130000
vt 0.853923 0.070000
vt 0.801962 0.100000
vt 0.853923 0.190000
vt 0.905885 0.160000
vt 0.957846 0.130000
vt 0.853923 0.430000
vt 0.750000 0.370000
vt 0.750000 0.430000
vt 0.750000 0.490000
vt 0.353923 0.070000
vt 0.353923 0.130000
vt 0.250000 0.130000
vt 0.250000 0.070000
vt 0.250000 0.010000
vt 0.042154 0.250000
vt 0.094115 0.220000
vt 0.146077 0.310000
vt 0.094115 0.340000
vt 0.042154 0.370000
vt 0.353923 0.430000
vt 0.353923 0.310000
vt 0.405885 0.340000
vt 0.457846 0.370000
vt 1.000000 1.000000
vt 0.698038 0.280000
vt 0.801962 0.280000
vt 0.750000 0.190000
vt 0.301962 0.220000
vt 0.250000 0.310000
vt 0.198038 0.220000
vt 1.000000 0.500000
s 0
f 25/1/1 3/2/1 13/3/1
f 26/4/2 5/5/2 15/6/2
f 27/7/3 7/8/3 17/9/3
f 28/10/4 9/11/4 19/12/4
f 2/13/5 38/14/5 43/15/5
f 32/16/6 11/17/6 21/18/6
f 33/19/7 1/20/7 23/21/7
f 3/22/8 41/23/8 46/24/8
f 4/25/9 25/1/9 14/26/9
f 6/27/10 26/4/10 16/28/10
f 8/29/11 27/7/11 18/30/11
f 10/31/12 28/10/12 20/32/12
f 16/33/13 37/34/13 6/35/13
f 24/36/14 38/14/14 2/13/14
f 20/37/15 39/38/15 10/39/15
f 12/40/16 32/16/16 22/41/16
f 2/42/17 33/19/17 24/43/17
f 23/44/18 40/45/18 11/46/18
f 15/47/19 41/23/19 3/22/19
f 19/48/20 42/49/20 7/50/20
f 21/51/21 48/52/21 36/53/21
f 36/53/22 49/54/22 21/51/22
f 9/55/23 49/54/23 19/48/23
f 17/56/24 47/57/24 35/58/24
f 35/58/25 50/59/25 17/56/25
f 5/60/26 50/59/26 15/47/26
f 13/61/27 46/24/27 34/62/27
f 34/62/28 51/63/28 13/61/28
f 1/64/29 51/63/29 23/44/29
f 12/40/30 24/43/30 33/19/30
f 10/31/31 22/41/31 32/16/31
f 18/65/32 45/66/32 31/67/32
f 31/67/33 52/68/33 18/65/33
f 8/69/34 52/68/34 20/37/34
f 22/70/35 44/71/35 30/72/35
f 30/72/36 53/73/36 22/70/36
f 12/74/37 53/73/37 24/36/37
f 14/75/38 43/15/38 29/76/38
f 29/76/39 54/77/39 14/75/39
f 4/78/40 54/77/40 16/33/40
f 8/29/41 20/32/41 28/10/41
f 6/27/42 18/30/42 27/7/42
f 4/25/43 16/28/43 26/4/43
f 2/79/44 14/26/44 25/1/44
f 34/62/45 55/80/45 40/45/45
f 34/62/46 56/81/46 55/80/46
f 35/58/47 47/57/47 57/82/47
f 33/19/48 11/17/48 12/40/48
f 32/16/49 9/11/49 10/31/49
f 29/76/50 58/83/50 37/34/50
f 29/76/51 59/84/51 58/83/51
f 30/72/52 44/71/52 60/85/52
f 28/10/53 7/8/53 8/29/53
f 27/7/54 5/5/54 6/27/54
f 26/4/55 3/2/55 4/25/55
f 25/1/56 1/86/56 2/79/56
f 4/25/57 3/2/57 25/1/57
f 6/27/58 5/5/58 26/4/58
f 8/29/59 7/8/59 27/7/59
f 10/31/60 9/11/60 28/10/60
f 12/40/61 11/17/61 32/16/61
f 2/42/62 1/20/62 33/19/62
f 33/19/63 23/21/63 11/17/63
f 32/16/64 21/18/64 9/11/64
f 28/10/65 19/12/65 7/8/65
f 27/7/66 17/9/66 5/5/66
f 26/4/67 15/6/67 3/2/67
f 25/1/68 13/3/68 1/86/68
f 60/85/69 39/38/69 31/67/69
f 60/85/70 44/71/70 39/38/70
f 44/71/71 10/39/71 39/38/71
f 58/83/72 60/85/72 31/67/72
f 58/83/73 59/84/73 60/85/73
f 59/84/74 30/72/74 60/85/74
f 37/34/75 45/66/75 6/35/75
f 37/34/76 58/83/76 45/66/76
f 58/83/77 31/67/77 45/66/77
f 57/82/78 42/49/78 36/53/78
f 57/82/79 47/57/79 42/49/79
f 47/57/80 7/50/80 42/49/80
f 55/80/81 57/82/81 36/53/81
f 55/80/82 56/81/82 57/82/82
f 56/81/83 35/58/83 57/82/83
f 40/45/84 48/52/84 11/46/84
f 40/45/85 55/80/85 48/52/85
f 55/80/86 36/53/86 48/52/86
f 46/24/87 56/81/87 34/62/87
f 46/24/88 41/23/88 56/81/88
f 41/23/89 35/58/89 56/81/89
f 43/15/90 59/84/90 29/76/90
f 43/15/91 38/14/91 59/84/91
f 38/14/92 30/72/92 59/84/92
f 16/33/93 29/76/93 37/34/93
f 24/36/94 30/72/94 38/14/94
f 20/37/95 31/67/95 39/38/95
f 23/44/96 34/62/96 40/45/96
f 15/47/97 35/58/97 41/23/97
f 19/48/98 36/53/98 42/49/98
f 21/51/99 11/46/99 48/52/99
f 36/53/100 19/48/100 49/54/100
f 9/55/101 21/51/101 49/54/101
f 17/56/102 7/50/102 47/57/102
f 35/58/103 15/47/103 50/59/103
f 5/60/104 17/56/104 50/59/104
f 13/61/105 3/22/105 46/24/105
f 34/62/106 23/44/106 51/63/106
f 1/64/107 13/61/107 51/63/107
f 18/65/108 6/35/108 45/66/108
f 31/67/109 20/37/109 52/68/109
f 8/69/110 18/65/110 52/68/110
f 22/70/111 10/39/111 44/71/111
f 30/72/112 24/36/112 53/73/112
f 12/74/113 22/70/113 53/73/113
f 14/75/114 2/13/114 43/15/114
f 29/76/115 16/33/115 54/77/115
f 4/78/116 14/75/116 54/77/116
