# Blender 4.3.0
# www.blender.org
o Cylinder
v 0.000000 -2.797132 -25.385983
v 0.000000 3.602113 -26.431664
v 22.620708 -3.362301 -13.060072
v 19.931597 0.971956 -11.507513
v 19.650560 -0.722145 11.345257
v 19.687403 0.754878 11.366528
v 0.000000 -3.596886 26.424875
v 0.000000 1.057805 23.126545
v -21.717560 -2.559490 12.538639
v -23.176346 3.856208 13.380869
v -20.846527 -1.785227 -12.035748
v -21.999723 2.810302 -12.701546
v 10.834395 -2.518156 -18.765724
v 10.569020 1.987412 -18.306080
v 23.093536 -3.942887 0.000000
v 20.383118 1.232496 0.000000
v 9.926932 -0.703249 17.193951
v 11.138584 3.126527 19.292595
v -10.390557 -1.630489 17.996973
v -10.854636 2.558638 18.800781
v -19.891975 -0.741359 0.000000
v -20.247774 1.097154 0.000000
v -9.809608 -0.468603 -16.990740
v -11.279464 3.408282 -19.536604
v 11.643744 0.000000 -20.167555
v 23.107592 0.000000 0.000000
v 9.556308 0.000000 16.552011
v -11.067159 0.000000 19.168880
v 10.825317 1.662739 -6.250000
v -10.825317 4.226289 -6.250000
v 0.000000 1.874367 12.500000
v -22.959007 0.000000 0.000000
v -10.677617 0.000000 -18.494177
v 0.000000 -0.759550 -12.500000
v 10.825317 -5.169770 6.250000
v -10.825317 -4.183603 6.250000
v 16.237976 3.165785 3.125000
v -5.412659 -0.088792 -15.625000
v -10.825317 2.968442 12.500000
v -10.825317 -3.113822 -12.500000
v 16.237976 -2.407633 -3.125000
v -5.412659 -4.417624 15.625000
v 5.412659 4.488430 -15.625000
v -16.237976 2.451665 3.125000
v 10.825317 2.305305 12.500000
v 10.825317 -0.109278 -12.500000
v 5.412659 -4.665852 15.625000
v -16.237976 -1.781438 -3.125000
v -16.237976 -0.938117 9.375000
v 16.237976 -0.109400 9.375000
v 0.000000 -2.782016 -18.750000
v 0.000000 3.087353 18.750000
v -16.237976 4.077077 -9.375000
v 16.237976 1.954831 -9.375000
v -5.412659 -0.187143 -3.125000
v 5.412659 -0.525832 -3.125000
v 0.000000 0.395720 6.250000
v 5.412659 2.878054 3.125000
v 0.000000 1.274656 -6.250000
v -5.412659 -0.400429 3.125000
vn 0.3357 -0.5382 -0.7731
vn 0.9566 -0.0034 0.2913
vn 0.3433 0.7255 0.5966
vn -0.2924 -0.6352 0.7149
vn -0.3867 0.9145 0.1187
vn -0.2337 -0.9669 0.1024
vn -0.3178 -0.9418 -0.1101
vn -0.2685 -0.9599 -0.0803
vn 0.4530 0.7275 -0.5152
vn 0.4113 0.9093 0.0634
vn 0.3432 -0.7113 0.6133
vn -0.3829 0.1626 0.9094
vn 0.4619 0.8845 0.0654
vn 0.2416 0.8749 0.4198
vn 0.0762 0.9950 0.0651
vn -0.3694 0.9128 0.1741
vn -0.4876 -0.3330 -0.8071
vn -0.1357 -0.8399 -0.5254
vn -0.2027 -0.9786 -0.0362
vn -0.3764 -0.8903 0.2563
vn -0.3190 -0.9460 -0.0582
vn -0.4415 -0.8841 0.1535
vn 0.1731 -0.9654 -0.1949
vn 0.5440 -0.7603 0.3550
vn 0.5182 -0.7761 0.3593
vn -0.2757 -0.9434 0.1842
vn 0.0560 -0.9319 0.3584
vn 0.0236 -0.9512 0.3078
vn -0.2292 -0.9734 0.0022
vn -0.4937 -0.3329 -0.8034
vn -0.3619 0.8942 -0.2636
vn -0.0395 0.9922 -0.1181
vn 0.0058 0.9817 -0.1905
vn -0.0422 0.9064 0.4203
vn -0.3174 0.9483 -0.0038
vn -0.1622 0.9583 0.2352
vn -0.1392 0.9813 -0.1325
vn 0.4426 0.8966 0.0147
vn -0.0379 0.9989 0.0277
vn 0.2401 0.9702 -0.0314
vn -0.3460 0.1617 0.9242
vn 0.3615 -0.7113 0.6028
vn 0.4119 0.9105 -0.0368
vn 0.4873 0.7227 -0.4902
vn 0.2091 -0.9613 0.1794
vn -0.0312 -0.9986 0.0429
vn -0.4469 -0.8693 -0.2113
vn -0.4890 -0.2440 -0.8374
vn -0.9725 -0.2277 0.0498
vn -0.0263 0.9893 -0.1434
vn -0.0354 0.9883 -0.1486
vn 0.2419 0.9183 0.3135
vn -0.3279 0.5462 0.7708
vn 0.4569 -0.0242 0.8892
vn 0.8073 0.5636 -0.1752
vn 0.4335 -0.1453 -0.8894
vn 0.5633 0.5653 -0.6026
vn 0.9567 -0.0280 0.2897
vn 0.5302 0.4902 0.6918
vn -0.4769 -0.2201 0.8510
vn -0.9572 -0.2590 -0.1296
vn -0.5619 -0.1334 -0.8164
vn -0.0157 -0.9571 -0.2893
vn -0.2314 -0.9574 -0.1725
vn -0.5601 -0.6240 0.5449
vn 0.3558 0.7254 0.5892
vn 0.9993 -0.0036 -0.0363
vn 0.4488 -0.5404 -0.7117
vn 0.0963 0.9531 -0.2869
vn 0.2498 0.9482 -0.1965
vn 0.0648 0.9936 -0.0922
vn -0.2892 0.9551 -0.0647
vn -0.2899 0.9571 0.0037
vn 0.2502 0.9177 0.3084
vn 0.1936 0.9605 0.1999
vn -0.0265 0.9967 0.0762
vn -0.0396 0.9957 0.0837
vn 0.3781 -0.8939 -0.2406
vn -0.0203 -0.8846 -0.4659
vn -0.0228 -0.9959 0.0871
vn 0.3842 -0.9083 -0.1654
vn -0.0312 -0.9963 0.0799
vn -0.4503 -0.8758 -0.1739
vn -0.1281 -0.9895 0.0667
vn 0.1422 -0.9653 0.2193
vn 0.1380 -0.9373 -0.3199
vn 0.0600 -0.9982 -0.0097
vn -0.1695 -0.9754 -0.1412
vn -0.1596 -0.9182 -0.3627
vn -0.0341 0.9513 0.3064
vn -0.3878 0.9173 0.0905
vn 0.2525 0.9261 -0.2805
vn 0.2247 0.9335 -0.2794
vn 0.5448 0.8356 -0.0701
vn 0.1003 0.9928 0.0650
vn 0.1880 -0.8643 -0.4666
vn -0.0671 -0.9459 -0.3174
vn -0.4002 -0.8924 0.2088
vn -0.1924 -0.9762 0.0999
vn -0.4118 -0.8872 0.2081
vn 0.2244 -0.9685 -0.1078
vn 0.5466 -0.7610 0.3493
vn 0.3631 -0.7389 0.5676
vn -0.0912 -0.9847 -0.1484
vn -0.2338 -0.9076 0.3486
vn -0.1668 -0.9381 0.3036
vn 0.0243 -0.9997 0.0023
vn 0.1554 0.9798 -0.1256
vn -0.0487 0.9805 -0.1903
vn -0.0237 0.9069 0.4206
vn -0.1456 0.9622 -0.2303
vn 0.0081 0.9981 -0.0617
vn -0.3034 0.9379 0.1683
vn 0.3218 0.9168 -0.2364
vn -0.0075 0.9968 0.0801
vn 0.1913 0.9744 -0.1178
vt 0.916667 0.750000
vt 0.833333 0.500000
vt 0.916667 0.500000
vt 0.750000 0.750000
vt 0.666667 0.500000
vt 0.750000 0.500000
vt 0.583333 0.750000
vt 0.500000 0.500000
vt 0.583333 0.500000
vt 0.416667 0.750000
vt 0.333333 0.500000
vt 0.416667 0.500000
vt 0.250000 0.490000
vt 0.198038 0.400000
vt 0.301962 0.400000
vt 0.250000 0.750000
vt 0.166667 0.500000
vt 0.250000 0.500000
vt 0.083333 0.750000
vt -0.000000 0.500000
vt 0.083333 0.500000
vt 0.957846 0.370000
vt 0.905885 0.280000
vt 0.853923 0.370000
vt 0.833333 1.000000
vt 0.916667 1.000000
vt 0.666667 1.000000
vt 0.750000 1.000000
vt 0.500000 1.000000
vt 0.583333 1.000000
vt 0.333333 1.000000
vt 0.416667 1.000000
vt 0.457846 0.250000
vt 0.405885 0.220000
vt 0.457846 0.130000
vt 0.146077 0.430000
vt 0.146077 0.070000
vt 0.146077 0.130000
vt 0.042154 0.130000
vt 0.166667 1.000000
vt 0.250000 1.000000
vt -0.000000 1.000000
vt 0.083333 1.000000
vt 0.646077 0.430000
vt 0.646077 0.370000
vt 0.542154 0.370000
vt 0.957846 0.250000
vt 0.646077 0.070000
vt 0.698038 0.100000
vt 0.750000 0.010000
vt 0.542154 0.250000
vt 0.594115 0.280000
vt 0.646077 0.190000
vt 0.594115 0.160000
vt 0.542154 0.130000
vt 0.853923 0.070000
vt 0.801962 0.100000
vt 0.853923 0.190000
vt 0.905885 0.160000
vt 0.957846 0.130000
vt 0.853923 0.430000
vt 0.750000 0.370000
vt 0.750000 0.430000
vt 0.750000 0.490000
vt 0.353923 0.070000
vt 0.353923 0.130000
vt 0.250000 0.130000
vt 0.250000 0.070000
vt 0.250000 0.010000
vt 0.042154 0.250000
vt 0.094115 0.220000
vt 0.146077 0.310000
vt 0.094115 0.340000
vt 0.042154 0.370000
vt 0.353923 0.430000
vt 0.353923 0.310000
vt 0.405885 0.340000
vt 0.457846 0.370000
vt 1.000000 1.000000
vt 0.698038 0.280000
vt 0.801962 0.280000
vt 0.750000 0.190000
vt 0.301962 0.220000
vt 0.250000 0.310000
vt 0.198038 0.220000
vt 1.000000 0.500000
s 0
f 25/1/1 3/2/1 13/3/1
f 26/4/2 5/5/2 15/6/2
f 27/7/3 7/8/3 17/9/3
f 28/10/4 9/11/4 19/12/4
f 2/13/5 38/14/5 43/15/5
f 32/16/6 11/17/6 21/18/6
f 33/19/7 1/20/7 23/21/7
f 3/22/8 41/23/8 46/24/8
f 4/25/9 25/1/9 14/26/9
f 6/27/10 26/4/10 16/28/10
f 8/29/11 27/7/11 18/30/11
f 10/31/12 28/10/12 20/32/12
f 16/33/13 37/34/13 6/35/13
f 24/36/14 38/14/14 2/13/14
f 20/37/15 39/38/15 10/39/15
f 12/40/16 32/16/16 22/41/16
f 2/42/17 33/19/17 24/43/17
f 23/44/18 40/45/18 11/46/18
f 15/47/19 41/23/19 3/22/19
f 19/48/20 42/49/20 7/50/20
f 21/51/21 48/52/21 36/53/21
f 36/53/22 49/54/22 21/51/22
f 9/55/23 49/54/23 19/48/23
f 17/56/24 47/57/24 35/58/24
f 35/58/25 50/59/25 17/56/25
f 5/60/26 50/59/26 15/47/26
f 13/61/27 46/24/27 34/62/27
f 34/62/28 51/63/28 13/61/28
f 1/64/29 51/63/29 23/44/29
f 12/40/30 24/43/30 33/19/30
f 10/31/31 22/41/31 32/16/31
f 18/65/32 45/66/32 31/67/32
f 31/67/33 52/68/33 18/65/33
f 8/69/34 52/68/34 20/37/34
f 22/70/35 44/71/35 30/72/35
f 30/72/36 53/73/36 22/70/36
f 12/74/37 53/73/37 24/36/37
f 14/75/38 43/15/38 29/76/38
f 29/76/39 54/77/39 14/75/39
f 4/78/40 54/77/40 16/33/40
f 8/29/41 20/32/41 28/10/41
f 6/27/42 18/30/42 27/7/42
f 4/25/43 16/28/43 26/4/43
f 2/79/44 14/26/44 25/1/44
f 34/62/45 55/80/45 40/45/45
f 34/62/46 56/81/46 55/80/46
f 35/58/47 47/57/47 57/82/47
f 33/19/48 11/17/48 12/40/48
f 32/16/49 9/11/49 10/31/49
f 29/76/50 58/83/50 37/34/50
f 29/76/51 59/84/51 58/83/51
f 30/72/52 44/71/52 60/85/52
f 28/10/53 7/8/53 8/29/53
f 27/7/54 5/5/54 6/27/54
f 26/4/55 3/2/55 4/25/55
f 25/1/56 1/86/56 2/79/56
f 4/25/57 3/2/57 25/1/57
f 6/27/58 5/5/58 26/4/58
f 8/29/59 7/8/59 27/7/59
f 10/31/60 9/11/60 28/10/60
f 12/40/61 11/17/61 32/16/61
f 2/42/62 1/20/62 33/19/62
f 33/19/63 23/21/63 11/17/63
f 32/16/64 21/18/64 9/11/64
f 28/10/65 19/12/65 7/8/65
f 27/7/66 17/9/66 5/5/66
f 26/4/67 15/6/67 3/2/67
f 25/1/68 13/3/68 1/86/68
f 60/85/69 39/38/69 31/67/69
f 60/85/70 44/71/70 39/38/70
f 44/71/71 10/39/71 39/38/71
f 58/83/72 60/85/72 31/67/72
f 58/83/73 59/84/73 60/85/73
f 59/84/74 30/72/74 60/85/74
f 37/34/75 45/66/75 6/35/75
f 37/34/76 58/83/76 45/66/76
f 58/83/77 31/67/77 45/66/77
f 57/82/78 42/49/78 36/53/78
f 57/82/79 47/57/79 42/49/79
f 47/57/80 7/50/80 42/49/80
f 55/80/81 57/82/81 36/53/81
f 55/80/82 56/81/82 57/82/82
f 56/81/83 35/58/83 57/82/83
f 40/45/84 48/52/84 11/46/84
f 40/45/85 55/80/85 48/52/85
f 55/80/86 36/53/86 48/52/86
f 46/24/87 56/81/87 34/62/87
f 46/24/88 41/23/88 56/81/88
f 41/23/89 35/58/89 56/81/89
f 43/15/90 59/84/90 29/76/90
f 43/15/91 38/14/91 59/84/91
f 38/14/92 30/72/92 59/84/92
f 16/33/93 29/76/93 37/34/93
f 24/36/94 30/72/94 38/14/94
f 20/37/95 31/67/95 39/38/95
f 23/44/96 34/62/96 40/45/96
f 15/47/97 35/58/97 41/23/97
f 19/48/98 36/53/98 42/49/98
f 21/51/99 11/46/99 48/52/99
f 36/53/100 19/48/100 49/54/100
f 9/55/101 21/51/101 49/54/101
f 17/56/102 7/50/102 47/57/102
f 35/58/103 15/47/103 50/59/103
f 5/60/104 17/56/104 50/59/104
f 13/61/105 3/22/105 46/24/105
f 34/62/106 23/44/106 51/63/106
f 1/64/107 13/61/107 51/63/107
f 18/65/108 6/35/108 45/66/108
f 31/67/109 20/37/109 52/68/109
f 8/69/110 18/65/110 52/68/110
f 22/70/111 10/39/111 44/71/111
f 30/72/112 24/36/112 53/73/112
f 12/74/113 22/70/113 53/73/113
f 14/75/114 2/13/114 43/15/114
f 29/76/115 16/33/115 54/77/115
f 4/78/116 14/75/116 54/77/116
