# Blender 4.3.0
# www.blender.org
o Cylinder
v 0.000000 -2.265532 -24.695419
v 0.000000 1.569010 -23.790628
v 21.778564 -2.613718 -12.573860
v 23.654087 4.280858 -13.656694
v 20.358982 -1.351858 11.754264
v 23.004700 3.703633 13.281770
v 0.000000 -2.668942 25.219460
v 0.000000 3.202725 25.912861
v -20.360407 -1.353124 11.755087
v -19.680864 0.749065 11.362753
v -23.645056 -4.272846 -13.651480
v -23.268415 3.938036 -13.434026
v 10.750982 -2.351332 -18.621248
v 11.613360 4.076069 -20.114931
v 20.089539 -0.938920 0.000000
v 20.571075 1.420452 0.000000
v 11.710780 -4.270906 20.283667
v 9.765907 0.381201 16.915047
v -10.946322 -2.742007 18.959587
v -10.132806 1.114992 17.550535
v -20.298203 -1.147583 0.000000
v -21.321541 2.170909 0.000000
v -10.457840 -1.765054 -18.113510
v -10.531060 1.911492 -18.240332
v 11.068124 0.000000 -19.170553
v 22.224508 0.000000 0.000000
v 11.889936 0.000000 20.593973
v -10.084470 0.000000 17.466816
v 10.825317 -0.239452 -6.250000
v -10.825317 4.736866 -6.250000
v 0.000000 5.036614 12.500000
v -22.365723 0.000000 0.000000
v -11.819512 0.000000 -20.471996
v 0.000000 -2.649477 -12.500000
v 10.825317 -4.216669 6.250000
v -10.825317 -2.298471 6.250000
v 16.237976 1.780825 3.125000
v -5.412659 2.621252 -15.625000
v -10.825317 3.113875 12.500000
v -10.825317 -2.585498 -12.500000
v 16.237976 -4.991835 -3.125000
v -5.412659 -1.278927 15.625000
v 5.412659 2.721688 -15.625000
v -16.237976 2.098968 3.125000
v 10.825317 -0.325576 12.500000
v 10.825317 -1.085941 -12.500000
v 5.412659 -1.718492 15.625000
v -16.237976 -1.471016 -3.125000
v -16.237976 -0.220586 9.375000
v 16.237976 -3.522580 9.375000
v 0.000000 -2.761815 -18.750000
v 0.000000 1.319028 18.750000
v -16.237976 -0.166808 -9.375000
v 16.237976 0.123509 -9.375000
v -5.412659 -1.957938 -3.125000
v 5.412659 -3.084301 -3.125000
v 0.000000 -2.736712 6.250000
v 5.412659 -0.056298 3.125000
v 0.000000 -0.195377 -6.250000
v -5.412659 0.141728 3.125000
vn 0.4595 -0.2604 -0.8492
vn 0.4022 -0.9146 -0.0414
vn 0.3774 -0.0828 0.9223
vn -0.4639 0.5316 0.7087
vn -0.0092 0.9910 -0.1338
vn -0.4623 -0.8330 0.3040
vn -0.3189 -0.8379 -0.4430
vn -0.1332 -0.9398 -0.3146
vn 0.4600 -0.2584 -0.8495
vn 0.6322 0.7359 -0.2423
vn 0.2432 0.9692 -0.0400
vn -0.5395 -0.0863 0.8376
vn -0.0355 0.9860 -0.1630
vn -0.0536 0.9853 -0.1625
vn -0.2840 0.8776 0.3863
vn -0.8857 0.4260 0.1844
vn -0.2577 0.8023 -0.5384
vn 0.1411 -0.9809 -0.1341
vn 0.6371 -0.7482 0.1852
vn 0.1280 -0.9687 -0.2126
vn -0.1016 -0.9944 -0.0291
vn -0.2478 -0.9477 0.2010
vn 0.0885 -0.9502 -0.2988
vn -0.3888 -0.9211 0.0210
vn 0.1342 -0.9909 -0.0123
vn 0.4844 -0.8738 -0.0418
vn 0.1401 -0.9700 0.1988
vn 0.0379 -0.9991 0.0180
vn -0.0995 -0.9916 -0.0828
vn -0.1057 0.7846 -0.6110
vn -0.8862 0.4263 0.1813
vn 0.4436 0.8955 -0.0369
vn 0.1758 0.8461 0.5033
vn 0.0106 0.9671 -0.2543
vn -0.1139 0.9716 0.2076
vn -0.4511 0.7773 -0.4384
vn 0.2863 0.8754 0.3895
vn 0.0069 0.9547 0.2975
vn 0.1103 0.9472 0.3011
vn -0.4495 0.8892 0.0848
vn -0.6237 -0.0854 0.7770
vn -0.1846 0.9610 0.2061
vn 0.6231 0.7253 0.2926
vn 0.3414 -0.2553 -0.9046
vn -0.0059 -0.9975 0.0702
vn -0.1035 -0.9945 0.0136
vn -0.1332 -0.9741 0.1827
vn -0.5116 0.0462 -0.8580
vn -0.9218 0.3345 0.1958
vn -0.1662 0.9794 -0.1151
vn 0.0041 0.9998 -0.0172
vn 0.1663 0.9200 0.3549
vn -0.6221 -0.0918 0.7776
vn 0.5861 -0.4995 0.6379
vn 0.9655 -0.2596 0.0197
vn 0.4018 0.2103 -0.8912
vn 0.4601 -0.2586 -0.8494
vn 0.8724 -0.4817 0.0831
vn 0.3815 -0.1084 0.9180
vn -0.4927 0.3110 0.8127
vn -0.9959 0.0436 0.0797
vn -0.2906 0.2197 -0.9313
vn -0.0428 -0.8116 -0.5827
vn -0.4852 -0.8742 -0.0179
vn -0.4230 0.5322 0.7334
vn 0.7136 -0.0805 0.6960
vn 0.3965 -0.9015 0.1733
vn 0.4734 -0.2604 -0.8415
vn -0.1616 0.9100 -0.3818
vn 0.1741 0.9632 -0.2048
vn -0.2634 0.9635 0.0478
vn 0.0161 0.8825 -0.4701
vn 0.0183 0.9995 -0.0254
vn 0.4060 0.8912 0.2024
vn -0.3157 0.9484 0.0308
vn -0.1660 0.9783 0.1240
vn 0.4325 0.8732 -0.2246
vn -0.0401 -0.9906 0.1309
vn -0.0402 -0.9906 0.1308
vn -0.0403 -0.9918 -0.1210
vn -0.0404 -0.9974 -0.0595
vn -0.1035 -0.9944 -0.0229
vn -0.1353 -0.9899 -0.0414
vn 0.1123 -0.9770 0.1810
vn -0.0447 -0.9947 0.0924
vn -0.0448 -0.9971 -0.0621
vn 0.1418 -0.9817 -0.1274
vn -0.1657 -0.9406 -0.2962
vn -0.1735 -0.9847 -0.0188
vn 0.0039 0.9542 0.2991
vn -0.0089 0.9562 0.2924
vn 0.4144 0.9095 0.0340
vn -0.0501 0.9819 -0.1827
vn -0.0176 0.9731 -0.2297
vn -0.1616 0.9098 0.3822
vn -0.0058 -0.9894 -0.1450
vn 0.5190 -0.7736 0.3636
vn 0.2376 -0.9708 -0.0316
vn 0.0792 -0.9758 0.2040
vn -0.3762 -0.9259 -0.0359
vn 0.2565 -0.9664 -0.0155
vn -0.2225 -0.9499 -0.2196
vn 0.2228 -0.9594 -0.1729
vn 0.4131 -0.9041 0.1094
vn -0.1340 -0.9701 0.2022
vn -0.0938 -0.9954 0.0179
vn 0.0390 -0.9958 -0.0831
vn -0.2937 0.9304 -0.2194
vn -0.0776 0.8569 0.5097
vn 0.0450 0.9661 -0.2541
vn -0.0681 0.9887 0.1336
vn -0.5926 0.7806 -0.1985
vn 0.4843 0.8737 0.0447
vn -0.2117 0.9773 0.0024
vn -0.1148 0.9898 -0.0839
vn -0.2430 0.8717 0.4255
vt 0.916667 0.750000
vt 0.833333 0.500000
vt 0.916667 0.500000
vt 0.750000 0.750000
vt 0.666667 0.500000
vt 0.750000 0.500000
vt 0.583333 0.750000
vt 0.500000 0.500000
vt 0.583333 0.500000
vt 0.416667 0.750000
vt 0.333333 0.500000
vt 0.416667 0.500000
vt 0.250000 0.490000
vt 0.198038 0.400000
vt 0.301962 0.400000
vt 0.250000 0.750000
vt 0.166667 0.500000
vt 0.250000 0.500000
vt 0.083333 0.750000
vt -0.000000 0.500000
vt 0.083333 0.500000
vt 0.957846 0.370000
vt 0.905885 0.280000
vt 0.853923 0.370000
vt 0.833333 1.000000
vt 0.916667 1.000000
vt 0.666667 1.000000
vt 0.750000 1.000000
vt 0.500000 1.000000
vt 0.583333 1.000000
vt 0.333333 1.000000
vt 0.416667 1.000000
vt 0.457846 0.250000
vt 0.405885 0.220000
vt 0.457846 0.130000
vt 0.146077 0.430000
vt 0.146077 0.070000
vt 0.146077 0.130000
vt 0.042154 0.130000
vt 0.166667 1.000000
vt 0.250000 1.000000
vt -0.000000 1.000000
vt 0.083333 1.000000
vt 0.646077 0.430000
vt 0.646077 0.370000
vt 0.542154 0.370000
vt 0.957846 0.250000
vt 0.646077 0.070000
vt 0.698038 0.100000
vt 0.750000 0.010000
vt 0.542154 0.250000
vt 0.594115 0.280000
vt 0.646077 0.190000
vt 0.594115 0.160000
vt 0.542154 0.130000
vt 0.853923 0.070000
vt 0.801962 0.100000
vt 0.853923 0.190000
vt 0.905885 0.160000
vt 0.957846 0.130000
vt 0.853923 0.430000
vt 0.750000 0.370000
vt 0.750000 0.430000
vt 0.750000 0.490000
vt 0.353923 0.070000
vt 0.353923 0.130000
vt 0.250000 0.130000
vt 0.250000 0.070000
vt 0.250000 0.010000
vt 0.042154 0.250000
vt 0.094115 0.220000
vt 0.146077 0.310000
vt 0.094115 0.340000
vt 0.042154 0.370000
vt 0.353923 0.430000
vt 0.353923 0.310000
vt 0.405885 0.340000
vt 0.457846 0.370000
vt 1.000000 1.000000
vt 0.698038 0.280000
vt 0.801962 0.280000
vt 0.750000 0.190000
vt 0.301962 0.220000
vt 0.250000 0.310000
vt 0.198038 0.220000
vt 1.000000 0.500000
s 0
f 25/1/1 3/2/1 13/3/1
f 26/4/2 5/5/2 15/6/2
f 27/7/3 7/8/3 17/9/3
f 28/10/4 9/11/4 19/12/4
f 2/13/5 38/14/5 43/15/5
f 32/16/6 11/17/6 21/18/6
f 33/19/7 1/20/7 23/21/7
f 3/22/8 41/23/8 46/24/8
f 4/25/9 25/1/9 14/26/9
f 6/27/10 26/4/10 16/28/10
f 8/29/11 27/7/11 18/30/11
f 10/31/12 28/10/12 20/32/12
f 16/33/13 37/34/13 6/35/13
f 24/36/14 38/14/14 2/13/14
f 20/37/15 39/38/15 10/39/15
f 12/40/16 32/16/16 22/41/16
f 2/42/17 33/19/17 24/43/17
f 23/44/18 40/45/18 11/46/18
f 15/47/19 41/23/19 3/22/19
f 19/48/20 42/49/20 7/50/20
f 21/51/21 48/52/21 36/53/21
f 36/53/22 49/54/22 21/51/22
f 9/55/23 49/54/23 19/48/23
f 17/56/24 47/57/24 35/58/24
f 35/58/25 50/59/25 17/56/25
f 5/60/26 50/59/26 15/47/26
f 13/61/27 46/24/27 34/62/27
f 34/62/28 51/63/28 13/61/28
f 1/64/29 51/63/29 23/44/29
f 12/40/30 24/43/30 33/19/30
f 10/31/31 22/41/31 32/16/31
f 18/65/32 45/66/32 31/67/32
f 31/67/33 52/68/33 18/65/33
f 8/69/34 52/68/34 20/37/34
f 22/70/35 44/71/35 30/72/35
f 30/72/36 53/73/36 22/70/36
f 12/74/37 53/73/37 24/36/37
f 14/75/38 43/15/38 29/76/38
f 29/76/39 54/77/39 14/75/39
f 4/78/40 54/77/40 16/33/40
f 8/29/41 20/32/41 28/10/41
f 6/27/42 18/30/42 27/7/42
f 4/25/43 16/28/43 26/4/43
f 2/79/44 14/26/44 25/1/44
f 34/62/45 55/80/45 40/45/45
f 34/62/46 56/81/46 55/80/46
f 35/58/47 47/57/47 57/82/47
f 33/19/48 11/17/48 12/40/48
f 32/16/49 9/11/49 10/31/49
f 29/76/50 58/83/50 37/34/50
f 29/76/51 59/84/51 58/83/51
f 30/72/52 44/71/52 60/85/52
f 28/10/53 7/8/53 8/29/53
f 27/7/54 5/5/54 6/27/54
f 26/4/55 3/2/55 4/25/55
f 25/1/56 1/86/56 2/79/56
f 4/25/57 3/2/57 25/1/57
f 6/27/58 5/5/58 26/4/58
f 8/29/59 7/8/59 27/7/59
f 10/31/60 9/11/60 28/10/60
f 12/40/61 11/17/61 32/16/61
f 2/42/62 1/20/62 33/19/62
f 33/19/63 23/21/63 11/17/63
f 32/16/64 21/18/64 9/11/64
f 28/10/65 19/12/65 7/8/65
f 27/7/66 17/9/66 5/5/66
f 26/4/67 15/6/67 3/2/67
f 25/1/68 13/3/68 1/86/68
f 60/85/69 39/38/69 31/67/69
f 60/85/70 44/71/70 39/38/70
f 44/71/71 10/39/71 39/38/71
f 58/83/72 60/85/72 31/67/72
f 58/83/73 59/84/73 60/85/73
f 59/84/74 30/72/74 60/85/74
f 37/34/75 45/66/75 6/35/75
f 37/34/76 58/83/76 45/66/76
f 58/83/77 31/67/77 45/66/77
f 57/82/78 42/49/78 36/53/78
f 57/82/79 47/57/79 42/49/79
f 47/57/80 7/50/80 42/49/80
f 55/80/81 57/82/81 36/53/81
f 55/80/82 56/81/82 57/82/82
f 56/81/83 35/58/83 57/82/83
f 40/45/84 48/52/84 11/46/84
f 40/45/85 55/80/85 48/52/85
f 55/80/86 36/53/86 48/52/86
f 46/24/87 56/81/87 34/62/87
f 46/24/88 41/23/88 56/81/88
f 41/23/89 35/58/89 56/81/89
f 43/15/90 59/84/90 29/76/90
f 43/15/91 38/14/91 59/84/91
f 38/14/92 30/72/92 59/84/92
f 16/33/93 29/76/93 37/34/93
f 24/36/94 30/72/94 38/14/94
f 20/37/95 31/67/95 39/38/95
f 23/44/96 34/62/96 40/45/96
f 15/47/97 35/58/97 41/23/97
f 19/48/98 36/53/98 42/49/98
f 21/51/99 11/46/99 48/52/99
f 36/53/100 19/48/100 49/54/100
f 9/55/101 21/51/101 49/54/101
f 17/56/102 7/50/102 47/57/102
f 35/58/103 15/47/103 50/59/103
f 5/60/104 17/56/104 50/59/104
f 13/61/105 3/22/105 46/24/105
f 34/62/106 23/44/106 51/63/106
f 1/64/107 13/61/107 51/63/107
f 18/65/108 6/35/108 45/66/108
f 31/67/109 20/37/109 52/68/109
f 8/69/110 18/65/110 52/68/110
f 22/70/111 10/39/111 44/71/111
f 30/72/112 24/36/112 53/73/112
f 12/74/113 22/70/113 53/73/113
f 14/75/114 2/13/114 43/15/114
f 29/76/115 16/33/115 54/77/115
f 4/78/116 14/75/116 54/77/116
