# Blender 4.3.0
# www.blender.org
o Cylinder
v 0.000000 -0.895111 -22.915201
v 0.000000 1.879509 -24.193972
v 21.153736 -2.058306 -12.213116
v 23.201420 3.878483 -13.395346
v 21.071230 -1.984970 12.165480
v 20.457104 1.439067 11.810915
v 0.000000 -1.970165 24.311735
v 0.000000 3.196636 25.904951
v -23.167778 -3.848580 13.375923
v -20.084484 1.107844 11.595782
v -22.773294 -3.497935 -13.148168
v -20.703707 1.658281 -11.953291
v 11.240339 -3.330035 -19.468840
v 10.276285 1.401947 -17.799047
v 23.694080 -4.543423 0.000000
v 23.603041 4.452385 0.000000
v 10.106293 -1.061967 17.504614
v 10.713039 2.275447 18.555529
v -10.644485 -2.138341 18.436790
v -11.692626 4.234600 20.252224
v -23.456966 -4.306313 0.000000
v -23.146650 3.996000 0.000000
v -10.744993 -2.339354 -18.610874
v -10.897816 2.644995 -18.875570
v 9.903088 0.000000 -17.152651
v 22.246223 0.000000 0.000000
v 10.493237 0.000000 18.174822
v -11.022205 0.000000 19.091019
v 10.825317 1.934605 -6.250000
v -10.825317 4.140749 -6.250000
v 0.000000 1.428794 12.500000
v -19.754606 0.000000 0.000000
v -11.817055 0.000000 -20.467739
v 0.000000 -4.184779 -12.500000
v 10.825317 -1.368420 6.250000
v -10.825317 -0.635381 6.250000
v 16.237976 4.587196 3.125000
v -5.412659 2.530415 -15.625000
v -10.825317 3.853298 12.500000
v -10.825317 0.263930 -12.500000
v 16.237976 -3.728717 -3.125000
v -5.412659 0.231642 15.625000
v 5.412659 1.458679 -15.625000
v -16.237976 4.408697 3.125000
v 10.825317 2.649964 12.500000
v 10.825317 -0.935463 -12.500000
v 5.412659 -5.350371 15.625000
v -16.237976 -2.814191 -3.125000
v -16.237976 -0.558492 9.375000
v 16.237976 -1.090368 9.375000
v 0.000000 0.464787 -18.750000
v 0.000000 4.441794 18.750000
v -16.237976 4.581841 -9.375000
v 16.237976 3.041264 -9.375000
v -5.412659 -0.488081 -3.125000
v 5.412659 -2.908044 -3.125000
v 0.000000 -4.679109 6.250000
v 5.412659 0.449468 3.125000
v 0.000000 1.868024 -6.250000
v -5.412659 1.937360 3.125000
vn 0.4067 0.6261 -0.6653
vn 0.9434 0.3006 0.1402
vn 0.4882 -0.5860 0.6467
vn -0.3151 -0.3281 0.8905
vn 0.0985 0.9950 -0.0134
vn -0.7583 0.6519 0.0007
vn -0.1996 -0.6637 -0.7209
vn -0.0988 -0.9678 -0.2313
vn 0.3640 -0.4682 -0.8052
vn 0.9414 -0.2869 0.1776
vn 0.5444 -0.1893 0.8172
vn -0.6299 -0.2966 0.7178
vn 0.1357 0.9508 0.2787
vn 0.0478 0.9978 -0.0456
vn -0.2764 0.9579 -0.0780
vn -0.7620 -0.6469 -0.0292
vn -0.3283 0.5683 -0.7545
vn 0.2587 -0.8874 0.3815
vn -0.0258 -0.9806 -0.1942
vn 0.2151 -0.9063 -0.3637
vn 0.2378 -0.9674 0.0875
vn 0.1427 -0.9520 0.2707
vn 0.2523 -0.9148 -0.3153
vn 0.6594 -0.7492 0.0625
vn 0.0343 -0.9990 0.0294
vn -0.2602 -0.9547 0.1447
vn 0.2717 -0.9051 0.3272
vn -0.2953 -0.7666 -0.5703
vn 0.2445 -0.9218 0.3010
vn -0.5125 0.5665 -0.6453
vn -0.7618 -0.6466 0.0401
vn -0.1119 0.9920 0.0593
vn 0.1717 0.8874 -0.4278
vn 0.0046 0.9852 0.1714
vn -0.0370 0.9981 -0.0499
vn 0.0317 0.9958 0.0856
vn -0.3488 0.8604 -0.3715
vn -0.0088 0.9989 -0.0457
vn -0.2193 0.9750 -0.0345
vn -0.1410 0.9893 -0.0382
vn -0.4366 -0.3016 0.8476
vn 0.5478 -0.1893 0.8149
vn 0.9564 -0.2915 -0.0162
vn 0.4505 -0.4699 -0.7591
vn -0.3762 -0.9153 0.1438
vn -0.2112 -0.9448 0.2506
vn 0.2846 -0.9304 -0.2309
vn -0.5940 0.4001 -0.6979
vn -0.8584 0.5078 -0.0729
vn -0.3564 0.9325 -0.0581
vn -0.0061 0.9882 0.1530
vn 0.2214 0.9700 0.1001
vn -0.4510 -0.2630 0.8529
vn 0.5111 0.1787 0.8407
vn 0.9432 -0.3310 -0.0286
vn 0.4928 -0.3642 -0.7903
vn 0.3384 -0.2947 -0.8937
vn 0.9743 0.1877 0.1247
vn 0.5234 -0.2511 0.8143
vn -0.4919 0.5488 0.6759
vn -0.9306 0.3453 0.1218
vn -0.2147 -0.4088 -0.8870
vn -0.2526 -0.6699 -0.6982
vn -0.7583 0.6519 -0.0059
vn -0.4516 -0.3330 0.8277
vn 0.3144 -0.5859 0.7469
vn 0.9440 0.3008 -0.1351
vn 0.3494 0.6255 -0.6976
vn 0.2180 0.9732 -0.0730
vn 0.2220 0.9725 -0.0706
vn -0.2972 0.9276 0.2265
vn 0.1361 0.9904 -0.0249
vn 0.1358 0.9882 0.0711
vn 0.2042 0.9726 0.1107
vn 0.1393 0.9507 0.2769
vn -0.3570 0.9340 -0.0131
vn -0.1105 0.9799 -0.1662
vn -0.3362 -0.9000 0.2773
vn -0.4493 -0.8714 0.1970
vn -0.4575 -0.8872 0.0602
vn -0.3420 -0.9155 -0.2118
vn -0.2084 -0.9321 -0.2964
vn 0.2924 -0.9562 -0.0118
vn 0.3042 -0.9431 -0.1340
vn 0.2060 -0.9588 -0.1958
vn 0.2089 -0.9722 0.1053
vn 0.2873 -0.9572 -0.0355
vn -0.0733 -0.9666 -0.2457
vn -0.0740 -0.9764 0.2031
vn -0.0061 0.9989 -0.0472
vn 0.0985 0.9950 0.0134
vn 0.2052 0.9775 -0.0494
vn -0.0793 0.9703 -0.2287
vn 0.0904 0.9889 -0.1177
vn 0.2185 0.9756 -0.0235
vn -0.3542 -0.8620 0.3626
vn -0.1685 -0.9745 0.1480
vn 0.3556 -0.9269 -0.1196
vn 0.1809 -0.9822 -0.0510
vn -0.0838 -0.9891 -0.1207
vn 0.4388 -0.8983 0.0213
vn 0.4336 -0.7150 0.5484
vn -0.1058 -0.9575 0.2685
vn -0.1287 -0.9873 -0.0936
vn -0.1112 -0.9419 0.3170
vn 0.1977 -0.7865 -0.5851
vn -0.2883 -0.9103 0.2972
vn 0.1290 0.9896 0.0636
vn -0.0716 0.8985 -0.4331
vn 0.1983 0.9656 0.1680
vn -0.1843 0.9412 0.2831
vn 0.1477 0.9821 -0.1172
vn -0.4215 0.8699 -0.2563
vn 0.0262 0.9991 0.0325
vn -0.1965 0.9805 0.0068
vn -0.1624 0.9838 -0.0765
vt 0.916667 0.750000
vt 0.833333 0.500000
vt 0.916667 0.500000
vt 0.750000 0.750000
vt 0.666667 0.500000
vt 0.750000 0.500000
vt 0.583333 0.750000
vt 0.500000 0.500000
vt 0.583333 0.500000
vt 0.416667 0.750000
vt 0.333333 0.500000
vt 0.416667 0.500000
vt 0.250000 0.490000
vt 0.198038 0.400000
vt 0.301962 0.400000
vt 0.250000 0.750000
vt 0.166667 0.500000
vt 0.250000 0.500000
vt 0.083333 0.750000
vt -0.000000 0.500000
vt 0.083333 0.500000
vt 0.957846 0.370000
vt 0.905885 0.280000
vt 0.853923 0.370000
vt 0.833333 1.000000
vt 0.916667 1.000000
vt 0.666667 1.000000
vt 0.750000 1.000000
vt 0.500000 1.000000
vt 0.583333 1.000000
vt 0.333333 1.000000
vt 0.416667 1.000000
vt 0.457846 0.250000
vt 0.405885 0.220000
vt 0.457846 0.130000
vt 0.146077 0.430000
vt 0.146077 0.070000
vt 0.146077 0.130000
vt 0.042154 0.130000
vt 0.166667 1.000000
vt 0.250000 1.000000
vt -0.000000 1.000000
vt 0.083333 1.000000
vt 0.646077 0.430000
vt 0.646077 0.370000
vt 0.542154 0.370000
vt 0.957846 0.250000
vt 0.646077 0.070000
vt 0.698038 0.100000
vt 0.750000 0.010000
vt 0.542154 0.250000
vt 0.594115 0.280000
vt 0.646077 0.190000
vt 0.594115 0.160000
vt 0.542154 0.130000
vt 0.853923 0.070000
vt 0.801962 0.100000
vt 0.853923 0.190000
vt 0.905885 0.160000
vt 0.957846 0.130000
vt 0.853923 0.430000
vt 0.750000 0.370000
vt 0.750000 0.430000
vt 0.750000 0.490000
vt 0.353923 0.070000
vt 0.353923 0.130000
vt 0.250000 0.130000
vt 0.250000 0.070000
vt 0.250000 0.010000
vt 0.042154 0.250000
vt 0.094115 0.220000
vt 0.146077 0.310000
vt 0.094115 0.340000
vt 0.042154 0.370000
vt 0.353923 0.430000
vt 0.353923 0.310000
vt 0.405885 0.340000
vt 0.457846 0.370000
vt 1.000000 1.000000
vt 0.698038 0.280000
vt 0.801962 0.280000
vt 0.750000 0.190000
vt 0.301962 0.220000
vt 0.250000 0.310000
vt 0.198038 0.220000
vt 1.000000 0.500000
s 0
f 25/1/1 3/2/1 13/3/1
f 26/4/2 5/5/2 15/6/2
f 27/7/3 7/8/3 17/9/3
f 28/10/4 9/11/4 19/12/4
f 2/13/5 38/14/5 43/15/5
f 32/16/6 11/17/6 21/18/6
f 33/19/7 1/20/7 23/21/7
f 3/22/8 41/23/8 46/24/8
f 4/25/9 25/1/9 14/26/9
f 6/27/10 26/4/10 16/28/10
f 8/29/11 27/7/11 18/30/11
f 10/31/12 28/10/12 20/32/12
f 16/33/13 37/34/13 6/35/13
f 24/36/14 38/14/14 2/13/14
f 20/37/15 39/38/15 10/39/15
f 12/40/16 32/16/16 22/41/16
f 2/42/17 33/19/17 24/43/17
f 23/44/18 40/45/18 11/46/18
f 15/47/19 41/23/19 3/22/19
f 19/48/20 42/49/20 7/50/20
f 21/51/21 48/52/21 36/53/21
f 36/53/22 49/54/22 21/51/22
f 9/55/23 49/54/23 19/48/23
f 17/56/24 47/57/24 35/58/24
f 35/58/25 50/59/25 17/56/25
f 5/60/26 50/59/26 15/47/26
f 13/61/27 46/24/27 34/62/27
f 34/62/28 51/63/28 13/61/28
f 1/64/29 51/63/29 23/44/29
f 12/40/30 24/43/30 33/19/30
f 10/31/31 22/41/31 32/16/31
f 18/65/32 45/66/32 31/67/32
f 31/67/33 52/68/33 18/65/33
f 8/69/34 52/68/34 20/37/34
f 22/70/35 44/71/35 30/72/35
f 30/72/36 53/73/36 22/70/36
f 12/74/37 53/73/37 24/36/37
f 14/75/38 43/15/38 29/76/38
f 29/76/39 54/77/39 14/75/39
f 4/78/40 54/77/40 16/33/40
f 8/29/41 20/32/41 28/10/41
f 6/27/42 18/30/42 27/7/42
f 4/25/43 16/28/43 26/4/43
f 2/79/44 14/26/44 25/1/44
f 34/62/45 55/80/45 40/45/45
f 34/62/46 56/81/46 55/80/46
f 35/58/47 47/57/47 57/82/47
f 33/19/48 11/17/48 12/40/48
f 32/16/49 9/11/49 10/31/49
f 29/76/50 58/83/50 37/34/50
f 29/76/51 59/84/51 58/83/51
f 30/72/52 44/71/52 60/85/52
f 28/10/53 7/8/53 8/29/53
f 27/7/54 5/5/54 6/27/54
f 26/4/55 3/2/55 4/25/55
f 25/1/56 1/86/56 2/79/56
f 4/25/57 3/2/57 25/1/57
f 6/27/58 5/5/58 26/4/58
f 8/29/59 7/8/59 27/7/59
f 10/31/60 9/11/60 28/10/60
f 12/40/61 11/17/61 32/16/61
f 2/42/62 1/20/62 33/19/62
f 33/19/63 23/21/63 11/17/63
f 32/16/64 21/18/64 9/11/64
f 28/10/65 19/12/65 7/8/65
f 27/7/66 17/9/66 5/5/66
f 26/4/67 15/6/67 3/2/67
f 25/1/68 13/3/68 1/86/68
f 60/85/69 39/38/69 31/67/69
f 60/85/70 44/71/70 39/38/70
f 44/71/71 10/39/71 39/38/71
f 58/83/72 60/85/72 31/67/72
f 58/83/73 59/84/73 60/85/73
f 59/84/74 30/72/74 60/85/74
f 37/34/75 45/66/75 6/35/75
f 37/34/76 58/83/76 45/66/76
f 58/83/77 31/67/77 45/66/77
f 57/82/78 42/49/78 36/53/78
f 57/82/79 47/57/79 42/49/79
f 47/57/80 7/50/80 42/49/80
f 55/80/81 57/82/81 36/53/81
f 55/80/82 56/81/82 57/82/82
f 56/81/83 35/58/83 57/82/83
f 40/45/84 48/52/84 11/46/84
f 40/45/85 55/80/85 48/52/85
f 55/80/86 36/53/86 48/52/86
f 46/24/87 56/81/87 34/62/87
f 46/24/88 41/23/88 56/81/88
f 41/23/89 35/58/89 56/81/89
f 43/15/90 59/84/90 29/76/90
f 43/15/91 38/14/91 59/84/91
f 38/14/92 30/72/92 59/84/92
f 16/33/93 29/76/93 37/34/93
f 24/36/94 30/72/94 38/14/94
f 20/37/95 31/67/95 39/38/95
f 23/44/96 34/62/96 40/45/96
f 15/47/97 35/58/97 41/23/97
f 19/48/98 36/53/98 42/49/98
f 21/51/99 11/46/99 48/52/99
f 36/53/100 19/48/100 49/54/100
f 9/55/101 21/51/101 49/54/101
f 17/56/102 7/50/102 47/57/102
f 35/58/103 15/47/103 50/59/103
f 5/60/104 17/56/104 50/59/104
f 13/61/105 3/22/105 46/24/105
f 34/62/106 23/44/106 51/63/106
f 1/64/107 13/61/107 51/63/107
f 18/65/108 6/35/108 45/66/108
f 31/67/109 20/37/109 52/68/109
f 8/69/110 18/65/110 52/68/110
f 22/70/111 10/39/111 44/71/111
f 30/72/112 24/36/112 53/73/112
f 12/74/113 22/70/113 53/73/113
f 14/75/114 2/13/114 43/15/114
f 29/76/115 16/33/115 54/77/115
f 4/78/116 14/75/116 54/77/116
