# Blender 4.3.2
# www.blender.org
o 8col
v -8.314097 0.467782 1.540653
v -8.096920 1.185449 0.638511
v -8.875708 2.012630 0.346395
v -9.871673 2.122144 0.956420
v -10.088850 1.404477 1.858562
v -9.310062 0.577296 2.150678
v -11.124292 -2.012630 -0.346395
v -11.903080 -1.185449 -0.638511
v -11.685903 -0.467782 -1.540653
v -10.689938 -0.577296 -2.150678
v -9.911150 -1.404477 -1.858562
v -10.128327 -2.122144 -0.956420
v -8.314097 0.467782 1.540653
v -10.128327 -2.122144 -0.956420
v -9.911150 -1.404477 -1.858562
v -8.096920 1.185449 0.638511
v -8.096920 1.185449 0.638511
v -9.911150 -1.404477 -1.858562
v -10.689938 -0.577296 -2.150678
v -8.875708 2.012630 0.346395
v -8.875708 2.012630 0.346395
v -10.689938 -0.577296 -2.150678
v -11.685903 -0.467782 -1.540653
v -9.871673 2.122144 0.956420
v -9.871673 2.122144 0.956420
v -11.685903 -0.467782 -1.540653
v -11.903080 -1.185449 -0.638511
v -10.088850 1.404477 1.858562
v -10.088850 1.404477 1.858562
v -11.903080 -1.185449 -0.638511
v -11.124292 -2.012630 -0.346395
v -9.310062 0.577296 2.150678
v -9.310062 0.577296 2.150678
v -11.124292 -2.012630 -0.346395
v -10.128327 -2.122144 -0.956420
v -8.314097 0.467782 1.540653
v -11.277971 -2.253963 -3.123157
v -11.461318 -1.529233 -2.429142
v -11.206829 -0.560767 -2.623610
v -10.768994 -0.317032 -3.512093
v -10.585648 -1.041764 -4.206107
v -10.840137 -2.010229 -4.011640
v -7.986922 -2.504900 -2.741307
v -7.732433 -1.536435 -2.935774
v -7.915779 -0.811704 -2.241759
v -8.353615 -1.055438 -1.353276
v -8.608103 -2.023904 -1.158809
v -8.424756 -2.748635 -1.852824
v -11.277971 -2.253963 -3.123157
v -8.424756 -2.748635 -1.852824
v -8.608103 -2.023904 -1.158809
v -11.461318 -1.529233 -2.429142
v -11.461318 -1.529233 -2.429142
v -8.608103 -2.023904 -1.158809
v -8.353615 -1.055438 -1.353276
v -11.206829 -0.560767 -2.623610
v -11.206829 -0.560767 -2.623610
v -8.353615 -1.055438 -1.353276
v -7.915779 -0.811704 -2.241759
v -10.768994 -0.317032 -3.512093
v -10.768994 -0.317032 -3.512093
v -7.915779 -0.811704 -2.241759
v -7.732433 -1.536435 -2.935774
v -10.585648 -1.041764 -4.206107
v -10.585648 -1.041764 -4.206107
v -7.732433 -1.536435 -2.935774
v -7.986922 -2.504900 -2.741307
v -10.840137 -2.010229 -4.011640
v -10.840137 -2.010229 -4.011640
v -7.986922 -2.504900 -2.741307
v -8.424756 -2.748635 -1.852824
v -11.277971 -2.253963 -3.123157
v -10.827945 1.153080 -3.075921
v -11.395866 1.496561 -2.812603
v -11.306760 2.093125 -2.430476
v -10.649734 2.346206 -2.311665
v -10.081814 2.002725 -2.574983
v -10.170919 1.406161 -2.957110
v -10.054552 0.322818 -1.292972
v -9.965446 0.919382 -0.910844
v -10.533367 1.262864 -0.647527
v -11.190392 1.009782 -0.766337
v -11.279498 0.413218 -1.148465
v -10.711577 0.069738 -1.411783
v -10.827945 1.153080 -3.075921
v -10.711577 0.069738 -1.411783
v -11.279498 0.413218 -1.148465
v -11.395866 1.496561 -2.812603
v -11.395866 1.496561 -2.812603
v -11.279498 0.413218 -1.148465
v -11.190392 1.009782 -0.766337
v -11.306760 2.093125 -2.430476
v -11.306760 2.093125 -2.430476
v -11.190392 1.009782 -0.766337
v -10.533367 1.262864 -0.647527
v -10.649734 2.346206 -2.311665
v -10.649734 2.346206 -2.311665
v -10.533367 1.262864 -0.647527
v -9.965446 0.919382 -0.910844
v -10.081814 2.002725 -2.574983
v -10.081814 2.002725 -2.574983
v -9.965446 0.919382 -0.910844
v -10.054552 0.322818 -1.292972
v -10.170919 1.406161 -2.957110
v -10.170919 1.406161 -2.957110
v -10.054552 0.322818 -1.292972
v -10.711577 0.069738 -1.411783
v -10.827945 1.153080 -3.075921
v -13.583576 -1.065507 -0.238799
v -14.139540 -0.255495 0.491350
v -13.743137 0.901767 0.535387
v -12.790771 1.249019 -0.150722
v -12.234807 0.439006 -0.880869
v -12.631208 -0.718256 -0.924907
v -10.627176 -1.495591 1.463406
v -10.230774 -0.338328 1.507445
v -10.786737 0.471684 2.237592
v -11.739105 0.124432 2.923701
v -12.135508 -1.032830 2.879662
v -11.579543 -1.842842 2.149515
v -13.583576 -1.065507 -0.238799
v -11.579543 -1.842842 2.149515
v -12.135508 -1.032830 2.879662
v -14.139540 -0.255495 0.491350
v -14.139540 -0.255495 0.491350
v -12.135508 -1.032830 2.879662
v -11.739105 0.124432 2.923701
v -13.743137 0.901767 0.535387
v -13.743137 0.901767 0.535387
v -11.739105 0.124432 2.923701
v -10.786737 0.471684 2.237592
v -12.790771 1.249019 -0.150722
v -12.790771 1.249019 -0.150722
v -10.786737 0.471684 2.237592
v -10.230774 -0.338328 1.507445
v -12.234807 0.439006 -0.880869
v -12.234807 0.439006 -0.880869
v -10.230774 -0.338328 1.507445
v -10.627176 -1.495591 1.463406
v -12.631208 -0.718256 -0.924907
v -12.631208 -0.718256 -0.924907
v -10.627176 -1.495591 1.463406
v -11.579543 -1.842842 2.149515
v -13.583576 -1.065507 -0.238799
v -5.327526 1.671631 -0.349496
v -5.685997 2.101516 -1.579715
v -6.861736 2.744732 -1.754799
v -7.679002 2.958062 -0.699665
v -7.320530 2.528177 0.530553
v -6.144791 1.884961 0.705638
v -7.806856 -1.326808 0.067631
v -8.982595 -0.683592 -0.107453
v -9.341068 -0.253708 -1.337672
v -8.523801 -0.467038 -2.392806
v -7.348063 -1.110253 -2.217721
v -6.989591 -1.540138 -0.987503
v -5.327526 1.671631 -0.349496
v -6.989591 -1.540138 -0.987503
v -7.348063 -1.110253 -2.217721
v -5.685997 2.101516 -1.579715
v -5.685997 2.101516 -1.579715
v -7.348063 -1.110253 -2.217721
v -8.523801 -0.467038 -2.392806
v -6.861736 2.744732 -1.754799
v -6.861736 2.744732 -1.754799
v -8.523801 -0.467038 -2.392806
v -9.341068 -0.253708 -1.337672
v -7.679002 2.958062 -0.699665
v -7.679002 2.958062 -0.699665
v -9.341068 -0.253708 -1.337672
v -8.982595 -0.683592 -0.107453
v -7.320530 2.528177 0.530553
v -7.320530 2.528177 0.530553
v -8.982595 -0.683592 -0.107453
v -7.806856 -1.326808 0.067631
v -6.144791 1.884961 0.705638
v -6.144791 1.884961 0.705638
v -7.806856 -1.326808 0.067631
v -6.989591 -1.540138 -0.987503
v -5.327526 1.671631 -0.349496
v -9.866250 -1.057540 1.561693
v -9.626390 -0.794153 1.890111
v -9.428446 -0.370506 1.763201
v -9.470363 -0.210247 1.307873
v -9.710223 -0.473632 0.979454
v -9.908168 -0.897279 1.106364
v -8.739388 -1.543776 0.771222
v -8.541443 -1.120128 0.644311
v -8.301582 -0.856742 0.972730
v -8.259665 -1.017003 1.428059
v -8.457608 -1.440649 1.554969
v -8.697470 -1.704035 1.226550
v -9.866250 -1.057540 1.561693
v -8.697470 -1.704035 1.226550
v -8.457608 -1.440649 1.554969
v -9.626390 -0.794153 1.890111
v -9.626390 -0.794153 1.890111
v -8.457608 -1.440649 1.554969
v -8.259665 -1.017003 1.428059
v -9.428446 -0.370506 1.763201
v -9.428446 -0.370506 1.763201
v -8.259665 -1.017003 1.428059
v -8.301582 -0.856742 0.972730
v -9.470363 -0.210247 1.307873
v -9.470363 -0.210247 1.307873
v -8.301582 -0.856742 0.972730
v -8.541443 -1.120128 0.644311
v -9.710223 -0.473632 0.979454
v -9.710223 -0.473632 0.979454
v -8.541443 -1.120128 0.644311
v -8.739388 -1.543776 0.771222
v -9.908168 -0.897279 1.106364
v -9.908168 -0.897279 1.106364
v -8.739388 -1.543776 0.771222
v -8.697470 -1.704035 1.226550
v -9.866250 -1.057540 1.561693
v -8.628391 3.295253 0.014606
v -9.295576 3.782837 0.277081
v -9.217702 4.280350 0.982903
v -8.472643 4.290277 1.426250
v -7.805459 3.802692 1.163775
v -7.883333 3.305180 0.457953
v -8.736582 1.342079 1.935824
v -8.658708 1.839592 2.641645
v -9.325892 2.327176 2.904121
v -10.070951 2.317249 2.460773
v -10.148825 1.819737 1.754952
v -9.481641 1.332152 1.492477
v -8.628391 3.295253 0.014606
v -9.481641 1.332152 1.492477
v -10.148825 1.819737 1.754952
v -9.295576 3.782837 0.277081
v -9.295576 3.782837 0.277081
v -10.148825 1.819737 1.754952
v -10.070951 2.317249 2.460773
v -9.217702 4.280350 0.982903
v -9.217702 4.280350 0.982903
v -10.070951 2.317249 2.460773
v -9.325892 2.327176 2.904121
v -8.472643 4.290277 1.426250
v -8.472643 4.290277 1.426250
v -9.325892 2.327176 2.904121
v -8.658708 1.839592 2.641645
v -7.805459 3.802692 1.163775
v -7.805459 3.802692 1.163775
v -8.658708 1.839592 2.641645
v -8.736582 1.342079 1.935824
v -7.883333 3.305180 0.457953
v -7.883333 3.305180 0.457953
v -8.736582 1.342079 1.935824
v -9.481641 1.332152 1.492477
v -8.628391 3.295253 0.014606
v -10.801865 2.699777 4.809596
v -9.858813 3.000579 4.563261
v -9.669982 3.377430 3.634373
v -10.424201 3.453480 2.951820
v -11.367251 3.152678 3.198154
v -11.556084 2.775827 4.127043
v -10.827416 -0.463597 2.960931
v -10.638583 -0.086746 2.032043
v -9.695533 0.214056 1.785708
v -8.941314 0.138006 2.468262
v -9.130147 -0.238845 3.397149
v -10.073198 -0.539648 3.643484
v -10.801865 2.699777 4.809596
v -10.073198 -0.539648 3.643484
v -9.130147 -0.238845 3.397149
v -9.858813 3.000579 4.563261
v -9.858813 3.000579 4.563261
v -9.130147 -0.238845 3.397149
v -8.941314 0.138006 2.468262
v -9.669982 3.377430 3.634373
v -9.669982 3.377430 3.634373
v -8.941314 0.138006 2.468262
v -9.695533 0.214056 1.785708
v -10.424201 3.453480 2.951820
v -10.424201 3.453480 2.951820
v -9.695533 0.214056 1.785708
v -10.638583 -0.086746 2.032043
v -11.367251 3.152678 3.198154
v -11.367251 3.152678 3.198154
v -10.638583 -0.086746 2.032043
v -10.827416 -0.463597 2.960931
v -11.556084 2.775827 4.127043
v -11.556084 2.775827 4.127043
v -10.827416 -0.463597 2.960931
v -10.073198 -0.539648 3.643484
v -10.801865 2.699777 4.809596
vn 0.4503 0.6428 0.6197
vn -0.4503 -0.6428 -0.6197
vn 0.8735 -0.4610 -0.1565
vn 0.5971 0.2993 -0.7442
vn -0.2764 0.7603 -0.5878
vn -0.8735 0.4610 0.1565
vn -0.5971 -0.2993 0.7442
vn 0.2764 -0.7603 0.5878
vn -0.9023 0.1564 -0.4017
vn 0.9023 -0.1564 0.4017
vn -0.3919 -0.6861 0.6130
vn -0.3516 0.2722 0.8957
vn 0.0403 0.9583 0.2827
vn 0.3919 0.6861 -0.6130
vn 0.3516 -0.2722 -0.8957
vn -0.0403 -0.9583 -0.2827
vn -0.0585 0.5446 -0.8366
vn 0.0585 -0.5446 0.8366
vn -0.6033 -0.6870 -0.4050
vn -0.9905 0.0731 0.1168
vn -0.3872 0.7601 0.5219
vn 0.6033 0.6870 0.4050
vn 0.9905 -0.0731 -0.1168
vn 0.3872 -0.7601 -0.5219
vn -0.6237 0.2419 -0.7433
vn 0.6237 -0.2419 0.7433
vn -0.6362 -0.7096 0.3028
vn -0.7114 0.2183 0.6680
vn -0.0753 0.9279 0.3652
vn 0.6362 0.7096 -0.3028
vn 0.7114 -0.2183 -0.6680
vn 0.0753 -0.9279 -0.3652
vn 0.4526 0.8746 0.1737
vn -0.4526 -0.8746 -0.1737
vn 0.8514 -0.3659 -0.3759
vn 0.1960 0.0925 -0.9762
vn -0.6554 0.4584 -0.6003
vn -0.8514 0.3659 0.3759
vn -0.1960 -0.0925 0.9762
vn 0.6554 -0.4584 0.6003
vn -0.8487 0.4695 0.2434
vn 0.8487 -0.4695 -0.2434
vn -0.1859 -0.6958 0.6938
vn 0.3358 0.1229 0.9339
vn 0.5217 0.8187 0.2401
vn 0.1859 0.6958 -0.6938
vn -0.3358 -0.1229 -0.9339
vn -0.5217 -0.8187 -0.2401
vn 0.3280 0.7547 -0.5682
vn -0.3280 -0.7547 0.5682
vn -0.5480 -0.3379 -0.7652
vn -0.9404 0.3181 -0.1204
vn -0.3924 0.6560 0.6448
vn 0.5480 0.3379 0.7652
vn 0.9404 -0.3181 0.1204
vn 0.3924 -0.6560 -0.6448
vn -0.2071 0.9205 0.3314
vn 0.2071 -0.9205 -0.3314
vn 0.3200 -0.2563 0.9121
vn 0.9607 0.1272 0.2469
vn 0.6406 0.3836 -0.6652
vn -0.3200 0.2563 -0.9121
vn -0.9607 -0.1272 -0.2469
vn -0.6406 -0.3836 0.6652
s 1
f 1//1 2//1 3//1 4//1 5//1 6//1
f 7//2 8//2 9//2 10//2 11//2 12//2
f 13//3 14//3 15//3 16//3
f 17//4 18//4 19//4 20//4
f 21//5 22//5 23//5 24//5
f 25//6 26//6 27//6 28//6
f 29//7 30//7 31//7 32//7
f 33//8 34//8 35//8 36//8
f 37//9 38//9 39//9 40//9 41//9 42//9
f 43//10 44//10 45//10 46//10 47//10 48//10
f 49//11 50//11 51//11 52//11
f 53//12 54//12 55//12 56//12
f 57//13 58//13 59//13 60//13
f 61//14 62//14 63//14 64//14
f 65//15 66//15 67//15 68//15
f 69//16 70//16 71//16 72//16
f 73//17 74//17 75//17 76//17 77//17 78//17
f 79//18 80//18 81//18 82//18 83//18 84//18
f 85//19 86//19 87//19 88//19
f 89//20 90//20 91//20 92//20
f 93//21 94//21 95//21 96//21
f 97//22 98//22 99//22 100//22
f 101//23 102//23 103//23 104//23
f 105//24 106//24 107//24 108//24
f 109//25 110//25 111//25 112//25 113//25 114//25
f 115//26 116//26 117//26 118//26 119//26 120//26
f 121//27 122//27 123//27 124//27
f 125//28 126//28 127//28 128//28
f 129//29 130//29 131//29 132//29
f 133//30 134//30 135//30 136//30
f 137//31 138//31 139//31 140//31
f 141//32 142//32 143//32 144//32
f 145//33 146//33 147//33 148//33 149//33 150//33
f 151//34 152//34 153//34 154//34 155//34 156//34
f 157//35 158//35 159//35 160//35
f 161//36 162//36 163//36 164//36
f 165//37 166//37 167//37 168//37
f 169//38 170//38 171//38 172//38
f 173//39 174//39 175//39 176//39
f 177//40 178//40 179//40 180//40
f 181//41 182//41 183//41 184//41 185//41 186//41
f 187//42 188//42 189//42 190//42 191//42 192//42
f 193//43 194//43 195//43 196//43
f 197//44 198//44 199//44 200//44
f 201//45 202//45 203//45 204//45
f 205//46 206//46 207//46 208//46
f 209//47 210//47 211//47 212//47
f 213//48 214//48 215//48 216//48
f 217//49 218//49 219//49 220//49 221//49 222//49
f 223//50 224//50 225//50 226//50 227//50 228//50
f 229//51 230//51 231//51 232//51
f 233//52 234//52 235//52 236//52
f 237//53 238//53 239//53 240//53
f 241//54 242//54 243//54 244//54
f 245//55 246//55 247//55 248//55
f 249//56 250//56 251//56 252//56
f 253//57 254//57 255//57 256//57 257//57 258//57
f 259//58 260//58 261//58 262//58 263//58 264//58
f 265//59 266//59 267//59 268//59
f 269//60 270//60 271//60 272//60
f 273//61 274//61 275//61 276//61
f 277//62 278//62 279//62 280//62
f 281//63 282//63 283//63 284//63
f 285//64 286//64 287//64 288//64
