# Blender 4.3.0
# www.blender.org
o Cylinder
v 0.000000 -3.110762 -25.793398
v 0.000000 2.959551 -25.596966
v 20.775347 -1.721954 -11.994653
v 20.728291 1.680133 -11.967484
v 21.449699 -2.321390 12.383990
v 21.160204 2.064054 12.216849
v 0.000000 -3.351059 26.105541
v 0.000000 2.098839 24.478880
v -21.728268 -2.569008 12.544822
v -21.955801 2.771264 12.676188
v -21.465878 -2.335768 -12.393330
v -21.957323 2.772613 -12.677066
v 10.440795 -1.730963 -18.083988
v 10.428647 1.706668 -18.062946
v 21.929533 -2.778895 0.000000
v 21.011641 1.861012 0.000000
v 11.274153 -3.397661 19.527407
v 11.025331 2.900022 19.096432
v -11.133101 -3.115561 19.283098
v -10.810429 2.470222 18.724211
v -21.834379 -2.683742 0.000000
v -20.691332 1.540707 0.000000
v -11.133713 -3.116784 -19.284157
v -10.576231 2.001833 -18.318569
v 10.242626 0.000000 -17.740749
v 22.884089 0.000000 0.000000
v 10.086322 0.000000 17.470022
v -10.328403 0.000000 17.889320
v 10.825317 2.707622 -6.250000
v -10.825317 3.791350 -6.250000
v 0.000000 1.278260 12.500000
v -21.199890 0.000000 0.000000
v -11.521620 0.000000 -19.956032
v 0.000000 -3.844986 -12.500000
v 10.825317 -3.788599 6.250000
v -10.825317 -3.963704 6.250000
v 16.237976 3.411846 3.125000
v -5.412659 3.703794 -15.625000
v -10.825317 1.233258 12.500000
v -10.825317 -3.038779 -12.500000
v 16.237976 -1.653711 -3.125000
v -5.412659 -1.167626 15.625000
v 5.412659 1.659553 -15.625000
v -16.237976 1.193724 3.125000
v 10.825317 1.135053 12.500000
v 10.825317 -1.686598 -12.500000
v 5.412659 -2.998718 15.625000
v -16.237976 -3.003007 -3.125000
v -16.237976 -2.516698 9.375000
v 16.237976 -1.539424 9.375000
v 0.000000 -3.566389 -18.750000
v 0.000000 3.423659 18.750000
v -16.237976 2.608904 -9.375000
v 16.237976 2.158274 -9.375000
v -5.412659 -2.025000 -3.125000
v 5.412659 -2.796035 -3.125000
v 0.000000 -1.203876 6.250000
v 5.412659 3.381622 3.125000
v 0.000000 3.934620 -6.250000
v -5.412659 3.287879 3.125000
vn 0.4947 0.2232 -0.8399
vn 0.9446 -0.3245 0.0486
vn 0.4148 0.5730 0.7068
vn -0.4598 0.4589 0.7603
vn 0.1855 0.9823 0.0274
vn -0.9729 0.2300 -0.0225
vn -0.4897 -0.2415 -0.8378
vn -0.0038 -1.0000 0.0057
vn 0.4972 -0.2130 -0.8411
vn 0.7048 0.7091 -0.0204
vn 0.3998 -0.5434 0.7381
vn -0.4519 -0.3635 0.8146
vn 0.2974 0.9546 -0.0195
vn -0.2169 0.9577 -0.1892
vn 0.1313 0.9723 -0.1935
vn -0.9422 0.3110 0.1243
vn -0.4552 0.6826 -0.5717
vn -0.0658 -0.9977 0.0145
vn -0.1553 -0.9852 -0.0719
vn 0.1481 -0.9501 -0.2744
vn -0.0860 -0.9949 -0.0523
vn -0.1862 -0.9741 0.1285
vn -0.0195 -0.9985 -0.0503
vn -0.0893 -0.9955 0.0323
vn 0.3765 -0.9263 0.0145
vn -0.1652 -0.9858 0.0300
vn 0.1955 -0.9807 -0.0057
vn 0.1757 -0.9835 -0.0438
vn -0.0372 -0.9972 -0.0645
vn -0.2863 0.6840 -0.6710
vn -0.9423 0.3110 -0.1242
vn 0.0128 0.9658 -0.2588
vn 0.0550 0.9444 -0.3242
vn -0.0861 0.9707 0.2245
vn -0.0806 0.9716 0.2227
vn -0.2177 0.9760 0.0078
vn 0.0496 0.9981 -0.0364
vn -0.0495 0.9953 -0.0827
vn 0.0513 0.9950 -0.0860
vn 0.0960 0.9952 -0.0173
vn -0.4475 -0.3635 0.8171
vn 0.4403 -0.5434 0.7147
vn 0.7047 0.7090 -0.0274
vn 0.5554 -0.2123 -0.8040
vn -0.0734 -0.9861 0.1490
vn -0.0702 -0.9861 0.1509
vn -0.2319 -0.9713 -0.0521
vn -0.5871 -0.1011 -0.8032
vn -0.9979 -0.0413 -0.0505
vn -0.0028 0.9973 -0.0733
vn 0.1126 0.9936 -0.0064
vn -0.1875 0.9691 0.1603
vn -0.5563 0.2377 0.7963
vn 0.4183 0.0621 0.9062
vn 0.9844 0.0150 -0.1752
vn 0.6130 0.0256 -0.7896
vn 0.4806 0.0136 -0.8768
vn 0.9893 0.0702 0.1277
vn 0.5872 0.2315 0.7757
vn -0.4167 -0.0401 0.9081
vn -0.9949 -0.0935 0.0390
vn -0.4455 0.0290 -0.8948
vn -0.5511 -0.2408 -0.7990
vn -0.9732 0.2301 0.0061
vn -0.4572 0.4589 0.7619
vn 0.4295 0.5729 0.6981
vn 0.9391 -0.3226 -0.1188
vn 0.5599 0.2224 -0.7981
vn -0.0041 0.9773 0.2118
vn -0.1889 0.9764 0.1049
vn 0.1351 0.9874 -0.0822
vn -0.0085 0.9767 0.2143
vn -0.0086 0.9979 0.0639
vn -0.0132 0.9980 0.0612
vn -0.0827 0.9783 0.1898
vn -0.0027 0.9721 0.2345
vn 0.0129 0.9740 0.2260
vn 0.2444 -0.9588 0.1448
vn -0.1661 -0.9818 -0.0921
vn -0.1656 -0.9791 -0.1184
vn 0.2466 -0.9674 -0.0577
vn -0.0705 -0.9894 0.1273
vn -0.2321 -0.9722 0.0311
vn -0.0662 -0.9972 -0.0344
vn 0.0898 -0.9944 0.0557
vn 0.0889 -0.9843 -0.1522
vn 0.1955 -0.9807 -0.0032
vn 0.1048 -0.9929 -0.0570
vn 0.1035 -0.9811 -0.1636
vn 0.1109 0.9786 -0.1734
vn 0.1840 0.9743 -0.1302
vn -0.0132 0.9998 -0.0170
vn 0.1928 0.9639 -0.1837
vn -0.2395 0.9597 -0.1472
vn -0.0041 0.9808 -0.1949
vn -0.0743 -0.9971 0.0148
vn -0.0533 -0.9665 -0.2509
vn 0.3609 -0.9301 0.0690
vn -0.0737 -0.9968 -0.0302
vn -0.2265 -0.9723 0.0579
vn 0.0147 -0.9999 0.0090
vn -0.0339 -0.9981 -0.0511
vn 0.2348 -0.9349 0.2662
vn -0.0339 -0.9800 -0.1960
vn -0.0040 -1.0000 0.0082
vn -0.0382 -0.9983 -0.0445
vn 0.1767 -0.9822 -0.0635
vn -0.0935 0.9625 -0.2547
vn -0.0824 0.9426 -0.3236
vn 0.0392 0.9735 0.2251
vn 0.1348 0.9874 -0.0824
vn -0.1287 0.9806 -0.1481
vn -0.0290 0.9946 0.0995
vn 0.0424 0.9934 0.1065
vn 0.0922 0.9956 -0.0154
vn 0.0549 0.9946 -0.0884
vt 0.916667 0.750000
vt 0.833333 0.500000
vt 0.916667 0.500000
vt 0.750000 0.750000
vt 0.666667 0.500000
vt 0.750000 0.500000
vt 0.583333 0.750000
vt 0.500000 0.500000
vt 0.583333 0.500000
vt 0.416667 0.750000
vt 0.333333 0.500000
vt 0.416667 0.500000
vt 0.250000 0.490000
vt 0.198038 0.400000
vt 0.301962 0.400000
vt 0.250000 0.750000
vt 0.166667 0.500000
vt 0.250000 0.500000
vt 0.083333 0.750000
vt -0.000000 0.500000
vt 0.083333 0.500000
vt 0.957846 0.370000
vt 0.905885 0.280000
vt 0.853923 0.370000
vt 0.833333 1.000000
vt 0.916667 1.000000
vt 0.666667 1.000000
vt 0.750000 1.000000
vt 0.500000 1.000000
vt 0.583333 1.000000
vt 0.333333 1.000000
vt 0.416667 1.000000
vt 0.457846 0.250000
vt 0.405885 0.220000
vt 0.457846 0.130000
vt 0.146077 0.430000
vt 0.146077 0.070000
vt 0.146077 0.130000
vt 0.042154 0.130000
vt 0.166667 1.000000
vt 0.250000 1.000000
vt -0.000000 1.000000
vt 0.083333 1.000000
vt 0.646077 0.430000
vt 0.646077 0.370000
vt 0.542154 0.370000
vt 0.957846 0.250000
vt 0.646077 0.070000
vt 0.698038 0.100000
vt 0.750000 0.010000
vt 0.542154 0.250000
vt 0.594115 0.280000
vt 0.646077 0.190000
vt 0.594115 0.160000
vt 0.542154 0.130000
vt 0.853923 0.070000
vt 0.801962 0.100000
vt 0.853923 0.190000
vt 0.905885 0.160000
vt 0.957846 0.130000
vt 0.853923 0.430000
vt 0.750000 0.370000
vt 0.750000 0.430000
vt 0.750000 0.490000
vt 0.353923 0.070000
vt 0.353923 0.130000
vt 0.250000 0.130000
vt 0.250000 0.070000
vt 0.250000 0.010000
vt 0.042154 0.250000
vt 0.094115 0.220000
vt 0.146077 0.310000
vt 0.094115 0.340000
vt 0.042154 0.370000
vt 0.353923 0.430000
vt 0.353923 0.310000
vt 0.405885 0.340000
vt 0.457846 0.370000
vt 1.000000 1.000000
vt 0.698038 0.280000
vt 0.801962 0.280000
vt 0.750000 0.190000
vt 0.301962 0.220000
vt 0.250000 0.310000
vt 0.198038 0.220000
vt 1.000000 0.500000
s 0
f 25/1/1 3/2/1 13/3/1
f 26/4/2 5/5/2 15/6/2
f 27/7/3 7/8/3 17/9/3
f 28/10/4 9/11/4 19/12/4
f 2/13/5 38/14/5 43/15/5
f 32/16/6 11/17/6 21/18/6
f 33/19/7 1/20/7 23/21/7
f 3/22/8 41/23/8 46/24/8
f 4/25/9 25/1/9 14/26/9
f 6/27/10 26/4/10 16/28/10
f 8/29/11 27/7/11 18/30/11
f 10/31/12 28/10/12 20/32/12
f 16/33/13 37/34/13 6/35/13
f 24/36/14 38/14/14 2/13/14
f 20/37/15 39/38/15 10/39/15
f 12/40/16 32/16/16 22/41/16
f 2/42/17 33/19/17 24/43/17
f 23/44/18 40/45/18 11/46/18
f 15/47/19 41/23/19 3/22/19
f 19/48/20 42/49/20 7/50/20
f 21/51/21 48/52/21 36/53/21
f 36/53/22 49/54/22 21/51/22
f 9/55/23 49/54/23 19/48/23
f 17/56/24 47/57/24 35/58/24
f 35/58/25 50/59/25 17/56/25
f 5/60/26 50/59/26 15/47/26
f 13/61/27 46/24/27 34/62/27
f 34/62/28 51/63/28 13/61/28
f 1/64/29 51/63/29 23/44/29
f 12/40/30 24/43/30 33/19/30
f 10/31/31 22/41/31 32/16/31
f 18/65/32 45/66/32 31/67/32
f 31/67/33 52/68/33 18/65/33
f 8/69/34 52/68/34 20/37/34
f 22/70/35 44/71/35 30/72/35
f 30/72/36 53/73/36 22/70/36
f 12/74/37 53/73/37 24/36/37
f 14/75/38 43/15/38 29/76/38
f 29/76/39 54/77/39 14/75/39
f 4/78/40 54/77/40 16/33/40
f 8/29/41 20/32/41 28/10/41
f 6/27/42 18/30/42 27/7/42
f 4/25/43 16/28/43 26/4/43
f 2/79/44 14/26/44 25/1/44
f 34/62/45 55/80/45 40/45/45
f 34/62/46 56/81/46 55/80/46
f 35/58/47 47/57/47 57/82/47
f 33/19/48 11/17/48 12/40/48
f 32/16/49 9/11/49 10/31/49
f 29/76/50 58/83/50 37/34/50
f 29/76/51 59/84/51 58/83/51
f 30/72/52 44/71/52 60/85/52
f 28/10/53 7/8/53 8/29/53
f 27/7/54 5/5/54 6/27/54
f 26/4/55 3/2/55 4/25/55
f 25/1/56 1/86/56 2/79/56
f 4/25/57 3/2/57 25/1/57
f 6/27/58 5/5/58 26/4/58
f 8/29/59 7/8/59 27/7/59
f 10/31/60 9/11/60 28/10/60
f 12/40/61 11/17/61 32/16/61
f 2/42/62 1/20/62 33/19/62
f 33/19/63 23/21/63 11/17/63
f 32/16/64 21/18/64 9/11/64
f 28/10/65 19/12/65 7/8/65
f 27/7/66 17/9/66 5/5/66
f 26/4/67 15/6/67 3/2/67
f 25/1/68 13/3/68 1/86/68
f 60/85/69 39/38/69 31/67/69
f 60/85/70 44/71/70 39/38/70
f 44/71/71 10/39/71 39/38/71
f 58/83/72 60/85/72 31/67/72
f 58/83/73 59/84/73 60/85/73
f 59/84/74 30/72/74 60/85/74
f 37/34/75 45/66/75 6/35/75
f 37/34/76 58/83/76 45/66/76
f 58/83/77 31/67/77 45/66/77
f 57/82/78 42/49/78 36/53/78
f 57/82/79 47/57/79 42/49/79
f 47/57/80 7/50/80 42/49/80
f 55/80/81 57/82/81 36/53/81
f 55/80/82 56/81/82 57/82/82
f 56/81/83 35/58/83 57/82/83
f 40/45/84 48/52/84 11/46/84
f 40/45/85 55/80/85 48/52/85
f 55/80/86 36/53/86 48/52/86
f 46/24/87 56/81/87 34/62/87
f 46/24/88 41/23/88 56/81/88
f 41/23/89 35/58/89 56/81/89
f 43/15/90 59/84/90 29/76/90
f 43/15/91 38/14/91 59/84/91
f 38/14/92 30/72/92 59/84/92
f 16/33/93 29/76/93 37/34/93
f 24/36/94 30/72/94 38/14/94
f 20/37/95 31/67/95 39/38/95
f 23/44/96 34/62/96 40/45/96
f 15/47/97 35/58/97 41/23/97
f 19/48/98 36/53/98 42/49/98
f 21/51/99 11/46/99 48/52/99
f 36/53/100 19/48/100 49/54/100
f 9/55/101 21/51/101 49/54/101
f 17/56/102 7/50/102 47/57/102
f 35/58/103 15/47/103 50/59/103
f 5/60/104 17/56/104 50/59/104
f 13/61/105 3/22/105 46/24/105
f 34/62/106 23/44/106 51/63/106
f 1/64/107 13/61/107 51/63/107
f 18/65/108 6/35/108 45/66/108
f 31/67/109 20/37/109 52/68/109
f 8/69/110 18/65/110 52/68/110
f 22/70/111 10/39/111 44/71/111
f 30/72/112 24/36/112 53/73/112
f 12/74/113 22/70/113 53/73/113
f 14/75/114 2/13/114 43/15/114
f 29/76/115 16/33/115 54/77/115
f 4/78/116 14/75/116 54/77/116
