# Blender 4.3.0
# www.blender.org
o Cylinder
v 0.000000 -1.744579 -24.018686
v 0.000000 3.055974 -25.722219
v 21.505407 -2.370907 -12.416153
v 21.099012 2.009665 -12.181520
v 22.315039 -3.090584 12.883594
v 20.641891 1.603326 11.917602
v 0.000000 -3.009065 25.661283
v 0.000000 2.612542 25.146196
v -22.592972 -3.337639 13.044059
v -22.624474 3.365649 13.062246
v -20.651150 -1.611554 -11.922947
v -21.448635 2.320443 -12.383375
v 10.968857 -2.787076 -18.998619
v 10.792032 2.433430 -18.692348
v 21.870186 -2.719548 0.000000
v 22.126637 2.975996 0.000000
v 10.571558 -1.992486 18.310476
v 10.383488 1.616350 17.984728
v -10.743813 -2.336992 18.608829
v -10.862658 2.574679 18.814674
v -21.437763 -2.287131 0.000000
v -20.937603 1.786977 0.000000
v -11.204790 -3.258937 -19.407267
v -10.796016 2.441397 -18.699247
v 10.577908 0.000000 -18.321472
v 21.848103 0.000000 0.000000
v 10.755644 0.000000 18.629322
v -10.688052 0.000000 18.512249
v 10.825317 2.781292 -6.250000
v -10.825317 2.375985 -6.250000
v 0.000000 1.091752 12.500000
v -21.568254 0.000000 0.000000
v -11.343862 0.000000 -19.648144
v 0.000000 -3.027822 -12.500000
v 10.825317 -3.447626 6.250000
v -10.825317 -2.069766 6.250000
v 16.237976 1.836360 3.125000
v -5.412659 3.314043 -15.625000
v -10.825317 3.215615 12.500000
v -10.825317 -1.417550 -12.500000
v 16.237976 -2.160733 -3.125000
v -5.412659 -3.609541 15.625000
v 5.412659 1.767887 -15.625000
v -16.237976 2.540472 3.125000
v 10.825317 3.989394 12.500000
v 10.825317 -3.137017 -12.500000
v 5.412659 -2.320859 15.625000
v -16.237976 -1.516724 -3.125000
v -16.237976 -3.799046 9.375000
v 16.237976 -3.753867 9.375000
v 0.000000 -1.508082 -18.750000
v 0.000000 2.610790 18.750000
v -16.237976 3.038112 -9.375000
v 16.237976 2.241659 -9.375000
v -5.412659 -1.930365 -3.125000
v 5.412659 -3.848018 -3.125000
v 0.000000 -3.992946 6.250000
v 5.412659 2.551488 3.125000
v 0.000000 2.473464 -6.250000
v -5.412659 3.659506 3.125000
vn 0.5025 0.2700 -0.8214
vn 0.9994 0.0081 -0.0343
vn 0.5731 -0.1809 0.7993
vn -0.4279 0.0475 0.9026
vn 0.1412 0.9887 0.0504
vn -0.9960 -0.0568 -0.0689
vn -0.3695 -0.0842 -0.9254
vn 0.0709 -0.9955 0.0627
vn 0.5209 -0.1732 -0.8359
vn 0.9893 -0.0926 0.1126
vn 0.5430 0.4159 0.7295
vn -0.4426 -0.1342 0.8866
vn -0.1397 0.9855 0.0961
vn -0.1118 0.9901 -0.0852
vn 0.0175 0.9947 0.1011
vn -0.9417 0.3323 0.0532
vn -0.5139 0.4085 -0.7543
vn 0.0341 -0.9662 0.2557
vn -0.0847 -0.9961 -0.0255
vn -0.1541 -0.9778 0.1416
vn 0.0829 -0.9909 -0.1063
vn 0.1639 -0.9556 -0.2450
vn 0.0138 -0.9888 0.1483
vn 0.0008 -0.9928 0.1198
vn -0.1229 -0.9856 0.1163
vn 0.1272 -0.9913 -0.0329
vn -0.0101 -0.9985 -0.0540
vn -0.1178 -0.9649 -0.2346
vn 0.1517 -0.9874 0.0443
vn -0.4687 0.4094 -0.7827
vn -0.9309 0.3285 -0.1599
vn -0.2403 0.8978 0.3691
vn 0.0754 0.9689 -0.2355
vn -0.0033 1.0000 -0.0003
vn -0.1065 0.9912 -0.0789
vn 0.0347 0.9882 0.1493
vn -0.0747 0.9914 -0.1071
vn -0.1381 0.9900 -0.0273
vn 0.0831 0.9961 -0.0281
vn 0.0018 0.9969 -0.0792
vn -0.4987 -0.1344 0.8563
vn 0.4628 0.4183 0.7816
vn 0.9927 -0.0929 -0.0764
vn 0.5305 -0.1731 -0.8298
vn -0.1471 -0.9886 0.0308
vn -0.1744 -0.9846 0.0146
vn 0.0498 -0.9878 0.1475
vn -0.6021 -0.2122 -0.7697
vn -0.9968 -0.0045 -0.0795
vn 0.0658 0.9959 0.0624
vn -0.0284 0.9996 0.0081
vn -0.1025 0.9918 -0.0766
vn -0.5393 0.0768 0.8386
vn 0.4899 0.3398 0.8028
vn 0.9945 0.0947 -0.0455
vn 0.4904 -0.2915 -0.8213
vn 0.4888 0.0918 -0.8676
vn 0.9376 0.3442 0.0486
vn 0.5303 0.0774 0.8443
vn -0.4164 -0.0044 0.9092
vn -0.9778 -0.2039 -0.0477
vn -0.3829 -0.3089 -0.8706
vn -0.6278 -0.0840 -0.7739
vn -0.9941 -0.0567 -0.0926
vn -0.5461 0.0476 0.8364
vn 0.3986 -0.1807 0.8991
vn 0.9995 0.0081 -0.0291
vn 0.4218 0.2695 -0.8657
vn 0.1902 0.9693 0.1557
vn -0.1028 0.9946 -0.0123
vn 0.0090 0.9970 -0.0770
vn 0.0996 0.9728 0.2090
vn 0.1016 0.9926 -0.0669
vn -0.0089 0.9914 -0.1306
vn 0.2302 0.9690 -0.0896
vn 0.0647 0.9801 -0.1877
vn -0.2586 0.9660 0.0011
vn -0.1746 -0.9828 -0.0606
vn 0.1175 -0.9872 0.1082
vn 0.1182 -0.9930 -0.0043
vn -0.1738 -0.9781 -0.1149
vn -0.1733 -0.9781 -0.1152
vn 0.0503 -0.9986 0.0136
vn 0.0198 -0.9998 0.0008
vn -0.0382 -0.9987 -0.0326
vn -0.0382 -0.9986 -0.0369
vn -0.0101 -0.9966 -0.0814
vn 0.1540 -0.9880 0.0140
vn 0.1538 -0.9870 -0.0467
vn -0.0283 0.9954 -0.0913
vn 0.1414 0.9899 0.0071
vn -0.0090 0.9955 0.0944
vn -0.1052 0.9815 0.1597
vn -0.1627 0.9867 0.0048
vn 0.1916 0.9764 0.1002
vn -0.1420 -0.9545 0.2623
vn -0.0173 -0.9892 -0.1458
vn -0.2424 -0.9700 -0.0194
vn 0.1179 -0.9918 -0.0484
vn 0.2924 -0.9560 -0.0226
vn -0.1240 -0.9881 -0.0906
vn 0.0773 -0.9967 -0.0266
vn 0.0053 -0.9943 -0.1065
vn -0.0034 -0.9815 0.1914
vn 0.0719 -0.9961 -0.0520
vn 0.1635 -0.9586 -0.2331
vn -0.1147 -0.9924 0.0445
vn 0.2387 0.8841 0.4017
vn -0.0046 0.9717 -0.2362
vn 0.0953 0.9954 -0.0003
vn -0.0728 0.9890 -0.1289
vn 0.1183 0.9930 0.0055
vn -0.1641 0.9852 0.0492
vn -0.0386 0.9884 0.1468
vn 0.0397 0.9939 -0.1028
vn 0.0445 0.9990 -0.0055
vt 0.916667 0.750000
vt 0.833333 0.500000
vt 0.916667 0.500000
vt 0.750000 0.750000
vt 0.666667 0.500000
vt 0.750000 0.500000
vt 0.583333 0.750000
vt 0.500000 0.500000
vt 0.583333 0.500000
vt 0.416667 0.750000
vt 0.333333 0.500000
vt 0.416667 0.500000
vt 0.250000 0.490000
vt 0.198038 0.400000
vt 0.301962 0.400000
vt 0.250000 0.750000
vt 0.166667 0.500000
vt 0.250000 0.500000
vt 0.083333 0.750000
vt -0.000000 0.500000
vt 0.083333 0.500000
vt 0.957846 0.370000
vt 0.905885 0.280000
vt 0.853923 0.370000
vt 0.833333 1.000000
vt 0.916667 1.000000
vt 0.666667 1.000000
vt 0.750000 1.000000
vt 0.500000 1.000000
vt 0.583333 1.000000
vt 0.333333 1.000000
vt 0.416667 1.000000
vt 0.457846 0.250000
vt 0.405885 0.220000
vt 0.457846 0.130000
vt 0.146077 0.430000
vt 0.146077 0.070000
vt 0.146077 0.130000
vt 0.042154 0.130000
vt 0.166667 1.000000
vt 0.250000 1.000000
vt -0.000000 1.000000
vt 0.083333 1.000000
vt 0.646077 0.430000
vt 0.646077 0.370000
vt 0.542154 0.370000
vt 0.957846 0.250000
vt 0.646077 0.070000
vt 0.698038 0.100000
vt 0.750000 0.010000
vt 0.542154 0.250000
vt 0.594115 0.280000
vt 0.646077 0.190000
vt 0.594115 0.160000
vt 0.542154 0.130000
vt 0.853923 0.070000
vt 0.801962 0.100000
vt 0.853923 0.190000
vt 0.905885 0.160000
vt 0.957846 0.130000
vt 0.853923 0.430000
vt 0.750000 0.370000
vt 0.750000 0.430000
vt 0.750000 0.490000
vt 0.353923 0.070000
vt 0.353923 0.130000
vt 0.250000 0.130000
vt 0.250000 0.070000
vt 0.250000 0.010000
vt 0.042154 0.250000
vt 0.094115 0.220000
vt 0.146077 0.310000
vt 0.094115 0.340000
vt 0.042154 0.370000
vt 0.353923 0.430000
vt 0.353923 0.310000
vt 0.405885 0.340000
vt 0.457846 0.370000
vt 1.000000 1.000000
vt 0.698038 0.280000
vt 0.801962 0.280000
vt 0.750000 0.190000
vt 0.301962 0.220000
vt 0.250000 0.310000
vt 0.198038 0.220000
vt 1.000000 0.500000
s 0
f 25/1/1 3/2/1 13/3/1
f 26/4/2 5/5/2 15/6/2
f 27/7/3 7/8/3 17/9/3
f 28/10/4 9/11/4 19/12/4
f 2/13/5 38/14/5 43/15/5
f 32/16/6 11/17/6 21/18/6
f 33/19/7 1/20/7 23/21/7
f 3/22/8 41/23/8 46/24/8
f 4/25/9 25/1/9 14/26/9
f 6/27/10 26/4/10 16/28/10
f 8/29/11 27/7/11 18/30/11
f 10/31/12 28/10/12 20/32/12
f 16/33/13 37/34/13 6/35/13
f 24/36/14 38/14/14 2/13/14
f 20/37/15 39/38/15 10/39/15
f 12/40/16 32/16/16 22/41/16
f 2/42/17 33/19/17 24/43/17
f 23/44/18 40/45/18 11/46/18
f 15/47/19 41/23/19 3/22/19
f 19/48/20 42/49/20 7/50/20
f 21/51/21 48/52/21 36/53/21
f 36/53/22 49/54/22 21/51/22
f 9/55/23 49/54/23 19/48/23
f 17/56/24 47/57/24 35/58/24
f 35/58/25 50/59/25 17/56/25
f 5/60/26 50/59/26 15/47/26
f 13/61/27 46/24/27 34/62/27
f 34/62/28 51/63/28 13/61/28
f 1/64/29 51/63/29 23/44/29
f 12/40/30 24/43/30 33/19/30
f 10/31/31 22/41/31 32/16/31
f 18/65/32 45/66/32 31/67/32
f 31/67/33 52/68/33 18/65/33
f 8/69/34 52/68/34 20/37/34
f 22/70/35 44/71/35 30/72/35
f 30/72/36 53/73/36 22/70/36
f 12/74/37 53/73/37 24/36/37
f 14/75/38 43/15/38 29/76/38
f 29/76/39 54/77/39 14/75/39
f 4/78/40 54/77/40 16/33/40
f 8/29/41 20/32/41 28/10/41
f 6/27/42 18/30/42 27/7/42
f 4/25/43 16/28/43 26/4/43
f 2/79/44 14/26/44 25/1/44
f 34/62/45 55/80/45 40/45/45
f 34/62/46 56/81/46 55/80/46
f 35/58/47 47/57/47 57/82/47
f 33/19/48 11/17/48 12/40/48
f 32/16/49 9/11/49 10/31/49
f 29/76/50 58/83/50 37/34/50
f 29/76/51 59/84/51 58/83/51
f 30/72/52 44/71/52 60/85/52
f 28/10/53 7/8/53 8/29/53
f 27/7/54 5/5/54 6/27/54
f 26/4/55 3/2/55 4/25/55
f 25/1/56 1/86/56 2/79/56
f 4/25/57 3/2/57 25/1/57
f 6/27/58 5/5/58 26/4/58
f 8/29/59 7/8/59 27/7/59
f 10/31/60 9/11/60 28/10/60
f 12/40/61 11/17/61 32/16/61
f 2/42/62 1/20/62 33/19/62
f 33/19/63 23/21/63 11/17/63
f 32/16/64 21/18/64 9/11/64
f 28/10/65 19/12/65 7/8/65
f 27/7/66 17/9/66 5/5/66
f 26/4/67 15/6/67 3/2/67
f 25/1/68 13/3/68 1/86/68
f 60/85/69 39/38/69 31/67/69
f 60/85/70 44/71/70 39/38/70
f 44/71/71 10/39/71 39/38/71
f 58/83/72 60/85/72 31/67/72
f 58/83/73 59/84/73 60/85/73
f 59/84/74 30/72/74 60/85/74
f 37/34/75 45/66/75 6/35/75
f 37/34/76 58/83/76 45/66/76
f 58/83/77 31/67/77 45/66/77
f 57/82/78 42/49/78 36/53/78
f 57/82/79 47/57/79 42/49/79
f 47/57/80 7/50/80 42/49/80
f 55/80/81 57/82/81 36/53/81
f 55/80/82 56/81/82 57/82/82
f 56/81/83 35/58/83 57/82/83
f 40/45/84 48/52/84 11/46/84
f 40/45/85 55/80/85 48/52/85
f 55/80/86 36/53/86 48/52/86
f 46/24/87 56/81/87 34/62/87
f 46/24/88 41/23/88 56/81/88
f 41/23/89 35/58/89 56/81/89
f 43/15/90 59/84/90 29/76/90
f 43/15/91 38/14/91 59/84/91
f 38/14/92 30/72/92 59/84/92
f 16/33/93 29/76/93 37/34/93
f 24/36/94 30/72/94 38/14/94
f 20/37/95 31/67/95 39/38/95
f 23/44/96 34/62/96 40/45/96
f 15/47/97 35/58/97 41/23/97
f 19/48/98 36/53/98 42/49/98
f 21/51/99 11/46/99 48/52/99
f 36/53/100 19/48/100 49/54/100
f 9/55/101 21/51/101 49/54/101
f 17/56/102 7/50/102 47/57/102
f 35/58/103 15/47/103 50/59/103
f 5/60/104 17/56/104 50/59/104
f 13/61/105 3/22/105 46/24/105
f 34/62/106 23/44/106 51/63/106
f 1/64/107 13/61/107 51/63/107
f 18/65/108 6/35/108 45/66/108
f 31/67/109 20/37/109 52/68/109
f 8/69/110 18/65/110 52/68/110
f 22/70/111 10/39/111 44/71/111
f 30/72/112 24/36/112 53/73/112
f 12/74/113 22/70/113 53/73/113
f 14/75/114 2/13/114 43/15/114
f 29/76/115 16/33/115 54/77/115
f 4/78/116 14/75/116 54/77/116
