# Blender 4.3.0
# www.blender.org
o Cylinder
v 0.000000 -1.628644 -23.868082
v 0.000000 2.724285 -25.291349
v 22.044268 -2.849901 -12.727263
v 20.774643 1.721336 -11.994246
v 21.193130 -2.093327 12.235860
v 21.929379 2.747776 12.660933
v 0.000000 -1.897326 24.217117
v 0.000000 2.431347 24.910818
v -21.362627 -2.243991 12.333718
v -21.718843 2.560631 12.539381
v -22.312233 -3.088097 -12.881974
v -22.506252 3.260553 -12.993991
v 10.824419 -2.498203 -18.748444
v 10.793241 2.435847 -18.694441
v 22.392529 -3.241886 0.000000
v 22.264135 3.113493 0.000000
v 10.389359 -1.628094 17.994900
v 11.342839 3.535033 19.646374
v -10.826169 -2.501704 18.751476
v -10.880506 2.610376 18.845589
v -21.776663 -2.626026 0.000000
v -21.821676 2.671040 0.000000
v -11.094347 -3.038054 -19.215973
v -10.511449 1.872269 -18.206364
v 10.648260 0.000000 -18.443327
v 20.927145 0.000000 0.000000
v 10.988914 0.000000 19.033356
v -10.225082 0.000000 17.710361
v 10.825317 3.574099 -6.250000
v -10.825317 3.510458 -6.250000
v 0.000000 1.703049 12.500000
v -22.856646 0.000000 0.000000
v -10.810892 0.000000 -18.725016
v 0.000000 -3.069520 -12.500000
v 10.825317 -3.851045 6.250000
v -10.825317 -1.999226 6.250000
v 16.237976 2.369440 3.125000
v -5.412659 2.855115 -15.625000
v -10.825317 1.700745 12.500000
v -10.825317 -1.206220 -12.500000
v 16.237976 -2.873046 -3.125000
v -5.412659 -3.092999 15.625000
v 5.412659 1.813262 -15.625000
v -16.237976 3.646705 3.125000
v 10.825317 3.107928 12.500000
v 10.825317 -3.645394 -12.500000
v 5.412659 -2.750810 15.625000
v -16.237976 -1.883066 -3.125000
v -16.237976 -2.041142 9.375000
v 16.237976 -2.215247 9.375000
v 0.000000 -2.484711 -18.750000
v 0.000000 2.777445 18.750000
v -16.237976 1.444798 -9.375000
v 16.237976 2.637960 -9.375000
v -5.412659 -2.399456 -3.125000
v 5.412659 -3.455693 -3.125000
v 0.000000 -3.202527 6.250000
v 5.412659 3.451537 3.125000
v 0.000000 3.755498 -6.250000
v -5.412659 1.555574 3.125000
vn 0.4716 0.1396 -0.8707
vn 0.9101 0.4114 0.0506
vn 0.4250 -0.5928 0.6840
vn -0.4611 0.4331 0.7745
vn 0.0957 0.9946 0.0401
vn -0.9236 -0.3798 0.0520
vn -0.3998 0.1825 -0.8982
vn 0.0715 -0.9966 0.0408
vn 0.5476 -0.1180 -0.8284
vn 0.9188 -0.3945 0.0129
vn 0.4285 -0.1959 0.8821
vn -0.4479 -0.4488 0.7733
vn -0.1093 0.9937 0.0258
vn -0.1427 0.9854 -0.0933
vn 0.0774 0.9870 -0.1408
vn -0.9305 0.3605 0.0654
vn -0.5493 0.3035 -0.7785
vn 0.1481 -0.9556 0.2547
vn -0.0449 -0.9986 -0.0295
vn -0.0209 -0.9884 0.1507
vn 0.0953 -0.9932 -0.0673
vn 0.0326 -0.9985 0.0430
vn 0.0084 -0.9985 -0.0539
vn 0.1296 -0.9734 0.1890
vn 0.1823 -0.9648 0.1894
vn -0.0279 -0.9955 0.0907
vn -0.0523 -0.9822 -0.1803
vn -0.0012 -0.9957 -0.0932
vn 0.0560 -0.9847 -0.1647
vn -0.3504 0.3017 -0.8867
vn -0.9324 0.3613 0.0108
vn -0.1285 0.9904 -0.0499
vn -0.0524 0.9842 -0.1692
vn -0.0148 0.9983 0.0561
vn -0.1245 0.9885 -0.0862
vn -0.2150 0.9437 -0.2515
vn 0.1845 0.9686 0.1665
vn -0.1647 0.9823 -0.0894
vn 0.1186 0.9888 -0.0907
vn 0.1240 0.9838 -0.1296
vn -0.4407 -0.4488 0.7774
vn 0.5299 -0.1961 0.8251
vn 0.9167 -0.3937 -0.0682
vn 0.5156 -0.1182 -0.8487
vn -0.1696 -0.9851 -0.0275
vn -0.0971 -0.9952 0.0151
vn -0.0596 -0.9948 0.0823
vn -0.4464 -0.0294 -0.8943
vn -0.9913 -0.0780 0.1059
vn 0.0992 0.9926 0.0703
vn 0.0168 0.9996 0.0227
vn 0.1888 0.9774 0.0948
vn -0.5495 -0.1322 0.8250
vn 0.5258 -0.1534 0.8366
vn 0.9643 0.2637 0.0256
vn 0.4695 -0.2744 -0.8392
vn 0.4847 0.2681 -0.8326
vn 0.9882 -0.1462 -0.0465
vn 0.4423 -0.1419 0.8856
vn -0.4222 -0.0700 0.9038
vn -0.9989 -0.0311 -0.0348
vn -0.4465 -0.2781 -0.8505
vn -0.4840 0.1834 -0.8557
vn -0.9240 -0.3800 0.0428
vn -0.4254 0.4329 0.7947
vn 0.3590 -0.5923 0.7213
vn 0.9112 0.4119 -0.0122
vn 0.4325 0.1393 -0.8908
vn -0.0002 0.9999 -0.0156
vn 0.1888 0.9775 0.0939
vn 0.0783 0.9842 0.1591
vn -0.1719 0.9815 0.0838
vn -0.1710 0.9766 0.1304
vn -0.0221 0.9761 0.2163
vn 0.0332 0.9977 -0.0594
vn 0.0994 0.9948 -0.0210
vn -0.1279 0.9857 0.1100
vn -0.1103 -0.9925 -0.0521
vn 0.0316 -0.9991 0.0299
vn 0.0314 -0.9925 0.1183
vn -0.1105 -0.9937 -0.0213
vn -0.0971 -0.9948 -0.0292
vn -0.0598 -0.9982 -0.0076
vn 0.1609 -0.9867 0.0217
vn -0.0474 -0.9939 -0.0991
vn -0.0476 -0.9987 0.0151
vn -0.0531 -0.9985 -0.0105
vn 0.0537 -0.9972 0.0512
vn 0.0536 -0.9959 -0.0729
vn 0.0164 0.9809 -0.1937
vn 0.0947 0.9843 -0.1492
vn -0.0226 0.9963 -0.0827
vn -0.0432 0.9875 0.1518
vn -0.1197 0.9832 -0.1379
vn -0.0002 0.9899 -0.1419
vn -0.1635 -0.9501 0.2657
vn -0.0054 -0.9943 -0.1068
vn -0.1312 -0.9906 -0.0398
vn 0.1491 -0.9884 0.0293
vn -0.0154 -0.9991 -0.0402
vn 0.0563 -0.9980 0.0290
vn 0.1336 -0.9744 0.1810
vn 0.1668 -0.9623 0.2149
vn -0.0106 -0.9981 0.0608
vn 0.0659 -0.9814 -0.1802
vn 0.0535 -0.9942 -0.0930
vn -0.0012 -0.9863 -0.1650
vn 0.0333 0.9975 -0.0620
vn -0.0166 0.9854 -0.1694
vn -0.0709 0.9959 0.0559
vn -0.1776 0.9840 0.0101
vn -0.2829 0.9492 -0.1375
vn 0.2621 0.9646 0.0300
vn -0.0466 0.9917 0.1195
vn 0.1035 0.9878 -0.1166
vn 0.1396 0.9848 -0.1029
vt 0.916667 0.750000
vt 0.833333 0.500000
vt 0.916667 0.500000
vt 0.750000 0.750000
vt 0.666667 0.500000
vt 0.750000 0.500000
vt 0.583333 0.750000
vt 0.500000 0.500000
vt 0.583333 0.500000
vt 0.416667 0.750000
vt 0.333333 0.500000
vt 0.416667 0.500000
vt 0.250000 0.490000
vt 0.198038 0.400000
vt 0.301962 0.400000
vt 0.250000 0.750000
vt 0.166667 0.500000
vt 0.250000 0.500000
vt 0.083333 0.750000
vt -0.000000 0.500000
vt 0.083333 0.500000
vt 0.957846 0.370000
vt 0.905885 0.280000
vt 0.853923 0.370000
vt 0.833333 1.000000
vt 0.916667 1.000000
vt 0.666667 1.000000
vt 0.750000 1.000000
vt 0.500000 1.000000
vt 0.583333 1.000000
vt 0.333333 1.000000
vt 0.416667 1.000000
vt 0.457846 0.250000
vt 0.405885 0.220000
vt 0.457846 0.130000
vt 0.146077 0.430000
vt 0.146077 0.070000
vt 0.146077 0.130000
vt 0.042154 0.130000
vt 0.166667 1.000000
vt 0.250000 1.000000
vt -0.000000 1.000000
vt 0.083333 1.000000
vt 0.646077 0.430000
vt 0.646077 0.370000
vt 0.542154 0.370000
vt 0.957846 0.250000
vt 0.646077 0.070000
vt 0.698038 0.100000
vt 0.750000 0.010000
vt 0.542154 0.250000
vt 0.594115 0.280000
vt 0.646077 0.190000
vt 0.594115 0.160000
vt 0.542154 0.130000
vt 0.853923 0.070000
vt 0.801962 0.100000
vt 0.853923 0.190000
vt 0.905885 0.160000
vt 0.957846 0.130000
vt 0.853923 0.430000
vt 0.750000 0.370000
vt 0.750000 0.430000
vt 0.750000 0.490000
vt 0.353923 0.070000
vt 0.353923 0.130000
vt 0.250000 0.130000
vt 0.250000 0.070000
vt 0.250000 0.010000
vt 0.042154 0.250000
vt 0.094115 0.220000
vt 0.146077 0.310000
vt 0.094115 0.340000
vt 0.042154 0.370000
vt 0.353923 0.430000
vt 0.353923 0.310000
vt 0.405885 0.340000
vt 0.457846 0.370000
vt 1.000000 1.000000
vt 0.698038 0.280000
vt 0.801962 0.280000
vt 0.750000 0.190000
vt 0.301962 0.220000
vt 0.250000 0.310000
vt 0.198038 0.220000
vt 1.000000 0.500000
s 0
f 25/1/1 3/2/1 13/3/1
f 26/4/2 5/5/2 15/6/2
f 27/7/3 7/8/3 17/9/3
f 28/10/4 9/11/4 19/12/4
f 2/13/5 38/14/5 43/15/5
f 32/16/6 11/17/6 21/18/6
f 33/19/7 1/20/7 23/21/7
f 3/22/8 41/23/8 46/24/8
f 4/25/9 25/1/9 14/26/9
f 6/27/10 26/4/10 16/28/10
f 8/29/11 27/7/11 18/30/11
f 10/31/12 28/10/12 20/32/12
f 16/33/13 37/34/13 6/35/13
f 24/36/14 38/14/14 2/13/14
f 20/37/15 39/38/15 10/39/15
f 12/40/16 32/16/16 22/41/16
f 2/42/17 33/19/17 24/43/17
f 23/44/18 40/45/18 11/46/18
f 15/47/19 41/23/19 3/22/19
f 19/48/20 42/49/20 7/50/20
f 21/51/21 48/52/21 36/53/21
f 36/53/22 49/54/22 21/51/22
f 9/55/23 49/54/23 19/48/23
f 17/56/24 47/57/24 35/58/24
f 35/58/25 50/59/25 17/56/25
f 5/60/26 50/59/26 15/47/26
f 13/61/27 46/24/27 34/62/27
f 34/62/28 51/63/28 13/61/28
f 1/64/29 51/63/29 23/44/29
f 12/40/30 24/43/30 33/19/30
f 10/31/31 22/41/31 32/16/31
f 18/65/32 45/66/32 31/67/32
f 31/67/33 52/68/33 18/65/33
f 8/69/34 52/68/34 20/37/34
f 22/70/35 44/71/35 30/72/35
f 30/72/36 53/73/36 22/70/36
f 12/74/37 53/73/37 24/36/37
f 14/75/38 43/15/38 29/76/38
f 29/76/39 54/77/39 14/75/39
f 4/78/40 54/77/40 16/33/40
f 8/29/41 20/32/41 28/10/41
f 6/27/42 18/30/42 27/7/42
f 4/25/43 16/28/43 26/4/43
f 2/79/44 14/26/44 25/1/44
f 34/62/45 55/80/45 40/45/45
f 34/62/46 56/81/46 55/80/46
f 35/58/47 47/57/47 57/82/47
f 33/19/48 11/17/48 12/40/48
f 32/16/49 9/11/49 10/31/49
f 29/76/50 58/83/50 37/34/50
f 29/76/51 59/84/51 58/83/51
f 30/72/52 44/71/52 60/85/52
f 28/10/53 7/8/53 8/29/53
f 27/7/54 5/5/54 6/27/54
f 26/4/55 3/2/55 4/25/55
f 25/1/56 1/86/56 2/79/56
f 4/25/57 3/2/57 25/1/57
f 6/27/58 5/5/58 26/4/58
f 8/29/59 7/8/59 27/7/59
f 10/31/60 9/11/60 28/10/60
f 12/40/61 11/17/61 32/16/61
f 2/42/62 1/20/62 33/19/62
f 33/19/63 23/21/63 11/17/63
f 32/16/64 21/18/64 9/11/64
f 28/10/65 19/12/65 7/8/65
f 27/7/66 17/9/66 5/5/66
f 26/4/67 15/6/67 3/2/67
f 25/1/68 13/3/68 1/86/68
f 60/85/69 39/38/69 31/67/69
f 60/85/70 44/71/70 39/38/70
f 44/71/71 10/39/71 39/38/71
f 58/83/72 60/85/72 31/67/72
f 58/83/73 59/84/73 60/85/73
f 59/84/74 30/72/74 60/85/74
f 37/34/75 45/66/75 6/35/75
f 37/34/76 58/83/76 45/66/76
f 58/83/77 31/67/77 45/66/77
f 57/82/78 42/49/78 36/53/78
f 57/82/79 47/57/79 42/49/79
f 47/57/80 7/50/80 42/49/80
f 55/80/81 57/82/81 36/53/81
f 55/80/82 56/81/82 57/82/82
f 56/81/83 35/58/83 57/82/83
f 40/45/84 48/52/84 11/46/84
f 40/45/85 55/80/85 48/52/85
f 55/80/86 36/53/86 48/52/86
f 46/24/87 56/81/87 34/62/87
f 46/24/88 41/23/88 56/81/88
f 41/23/89 35/58/89 56/81/89
f 43/15/90 59/84/90 29/76/90
f 43/15/91 38/14/91 59/84/91
f 38/14/92 30/72/92 59/84/92
f 16/33/93 29/76/93 37/34/93
f 24/36/94 30/72/94 38/14/94
f 20/37/95 31/67/95 39/38/95
f 23/44/96 34/62/96 40/45/96
f 15/47/97 35/58/97 41/23/97
f 19/48/98 36/53/98 42/49/98
f 21/51/99 11/46/99 48/52/99
f 36/53/100 19/48/100 49/54/100
f 9/55/101 21/51/101 49/54/101
f 17/56/102 7/50/102 47/57/102
f 35/58/103 15/47/103 50/59/103
f 5/60/104 17/56/104 50/59/104
f 13/61/105 3/22/105 46/24/105
f 34/62/106 23/44/106 51/63/106
f 1/64/107 13/61/107 51/63/107
f 18/65/108 6/35/108 45/66/108
f 31/67/109 20/37/109 52/68/109
f 8/69/110 18/65/110 52/68/110
f 22/70/111 10/39/111 44/71/111
f 30/72/112 24/36/112 53/73/112
f 12/74/113 22/70/113 53/73/113
f 14/75/114 2/13/114 43/15/114
f 29/76/115 16/33/115 54/77/115
f 4/78/116 14/75/116 54/77/116
