# Blender 4.3.0
# www.blender.org
o Cylinder
v 0.000000 -3.094806 -25.772671
v 0.000000 3.019452 -25.674778
v 21.912983 -2.733202 -12.651466
v 20.735901 1.686899 -11.971878
v 20.897301 -1.830365 12.065063
v 21.014303 1.934363 12.132613
v 0.000000 -1.715325 23.980694
v 0.000000 3.102190 25.782263
v -20.772928 -1.719812 11.993257
v -20.868307 1.804586 12.048323
v -22.159426 -2.952266 -12.793751
v -20.837341 1.777067 -12.030444
v 10.959216 -2.767794 -18.981918
v 10.821136 2.491637 -18.742758
v 22.212227 -3.061586 0.000000
v 22.415638 3.264996 0.000000
v 10.787607 -2.424581 18.684685
v 10.427079 1.703532 18.060230
v -10.758808 -2.366983 18.634804
v -10.931477 2.712315 18.933872
v -21.710304 -2.559668 0.000000
v -20.685747 1.535123 0.000000
v -11.096682 -3.042723 -19.220016
v -11.292864 3.435083 -19.559814
v 11.519368 0.000000 -19.952131
v 22.607088 0.000000 0.000000
v 10.791242 0.000000 18.690979
v -11.328622 0.000000 19.621750
v 10.825317 1.604507 -6.250000
v -10.825317 2.677508 -6.250000
v 0.000000 1.171020 12.500000
v -20.153763 0.000000 0.000000
v -10.271845 0.000000 -17.791359
v 0.000000 -3.105312 -12.500000
v 10.825317 -1.301679 6.250000
v -10.825317 -1.370954 6.250000
v 16.237976 2.262590 3.125000
v -5.412659 3.561394 -15.625000
v -10.825317 1.610869 12.500000
v -10.825317 -3.345079 -12.500000
v 16.237976 -1.732495 -3.125000
v -5.412659 -1.233382 15.625000
v 5.412659 3.966342 -15.625000
v -16.237976 1.986599 3.125000
v 10.825317 3.533361 12.500000
v 10.825317 -1.453316 -12.500000
v 5.412659 -3.105850 15.625000
v -16.237976 -1.053724 -3.125000
v -16.237976 -1.201749 9.375000
v 16.237976 -1.679275 9.375000
v 0.000000 -2.655144 -18.750000
v 0.000000 2.382385 18.750000
v -16.237976 3.870718 -9.375000
v 16.237976 3.462999 -9.375000
v -5.412659 -3.192606 -3.125000
v 5.412659 -3.464034 -3.125000
v 0.000000 -3.922718 6.250000
v 5.412659 2.943764 3.125000
v 0.000000 1.662436 -6.250000
v -5.412659 3.088292 3.125000
vn 0.4647 -0.3752 -0.8020
vn 0.9846 -0.1270 0.1203
vn 0.4405 -0.0030 0.8977
vn -0.5176 -0.4324 0.7383
vn -0.0373 0.9966 -0.0738
vn -0.8543 0.5195 0.0140
vn -0.4453 0.4766 -0.7580
vn -0.1141 -0.9928 0.0363
vn 0.5193 0.4865 -0.7026
vn 0.9910 0.0581 0.1208
vn 0.5814 0.3889 0.7146
vn -0.5640 0.2796 0.7770
vn -0.1122 0.9891 0.0955
vn 0.0107 0.9988 -0.0481
vn 0.0266 0.9854 -0.1683
vn -0.9449 -0.3274 0.0053
vn -0.4238 -0.5110 -0.7479
vn -0.0335 -0.9985 -0.0436
vn -0.2069 -0.9781 -0.0205
vn 0.1292 -0.9816 -0.1403
vn 0.1871 -0.9722 -0.1409
vn 0.0388 -0.9919 0.1210
vn 0.0307 -0.9893 -0.1426
vn 0.1744 -0.9807 -0.0880
vn -0.0175 -0.9958 -0.0900
vn -0.0853 -0.9921 0.0920
vn 0.1478 -0.9687 0.1995
vn -0.0118 -0.9973 -0.0718
vn 0.0322 -0.9975 0.0625
vn -0.4763 -0.5102 -0.7161
vn -0.9448 -0.3274 -0.0070
vn -0.2039 0.9342 0.2928
vn 0.0513 0.9804 -0.1900
vn 0.0283 0.9944 -0.1018
vn -0.1084 0.9940 0.0107
vn 0.0579 0.9619 0.2671
vn -0.3128 0.9303 -0.1917
vn 0.2985 0.9520 0.0675
vn -0.2887 0.9550 0.0679
vn 0.2790 0.9462 -0.1639
vn -0.5167 0.2808 0.8088
vn 0.4427 0.3930 0.8060
vn 0.9876 0.0579 -0.1462
vn 0.4876 0.4880 -0.7240
vn 0.0221 -0.9997 0.0035
vn -0.0251 -0.9994 -0.0238
vn 0.2350 -0.9706 -0.0511
vn -0.4283 0.2594 -0.8656
vn -0.9981 -0.0261 -0.0553
vn 0.0624 0.9924 -0.1057
vn 0.0053 0.9904 -0.1384
vn -0.1012 0.9948 0.0149
vn -0.3821 -0.3237 0.8656
vn 0.5440 -0.0320 0.8385
vn 0.9560 0.2717 -0.1111
vn 0.4479 0.0143 -0.8940
vn 0.6000 0.2753 -0.7511
vn 0.9902 -0.0332 0.1353
vn 0.4577 -0.3114 0.8328
vn -0.6249 -0.0291 0.7802
vn -0.9627 0.2542 0.0923
vn -0.6111 0.0127 -0.7914
vn -0.4387 0.4766 -0.7618
vn -0.8540 0.5193 0.0304
vn -0.3801 -0.4324 0.8176
vn 0.5479 -0.0030 0.8365
vn 0.9914 -0.1279 -0.0268
vn 0.4964 -0.3749 -0.7830
vn 0.0399 0.9832 0.1780
vn -0.1008 0.9901 0.0979
vn 0.0179 0.9994 0.0297
vn 0.0131 0.9811 0.1931
vn 0.0132 0.9897 -0.1429
vn 0.0929 0.9909 -0.0971
vn 0.1533 0.9871 -0.0453
vn 0.0625 0.9932 -0.0985
vn -0.2128 0.9752 0.0615
vn -0.2270 -0.9630 0.1452
vn -0.1676 -0.9691 0.1812
vn -0.1702 -0.9840 0.0535
vn -0.2291 -0.9718 0.0566
vn -0.0250 -0.9977 -0.0633
vn 0.2344 -0.9681 0.0880
vn -0.0394 -0.9757 0.2157
vn -0.1923 -0.9731 0.1268
vn -0.1932 -0.9780 0.0785
vn 0.1497 -0.9809 -0.1240
vn 0.1568 -0.9803 -0.1197
vn 0.1565 -0.9784 0.1353
vn 0.0052 0.9704 0.2415
vn -0.0365 0.9751 0.2186
vn 0.0924 0.9849 0.1462
vn -0.1513 0.9883 0.0180
vn -0.0608 0.9964 0.0588
vn 0.0400 0.9850 -0.1680
vn 0.0221 -0.9987 -0.0458
vn -0.1857 -0.9806 -0.0621
vn 0.1635 -0.9833 -0.0800
vn 0.2758 -0.9610 0.0198
vn -0.0770 -0.9939 -0.0795
vn 0.1462 -0.9876 0.0577
vn 0.0230 -0.9837 0.1786
vn -0.1122 -0.9909 0.0746
vn 0.0103 -0.9972 -0.0738
vn -0.1098 -0.9746 0.1954
vn 0.0379 -0.9967 -0.0718
vn -0.0089 -0.9980 0.0625
vn 0.1582 0.9345 0.3189
vn 0.0264 0.9814 -0.1902
vn 0.0579 0.9931 -0.1017
vn -0.0846 0.9961 -0.0236
vn 0.1878 0.9810 0.0492
vn -0.4254 0.9047 0.0236
vn 0.1617 0.9706 -0.1785
vn -0.2298 0.9580 0.1717
vn 0.2368 0.9428 -0.2347
vt 0.916667 0.750000
vt 0.833333 0.500000
vt 0.916667 0.500000
vt 0.750000 0.750000
vt 0.666667 0.500000
vt 0.750000 0.500000
vt 0.583333 0.750000
vt 0.500000 0.500000
vt 0.583333 0.500000
vt 0.416667 0.750000
vt 0.333333 0.500000
vt 0.416667 0.500000
vt 0.250000 0.490000
vt 0.198038 0.400000
vt 0.301962 0.400000
vt 0.250000 0.750000
vt 0.166667 0.500000
vt 0.250000 0.500000
vt 0.083333 0.750000
vt -0.000000 0.500000
vt 0.083333 0.500000
vt 0.957846 0.370000
vt 0.905885 0.280000
vt 0.853923 0.370000
vt 0.833333 1.000000
vt 0.916667 1.000000
vt 0.666667 1.000000
vt 0.750000 1.000000
vt 0.500000 1.000000
vt 0.583333 1.000000
vt 0.333333 1.000000
vt 0.416667 1.000000
vt 0.457846 0.250000
vt 0.405885 0.220000
vt 0.457846 0.130000
vt 0.146077 0.430000
vt 0.146077 0.070000
vt 0.146077 0.130000
vt 0.042154 0.130000
vt 0.166667 1.000000
vt 0.250000 1.000000
vt -0.000000 1.000000
vt 0.083333 1.000000
vt 0.646077 0.430000
vt 0.646077 0.370000
vt 0.542154 0.370000
vt 0.957846 0.250000
vt 0.646077 0.070000
vt 0.698038 0.100000
vt 0.750000 0.010000
vt 0.542154 0.250000
vt 0.594115 0.280000
vt 0.646077 0.190000
vt 0.594115 0.160000
vt 0.542154 0.130000
vt 0.853923 0.070000
vt 0.801962 0.100000
vt 0.853923 0.190000
vt 0.905885 0.160000
vt 0.957846 0.130000
vt 0.853923 0.430000
vt 0.750000 0.370000
vt 0.750000 0.430000
vt 0.750000 0.490000
vt 0.353923 0.070000
vt 0.353923 0.130000
vt 0.250000 0.130000
vt 0.250000 0.070000
vt 0.250000 0.010000
vt 0.042154 0.250000
vt 0.094115 0.220000
vt 0.146077 0.310000
vt 0.094115 0.340000
vt 0.042154 0.370000
vt 0.353923 0.430000
vt 0.353923 0.310000
vt 0.405885 0.340000
vt 0.457846 0.370000
vt 1.000000 1.000000
vt 0.698038 0.280000
vt 0.801962 0.280000
vt 0.750000 0.190000
vt 0.301962 0.220000
vt 0.250000 0.310000
vt 0.198038 0.220000
vt 1.000000 0.500000
s 0
f 25/1/1 3/2/1 13/3/1
f 26/4/2 5/5/2 15/6/2
f 27/7/3 7/8/3 17/9/3
f 28/10/4 9/11/4 19/12/4
f 2/13/5 38/14/5 43/15/5
f 32/16/6 11/17/6 21/18/6
f 33/19/7 1/20/7 23/21/7
f 3/22/8 41/23/8 46/24/8
f 4/25/9 25/1/9 14/26/9
f 6/27/10 26/4/10 16/28/10
f 8/29/11 27/7/11 18/30/11
f 10/31/12 28/10/12 20/32/12
f 16/33/13 37/34/13 6/35/13
f 24/36/14 38/14/14 2/13/14
f 20/37/15 39/38/15 10/39/15
f 12/40/16 32/16/16 22/41/16
f 2/42/17 33/19/17 24/43/17
f 23/44/18 40/45/18 11/46/18
f 15/47/19 41/23/19 3/22/19
f 19/48/20 42/49/20 7/50/20
f 21/51/21 48/52/21 36/53/21
f 36/53/22 49/54/22 21/51/22
f 9/55/23 49/54/23 19/48/23
f 17/56/24 47/57/24 35/58/24
f 35/58/25 50/59/25 17/56/25
f 5/60/26 50/59/26 15/47/26
f 13/61/27 46/24/27 34/62/27
f 34/62/28 51/63/28 13/61/28
f 1/64/29 51/63/29 23/44/29
f 12/40/30 24/43/30 33/19/30
f 10/31/31 22/41/31 32/16/31
f 18/65/32 45/66/32 31/67/32
f 31/67/33 52/68/33 18/65/33
f 8/69/34 52/68/34 20/37/34
f 22/70/35 44/71/35 30/72/35
f 30/72/36 53/73/36 22/70/36
f 12/74/37 53/73/37 24/36/37
f 14/75/38 43/15/38 29/76/38
f 29/76/39 54/77/39 14/75/39
f 4/78/40 54/77/40 16/33/40
f 8/29/41 20/32/41 28/10/41
f 6/27/42 18/30/42 27/7/42
f 4/25/43 16/28/43 26/4/43
f 2/79/44 14/26/44 25/1/44
f 34/62/45 55/80/45 40/45/45
f 34/62/46 56/81/46 55/80/46
f 35/58/47 47/57/47 57/82/47
f 33/19/48 11/17/48 12/40/48
f 32/16/49 9/11/49 10/31/49
f 29/76/50 58/83/50 37/34/50
f 29/76/51 59/84/51 58/83/51
f 30/72/52 44/71/52 60/85/52
f 28/10/53 7/8/53 8/29/53
f 27/7/54 5/5/54 6/27/54
f 26/4/55 3/2/55 4/25/55
f 25/1/56 1/86/56 2/79/56
f 4/25/57 3/2/57 25/1/57
f 6/27/58 5/5/58 26/4/58
f 8/29/59 7/8/59 27/7/59
f 10/31/60 9/11/60 28/10/60
f 12/40/61 11/17/61 32/16/61
f 2/42/62 1/20/62 33/19/62
f 33/19/63 23/21/63 11/17/63
f 32/16/64 21/18/64 9/11/64
f 28/10/65 19/12/65 7/8/65
f 27/7/66 17/9/66 5/5/66
f 26/4/67 15/6/67 3/2/67
f 25/1/68 13/3/68 1/86/68
f 60/85/69 39/38/69 31/67/69
f 60/85/70 44/71/70 39/38/70
f 44/71/71 10/39/71 39/38/71
f 58/83/72 60/85/72 31/67/72
f 58/83/73 59/84/73 60/85/73
f 59/84/74 30/72/74 60/85/74
f 37/34/75 45/66/75 6/35/75
f 37/34/76 58/83/76 45/66/76
f 58/83/77 31/67/77 45/66/77
f 57/82/78 42/49/78 36/53/78
f 57/82/79 47/57/79 42/49/79
f 47/57/80 7/50/80 42/49/80
f 55/80/81 57/82/81 36/53/81
f 55/80/82 56/81/82 57/82/82
f 56/81/83 35/58/83 57/82/83
f 40/45/84 48/52/84 11/46/84
f 40/45/85 55/80/85 48/52/85
f 55/80/86 36/53/86 48/52/86
f 46/24/87 56/81/87 34/62/87
f 46/24/88 41/23/88 56/81/88
f 41/23/89 35/58/89 56/81/89
f 43/15/90 59/84/90 29/76/90
f 43/15/91 38/14/91 59/84/91
f 38/14/92 30/72/92 59/84/92
f 16/33/93 29/76/93 37/34/93
f 24/36/94 30/72/94 38/14/94
f 20/37/95 31/67/95 39/38/95
f 23/44/96 34/62/96 40/45/96
f 15/47/97 35/58/97 41/23/97
f 19/48/98 36/53/98 42/49/98
f 21/51/99 11/46/99 48/52/99
f 36/53/100 19/48/100 49/54/100
f 9/55/101 21/51/101 49/54/101
f 17/56/102 7/50/102 47/57/102
f 35/58/103 15/47/103 50/59/103
f 5/60/104 17/56/104 50/59/104
f 13/61/105 3/22/105 46/24/105
f 34/62/106 23/44/106 51/63/106
f 1/64/107 13/61/107 51/63/107
f 18/65/108 6/35/108 45/66/108
f 31/67/109 20/37/109 52/68/109
f 8/69/110 18/65/110 52/68/110
f 22/70/111 10/39/111 44/71/111
f 30/72/112 24/36/112 53/73/112
f 12/74/113 22/70/113 53/73/113
f 14/75/114 2/13/114 43/15/114
f 29/76/115 16/33/115 54/77/115
f 4/78/116 14/75/116 54/77/116
