# Blender 4.3.0
# www.blender.org
o Cylinder
v 0.000000 -2.476885 -24.969973
v 0.000000 2.537375 -25.048550
v 20.628302 -1.591245 -11.909756
v 22.186548 2.976371 -12.809410
v 20.999262 -1.920998 12.123930
v 21.027248 1.945869 12.140087
v 0.000000 -2.114413 24.499115
v 0.000000 2.004216 24.355961
v -21.312405 -2.199350 12.304723
v -21.366676 2.247589 12.336057
v -20.862988 -1.799859 -12.045252
v -21.424305 2.298817 -12.369328
v 11.034822 -2.919007 -19.112875
v 10.643501 2.136371 -18.435085
v 22.255581 -3.104940 0.000000
v 21.896769 2.746131 0.000000
v 10.307005 -1.463386 17.852257
v 10.802792 2.454949 18.710983
v -10.308837 -1.467051 17.855431
v -10.777332 2.404030 18.666887
v -20.979679 -1.829051 0.000000
v -21.991755 2.841116 0.000000
v -10.617506 -2.084381 -18.390060
v -10.763664 2.376694 -18.643213
v 11.106391 0.000000 -19.236834
v 23.087156 0.000000 0.000000
v 11.075694 0.000000 19.183664
v -11.169188 0.000000 19.345602
v 10.825317 2.432291 -6.250000
v -10.825317 2.481030 -6.250000
v 0.000000 3.674956 12.500000
v -21.181498 0.000000 0.000000
v -10.788003 0.000000 -18.685369
v 0.000000 -2.724946 -12.500000
v 10.825317 -3.720297 6.250000
v -10.825317 -1.856037 6.250000
v 16.237976 3.232702 3.125000
v -5.412659 2.018628 -15.625000
v -10.825317 3.882439 12.500000
v -10.825317 -1.816533 -12.500000
v 16.237976 -1.343407 -3.125000
v -5.412659 -2.653973 15.625000
v 5.412659 1.033198 -15.625000
v -16.237976 3.512409 3.125000
v 10.825317 2.899575 12.500000
v 10.825317 -3.659633 -12.500000
v 5.412659 -2.968366 15.625000
v -16.237976 -1.345128 -3.125000
v -16.237976 -1.298837 9.375000
v 16.237976 -1.162018 9.375000
v 0.000000 -1.603699 -18.750000
v 0.000000 3.880855 18.750000
v -16.237976 1.217516 -9.375000
v 16.237976 1.014939 -9.375000
v -5.412659 -2.969449 -3.125000
v 5.412659 -2.125007 -3.125000
v 0.000000 -2.491597 6.250000
v 5.412659 3.668617 3.125000
v 0.000000 2.282330 -6.250000
v -5.412659 2.721443 3.125000
vn 0.6040 -0.0486 -0.7955
vn 0.9585 -0.2567 0.1244
vn 0.4064 -0.7224 0.5594
vn -0.2526 -0.7584 0.6008
vn 0.0901 0.9902 0.1063
vn -0.9939 -0.1097 -0.0099
vn -0.5242 -0.1613 -0.8362
vn 0.1975 -0.9721 0.1261
vn 0.3788 0.3960 -0.8365
vn 0.9137 0.3960 0.0915
vn 0.4450 0.2168 0.8689
vn -0.4912 0.3099 0.8140
vn 0.1261 0.9892 0.0742
vn 0.0270 0.9972 0.0704
vn -0.1526 0.9608 0.2315
vn -0.9612 -0.2741 -0.0321
vn -0.5115 0.0205 -0.8590
vn 0.0004 -0.9990 0.0454
vn -0.2361 -0.9675 -0.0907
vn -0.1636 -0.9736 0.1590
vn 0.0477 -0.9955 -0.0818
vn -0.0541 -0.9950 0.0837
vn 0.1168 -0.9880 -0.1013
vn 0.2058 -0.9588 0.1957
vn 0.3251 -0.9255 0.1945
vn -0.1990 -0.9771 0.0748
vn -0.0855 -0.9898 -0.1136
vn -0.1222 -0.9769 -0.1753
vn 0.0495 -0.9891 0.1389
vn -0.5072 0.0205 -0.8616
vn -0.9611 -0.2741 0.0355
vn 0.0713 0.9949 0.0715
vn 0.1307 0.9909 -0.0326
vn -0.1312 0.9401 0.3147
vn -0.0429 0.9901 -0.1337
vn -0.0955 0.9693 -0.2265
vn 0.0994 0.9784 0.1811
vn -0.2168 0.9760 -0.0205
vn 0.2385 0.9708 -0.0271
vn -0.3078 0.9514 0.0101
vn -0.4349 0.3096 0.8456
vn 0.5354 0.2167 0.8163
vn 0.9172 0.3976 0.0279
vn 0.4951 0.3973 -0.7727
vn -0.0834 -0.9938 -0.0741
vn 0.0778 -0.9968 0.0189
vn -0.1128 -0.9935 0.0146
vn -0.5276 -0.1385 -0.8381
vn -0.9998 -0.0121 -0.0128
vn 0.0400 0.9934 -0.1079
vn -0.0137 0.9903 -0.1385
vn 0.0727 0.9951 -0.0675
vn -0.4138 0.0316 0.9098
vn 0.5787 -0.0076 0.8155
vn 0.9273 -0.3450 -0.1454
vn 0.4611 -0.0139 -0.8872
vn 0.5385 -0.3359 -0.7728
vn 0.9857 -0.0078 0.1685
vn 0.4276 0.0314 0.9034
vn -0.5683 -0.0127 0.8227
vn -0.9907 -0.1361 -0.0059
vn -0.5056 -0.0135 -0.8626
vn -0.5228 -0.1614 -0.8370
vn -0.9935 -0.1096 -0.0302
vn -0.3857 -0.7590 0.5245
vn 0.3017 -0.7234 0.6210
vn 0.9531 -0.2553 -0.1627
vn 0.4667 -0.0489 -0.8830
vn 0.0190 0.9935 -0.1120
vn 0.0726 0.9941 -0.0812
vn -0.1538 0.9868 0.0499
vn -0.0870 0.9949 -0.0509
vn -0.0868 0.9915 -0.0965
vn 0.0183 0.9992 -0.0362
vn 0.0959 0.9913 0.0906
vn 0.0402 0.9975 0.0586
vn 0.0714 0.9966 0.0405
vn -0.0585 -0.9970 -0.0511
vn -0.0290 -0.9990 -0.0341
vn -0.0289 -0.9965 0.0782
vn -0.0584 -0.9947 0.0844
vn 0.0778 -0.9970 0.0059
vn -0.1122 -0.9883 -0.1034
vn 0.0006 -0.9987 0.0506
vn -0.1483 -0.9883 -0.0359
vn -0.1483 -0.9884 0.0318
vn -0.0855 -0.9899 0.1127
vn 0.0705 -0.9771 0.2007
vn 0.0705 -0.9759 -0.2067
vn -0.0137 0.9901 -0.1398
vn 0.0904 0.9927 -0.0801
vn 0.0183 0.9991 -0.0387
vn 0.0293 0.9944 -0.1018
vn 0.0713 0.9974 -0.0080
vn 0.0186 0.9723 0.2330
vn -0.0835 -0.9956 0.0423
vn -0.1170 -0.9445 -0.3070
vn -0.2171 -0.9752 0.0423
vn 0.1006 -0.9949 -0.0014
vn -0.0812 -0.9960 0.0370
vn 0.1605 -0.9867 -0.0254
vn 0.1975 -0.9570 0.2126
vn 0.2346 -0.9109 0.3394
vn -0.0979 -0.9898 -0.1037
vn 0.2113 -0.9721 -0.1022
vn 0.0385 -0.9836 -0.1764
vn -0.1127 -0.9840 0.1381
vn 0.0953 0.9929 0.0714
vn -0.1354 0.9902 -0.0326
vn 0.1253 0.9408 0.3149
vn -0.1451 0.9879 0.0549
vn -0.2222 0.9750 -0.0093
vn 0.2220 0.9745 -0.0325
vn -0.0931 0.9735 0.2089
vn 0.1109 0.9632 -0.2448
vn -0.1820 0.9559 0.2307
vt 0.916667 0.750000
vt 0.833333 0.500000
vt 0.916667 0.500000
vt 0.750000 0.750000
vt 0.666667 0.500000
vt 0.750000 0.500000
vt 0.583333 0.750000
vt 0.500000 0.500000
vt 0.583333 0.500000
vt 0.416667 0.750000
vt 0.333333 0.500000
vt 0.416667 0.500000
vt 0.250000 0.490000
vt 0.198038 0.400000
vt 0.301962 0.400000
vt 0.250000 0.750000
vt 0.166667 0.500000
vt 0.250000 0.500000
vt 0.083333 0.750000
vt -0.000000 0.500000
vt 0.083333 0.500000
vt 0.957846 0.370000
vt 0.905885 0.280000
vt 0.853923 0.370000
vt 0.833333 1.000000
vt 0.916667 1.000000
vt 0.666667 1.000000
vt 0.750000 1.000000
vt 0.500000 1.000000
vt 0.583333 1.000000
vt 0.333333 1.000000
vt 0.416667 1.000000
vt 0.457846 0.250000
vt 0.405885 0.220000
vt 0.457846 0.130000
vt 0.146077 0.430000
vt 0.146077 0.070000
vt 0.146077 0.130000
vt 0.042154 0.130000
vt 0.166667 1.000000
vt 0.250000 1.000000
vt -0.000000 1.000000
vt 0.083333 1.000000
vt 0.646077 0.430000
vt 0.646077 0.370000
vt 0.542154 0.370000
vt 0.957846 0.250000
vt 0.646077 0.070000
vt 0.698038 0.100000
vt 0.750000 0.010000
vt 0.542154 0.250000
vt 0.594115 0.280000
vt 0.646077 0.190000
vt 0.594115 0.160000
vt 0.542154 0.130000
vt 0.853923 0.070000
vt 0.801962 0.100000
vt 0.853923 0.190000
vt 0.905885 0.160000
vt 0.957846 0.130000
vt 0.853923 0.430000
vt 0.750000 0.370000
vt 0.750000 0.430000
vt 0.750000 0.490000
vt 0.353923 0.070000
vt 0.353923 0.130000
vt 0.250000 0.130000
vt 0.250000 0.070000
vt 0.250000 0.010000
vt 0.042154 0.250000
vt 0.094115 0.220000
vt 0.146077 0.310000
vt 0.094115 0.340000
vt 0.042154 0.370000
vt 0.353923 0.430000
vt 0.353923 0.310000
vt 0.405885 0.340000
vt 0.457846 0.370000
vt 1.000000 1.000000
vt 0.698038 0.280000
vt 0.801962 0.280000
vt 0.750000 0.190000
vt 0.301962 0.220000
vt 0.250000 0.310000
vt 0.198038 0.220000
vt 1.000000 0.500000
s 0
f 25/1/1 3/2/1 13/3/1
f 26/4/2 5/5/2 15/6/2
f 27/7/3 7/8/3 17/9/3
f 28/10/4 9/11/4 19/12/4
f 2/13/5 38/14/5 43/15/5
f 32/16/6 11/17/6 21/18/6
f 33/19/7 1/20/7 23/21/7
f 3/22/8 41/23/8 46/24/8
f 4/25/9 25/1/9 14/26/9
f 6/27/10 26/4/10 16/28/10
f 8/29/11 27/7/11 18/30/11
f 10/31/12 28/10/12 20/32/12
f 16/33/13 37/34/13 6/35/13
f 24/36/14 38/14/14 2/13/14
f 20/37/15 39/38/15 10/39/15
f 12/40/16 32/16/16 22/41/16
f 2/42/17 33/19/17 24/43/17
f 23/44/18 40/45/18 11/46/18
f 15/47/19 41/23/19 3/22/19
f 19/48/20 42/49/20 7/50/20
f 21/51/21 48/52/21 36/53/21
f 36/53/22 49/54/22 21/51/22
f 9/55/23 49/54/23 19/48/23
f 17/56/24 47/57/24 35/58/24
f 35/58/25 50/59/25 17/56/25
f 5/60/26 50/59/26 15/47/26
f 13/61/27 46/24/27 34/62/27
f 34/62/28 51/63/28 13/61/28
f 1/64/29 51/63/29 23/44/29
f 12/40/30 24/43/30 33/19/30
f 10/31/31 22/41/31 32/16/31
f 18/65/32 45/66/32 31/67/32
f 31/67/33 52/68/33 18/65/33
f 8/69/34 52/68/34 20/37/34
f 22/70/35 44/71/35 30/72/35
f 30/72/36 53/73/36 22/70/36
f 12/74/37 53/73/37 24/36/37
f 14/75/38 43/15/38 29/76/38
f 29/76/39 54/77/39 14/75/39
f 4/78/40 54/77/40 16/33/40
f 8/29/41 20/32/41 28/10/41
f 6/27/42 18/30/42 27/7/42
f 4/25/43 16/28/43 26/4/43
f 2/79/44 14/26/44 25/1/44
f 34/62/45 55/80/45 40/45/45
f 34/62/46 56/81/46 55/80/46
f 35/58/47 47/57/47 57/82/47
f 33/19/48 11/17/48 12/40/48
f 32/16/49 9/11/49 10/31/49
f 29/76/50 58/83/50 37/34/50
f 29/76/51 59/84/51 58/83/51
f 30/72/52 44/71/52 60/85/52
f 28/10/53 7/8/53 8/29/53
f 27/7/54 5/5/54 6/27/54
f 26/4/55 3/2/55 4/25/55
f 25/1/56 1/86/56 2/79/56
f 4/25/57 3/2/57 25/1/57
f 6/27/58 5/5/58 26/4/58
f 8/29/59 7/8/59 27/7/59
f 10/31/60 9/11/60 28/10/60
f 12/40/61 11/17/61 32/16/61
f 2/42/62 1/20/62 33/19/62
f 33/19/63 23/21/63 11/17/63
f 32/16/64 21/18/64 9/11/64
f 28/10/65 19/12/65 7/8/65
f 27/7/66 17/9/66 5/5/66
f 26/4/67 15/6/67 3/2/67
f 25/1/68 13/3/68 1/86/68
f 60/85/69 39/38/69 31/67/69
f 60/85/70 44/71/70 39/38/70
f 44/71/71 10/39/71 39/38/71
f 58/83/72 60/85/72 31/67/72
f 58/83/73 59/84/73 60/85/73
f 59/84/74 30/72/74 60/85/74
f 37/34/75 45/66/75 6/35/75
f 37/34/76 58/83/76 45/66/76
f 58/83/77 31/67/77 45/66/77
f 57/82/78 42/49/78 36/53/78
f 57/82/79 47/57/79 42/49/79
f 47/57/80 7/50/80 42/49/80
f 55/80/81 57/82/81 36/53/81
f 55/80/82 56/81/82 57/82/82
f 56/81/83 35/58/83 57/82/83
f 40/45/84 48/52/84 11/46/84
f 40/45/85 55/80/85 48/52/85
f 55/80/86 36/53/86 48/52/86
f 46/24/87 56/81/87 34/62/87
f 46/24/88 41/23/88 56/81/88
f 41/23/89 35/58/89 56/81/89
f 43/15/90 59/84/90 29/76/90
f 43/15/91 38/14/91 59/84/91
f 38/14/92 30/72/92 59/84/92
f 16/33/93 29/76/93 37/34/93
f 24/36/94 30/72/94 38/14/94
f 20/37/95 31/67/95 39/38/95
f 23/44/96 34/62/96 40/45/96
f 15/47/97 35/58/97 41/23/97
f 19/48/98 36/53/98 42/49/98
f 21/51/99 11/46/99 48/52/99
f 36/53/100 19/48/100 49/54/100
f 9/55/101 21/51/101 49/54/101
f 17/56/102 7/50/102 47/57/102
f 35/58/103 15/47/103 50/59/103
f 5/60/104 17/56/104 50/59/104
f 13/61/105 3/22/105 46/24/105
f 34/62/106 23/44/106 51/63/106
f 1/64/107 13/61/107 51/63/107
f 18/65/108 6/35/108 45/66/108
f 31/67/109 20/37/109 52/68/109
f 8/69/110 18/65/110 52/68/110
f 22/70/111 10/39/111 44/71/111
f 30/72/112 24/36/112 53/73/112
f 12/74/113 22/70/113 53/73/113
f 14/75/114 2/13/114 43/15/114
f 29/76/115 16/33/115 54/77/115
f 4/78/116 14/75/116 54/77/116
