# Blender 4.3.0
# www.blender.org
o Cylinder
v 0.000000 -2.519210 -25.024954
v 0.000000 2.450460 -24.935648
v 21.586428 -2.442927 -12.462931
v 21.617289 2.470359 -12.480748
v 21.655830 -2.504618 12.502999
v 21.623810 2.476156 12.484513
v 0.000000 -2.480074 24.974115
v 0.000000 2.444136 24.927431
v -21.618128 -2.471106 12.481233
v -21.601650 2.456457 12.471719
v -21.689230 -2.534307 -12.522283
v -21.600481 2.455418 -12.471044
v 10.859334 -2.568033 -18.808918
v 10.848183 2.545729 -18.789604
v 21.601955 -2.451321 0.000000
v 21.637873 2.487238 0.000000
v 10.840172 -2.529709 18.775728
v 10.795918 2.441201 18.699078
v -10.847741 -2.544847 18.788839
v -10.799815 2.448997 18.705830
v -21.608658 -2.458024 0.000000
v -21.640209 2.489575 0.000000
v -10.836235 -2.521836 -18.768911
v -10.838009 2.525383 -18.771982
v 10.861463 0.000000 -18.812607
v 21.619904 0.000000 0.000000
v 10.865127 0.000000 18.818953
v -10.873944 0.000000 18.834223
v 10.825317 2.430327 -6.250000
v -10.825317 2.458262 -6.250000
v 0.000000 2.581942 12.500000
v -21.750072 0.000000 0.000000
v -10.855629 0.000000 -18.802502
v 0.000000 -2.410229 -12.500000
v 10.825317 -2.535569 6.250000
v -10.825317 -2.526923 6.250000
v 16.237976 2.546538 3.125000
v -5.412659 2.551148 -15.625000
v -10.825317 2.480564 12.500000
v -10.825317 -2.429914 -12.500000
v 16.237976 -2.405255 -3.125000
v -5.412659 -2.554590 15.625000
v 5.412659 2.426656 -15.625000
v -16.237976 2.485936 3.125000
v 10.825317 2.541364 12.500000
v 10.825317 -2.572121 -12.500000
v 5.412659 -2.497583 15.625000
v -16.237976 -2.458517 -3.125000
v -16.237976 -2.435746 9.375000
v 16.237976 -2.587070 9.375000
v 0.000000 -2.457729 -18.750000
v 0.000000 2.502665 18.750000
v -16.237976 2.599800 -9.375000
v 16.237976 2.502266 -9.375000
v -5.412659 -2.591923 -3.125000
v 5.412659 -2.505247 -3.125000
v 0.000000 -2.522283 6.250000
v 5.412659 2.420129 3.125000
v 0.000000 2.436884 -6.250000
v -5.412659 2.555074 3.125000
vn 0.5092 -0.0017 -0.8607
vn 1.0000 -0.0073 -0.0043
vn 0.4962 -0.0197 0.8680
vn -0.5054 -0.0206 0.8627
vn 0.0115 0.9999 -0.0041
vn -0.9983 -0.0574 0.0068
vn -0.4999 -0.0154 -0.8659
vn 0.0120 -0.9999 0.0109
vn 0.5055 0.0104 -0.8628
vn 1.0000 -0.0072 0.0011
vn 0.4989 0.0566 0.8648
vn -0.4989 0.0604 0.8645
vn 0.0115 0.9999 0.0009
vn 0.0011 0.9999 -0.0102
vn -0.0023 1.0000 0.0051
vn -0.9990 0.0441 -0.0033
vn -0.4942 0.0140 -0.8692
vn 0.0096 -0.9998 0.0146
vn -0.0082 -1.0000 -0.0007
vn 0.0021 -1.0000 0.0067
vn -0.0032 -1.0000 -0.0054
vn -0.0116 -0.9999 0.0090
vn -0.0001 -0.9999 -0.0115
vn -0.0062 -1.0000 0.0005
vn -0.0098 -1.0000 0.0005
vn 0.0177 -0.9998 -0.0043
vn -0.0150 -0.9999 -0.0007
vn -0.0101 -0.9999 0.0076
vn 0.0059 -0.9999 0.0098
vn -0.5053 0.0140 -0.8629
vn -0.9990 0.0441 0.0032
vn 0.0037 0.9999 0.0162
vn 0.0058 0.9999 0.0127
vn -0.0050 0.9999 0.0095
vn 0.0018 1.0000 -0.0019
vn 0.0145 0.9997 0.0201
vn -0.0168 0.9997 -0.0176
vn -0.0166 0.9998 0.0092
vn -0.0080 0.9999 0.0092
vn 0.0051 1.0000 -0.0014
vn -0.4982 0.0604 0.8649
vn 0.4968 0.0566 0.8660
vn 1.0000 -0.0072 -0.0016
vn 0.4928 0.0104 -0.8701
vn 0.0018 -0.9998 -0.0183
vn 0.0080 -0.9999 -0.0148
vn -0.0012 -1.0000 0.0033
vn -0.5046 0.0178 -0.8632
vn -0.9999 0.0034 0.0112
vn -0.0117 0.9999 -0.0057
vn 0.0006 1.0000 0.0014
vn -0.0064 1.0000 -0.0066
vn -0.4902 0.0083 0.8716
vn 0.5063 0.0065 0.8624
vn 1.0000 -0.0063 -0.0015
vn 0.4937 0.0156 -0.8695
vn 0.5084 -0.0063 -0.8611
vn 1.0000 0.0064 -0.0016
vn 0.4915 0.0083 0.8709
vn -0.5095 0.0034 0.8604
vn -0.9998 0.0179 -0.0085
vn -0.4945 0.0156 -0.8690
vn -0.4988 -0.0154 -0.8666
vn -0.9983 -0.0574 -0.0008
vn -0.4951 -0.0206 0.8686
vn 0.5016 -0.0197 0.8649
vn 1.0000 -0.0073 -0.0013
vn 0.4968 -0.0017 -0.8679
vn -0.0094 1.0000 0.0025
vn -0.0064 1.0000 0.0043
vn -0.0022 1.0000 0.0019
vn 0.0125 0.9999 -0.0101
vn 0.0125 0.9999 -0.0054
vn 0.0020 0.9999 -0.0115
vn 0.0060 1.0000 0.0040
vn -0.0117 0.9999 -0.0062
vn 0.0037 0.9999 -0.0151
vn 0.0004 -1.0000 -0.0032
vn 0.0053 -1.0000 -0.0004
vn 0.0053 -1.0000 0.0049
vn 0.0004 -1.0000 0.0072
vn 0.0080 -1.0000 0.0028
vn -0.0012 -1.0000 -0.0025
vn 0.0096 -1.0000 0.0025
vn -0.0123 -0.9999 -0.0102
vn -0.0123 -0.9999 -0.0002
vn -0.0150 -0.9999 -0.0015
vn 0.0092 -0.9999 0.0125
vn 0.0092 -0.9999 -0.0086
vn 0.0006 1.0000 -0.0007
vn 0.0115 0.9999 0.0055
vn 0.0020 0.9999 0.0110
vn 0.0029 0.9999 -0.0140
vn -0.0079 1.0000 0.0054
vn -0.0094 0.9999 0.0051
vn 0.0018 -0.9999 0.0147
vn -0.0004 -0.9999 -0.0141
vn -0.0026 -1.0000 -0.0014
vn 0.0034 -1.0000 0.0061
vn -0.0177 -0.9998 -0.0015
vn 0.0060 -1.0000 -0.0010
vn -0.0052 -1.0000 -0.0012
vn -0.0009 -0.9999 -0.0150
vn 0.0088 -0.9999 0.0111
vn 0.0120 -0.9999 -0.0006
vn 0.0059 -1.0000 0.0076
vn -0.0101 -0.9999 0.0098
vn 0.0061 0.9999 0.0162
vn -0.0050 0.9999 0.0127
vn 0.0057 0.9999 0.0095
vn -0.0009 1.0000 0.0027
vn 0.0231 0.9997 0.0053
vn -0.0253 0.9997 -0.0028
vn -0.0153 0.9998 0.0114
vn -0.0093 0.9999 0.0069
vn 0.0065 1.0000 0.0009
vt 0.916667 0.750000
vt 0.833333 0.500000
vt 0.916667 0.500000
vt 0.750000 0.750000
vt 0.666667 0.500000
vt 0.750000 0.500000
vt 0.583333 0.750000
vt 0.500000 0.500000
vt 0.583333 0.500000
vt 0.416667 0.750000
vt 0.333333 0.500000
vt 0.416667 0.500000
vt 0.250000 0.490000
vt 0.198038 0.400000
vt 0.301962 0.400000
vt 0.250000 0.750000
vt 0.166667 0.500000
vt 0.250000 0.500000
vt 0.083333 0.750000
vt -0.000000 0.500000
vt 0.083333 0.500000
vt 0.957846 0.370000
vt 0.905885 0.280000
vt 0.853923 0.370000
vt 0.833333 1.000000
vt 0.916667 1.000000
vt 0.666667 1.000000
vt 0.750000 1.000000
vt 0.500000 1.000000
vt 0.583333 1.000000
vt 0.333333 1.000000
vt 0.416667 1.000000
vt 0.457846 0.250000
vt 0.405885 0.220000
vt 0.457846 0.130000
vt 0.146077 0.430000
vt 0.146077 0.070000
vt 0.146077 0.130000
vt 0.042154 0.130000
vt 0.166667 1.000000
vt 0.250000 1.000000
vt -0.000000 1.000000
vt 0.083333 1.000000
vt 0.646077 0.430000
vt 0.646077 0.370000
vt 0.542154 0.370000
vt 0.957846 0.250000
vt 0.646077 0.070000
vt 0.698038 0.100000
vt 0.750000 0.010000
vt 0.542154 0.250000
vt 0.594115 0.280000
vt 0.646077 0.190000
vt 0.594115 0.160000
vt 0.542154 0.130000
vt 0.853923 0.070000
vt 0.801962 0.100000
vt 0.853923 0.190000
vt 0.905885 0.160000
vt 0.957846 0.130000
vt 0.853923 0.430000
vt 0.750000 0.370000
vt 0.750000 0.430000
vt 0.750000 0.490000
vt 0.353923 0.070000
vt 0.353923 0.130000
vt 0.250000 0.130000
vt 0.250000 0.070000
vt 0.250000 0.010000
vt 0.042154 0.250000
vt 0.094115 0.220000
vt 0.146077 0.310000
vt 0.094115 0.340000
vt 0.042154 0.370000
vt 0.353923 0.430000
vt 0.353923 0.310000
vt 0.405885 0.340000
vt 0.457846 0.370000
vt 1.000000 1.000000
vt 0.698038 0.280000
vt 0.801962 0.280000
vt 0.750000 0.190000
vt 0.301962 0.220000
vt 0.250000 0.310000
vt 0.198038 0.220000
vt 1.000000 0.500000
s 0
f 25/1/1 3/2/1 13/3/1
f 26/4/2 5/5/2 15/6/2
f 27/7/3 7/8/3 17/9/3
f 28/10/4 9/11/4 19/12/4
f 2/13/5 38/14/5 43/15/5
f 32/16/6 11/17/6 21/18/6
f 33/19/7 1/20/7 23/21/7
f 3/22/8 41/23/8 46/24/8
f 4/25/9 25/1/9 14/26/9
f 6/27/10 26/4/10 16/28/10
f 8/29/11 27/7/11 18/30/11
f 10/31/12 28/10/12 20/32/12
f 16/33/13 37/34/13 6/35/13
f 24/36/14 38/14/14 2/13/14
f 20/37/15 39/38/15 10/39/15
f 12/40/16 32/16/16 22/41/16
f 2/42/17 33/19/17 24/43/17
f 23/44/18 40/45/18 11/46/18
f 15/47/19 41/23/19 3/22/19
f 19/48/20 42/49/20 7/50/20
f 21/51/21 48/52/21 36/53/21
f 36/53/22 49/54/22 21/51/22
f 9/55/23 49/54/23 19/48/23
f 17/56/24 47/57/24 35/58/24
f 35/58/25 50/59/25 17/56/25
f 5/60/26 50/59/26 15/47/26
f 13/61/27 46/24/27 34/62/27
f 34/62/28 51/63/28 13/61/28
f 1/64/29 51/63/29 23/44/29
f 12/40/30 24/43/30 33/19/30
f 10/31/31 22/41/31 32/16/31
f 18/65/32 45/66/32 31/67/32
f 31/67/33 52/68/33 18/65/33
f 8/69/34 52/68/34 20/37/34
f 22/70/35 44/71/35 30/72/35
f 30/72/36 53/73/36 22/70/36
f 12/74/37 53/73/37 24/36/37
f 14/75/38 43/15/38 29/76/38
f 29/76/39 54/77/39 14/75/39
f 4/78/40 54/77/40 16/33/40
f 8/29/41 20/32/41 28/10/41
f 6/27/42 18/30/42 27/7/42
f 4/25/43 16/28/43 26/4/43
f 2/79/44 14/26/44 25/1/44
f 34/62/45 55/80/45 40/45/45
f 34/62/46 56/81/46 55/80/46
f 35/58/47 47/57/47 57/82/47
f 33/19/48 11/17/48 12/40/48
f 32/16/49 9/11/49 10/31/49
f 29/76/50 58/83/50 37/34/50
f 29/76/51 59/84/51 58/83/51
f 30/72/52 44/71/52 60/85/52
f 28/10/53 7/8/53 8/29/53
f 27/7/54 5/5/54 6/27/54
f 26/4/55 3/2/55 4/25/55
f 25/1/56 1/86/56 2/79/56
f 4/25/57 3/2/57 25/1/57
f 6/27/58 5/5/58 26/4/58
f 8/29/59 7/8/59 27/7/59
f 10/31/60 9/11/60 28/10/60
f 12/40/61 11/17/61 32/16/61
f 2/42/62 1/20/62 33/19/62
f 33/19/63 23/21/63 11/17/63
f 32/16/64 21/18/64 9/11/64
f 28/10/65 19/12/65 7/8/65
f 27/7/66 17/9/66 5/5/66
f 26/4/67 15/6/67 3/2/67
f 25/1/68 13/3/68 1/86/68
f 60/85/69 39/38/69 31/67/69
f 60/85/70 44/71/70 39/38/70
f 44/71/71 10/39/71 39/38/71
f 58/83/72 60/85/72 31/67/72
f 58/83/73 59/84/73 60/85/73
f 59/84/74 30/72/74 60/85/74
f 37/34/75 45/66/75 6/35/75
f 37/34/76 58/83/76 45/66/76
f 58/83/77 31/67/77 45/66/77
f 57/82/78 42/49/78 36/53/78
f 57/82/79 47/57/79 42/49/79
f 47/57/80 7/50/80 42/49/80
f 55/80/81 57/82/81 36/53/81
f 55/80/82 56/81/82 57/82/82
f 56/81/83 35/58/83 57/82/83
f 40/45/84 48/52/84 11/46/84
f 40/45/85 55/80/85 48/52/85
f 55/80/86 36/53/86 48/52/86
f 46/24/87 56/81/87 34/62/87
f 46/24/88 41/23/88 56/81/88
f 41/23/89 35/58/89 56/81/89
f 43/15/90 59/84/90 29/76/90
f 43/15/91 38/14/91 59/84/91
f 38/14/92 30/72/92 59/84/92
f 16/33/93 29/76/93 37/34/93
f 24/36/94 30/72/94 38/14/94
f 20/37/95 31/67/95 39/38/95
f 23/44/96 34/62/96 40/45/96
f 15/47/97 35/58/97 41/23/97
f 19/48/98 36/53/98 42/49/98
f 21/51/99 11/46/99 48/52/99
f 36/53/100 19/48/100 49/54/100
f 9/55/101 21/51/101 49/54/101
f 17/56/102 7/50/102 47/57/102
f 35/58/103 15/47/103 50/59/103
f 5/60/104 17/56/104 50/59/104
f 13/61/105 3/22/105 46/24/105
f 34/62/106 23/44/106 51/63/106
f 1/64/107 13/61/107 51/63/107
f 18/65/108 6/35/108 45/66/108
f 31/67/109 20/37/109 52/68/109
f 8/69/110 18/65/110 52/68/110
f 22/70/111 10/39/111 44/71/111
f 30/72/112 24/36/112 53/73/112
f 12/74/113 22/70/113 53/73/113
f 14/75/114 2/13/114 43/15/114
f 29/76/115 16/33/115 54/77/115
f 4/78/116 14/75/116 54/77/116
