# Blender 4.3.0
# www.blender.org
o Cylinder
v 0.000000 -2.513108 -25.017027
v 0.000000 2.501428 -25.001856
v 21.716452 -2.558505 -12.537999
v 21.687702 2.532949 -12.521401
v 21.603405 -2.458018 12.472733
v 21.651756 2.500997 12.500648
v 0.000000 -2.528157 25.036575
v 0.000000 2.539484 25.051291
v -21.623884 -2.476221 12.484555
v -21.679270 2.525455 12.516533
v -21.711464 -2.554071 -12.535120
v -21.697809 2.541933 -12.527236
v 10.804080 -2.457526 -18.713215
v 10.802611 2.454588 -18.710672
v 21.584251 -2.433616 0.000000
v 21.621794 2.471160 0.000000
v 10.830181 -2.509727 18.758423
v 10.828895 2.507154 18.756195
v -10.837613 -2.524591 18.771296
v -10.810194 2.469754 18.723806
v -21.660475 -2.509840 0.000000
v -21.635191 2.484556 0.000000
v -10.802209 -2.453783 -18.709974
v -10.823921 2.497208 -18.747581
v 10.851385 0.000000 -18.795151
v 21.618689 0.000000 0.000000
v 10.780925 0.000000 18.673109
v -10.871193 0.000000 18.829458
v 10.825317 2.499358 -6.250000
v -10.825317 2.593583 -6.250000
v 0.000000 2.405035 12.500000
v -21.622398 0.000000 0.000000
v -10.831892 0.000000 -18.761387
v 0.000000 -2.539403 -12.500000
v 10.825317 -2.575225 6.250000
v -10.825317 -2.412953 6.250000
v 16.237976 2.592956 3.125000
v -5.412659 2.517116 -15.625000
v -10.825317 2.563979 12.500000
v -10.825317 -2.449591 -12.500000
v 16.237976 -2.539324 -3.125000
v -5.412659 -2.554116 15.625000
v 5.412659 2.432945 -15.625000
v -16.237976 2.503746 3.125000
v 10.825317 2.512358 12.500000
v 10.825317 -2.595938 -12.500000
v 5.412659 -2.417876 15.625000
v -16.237976 -2.570181 -3.125000
v -16.237976 -2.554795 9.375000
v 16.237976 -2.417641 9.375000
v 0.000000 -2.554347 -18.750000
v 0.000000 2.402611 18.750000
v -16.237976 2.533128 -9.375000
v 16.237976 2.470181 -9.375000
v -5.412659 -2.557355 -3.125000
v 5.412659 -2.432899 -3.125000
v 0.000000 -2.554178 6.250000
v 5.412659 2.418989 3.125000
v 0.000000 2.591216 -6.250000
v -5.412659 2.505827 3.125000
vn 0.4919 -0.0385 -0.8698
vn 0.9999 -0.0141 -0.0016
vn 0.5011 0.0392 0.8645
vn -0.5035 -0.0266 0.8636
vn 0.0078 1.0000 0.0028
vn -0.9999 0.0152 0.0040
vn -0.5042 -0.0242 -0.8633
vn 0.0035 -1.0000 0.0040
vn 0.4937 0.0397 -0.8687
vn 1.0000 -0.0013 -0.0024
vn 0.5021 -0.0382 0.8640
vn -0.4951 0.0493 0.8674
vn 0.0212 0.9998 -0.0024
vn -0.0020 1.0000 -0.0028
vn -0.0035 0.9999 0.0151
vn -1.0000 -0.0051 0.0050
vn -0.5003 0.0064 -0.8658
vn 0.0096 -1.0000 0.0007
vn 0.0139 -0.9999 0.0101
vn -0.0029 -1.0000 0.0044
vn -0.0011 -0.9998 0.0174
vn 0.0176 -0.9997 -0.0150
vn -0.0096 -0.9999 0.0087
vn -0.0200 -0.9998 0.0052
vn 0.0261 -0.9996 0.0052
vn -0.0064 -1.0000 -0.0019
vn -0.0052 -0.9997 -0.0223
vn 0.0090 -1.0000 0.0024
vn -0.0093 -0.9999 -0.0066
vn -0.4965 0.0064 -0.8680
vn -1.0000 -0.0051 -0.0035
vn -0.0099 1.0000 0.0008
vn -0.0097 1.0000 0.0004
vn 0.0063 0.9997 -0.0217
vn -0.0068 1.0000 0.0056
vn -0.0106 0.9999 -0.0009
vn 0.0029 1.0000 -0.0022
vn -0.0061 1.0000 -0.0036
vn 0.0033 1.0000 -0.0036
vn -0.0087 1.0000 0.0049
vn -0.5048 0.0493 0.8618
vn 0.5000 -0.0382 0.8652
vn 1.0000 -0.0013 0.0053
vn 0.5030 0.0397 -0.8634
vn -0.0083 -0.9999 -0.0067
vn 0.0115 -0.9999 0.0047
vn -0.0019 -0.9999 0.0157
vn -0.4972 0.0027 -0.8676
vn -0.9999 -0.0111 -0.0023
vn -0.0161 0.9999 -0.0007
vn 0.0085 0.9999 0.0135
vn -0.0002 1.0000 0.0095
vn -0.4963 -0.0025 0.8682
vn 0.4954 -0.0097 0.8686
vn 1.0000 0.0056 0.0066
vn 0.4969 0.0026 -0.8678
vn 0.5000 0.0056 -0.8660
vn 1.0000 -0.0097 -0.0007
vn 0.5087 -0.0025 0.8609
vn -0.5063 -0.0111 0.8623
vn -1.0000 0.0027 0.0066
vn -0.4997 0.0026 -0.8662
vn -0.4923 -0.0242 -0.8701
vn -0.9999 0.0152 0.0029
vn -0.5003 -0.0266 0.8654
vn 0.5034 0.0392 0.8632
vn 0.9998 -0.0141 0.0107
vn 0.5037 -0.0385 -0.8630
vn 0.0147 0.9999 0.0023
vn -0.0002 1.0000 -0.0063
vn -0.0036 1.0000 -0.0044
vn 0.0080 0.9999 0.0061
vn 0.0080 0.9999 0.0137
vn 0.0002 1.0000 0.0092
vn 0.0010 1.0000 0.0092
vn -0.0099 0.9999 -0.0042
vn -0.0130 -0.9999 -0.0075
vn 0.0126 -0.9999 0.0073
vn 0.0126 -0.9999 -0.0045
vn -0.0130 -0.9999 0.0079
vn 0.0115 -0.9999 -0.0063
vn -0.0019 -0.9999 -0.0141
vn 0.0096 -0.9999 -0.0073
vn 0.0012 -0.9999 -0.0122
vn 0.0012 -0.9999 0.0161
vn -0.0052 -0.9999 0.0144
vn -0.0098 -0.9999 0.0117
vn -0.0098 -0.9999 -0.0095
vn 0.0085 0.9999 -0.0120
vn 0.0078 0.9999 -0.0124
vn 0.0002 1.0000 -0.0080
vn 0.0126 0.9998 -0.0173
vn 0.0008 1.0000 -0.0077
vn 0.0147 0.9998 0.0151
vn -0.0083 -1.0000 0.0006
vn 0.0165 -0.9998 0.0057
vn -0.0106 -0.9999 -0.0089
vn -0.0091 -1.0000 0.0036
vn 0.0211 -0.9997 -0.0089
vn -0.0130 -0.9999 0.0027
vn -0.0076 -0.9998 -0.0161
vn 0.0212 -0.9997 0.0138
vn -0.0014 -0.9999 -0.0106
vn 0.0034 -0.9997 -0.0223
vn -0.0093 -1.0000 0.0024
vn 0.0090 -0.9999 -0.0066
vn 0.0010 1.0000 0.0008
vn 0.0062 1.0000 0.0004
vn -0.0096 0.9997 -0.0217
vn -0.0017 1.0000 -0.0033
vn -0.0067 0.9999 -0.0077
vn -0.0010 1.0000 0.0046
vn 0.0001 1.0000 0.0072
vn 0.0040 1.0000 -0.0024
vn -0.0093 0.9999 0.0038
vt 0.916667 0.750000
vt 0.833333 0.500000
vt 0.916667 0.500000
vt 0.750000 0.750000
vt 0.666667 0.500000
vt 0.750000 0.500000
vt 0.583333 0.750000
vt 0.500000 0.500000
vt 0.583333 0.500000
vt 0.416667 0.750000
vt 0.333333 0.500000
vt 0.416667 0.500000
vt 0.250000 0.490000
vt 0.198038 0.400000
vt 0.301962 0.400000
vt 0.250000 0.750000
vt 0.166667 0.500000
vt 0.250000 0.500000
vt 0.083333 0.750000
vt -0.000000 0.500000
vt 0.083333 0.500000
vt 0.957846 0.370000
vt 0.905885 0.280000
vt 0.853923 0.370000
vt 0.833333 1.000000
vt 0.916667 1.000000
vt 0.666667 1.000000
vt 0.750000 1.000000
vt 0.500000 1.000000
vt 0.583333 1.000000
vt 0.333333 1.000000
vt 0.416667 1.000000
vt 0.457846 0.250000
vt 0.405885 0.220000
vt 0.457846 0.130000
vt 0.146077 0.430000
vt 0.146077 0.070000
vt 0.146077 0.130000
vt 0.042154 0.130000
vt 0.166667 1.000000
vt 0.250000 1.000000
vt -0.000000 1.000000
vt 0.083333 1.000000
vt 0.646077 0.430000
vt 0.646077 0.370000
vt 0.542154 0.370000
vt 0.957846 0.250000
vt 0.646077 0.070000
vt 0.698038 0.100000
vt 0.750000 0.010000
vt 0.542154 0.250000
vt 0.594115 0.280000
vt 0.646077 0.190000
vt 0.594115 0.160000
vt 0.542154 0.130000
vt 0.853923 0.070000
vt 0.801962 0.100000
vt 0.853923 0.190000
vt 0.905885 0.160000
vt 0.957846 0.130000
vt 0.853923 0.430000
vt 0.750000 0.370000
vt 0.750000 0.430000
vt 0.750000 0.490000
vt 0.353923 0.070000
vt 0.353923 0.130000
vt 0.250000 0.130000
vt 0.250000 0.070000
vt 0.250000 0.010000
vt 0.042154 0.250000
vt 0.094115 0.220000
vt 0.146077 0.310000
vt 0.094115 0.340000
vt 0.042154 0.370000
vt 0.353923 0.430000
vt 0.353923 0.310000
vt 0.405885 0.340000
vt 0.457846 0.370000
vt 1.000000 1.000000
vt 0.698038 0.280000
vt 0.801962 0.280000
vt 0.750000 0.190000
vt 0.301962 0.220000
vt 0.250000 0.310000
vt 0.198038 0.220000
vt 1.000000 0.500000
s 0
f 25/1/1 3/2/1 13/3/1
f 26/4/2 5/5/2 15/6/2
f 27/7/3 7/8/3 17/9/3
f 28/10/4 9/11/4 19/12/4
f 2/13/5 38/14/5 43/15/5
f 32/16/6 11/17/6 21/18/6
f 33/19/7 1/20/7 23/21/7
f 3/22/8 41/23/8 46/24/8
f 4/25/9 25/1/9 14/26/9
f 6/27/10 26/4/10 16/28/10
f 8/29/11 27/7/11 18/30/11
f 10/31/12 28/10/12 20/32/12
f 16/33/13 37/34/13 6/35/13
f 24/36/14 38/14/14 2/13/14
f 20/37/15 39/38/15 10/39/15
f 12/40/16 32/16/16 22/41/16
f 2/42/17 33/19/17 24/43/17
f 23/44/18 40/45/18 11/46/18
f 15/47/19 41/23/19 3/22/19
f 19/48/20 42/49/20 7/50/20
f 21/51/21 48/52/21 36/53/21
f 36/53/22 49/54/22 21/51/22
f 9/55/23 49/54/23 19/48/23
f 17/56/24 47/57/24 35/58/24
f 35/58/25 50/59/25 17/56/25
f 5/60/26 50/59/26 15/47/26
f 13/61/27 46/24/27 34/62/27
f 34/62/28 51/63/28 13/61/28
f 1/64/29 51/63/29 23/44/29
f 12/40/30 24/43/30 33/19/30
f 10/31/31 22/41/31 32/16/31
f 18/65/32 45/66/32 31/67/32
f 31/67/33 52/68/33 18/65/33
f 8/69/34 52/68/34 20/37/34
f 22/70/35 44/71/35 30/72/35
f 30/72/36 53/73/36 22/70/36
f 12/74/37 53/73/37 24/36/37
f 14/75/38 43/15/38 29/76/38
f 29/76/39 54/77/39 14/75/39
f 4/78/40 54/77/40 16/33/40
f 8/29/41 20/32/41 28/10/41
f 6/27/42 18/30/42 27/7/42
f 4/25/43 16/28/43 26/4/43
f 2/79/44 14/26/44 25/1/44
f 34/62/45 55/80/45 40/45/45
f 34/62/46 56/81/46 55/80/46
f 35/58/47 47/57/47 57/82/47
f 33/19/48 11/17/48 12/40/48
f 32/16/49 9/11/49 10/31/49
f 29/76/50 58/83/50 37/34/50
f 29/76/51 59/84/51 58/83/51
f 30/72/52 44/71/52 60/85/52
f 28/10/53 7/8/53 8/29/53
f 27/7/54 5/5/54 6/27/54
f 26/4/55 3/2/55 4/25/55
f 25/1/56 1/86/56 2/79/56
f 4/25/57 3/2/57 25/1/57
f 6/27/58 5/5/58 26/4/58
f 8/29/59 7/8/59 27/7/59
f 10/31/60 9/11/60 28/10/60
f 12/40/61 11/17/61 32/16/61
f 2/42/62 1/20/62 33/19/62
f 33/19/63 23/21/63 11/17/63
f 32/16/64 21/18/64 9/11/64
f 28/10/65 19/12/65 7/8/65
f 27/7/66 17/9/66 5/5/66
f 26/4/67 15/6/67 3/2/67
f 25/1/68 13/3/68 1/86/68
f 60/85/69 39/38/69 31/67/69
f 60/85/70 44/71/70 39/38/70
f 44/71/71 10/39/71 39/38/71
f 58/83/72 60/85/72 31/67/72
f 58/83/73 59/84/73 60/85/73
f 59/84/74 30/72/74 60/85/74
f 37/34/75 45/66/75 6/35/75
f 37/34/50 58/83/50 45/66/50
f 58/83/76 31/67/76 45/66/76
f 57/82/77 42/49/77 36/53/77
f 57/82/78 47/57/78 42/49/78
f 47/57/79 7/50/79 42/49/79
f 55/80/80 57/82/80 36/53/80
f 55/80/81 56/81/81 57/82/81
f 56/81/82 35/58/82 57/82/82
f 40/45/83 48/52/83 11/46/83
f 40/45/84 55/80/84 48/52/84
f 55/80/85 36/53/85 48/52/85
f 46/24/86 56/81/86 34/62/86
f 46/24/87 41/23/87 56/81/87
f 41/23/88 35/58/88 56/81/88
f 43/15/89 59/84/89 29/76/89
f 43/15/90 38/14/90 59/84/90
f 38/14/91 30/72/91 59/84/91
f 16/33/92 29/76/92 37/34/92
f 24/36/93 30/72/93 38/14/93
f 20/37/94 31/67/94 39/38/94
f 23/44/95 34/62/95 40/45/95
f 15/47/96 35/58/96 41/23/96
f 19/48/97 36/53/97 42/49/97
f 21/51/98 11/46/98 48/52/98
f 36/53/99 19/48/99 49/54/99
f 9/55/100 21/51/100 49/54/100
f 17/56/101 7/50/101 47/57/101
f 35/58/102 15/47/102 50/59/102
f 5/60/103 17/56/103 50/59/103
f 13/61/104 3/22/104 46/24/104
f 34/62/105 23/44/105 51/63/105
f 1/64/106 13/61/106 51/63/106
f 18/65/107 6/35/107 45/66/107
f 31/67/108 20/37/108 52/68/108
f 8/69/109 18/65/109 52/68/109
f 22/70/110 10/39/110 44/71/110
f 30/72/111 24/36/111 53/73/111
f 12/74/112 22/70/112 53/73/112
f 14/75/113 2/13/113 43/15/113
f 29/76/114 16/33/114 54/77/114
f 4/78/115 14/75/115 54/77/115
