# Blender 4.3.0
# www.blender.org
o Cylinder
v 0.000000 -2.461024 -24.949369
v 0.000000 2.527244 -25.035391
v 21.588078 -2.444393 -12.463882
v 21.630732 2.482309 -12.488509
v 21.634623 -2.485767 12.490756
v 21.586739 2.443203 12.463110
v 0.000000 -2.446090 24.929970
v 0.000000 2.537767 25.049061
v -21.667458 -2.514954 12.509713
v -21.614830 2.468174 12.479328
v -21.666250 -2.513880 -12.509015
v -21.655251 2.504103 -12.502666
v 10.819119 -2.487604 -18.739264
v 10.854036 2.557437 -18.799742
v 21.641552 -2.490917 0.000000
v 21.599600 2.448966 0.000000
v 10.841506 -2.532377 18.778040
v 10.792161 2.433689 18.692572
v -10.811293 -2.471951 18.725708
v -10.799940 2.449245 18.706045
v -21.590061 -2.439427 0.000000
v -21.673561 2.522925 0.000000
v -10.802991 -2.455347 -18.711329
v -10.836971 2.523308 -18.770185
v 10.855748 0.000000 -18.802708
v 21.598091 0.000000 0.000000
v 10.838900 0.000000 18.773525
v -10.862479 0.000000 18.814365
v 10.825317 2.536916 -6.250000
v -10.825317 2.406959 -6.250000
v 0.000000 2.414689 12.500000
v -21.679001 0.000000 0.000000
v -10.787415 0.000000 -18.684349
v 0.000000 -2.457386 -12.500000
v 10.825317 -2.530151 6.250000
v -10.825317 -2.509619 6.250000
v 16.237976 2.491022 3.125000
v -5.412659 2.453427 -15.625000
v -10.825317 2.536290 12.500000
v -10.825317 -2.524464 -12.500000
v 16.237976 -2.486639 -3.125000
v -5.412659 -2.568981 15.625000
v 5.412659 2.406539 -15.625000
v -16.237976 2.549181 3.125000
v 10.825317 2.421583 12.500000
v 10.825317 -2.555986 -12.500000
v 5.412659 -2.560637 15.625000
v -16.237976 -2.515012 -3.125000
v -16.237976 -2.561568 9.375000
v 16.237976 -2.524108 9.375000
v 0.000000 -2.428617 -18.750000
v 0.000000 2.458798 18.750000
v -16.237976 2.476853 -9.375000
v 16.237976 2.441077 -9.375000
v -5.412659 -2.466678 -3.125000
v 5.412659 -2.446535 -3.125000
v 0.000000 -2.587996 6.250000
v 5.412659 2.425011 3.125000
v 0.000000 2.535878 -6.250000
v -5.412659 2.548793 3.125000
vn 0.5034 -0.0294 -0.8636
vn 0.9998 0.0174 0.0005
vn 0.4935 0.0021 0.8697
vn -0.4963 -0.0414 0.8671
vn 0.0043 0.9999 0.0103
vn -0.9993 -0.0364 0.0063
vn -0.5000 0.0127 -0.8659
vn 0.0104 -0.9999 0.0014
vn 0.5054 0.0013 -0.8629
vn 1.0000 -0.0006 0.0010
vn 0.5074 0.0384 0.8609
vn -0.4982 0.0510 0.8655
vn 0.0081 1.0000 0.0005
vn 0.0062 0.9999 0.0114
vn -0.0063 0.9999 0.0141
vn -1.0000 0.0022 -0.0015
vn -0.5001 -0.0392 -0.8651
vn -0.0010 -0.9999 -0.0111
vn 0.0014 -1.0000 -0.0037
vn -0.0078 -0.9998 0.0177
vn -0.0103 -0.9999 0.0065
vn 0.0016 -0.9999 -0.0139
vn -0.0023 -0.9999 0.0109
vn 0.0053 -1.0000 -0.0002
vn 0.0012 -1.0000 -0.0002
vn 0.0069 -1.0000 0.0004
vn -0.0091 -0.9999 -0.0109
vn -0.0054 -1.0000 -0.0046
vn 0.0025 -1.0000 0.0052
vn -0.5009 -0.0392 -0.8646
vn -1.0000 0.0022 0.0047
vn -0.0006 1.0000 -0.0020
vn 0.0023 1.0000 -0.0071
vn -0.0008 0.9999 -0.0125
vn 0.0029 0.9999 -0.0135
vn 0.0118 0.9999 0.0019
vn 0.0016 1.0000 0.0059
vn -0.0268 0.9996 0.0016
vn 0.0187 0.9998 0.0017
vn -0.0061 1.0000 0.0027
vn -0.5061 0.0510 0.8610
vn 0.4994 0.0384 0.8655
vn 1.0000 -0.0006 0.0025
vn 0.4981 0.0013 -0.8671
vn 0.0062 -1.0000 0.0026
vn 0.0019 -1.0000 0.0001
vn -0.4940 0.0022 -0.8694
vn -0.9999 0.0106 0.0030
vn -0.0061 0.9999 0.0084
vn -0.0001 0.9999 0.0119
vn -0.0000 0.9999 -0.0151
vn -0.4940 -0.0208 0.8692
vn 0.5046 0.0097 0.8633
vn 1.0000 -0.0087 0.0009
vn 0.4952 -0.0150 -0.8686
vn 0.5071 -0.0087 -0.8619
vn 1.0000 0.0097 -0.0010
vn 0.4973 -0.0207 0.8673
vn -0.5058 0.0106 0.8626
vn -0.5047 -0.0149 -0.8632
vn -0.4958 0.0127 -0.8683
vn -0.9993 -0.0364 -0.0064
vn -0.4972 -0.0414 0.8666
vn 0.5033 0.0021 0.8641
vn 0.9998 0.0174 -0.0042
vn 0.4975 -0.0294 -0.8669
vn 0.0112 0.9999 0.0078
vn -0.0000 1.0000 0.0014
vn -0.0063 1.0000 0.0050
vn 0.0114 0.9999 0.0077
vn 0.0114 0.9999 0.0052
vn -0.0119 0.9999 -0.0083
vn -0.0020 1.0000 0.0063
vn -0.0061 1.0000 0.0039
vn -0.0006 1.0000 0.0007
vn -0.0072 -1.0000 -0.0022
vn 0.0008 -1.0000 0.0025
vn 0.0008 -0.9999 0.0128
vn -0.0072 -0.9999 -0.0088
vn 0.0019 -0.9999 -0.0140
vn 0.0053 -0.9999 -0.0120
vn -0.0010 -1.0000 0.0004
vn 0.0045 -1.0000 0.0036
vn 0.0045 -1.0000 -0.0020
vn -0.0091 -0.9999 0.0064
vn -0.0037 -0.9999 0.0095
vn -0.0037 -1.0000 -0.0068
vn -0.0001 0.9999 -0.0139
vn 0.0043 0.9999 -0.0113
vn -0.0119 0.9999 -0.0019
vn 0.0080 1.0000 0.0003
vn 0.0075 0.9999 0.0093
vn 0.0112 0.9998 0.0140
vn 0.0062 -0.9999 -0.0111
vn 0.0014 -1.0000 -0.0038
vn -0.0162 -0.9999 0.0030
vn -0.0106 -0.9999 0.0060
vn 0.0113 -0.9999 0.0030
vn -0.0121 -0.9999 -0.0061
vn -0.0015 -0.9999 0.0115
vn 0.0024 -1.0000 -0.0022
vn 0.0057 -1.0000 0.0024
vn 0.0104 -0.9999 -0.0110
vn 0.0025 -1.0000 -0.0046
vn -0.0055 -1.0000 0.0052
vn -0.0020 1.0000 -0.0020
vn -0.0009 1.0000 -0.0071
vn 0.0023 0.9999 -0.0125
vn -0.0074 1.0000 0.0044
vn 0.0076 0.9999 0.0093
vn 0.0059 1.0000 -0.0015
vn -0.0152 0.9997 0.0215
vn 0.0129 0.9999 -0.0082
vn -0.0004 0.9999 0.0126
vt 0.916667 0.750000
vt 0.833333 0.500000
vt 0.916667 0.500000
vt 0.750000 0.750000
vt 0.666667 0.500000
vt 0.750000 0.500000
vt 0.583333 0.750000
vt 0.500000 0.500000
vt 0.583333 0.500000
vt 0.416667 0.750000
vt 0.333333 0.500000
vt 0.416667 0.500000
vt 0.250000 0.490000
vt 0.198038 0.400000
vt 0.301962 0.400000
vt 0.250000 0.750000
vt 0.166667 0.500000
vt 0.250000 0.500000
vt 0.083333 0.750000
vt -0.000000 0.500000
vt 0.083333 0.500000
vt 0.957846 0.370000
vt 0.905885 0.280000
vt 0.853923 0.370000
vt 0.833333 1.000000
vt 0.916667 1.000000
vt 0.666667 1.000000
vt 0.750000 1.000000
vt 0.500000 1.000000
vt 0.583333 1.000000
vt 0.333333 1.000000
vt 0.416667 1.000000
vt 0.457846 0.250000
vt 0.405885 0.220000
vt 0.457846 0.130000
vt 0.146077 0.430000
vt 0.146077 0.070000
vt 0.146077 0.130000
vt 0.042154 0.130000
vt 0.166667 1.000000
vt 0.250000 1.000000
vt -0.000000 1.000000
vt 0.083333 1.000000
vt 0.646077 0.430000
vt 0.646077 0.370000
vt 0.542154 0.370000
vt 0.957846 0.250000
vt 0.646077 0.070000
vt 0.698038 0.100000
vt 0.750000 0.010000
vt 0.542154 0.250000
vt 0.594115 0.280000
vt 0.646077 0.190000
vt 0.594115 0.160000
vt 0.542154 0.130000
vt 0.853923 0.070000
vt 0.801962 0.100000
vt 0.853923 0.190000
vt 0.905885 0.160000
vt 0.957846 0.130000
vt 0.853923 0.430000
vt 0.750000 0.370000
vt 0.750000 0.430000
vt 0.750000 0.490000
vt 0.353923 0.070000
vt 0.353923 0.130000
vt 0.250000 0.130000
vt 0.250000 0.070000
vt 0.250000 0.010000
vt 0.042154 0.250000
vt 0.094115 0.220000
vt 0.146077 0.310000
vt 0.094115 0.340000
vt 0.042154 0.370000
vt 0.353923 0.430000
vt 0.353923 0.310000
vt 0.405885 0.340000
vt 0.457846 0.370000
vt 1.000000 1.000000
vt 0.698038 0.280000
vt 0.801962 0.280000
vt 0.750000 0.190000
vt 0.301962 0.220000
vt 0.250000 0.310000
vt 0.198038 0.220000
vt 1.000000 0.500000
s 0
f 25/1/1 3/2/1 13/3/1
f 26/4/2 5/5/2 15/6/2
f 27/7/3 7/8/3 17/9/3
f 28/10/4 9/11/4 19/12/4
f 2/13/5 38/14/5 43/15/5
f 32/16/6 11/17/6 21/18/6
f 33/19/7 1/20/7 23/21/7
f 3/22/8 41/23/8 46/24/8
f 4/25/9 25/1/9 14/26/9
f 6/27/10 26/4/10 16/28/10
f 8/29/11 27/7/11 18/30/11
f 10/31/12 28/10/12 20/32/12
f 16/33/13 37/34/13 6/35/13
f 24/36/14 38/14/14 2/13/14
f 20/37/15 39/38/15 10/39/15
f 12/40/16 32/16/16 22/41/16
f 2/42/17 33/19/17 24/43/17
f 23/44/18 40/45/18 11/46/18
f 15/47/19 41/23/19 3/22/19
f 19/48/20 42/49/20 7/50/20
f 21/51/21 48/52/21 36/53/21
f 36/53/22 49/54/22 21/51/22
f 9/55/23 49/54/23 19/48/23
f 17/56/24 47/57/24 35/58/24
f 35/58/25 50/59/25 17/56/25
f 5/60/26 50/59/26 15/47/26
f 13/61/27 46/24/27 34/62/27
f 34/62/28 51/63/28 13/61/28
f 1/64/29 51/63/29 23/44/29
f 12/40/30 24/43/30 33/19/30
f 10/31/31 22/41/31 32/16/31
f 18/65/32 45/66/32 31/67/32
f 31/67/33 52/68/33 18/65/33
f 8/69/34 52/68/34 20/37/34
f 22/70/35 44/71/35 30/72/35
f 30/72/36 53/73/36 22/70/36
f 12/74/37 53/73/37 24/36/37
f 14/75/38 43/15/38 29/76/38
f 29/76/39 54/77/39 14/75/39
f 4/78/40 54/77/40 16/33/40
f 8/29/41 20/32/41 28/10/41
f 6/27/42 18/30/42 27/7/42
f 4/25/43 16/28/43 26/4/43
f 2/79/44 14/26/44 25/1/44
f 34/62/45 55/80/45 40/45/45
f 34/62/46 56/81/46 55/80/46
f 35/58/24 47/57/24 57/82/24
f 33/19/47 11/17/47 12/40/47
f 32/16/48 9/11/48 10/31/48
f 29/76/49 58/83/49 37/34/49
f 29/76/50 59/84/50 58/83/50
f 30/72/51 44/71/51 60/85/51
f 28/10/52 7/8/52 8/29/52
f 27/7/53 5/5/53 6/27/53
f 26/4/54 3/2/54 4/25/54
f 25/1/55 1/86/55 2/79/55
f 4/25/56 3/2/56 25/1/56
f 6/27/57 5/5/57 26/4/57
f 8/29/58 7/8/58 27/7/58
f 10/31/59 9/11/59 28/10/59
f 12/40/16 11/17/16 32/16/16
f 2/42/60 1/20/60 33/19/60
f 33/19/61 23/21/61 11/17/61
f 32/16/62 21/18/62 9/11/62
f 28/10/63 19/12/63 7/8/63
f 27/7/64 17/9/64 5/5/64
f 26/4/65 15/6/65 3/2/65
f 25/1/66 13/3/66 1/86/66
f 60/85/67 39/38/67 31/67/67
f 60/85/68 44/71/68 39/38/68
f 44/71/69 10/39/69 39/38/69
f 58/83/70 60/85/70 31/67/70
f 58/83/71 59/84/71 60/85/71
f 59/84/72 30/72/72 60/85/72
f 37/34/73 45/66/73 6/35/73
f 37/34/74 58/83/74 45/66/74
f 58/83/75 31/67/75 45/66/75
f 57/82/76 42/49/76 36/53/76
f 57/82/77 47/57/77 42/49/77
f 47/57/78 7/50/78 42/49/78
f 55/80/79 57/82/79 36/53/79
f 55/80/80 56/81/80 57/82/80
f 56/81/81 35/58/81 57/82/81
f 40/45/82 48/52/82 11/46/82
f 40/45/83 55/80/83 48/52/83
f 55/80/84 36/53/84 48/52/84
f 46/24/85 56/81/85 34/62/85
f 46/24/86 41/23/86 56/81/86
f 41/23/87 35/58/87 56/81/87
f 43/15/88 59/84/88 29/76/88
f 43/15/89 38/14/89 59/84/89
f 38/14/90 30/72/90 59/84/90
f 16/33/91 29/76/91 37/34/91
f 24/36/92 30/72/92 38/14/92
f 20/37/93 31/67/93 39/38/93
f 23/44/94 34/62/94 40/45/94
f 15/47/95 35/58/95 41/23/95
f 19/48/96 36/53/96 42/49/96
f 21/51/97 11/46/97 48/52/97
f 36/53/98 19/48/98 49/54/98
f 9/55/99 21/51/99 49/54/99
f 17/56/100 7/50/100 47/57/100
f 35/58/101 15/47/101 50/59/101
f 5/60/102 17/56/102 50/59/102
f 13/61/103 3/22/103 46/24/103
f 34/62/104 23/44/104 51/63/104
f 1/64/105 13/61/105 51/63/105
f 18/65/106 6/35/106 45/66/106
f 31/67/107 20/37/107 52/68/107
f 8/69/108 18/65/108 52/68/108
f 22/70/109 10/39/109 44/71/109
f 30/72/110 24/36/110 53/73/110
f 12/74/111 22/70/111 53/73/111
f 14/75/112 2/13/112 43/15/112
f 29/76/113 16/33/113 54/77/113
f 4/78/114 14/75/114 54/77/114
