# Blender 4.3.0
# www.blender.org
o Cylinder
v 0.000000 -2.532661 -25.042429
v 0.000000 2.444314 -24.927662
v 21.712219 -2.554743 -12.535556
v 21.632507 2.483887 -12.489534
v 21.675230 -2.521863 12.514200
v 21.626190 2.478272 12.485888
v 0.000000 -2.500090 25.000116
v 0.000000 2.542094 25.054682
v -21.615206 -2.468507 12.479545
v -21.593046 2.448809 12.466751
v -21.625397 -2.477565 -12.485429
v -21.650370 2.499765 -12.499847
v 10.820404 -2.490173 -18.741489
v 10.841588 2.532541 -18.778181
v 21.709618 -2.558982 0.000000
v 21.597115 2.446480 0.000000
v 10.793927 -2.437219 18.695629
v 10.821676 2.492718 18.743692
v -10.829903 -2.509171 18.757942
v -10.839502 2.528370 18.774569
v -21.704994 -2.554358 0.000000
v -21.680416 2.529780 0.000000
v -10.798856 -2.447077 -18.704166
v -10.852867 2.555098 -18.797716
v 10.837720 0.000000 -18.771481
v 21.727400 0.000000 0.000000
v 10.811247 0.000000 18.725630
v -10.863066 0.000000 18.815382
v 10.825317 2.531586 -6.250000
v -10.825317 2.597852 -6.250000
v 0.000000 2.523001 12.500000
v -21.681187 0.000000 0.000000
v -10.787224 0.000000 -18.684019
v 0.000000 -2.452292 -12.500000
v 10.825317 -2.428097 6.250000
v -10.825317 -2.464866 6.250000
v 16.237976 2.486122 3.125000
v -5.412659 2.419780 -15.625000
v -10.825317 2.592623 12.500000
v -10.825317 -2.539192 -12.500000
v 16.237976 -2.553901 -3.125000
v -5.412659 -2.557907 15.625000
v 5.412659 2.533060 -15.625000
v -16.237976 2.545233 3.125000
v 10.825317 2.414129 12.500000
v 10.825317 -2.596289 -12.500000
v 5.412659 -2.505618 15.625000
v -16.237976 -2.584970 -3.125000
v -16.237976 -2.407241 9.375000
v 16.237976 -2.426647 9.375000
v 0.000000 -2.476621 -18.750000
v 0.000000 2.482701 18.750000
v -16.237976 2.572953 -9.375000
v 16.237976 2.452076 -9.375000
v -5.412659 -2.400118 -3.125000
v 5.412659 -2.487825 -3.125000
v 0.000000 -2.470695 6.250000
v 5.412659 2.440705 3.125000
v 0.000000 2.504306 -6.250000
v -5.412659 2.560317 3.125000
vn 0.4949 -0.0139 -0.8688
vn 1.0000 -0.0069 0.0028
vn 0.5044 -0.0142 0.8634
vn -0.5030 -0.0264 0.8639
vn -0.0105 0.9999 -0.0035
vn -0.9999 0.0093 -0.0063
vn -0.5061 0.0095 -0.8624
vn 0.0038 -1.0000 0.0023
vn 0.5035 -0.0031 -0.8640
vn 0.9986 0.0532 -0.0025
vn 0.5037 -0.0084 0.8638
vn -0.5060 0.0186 0.8623
vn 0.0059 1.0000 -0.0026
vn 0.0174 0.9998 0.0128
vn -0.0134 0.9999 0.0102
vn -1.0000 0.0003 -0.0024
vn -0.4915 -0.0513 -0.8693
vn -0.0057 -0.9999 -0.0149
vn -0.0007 -1.0000 -0.0003
vn -0.0041 -1.0000 0.0085
vn 0.0013 -0.9999 0.0121
vn -0.0012 -0.9999 0.0164
vn 0.0038 -0.9999 -0.0131
vn 0.0131 -0.9999 -0.0007
vn 0.0007 -1.0000 -0.0007
vn -0.0192 -0.9998 0.0029
vn -0.0133 -0.9998 -0.0170
vn -0.0013 -1.0000 0.0039
vn -0.0027 -1.0000 0.0089
vn -0.5030 -0.0513 -0.8628
vn -1.0000 0.0003 0.0070
vn 0.0101 0.9999 -0.0126
vn -0.0009 1.0000 0.0064
vn 0.0042 0.9999 -0.0094
vn -0.0046 1.0000 0.0030
vn -0.0054 1.0000 0.0014
vn -0.0093 0.9999 -0.0072
vn 0.0001 1.0000 0.0001
vn 0.0147 0.9999 0.0001
vn -0.0042 1.0000 0.0030
vn -0.5012 0.0186 0.8651
vn 0.5012 -0.0084 0.8653
vn 0.9986 0.0532 0.0030
vn 0.4934 -0.0031 -0.8698
vn 0.0080 -0.9999 0.0102
vn -0.0081 -1.0000 0.0009
vn 0.0039 -1.0000 -0.0060
vn -0.4956 -0.0050 -0.8685
vn -1.0000 0.0045 0.0062
vn -0.0042 1.0000 0.0073
vn -0.0025 1.0000 0.0082
vn -0.0014 1.0000 0.0048
vn -0.4964 -0.0094 0.8681
vn 0.4980 0.0098 0.8671
vn 0.9999 0.0159 -0.0044
vn 0.4972 0.0200 -0.8674
vn 0.5002 0.0158 -0.8658
vn 0.9999 0.0098 0.0062
vn 0.5035 -0.0093 0.8639
vn -0.5084 0.0045 0.8611
vn -1.0000 -0.0050 -0.0035
vn -0.5042 0.0199 -0.8633
vn -0.4981 0.0095 -0.8671
vn -0.9999 0.0093 0.0071
vn -0.4992 -0.0264 0.8661
vn 0.4938 -0.0142 0.8695
vn 1.0000 -0.0069 0.0002
vn 0.5032 -0.0139 -0.8641
vn 0.0064 1.0000 0.0003
vn -0.0014 1.0000 -0.0043
vn -0.0134 0.9999 0.0027
vn 0.0110 0.9999 -0.0024
vn 0.0110 0.9999 0.0004
vn 0.0086 1.0000 -0.0010
vn -0.0059 1.0000 0.0043
vn -0.0042 1.0000 0.0053
vn 0.0101 0.9999 -0.0030
vn -0.0005 -1.0000 -0.0096
vn 0.0048 -1.0000 -0.0065
vn 0.0048 -1.0000 0.0034
vn -0.0005 -1.0000 -0.0072
vn -0.0081 -1.0000 -0.0029
vn 0.0039 -1.0000 0.0041
vn -0.0057 -1.0000 -0.0082
vn 0.0171 -0.9998 0.0050
vn 0.0171 -0.9998 0.0030
vn -0.0133 -0.9999 0.0039
vn -0.0061 -0.9999 0.0080
vn -0.0061 -0.9999 0.0099
vn -0.0025 1.0000 0.0016
vn -0.0105 0.9999 -0.0030
vn 0.0086 0.9999 -0.0140
vn 0.0076 1.0000 0.0004
vn 0.0269 0.9996 -0.0035
vn 0.0064 0.9999 0.0103
vn 0.0080 -0.9999 -0.0148
vn -0.0065 -0.9999 0.0097
vn -0.0110 -0.9999 -0.0035
vn -0.0091 -0.9999 -0.0062
vn -0.0127 -0.9999 -0.0035
vn 0.0153 -0.9999 0.0068
vn 0.0093 -0.9999 0.0060
vn -0.0059 -0.9999 0.0107
vn -0.0126 -0.9999 -0.0085
vn 0.0038 -0.9998 -0.0170
vn -0.0027 -1.0000 0.0039
vn -0.0013 -1.0000 0.0089
vn -0.0060 0.9999 -0.0126
vn 0.0042 1.0000 0.0064
vn -0.0009 1.0000 -0.0094
vn -0.0066 1.0000 0.0065
vn -0.0026 1.0000 -0.0034
vn -0.0121 0.9999 -0.0024
vn -0.0041 1.0000 -0.0072
vn 0.0113 0.9999 -0.0059
vn -0.0007 1.0000 0.0090
vt 0.916667 0.750000
vt 0.833333 0.500000
vt 0.916667 0.500000
vt 0.750000 0.750000
vt 0.666667 0.500000
vt 0.750000 0.500000
vt 0.583333 0.750000
vt 0.500000 0.500000
vt 0.583333 0.500000
vt 0.416667 0.750000
vt 0.333333 0.500000
vt 0.416667 0.500000
vt 0.250000 0.490000
vt 0.198038 0.400000
vt 0.301962 0.400000
vt 0.250000 0.750000
vt 0.166667 0.500000
vt 0.250000 0.500000
vt 0.083333 0.750000
vt -0.000000 0.500000
vt 0.083333 0.500000
vt 0.957846 0.370000
vt 0.905885 0.280000
vt 0.853923 0.370000
vt 0.833333 1.000000
vt 0.916667 1.000000
vt 0.666667 1.000000
vt 0.750000 1.000000
vt 0.500000 1.000000
vt 0.583333 1.000000
vt 0.333333 1.000000
vt 0.416667 1.000000
vt 0.457846 0.250000
vt 0.405885 0.220000
vt 0.457846 0.130000
vt 0.146077 0.430000
vt 0.146077 0.070000
vt 0.146077 0.130000
vt 0.042154 0.130000
vt 0.166667 1.000000
vt 0.250000 1.000000
vt -0.000000 1.000000
vt 0.083333 1.000000
vt 0.646077 0.430000
vt 0.646077 0.370000
vt 0.542154 0.370000
vt 0.957846 0.250000
vt 0.646077 0.070000
vt 0.698038 0.100000
vt 0.750000 0.010000
vt 0.542154 0.250000
vt 0.594115 0.280000
vt 0.646077 0.190000
vt 0.594115 0.160000
vt 0.542154 0.130000
vt 0.853923 0.070000
vt 0.801962 0.100000
vt 0.853923 0.190000
vt 0.905885 0.160000
vt 0.957846 0.130000
vt 0.853923 0.430000
vt 0.750000 0.370000
vt 0.750000 0.430000
vt 0.750000 0.490000
vt 0.353923 0.070000
vt 0.353923 0.130000
vt 0.250000 0.130000
vt 0.250000 0.070000
vt 0.250000 0.010000
vt 0.042154 0.250000
vt 0.094115 0.220000
vt 0.146077 0.310000
vt 0.094115 0.340000
vt 0.042154 0.370000
vt 0.353923 0.430000
vt 0.353923 0.310000
vt 0.405885 0.340000
vt 0.457846 0.370000
vt 1.000000 1.000000
vt 0.698038 0.280000
vt 0.801962 0.280000
vt 0.750000 0.190000
vt 0.301962 0.220000
vt 0.250000 0.310000
vt 0.198038 0.220000
vt 1.000000 0.500000
s 0
f 25/1/1 3/2/1 13/3/1
f 26/4/2 5/5/2 15/6/2
f 27/7/3 7/8/3 17/9/3
f 28/10/4 9/11/4 19/12/4
f 2/13/5 38/14/5 43/15/5
f 32/16/6 11/17/6 21/18/6
f 33/19/7 1/20/7 23/21/7
f 3/22/8 41/23/8 46/24/8
f 4/25/9 25/1/9 14/26/9
f 6/27/10 26/4/10 16/28/10
f 8/29/11 27/7/11 18/30/11
f 10/31/12 28/10/12 20/32/12
f 16/33/13 37/34/13 6/35/13
f 24/36/14 38/14/14 2/13/14
f 20/37/15 39/38/15 10/39/15
f 12/40/16 32/16/16 22/41/16
f 2/42/17 33/19/17 24/43/17
f 23/44/18 40/45/18 11/46/18
f 15/47/19 41/23/19 3/22/19
f 19/48/20 42/49/20 7/50/20
f 21/51/21 48/52/21 36/53/21
f 36/53/22 49/54/22 21/51/22
f 9/55/23 49/54/23 19/48/23
f 17/56/24 47/57/24 35/58/24
f 35/58/25 50/59/25 17/56/25
f 5/60/26 50/59/26 15/47/26
f 13/61/27 46/24/27 34/62/27
f 34/62/28 51/63/28 13/61/28
f 1/64/29 51/63/29 23/44/29
f 12/40/30 24/43/30 33/19/30
f 10/31/31 22/41/31 32/16/31
f 18/65/32 45/66/32 31/67/32
f 31/67/33 52/68/33 18/65/33
f 8/69/34 52/68/34 20/37/34
f 22/70/35 44/71/35 30/72/35
f 30/72/36 53/73/36 22/70/36
f 12/74/37 53/73/37 24/36/37
f 14/75/38 43/15/38 29/76/38
f 29/76/39 54/77/39 14/75/39
f 4/78/40 54/77/40 16/33/40
f 8/29/41 20/32/41 28/10/41
f 6/27/42 18/30/42 27/7/42
f 4/25/43 16/28/43 26/4/43
f 2/79/44 14/26/44 25/1/44
f 34/62/45 55/80/45 40/45/45
f 34/62/46 56/81/46 55/80/46
f 35/58/47 47/57/47 57/82/47
f 33/19/48 11/17/48 12/40/48
f 32/16/49 9/11/49 10/31/49
f 29/76/50 58/83/50 37/34/50
f 29/76/51 59/84/51 58/83/51
f 30/72/52 44/71/52 60/85/52
f 28/10/53 7/8/53 8/29/53
f 27/7/54 5/5/54 6/27/54
f 26/4/55 3/2/55 4/25/55
f 25/1/56 1/86/56 2/79/56
f 4/25/57 3/2/57 25/1/57
f 6/27/58 5/5/58 26/4/58
f 8/29/59 7/8/59 27/7/59
f 10/31/60 9/11/60 28/10/60
f 12/40/61 11/17/61 32/16/61
f 2/42/62 1/20/62 33/19/62
f 33/19/63 23/21/63 11/17/63
f 32/16/64 21/18/64 9/11/64
f 28/10/65 19/12/65 7/8/65
f 27/7/66 17/9/66 5/5/66
f 26/4/67 15/6/67 3/2/67
f 25/1/68 13/3/68 1/86/68
f 60/85/69 39/38/69 31/67/69
f 60/85/70 44/71/70 39/38/70
f 44/71/71 10/39/71 39/38/71
f 58/83/72 60/85/72 31/67/72
f 58/83/73 59/84/73 60/85/73
f 59/84/74 30/72/74 60/85/74
f 37/34/75 45/66/75 6/35/75
f 37/34/76 58/83/76 45/66/76
f 58/83/77 31/67/77 45/66/77
f 57/82/78 42/49/78 36/53/78
f 57/82/79 47/57/79 42/49/79
f 47/57/80 7/50/80 42/49/80
f 55/80/81 57/82/81 36/53/81
f 55/80/82 56/81/82 57/82/82
f 56/81/83 35/58/83 57/82/83
f 40/45/84 48/52/84 11/46/84
f 40/45/85 55/80/85 48/52/85
f 55/80/86 36/53/86 48/52/86
f 46/24/87 56/81/87 34/62/87
f 46/24/88 41/23/88 56/81/88
f 41/23/89 35/58/89 56/81/89
f 43/15/90 59/84/90 29/76/90
f 43/15/91 38/14/91 59/84/91
f 38/14/92 30/72/92 59/84/92
f 16/33/93 29/76/93 37/34/93
f 24/36/94 30/72/94 38/14/94
f 20/37/95 31/67/95 39/38/95
f 23/44/96 34/62/96 40/45/96
f 15/47/97 35/58/97 41/23/97
f 19/48/98 36/53/98 42/49/98
f 21/51/99 11/46/99 48/52/99
f 36/53/100 19/48/100 49/54/100
f 9/55/101 21/51/101 49/54/101
f 17/56/102 7/50/102 47/57/102
f 35/58/103 15/47/103 50/59/103
f 5/60/104 17/56/104 50/59/104
f 13/61/105 3/22/105 46/24/105
f 34/62/106 23/44/106 51/63/106
f 1/64/107 13/61/107 51/63/107
f 18/65/108 6/35/108 45/66/108
f 31/67/109 20/37/109 52/68/109
f 8/69/110 18/65/110 52/68/110
f 22/70/111 10/39/111 44/71/111
f 30/72/112 24/36/112 53/73/112
f 12/74/113 22/70/113 53/73/113
f 14/75/114 2/13/114 43/15/114
f 29/76/115 16/33/115 54/77/115
f 4/78/116 14/75/116 54/77/116
