# Blender 4.3.0
# www.blender.org
o Cylinder
v 0.000000 -4.766004 -27.943607
v 0.000000 2.130370 -24.519844
v 24.174786 -4.743725 -13.957319
v 19.855709 0.904500 -11.463698
v 19.500141 -0.588438 11.258411
v 23.289917 3.957163 13.446441
v 0.000000 -1.274407 23.407932
v 0.000000 3.134295 25.823969
v -20.801523 -1.745229 12.009765
v -20.633917 1.596236 11.912997
v -22.180460 -2.970963 -12.805895
v -22.291908 3.070024 -12.870239
v 11.299997 -3.449350 -19.572170
v 11.294797 3.438949 -19.563162
v 21.769354 -2.618717 0.000000
v 19.491991 0.341380 0.000000
v 11.592058 -4.033466 20.078035
v 10.989766 2.828895 19.034834
v -11.231727 -3.312810 19.453922
v -9.904580 0.658544 17.155235
v -19.447746 -0.297135 0.000000
v -23.902813 4.752154 0.000000
v -11.951334 -4.752009 -20.700317
v -10.944958 2.739279 -18.957224
v 9.120811 0.000000 -15.797709
v 25.488089 0.000000 0.000000
v 12.449589 0.000000 21.563320
v -12.108806 0.000000 20.973068
v 10.825317 3.765762 -6.250000
v -10.825317 1.603348 -6.250000
v 0.000000 1.868637 12.500000
v -25.597513 0.000000 0.000000
v -9.707091 0.000000 -16.813175
v 0.000000 -6.064185 -12.500000
v 10.825317 0.750619 6.250000
v -10.825317 -5.793103 6.250000
v 16.237976 3.552202 3.125000
v -5.412659 0.631653 -15.625000
v -10.825317 1.527215 12.500000
v -10.825317 0.474590 -12.500000
v 16.237976 -3.351997 -3.125000
v -5.412659 -2.395917 15.625000
v 5.412659 3.950349 -15.625000
v -16.237976 5.357452 3.125000
v 10.825317 1.101337 12.500000
v 10.825317 -4.812675 -12.500000
v 5.412659 -5.356299 15.625000
v -16.237976 -2.108297 -3.125000
v -16.237976 0.642168 9.375000
v 16.237976 -1.780712 9.375000
v 0.000000 -3.887918 -18.750000
v 0.000000 -0.345284 18.750000
v -16.237976 -0.111844 -9.375000
v 16.237976 5.936758 -9.375000
v -5.412659 -2.238993 -3.125000
v 5.412659 -6.045951 -3.125000
v 0.000000 0.660041 6.250000
v 5.412659 4.585608 3.125000
v 0.000000 3.523205 -6.250000
v -5.412659 5.111358 3.125000
vn 0.3126 0.7841 -0.5361
vn 0.5568 -0.7906 0.2548
vn 0.1732 -0.3726 0.9117
vn -0.5908 -0.4603 0.6626
vn -0.2931 0.9559 -0.0173
vn -0.0471 -0.9757 0.2138
vn -0.3762 0.6866 -0.6221
vn 0.0206 -0.9896 0.1423
vn 0.2880 -0.7841 -0.5498
vn 0.0547 0.9603 -0.2737
vn 0.3803 0.7177 0.5834
vn 0.0024 0.9852 0.1713
vn 0.4657 0.8127 -0.3501
vn 0.1926 0.9417 0.2759
vn -0.0041 0.9829 0.1842
vn -0.9298 0.3316 -0.1597
vn -0.3654 -0.6705 -0.6457
vn 0.2394 -0.8333 0.4982
vn 0.0419 -0.9866 0.1574
vn 0.1706 -0.9851 0.0233
vn -0.5180 -0.8546 -0.0368
vn -0.6562 -0.6948 0.2943
vn 0.2014 -0.8737 -0.4429
vn 0.4121 -0.8538 -0.3182
vn -0.2542 -0.9183 -0.3036
vn 0.2226 -0.9506 0.2163
vn 0.1130 -0.9770 -0.1808
vn 0.0127 -0.9443 -0.3288
vn 0.0564 -0.9939 0.0949
vn -0.3658 -0.6705 -0.6455
vn -0.8897 0.3173 0.3282
vn 0.0683 0.9641 -0.2566
vn -0.2704 0.9075 0.3215
vn 0.1599 0.8858 -0.4357
vn 0.0640 0.9386 -0.3389
vn -0.0104 0.8841 -0.4672
vn 0.2380 0.8871 0.3954
vn 0.0720 0.9972 -0.0219
vn -0.3900 0.9201 -0.0363
vn 0.8213 0.5680 0.0540
vn -0.2573 0.9662 0.0181
vn 0.2351 0.7124 0.6613
vn 0.0568 0.9971 0.0508
vn 0.3233 -0.7842 -0.5296
vn -0.5164 -0.8549 0.0507
vn -0.3257 -0.9262 0.1899
vn 0.0070 -0.8397 -0.5430
vn -0.3024 -0.0157 -0.9530
vn -0.9243 0.0573 0.3774
vn 0.0950 0.9950 -0.0322
vn -0.0223 0.9948 -0.0999
vn 0.0212 0.9323 -0.3611
vn -0.2213 -0.4687 0.8552
vn 0.5777 -0.6909 0.4347
vn 0.6945 0.6588 -0.2893
vn 0.6927 0.3207 -0.6460
vn 0.2709 0.5545 -0.7868
vn 0.6514 -0.6924 0.3103
vn 0.1763 -0.4731 0.8632
vn -0.7222 0.0562 0.6894
vn -0.9672 -0.0205 -0.2533
vn -0.6288 0.3458 -0.6965
vn -0.3655 0.6867 -0.6284
vn -0.0479 -0.9910 -0.1249
vn -0.2213 -0.4543 0.8629
vn 0.7600 -0.3607 0.5406
vn 0.5619 -0.7979 0.2183
vn 0.3078 0.7841 -0.5389
vn -0.0296 0.9392 0.3420
vn 0.0211 0.9297 0.3676
vn -0.0166 0.9222 0.3864
vn 0.0462 0.9520 0.3026
vn 0.0480 0.9890 -0.1398
vn -0.1687 0.9512 -0.2585
vn -0.2303 0.9657 0.1195
vn 0.0906 0.9495 0.3005
vn 0.0671 0.9473 0.3133
vn 0.5120 -0.8589 0.0156
vn -0.2390 -0.8741 -0.4229
vn -0.2511 -0.9180 0.3069
vn 0.5118 -0.8586 -0.0300
vn -0.2987 -0.8494 0.4351
vn 0.0068 -0.8115 0.5844
vn 0.2914 -0.9520 -0.0940
vn -0.0116 -0.9623 -0.2718
vn -0.0113 -0.9328 -0.3601
vn 0.1146 -0.9913 -0.0642
vn 0.2415 -0.9703 0.0118
vn 0.2103 -0.8452 0.4913
vn -0.0224 0.9992 0.0326
vn -0.2908 0.9486 -0.1247
vn -0.1711 0.9650 -0.1988
vn 0.5220 0.8046 -0.2831
vn 0.3115 0.9467 0.0817
vn -0.0310 0.9814 0.1893
vn -0.4401 -0.7286 0.5248
vn -0.0804 -0.9294 0.3603
vn 0.2710 -0.9445 0.1858
vn -0.2771 -0.9270 0.2527
vn -0.7360 -0.6691 0.1030
vn 0.4357 -0.8981 -0.0592
vn -0.0991 -0.9079 0.4072
vn -0.3582 -0.9247 -0.1287
vn 0.3626 -0.9311 -0.0386
vn -0.0157 -0.9816 -0.1903
vn 0.1210 -0.9374 -0.3264
vn 0.0455 -0.9944 0.0950
vn -0.1987 0.9487 -0.2458
vn 0.0417 0.9418 0.3336
vn -0.2405 0.8710 -0.4284
vn -0.1965 0.9331 0.3011
vn -0.3461 0.9342 0.0868
vn 0.4883 0.8711 -0.0527
vn -0.0350 0.9831 -0.1799
vn -0.0401 0.8518 0.5223
vn 0.6211 0.6364 -0.4574
vt 0.916667 0.750000
vt 0.833333 0.500000
vt 0.916667 0.500000
vt 0.750000 0.750000
vt 0.666667 0.500000
vt 0.750000 0.500000
vt 0.583333 0.750000
vt 0.500000 0.500000
vt 0.583333 0.500000
vt 0.416667 0.750000
vt 0.333333 0.500000
vt 0.416667 0.500000
vt 0.250000 0.490000
vt 0.198038 0.400000
vt 0.301962 0.400000
vt 0.250000 0.750000
vt 0.166667 0.500000
vt 0.250000 0.500000
vt 0.083333 0.750000
vt -0.000000 0.500000
vt 0.083333 0.500000
vt 0.957846 0.370000
vt 0.905885 0.280000
vt 0.853923 0.370000
vt 0.833333 1.000000
vt 0.916667 1.000000
vt 0.666667 1.000000
vt 0.750000 1.000000
vt 0.500000 1.000000
vt 0.583333 1.000000
vt 0.333333 1.000000
vt 0.416667 1.000000
vt 0.457846 0.250000
vt 0.405885 0.220000
vt 0.457846 0.130000
vt 0.146077 0.430000
vt 0.146077 0.070000
vt 0.146077 0.130000
vt 0.042154 0.130000
vt 0.166667 1.000000
vt 0.250000 1.000000
vt -0.000000 1.000000
vt 0.083333 1.000000
vt 0.646077 0.430000
vt 0.646077 0.370000
vt 0.542154 0.370000
vt 0.957846 0.250000
vt 0.646077 0.070000
vt 0.698038 0.100000
vt 0.750000 0.010000
vt 0.542154 0.250000
vt 0.594115 0.280000
vt 0.646077 0.190000
vt 0.594115 0.160000
vt 0.542154 0.130000
vt 0.853923 0.070000
vt 0.801962 0.100000
vt 0.853923 0.190000
vt 0.905885 0.160000
vt 0.957846 0.130000
vt 0.853923 0.430000
vt 0.750000 0.370000
vt 0.750000 0.430000
vt 0.750000 0.490000
vt 0.353923 0.070000
vt 0.353923 0.130000
vt 0.250000 0.130000
vt 0.250000 0.070000
vt 0.250000 0.010000
vt 0.042154 0.250000
vt 0.094115 0.220000
vt 0.146077 0.310000
vt 0.094115 0.340000
vt 0.042154 0.370000
vt 0.353923 0.430000
vt 0.353923 0.310000
vt 0.405885 0.340000
vt 0.457846 0.370000
vt 1.000000 1.000000
vt 0.698038 0.280000
vt 0.801962 0.280000
vt 0.750000 0.190000
vt 0.301962 0.220000
vt 0.250000 0.310000
vt 0.198038 0.220000
vt 1.000000 0.500000
s 0
f 25/1/1 3/2/1 13/3/1
f 26/4/2 5/5/2 15/6/2
f 27/7/3 7/8/3 17/9/3
f 28/10/4 9/11/4 19/12/4
f 2/13/5 38/14/5 43/15/5
f 32/16/6 11/17/6 21/18/6
f 33/19/7 1/20/7 23/21/7
f 3/22/8 41/23/8 46/24/8
f 4/25/9 25/1/9 14/26/9
f 6/27/10 26/4/10 16/28/10
f 8/29/11 27/7/11 18/30/11
f 10/31/12 28/10/12 20/32/12
f 16/33/13 37/34/13 6/35/13
f 24/36/14 38/14/14 2/13/14
f 20/37/15 39/38/15 10/39/15
f 12/40/16 32/16/16 22/41/16
f 2/42/17 33/19/17 24/43/17
f 23/44/18 40/45/18 11/46/18
f 15/47/19 41/23/19 3/22/19
f 19/48/20 42/49/20 7/50/20
f 21/51/21 48/52/21 36/53/21
f 36/53/22 49/54/22 21/51/22
f 9/55/23 49/54/23 19/48/23
f 17/56/24 47/57/24 35/58/24
f 35/58/25 50/59/25 17/56/25
f 5/60/26 50/59/26 15/47/26
f 13/61/27 46/24/27 34/62/27
f 34/62/28 51/63/28 13/61/28
f 1/64/29 51/63/29 23/44/29
f 12/40/30 24/43/30 33/19/30
f 10/31/31 22/41/31 32/16/31
f 18/65/32 45/66/32 31/67/32
f 31/67/33 52/68/33 18/65/33
f 8/69/34 52/68/34 20/37/34
f 22/70/35 44/71/35 30/72/35
f 30/72/36 53/73/36 22/70/36
f 12/74/37 53/73/37 24/36/37
f 14/75/38 43/15/38 29/76/38
f 29/76/39 54/77/39 14/75/39
f 4/78/40 54/77/40 16/33/40
f 8/29/41 20/32/41 28/10/41
f 6/27/42 18/30/42 27/7/42
f 4/25/43 16/28/43 26/4/43
f 2/79/44 14/26/44 25/1/44
f 34/62/45 55/80/45 40/45/45
f 34/62/46 56/81/46 55/80/46
f 35/58/47 47/57/47 57/82/47
f 33/19/48 11/17/48 12/40/48
f 32/16/49 9/11/49 10/31/49
f 29/76/50 58/83/50 37/34/50
f 29/76/51 59/84/51 58/83/51
f 30/72/52 44/71/52 60/85/52
f 28/10/53 7/8/53 8/29/53
f 27/7/54 5/5/54 6/27/54
f 26/4/55 3/2/55 4/25/55
f 25/1/56 1/86/56 2/79/56
f 4/25/57 3/2/57 25/1/57
f 6/27/58 5/5/58 26/4/58
f 8/29/59 7/8/59 27/7/59
f 10/31/60 9/11/60 28/10/60
f 12/40/61 11/17/61 32/16/61
f 2/42/62 1/20/62 33/19/62
f 33/19/63 23/21/63 11/17/63
f 32/16/64 21/18/64 9/11/64
f 28/10/65 19/12/65 7/8/65
f 27/7/66 17/9/66 5/5/66
f 26/4/67 15/6/67 3/2/67
f 25/1/68 13/3/68 1/86/68
f 60/85/69 39/38/69 31/67/69
f 60/85/70 44/71/70 39/38/70
f 44/71/71 10/39/71 39/38/71
f 58/83/72 60/85/72 31/67/72
f 58/83/73 59/84/73 60/85/73
f 59/84/74 30/72/74 60/85/74
f 37/34/75 45/66/75 6/35/75
f 37/34/76 58/83/76 45/66/76
f 58/83/77 31/67/77 45/66/77
f 57/82/78 42/49/78 36/53/78
f 57/82/79 47/57/79 42/49/79
f 47/57/80 7/50/80 42/49/80
f 55/80/81 57/82/81 36/53/81
f 55/80/82 56/81/82 57/82/82
f 56/81/83 35/58/83 57/82/83
f 40/45/84 48/52/84 11/46/84
f 40/45/85 55/80/85 48/52/85
f 55/80/86 36/53/86 48/52/86
f 46/24/87 56/81/87 34/62/87
f 46/24/88 41/23/88 56/81/88
f 41/23/89 35/58/89 56/81/89
f 43/15/90 59/84/90 29/76/90
f 43/15/91 38/14/91 59/84/91
f 38/14/92 30/72/92 59/84/92
f 16/33/93 29/76/93 37/34/93
f 24/36/94 30/72/94 38/14/94
f 20/37/95 31/67/95 39/38/95
f 23/44/96 34/62/96 40/45/96
f 15/47/97 35/58/97 41/23/97
f 19/48/98 36/53/98 42/49/98
f 21/51/99 11/46/99 48/52/99
f 36/53/100 19/48/100 49/54/100
f 9/55/101 21/51/101 49/54/101
f 17/56/102 7/50/102 47/57/102
f 35/58/103 15/47/103 50/59/103
f 5/60/104 17/56/104 50/59/104
f 13/61/105 3/22/105 46/24/105
f 34/62/106 23/44/106 51/63/106
f 1/64/107 13/61/107 51/63/107
f 18/65/108 6/35/108 45/66/108
f 31/67/109 20/37/109 52/68/109
f 8/69/110 18/65/110 52/68/110
f 22/70/111 10/39/111 44/71/111
f 30/72/112 24/36/112 53/73/112
f 12/74/113 22/70/113 53/73/113
f 14/75/114 2/13/114 43/15/114
f 29/76/115 16/33/115 54/77/115
f 4/78/116 14/75/116 54/77/116
