# Blender 4.3.0
# www.blender.org
o Cylinder
v 0.000000 -1.934852 -24.265856
v 0.000000 3.831057 -26.729067
v 19.435286 -0.530769 -11.220967
v 20.314510 1.312326 -11.728588
v 24.305498 -4.859893 14.032786
v 20.918850 1.849514 12.077504
v 0.000000 -4.893809 28.109600
v 0.000000 3.970300 26.909964
v -19.471046 -0.562575 11.241613
v -22.132830 2.928624 12.778396
v -21.635519 -2.486564 -12.491273
v -19.294228 0.405403 -11.139527
v 10.332228 -1.513831 -17.895945
v 10.565735 1.980840 -18.300390
v 21.142220 -1.991590 0.000000
v 23.298506 4.147853 0.000000
v 11.869200 -4.587743 20.558058
v 9.823418 0.496222 17.014660
v -9.808411 -0.466208 16.988667
v -10.617422 2.084213 18.389914
v -22.912144 -3.761495 0.000000
v -22.119614 2.968973 0.000000
v -12.092091 -5.033520 -20.944117
v -11.848184 4.545711 -20.521656
v 12.707740 0.000000 -22.010452
v 24.767490 0.000000 0.000000
v -10.527704 0.000000 18.234520
v 10.825317 4.526876 -6.250000
v -10.825317 4.382127 -6.250000
v 0.000000 -0.448479 12.500000
v -22.500996 0.000000 0.000000
v -11.876058 0.000000 -20.569937
v 0.000000 -0.691574 -12.500000
v 10.825317 -5.713251 6.250000
v -10.825317 -1.354135 6.250000
v 16.237976 0.206487 3.125000
v -5.412659 2.024350 -15.625000
v -10.825317 4.485901 12.500000
v -10.825317 -3.614157 -12.500000
v 16.237976 -3.461637 -3.125000
v -5.412659 -4.345531 15.625000
v 5.412659 6.240870 -15.625000
v -16.237976 0.000067 3.125000
v 10.825317 3.684420 12.500000
v 10.825317 -3.671624 -12.500000
v 5.412659 -2.854044 15.625000
v -16.237976 -6.421913 -3.125000
v -16.237976 -2.160258 9.375000
v 16.237976 -3.912890 9.375000
v 0.000000 -3.027473 -18.750000
v 0.000000 0.416799 18.750000
v -16.237976 4.458521 -9.375000
v 16.237976 1.513973 -9.375000
v -5.412659 -2.667085 -3.125000
v 5.412659 0.393455 -3.125000
v 0.000000 -5.796478 6.250000
v 5.412659 2.180497 3.125000
v 0.000000 2.844013 -6.250000
v -5.412659 6.145525 3.125000
vn 0.2512 -0.9464 -0.2032
vn 0.4627 -0.8423 -0.2765
vn 0.4067 0.6268 0.6646
vn -0.1505 -0.9513 0.2691
vn -0.3628 0.9315 -0.0253
vn -0.9900 0.1082 -0.0901
vn -0.2837 0.0832 -0.9553
vn 0.3611 -0.9134 -0.1880
vn 0.2791 0.9047 -0.3219
vn 0.9146 0.3239 0.2419
vn -0.4415 -0.0856 0.8932
vn -0.4595 0.8848 0.0778
vn 0.1860 0.9514 0.2455
vn -0.1171 0.9182 0.3785
vn -0.9549 0.1227 -0.2704
vn -0.4635 0.0123 -0.8860
vn -0.1019 -0.9784 0.1797
vn 0.3841 -0.9063 -0.1764
vn -0.6035 -0.7640 0.2281
vn -0.0975 -0.8509 0.5162
vn 0.1726 -0.9840 0.0452
vn -0.2203 -0.8961 0.3854
vn -0.3271 -0.9399 0.0978
vn 0.2868 -0.9565 0.0543
vn 0.0007 -0.9797 -0.2004
vn -0.2496 -0.9068 -0.3398
vn 0.1077 -0.9313 0.3481
vn 0.1942 -0.9623 -0.1906
vn -0.7857 0.0114 -0.6185
vn -0.9919 0.1274 -0.0006
vn -0.3085 0.8079 0.5021
vn -0.0322 0.9900 -0.1371
vn 0.1556 0.9057 -0.3944
vn 0.1673 0.8526 0.4951
vn -0.0565 0.9909 0.1220
vn -0.7071 0.6522 -0.2734
vn 0.5688 0.8022 -0.1817
vn 0.3866 0.9006 -0.1986
vn -0.0765 0.9734 -0.2159
vn -0.6144 -0.0849 0.7844
vn 0.8976 0.3179 -0.3052
vn 0.3670 0.8919 -0.2643
vn 0.2603 -0.9641 -0.0529
vn 0.2718 -0.9613 -0.0457
vn 0.0073 -0.9553 0.2956
vn -0.5638 0.6773 -0.4726
vn -0.7465 -0.6436 0.1690
vn 0.1693 0.9286 0.3302
vn -0.1517 0.9759 0.1567
vn -0.4901 0.8633 0.1206
vn -0.6552 0.1013 0.7487
vn 0.3277 0.4130 0.8497
vn 0.8007 -0.4805 -0.3578
vn 0.2177 -0.3834 -0.8975
vn 0.7327 -0.4819 -0.4806
vn 0.8510 0.4869 0.1966
vn 0.7227 0.0927 0.6849
vn -0.4556 -0.6260 0.6330
vn -0.7205 0.6689 -0.1831
vn -0.3305 -0.3708 -0.8679
vn -0.6480 0.0841 -0.7570
vn -0.9589 0.1048 0.2637
vn -0.4669 -0.8822 0.0606
vn 0.3727 0.6269 0.6842
vn 0.4733 -0.8615 -0.1841
vn 0.1879 -0.9520 -0.2418
vn 0.3850 0.8447 0.3718
vn -0.4895 0.8623 -0.1300
vn -0.1359 0.9220 -0.3627
vn 0.3122 0.8525 0.4193
vn 0.3410 0.9309 -0.1310
vn 0.1359 0.9564 -0.2584
vn 0.1622 0.9520 -0.2595
vn 0.1736 0.9518 -0.2529
vn -0.3561 0.9328 0.0560
vn -0.3786 -0.9225 -0.0758
vn 0.1330 -0.9650 0.2261
vn 0.1358 -0.9855 -0.1021
vn -0.3781 -0.9214 -0.0893
vn 0.2454 -0.8681 -0.4315
vn 0.0064 -0.8362 -0.5484
vn -0.0979 -0.9364 -0.3370
vn 0.3263 -0.9407 -0.0933
vn 0.3120 -0.8994 0.3061
vn -0.2566 -0.9320 0.2560
vn -0.3280 -0.9210 0.2100
vn -0.3093 -0.8686 -0.3872
vn -0.1483 0.9541 0.2601
vn -0.3600 0.9243 0.1270
vn 0.1387 0.9764 -0.1655
vn -0.2328 0.8252 0.5147
vn 0.3755 0.9267 -0.0163
vn 0.3907 0.8571 0.3357
vn 0.2587 -0.9582 0.1223
vn 0.3139 -0.9483 -0.0465
vn -0.6349 -0.7627 0.1232
vn -0.4206 -0.8972 -0.1346
vn 0.1829 -0.9811 0.0638
vn -0.2542 -0.9069 0.3359
vn -0.1050 -0.9732 -0.2045
vn 0.3272 -0.9447 -0.0224
vn -0.0670 -0.9940 -0.0861
vn 0.3664 -0.8519 -0.3742
vn 0.0915 -0.9328 0.3486
vn 0.1578 -0.9687 -0.1919
vn 0.1680 0.7873 0.5933
vn 0.1582 0.9781 -0.1354
vn -0.0777 0.9141 -0.3981
vn 0.4492 0.8934 0.0033
vn 0.0078 0.9999 0.0109
vn -0.6823 0.6555 -0.3239
vn 0.4548 0.7982 -0.3949
vn 0.2398 0.8725 -0.4258
vn 0.0582 0.9982 0.0152
vt 0.916667 0.750000
vt 0.833333 0.500000
vt 0.916667 0.500000
vt 0.750000 0.750000
vt 0.666667 0.500000
vt 0.750000 0.500000
vt 0.583333 0.750000
vt 0.500000 0.500000
vt 0.583333 0.500000
vt 0.416667 0.750000
vt 0.333333 0.500000
vt 0.416667 0.500000
vt 0.250000 0.490000
vt 0.198038 0.400000
vt 0.301962 0.400000
vt 0.250000 0.750000
vt 0.166667 0.500000
vt 0.250000 0.500000
vt 0.083333 0.750000
vt -0.000000 0.500000
vt 0.083333 0.500000
vt 0.957846 0.370000
vt 0.905885 0.280000
vt 0.853923 0.370000
vt 0.833333 1.000000
vt 0.916667 1.000000
vt 0.666667 1.000000
vt 0.750000 1.000000
vt 0.333333 1.000000
vt 0.416667 1.000000
vt 0.457846 0.250000
vt 0.405885 0.220000
vt 0.457846 0.130000
vt 0.146077 0.430000
vt 0.146077 0.070000
vt 0.146077 0.130000
vt 0.042154 0.130000
vt 0.166667 1.000000
vt 0.250000 1.000000
vt -0.000000 1.000000
vt 0.083333 1.000000
vt 0.646077 0.430000
vt 0.646077 0.370000
vt 0.542154 0.370000
vt 0.957846 0.250000
vt 0.646077 0.070000
vt 0.698038 0.100000
vt 0.750000 0.010000
vt 0.542154 0.250000
vt 0.594115 0.280000
vt 0.646077 0.190000
vt 0.594115 0.160000
vt 0.542154 0.130000
vt 0.853923 0.070000
vt 0.801962 0.100000
vt 0.853923 0.190000
vt 0.905885 0.160000
vt 0.957846 0.130000
vt 0.853923 0.430000
vt 0.750000 0.370000
vt 0.750000 0.430000
vt 0.750000 0.490000
vt 0.353923 0.070000
vt 0.353923 0.130000
vt 0.250000 0.130000
vt 0.250000 0.070000
vt 0.250000 0.010000
vt 0.042154 0.250000
vt 0.094115 0.220000
vt 0.146077 0.310000
vt 0.094115 0.340000
vt 0.042154 0.370000
vt 0.353923 0.430000
vt 0.353923 0.310000
vt 0.405885 0.340000
vt 0.457846 0.370000
vt 0.500000 1.000000
vt 1.000000 1.000000
vt 0.698038 0.280000
vt 0.801962 0.280000
vt 0.750000 0.190000
vt 0.301962 0.220000
vt 0.250000 0.310000
vt 0.198038 0.220000
vt 1.000000 0.500000
s 0
f 25/1/1 3/2/1 13/3/1
f 26/4/2 5/5/2 15/6/2
f 18/7/3 7/8/3 17/9/3
f 27/10/4 9/11/4 19/12/4
f 2/13/5 37/14/5 42/15/5
f 31/16/6 11/17/6 21/18/6
f 32/19/7 1/20/7 23/21/7
f 3/22/8 40/23/8 45/24/8
f 4/25/9 25/1/9 14/26/9
f 6/27/10 26/4/10 16/28/10
f 10/29/11 27/10/11 20/30/11
f 16/31/12 36/32/12 6/33/12
f 24/34/13 37/14/13 2/13/13
f 20/35/14 38/36/14 10/37/14
f 12/38/15 31/16/15 22/39/15
f 2/40/16 32/19/16 24/41/16
f 23/42/17 39/43/17 11/44/17
f 15/45/18 40/23/18 3/22/18
f 19/46/19 41/47/19 7/48/19
f 21/49/20 47/50/20 35/51/20
f 35/51/21 48/52/21 21/49/21
f 9/53/22 48/52/22 19/46/22
f 17/54/23 46/55/23 34/56/23
f 34/56/24 49/57/24 17/54/24
f 5/58/25 49/57/25 15/45/25
f 13/59/26 45/24/26 33/60/26
f 33/60/27 50/61/27 13/59/27
f 1/62/28 50/61/28 23/42/28
f 12/38/29 24/41/29 32/19/29
f 10/29/30 22/39/30 31/16/30
f 18/63/31 44/64/31 30/65/31
f 30/65/32 51/66/32 18/63/32
f 8/67/33 51/66/33 20/35/33
f 22/68/34 43/69/34 29/70/34
f 29/70/35 52/71/35 22/68/35
f 12/72/36 52/71/36 24/34/36
f 14/73/37 42/15/37 28/74/37
f 28/74/38 53/75/38 14/73/38
f 4/76/39 53/75/39 16/31/39
f 8/77/40 20/30/40 27/10/40
f 4/25/41 16/28/41 26/4/41
f 2/78/42 14/26/42 25/1/42
f 33/60/43 54/79/43 39/43/43
f 33/60/44 55/80/44 54/79/44
f 34/56/45 46/55/45 56/81/45
f 32/19/46 11/17/46 12/38/46
f 31/16/47 9/11/47 10/29/47
f 28/74/48 57/82/48 36/32/48
f 28/74/49 58/83/49 57/82/49
f 29/70/50 43/69/50 59/84/50
f 27/10/51 7/8/51 8/77/51
f 18/7/52 5/5/52 6/27/52
f 26/4/53 3/2/53 4/25/53
f 25/1/54 1/85/54 2/78/54
f 4/25/55 3/2/55 25/1/55
f 6/27/56 5/5/56 26/4/56
f 8/77/57 7/8/57 18/7/57
f 10/29/58 9/11/58 27/10/58
f 12/38/59 11/17/59 31/16/59
f 2/40/60 1/20/60 32/19/60
f 32/19/61 23/21/61 11/17/61
f 31/16/62 21/18/62 9/11/62
f 27/10/63 19/12/63 7/8/63
f 18/7/64 17/9/64 5/5/64
f 26/4/65 15/6/65 3/2/65
f 25/1/66 13/3/66 1/85/66
f 59/84/67 38/36/67 30/65/67
f 59/84/68 43/69/68 38/36/68
f 43/69/69 10/37/69 38/36/69
f 57/82/70 59/84/70 30/65/70
f 57/82/71 58/83/71 59/84/71
f 58/83/72 29/70/72 59/84/72
f 36/32/73 44/64/73 6/33/73
f 36/32/74 57/82/74 44/64/74
f 57/82/75 30/65/75 44/64/75
f 56/81/76 41/47/76 35/51/76
f 56/81/77 46/55/77 41/47/77
f 46/55/78 7/48/78 41/47/78
f 54/79/79 56/81/79 35/51/79
f 54/79/80 55/80/80 56/81/80
f 55/80/81 34/56/81 56/81/81
f 39/43/82 47/50/82 11/44/82
f 39/43/83 54/79/83 47/50/83
f 54/79/84 35/51/84 47/50/84
f 45/24/85 55/80/85 33/60/85
f 45/24/86 40/23/86 55/80/86
f 40/23/87 34/56/87 55/80/87
f 42/15/88 58/83/88 28/74/88
f 42/15/89 37/14/89 58/83/89
f 37/14/90 29/70/90 58/83/90
f 16/31/91 28/74/91 36/32/91
f 24/34/92 29/70/92 37/14/92
f 20/35/93 30/65/93 38/36/93
f 23/42/94 33/60/94 39/43/94
f 15/45/95 34/56/95 40/23/95
f 19/46/96 35/51/96 41/47/96
f 21/49/97 11/44/97 47/50/97
f 35/51/98 19/46/98 48/52/98
f 9/53/99 21/49/99 48/52/99
f 17/54/100 7/48/100 46/55/100
f 34/56/101 15/45/101 49/57/101
f 5/58/102 17/54/102 49/57/102
f 13/59/103 3/22/103 45/24/103
f 33/60/104 23/42/104 50/61/104
f 1/62/105 13/59/105 50/61/105
f 18/63/106 6/33/106 44/64/106
f 30/65/107 20/35/107 51/66/107
f 8/67/108 18/63/108 51/66/108
f 22/68/109 10/37/109 43/69/109
f 29/70/110 24/34/110 52/71/110
f 12/72/111 22/68/111 52/71/111
f 14/73/112 2/13/112 42/15/112
f 28/74/113 16/31/113 53/75/113
f 4/76/114 14/73/114 53/75/114
