# Blender 4.3.0
# www.blender.org
o Cylinder
v 0.000000 -4.084033 -27.057707
v 0.000000 2.817241 -25.412102
v 24.120935 -4.695857 -13.926229
v 24.386196 4.931625 -14.079377
v 20.662174 -1.621363 11.929312
v 21.873804 2.698376 12.628847
v 0.000000 -4.610227 27.741220
v 0.000000 4.413442 27.485619
v -24.022118 -4.607998 13.869176
v -23.686222 4.309439 13.675247
v -22.828714 -3.547198 -13.180164
v -22.421516 3.185233 -12.945069
v 11.765395 -4.380136 -20.378263
v 10.916777 2.682917 -18.908413
v 21.542078 -2.391443 0.000000
v 20.055557 0.904940 0.000000
v 10.388012 -1.625399 17.992565
v 10.892176 2.633714 18.865801
v -11.833481 -4.516305 20.496191
v -10.926465 2.702293 18.925192
v -19.351913 -0.201303 0.000000
v -22.132641 2.982001 0.000000
v -10.636563 -2.122496 -18.423069
v -10.564962 1.979296 -18.299053
v 10.298203 0.000000 -17.837011
v 21.778021 0.000000 0.000000
v 10.968531 0.000000 18.998053
v -9.887772 0.000000 17.126123
v 10.825317 3.457889 -6.250000
v -10.825317 3.511548 -6.250000
v 0.000000 3.633626 12.500000
v -21.928177 0.000000 0.000000
v -10.253641 0.000000 -17.759829
v 0.000000 -4.317847 -12.500000
v 10.825317 -1.047411 6.250000
v -10.825317 -0.403221 6.250000
v 16.237976 6.383584 3.125000
v -5.412659 5.580201 -15.625000
v -10.825317 1.922294 12.500000
v -10.825317 1.131335 -12.500000
v 16.237976 -0.351835 -3.125000
v -5.412659 -0.359800 15.625000
v 5.412659 1.928081 -15.625000
v -16.237976 6.392880 3.125000
v 10.825317 5.007242 12.500000
v 10.825317 -1.520120 -12.500000
v 5.412659 -5.377026 15.625000
v -16.237976 -6.078562 -3.125000
v -16.237976 -3.728186 9.375000
v 16.237976 0.570113 9.375000
v 0.000000 -0.195843 -18.750000
v 0.000000 1.729483 18.750000
v -16.237976 5.947921 -9.375000
v 16.237976 6.405599 -9.375000
v -5.412659 -0.558454 -3.125000
v 5.412659 -0.732536 -3.125000
v 0.000000 -2.094774 6.250000
v 5.412659 2.067981 3.125000
v 0.000000 6.462237 -6.250000
v -5.412659 4.490339 3.125000
vn 0.3957 0.5564 -0.7306
vn 0.9920 -0.0979 0.0795
vn 0.6487 -0.5543 0.5215
vn -0.3657 0.6527 0.6635
vn 0.3184 0.9437 -0.0903
vn -0.0751 -0.9616 0.2639
vn -0.5549 0.3377 -0.7603
vn -0.2019 -0.9508 0.2350
vn 0.3676 -0.4168 -0.8314
vn 0.4567 0.8693 -0.1892
vn 0.6253 0.0572 0.7783
vn -0.3662 -0.6091 0.7035
vn 0.7478 0.6338 -0.1977
vn -0.3559 0.8292 -0.4309
vn 0.1710 0.9784 -0.1161
vn -0.9974 -0.0684 0.0212
vn -0.5163 -0.2998 -0.8022
vn 0.2981 -0.8326 0.4669
vn -0.3974 -0.9144 0.0777
vn 0.2488 -0.8739 -0.4177
vn -0.4835 -0.5967 0.6404
vn 0.2870 -0.8613 -0.4193
vn 0.0583 -0.9939 -0.0935
vn 0.6070 -0.7945 -0.0165
vn 0.3049 -0.9517 -0.0355
vn -0.4548 -0.8903 0.0239
vn 0.2338 -0.9046 0.3563
vn -0.3495 -0.7821 -0.5158
vn 0.1744 -0.8918 0.4174
vn -0.4178 -0.2994 -0.8578
vn -0.9920 -0.0680 -0.1061
vn -0.1180 0.9300 0.3480
vn -0.0822 0.9534 0.2905
vn 0.0801 0.9528 -0.2927
vn -0.2747 0.8631 -0.4239
vn 0.1768 0.9010 0.3962
vn -0.1218 0.8759 -0.4669
vn -0.1715 0.9833 -0.0614
vn -0.5024 0.8628 -0.0565
vn 0.3622 0.8608 0.3576
vn -0.4278 -0.6091 0.6678
vn 0.4928 0.0579 0.8682
vn 0.4324 0.8230 0.3684
vn 0.4610 -0.4187 -0.7824
vn -0.4475 -0.8889 0.0981
vn -0.0150 -0.9310 0.3647
vn 0.0893 -0.9229 -0.3746
vn -0.3551 0.0541 -0.9333
vn -0.9898 0.0343 -0.1381
vn -0.3692 0.9262 -0.0759
vn 0.2563 0.9236 0.2849
vn 0.1696 0.9653 -0.1987
vn -0.7274 0.0194 0.6860
vn 0.5349 -0.2792 0.7975
vn 0.9845 -0.0244 0.1738
vn 0.6145 0.1830 -0.7674
vn 0.2650 -0.0226 -0.9640
vn 0.9593 -0.2775 0.0520
vn 0.6174 0.0223 0.7863
vn -0.2337 0.0299 0.9718
vn -0.9969 0.0585 0.0524
vn -0.6197 0.1820 -0.7634
vn -0.4048 0.3385 -0.8494
vn -0.0737 -0.9430 -0.3244
vn -0.3918 0.6527 0.6484
vn 0.4137 -0.5812 0.7007
vn 0.9757 -0.0963 0.1966
vn 0.4207 0.5566 -0.7164
vn -0.1537 0.9720 0.1775
vn 0.1624 0.9238 0.3468
vn 0.2012 0.9242 0.3246
vn 0.2182 0.9752 -0.0369
vn 0.2073 0.9263 0.3145
vn -0.2626 0.9635 0.0510
vn 0.1951 0.9479 0.2518
vn -0.3692 0.9261 -0.0772
vn -0.1224 0.9650 -0.2319
vn -0.1537 -0.9837 0.0933
vn -0.4193 -0.9048 -0.0747
vn -0.4170 -0.8997 -0.1293
vn -0.1540 -0.9854 -0.0726
vn -0.0159 -0.9881 -0.1528
vn 0.0959 -0.9914 -0.0887
vn 0.3480 -0.8294 -0.4369
vn 0.4184 -0.8205 -0.3895
vn 0.4378 -0.8585 0.2670
vn 0.2441 -0.9444 0.2203
vn 0.0350 -0.9940 0.1037
vn 0.0351 -0.9979 -0.0538
vn 0.2553 0.9199 -0.2975
vn 0.3083 0.9139 -0.2640
vn -0.2625 0.9630 0.0609
vn 0.5350 0.6679 -0.5173
vn -0.5268 0.8417 -0.1184
vn -0.1550 0.9804 -0.1215
vn -0.4059 -0.8064 0.4301
vn -0.2410 -0.9477 -0.2095
vn 0.4015 -0.8871 -0.2277
vn -0.7429 -0.5755 0.3420
vn 0.4120 -0.8828 -0.2257
vn -0.0823 -0.9415 -0.3269
vn 0.4932 -0.8261 0.2726
vn 0.0822 -0.9360 0.3422
vn -0.2244 -0.8970 -0.3809
vn -0.1884 -0.9301 0.3152
vn 0.1331 -0.8274 -0.5457
vn -0.2548 -0.8758 0.4099
vn 0.1885 0.9208 0.3414
vn 0.0895 0.9528 0.2903
vn -0.0760 0.9531 -0.2928
vn -0.4411 0.8871 -0.1362
vn 0.4569 0.8836 -0.1025
vn -0.4191 0.9076 0.0236
vn -0.0618 0.9903 0.1241
vn -0.1381 0.8287 0.5424
vn -0.0316 0.9369 -0.3482
vt 0.916667 0.750000
vt 0.833333 0.500000
vt 0.916667 0.500000
vt 0.750000 0.750000
vt 0.666667 0.500000
vt 0.750000 0.500000
vt 0.583333 0.750000
vt 0.500000 0.500000
vt 0.583333 0.500000
vt 0.416667 0.750000
vt 0.333333 0.500000
vt 0.416667 0.500000
vt 0.250000 0.490000
vt 0.198038 0.400000
vt 0.301962 0.400000
vt 0.250000 0.750000
vt 0.166667 0.500000
vt 0.250000 0.500000
vt 0.083333 0.750000
vt -0.000000 0.500000
vt 0.083333 0.500000
vt 0.957846 0.370000
vt 0.905885 0.280000
vt 0.853923 0.370000
vt 0.833333 1.000000
vt 0.916667 1.000000
vt 0.666667 1.000000
vt 0.750000 1.000000
vt 0.500000 1.000000
vt 0.583333 1.000000
vt 0.333333 1.000000
vt 0.416667 1.000000
vt 0.457846 0.250000
vt 0.405885 0.220000
vt 0.457846 0.130000
vt 0.146077 0.430000
vt 0.146077 0.070000
vt 0.146077 0.130000
vt 0.042154 0.130000
vt 0.166667 1.000000
vt 0.250000 1.000000
vt -0.000000 1.000000
vt 0.083333 1.000000
vt 0.646077 0.430000
vt 0.646077 0.370000
vt 0.542154 0.370000
vt 0.957846 0.250000
vt 0.646077 0.070000
vt 0.698038 0.100000
vt 0.750000 0.010000
vt 0.542154 0.250000
vt 0.594115 0.280000
vt 0.646077 0.190000
vt 0.594115 0.160000
vt 0.542154 0.130000
vt 0.853923 0.070000
vt 0.801962 0.100000
vt 0.853923 0.190000
vt 0.905885 0.160000
vt 0.957846 0.130000
vt 0.853923 0.430000
vt 0.750000 0.370000
vt 0.750000 0.430000
vt 0.750000 0.490000
vt 0.353923 0.070000
vt 0.353923 0.130000
vt 0.250000 0.130000
vt 0.250000 0.070000
vt 0.250000 0.010000
vt 0.042154 0.250000
vt 0.094115 0.220000
vt 0.146077 0.310000
vt 0.094115 0.340000
vt 0.042154 0.370000
vt 0.353923 0.430000
vt 0.353923 0.310000
vt 0.405885 0.340000
vt 0.457846 0.370000
vt 1.000000 1.000000
vt 0.698038 0.280000
vt 0.801962 0.280000
vt 0.750000 0.190000
vt 0.301962 0.220000
vt 0.250000 0.310000
vt 0.198038 0.220000
vt 1.000000 0.500000
s 0
f 25/1/1 3/2/1 13/3/1
f 26/4/2 5/5/2 15/6/2
f 27/7/3 7/8/3 17/9/3
f 28/10/4 9/11/4 19/12/4
f 2/13/5 38/14/5 43/15/5
f 32/16/6 11/17/6 21/18/6
f 33/19/7 1/20/7 23/21/7
f 3/22/8 41/23/8 46/24/8
f 4/25/9 25/1/9 14/26/9
f 6/27/10 26/4/10 16/28/10
f 8/29/11 27/7/11 18/30/11
f 10/31/12 28/10/12 20/32/12
f 16/33/13 37/34/13 6/35/13
f 24/36/14 38/14/14 2/13/14
f 20/37/15 39/38/15 10/39/15
f 12/40/16 32/16/16 22/41/16
f 2/42/17 33/19/17 24/43/17
f 23/44/18 40/45/18 11/46/18
f 15/47/19 41/23/19 3/22/19
f 19/48/20 42/49/20 7/50/20
f 21/51/21 48/52/21 36/53/21
f 36/53/22 49/54/22 21/51/22
f 9/55/23 49/54/23 19/48/23
f 17/56/24 47/57/24 35/58/24
f 35/58/25 50/59/25 17/56/25
f 5/60/26 50/59/26 15/47/26
f 13/61/27 46/24/27 34/62/27
f 34/62/28 51/63/28 13/61/28
f 1/64/29 51/63/29 23/44/29
f 12/40/30 24/43/30 33/19/30
f 10/31/31 22/41/31 32/16/31
f 18/65/32 45/66/32 31/67/32
f 31/67/33 52/68/33 18/65/33
f 8/69/34 52/68/34 20/37/34
f 22/70/35 44/71/35 30/72/35
f 30/72/36 53/73/36 22/70/36
f 12/74/37 53/73/37 24/36/37
f 14/75/38 43/15/38 29/76/38
f 29/76/39 54/77/39 14/75/39
f 4/78/40 54/77/40 16/33/40
f 8/29/41 20/32/41 28/10/41
f 6/27/42 18/30/42 27/7/42
f 4/25/43 16/28/43 26/4/43
f 2/79/44 14/26/44 25/1/44
f 34/62/45 55/80/45 40/45/45
f 34/62/46 56/81/46 55/80/46
f 35/58/47 47/57/47 57/82/47
f 33/19/48 11/17/48 12/40/48
f 32/16/49 9/11/49 10/31/49
f 29/76/50 58/83/50 37/34/50
f 29/76/51 59/84/51 58/83/51
f 30/72/52 44/71/52 60/85/52
f 28/10/53 7/8/53 8/29/53
f 27/7/54 5/5/54 6/27/54
f 26/4/55 3/2/55 4/25/55
f 25/1/56 1/86/56 2/79/56
f 4/25/57 3/2/57 25/1/57
f 6/27/58 5/5/58 26/4/58
f 8/29/59 7/8/59 27/7/59
f 10/31/60 9/11/60 28/10/60
f 12/40/61 11/17/61 32/16/61
f 2/42/62 1/20/62 33/19/62
f 33/19/63 23/21/63 11/17/63
f 32/16/64 21/18/64 9/11/64
f 28/10/65 19/12/65 7/8/65
f 27/7/66 17/9/66 5/5/66
f 26/4/67 15/6/67 3/2/67
f 25/1/68 13/3/68 1/86/68
f 60/85/69 39/38/69 31/67/69
f 60/85/70 44/71/70 39/38/70
f 44/71/71 10/39/71 39/38/71
f 58/83/72 60/85/72 31/67/72
f 58/83/73 59/84/73 60/85/73
f 59/84/74 30/72/74 60/85/74
f 37/34/75 45/66/75 6/35/75
f 37/34/76 58/83/76 45/66/76
f 58/83/77 31/67/77 45/66/77
f 57/82/78 42/49/78 36/53/78
f 57/82/79 47/57/79 42/49/79
f 47/57/80 7/50/80 42/49/80
f 55/80/81 57/82/81 36/53/81
f 55/80/82 56/81/82 57/82/82
f 56/81/83 35/58/83 57/82/83
f 40/45/84 48/52/84 11/46/84
f 40/45/85 55/80/85 48/52/85
f 55/80/86 36/53/86 48/52/86
f 46/24/87 56/81/87 34/62/87
f 46/24/88 41/23/88 56/81/88
f 41/23/89 35/58/89 56/81/89
f 43/15/90 59/84/90 29/76/90
f 43/15/91 38/14/91 59/84/91
f 38/14/92 30/72/92 59/84/92
f 16/33/93 29/76/93 37/34/93
f 24/36/94 30/72/94 38/14/94
f 20/37/95 31/67/95 39/38/95
f 23/44/96 34/62/96 40/45/96
f 15/47/97 35/58/97 41/23/97
f 19/48/98 36/53/98 42/49/98
f 21/51/99 11/46/99 48/52/99
f 36/53/100 19/48/100 49/54/100
f 9/55/101 21/51/101 49/54/101
f 17/56/102 7/50/102 47/57/102
f 35/58/103 15/47/103 50/59/103
f 5/60/104 17/56/104 50/59/104
f 13/61/105 3/22/105 46/24/105
f 34/62/106 23/44/106 51/63/106
f 1/64/107 13/61/107 51/63/107
f 18/65/108 6/35/108 45/66/108
f 31/67/109 20/37/109 52/68/109
f 8/69/110 18/65/110 52/68/110
f 22/70/111 10/39/111 44/71/111
f 30/72/112 24/36/112 53/73/112
f 12/74/113 22/70/113 53/73/113
f 14/75/114 2/13/114 43/15/114
f 29/76/115 16/33/115 54/77/115
f 4/78/116 14/75/116 54/77/116
