# Blender 4.3.0
# www.blender.org
o Cylinder
v 0.000000 -2.909667 -25.532169
v 0.000000 2.845337 -25.448599
v 22.722441 -3.452732 -13.118808
v 23.737959 4.355410 -13.705116
v 22.277033 -3.056802 12.861651
v 22.960804 3.664613 13.256427
v 0.000000 -1.247374 23.372816
v 0.000000 2.113935 24.498489
v -20.859217 -1.796512 12.043075
v -20.869701 1.805826 12.049128
v -24.312832 -4.866435 -14.037020
v -23.029404 3.725580 -13.296033
v 11.200396 -3.250149 -19.399654
v 10.375122 1.599620 -17.970240
v 24.302965 -5.152302 0.000000
v 21.697830 2.547195 0.000000
v 11.731680 -4.312705 20.319866
v -11.511651 -3.872653 19.938766
v -12.123151 5.095640 20.997913
v -20.898123 -1.747495 0.000000
v -22.709146 3.558501 0.000000
v -9.588464 -0.026319 -16.607706
v -12.231497 5.312329 -21.185574
v 11.548633 0.000000 -20.002819
v 23.045128 0.000000 0.000000
v 9.540817 0.000000 16.525181
v -12.176943 0.000000 21.091084
v 10.825317 6.439267 -6.250000
v -10.825317 1.440808 -6.250000
v 0.000000 -1.201076 12.500000
v -19.997303 0.000000 0.000000
v -10.651439 0.000000 -18.448833
v 0.000000 -3.779207 -12.500000
v 10.825317 0.026632 6.250000
v -10.825317 -3.677449 6.250000
v 16.237976 -1.355263 3.125000
v -5.412659 -0.076860 -15.625000
v -10.825317 -0.463760 12.500000
v -10.825317 -6.307565 -12.500000
v 16.237976 -2.513966 -3.125000
v -5.412659 0.372778 15.625000
v 5.412659 5.146090 -15.625000
v -16.237976 6.404276 3.125000
v 10.825317 -1.208949 12.500000
v 10.825317 1.203856 -12.500000
v 5.412659 -6.099770 15.625000
v -16.237976 -6.402096 -3.125000
v -16.237976 -3.356529 9.375000
v 16.237976 -3.790545 9.375000
v 0.000000 -0.401346 -18.750000
v 0.000000 -1.071132 18.750000
v -16.237976 6.044838 -9.375000
v 16.237976 2.388792 -9.375000
v -5.412659 -5.880345 -3.125000
v 5.412659 -5.660909 -3.125000
v 0.000000 1.389053 6.250000
v 5.412659 1.867958 3.125000
v 0.000000 1.245120 -6.250000
v -5.412659 3.919737 3.125000
vn 0.4652 -0.2095 -0.8601
vn 0.9652 0.2356 0.1136
vn 0.3451 0.7127 0.6107
vn -0.6521 -0.3169 0.6887
vn -0.4344 0.9003 0.0285
vn -0.8831 0.4552 0.1137
vn -0.1991 -0.9748 0.1010
vn -0.3671 -0.9177 -0.1520
vn 0.0301 0.7939 -0.6074
vn 0.8773 0.4640 -0.1227
vn -0.7187 0.0203 0.6950
vn -0.5861 0.8101 -0.0124
vn 0.3196 0.8456 0.4276
vn 0.2111 0.8324 -0.5123
vn -0.7953 -0.6061 0.0115
vn -0.3730 -0.5102 -0.7750
vn 0.0360 -0.5519 -0.8331
vn -0.2778 -0.9564 -0.0904
vn 0.3156 -0.8603 -0.4004
vn -0.4410 -0.7610 0.4758
vn -0.1214 -0.9866 -0.1090
vn -0.2783 -0.9573 0.0777
vn 0.4533 -0.8431 -0.2892
vn -0.4670 -0.8530 -0.2330
vn 0.0248 -0.9861 0.1646
vn 0.3571 -0.7758 0.5202
vn -0.2438 -0.8532 -0.4611
vn 0.0408 -0.9371 0.3466
vn -0.4569 -0.5110 -0.7281
vn -0.7949 -0.6058 0.0332
vn 0.0007 0.9578 -0.2874
vn -0.1163 0.9930 -0.0206
vn 0.3346 0.8243 -0.4567
vn -0.1218 0.8464 -0.5185
vn 0.3918 0.7856 0.4788
vn -0.2451 0.9589 -0.1426
vn 0.4241 0.8312 -0.3595
vn 0.4164 0.8346 -0.3606
vn -0.1985 0.9751 0.0991
vn -0.2727 0.0205 0.9619
vn 0.8679 0.4591 0.1898
vn 0.3973 0.8186 -0.4148
vn 0.2266 -0.9701 -0.0866
vn 0.0198 -0.9780 -0.2077
vn -0.1013 -0.8050 -0.5846
vn -0.3469 0.1319 -0.9286
vn -0.9974 -0.0028 -0.0718
vn 0.2412 0.8101 0.5343
vn -0.4250 0.8858 0.1865
vn 0.2086 0.9090 -0.3608
vn -0.2057 -0.3108 0.9280
vn 0.2571 -0.0827 0.9628
vn 0.9917 -0.1283 0.0094
vn 0.4291 0.0131 -0.9032
vn 0.4911 -0.1286 -0.8616
vn 0.9941 -0.1032 0.0348
vn 0.5854 -0.2575 0.7688
vn -0.7212 -0.0033 0.6927
vn -0.9598 0.1216 0.2529
vn -0.5514 0.0121 -0.8341
vn 0.2797 -0.9440 -0.1750
vn -0.8888 0.4582 0.0047
vn -0.2057 -0.3114 0.9277
vn 0.3465 0.7127 0.6099
vn 0.9679 0.2363 -0.0860
vn 0.4647 -0.2095 -0.8603
vn 0.0606 0.8903 0.4513
vn 0.1931 0.8413 0.5049
vn 0.1663 0.8388 0.5185
vn 0.1711 0.9029 0.3944
vn 0.1835 0.9682 -0.1703
vn 0.0174 0.9641 -0.2650
vn -0.3520 0.9104 -0.2175
vn 0.2822 0.9478 0.1481
vn 0.0007 0.9503 0.3115
vn 0.4194 -0.8961 0.1450
vn -0.4782 -0.7998 -0.3628
vn -0.5051 -0.8449 0.1762
vn 0.3855 -0.8236 0.4161
vn 0.0161 -0.7946 0.6069
vn -0.1035 -0.8227 0.5589
vn -0.0985 -0.9929 -0.0669
vn 0.0481 -0.9987 0.0177
vn 0.0466 -0.9661 0.2539
vn 0.3850 -0.8364 -0.3902
vn 0.2454 -0.8442 -0.4765
vn 0.2572 -0.8849 0.3883
vn -0.4292 0.8946 0.1244
vn -0.4312 0.8938 0.1229
vn 0.0179 0.9886 -0.1497
vn -0.1300 0.7242 0.6772
vn 0.5238 0.8353 0.1672
vn 0.0572 0.8394 -0.5404
vn 0.1309 -0.5605 -0.8177
vn -0.3323 -0.9410 0.0632
vn 0.5795 -0.8148 0.0174
vn -0.5614 -0.7684 0.3073
vn -0.0694 -0.9974 -0.0177
vn -0.3213 -0.9470 -0.0028
vn -0.1050 -0.8742 0.4741
vn -0.4499 -0.8534 -0.2631
vn 0.1196 -0.9928 0.0019
vn -0.2910 -0.8109 0.5077
vn -0.1393 -0.8712 -0.4708
vn -0.2134 -0.9163 0.3389
vn -0.3271 0.8712 -0.3660
vn 0.4506 0.8925 -0.0186
vn -0.2067 0.8558 -0.4742
vn -0.4729 0.8588 0.1971
vn 0.5887 0.7942 0.1504
vn -0.3334 0.9426 0.0199
vn 0.3942 0.8226 -0.4098
vn 0.4638 0.8391 -0.2843
vn -0.2202 0.9736 0.0608
vt 0.916667 0.750000
vt 0.833333 0.500000
vt 0.916667 0.500000
vt 0.750000 0.750000
vt 0.666667 0.500000
vt 0.750000 0.500000
vt 0.583333 0.750000
vt 0.500000 0.500000
vt 0.583333 0.500000
vt 0.416667 0.750000
vt 0.333333 0.500000
vt 0.416667 0.500000
vt 0.250000 0.490000
vt 0.198038 0.400000
vt 0.301962 0.400000
vt 0.250000 0.750000
vt 0.166667 0.500000
vt 0.250000 0.500000
vt 0.083333 0.750000
vt -0.000000 0.500000
vt 0.083333 0.500000
vt 0.957846 0.370000
vt 0.905885 0.280000
vt 0.853923 0.370000
vt 0.833333 1.000000
vt 0.916667 1.000000
vt 0.666667 1.000000
vt 0.750000 1.000000
vt 0.333333 1.000000
vt 0.416667 1.000000
vt 0.457846 0.250000
vt 0.405885 0.220000
vt 0.457846 0.130000
vt 0.146077 0.430000
vt 0.146077 0.070000
vt 0.146077 0.130000
vt 0.042154 0.130000
vt 0.166667 1.000000
vt 0.250000 1.000000
vt -0.000000 1.000000
vt 0.083333 1.000000
vt 0.646077 0.430000
vt 0.646077 0.370000
vt 0.542154 0.370000
vt 0.957846 0.250000
vt 0.646077 0.070000
vt 0.698038 0.100000
vt 0.750000 0.010000
vt 0.542154 0.250000
vt 0.594115 0.280000
vt 0.646077 0.190000
vt 0.594115 0.160000
vt 0.542154 0.130000
vt 0.853923 0.070000
vt 0.801962 0.100000
vt 0.853923 0.190000
vt 0.905885 0.160000
vt 0.957846 0.130000
vt 0.853923 0.430000
vt 0.750000 0.370000
vt 0.750000 0.430000
vt 0.750000 0.490000
vt 0.353923 0.070000
vt 0.353923 0.130000
vt 0.250000 0.130000
vt 0.250000 0.070000
vt 0.250000 0.010000
vt 0.042154 0.250000
vt 0.094115 0.220000
vt 0.146077 0.310000
vt 0.094115 0.340000
vt 0.042154 0.370000
vt 0.353923 0.430000
vt 0.353923 0.310000
vt 0.405885 0.340000
vt 0.457846 0.370000
vt 0.500000 1.000000
vt 1.000000 1.000000
vt 0.698038 0.280000
vt 0.801962 0.280000
vt 0.750000 0.190000
vt 0.301962 0.220000
vt 0.250000 0.310000
vt 0.198038 0.220000
vt 1.000000 0.500000
s 0
f 24/1/1 3/2/1 13/3/1
f 25/4/2 5/5/2 15/6/2
f 26/7/3 7/8/3 17/9/3
f 27/10/4 9/11/4 18/12/4
f 2/13/5 37/14/5 42/15/5
f 31/16/6 11/17/6 20/18/6
f 32/19/7 1/20/7 22/21/7
f 3/22/8 40/23/8 45/24/8
f 4/25/9 24/1/9 14/26/9
f 6/27/10 25/4/10 16/28/10
f 10/29/11 27/10/11 19/30/11
f 16/31/12 36/32/12 6/33/12
f 23/34/13 37/14/13 2/13/13
f 19/35/14 38/36/14 10/37/14
f 12/38/15 31/16/15 21/39/15
f 2/40/16 32/19/16 23/41/16
f 22/42/17 39/43/17 11/44/17
f 15/45/18 40/23/18 3/22/18
f 18/46/19 41/47/19 7/48/19
f 20/49/20 47/50/20 35/51/20
f 35/51/21 48/52/21 20/49/21
f 9/53/22 48/52/22 18/46/22
f 17/54/23 46/55/23 34/56/23
f 34/56/24 49/57/24 17/54/24
f 5/58/25 49/57/25 15/45/25
f 13/59/26 45/24/26 33/60/26
f 33/60/27 50/61/27 13/59/27
f 1/62/28 50/61/28 22/42/28
f 12/38/29 23/41/29 32/19/29
f 10/29/30 21/39/30 31/16/30
f 26/63/31 44/64/31 30/65/31
f 30/65/32 51/66/32 26/63/32
f 8/67/33 51/66/33 19/35/33
f 21/68/34 43/69/34 29/70/34
f 29/70/35 52/71/35 21/68/35
f 12/72/36 52/71/36 23/34/36
f 14/73/37 42/15/37 28/74/37
f 28/74/38 53/75/38 14/73/38
f 4/76/39 53/75/39 16/31/39
f 8/77/40 19/30/40 27/10/40
f 4/25/41 16/28/41 25/4/41
f 2/78/42 14/26/42 24/1/42
f 33/60/43 54/79/43 39/43/43
f 33/60/44 55/80/44 54/79/44
f 34/56/45 46/55/45 56/81/45
f 32/19/46 11/17/46 12/38/46
f 31/16/47 9/11/47 10/29/47
f 28/74/48 57/82/48 36/32/48
f 28/74/49 58/83/49 57/82/49
f 29/70/50 43/69/50 59/84/50
f 27/10/51 7/8/51 8/77/51
f 26/7/52 5/5/52 6/27/52
f 25/4/53 3/2/53 4/25/53
f 24/1/54 1/85/54 2/78/54
f 4/25/55 3/2/55 24/1/55
f 6/27/56 5/5/56 25/4/56
f 8/77/57 7/8/57 26/7/57
f 10/29/58 9/11/58 27/10/58
f 12/38/59 11/17/59 31/16/59
f 2/40/60 1/20/60 32/19/60
f 32/19/61 22/21/61 11/17/61
f 31/16/62 20/18/62 9/11/62
f 27/10/63 18/12/63 7/8/63
f 26/7/64 17/9/64 5/5/64
f 25/4/65 15/6/65 3/2/65
f 24/1/66 13/3/66 1/85/66
f 59/84/67 38/36/67 30/65/67
f 59/84/68 43/69/68 38/36/68
f 43/69/69 10/37/69 38/36/69
f 57/82/70 59/84/70 30/65/70
f 57/82/71 58/83/71 59/84/71
f 58/83/72 29/70/72 59/84/72
f 36/32/73 44/64/73 6/33/73
f 36/32/74 57/82/74 44/64/74
f 57/82/75 30/65/75 44/64/75
f 56/81/76 41/47/76 35/51/76
f 56/81/77 46/55/77 41/47/77
f 46/55/78 7/48/78 41/47/78
f 54/79/79 56/81/79 35/51/79
f 54/79/80 55/80/80 56/81/80
f 55/80/81 34/56/81 56/81/81
f 39/43/82 47/50/82 11/44/82
f 39/43/83 54/79/83 47/50/83
f 54/79/84 35/51/84 47/50/84
f 45/24/85 55/80/85 33/60/85
f 45/24/86 40/23/86 55/80/86
f 40/23/87 34/56/87 55/80/87
f 42/15/88 58/83/88 28/74/88
f 42/15/89 37/14/89 58/83/89
f 37/14/90 29/70/90 58/83/90
f 16/31/91 28/74/91 36/32/91
f 23/34/92 29/70/92 37/14/92
f 19/35/93 30/65/93 38/36/93
f 22/42/94 33/60/94 39/43/94
f 15/45/95 34/56/95 40/23/95
f 18/46/96 35/51/96 41/47/96
f 20/49/97 11/44/97 47/50/97
f 35/51/98 18/46/98 48/52/98
f 9/53/99 20/49/99 48/52/99
f 17/54/100 7/48/100 46/55/100
f 34/56/101 15/45/101 49/57/101
f 5/58/102 17/54/102 49/57/102
f 13/59/103 3/22/103 45/24/103
f 33/60/104 22/42/104 50/61/104
f 1/62/105 13/59/105 50/61/105
f 26/63/106 6/33/106 44/64/106
f 30/65/107 19/35/107 51/66/107
f 8/67/108 26/63/108 51/66/108
f 21/68/109 10/37/109 43/69/109
f 29/70/110 23/34/110 52/71/110
f 12/72/111 21/68/111 52/71/111
f 14/73/112 2/13/112 42/15/112
f 28/74/113 16/31/113 53/75/113
f 4/76/114 14/73/114 53/75/114
