# Blender 4.3.0
# www.blender.org
o Cylinder
v 0.000000 -2.006391 -24.358786
v 0.000000 4.551166 -27.664499
v 23.193859 -3.871777 -13.390982
v 24.160437 4.730949 -13.949036
v 22.689413 -3.423363 13.099738
v 20.223036 1.231003 11.675776
v 0.000000 -0.160473 21.960913
v 0.000000 1.264719 23.395332
v -19.635363 -0.708635 11.336482
v -20.160728 1.175618 11.639803
v -20.351522 -1.345216 -11.749957
v -22.500036 3.255028 -12.990402
v 10.922381 -2.694126 -18.918119
v 11.986094 4.821527 -20.760525
v 24.410805 -5.260141 0.000000
v 23.279863 4.129211 0.000000
v 10.052752 -0.954885 17.411877
v 10.168479 1.186337 17.612322
v -11.501395 -3.852142 19.921001
v -11.885749 4.620840 20.586721
v -24.437855 -5.287189 0.000000
v -23.125257 3.974607 0.000000
v -10.240623 -1.330623 -17.737280
v 10.566262 0.000000 -18.301304
v 20.833298 0.000000 0.000000
v 9.235416 0.000000 15.996210
v -10.551914 0.000000 18.276451
v 10.825317 6.321572 -6.250000
v -10.825317 6.093415 -6.250000
v 0.000000 -0.964480 12.500000
v -20.335724 0.000000 0.000000
v -9.886225 0.000000 -17.123444
v 0.000000 -3.442856 -12.500000
v 10.825317 0.683579 6.250000
v -10.825317 -4.786725 6.250000
v 16.237976 6.018668 3.125000
v -5.412659 1.450075 -15.625000
v -10.825317 3.472142 12.500000
v -10.825317 0.093985 -12.500000
v 16.237976 0.363816 -3.125000
v -5.412659 -3.079988 15.625000
v 5.412659 2.373585 -15.625000
v -16.237976 3.785613 3.125000
v 10.825317 3.176838 12.500000
v 10.825317 -6.370080 -12.500000
v 5.412659 -6.279002 15.625000
v -16.237976 0.555112 -3.125000
v -16.237976 -4.382406 9.375000
v 16.237976 -1.913160 9.375000
v 0.000000 1.106258 -18.750000
v 0.000000 3.057998 18.750000
v -16.237976 -1.242374 -9.375000
v 16.237976 1.535403 -9.375000
v -5.412659 -2.403524 -3.125000
v 5.412659 -2.349807 -3.125000
v 0.000000 -1.973972 6.250000
v 5.412659 1.241265 3.125000
v 0.000000 0.861903 -6.250000
v -5.412659 -0.623009 3.125000
vn 0.4173 0.2549 -0.8723
vn 0.8265 0.5621 0.0298
vn 0.2630 0.8634 0.4305
vn -0.5672 0.4377 0.6977
vn -0.0830 0.9734 0.2134
vn -0.7882 0.6115 -0.0690
vn -0.4572 0.4701 -0.7550
vn 0.2064 -0.8473 0.4894
vn 0.4179 -0.5074 -0.7536
vn 0.8562 -0.5073 0.0982
vn 0.2603 -0.8439 0.4692
vn -0.5336 -0.4964 0.6847
vn 0.3737 0.8726 0.3144
vn -0.3346 0.9379 0.0912
vn -0.2212 0.9611 -0.1655
vn -0.8185 -0.5745 -0.0076
vn 0.1648 -0.9469 0.2760
vn -0.5573 -0.8295 -0.0354
vn 0.2655 -0.9416 0.2071
vn 0.3016 -0.7430 -0.5975
vn -0.0125 -0.9942 0.1069
vn -0.6095 -0.7294 0.3104
vn 0.7602 -0.6483 -0.0425
vn -0.3505 -0.9228 -0.1597
vn -0.2797 -0.9552 0.0972
vn -0.2281 -0.8434 -0.4865
vn -0.2789 -0.7764 -0.5651
vn 0.2481 -0.8471 0.4701
vn -0.8165 -0.5731 0.0702
vn -0.3405 0.8901 0.3028
vn 0.0938 0.8372 -0.5388
vn 0.1755 0.9184 0.3545
vn -0.0652 0.9770 0.2029
vn -0.4406 0.6069 -0.6614
vn 0.3540 0.8337 0.4239
vn -0.4317 0.8931 -0.1269
vn 0.6538 0.7562 -0.0259
vn -0.3655 0.9306 0.0171
vn -0.3299 -0.4966 0.8028
vn 0.2756 -0.8439 0.4604
vn 0.8599 -0.5095 0.0323
vn 0.4386 -0.5075 -0.7417
vn -0.3097 -0.9480 -0.0737
vn 0.0049 -0.9936 0.1130
vn 0.2059 -0.8388 -0.5040
vn -0.3771 -0.4012 -0.8348
vn -0.9606 -0.2746 0.0422
vn -0.3905 0.8849 0.2540
vn -0.4394 0.8713 0.2185
vn 0.3445 0.8459 0.4071
vn -0.2488 -0.6871 0.6827
vn 0.2916 0.4178 0.8605
vn 0.9751 -0.0966 0.1998
vn 0.5129 -0.3864 -0.7666
vn 0.3343 -0.0984 -0.9373
vn 0.8840 0.4675 -0.0031
vn 0.4235 -0.6426 0.6385
vn -0.5683 -0.2828 0.7727
vn -0.9099 -0.4119 0.0484
vn -0.5974 -0.3610 -0.7161
vn -0.4502 0.4701 -0.7591
vn -0.7871 0.6107 0.0868
vn -0.2909 0.4354 0.8520
vn 0.3063 0.8618 0.4044
vn 0.8268 0.5623 -0.0168
vn 0.4439 0.2553 -0.8589
vn 0.3729 0.9098 -0.1821
vn 0.3708 0.9104 -0.1836
vn -0.2504 0.9519 0.1764
vn -0.1682 0.9768 0.1327
vn -0.1694 0.9838 0.0580
vn 0.4049 0.8377 0.3664
vn 0.2194 0.8913 0.3968
vn -0.4034 0.9140 0.0442
vn -0.3573 0.9339 0.0135
vn 0.2514 -0.9674 0.0310
vn -0.2731 -0.9243 -0.2667
vn -0.2339 -0.7916 0.5646
vn 0.2502 -0.9630 -0.1003
vn 0.0050 -0.9991 0.0429
vn 0.2348 -0.9564 0.1739
vn 0.1587 -0.9774 0.1397
vn -0.2622 -0.9594 -0.1042
vn -0.2450 -0.8964 -0.3693
vn -0.2524 -0.9335 0.2546
vn 0.2125 -0.8476 0.4862
vn 0.2396 -0.9557 0.1709
vn -0.4473 0.8869 -0.1152
vn -0.0845 0.9902 0.1109
vn 0.4271 0.8838 -0.1911
vn 0.2185 0.9712 -0.0948
vn -0.1144 0.8624 -0.4932
vn 0.3780 0.9222 -0.0814
vn -0.3031 -0.9276 0.2185
vn -0.4823 -0.8397 -0.2498
vn 0.1780 -0.9811 0.0759
vn 0.5569 -0.8264 -0.0835
vn -0.0362 -0.9971 0.0664
vn -0.4888 -0.7172 0.4967
vn 0.3126 -0.5357 0.7844
vn -0.4148 -0.9092 -0.0370
vn -0.2051 -0.9779 -0.0412
vn 0.1384 -0.8603 -0.4906
vn 0.1330 -0.8013 -0.5833
vn -0.2845 -0.8382 0.4652
vn 0.2194 0.8993 0.3783
vn 0.0269 0.8406 -0.5410
vn 0.2074 0.9126 0.3523
vn -0.0889 0.9630 0.2542
vn -0.6367 0.6479 -0.4181
vn 0.5895 0.8076 -0.0164
vn -0.1634 0.9553 0.2462
vn 0.3892 0.7701 -0.5054
vn -0.1801 0.9251 0.3343
vt 0.916667 0.750000
vt 0.833333 0.500000
vt 0.916667 0.500000
vt 0.750000 0.750000
vt 0.666667 0.500000
vt 0.750000 0.500000
vt 0.583333 0.750000
vt 0.500000 0.500000
vt 0.583333 0.500000
vt 0.416667 0.750000
vt 0.333333 0.500000
vt 0.416667 0.500000
vt 0.250000 0.490000
vt 0.198038 0.400000
vt 0.301962 0.400000
vt 0.250000 0.750000
vt 0.166667 0.500000
vt 0.250000 0.500000
vt 0.083333 0.750000
vt -0.000000 0.500000
vt 0.083333 0.500000
vt 0.957846 0.370000
vt 0.905885 0.280000
vt 0.853923 0.370000
vt 0.833333 1.000000
vt 0.916667 1.000000
vt 0.666667 1.000000
vt 0.750000 1.000000
vt 0.500000 1.000000
vt 0.583333 1.000000
vt 0.333333 1.000000
vt 0.416667 1.000000
vt 0.457846 0.250000
vt 0.405885 0.220000
vt 0.457846 0.130000
vt 0.146077 0.430000
vt 0.146077 0.070000
vt 0.146077 0.130000
vt 0.042154 0.130000
vt 0.166667 1.000000
vt 0.250000 1.000000
vt 0.646077 0.430000
vt 0.646077 0.370000
vt 0.542154 0.370000
vt 0.957846 0.250000
vt 0.646077 0.070000
vt 0.698038 0.100000
vt 0.750000 0.010000
vt 0.542154 0.250000
vt 0.594115 0.280000
vt 0.646077 0.190000
vt 0.594115 0.160000
vt 0.542154 0.130000
vt 0.853923 0.070000
vt 0.801962 0.100000
vt 0.853923 0.190000
vt 0.905885 0.160000
vt 0.957846 0.130000
vt 0.853923 0.430000
vt 0.750000 0.370000
vt 0.750000 0.430000
vt 0.750000 0.490000
vt 0.353923 0.070000
vt 0.353923 0.130000
vt 0.250000 0.130000
vt 0.250000 0.070000
vt 0.250000 0.010000
vt 0.042154 0.250000
vt 0.094115 0.220000
vt 0.146077 0.310000
vt 0.094115 0.340000
vt 0.042154 0.370000
vt 0.353923 0.430000
vt 0.353923 0.310000
vt 0.405885 0.340000
vt 0.457846 0.370000
vt 1.000000 1.000000
vt 0.698038 0.280000
vt 0.801962 0.280000
vt 0.750000 0.190000
vt 0.301962 0.220000
vt 0.250000 0.310000
vt 0.198038 0.220000
vt 1.000000 0.500000
vt -0.000000 1.000000
s 0
f 24/1/1 3/2/1 13/3/1
f 25/4/2 5/5/2 15/6/2
f 26/7/3 7/8/3 17/9/3
f 27/10/4 9/11/4 19/12/4
f 2/13/5 37/14/5 42/15/5
f 31/16/6 11/17/6 21/18/6
f 32/19/7 1/20/7 23/21/7
f 3/22/8 40/23/8 45/24/8
f 4/25/9 24/1/9 14/26/9
f 6/27/10 25/4/10 16/28/10
f 8/29/11 26/7/11 18/30/11
f 10/31/12 27/10/12 20/32/12
f 16/33/13 36/34/13 6/35/13
f 32/36/14 37/14/14 2/13/14
f 20/37/15 38/38/15 10/39/15
f 12/40/16 31/16/16 22/41/16
f 23/42/17 39/43/17 11/44/17
f 15/45/18 40/23/18 3/22/18
f 19/46/19 41/47/19 7/48/19
f 21/49/20 47/50/20 35/51/20
f 35/51/21 48/52/21 21/49/21
f 9/53/22 48/52/22 19/46/22
f 17/54/23 46/55/23 34/56/23
f 34/56/24 49/57/24 17/54/24
f 5/58/25 49/57/25 15/45/25
f 13/59/26 45/24/26 33/60/26
f 33/60/27 50/61/27 13/59/27
f 1/62/28 50/61/28 23/42/28
f 10/31/29 22/41/29 31/16/29
f 18/63/30 44/64/30 30/65/30
f 30/65/31 51/66/31 18/63/31
f 8/67/32 51/66/32 20/37/32
f 22/68/33 43/69/33 29/70/33
f 29/70/34 52/71/34 22/68/34
f 12/72/35 52/71/35 32/36/35
f 14/73/36 42/15/36 28/74/36
f 28/74/37 53/75/37 14/73/37
f 4/76/38 53/75/38 16/33/38
f 8/29/39 20/32/39 27/10/39
f 6/27/40 18/30/40 26/7/40
f 4/25/41 16/28/41 25/4/41
f 2/77/42 14/26/42 24/1/42
f 33/60/43 54/78/43 39/43/43
f 33/60/44 55/79/44 54/78/44
f 34/56/45 46/55/45 56/80/45
f 32/19/46 11/17/46 12/40/46
f 31/16/47 9/11/47 10/31/47
f 28/74/48 57/81/48 36/34/48
f 28/74/49 58/82/49 57/81/49
f 29/70/50 43/69/50 59/83/50
f 27/10/51 7/8/51 8/29/51
f 26/7/52 5/5/52 6/27/52
f 25/4/53 3/2/53 4/25/53
f 24/1/54 1/84/54 2/77/54
f 4/25/55 3/2/55 24/1/55
f 6/27/56 5/5/56 25/4/56
f 8/29/57 7/8/57 26/7/57
f 10/31/58 9/11/58 27/10/58
f 12/40/59 11/17/59 31/16/59
f 2/85/60 1/20/60 32/19/60
f 32/19/61 23/21/61 11/17/61
f 31/16/62 21/18/62 9/11/62
f 27/10/63 19/12/63 7/8/63
f 26/7/64 17/9/64 5/5/64
f 25/4/65 15/6/65 3/2/65
f 24/1/66 13/3/66 1/84/66
f 59/83/67 38/38/67 30/65/67
f 59/83/68 43/69/68 38/38/68
f 43/69/69 10/39/69 38/38/69
f 57/81/70 59/83/70 30/65/70
f 57/81/71 58/82/71 59/83/71
f 58/82/72 29/70/72 59/83/72
f 36/34/73 44/64/73 6/35/73
f 36/34/74 57/81/74 44/64/74
f 57/81/75 30/65/75 44/64/75
f 56/80/76 41/47/76 35/51/76
f 56/80/77 46/55/77 41/47/77
f 46/55/78 7/48/78 41/47/78
f 54/78/79 56/80/79 35/51/79
f 54/78/80 55/79/80 56/80/80
f 55/79/81 34/56/81 56/80/81
f 39/43/82 47/50/82 11/44/82
f 39/43/83 54/78/83 47/50/83
f 54/78/84 35/51/84 47/50/84
f 45/24/85 55/79/85 33/60/85
f 45/24/86 40/23/86 55/79/86
f 40/23/87 34/56/87 55/79/87
f 42/15/88 58/82/88 28/74/88
f 42/15/89 37/14/89 58/82/89
f 37/14/90 29/70/90 58/82/90
f 16/33/91 28/74/91 36/34/91
f 32/36/92 29/70/92 37/14/92
f 20/37/93 30/65/93 38/38/93
f 23/42/94 33/60/94 39/43/94
f 15/45/95 34/56/95 40/23/95
f 19/46/96 35/51/96 41/47/96
f 21/49/97 11/44/97 47/50/97
f 35/51/98 19/46/98 48/52/98
f 9/53/99 21/49/99 48/52/99
f 17/54/100 7/48/100 46/55/100
f 34/56/101 15/45/101 49/57/101
f 5/58/102 17/54/102 49/57/102
f 13/59/103 3/22/103 45/24/103
f 33/60/104 23/42/104 50/61/104
f 1/62/105 13/59/105 50/61/105
f 18/63/106 6/35/106 44/64/106
f 30/65/107 20/37/107 51/66/107
f 8/67/108 18/63/108 51/66/108
f 22/68/109 10/39/109 43/69/109
f 29/70/110 32/36/110 52/71/110
f 12/72/111 22/68/111 52/71/111
f 14/73/112 2/13/112 42/15/112
f 28/74/113 16/33/113 53/75/113
f 4/76/114 14/73/114 53/75/114
