# Blender 4.3.0
# www.blender.org
o Cylinder
v 0.000000 -2.158627 -24.556545
v 0.000000 2.413815 -24.888044
v 21.359137 -2.240886 -12.331703
v 21.231483 2.127419 -12.258003
v 21.333122 -2.217764 12.316684
v 22.022203 2.830288 12.714525
v 0.000000 -2.447676 24.932030
v 0.000000 2.758072 25.335243
v -21.247076 -2.141279 12.267005
v -21.977983 2.790982 12.688995
v -21.169155 -2.072011 -12.222017
v -21.162685 2.066264 -12.218282
v 10.860551 -2.570466 -18.811026
v 10.792004 2.433373 -18.692299
v 21.993052 -2.842412 0.000000
v 22.148869 2.998229 0.000000
v 10.566696 -1.982763 18.302055
v 10.882407 2.614178 18.848883
v -10.727170 -2.303708 18.580004
v -11.071860 2.993080 19.177025
v -21.503220 -2.352587 0.000000
v -21.677933 2.527299 0.000000
v -10.999108 -2.847577 -19.051014
v -11.067513 2.984385 -19.169495
v 10.527934 0.000000 -18.234917
v 21.204155 0.000000 0.000000
v 11.085083 0.000000 19.199928
v -10.612708 0.000000 18.381750
v 10.825317 2.811489 -6.250000
v -10.825317 2.939418 -6.250000
v 0.000000 2.342044 12.500000
v -21.050753 0.000000 0.000000
v -11.112665 0.000000 -19.247702
v 0.000000 -2.772476 -12.500000
v 10.825317 -2.388277 6.250000
v -10.825317 -2.567968 6.250000
v 16.237976 1.808916 3.125000
v -5.412659 3.168124 -15.625000
v -10.825317 3.196516 12.500000
v -10.825317 -2.686669 -12.500000
v 16.237976 -2.160330 -3.125000
v -5.412659 -2.503877 15.625000
v 5.412659 2.272721 -15.625000
v -16.237976 2.482160 3.125000
v 10.825317 2.082479 12.500000
v 10.825317 -1.804829 -12.500000
v 5.412659 -1.806328 15.625000
v -16.237976 -2.642091 -3.125000
v -16.237976 -2.669003 9.375000
v 16.237976 -1.859936 9.375000
v 0.000000 -3.075092 -18.750000
v 0.000000 3.109651 18.750000
v -16.237976 2.366084 -9.375000
v 16.237976 2.119806 -9.375000
v -5.412659 -2.777255 -3.125000
v 5.412659 -2.388970 -3.125000
v 0.000000 -2.969649 6.250000
v 5.412659 3.018354 3.125000
v 0.000000 2.745654 -6.250000
v -5.412659 3.240261 3.125000
vn 0.5027 0.2505 -0.8273
vn 0.9629 0.2672 0.0380
vn 0.4857 -0.4628 0.7416
vn -0.5109 0.0989 0.8539
vn 0.0824 0.9961 -0.0330
vn -0.9818 0.1888 -0.0225
vn -0.4422 -0.0793 -0.8934
vn -0.0411 -0.9991 -0.0141
vn 0.5082 -0.2120 -0.8347
vn 0.9538 -0.3005 0.0055
vn 0.5074 0.1532 0.8480
vn -0.4848 -0.2933 0.8240
vn -0.1916 0.9814 0.0111
vn 0.0135 0.9972 -0.0733
vn -0.0358 0.9989 0.0291
vn -0.9701 -0.2407 -0.0318
vn -0.4576 0.0302 -0.8886
vn -0.0586 -0.9979 0.0261
vn -0.0942 -0.9946 -0.0437
vn -0.0259 -0.9994 0.0211
vn -0.0374 -0.9989 0.0295
vn -0.0006 -0.9994 -0.0334
vn -0.0610 -0.9952 0.0760
vn -0.0510 -0.9982 0.0325
vn 0.0770 -0.9964 0.0352
vn -0.0960 -0.9944 0.0453
vn 0.0884 -0.9888 0.1204
vn 0.0466 -0.9977 0.0483
vn -0.0162 -0.9876 -0.1559
vn -0.5687 0.0301 -0.8220
vn -0.9704 -0.2408 -0.0179
vn 0.0239 0.9962 -0.0836
vn 0.0462 0.9915 -0.1218
vn -0.0085 0.9985 0.0533
vn -0.0148 0.9991 0.0402
vn -0.0716 0.9957 -0.0587
vn -0.0744 0.9969 0.0237
vn -0.0470 0.9984 -0.0302
vn 0.1094 0.9935 -0.0305
vn -0.0407 0.9969 -0.0678
vn -0.4694 -0.2933 0.8328
vn 0.4744 0.1532 0.8669
vn 0.9526 -0.3001 -0.0500
vn 0.4868 -0.2121 -0.8473
vn -0.0079 -1.0000 -0.0051
vn 0.0358 -0.9992 0.0202
vn 0.0534 -0.9943 0.0925
vn -0.5729 0.0016 -0.8196
vn -0.9889 -0.1431 -0.0408
vn 0.1109 0.9929 0.0421
vn -0.0061 0.9997 -0.0256
vn -0.0699 0.9975 0.0083
vn -0.5350 -0.0652 0.8424
vn 0.5314 -0.1384 0.8357
vn 0.9996 0.0291 0.0073
vn 0.5231 -0.0616 -0.8501
vn 0.4830 0.0289 -0.8752
vn 0.9906 -0.1325 -0.0342
vn 0.4701 -0.0682 0.8800
vn -0.4713 -0.1443 0.8701
vn -1.0000 0.0016 0.0094
vn -0.4404 -0.0649 -0.8955
vn -0.5599 -0.0793 -0.8248
vn -0.9819 0.1888 0.0172
vn -0.5060 0.0989 0.8568
vn 0.4229 -0.4632 0.7788
vn 0.9629 0.2673 -0.0365
vn 0.4601 0.2504 -0.8518
vn 0.0786 0.9957 0.0500
vn -0.0698 0.9969 -0.0357
vn -0.0372 0.9978 -0.0546
vn 0.0204 0.9963 0.0837
vn 0.0205 0.9990 -0.0409
vn 0.0179 0.9989 -0.0424
vn -0.0652 0.9956 -0.0667
vn 0.1110 0.9932 0.0351
vn 0.0239 0.9960 0.0856
vn -0.0371 -0.9989 0.0282
vn 0.0641 -0.9942 0.0864
vn 0.0643 -0.9974 -0.0314
vn -0.0371 -0.9993 0.0009
vn 0.0358 -0.9985 -0.0412
vn 0.0536 -0.9981 -0.0309
vn -0.0601 -0.9977 -0.0300
vn -0.0125 -0.9999 -0.0025
vn -0.0125 -0.9998 0.0151
vn 0.0890 -0.9960 -0.0107
vn 0.0211 -0.9985 -0.0500
vn 0.0211 -0.9997 -0.0121
vn -0.0061 0.9985 -0.0539
vn 0.0824 0.9966 -0.0027
vn 0.0179 0.9992 0.0347
vn -0.1086 0.9799 0.1675
vn -0.0351 0.9994 0.0041
vn 0.0786 0.9963 0.0333
vn -0.0079 -0.9997 0.0248
vn -0.0797 -0.9943 -0.0702
vn -0.0256 -0.9994 0.0216
vn -0.0696 -0.9973 -0.0248
vn 0.0309 -0.9993 0.0212
vn -0.0938 -0.9954 0.0191
vn 0.0012 -0.9977 -0.0681
vn 0.0272 -0.9923 0.1207
vn -0.0455 -0.9981 -0.0426
vn -0.0430 -0.9918 0.1201
vn -0.0220 -0.9986 0.0484
vn 0.0450 -0.9868 -0.1557
vn -0.0648 0.9945 -0.0827
vn -0.0151 0.9924 -0.1219
vn 0.0449 0.9976 0.0533
vn 0.0200 0.9996 -0.0203
vn -0.1085 0.9941 0.0055
vn -0.0381 0.9985 -0.0393
vn -0.0159 0.9996 0.0245
vn 0.0535 0.9905 -0.1266
vn 0.0134 0.9996 0.0258
vt 0.916667 0.750000
vt 0.833333 0.500000
vt 0.916667 0.500000
vt 0.750000 0.750000
vt 0.666667 0.500000
vt 0.750000 0.500000
vt 0.583333 0.750000
vt 0.500000 0.500000
vt 0.583333 0.500000
vt 0.416667 0.750000
vt 0.333333 0.500000
vt 0.416667 0.500000
vt 0.250000 0.490000
vt 0.198038 0.400000
vt 0.301962 0.400000
vt 0.250000 0.750000
vt 0.166667 0.500000
vt 0.250000 0.500000
vt 0.083333 0.750000
vt -0.000000 0.500000
vt 0.083333 0.500000
vt 0.957846 0.370000
vt 0.905885 0.280000
vt 0.853923 0.370000
vt 0.833333 1.000000
vt 0.916667 1.000000
vt 0.666667 1.000000
vt 0.750000 1.000000
vt 0.500000 1.000000
vt 0.583333 1.000000
vt 0.333333 1.000000
vt 0.416667 1.000000
vt 0.457846 0.250000
vt 0.405885 0.220000
vt 0.457846 0.130000
vt 0.146077 0.430000
vt 0.146077 0.070000
vt 0.146077 0.130000
vt 0.042154 0.130000
vt 0.166667 1.000000
vt 0.250000 1.000000
vt -0.000000 1.000000
vt 0.083333 1.000000
vt 0.646077 0.430000
vt 0.646077 0.370000
vt 0.542154 0.370000
vt 0.957846 0.250000
vt 0.646077 0.070000
vt 0.698038 0.100000
vt 0.750000 0.010000
vt 0.542154 0.250000
vt 0.594115 0.280000
vt 0.646077 0.190000
vt 0.594115 0.160000
vt 0.542154 0.130000
vt 0.853923 0.070000
vt 0.801962 0.100000
vt 0.853923 0.190000
vt 0.905885 0.160000
vt 0.957846 0.130000
vt 0.853923 0.430000
vt 0.750000 0.370000
vt 0.750000 0.430000
vt 0.750000 0.490000
vt 0.353923 0.070000
vt 0.353923 0.130000
vt 0.250000 0.130000
vt 0.250000 0.070000
vt 0.250000 0.010000
vt 0.042154 0.250000
vt 0.094115 0.220000
vt 0.146077 0.310000
vt 0.094115 0.340000
vt 0.042154 0.370000
vt 0.353923 0.430000
vt 0.353923 0.310000
vt 0.405885 0.340000
vt 0.457846 0.370000
vt 1.000000 1.000000
vt 0.698038 0.280000
vt 0.801962 0.280000
vt 0.750000 0.190000
vt 0.301962 0.220000
vt 0.250000 0.310000
vt 0.198038 0.220000
vt 1.000000 0.500000
s 0
f 25/1/1 3/2/1 13/3/1
f 26/4/2 5/5/2 15/6/2
f 27/7/3 7/8/3 17/9/3
f 28/10/4 9/11/4 19/12/4
f 2/13/5 38/14/5 43/15/5
f 32/16/6 11/17/6 21/18/6
f 33/19/7 1/20/7 23/21/7
f 3/22/8 41/23/8 46/24/8
f 4/25/9 25/1/9 14/26/9
f 6/27/10 26/4/10 16/28/10
f 8/29/11 27/7/11 18/30/11
f 10/31/12 28/10/12 20/32/12
f 16/33/13 37/34/13 6/35/13
f 24/36/14 38/14/14 2/13/14
f 20/37/15 39/38/15 10/39/15
f 12/40/16 32/16/16 22/41/16
f 2/42/17 33/19/17 24/43/17
f 23/44/18 40/45/18 11/46/18
f 15/47/19 41/23/19 3/22/19
f 19/48/20 42/49/20 7/50/20
f 21/51/21 48/52/21 36/53/21
f 36/53/22 49/54/22 21/51/22
f 9/55/23 49/54/23 19/48/23
f 17/56/24 47/57/24 35/58/24
f 35/58/25 50/59/25 17/56/25
f 5/60/26 50/59/26 15/47/26
f 13/61/27 46/24/27 34/62/27
f 34/62/28 51/63/28 13/61/28
f 1/64/29 51/63/29 23/44/29
f 12/40/30 24/43/30 33/19/30
f 10/31/31 22/41/31 32/16/31
f 18/65/32 45/66/32 31/67/32
f 31/67/33 52/68/33 18/65/33
f 8/69/34 52/68/34 20/37/34
f 22/70/35 44/71/35 30/72/35
f 30/72/36 53/73/36 22/70/36
f 12/74/37 53/73/37 24/36/37
f 14/75/38 43/15/38 29/76/38
f 29/76/39 54/77/39 14/75/39
f 4/78/40 54/77/40 16/33/40
f 8/29/41 20/32/41 28/10/41
f 6/27/42 18/30/42 27/7/42
f 4/25/43 16/28/43 26/4/43
f 2/79/44 14/26/44 25/1/44
f 34/62/45 55/80/45 40/45/45
f 34/62/46 56/81/46 55/80/46
f 35/58/47 47/57/47 57/82/47
f 33/19/48 11/17/48 12/40/48
f 32/16/49 9/11/49 10/31/49
f 29/76/50 58/83/50 37/34/50
f 29/76/51 59/84/51 58/83/51
f 30/72/52 44/71/52 60/85/52
f 28/10/53 7/8/53 8/29/53
f 27/7/54 5/5/54 6/27/54
f 26/4/55 3/2/55 4/25/55
f 25/1/56 1/86/56 2/79/56
f 4/25/57 3/2/57 25/1/57
f 6/27/58 5/5/58 26/4/58
f 8/29/59 7/8/59 27/7/59
f 10/31/60 9/11/60 28/10/60
f 12/40/61 11/17/61 32/16/61
f 2/42/62 1/20/62 33/19/62
f 33/19/63 23/21/63 11/17/63
f 32/16/64 21/18/64 9/11/64
f 28/10/65 19/12/65 7/8/65
f 27/7/66 17/9/66 5/5/66
f 26/4/67 15/6/67 3/2/67
f 25/1/68 13/3/68 1/86/68
f 60/85/69 39/38/69 31/67/69
f 60/85/70 44/71/70 39/38/70
f 44/71/71 10/39/71 39/38/71
f 58/83/72 60/85/72 31/67/72
f 58/83/73 59/84/73 60/85/73
f 59/84/74 30/72/74 60/85/74
f 37/34/75 45/66/75 6/35/75
f 37/34/76 58/83/76 45/66/76
f 58/83/77 31/67/77 45/66/77
f 57/82/78 42/49/78 36/53/78
f 57/82/79 47/57/79 42/49/79
f 47/57/80 7/50/80 42/49/80
f 55/80/81 57/82/81 36/53/81
f 55/80/82 56/81/82 57/82/82
f 56/81/83 35/58/83 57/82/83
f 40/45/84 48/52/84 11/46/84
f 40/45/85 55/80/85 48/52/85
f 55/80/86 36/53/86 48/52/86
f 46/24/87 56/81/87 34/62/87
f 46/24/88 41/23/88 56/81/88
f 41/23/89 35/58/89 56/81/89
f 43/15/90 59/84/90 29/76/90
f 43/15/91 38/14/91 59/84/91
f 38/14/92 30/72/92 59/84/92
f 16/33/93 29/76/93 37/34/93
f 24/36/94 30/72/94 38/14/94
f 20/37/95 31/67/95 39/38/95
f 23/44/96 34/62/96 40/45/96
f 15/47/97 35/58/97 41/23/97
f 19/48/98 36/53/98 42/49/98
f 21/51/99 11/46/99 48/52/99
f 36/53/100 19/48/100 49/54/100
f 9/55/101 21/51/101 49/54/101
f 17/56/102 7/50/102 47/57/102
f 35/58/103 15/47/103 50/59/103
f 5/60/104 17/56/104 50/59/104
f 13/61/105 3/22/105 46/24/105
f 34/62/106 23/44/106 51/63/106
f 1/64/107 13/61/107 51/63/107
f 18/65/108 6/35/108 45/66/108
f 31/67/109 20/37/109 52/68/109
f 8/69/110 18/65/110 52/68/110
f 22/70/111 10/39/111 44/71/111
f 30/72/112 24/36/112 53/73/112
f 12/74/113 22/70/113 53/73/113
f 14/75/114 2/13/114 43/15/114
f 29/76/115 16/33/115 54/77/115
f 4/78/116 14/75/116 54/77/116
