# Blender 4.3.0
# www.blender.org
o Cylinder
v 0.000000 -2.311386 -24.754986
v 0.000000 2.319593 -24.765648
v 21.611702 -2.465392 -12.477522
v 22.054058 2.858600 -12.732916
v 22.080673 -2.882258 12.748282
v 21.829952 2.659396 12.603529
v 0.000000 -2.526509 25.034435
v 0.000000 2.652426 25.198006
v -21.257029 -2.150125 12.272751
v -21.377079 2.256835 12.342062
v -21.229588 -2.125731 -12.256908
v -21.230125 2.126212 -12.257219
v 10.958721 -2.766804 -18.981062
v 10.756013 2.361393 -18.629961
v 21.627817 -2.477183 0.000000
v 21.958937 2.808300 0.000000
v 10.635751 -2.120870 18.421661
v 10.911408 2.672179 18.899113
v -10.612116 -2.073602 18.380724
v -11.060334 2.970028 19.157061
v -21.818729 -2.668092 0.000000
v -22.058887 2.908248 0.000000
v -10.834987 -2.519338 -18.766747
v -10.735766 2.320901 -18.594894
v 11.196590 0.000000 -19.393063
v 21.067667 0.000000 0.000000
v 10.967043 0.000000 18.995476
v -11.052767 0.000000 19.143953
v 10.825317 2.307699 -6.250000
v -10.825317 2.211737 -6.250000
v 0.000000 3.170211 12.500000
v -21.600237 0.000000 0.000000
v -10.677261 0.000000 -18.493561
v 0.000000 -2.496181 -12.500000
v 10.825317 -2.058653 6.250000
v -10.825317 -2.163051 6.250000
v 16.237976 1.797893 3.125000
v -5.412659 2.755715 -15.625000
v -10.825317 2.205059 12.500000
v -10.825317 -3.015896 -12.500000
v 16.237976 -2.806963 -3.125000
v -5.412659 -2.452047 15.625000
v 5.412659 2.363090 -15.625000
v -16.237976 2.370378 3.125000
v 10.825317 1.865270 12.500000
v 10.825317 -1.951431 -12.500000
v 5.412659 -3.097798 15.625000
v -16.237976 -3.131523 -3.125000
v -16.237976 -2.688845 9.375000
v 16.237976 -2.913276 9.375000
v 0.000000 -2.230611 -18.750000
v 0.000000 2.665877 18.750000
v -16.237976 3.008232 -9.375000
v 16.237976 2.555183 -9.375000
v -5.412659 -2.867529 -3.125000
v 5.412659 -2.206618 -3.125000
v 0.000000 -1.828346 6.250000
v 5.412659 2.116194 3.125000
v 0.000000 2.173126 -6.250000
v -5.412659 2.114156 3.125000
vn 0.5170 -0.1694 -0.8390
vn 0.9750 0.2205 -0.0276
vn 0.5122 -0.2980 0.8055
vn -0.4559 -0.3911 0.7995
vn 0.0362 0.9990 -0.0262
vn -0.9957 0.0815 -0.0443
vn -0.4818 0.1242 -0.8674
vn -0.0474 -0.9968 -0.0636
vn 0.4215 0.3491 -0.8369
vn 0.9531 -0.3025 0.0062
vn 0.4995 0.0416 0.8653
vn -0.5509 -0.0051 0.8345
vn -0.1687 0.9856 0.0099
vn -0.0412 0.9966 -0.0720
vn 0.0066 0.9935 -0.1139
vn -0.9862 -0.1555 -0.0568
vn -0.4977 -0.0504 -0.8659
vn -0.0868 -0.9931 -0.0786
vn 0.0617 -0.9981 -0.0010
vn -0.0589 -0.9979 0.0260
vn -0.0189 -0.9934 0.1135
vn 0.0711 -0.9965 -0.0445
vn -0.0496 -0.9939 0.0989
vn 0.1850 -0.9827 -0.0021
vn -0.1518 -0.9884 -0.0074
vn 0.0241 -0.9992 -0.0326
vn 0.0499 -0.9908 0.1257
vn -0.0497 -0.9979 -0.0424
vn 0.0266 -0.9996 0.0134
vn -0.5156 -0.0503 -0.8553
vn -0.9867 -0.1556 0.0463
vn 0.1187 0.9849 -0.1258
vn -0.0017 0.9968 0.0804
vn 0.0276 0.9996 0.0021
vn 0.0772 0.9966 0.0277
vn 0.1029 0.9919 0.0745
vn -0.0980 0.9864 -0.1320
vn 0.0027 1.0000 0.0043
vn -0.0430 0.9991 0.0046
vn -0.0500 0.9987 0.0036
vn -0.4794 -0.0051 0.8776
vn 0.4991 0.0416 0.8655
vn 0.9531 -0.3025 0.0059
vn 0.4632 0.3496 -0.8144
vn 0.0480 -0.9988 -0.0119
vn 0.0609 -0.9981 -0.0044
vn -0.0211 -0.9923 -0.1222
vn -0.5088 -0.0001 -0.8609
vn -0.9994 -0.0276 0.0231
vn 0.0294 0.9989 0.0374
vn -0.0124 0.9998 0.0132
vn 0.0237 0.9997 -0.0033
vn -0.4751 -0.0278 0.8795
vn 0.4984 0.0452 0.8658
vn 0.9951 -0.0798 0.0592
vn 0.4323 -0.0021 -0.9017
vn 0.5371 -0.0849 -0.8392
vn 0.9966 0.0433 -0.0694
vn 0.4870 -0.0276 0.8729
vn -0.5542 -0.0282 0.8319
vn -0.9995 -0.0001 -0.0302
vn -0.5062 -0.0020 -0.8624
vn -0.5233 0.1242 -0.8431
vn -0.9958 0.0815 0.0421
vn -0.5009 -0.3907 0.7723
vn 0.4081 -0.2973 0.8632
vn 0.9754 0.2206 -0.0011
vn 0.4539 -0.1693 -0.8748
vn -0.0886 0.9942 -0.0608
vn 0.0237 0.9997 0.0040
vn 0.0047 0.9999 0.0149
vn -0.0002 0.9937 -0.1118
vn -0.0002 1.0000 0.0062
vn 0.0036 1.0000 0.0083
vn -0.0714 0.9963 -0.0484
vn 0.0294 0.9995 0.0098
vn 0.1196 0.9919 -0.0425
vn 0.0309 -0.9983 -0.0486
vn -0.0592 -0.9932 -0.1003
vn -0.0595 -0.9979 0.0263
vn 0.0308 -0.9952 0.0926
vn 0.0608 -0.9953 0.0752
vn -0.0213 -0.9994 0.0280
vn -0.0865 -0.9943 -0.0622
vn 0.0244 -0.9997 0.0017
vn 0.0243 -0.9957 0.0888
vn 0.0503 -0.9987 0.0018
vn -0.0553 -0.9967 -0.0590
vn -0.0553 -0.9973 0.0477
vn -0.0124 0.9998 0.0131
vn 0.0362 0.9985 0.0411
vn 0.0036 0.9982 0.0600
vn -0.1102 0.9870 0.1173
vn -0.0859 0.9963 0.0082
vn -0.0882 0.9892 -0.1168
vn 0.0478 -0.9957 -0.0790
vn 0.0111 -0.9962 0.0859
vn -0.0681 -0.9976 0.0086
vn -0.1100 -0.9927 -0.0492
vn 0.0999 -0.9950 0.0056
vn -0.0805 -0.9957 0.0457
vn 0.1164 -0.9851 0.1268
vn -0.0974 -0.9900 -0.1020
vn -0.0332 -0.9972 0.0668
vn -0.0475 -0.9912 0.1237
vn 0.0267 -0.9987 -0.0424
vn -0.0486 -0.9987 0.0134
vn -0.0703 0.9898 -0.1239
vn 0.0304 0.9963 0.0804
vn -0.0006 1.0000 0.0021
vn 0.0658 0.9966 0.0490
vn 0.1401 0.9901 0.0098
vn -0.1330 0.9885 -0.0721
vn -0.0018 1.0000 -0.0037
vn -0.0453 0.9990 0.0007
vn -0.0478 0.9988 0.0074
vt 0.916667 0.750000
vt 0.833333 0.500000
vt 0.916667 0.500000
vt 0.750000 0.750000
vt 0.666667 0.500000
vt 0.750000 0.500000
vt 0.583333 0.750000
vt 0.500000 0.500000
vt 0.583333 0.500000
vt 0.416667 0.750000
vt 0.333333 0.500000
vt 0.416667 0.500000
vt 0.250000 0.490000
vt 0.198038 0.400000
vt 0.301962 0.400000
vt 0.250000 0.750000
vt 0.166667 0.500000
vt 0.250000 0.500000
vt 0.083333 0.750000
vt -0.000000 0.500000
vt 0.083333 0.500000
vt 0.957846 0.370000
vt 0.905885 0.280000
vt 0.853923 0.370000
vt 0.833333 1.000000
vt 0.916667 1.000000
vt 0.666667 1.000000
vt 0.750000 1.000000
vt 0.500000 1.000000
vt 0.583333 1.000000
vt 0.333333 1.000000
vt 0.416667 1.000000
vt 0.457846 0.250000
vt 0.405885 0.220000
vt 0.457846 0.130000
vt 0.146077 0.430000
vt 0.146077 0.070000
vt 0.146077 0.130000
vt 0.042154 0.130000
vt 0.166667 1.000000
vt 0.250000 1.000000
vt -0.000000 1.000000
vt 0.083333 1.000000
vt 0.646077 0.430000
vt 0.646077 0.370000
vt 0.542154 0.370000
vt 0.957846 0.250000
vt 0.646077 0.070000
vt 0.698038 0.100000
vt 0.750000 0.010000
vt 0.542154 0.250000
vt 0.594115 0.280000
vt 0.646077 0.190000
vt 0.594115 0.160000
vt 0.542154 0.130000
vt 0.853923 0.070000
vt 0.801962 0.100000
vt 0.853923 0.190000
vt 0.905885 0.160000
vt 0.957846 0.130000
vt 0.853923 0.430000
vt 0.750000 0.370000
vt 0.750000 0.430000
vt 0.750000 0.490000
vt 0.353923 0.070000
vt 0.353923 0.130000
vt 0.250000 0.130000
vt 0.250000 0.070000
vt 0.250000 0.010000
vt 0.042154 0.250000
vt 0.094115 0.220000
vt 0.146077 0.310000
vt 0.094115 0.340000
vt 0.042154 0.370000
vt 0.353923 0.430000
vt 0.353923 0.310000
vt 0.405885 0.340000
vt 0.457846 0.370000
vt 1.000000 1.000000
vt 0.698038 0.280000
vt 0.801962 0.280000
vt 0.750000 0.190000
vt 0.301962 0.220000
vt 0.250000 0.310000
vt 0.198038 0.220000
vt 1.000000 0.500000
s 0
f 25/1/1 3/2/1 13/3/1
f 26/4/2 5/5/2 15/6/2
f 27/7/3 7/8/3 17/9/3
f 28/10/4 9/11/4 19/12/4
f 2/13/5 38/14/5 43/15/5
f 32/16/6 11/17/6 21/18/6
f 33/19/7 1/20/7 23/21/7
f 3/22/8 41/23/8 46/24/8
f 4/25/9 25/1/9 14/26/9
f 6/27/10 26/4/10 16/28/10
f 8/29/11 27/7/11 18/30/11
f 10/31/12 28/10/12 20/32/12
f 16/33/13 37/34/13 6/35/13
f 24/36/14 38/14/14 2/13/14
f 20/37/15 39/38/15 10/39/15
f 12/40/16 32/16/16 22/41/16
f 2/42/17 33/19/17 24/43/17
f 23/44/18 40/45/18 11/46/18
f 15/47/19 41/23/19 3/22/19
f 19/48/20 42/49/20 7/50/20
f 21/51/21 48/52/21 36/53/21
f 36/53/22 49/54/22 21/51/22
f 9/55/23 49/54/23 19/48/23
f 17/56/24 47/57/24 35/58/24
f 35/58/25 50/59/25 17/56/25
f 5/60/26 50/59/26 15/47/26
f 13/61/27 46/24/27 34/62/27
f 34/62/28 51/63/28 13/61/28
f 1/64/29 51/63/29 23/44/29
f 12/40/30 24/43/30 33/19/30
f 10/31/31 22/41/31 32/16/31
f 18/65/32 45/66/32 31/67/32
f 31/67/33 52/68/33 18/65/33
f 8/69/34 52/68/34 20/37/34
f 22/70/35 44/71/35 30/72/35
f 30/72/36 53/73/36 22/70/36
f 12/74/37 53/73/37 24/36/37
f 14/75/38 43/15/38 29/76/38
f 29/76/39 54/77/39 14/75/39
f 4/78/40 54/77/40 16/33/40
f 8/29/41 20/32/41 28/10/41
f 6/27/42 18/30/42 27/7/42
f 4/25/43 16/28/43 26/4/43
f 2/79/44 14/26/44 25/1/44
f 34/62/45 55/80/45 40/45/45
f 34/62/46 56/81/46 55/80/46
f 35/58/47 47/57/47 57/82/47
f 33/19/48 11/17/48 12/40/48
f 32/16/49 9/11/49 10/31/49
f 29/76/50 58/83/50 37/34/50
f 29/76/51 59/84/51 58/83/51
f 30/72/52 44/71/52 60/85/52
f 28/10/53 7/8/53 8/29/53
f 27/7/54 5/5/54 6/27/54
f 26/4/55 3/2/55 4/25/55
f 25/1/56 1/86/56 2/79/56
f 4/25/57 3/2/57 25/1/57
f 6/27/58 5/5/58 26/4/58
f 8/29/59 7/8/59 27/7/59
f 10/31/60 9/11/60 28/10/60
f 12/40/61 11/17/61 32/16/61
f 2/42/62 1/20/62 33/19/62
f 33/19/63 23/21/63 11/17/63
f 32/16/64 21/18/64 9/11/64
f 28/10/65 19/12/65 7/8/65
f 27/7/66 17/9/66 5/5/66
f 26/4/67 15/6/67 3/2/67
f 25/1/68 13/3/68 1/86/68
f 60/85/69 39/38/69 31/67/69
f 60/85/70 44/71/70 39/38/70
f 44/71/71 10/39/71 39/38/71
f 58/83/72 60/85/72 31/67/72
f 58/83/73 59/84/73 60/85/73
f 59/84/74 30/72/74 60/85/74
f 37/34/75 45/66/75 6/35/75
f 37/34/76 58/83/76 45/66/76
f 58/83/77 31/67/77 45/66/77
f 57/82/78 42/49/78 36/53/78
f 57/82/79 47/57/79 42/49/79
f 47/57/80 7/50/80 42/49/80
f 55/80/81 57/82/81 36/53/81
f 55/80/82 56/81/82 57/82/82
f 56/81/83 35/58/83 57/82/83
f 40/45/84 48/52/84 11/46/84
f 40/45/85 55/80/85 48/52/85
f 55/80/86 36/53/86 48/52/86
f 46/24/87 56/81/87 34/62/87
f 46/24/88 41/23/88 56/81/88
f 41/23/89 35/58/89 56/81/89
f 43/15/90 59/84/90 29/76/90
f 43/15/91 38/14/91 59/84/91
f 38/14/92 30/72/92 59/84/92
f 16/33/93 29/76/93 37/34/93
f 24/36/94 30/72/94 38/14/94
f 20/37/95 31/67/95 39/38/95
f 23/44/96 34/62/96 40/45/96
f 15/47/97 35/58/97 41/23/97
f 19/48/98 36/53/98 42/49/98
f 21/51/99 11/46/99 48/52/99
f 36/53/100 19/48/100 49/54/100
f 9/55/101 21/51/101 49/54/101
f 17/56/102 7/50/102 47/57/102
f 35/58/103 15/47/103 50/59/103
f 5/60/104 17/56/104 50/59/104
f 13/61/105 3/22/105 46/24/105
f 34/62/106 23/44/106 51/63/106
f 1/64/107 13/61/107 51/63/107
f 18/65/108 6/35/108 45/66/108
f 31/67/109 20/37/109 52/68/109
f 8/69/110 18/65/110 52/68/110
f 22/70/111 10/39/111 44/71/111
f 30/72/112 24/36/112 53/73/112
f 12/74/113 22/70/113 53/73/113
f 14/75/114 2/13/114 43/15/114
f 29/76/115 16/33/115 54/77/115
f 4/78/116 14/75/116 54/77/116
