# Blender 4.3.0
# www.blender.org
o Cylinder
v 0.000000 -2.782237 -25.366634
v 0.000000 2.151653 -24.547491
v 21.806919 -2.638922 -12.590231
v 21.367878 2.248660 -12.336751
v 21.186651 -2.087567 12.232119
v 22.038868 2.845101 12.724146
v 0.000000 -2.759193 25.336697
v 0.000000 2.346402 24.800470
v -21.908529 -2.729241 12.648895
v -21.800659 2.633358 12.586617
v -22.084242 -2.885434 -12.750342
v -22.027473 2.834970 -12.717568
v 11.065675 -2.980709 -19.166311
v 10.671618 2.192604 -18.483784
v 21.607952 -2.457318 0.000000
v 21.535774 2.385140 0.000000
v 11.069196 -2.987752 19.172411
v 10.707869 2.265105 18.546574
v -10.976458 -2.802277 19.011782
v -10.854069 2.557501 18.799799
v -21.910734 -2.760096 0.000000
v -21.743893 2.593257 0.000000
v -10.819699 -2.488764 -18.740269
v -10.988043 2.825448 -19.031849
v 10.808368 0.000000 -18.720642
v 21.971212 0.000000 0.000000
v 10.993326 0.000000 19.040998
v -10.609015 0.000000 18.375353
v 10.825317 2.587408 -6.250000
v -10.825317 3.192174 -6.250000
v 0.000000 2.898173 12.500000
v -22.018414 0.000000 0.000000
v -10.800983 0.000000 -18.707851
v 0.000000 -2.053680 -12.500000
v 10.825317 -2.770414 6.250000
v -10.825317 -1.889650 6.250000
v 16.237976 3.166766 3.125000
v -5.412659 2.673773 -15.625000
v -10.825317 2.698472 12.500000
v -10.825317 -2.731831 -12.500000
v 16.237976 -2.467178 -3.125000
v -5.412659 -1.957044 15.625000
v 5.412659 1.814885 -15.625000
v -16.237976 2.871958 3.125000
v 10.825317 2.466399 12.500000
v 10.825317 -3.245288 -12.500000
v 5.412659 -2.680986 15.625000
v -16.237976 -2.791795 -3.125000
v -16.237976 -3.204174 9.375000
v 16.237976 -2.191009 9.375000
v 0.000000 -3.154945 -18.750000
v 0.000000 1.985214 18.750000
v -16.237976 2.218599 -9.375000
v 16.237976 1.903078 -9.375000
v -5.412659 -1.987327 -3.125000
v 5.412659 -3.246624 -3.125000
v 0.000000 -2.292472 6.250000
v 5.412659 2.110800 3.125000
v 0.000000 2.529868 -6.250000
v -5.412659 1.815344 3.125000
vn 0.5106 0.1701 -0.8428
vn 0.9885 -0.1461 0.0385
vn 0.4867 0.0507 0.8721
vn -0.4853 0.2537 0.8367
vn 0.0791 0.9968 -0.0104
vn -0.9991 -0.0390 0.0140
vn -0.5219 0.0150 -0.8529
vn 0.0555 -0.9972 0.0507
vn 0.4939 0.1238 -0.8606
vn 0.9827 0.1794 -0.0453
vn 0.4904 0.2444 0.8365
vn -0.4858 -0.1882 0.8536
vn 0.1223 0.9917 -0.0407
vn 0.0459 0.9985 -0.0306
vn -0.0058 0.9997 0.0223
vn -0.9942 0.1052 0.0242
vn -0.4512 -0.1311 -0.8828
vn 0.0145 -0.9991 -0.0389
vn -0.0065 -0.9999 0.0143
vn 0.0751 -0.9895 -0.1236
vn 0.0359 -0.9965 0.0752
vn 0.1561 -0.9776 -0.1408
vn -0.0452 -0.9968 0.0663
vn -0.0442 -0.9989 -0.0160
vn 0.1172 -0.9929 -0.0189
vn 0.0034 -0.9995 0.0303
vn -0.1093 -0.9931 -0.0434
vn 0.0220 -0.9846 0.1735
vn -0.0614 -0.9965 -0.0561
vn -0.4923 -0.1313 -0.8605
vn -0.9944 0.1053 -0.0048
vn 0.0398 0.9986 0.0340
vn -0.0231 0.9892 0.1445
vn 0.0523 0.9969 -0.0595
vn -0.0527 0.9986 0.0037
vn -0.1156 0.9875 -0.1074
vn 0.0531 0.9944 0.0914
vn -0.0884 0.9956 -0.0310
vn 0.1064 0.9938 -0.0334
vn -0.0730 0.9973 -0.0100
vn -0.4780 -0.1882 0.8580
vn 0.4333 0.2440 0.8676
vn 0.9836 0.1796 -0.0154
vn 0.4899 0.1238 -0.8630
vn 0.0625 -0.9971 0.0431
vn -0.1153 -0.9915 -0.0596
vn -0.0441 -0.9989 -0.0159
vn -0.4688 0.0097 -0.8832
vn -0.9997 0.0203 0.0131
vn -0.0971 0.9953 -0.0055
vn -0.0053 0.9988 0.0477
vn 0.0968 0.9913 0.0897
vn -0.5303 0.0886 0.8432
vn 0.5222 -0.1735 0.8350
vn 0.9953 0.0911 -0.0321
vn 0.4915 0.1426 -0.8591
vn 0.5012 0.0897 -0.8607
vn 0.9843 -0.1734 0.0335
vn 0.4774 0.0918 0.8739
vn -0.4557 0.0195 0.8899
vn -0.9999 0.0099 0.0029
vn -0.4926 0.1425 -0.8585
vn -0.4699 0.0150 -0.8826
vn -0.9992 -0.0390 0.0003
vn -0.4837 0.2537 0.8377
vn 0.5619 0.0506 0.8257
vn 0.9891 -0.1462 0.0177
vn 0.4840 0.1701 -0.8584
vn -0.0183 0.9944 -0.1043
vn 0.0971 0.9946 -0.0376
vn -0.0058 0.9997 0.0218
vn -0.0271 0.9947 -0.0992
vn -0.0272 0.9978 0.0603
vn 0.0607 0.9920 0.1106
vn -0.0348 0.9979 0.0545
vn -0.0971 0.9951 0.0183
vn 0.0398 0.9974 -0.0608
vn -0.0372 -0.9992 0.0143
vn -0.0667 -0.9978 -0.0028
vn -0.0667 -0.9968 -0.0452
vn -0.0372 -0.9992 -0.0111
vn -0.1155 -0.9927 0.0344
vn -0.0440 -0.9961 0.0760
vn 0.0136 -0.9999 0.0015
vn 0.0741 -0.9966 0.0364
vn 0.0740 -0.9958 0.0531
vn -0.1092 -0.9920 -0.0632
vn 0.0718 -0.9966 0.0413
vn 0.0718 -0.9974 0.0092
vn -0.0053 0.9969 -0.0791
vn 0.0791 0.9964 -0.0303
vn 0.0611 0.9979 -0.0199
vn 0.0821 0.9907 -0.1086
vn 0.0450 0.9986 -0.0292
vn -0.0184 0.9996 0.0223
vn 0.0625 -0.9973 -0.0388
vn 0.0155 -0.9996 -0.0234
vn 0.1083 -0.9917 -0.0696
vn -0.0002 -1.0000 0.0098
vn 0.1985 -0.9778 -0.0676
vn -0.0821 -0.9966 0.0024
vn -0.0364 -0.9989 -0.0283
vn 0.0678 -0.9954 0.0671
vn 0.0519 -0.9972 -0.0537
vn 0.0548 -0.9978 -0.0376
vn -0.0604 -0.9830 0.1732
vn 0.0136 -0.9983 -0.0562
vn -0.0344 0.9989 0.0326
vn 0.0528 0.9881 0.1443
vn -0.0272 0.9979 -0.0596
vn -0.0486 0.9988 -0.0034
vn -0.1623 0.9864 -0.0262
vn 0.0963 0.9952 0.0168
vn -0.0385 0.9974 0.0610
vn 0.0724 0.9931 -0.0920
vn -0.0362 0.9979 0.0538
vt 0.916667 0.750000
vt 0.833333 0.500000
vt 0.916667 0.500000
vt 0.750000 0.750000
vt 0.666667 0.500000
vt 0.750000 0.500000
vt 0.583333 0.750000
vt 0.500000 0.500000
vt 0.583333 0.500000
vt 0.416667 0.750000
vt 0.333333 0.500000
vt 0.416667 0.500000
vt 0.250000 0.490000
vt 0.198038 0.400000
vt 0.301962 0.400000
vt 0.250000 0.750000
vt 0.166667 0.500000
vt 0.250000 0.500000
vt 0.083333 0.750000
vt -0.000000 0.500000
vt 0.083333 0.500000
vt 0.957846 0.370000
vt 0.905885 0.280000
vt 0.853923 0.370000
vt 0.833333 1.000000
vt 0.916667 1.000000
vt 0.666667 1.000000
vt 0.750000 1.000000
vt 0.500000 1.000000
vt 0.583333 1.000000
vt 0.333333 1.000000
vt 0.416667 1.000000
vt 0.457846 0.250000
vt 0.405885 0.220000
vt 0.457846 0.130000
vt 0.146077 0.430000
vt 0.146077 0.070000
vt 0.146077 0.130000
vt 0.042154 0.130000
vt 0.166667 1.000000
vt 0.250000 1.000000
vt -0.000000 1.000000
vt 0.083333 1.000000
vt 0.646077 0.430000
vt 0.646077 0.370000
vt 0.542154 0.370000
vt 0.957846 0.250000
vt 0.646077 0.070000
vt 0.698038 0.100000
vt 0.750000 0.010000
vt 0.542154 0.250000
vt 0.594115 0.280000
vt 0.646077 0.190000
vt 0.594115 0.160000
vt 0.542154 0.130000
vt 0.853923 0.070000
vt 0.801962 0.100000
vt 0.853923 0.190000
vt 0.905885 0.160000
vt 0.957846 0.130000
vt 0.853923 0.430000
vt 0.750000 0.370000
vt 0.750000 0.430000
vt 0.750000 0.490000
vt 0.353923 0.070000
vt 0.353923 0.130000
vt 0.250000 0.130000
vt 0.250000 0.070000
vt 0.250000 0.010000
vt 0.042154 0.250000
vt 0.094115 0.220000
vt 0.146077 0.310000
vt 0.094115 0.340000
vt 0.042154 0.370000
vt 0.353923 0.430000
vt 0.353923 0.310000
vt 0.405885 0.340000
vt 0.457846 0.370000
vt 1.000000 1.000000
vt 0.698038 0.280000
vt 0.801962 0.280000
vt 0.750000 0.190000
vt 0.301962 0.220000
vt 0.250000 0.310000
vt 0.198038 0.220000
vt 1.000000 0.500000
s 0
f 25/1/1 3/2/1 13/3/1
f 26/4/2 5/5/2 15/6/2
f 27/7/3 7/8/3 17/9/3
f 28/10/4 9/11/4 19/12/4
f 2/13/5 38/14/5 43/15/5
f 32/16/6 11/17/6 21/18/6
f 33/19/7 1/20/7 23/21/7
f 3/22/8 41/23/8 46/24/8
f 4/25/9 25/1/9 14/26/9
f 6/27/10 26/4/10 16/28/10
f 8/29/11 27/7/11 18/30/11
f 10/31/12 28/10/12 20/32/12
f 16/33/13 37/34/13 6/35/13
f 24/36/14 38/14/14 2/13/14
f 20/37/15 39/38/15 10/39/15
f 12/40/16 32/16/16 22/41/16
f 2/42/17 33/19/17 24/43/17
f 23/44/18 40/45/18 11/46/18
f 15/47/19 41/23/19 3/22/19
f 19/48/20 42/49/20 7/50/20
f 21/51/21 48/52/21 36/53/21
f 36/53/22 49/54/22 21/51/22
f 9/55/23 49/54/23 19/48/23
f 17/56/24 47/57/24 35/58/24
f 35/58/25 50/59/25 17/56/25
f 5/60/26 50/59/26 15/47/26
f 13/61/27 46/24/27 34/62/27
f 34/62/28 51/63/28 13/61/28
f 1/64/29 51/63/29 23/44/29
f 12/40/30 24/43/30 33/19/30
f 10/31/31 22/41/31 32/16/31
f 18/65/32 45/66/32 31/67/32
f 31/67/33 52/68/33 18/65/33
f 8/69/34 52/68/34 20/37/34
f 22/70/35 44/71/35 30/72/35
f 30/72/36 53/73/36 22/70/36
f 12/74/37 53/73/37 24/36/37
f 14/75/38 43/15/38 29/76/38
f 29/76/39 54/77/39 14/75/39
f 4/78/40 54/77/40 16/33/40
f 8/29/41 20/32/41 28/10/41
f 6/27/42 18/30/42 27/7/42
f 4/25/43 16/28/43 26/4/43
f 2/79/44 14/26/44 25/1/44
f 34/62/45 55/80/45 40/45/45
f 34/62/46 56/81/46 55/80/46
f 35/58/47 47/57/47 57/82/47
f 33/19/48 11/17/48 12/40/48
f 32/16/49 9/11/49 10/31/49
f 29/76/50 58/83/50 37/34/50
f 29/76/51 59/84/51 58/83/51
f 30/72/52 44/71/52 60/85/52
f 28/10/53 7/8/53 8/29/53
f 27/7/54 5/5/54 6/27/54
f 26/4/55 3/2/55 4/25/55
f 25/1/56 1/86/56 2/79/56
f 4/25/57 3/2/57 25/1/57
f 6/27/58 5/5/58 26/4/58
f 8/29/59 7/8/59 27/7/59
f 10/31/60 9/11/60 28/10/60
f 12/40/61 11/17/61 32/16/61
f 2/42/62 1/20/62 33/19/62
f 33/19/63 23/21/63 11/17/63
f 32/16/64 21/18/64 9/11/64
f 28/10/65 19/12/65 7/8/65
f 27/7/66 17/9/66 5/5/66
f 26/4/67 15/6/67 3/2/67
f 25/1/68 13/3/68 1/86/68
f 60/85/69 39/38/69 31/67/69
f 60/85/70 44/71/70 39/38/70
f 44/71/71 10/39/71 39/38/71
f 58/83/72 60/85/72 31/67/72
f 58/83/73 59/84/73 60/85/73
f 59/84/74 30/72/74 60/85/74
f 37/34/75 45/66/75 6/35/75
f 37/34/76 58/83/76 45/66/76
f 58/83/77 31/67/77 45/66/77
f 57/82/78 42/49/78 36/53/78
f 57/82/79 47/57/79 42/49/79
f 47/57/80 7/50/80 42/49/80
f 55/80/81 57/82/81 36/53/81
f 55/80/82 56/81/82 57/82/82
f 56/81/83 35/58/83 57/82/83
f 40/45/84 48/52/84 11/46/84
f 40/45/85 55/80/85 48/52/85
f 55/80/86 36/53/86 48/52/86
f 46/24/87 56/81/87 34/62/87
f 46/24/88 41/23/88 56/81/88
f 41/23/89 35/58/89 56/81/89
f 43/15/90 59/84/90 29/76/90
f 43/15/91 38/14/91 59/84/91
f 38/14/92 30/72/92 59/84/92
f 16/33/93 29/76/93 37/34/93
f 24/36/94 30/72/94 38/14/94
f 20/37/95 31/67/95 39/38/95
f 23/44/96 34/62/96 40/45/96
f 15/47/97 35/58/97 41/23/97
f 19/48/98 36/53/98 42/49/98
f 21/51/99 11/46/99 48/52/99
f 36/53/100 19/48/100 49/54/100
f 9/55/101 21/51/101 49/54/101
f 17/56/102 7/50/102 47/57/102
f 35/58/103 15/47/103 50/59/103
f 5/60/104 17/56/104 50/59/104
f 13/61/105 3/22/105 46/24/105
f 34/62/106 23/44/106 51/63/106
f 1/64/107 13/61/107 51/63/107
f 18/65/108 6/35/108 45/66/108
f 31/67/109 20/37/109 52/68/109
f 8/69/110 18/65/110 52/68/110
f 22/70/111 10/39/111 44/71/111
f 30/72/112 24/36/112 53/73/112
f 12/74/113 22/70/113 53/73/113
f 14/75/114 2/13/114 43/15/114
f 29/76/115 16/33/115 54/77/115
f 4/78/116 14/75/116 54/77/116
