# Blender 4.3.0
# www.blender.org
o Cylinder
v 0.000000 -1.714997 -23.980257
v 0.000000 2.931155 -25.560078
v 21.608864 -2.462870 -12.475883
v 22.733702 3.462732 -13.125309
v 22.682144 -3.416902 13.095542
v 20.978210 1.902281 12.111776
v 0.000000 -2.611828 25.145266
v 0.000000 1.699725 23.960419
v -22.173571 -2.964834 12.801917
v -22.580690 3.326729 13.036967
v -22.242950 -3.026512 -12.841974
v -22.436716 3.198744 -12.953845
v 11.302150 -3.453655 -19.575897
v 10.330765 1.510906 -17.893410
v 20.982567 -1.831939 0.000000
v 20.463522 1.312900 0.000000
v 10.434098 -1.717570 18.072388
v 10.712756 2.274881 18.555038
v -11.024861 -2.899084 19.095621
v -10.538696 1.926764 18.253557
v -22.152504 -3.001863 0.000000
v -20.777836 1.627211 0.000000
v -10.247542 -1.344463 -17.749266
v -10.459334 1.768041 -18.116098
v 10.173794 0.000000 -17.621529
v 23.120544 0.000000 0.000000
v 11.090695 0.000000 19.209648
v -10.464542 0.000000 18.125120
v 10.825317 2.753083 -6.250000
v -10.825317 0.897152 -6.250000
v 0.000000 2.104917 12.500000
v -19.995419 0.000000 0.000000
v -11.587250 0.000000 -20.069704
v 0.000000 -1.455679 -12.500000
v 10.825317 -4.427036 6.250000
v -10.825317 -4.142951 6.250000
v 16.237976 3.216642 3.125000
v -5.412659 1.291227 -15.625000
v -10.825317 2.341814 12.500000
v -10.825317 -3.429663 -12.500000
v 16.237976 -2.151725 -3.125000
v -5.412659 -3.517739 15.625000
v 5.412659 3.670251 -15.625000
v -16.237976 0.792264 3.125000
v 10.825317 3.537404 12.500000
v 10.825317 -4.207976 -12.500000
v 5.412659 -1.713093 15.625000
v -16.237976 -1.312602 -3.125000
v -16.237976 -2.371450 9.375000
v 16.237976 -0.612298 9.375000
v 0.000000 -3.897667 -18.750000
v 0.000000 3.592321 18.750000
v -16.237976 4.090005 -9.375000
v 16.237976 0.580385 -9.375000
v -5.412659 -0.535925 -3.125000
v 5.412659 -1.158056 -3.125000
v 0.000000 -1.798212 6.250000
v 5.412659 3.371190 3.125000
v 0.000000 3.247947 -6.250000
v -5.412659 2.372537 3.125000
vn 0.4387 0.5469 -0.7131
vn 0.6408 -0.7478 -0.1737
vn 0.4819 -0.6043 0.6345
vn -0.4601 0.3605 0.8113
vn -0.2144 0.9757 0.0442
vn -0.8121 0.5835 0.0046
vn -0.2568 -0.8932 -0.3692
vn 0.1583 -0.9796 0.1235
vn 0.3790 -0.2019 -0.9031
vn 0.4421 0.8948 -0.0623
vn 0.4141 0.3146 0.8541
vn -0.4038 -0.0763 0.9117
vn 0.3722 0.9261 -0.0609
vn 0.0101 0.9857 0.1682
vn 0.0864 0.9940 0.0674
vn -0.8995 -0.4325 0.0627
vn -0.4178 0.7805 -0.4651
vn -0.0217 -0.9283 -0.3711
vn 0.0329 -0.9981 0.0521
vn -0.0377 -0.9925 0.1159
vn 0.0906 -0.9377 -0.3354
vn -0.2030 -0.9600 0.1926
vn 0.0522 -0.9953 -0.0820
vn -0.1075 -0.9699 0.2187
vn 0.4787 -0.8522 0.2112
vn -0.3666 -0.9281 -0.0648
vn -0.2447 -0.9623 -0.1191
vn 0.0631 -0.9296 0.3632
vn -0.2585 -0.8915 -0.3720
vn -0.1684 0.7773 -0.6062
vn -0.8991 -0.4323 -0.0680
vn -0.1285 0.9713 0.2001
vn 0.1147 0.9664 -0.2300
vn -0.1624 0.9274 0.3369
vn 0.1247 0.9887 0.0830
vn 0.3003 0.8767 0.3757
vn 0.0067 0.9676 -0.2526
vn 0.3548 0.9280 -0.1141
vn 0.3128 0.9430 -0.1139
vn -0.3602 0.9285 0.0898
vn -0.4761 -0.0767 0.8761
vn 0.5127 0.3150 0.7987
vn 0.4323 0.8749 0.2181
vn 0.5655 -0.2026 -0.7995
vn 0.1759 -0.9647 0.1962
vn -0.0573 -0.9963 0.0647
vn -0.2335 -0.9617 0.1436
vn -0.5548 -0.0322 -0.8314
vn -0.9820 -0.0568 -0.1802
vn 0.0143 0.9982 -0.0576
vn 0.0456 0.9982 -0.0395
vn -0.1441 0.9869 -0.0721
vn -0.5022 0.2291 0.8338
vn 0.5136 0.3123 0.7992
vn 0.9777 -0.1944 -0.0801
vn 0.5426 -0.2704 -0.7953
vn 0.3735 -0.1708 -0.9118
vn 0.9395 0.3223 0.1156
vn 0.4131 0.2413 0.8781
vn -0.4005 -0.0601 0.9143
vn -0.9835 -0.0274 0.1786
vn -0.3447 -0.3022 -0.8888
vn -0.0689 -0.8799 -0.4701
vn -0.8121 0.5835 -0.0030
vn -0.4559 0.3605 0.8137
vn 0.2296 -0.5968 0.7688
vn 0.6490 -0.7575 0.0709
vn 0.3757 0.5464 -0.7485
vn 0.0219 0.9996 0.0159
vn -0.1440 0.9863 -0.0799
vn 0.0725 0.9764 -0.2033
vn -0.0916 0.9925 0.0812
vn -0.0918 0.9950 0.0399
vn -0.2121 0.9767 -0.0313
vn 0.1609 0.9852 0.0592
vn 0.0143 0.9996 -0.0260
vn -0.1310 0.9897 0.0581
vn 0.2113 -0.9758 -0.0569
vn 0.1638 -0.9828 -0.0857
vn 0.1644 -0.9864 0.0004
vn 0.2052 -0.9473 -0.2460
vn -0.0571 -0.9933 -0.1008
vn -0.2313 -0.9524 -0.1986
vn -0.0405 -0.9794 0.1978
vn 0.0691 -0.9638 0.2576
vn 0.0677 -0.9436 -0.3240
vn -0.2428 -0.9550 0.1705
vn -0.0882 -0.9611 0.2617
vn -0.0877 -0.9553 -0.2825
vn 0.0456 0.9964 0.0712
vn -0.2140 0.9736 -0.0797
vn -0.2115 0.9740 -0.0812
vn 0.2728 0.9402 -0.2040
vn 0.0571 0.9956 0.0748
vn 0.0218 0.9972 0.0709
vn 0.1682 -0.9223 -0.3479
vn 0.1608 -0.9764 -0.1442
vn -0.0505 -0.9941 0.0955
vn 0.2746 -0.9616 -0.0001
vn -0.2631 -0.9607 0.0889
vn 0.1012 -0.9949 0.0030
vn 0.0352 -0.9966 -0.0741
vn 0.4149 -0.8515 0.3207
vn -0.2426 -0.9289 -0.2799
vn 0.1592 -0.9827 -0.0940
vn -0.1928 -0.9139 0.3571
vn 0.0081 -0.9228 -0.3851
vn 0.1633 0.9652 0.2043
vn -0.1414 0.9631 -0.2292
vn 0.1209 0.9330 0.3389
vn 0.2414 0.9660 -0.0926
vn 0.4723 0.8779 0.0790
vn -0.2226 0.9640 0.1455
vn 0.2994 0.9255 -0.2320
vn 0.2669 0.9440 -0.1941
vn -0.2521 0.9275 0.2761
vt 0.916667 0.750000
vt 0.833333 0.500000
vt 0.916667 0.500000
vt 0.750000 0.750000
vt 0.666667 0.500000
vt 0.750000 0.500000
vt 0.583333 0.750000
vt 0.500000 0.500000
vt 0.583333 0.500000
vt 0.416667 0.750000
vt 0.333333 0.500000
vt 0.416667 0.500000
vt 0.250000 0.490000
vt 0.198038 0.400000
vt 0.301962 0.400000
vt 0.250000 0.750000
vt 0.166667 0.500000
vt 0.250000 0.500000
vt 0.083333 0.750000
vt -0.000000 0.500000
vt 0.083333 0.500000
vt 0.957846 0.370000
vt 0.905885 0.280000
vt 0.853923 0.370000
vt 0.833333 1.000000
vt 0.916667 1.000000
vt 0.666667 1.000000
vt 0.750000 1.000000
vt 0.500000 1.000000
vt 0.583333 1.000000
vt 0.333333 1.000000
vt 0.416667 1.000000
vt 0.457846 0.250000
vt 0.405885 0.220000
vt 0.457846 0.130000
vt 0.146077 0.430000
vt 0.146077 0.070000
vt 0.146077 0.130000
vt 0.042154 0.130000
vt 0.166667 1.000000
vt 0.250000 1.000000
vt -0.000000 1.000000
vt 0.083333 1.000000
vt 0.646077 0.430000
vt 0.646077 0.370000
vt 0.542154 0.370000
vt 0.957846 0.250000
vt 0.646077 0.070000
vt 0.698038 0.100000
vt 0.750000 0.010000
vt 0.542154 0.250000
vt 0.594115 0.280000
vt 0.646077 0.190000
vt 0.594115 0.160000
vt 0.542154 0.130000
vt 0.853923 0.070000
vt 0.801962 0.100000
vt 0.853923 0.190000
vt 0.905885 0.160000
vt 0.957846 0.130000
vt 0.853923 0.430000
vt 0.750000 0.370000
vt 0.750000 0.430000
vt 0.750000 0.490000
vt 0.353923 0.070000
vt 0.353923 0.130000
vt 0.250000 0.130000
vt 0.250000 0.070000
vt 0.250000 0.010000
vt 0.042154 0.250000
vt 0.094115 0.220000
vt 0.146077 0.310000
vt 0.094115 0.340000
vt 0.042154 0.370000
vt 0.353923 0.430000
vt 0.353923 0.310000
vt 0.405885 0.340000
vt 0.457846 0.370000
vt 1.000000 1.000000
vt 0.698038 0.280000
vt 0.801962 0.280000
vt 0.750000 0.190000
vt 0.301962 0.220000
vt 0.250000 0.310000
vt 0.198038 0.220000
vt 1.000000 0.500000
s 0
f 25/1/1 3/2/1 13/3/1
f 26/4/2 5/5/2 15/6/2
f 27/7/3 7/8/3 17/9/3
f 28/10/4 9/11/4 19/12/4
f 2/13/5 38/14/5 43/15/5
f 32/16/6 11/17/6 21/18/6
f 33/19/7 1/20/7 23/21/7
f 3/22/8 41/23/8 46/24/8
f 4/25/9 25/1/9 14/26/9
f 6/27/10 26/4/10 16/28/10
f 8/29/11 27/7/11 18/30/11
f 10/31/12 28/10/12 20/32/12
f 16/33/13 37/34/13 6/35/13
f 24/36/14 38/14/14 2/13/14
f 20/37/15 39/38/15 10/39/15
f 12/40/16 32/16/16 22/41/16
f 2/42/17 33/19/17 24/43/17
f 23/44/18 40/45/18 11/46/18
f 15/47/19 41/23/19 3/22/19
f 19/48/20 42/49/20 7/50/20
f 21/51/21 48/52/21 36/53/21
f 36/53/22 49/54/22 21/51/22
f 9/55/23 49/54/23 19/48/23
f 17/56/24 47/57/24 35/58/24
f 35/58/25 50/59/25 17/56/25
f 5/60/26 50/59/26 15/47/26
f 13/61/27 46/24/27 34/62/27
f 34/62/28 51/63/28 13/61/28
f 1/64/29 51/63/29 23/44/29
f 12/40/30 24/43/30 33/19/30
f 10/31/31 22/41/31 32/16/31
f 18/65/32 45/66/32 31/67/32
f 31/67/33 52/68/33 18/65/33
f 8/69/34 52/68/34 20/37/34
f 22/70/35 44/71/35 30/72/35
f 30/72/36 53/73/36 22/70/36
f 12/74/37 53/73/37 24/36/37
f 14/75/38 43/15/38 29/76/38
f 29/76/39 54/77/39 14/75/39
f 4/78/40 54/77/40 16/33/40
f 8/29/41 20/32/41 28/10/41
f 6/27/42 18/30/42 27/7/42
f 4/25/43 16/28/43 26/4/43
f 2/79/44 14/26/44 25/1/44
f 34/62/45 55/80/45 40/45/45
f 34/62/46 56/81/46 55/80/46
f 35/58/47 47/57/47 57/82/47
f 33/19/48 11/17/48 12/40/48
f 32/16/49 9/11/49 10/31/49
f 29/76/50 58/83/50 37/34/50
f 29/76/51 59/84/51 58/83/51
f 30/72/52 44/71/52 60/85/52
f 28/10/53 7/8/53 8/29/53
f 27/7/54 5/5/54 6/27/54
f 26/4/55 3/2/55 4/25/55
f 25/1/56 1/86/56 2/79/56
f 4/25/57 3/2/57 25/1/57
f 6/27/58 5/5/58 26/4/58
f 8/29/59 7/8/59 27/7/59
f 10/31/60 9/11/60 28/10/60
f 12/40/61 11/17/61 32/16/61
f 2/42/62 1/20/62 33/19/62
f 33/19/63 23/21/63 11/17/63
f 32/16/64 21/18/64 9/11/64
f 28/10/65 19/12/65 7/8/65
f 27/7/66 17/9/66 5/5/66
f 26/4/67 15/6/67 3/2/67
f 25/1/68 13/3/68 1/86/68
f 60/85/69 39/38/69 31/67/69
f 60/85/70 44/71/70 39/38/70
f 44/71/71 10/39/71 39/38/71
f 58/83/72 60/85/72 31/67/72
f 58/83/73 59/84/73 60/85/73
f 59/84/74 30/72/74 60/85/74
f 37/34/75 45/66/75 6/35/75
f 37/34/76 58/83/76 45/66/76
f 58/83/77 31/67/77 45/66/77
f 57/82/78 42/49/78 36/53/78
f 57/82/79 47/57/79 42/49/79
f 47/57/80 7/50/80 42/49/80
f 55/80/81 57/82/81 36/53/81
f 55/80/82 56/81/82 57/82/82
f 56/81/83 35/58/83 57/82/83
f 40/45/84 48/52/84 11/46/84
f 40/45/85 55/80/85 48/52/85
f 55/80/86 36/53/86 48/52/86
f 46/24/87 56/81/87 34/62/87
f 46/24/88 41/23/88 56/81/88
f 41/23/89 35/58/89 56/81/89
f 43/15/90 59/84/90 29/76/90
f 43/15/91 38/14/91 59/84/91
f 38/14/92 30/72/92 59/84/92
f 16/33/93 29/76/93 37/34/93
f 24/36/94 30/72/94 38/14/94
f 20/37/95 31/67/95 39/38/95
f 23/44/96 34/62/96 40/45/96
f 15/47/97 35/58/97 41/23/97
f 19/48/98 36/53/98 42/49/98
f 21/51/99 11/46/99 48/52/99
f 36/53/100 19/48/100 49/54/100
f 9/55/101 21/51/101 49/54/101
f 17/56/102 7/50/102 47/57/102
f 35/58/103 15/47/103 50/59/103
f 5/60/104 17/56/104 50/59/104
f 13/61/105 3/22/105 46/24/105
f 34/62/106 23/44/106 51/63/106
f 1/64/107 13/61/107 51/63/107
f 18/65/108 6/35/108 45/66/108
f 31/67/109 20/37/109 52/68/109
f 8/69/110 18/65/110 52/68/110
f 22/70/111 10/39/111 44/71/111
f 30/72/112 24/36/112 53/73/112
f 12/74/113 22/70/113 53/73/113
f 14/75/114 2/13/114 43/15/114
f 29/76/115 16/33/115 54/77/115
f 4/78/116 14/75/116 54/77/116
