# Blender 4.3.0
# www.blender.org
o Cylinder
v 0.000000 -2.377192 -24.840469
v 0.000000 3.253717 -25.979092
v 21.964336 -2.778850 -12.681115
v 22.821877 3.541109 -13.176216
v 21.323717 -2.209404 12.311254
v 22.259714 3.041412 12.851652
v 0.000000 -3.179513 25.882698
v 0.000000 2.772549 25.354050
v -22.732443 -3.461614 13.124582
v -22.767578 3.492855 13.144868
v -22.485344 -3.241975 -12.981919
v -21.380259 2.259664 -12.343898
v 10.900438 -2.650240 -18.880114
v 11.024817 2.898994 -19.095543
v 21.431044 -2.280412 0.000000
v 22.084555 2.933915 0.000000
v 10.377203 -1.603781 17.973843
v 11.456053 3.761457 19.842464
v -10.472960 -1.795295 18.139700
v -11.146474 3.142306 19.306259
v -20.580385 -1.429763 0.000000
v -21.165768 2.015138 0.000000
v -11.388050 -3.625453 -19.724682
v -10.813728 2.476822 -18.729927
v 10.122852 0.000000 -17.533295
v 20.852526 0.000000 0.000000
v 9.867474 0.000000 17.090965
v -11.583444 0.000000 20.063114
v 10.825317 3.794953 -6.250000
v -10.825317 2.069812 -6.250000
v 0.000000 2.911247 12.500000
v -23.366089 0.000000 0.000000
v -9.988220 0.000000 -17.300106
v 0.000000 -1.163245 -12.500000
v 10.825317 -2.949788 6.250000
v -10.825317 -2.435771 6.250000
v 16.237976 1.268614 3.125000
v -5.412659 3.067493 -15.625000
v -10.825317 3.474293 12.500000
v -10.825317 -2.436620 -12.500000
v 16.237976 -1.761653 -3.125000
v -5.412659 -0.843044 15.625000
v 5.412659 4.315056 -15.625000
v -16.237976 4.297569 3.125000
v 10.825317 3.495987 12.500000
v 10.825317 -3.166750 -12.500000
v 5.412659 -1.798602 15.625000
v -16.237976 -1.257560 -3.125000
v -16.237976 -2.151468 9.375000
v 16.237976 -3.171623 9.375000
v 0.000000 -3.060511 -18.750000
v 0.000000 3.170960 18.750000
v -16.237976 2.106165 -9.375000
v 16.237976 1.706216 -9.375000
v -5.412659 -0.723023 -3.125000
v 5.412659 -1.133623 -3.125000
v 0.000000 -0.823712 6.250000
v 5.412659 0.685243 3.125000
v 0.000000 4.300097 -6.250000
v -5.412659 0.518545 3.125000
vn 0.4260 0.5061 -0.7499
vn 0.9693 0.2459 0.0070
vn 0.4588 0.5360 0.7087
vn -0.1521 -0.7648 0.6260
vn -0.1144 0.9926 -0.0419
vn -0.4485 -0.8738 0.1878
vn -0.3791 0.6111 -0.6949
vn 0.0366 -0.9912 0.1274
vn 0.4036 -0.5282 -0.7471
vn 0.9220 -0.3872 -0.0093
vn 0.3757 -0.6453 0.6652
vn -0.4450 0.2677 0.8546
vn -0.2760 0.9611 -0.0043
vn -0.0916 0.9953 -0.0300
vn 0.0042 0.9988 0.0489
vn -0.6752 0.7372 0.0263
vn -0.4355 -0.5545 -0.7091
vn 0.0616 -0.9856 0.1574
vn -0.1196 -0.9922 0.0340
vn 0.0574 -0.9664 -0.2504
vn -0.0357 -0.9939 -0.1043
vn -0.0762 -0.9962 -0.0414
vn 0.1607 -0.9848 -0.0657
vn -0.0147 -0.9934 0.1135
vn -0.1038 -0.9886 0.1095
vn 0.1819 -0.9833 0.0073
vn -0.1814 -0.9800 -0.0815
vn 0.0395 -0.9561 0.2902
vn 0.0587 -0.9920 -0.1113
vn -0.4220 -0.5546 -0.7171
vn -0.6664 0.7276 -0.1630
vn -0.0539 0.9981 -0.0315
vn -0.0475 0.9980 -0.0415
vn 0.0004 0.9982 0.0602
vn -0.2098 0.9171 -0.3390
vn 0.0009 0.9999 0.0102
vn 0.0052 0.9991 0.0426
vn 0.2062 0.9764 -0.0649
vn 0.3287 0.9425 -0.0606
vn -0.2520 0.9673 0.0305
vn -0.4526 0.2678 0.8505
vn 0.3842 -0.6453 0.6603
vn 0.9215 -0.3870 0.0337
vn 0.4374 -0.5283 -0.7278
vn 0.1161 -0.9868 0.1133
vn -0.0379 -0.9990 0.0250
vn -0.1927 -0.9812 0.0092
vn -0.3625 0.1789 -0.9147
vn -0.9989 -0.0052 0.0469
vn -0.0515 0.9564 0.2875
vn 0.0439 0.9404 0.3373
vn 0.3294 0.9436 -0.0340
vn -0.4299 0.0799 0.8993
vn 0.3541 -0.1580 0.9218
vn 0.9856 -0.1248 0.1138
vn 0.6021 -0.1582 -0.7826
vn 0.3521 -0.1205 -0.9282
vn 0.9834 -0.1683 -0.0678
vn 0.6516 0.0671 0.7556
vn -0.5272 -0.0051 0.8497
vn -0.9708 0.2087 -0.1180
vn -0.6185 -0.1557 -0.7702
vn -0.3955 0.6112 -0.6856
vn -0.4466 -0.8702 -0.2080
vn -0.4429 -0.7686 0.4617
vn 0.4110 0.5364 0.7371
vn 0.9688 0.2458 0.0311
vn 0.4235 0.5061 -0.7513
vn 0.0500 0.9604 -0.2740
vn 0.3277 0.9387 -0.1068
vn 0.0061 0.9964 0.0840
vn -0.0150 0.9709 -0.2392
vn -0.0143 0.9301 0.3669
vn -0.1944 0.9435 0.2683
vn 0.0452 0.9775 -0.2061
vn -0.0520 0.9644 -0.2591
vn -0.0521 0.9645 -0.2591
vn 0.1468 -0.9857 0.0827
vn -0.0878 -0.9947 -0.0527
vn -0.0865 -0.9803 -0.1776
vn 0.1466 -0.9846 -0.0952
vn -0.0379 -0.9992 0.0111
vn -0.1921 -0.9782 -0.0786
vn 0.0615 -0.9853 0.1594
vn 0.0487 -0.9871 0.1523
vn 0.0487 -0.9871 -0.1522
vn -0.1809 -0.9776 0.1075
vn -0.0570 -0.9820 0.1801
vn -0.0572 -0.9858 -0.1580
vn 0.0466 0.9985 0.0285
vn -0.1142 0.9914 -0.0644
vn -0.2018 0.9794 -0.0123
vn -0.1016 0.9443 0.3131
vn -0.1269 0.9914 0.0322
vn 0.0519 0.9973 0.0511
vn 0.1155 -0.9815 0.1525
vn -0.0174 -0.9906 -0.1356
vn 0.2070 -0.9772 0.0465
vn 0.1248 -0.9850 0.1192
vn -0.0210 -0.9983 0.0544
vn 0.1221 -0.9837 -0.1323
vn 0.0818 -0.9925 -0.0905
vn 0.0105 -0.9960 -0.0889
vn 0.0587 -0.9743 0.2176
vn 0.0334 -0.9962 -0.0803
vn 0.0226 -0.9566 0.2904
vn 0.0360 -0.9931 -0.1114
vn 0.0409 0.9984 -0.0396
vn -0.0046 0.9991 -0.0415
vn -0.0571 0.9966 0.0601
vn -0.3382 0.9297 -0.1457
vn -0.0121 0.9994 0.0326
vn 0.0186 0.9996 0.0195
vn 0.1392 0.9751 -0.1727
vn 0.2149 0.9421 -0.2574
vn -0.1535 0.9675 0.2011
vt 0.916667 0.750000
vt 0.833333 0.500000
vt 0.916667 0.500000
vt 0.750000 0.750000
vt 0.666667 0.500000
vt 0.750000 0.500000
vt 0.583333 0.750000
vt 0.500000 0.500000
vt 0.583333 0.500000
vt 0.416667 0.750000
vt 0.333333 0.500000
vt 0.416667 0.500000
vt 0.250000 0.490000
vt 0.198038 0.400000
vt 0.301962 0.400000
vt 0.250000 0.750000
vt 0.166667 0.500000
vt 0.250000 0.500000
vt 0.083333 0.750000
vt -0.000000 0.500000
vt 0.083333 0.500000
vt 0.957846 0.370000
vt 0.905885 0.280000
vt 0.853923 0.370000
vt 0.833333 1.000000
vt 0.916667 1.000000
vt 0.666667 1.000000
vt 0.750000 1.000000
vt 0.500000 1.000000
vt 0.583333 1.000000
vt 0.333333 1.000000
vt 0.416667 1.000000
vt 0.457846 0.250000
vt 0.405885 0.220000
vt 0.457846 0.130000
vt 0.146077 0.430000
vt 0.146077 0.070000
vt 0.146077 0.130000
vt 0.042154 0.130000
vt 0.166667 1.000000
vt 0.250000 1.000000
vt -0.000000 1.000000
vt 0.083333 1.000000
vt 0.646077 0.430000
vt 0.646077 0.370000
vt 0.542154 0.370000
vt 0.957846 0.250000
vt 0.646077 0.070000
vt 0.698038 0.100000
vt 0.750000 0.010000
vt 0.542154 0.250000
vt 0.594115 0.280000
vt 0.646077 0.190000
vt 0.594115 0.160000
vt 0.542154 0.130000
vt 0.853923 0.070000
vt 0.801962 0.100000
vt 0.853923 0.190000
vt 0.905885 0.160000
vt 0.957846 0.130000
vt 0.853923 0.430000
vt 0.750000 0.370000
vt 0.750000 0.430000
vt 0.750000 0.490000
vt 0.353923 0.070000
vt 0.353923 0.130000
vt 0.250000 0.130000
vt 0.250000 0.070000
vt 0.250000 0.010000
vt 0.042154 0.250000
vt 0.094115 0.220000
vt 0.146077 0.310000
vt 0.094115 0.340000
vt 0.042154 0.370000
vt 0.353923 0.430000
vt 0.353923 0.310000
vt 0.405885 0.340000
vt 0.457846 0.370000
vt 1.000000 1.000000
vt 0.698038 0.280000
vt 0.801962 0.280000
vt 0.750000 0.190000
vt 0.301962 0.220000
vt 0.250000 0.310000
vt 0.198038 0.220000
vt 1.000000 0.500000
s 0
f 25/1/1 3/2/1 13/3/1
f 26/4/2 5/5/2 15/6/2
f 27/7/3 7/8/3 17/9/3
f 28/10/4 9/11/4 19/12/4
f 2/13/5 38/14/5 43/15/5
f 32/16/6 11/17/6 21/18/6
f 33/19/7 1/20/7 23/21/7
f 3/22/8 41/23/8 46/24/8
f 4/25/9 25/1/9 14/26/9
f 6/27/10 26/4/10 16/28/10
f 8/29/11 27/7/11 18/30/11
f 10/31/12 28/10/12 20/32/12
f 16/33/13 37/34/13 6/35/13
f 24/36/14 38/14/14 2/13/14
f 20/37/15 39/38/15 10/39/15
f 12/40/16 32/16/16 22/41/16
f 2/42/17 33/19/17 24/43/17
f 23/44/18 40/45/18 11/46/18
f 15/47/19 41/23/19 3/22/19
f 19/48/20 42/49/20 7/50/20
f 21/51/21 48/52/21 36/53/21
f 36/53/22 49/54/22 21/51/22
f 9/55/23 49/54/23 19/48/23
f 17/56/24 47/57/24 35/58/24
f 35/58/25 50/59/25 17/56/25
f 5/60/26 50/59/26 15/47/26
f 13/61/27 46/24/27 34/62/27
f 34/62/28 51/63/28 13/61/28
f 1/64/29 51/63/29 23/44/29
f 12/40/30 24/43/30 33/19/30
f 10/31/31 22/41/31 32/16/31
f 18/65/32 45/66/32 31/67/32
f 31/67/33 52/68/33 18/65/33
f 8/69/34 52/68/34 20/37/34
f 22/70/35 44/71/35 30/72/35
f 30/72/36 53/73/36 22/70/36
f 12/74/37 53/73/37 24/36/37
f 14/75/38 43/15/38 29/76/38
f 29/76/39 54/77/39 14/75/39
f 4/78/40 54/77/40 16/33/40
f 8/29/41 20/32/41 28/10/41
f 6/27/42 18/30/42 27/7/42
f 4/25/43 16/28/43 26/4/43
f 2/79/44 14/26/44 25/1/44
f 34/62/45 55/80/45 40/45/45
f 34/62/46 56/81/46 55/80/46
f 35/58/47 47/57/47 57/82/47
f 33/19/48 11/17/48 12/40/48
f 32/16/49 9/11/49 10/31/49
f 29/76/50 58/83/50 37/34/50
f 29/76/51 59/84/51 58/83/51
f 30/72/52 44/71/52 60/85/52
f 28/10/53 7/8/53 8/29/53
f 27/7/54 5/5/54 6/27/54
f 26/4/55 3/2/55 4/25/55
f 25/1/56 1/86/56 2/79/56
f 4/25/57 3/2/57 25/1/57
f 6/27/58 5/5/58 26/4/58
f 8/29/59 7/8/59 27/7/59
f 10/31/60 9/11/60 28/10/60
f 12/40/61 11/17/61 32/16/61
f 2/42/62 1/20/62 33/19/62
f 33/19/63 23/21/63 11/17/63
f 32/16/64 21/18/64 9/11/64
f 28/10/65 19/12/65 7/8/65
f 27/7/66 17/9/66 5/5/66
f 26/4/67 15/6/67 3/2/67
f 25/1/68 13/3/68 1/86/68
f 60/85/69 39/38/69 31/67/69
f 60/85/70 44/71/70 39/38/70
f 44/71/71 10/39/71 39/38/71
f 58/83/72 60/85/72 31/67/72
f 58/83/73 59/84/73 60/85/73
f 59/84/74 30/72/74 60/85/74
f 37/34/75 45/66/75 6/35/75
f 37/34/76 58/83/76 45/66/76
f 58/83/77 31/67/77 45/66/77
f 57/82/78 42/49/78 36/53/78
f 57/82/79 47/57/79 42/49/79
f 47/57/80 7/50/80 42/49/80
f 55/80/81 57/82/81 36/53/81
f 55/80/82 56/81/82 57/82/82
f 56/81/83 35/58/83 57/82/83
f 40/45/84 48/52/84 11/46/84
f 40/45/85 55/80/85 48/52/85
f 55/80/86 36/53/86 48/52/86
f 46/24/87 56/81/87 34/62/87
f 46/24/88 41/23/88 56/81/88
f 41/23/89 35/58/89 56/81/89
f 43/15/90 59/84/90 29/76/90
f 43/15/91 38/14/91 59/84/91
f 38/14/92 30/72/92 59/84/92
f 16/33/93 29/76/93 37/34/93
f 24/36/94 30/72/94 38/14/94
f 20/37/95 31/67/95 39/38/95
f 23/44/96 34/62/96 40/45/96
f 15/47/97 35/58/97 41/23/97
f 19/48/98 36/53/98 42/49/98
f 21/51/99 11/46/99 48/52/99
f 36/53/100 19/48/100 49/54/100
f 9/55/101 21/51/101 49/54/101
f 17/56/102 7/50/102 47/57/102
f 35/58/103 15/47/103 50/59/103
f 5/60/104 17/56/104 50/59/104
f 13/61/105 3/22/105 46/24/105
f 34/62/106 23/44/106 51/63/106
f 1/64/107 13/61/107 51/63/107
f 18/65/108 6/35/108 45/66/108
f 31/67/109 20/37/109 52/68/109
f 8/69/110 18/65/110 52/68/110
f 22/70/111 10/39/111 44/71/111
f 30/72/112 24/36/112 53/73/112
f 12/74/113 22/70/113 53/73/113
f 14/75/114 2/13/114 43/15/114
f 29/76/115 16/33/115 54/77/115
f 4/78/116 14/75/116 54/77/116
