# Blender 4.3.0
# www.blender.org
o Cylinder
v 0.000000 -2.780608 -25.364519
v 0.000000 3.285795 -26.020761
v 22.147377 -2.941555 -12.786794
v 21.286177 2.176035 -12.289580
v 20.310940 -1.309152 11.726526
v 20.796307 1.740585 12.006753
v 0.000000 -2.754645 25.330790
v 0.000000 3.129402 25.817612
v -20.366673 -1.358693 11.758704
v -22.080505 2.882114 12.748186
v -20.921602 -1.851961 -12.079093
v -21.079811 1.992599 -12.170435
v 11.261105 -3.371566 -19.504807
v 10.509845 1.869061 -18.203585
v 20.812174 -1.661549 0.000000
v 22.950462 3.799815 0.000000
v 10.330582 -1.510539 17.893093
v 11.192760 3.234878 19.386429
v -11.319944 -3.489243 19.606720
v -10.641315 2.131998 18.431297
v -22.554005 -3.403361 0.000000
v -21.739634 2.588998 0.000000
v -10.252246 -1.353868 -17.757410
v -10.979209 2.807779 -19.016548
v 10.473798 0.000000 -18.141151
v 23.434622 0.000000 0.000000
v 10.444440 0.000000 18.090302
v -9.839428 0.000000 17.042389
v 10.825317 2.235458 -6.250000
v -10.825317 3.972114 -6.250000
v 0.000000 1.711153 12.500000
v -22.288656 0.000000 0.000000
v -10.887859 0.000000 -18.858326
v 0.000000 -2.219575 -12.500000
v 10.825317 -0.777390 6.250000
v -10.825317 -4.364863 6.250000
v 16.237976 1.939288 3.125000
v -5.412659 2.849981 -15.625000
v -10.825317 3.029519 12.500000
v -10.825317 -3.705477 -12.500000
v 16.237976 -2.195363 -3.125000
v -5.412659 -3.271063 15.625000
v 5.412659 1.992193 -15.625000
v -16.237976 1.116883 3.125000
v 10.825317 1.266086 12.500000
v 10.825317 -3.728609 -12.500000
v 5.412659 -4.217969 15.625000
v -16.237976 -1.064215 -3.125000
v -16.237976 -2.463431 9.375000
v 16.237976 -4.499730 9.375000
v 0.000000 -3.668089 -18.750000
v 0.000000 1.961283 18.750000
v -16.237976 4.130586 -9.375000
v 16.237976 2.978854 -9.375000
v -5.412659 -3.637060 -3.125000
v 5.412659 -2.719529 -3.125000
v 0.000000 -4.278502 6.250000
v 5.412659 0.836804 3.125000
v 0.000000 3.434999 -6.250000
v -5.412659 0.530182 3.125000
vn 0.4637 0.4231 -0.7784
vn 0.5346 -0.8437 0.0482
vn 0.5895 -0.1481 0.7941
vn -0.4072 0.6467 0.6449
vn 0.0787 0.9935 0.0826
vn -0.9893 0.0771 -0.1238
vn -0.4976 -0.6758 -0.5438
vn 0.0719 -0.9901 0.1204
vn 0.4816 -0.0385 -0.8755
vn 0.9728 0.1239 0.1958
vn 0.4551 -0.4199 0.7852
vn -0.3868 -0.6011 0.6993
vn -0.2087 0.9695 0.1288
vn -0.0251 0.9993 0.0288
vn -0.0096 0.9887 0.1499
vn -0.9763 0.2070 -0.0631
vn -0.5347 -0.0649 -0.8426
vn -0.1809 -0.8903 -0.4179
vn 0.0448 -0.9936 0.1041
vn 0.0528 -0.9983 0.0237
vn 0.1383 -0.9065 -0.3990
vn -0.2011 -0.9520 0.2309
vn -0.2468 -0.9688 0.0215
vn 0.4939 -0.8689 -0.0337
vn -0.5350 -0.8415 -0.0757
vn 0.5980 -0.8000 0.0496
vn -0.1378 -0.9887 -0.0590
vn 0.0408 -0.9734 0.2256
vn -0.2302 -0.9645 -0.1294
vn -0.5563 -0.0648 -0.8285
vn -0.9778 0.2073 -0.0309
vn 0.0395 0.9602 -0.2766
vn -0.1107 0.9931 -0.0397
vn 0.0207 0.9864 -0.1630
vn 0.0672 0.9430 0.3260
vn -0.0485 0.9898 0.1343
vn -0.2560 0.9290 -0.2671
vn 0.0085 0.9995 -0.0309
vn -0.1509 0.9882 -0.0263
vn 0.0758 0.9872 -0.1407
vn -0.4170 -0.6010 0.6819
vn 0.5114 -0.4189 0.7503
vn 0.9809 0.1250 -0.1493
vn 0.5930 -0.0383 -0.8043
vn 0.1356 -0.9882 -0.0711
vn 0.0840 -0.9913 -0.1014
vn 0.3033 -0.9378 -0.1691
vn -0.5539 -0.0425 -0.8315
vn -0.9135 -0.3934 0.1039
vn -0.1009 0.9909 0.0896
vn 0.1077 0.9723 0.2073
vn 0.0513 0.9467 0.3180
vn -0.6532 -0.0624 0.7546
vn 0.5200 -0.1599 0.8391
vn 0.9743 0.1774 -0.1389
vn 0.5812 -0.0875 -0.8090
vn 0.4446 0.1604 -0.8812
vn 0.9563 -0.1738 0.2353
vn 0.5803 -0.0671 0.8116
vn -0.3827 -0.3538 0.8535
vn -0.9934 -0.0434 -0.1058
vn -0.5279 -0.0913 -0.8444
vn -0.3178 -0.6835 -0.6571
vn -0.9826 0.0766 0.1695
vn -0.3771 0.6470 0.6627
vn 0.5219 -0.1490 0.8399
vn 0.5300 -0.8365 0.1391
vn 0.4356 0.4231 -0.7945
vn 0.1187 0.9743 -0.1912
vn 0.0527 0.9721 -0.2287
vn -0.0171 0.9816 -0.1904
vn -0.0281 0.9937 -0.1089
vn -0.0272 0.9592 0.2815
vn 0.0469 0.9462 0.3203
vn -0.0452 0.9979 0.0455
vn -0.1013 0.9948 0.0129
vn 0.0410 0.9968 -0.0693
vn 0.0079 -0.9937 0.1114
vn -0.0870 -0.9946 0.0567
vn -0.0867 -0.9911 0.1011
vn 0.0080 -0.9973 -0.0728
vn 0.0839 -0.9897 -0.1161
vn 0.3077 -0.9513 0.0194
vn -0.1707 -0.9697 0.1746
vn -0.2290 -0.9634 0.1392
vn -0.2263 -0.9523 -0.2046
vn -0.1380 -0.9901 0.0269
vn 0.0479 -0.9898 0.1342
vn 0.0476 -0.9832 0.1762
vn 0.1097 0.9900 -0.0890
vn 0.0785 0.9911 -0.1072
vn 0.0494 0.9947 -0.0906
vn -0.2004 0.9687 0.1463
vn 0.0481 0.9947 -0.0913
vn 0.1196 0.9822 0.1449
vn 0.1250 -0.9107 -0.3937
vn 0.0095 -0.9879 0.1549
vn 0.0827 -0.9942 0.0682
vn 0.3113 -0.9470 -0.0795
vn -0.3046 -0.9511 0.0511
vn -0.1464 -0.9696 0.1958
vn 0.3383 -0.8842 0.3220
vn -0.3372 -0.8427 -0.4197
vn 0.3300 -0.7956 0.5080
vn 0.0681 -0.9966 -0.0466
vn -0.1943 -0.9556 0.2215
vn 0.0172 -0.9910 -0.1330
vn -0.0591 0.9606 -0.2715
vn 0.0172 0.9991 -0.0400
vn -0.1025 0.9814 -0.1622
vn 0.2664 0.9637 -0.0150
vn 0.0819 0.9924 -0.0915
vn -0.3712 0.9262 -0.0655
vn 0.0685 0.9938 0.0880
vn -0.1318 0.9912 0.0076
vn 0.0619 0.9845 -0.1639
vt 0.916667 0.750000
vt 0.833333 0.500000
vt 0.916667 0.500000
vt 0.750000 0.750000
vt 0.666667 0.500000
vt 0.750000 0.500000
vt 0.583333 0.750000
vt 0.500000 0.500000
vt 0.583333 0.500000
vt 0.416667 0.750000
vt 0.333333 0.500000
vt 0.416667 0.500000
vt 0.250000 0.490000
vt 0.198038 0.400000
vt 0.301962 0.400000
vt 0.250000 0.750000
vt 0.166667 0.500000
vt 0.250000 0.500000
vt 0.083333 0.750000
vt -0.000000 0.500000
vt 0.083333 0.500000
vt 0.957846 0.370000
vt 0.905885 0.280000
vt 0.853923 0.370000
vt 0.833333 1.000000
vt 0.916667 1.000000
vt 0.666667 1.000000
vt 0.750000 1.000000
vt 0.500000 1.000000
vt 0.583333 1.000000
vt 0.333333 1.000000
vt 0.416667 1.000000
vt 0.457846 0.250000
vt 0.405885 0.220000
vt 0.457846 0.130000
vt 0.146077 0.430000
vt 0.146077 0.070000
vt 0.146077 0.130000
vt 0.042154 0.130000
vt 0.166667 1.000000
vt 0.250000 1.000000
vt -0.000000 1.000000
vt 0.083333 1.000000
vt 0.646077 0.430000
vt 0.646077 0.370000
vt 0.542154 0.370000
vt 0.957846 0.250000
vt 0.646077 0.070000
vt 0.698038 0.100000
vt 0.750000 0.010000
vt 0.542154 0.250000
vt 0.594115 0.280000
vt 0.646077 0.190000
vt 0.594115 0.160000
vt 0.542154 0.130000
vt 0.853923 0.070000
vt 0.801962 0.100000
vt 0.853923 0.190000
vt 0.905885 0.160000
vt 0.957846 0.130000
vt 0.853923 0.430000
vt 0.750000 0.370000
vt 0.750000 0.430000
vt 0.750000 0.490000
vt 0.353923 0.070000
vt 0.353923 0.130000
vt 0.250000 0.130000
vt 0.250000 0.070000
vt 0.250000 0.010000
vt 0.042154 0.250000
vt 0.094115 0.220000
vt 0.146077 0.310000
vt 0.094115 0.340000
vt 0.042154 0.370000
vt 0.353923 0.430000
vt 0.353923 0.310000
vt 0.405885 0.340000
vt 0.457846 0.370000
vt 1.000000 1.000000
vt 0.698038 0.280000
vt 0.801962 0.280000
vt 0.750000 0.190000
vt 0.301962 0.220000
vt 0.250000 0.310000
vt 0.198038 0.220000
vt 1.000000 0.500000
s 0
f 25/1/1 3/2/1 13/3/1
f 26/4/2 5/5/2 15/6/2
f 27/7/3 7/8/3 17/9/3
f 28/10/4 9/11/4 19/12/4
f 2/13/5 38/14/5 43/15/5
f 32/16/6 11/17/6 21/18/6
f 33/19/7 1/20/7 23/21/7
f 3/22/8 41/23/8 46/24/8
f 4/25/9 25/1/9 14/26/9
f 6/27/10 26/4/10 16/28/10
f 8/29/11 27/7/11 18/30/11
f 10/31/12 28/10/12 20/32/12
f 16/33/13 37/34/13 6/35/13
f 24/36/14 38/14/14 2/13/14
f 20/37/15 39/38/15 10/39/15
f 12/40/16 32/16/16 22/41/16
f 2/42/17 33/19/17 24/43/17
f 23/44/18 40/45/18 11/46/18
f 15/47/19 41/23/19 3/22/19
f 19/48/20 42/49/20 7/50/20
f 21/51/21 48/52/21 36/53/21
f 36/53/22 49/54/22 21/51/22
f 9/55/23 49/54/23 19/48/23
f 17/56/24 47/57/24 35/58/24
f 35/58/25 50/59/25 17/56/25
f 5/60/26 50/59/26 15/47/26
f 13/61/27 46/24/27 34/62/27
f 34/62/28 51/63/28 13/61/28
f 1/64/29 51/63/29 23/44/29
f 12/40/30 24/43/30 33/19/30
f 10/31/31 22/41/31 32/16/31
f 18/65/32 45/66/32 31/67/32
f 31/67/33 52/68/33 18/65/33
f 8/69/34 52/68/34 20/37/34
f 22/70/35 44/71/35 30/72/35
f 30/72/36 53/73/36 22/70/36
f 12/74/37 53/73/37 24/36/37
f 14/75/38 43/15/38 29/76/38
f 29/76/39 54/77/39 14/75/39
f 4/78/40 54/77/40 16/33/40
f 8/29/41 20/32/41 28/10/41
f 6/27/42 18/30/42 27/7/42
f 4/25/43 16/28/43 26/4/43
f 2/79/44 14/26/44 25/1/44
f 34/62/45 55/80/45 40/45/45
f 34/62/46 56/81/46 55/80/46
f 35/58/47 47/57/47 57/82/47
f 33/19/48 11/17/48 12/40/48
f 32/16/49 9/11/49 10/31/49
f 29/76/50 58/83/50 37/34/50
f 29/76/51 59/84/51 58/83/51
f 30/72/52 44/71/52 60/85/52
f 28/10/53 7/8/53 8/29/53
f 27/7/54 5/5/54 6/27/54
f 26/4/55 3/2/55 4/25/55
f 25/1/56 1/86/56 2/79/56
f 4/25/57 3/2/57 25/1/57
f 6/27/58 5/5/58 26/4/58
f 8/29/59 7/8/59 27/7/59
f 10/31/60 9/11/60 28/10/60
f 12/40/61 11/17/61 32/16/61
f 2/42/62 1/20/62 33/19/62
f 33/19/63 23/21/63 11/17/63
f 32/16/64 21/18/64 9/11/64
f 28/10/65 19/12/65 7/8/65
f 27/7/66 17/9/66 5/5/66
f 26/4/67 15/6/67 3/2/67
f 25/1/68 13/3/68 1/86/68
f 60/85/69 39/38/69 31/67/69
f 60/85/70 44/71/70 39/38/70
f 44/71/71 10/39/71 39/38/71
f 58/83/72 60/85/72 31/67/72
f 58/83/73 59/84/73 60/85/73
f 59/84/74 30/72/74 60/85/74
f 37/34/75 45/66/75 6/35/75
f 37/34/76 58/83/76 45/66/76
f 58/83/77 31/67/77 45/66/77
f 57/82/78 42/49/78 36/53/78
f 57/82/79 47/57/79 42/49/79
f 47/57/80 7/50/80 42/49/80
f 55/80/81 57/82/81 36/53/81
f 55/80/82 56/81/82 57/82/82
f 56/81/83 35/58/83 57/82/83
f 40/45/84 48/52/84 11/46/84
f 40/45/85 55/80/85 48/52/85
f 55/80/86 36/53/86 48/52/86
f 46/24/87 56/81/87 34/62/87
f 46/24/88 41/23/88 56/81/88
f 41/23/89 35/58/89 56/81/89
f 43/15/90 59/84/90 29/76/90
f 43/15/91 38/14/91 59/84/91
f 38/14/92 30/72/92 59/84/92
f 16/33/93 29/76/93 37/34/93
f 24/36/94 30/72/94 38/14/94
f 20/37/95 31/67/95 39/38/95
f 23/44/96 34/62/96 40/45/96
f 15/47/97 35/58/97 41/23/97
f 19/48/98 36/53/98 42/49/98
f 21/51/99 11/46/99 48/52/99
f 36/53/100 19/48/100 49/54/100
f 9/55/101 21/51/101 49/54/101
f 17/56/102 7/50/102 47/57/102
f 35/58/103 15/47/103 50/59/103
f 5/60/104 17/56/104 50/59/104
f 13/61/105 3/22/105 46/24/105
f 34/62/106 23/44/106 51/63/106
f 1/64/107 13/61/107 51/63/107
f 18/65/108 6/35/108 45/66/108
f 31/67/109 20/37/109 52/68/109
f 8/69/110 18/65/110 52/68/110
f 22/70/111 10/39/111 44/71/111
f 30/72/112 24/36/112 53/73/112
f 12/74/113 22/70/113 53/73/113
f 14/75/114 2/13/114 43/15/114
f 29/76/115 16/33/115 54/77/115
f 4/78/116 14/75/116 54/77/116
