# Blender 4.3.0
# www.blender.org
o Cylinder
v 0.000000 -3.354861 -26.110491
v 0.000000 1.592279 -23.820854
v 23.014961 -3.712754 -13.287695
v 23.009979 3.708313 -13.284818
v 21.154497 -2.058985 12.213554
v 21.428175 2.302256 12.371563
v 0.000000 -2.412237 24.885994
v 0.000000 2.464288 24.953609
v -21.246843 -2.141072 12.266870
v -21.018652 1.938229 12.135125
v -21.102774 -2.013004 -12.183692
v -22.879725 3.592531 -13.209616
v 10.764064 -2.377494 -18.643906
v 10.927938 2.705238 -18.927744
v 21.114788 -1.964159 0.000000
v 21.037037 1.886409 0.000000
v 10.197837 -1.245052 17.663172
v 10.476944 1.803262 18.146601
v -11.145291 -3.139940 19.304211
v -10.450425 1.750224 18.100668
v -22.511129 -3.360486 0.000000
v -20.698679 1.548055 0.000000
v -10.459620 -1.768612 -18.116592
v -11.268096 3.385547 -19.516914
v 11.210348 0.000000 -19.416893
v 22.390007 0.000000 0.000000
v 10.784797 0.000000 18.679815
v -10.539438 0.000000 18.254843
v 10.825317 2.286909 -6.250000
v -10.825317 2.040639 -6.250000
v 0.000000 2.158658 12.500000
v -22.436012 0.000000 0.000000
v -10.265525 0.000000 -17.780411
v 0.000000 -3.378572 -12.500000
v 10.825317 -3.986459 6.250000
v -10.825317 -4.040649 6.250000
v 16.237976 1.292700 3.125000
v -5.412659 1.467977 -15.625000
v -10.825317 1.781893 12.500000
v -10.825317 -0.732194 -12.500000
v 16.237976 -1.090059 -3.125000
v -5.412659 -1.131435 15.625000
v 5.412659 3.744175 -15.625000
v -16.237976 3.607900 3.125000
v 10.825317 3.142321 12.500000
v 10.825317 -2.086957 -12.500000
v 5.412659 -3.088536 15.625000
v -16.237976 -2.678215 -3.125000
v -16.237976 -0.716126 9.375000
v 16.237976 -1.067758 9.375000
v 0.000000 -0.594657 -18.750000
v 0.000000 3.247692 18.750000
v -16.237976 3.914819 -9.375000
v 16.237976 0.688513 -9.375000
v -5.412659 -0.814070 -3.125000
v 5.412659 -1.357071 -3.125000
v 0.000000 -1.484868 6.250000
v 5.412659 2.526538 3.125000
v 0.000000 3.549950 -6.250000
v -5.412659 1.082607 3.125000
vn 0.3434 -0.3481 -0.8723
vn 0.8387 -0.5445 -0.0070
vn 0.4740 -0.6801 0.5593
vn -0.5092 0.3596 0.7819
vn -0.2043 0.9715 -0.1202
vn -0.9934 0.0222 -0.1124
vn -0.5726 0.2133 -0.7916
vn -0.1192 -0.9777 0.1728
vn 0.4004 0.2034 -0.8935
vn 0.8118 0.5822 -0.0452
vn 0.5299 0.3224 0.7844
vn -0.4877 0.1012 0.8671
vn -0.1412 0.9896 -0.0288
vn 0.2128 0.9647 0.1552
vn 0.0152 0.9999 0.0046
vn -0.6490 0.7283 0.2199
vn -0.3767 -0.5086 -0.7742
vn 0.1272 -0.9739 0.1880
vn -0.2337 -0.9678 0.0939
vn 0.1815 -0.9541 -0.2380
vn 0.0279 -0.9868 -0.1595
vn -0.2796 -0.8588 0.4293
vn 0.1055 -0.9522 -0.2865
vn 0.2587 -0.9359 0.2390
vn 0.3516 -0.9057 0.2369
vn -0.1938 -0.9810 -0.0070
vn 0.1183 -0.9919 0.0457
vn -0.1457 -0.9037 -0.4025
vn 0.1254 -0.9289 0.3484
vn -0.4177 -0.5095 -0.7523
vn -0.6647 0.7460 -0.0415
vn -0.0882 0.9704 0.2247
vn 0.1249 0.9774 -0.1703
vn -0.1483 0.9812 0.1239
vn -0.2283 0.9302 -0.2873
vn 0.1478 0.9399 0.3076
vn -0.0143 0.9981 -0.0591
vn 0.2046 0.9783 0.0339
vn 0.3010 0.9530 0.0339
vn -0.3713 0.9257 0.0718
vn -0.5504 0.1010 0.8288
vn 0.4299 0.3227 0.8432
vn 0.7967 0.5714 0.1967
vn 0.3829 0.2029 -0.9012
vn -0.2355 -0.9635 0.1276
vn -0.0487 -0.9702 0.2373
vn -0.2250 -0.9737 -0.0366
vn -0.3973 -0.2856 -0.8721
vn -0.9926 0.0590 0.1065
vn 0.1132 0.9928 0.0400
vn 0.1158 0.9924 0.0415
vn 0.2271 0.9734 -0.0316
vn -0.5344 -0.0117 0.8451
vn 0.5190 -0.0635 0.8524
vn 0.9989 0.0007 0.0468
vn 0.3842 0.3878 -0.8379
vn 0.4610 0.0007 -0.8874
vn 0.9938 -0.0656 0.0895
vn 0.5007 -0.0120 0.8655
vn -0.4958 0.0557 0.8666
vn -0.9491 -0.3105 -0.0526
vn -0.5140 0.3603 -0.7785
vn -0.4793 0.2144 -0.8511
vn -0.9947 0.0222 0.1003
vn -0.4365 0.3598 0.8246
vn 0.2839 -0.6832 0.6728
vn 0.8237 -0.5348 0.1882
vn 0.5552 -0.3496 -0.7547
vn -0.0346 0.9950 -0.0942
vn 0.2268 0.9722 0.0584
vn 0.0084 0.9824 0.1865
vn -0.1321 0.9905 -0.0374
vn -0.1300 0.9748 0.1815
vn -0.1359 0.9746 0.1780
vn 0.0763 0.9857 -0.1504
vn 0.1123 0.9852 -0.1295
vn -0.0905 0.9958 -0.0132
vn 0.2266 -0.9596 0.1670
vn -0.1775 -0.9819 -0.0655
vn -0.1778 -0.9835 -0.0321
vn 0.2252 -0.9539 -0.1983
vn -0.0501 -0.9978 -0.0425
vn -0.2229 -0.9645 -0.1418
vn 0.1184 -0.9836 -0.1358
vn 0.1687 -0.9799 -0.1060
vn 0.1650 -0.9580 -0.2345
vn 0.1172 -0.9826 0.1442
vn 0.0246 -0.9955 0.0917
vn 0.0237 -0.9589 -0.2826
vn 0.1154 0.9895 0.0872
vn -0.2048 0.9739 -0.0981
vn -0.1368 0.9808 -0.1389
vn -0.0394 0.9910 0.1278
vn 0.2560 0.9626 0.0890
vn -0.0348 0.9994 0.0080
vn -0.2343 -0.9586 0.1616
vn 0.0131 -0.9575 -0.2882
vn 0.3712 -0.9257 0.0730
vn 0.0565 -0.9930 -0.1033
vn -0.5029 -0.8631 0.0472
vn 0.3065 -0.9498 0.0628
vn 0.2659 -0.9377 0.2239
vn 0.3367 -0.9045 0.2616
vn -0.1311 -0.9845 -0.1166
vn -0.1290 -0.9905 0.0481
vn 0.0777 -0.9107 -0.4057
vn -0.1566 -0.9248 0.3468
vn 0.0796 0.9688 0.2347
vn -0.1294 0.9769 -0.1702
vn 0.1425 0.9820 0.1240
vn -0.3957 0.9175 -0.0399
vn 0.2804 0.9559 0.0875
vn -0.1483 0.9733 0.1751
vn 0.0215 0.9634 -0.2672
vn 0.1649 0.9642 -0.2076
vn -0.2257 0.9202 0.3198
vt 0.916667 0.750000
vt 0.833333 0.500000
vt 0.916667 0.500000
vt 0.750000 0.750000
vt 0.666667 0.500000
vt 0.750000 0.500000
vt 0.583333 0.750000
vt 0.500000 0.500000
vt 0.583333 0.500000
vt 0.416667 0.750000
vt 0.333333 0.500000
vt 0.416667 0.500000
vt 0.250000 0.490000
vt 0.198038 0.400000
vt 0.301962 0.400000
vt 0.250000 0.750000
vt 0.166667 0.500000
vt 0.250000 0.500000
vt 0.083333 0.750000
vt -0.000000 0.500000
vt 0.083333 0.500000
vt 0.957846 0.370000
vt 0.905885 0.280000
vt 0.853923 0.370000
vt 0.833333 1.000000
vt 0.916667 1.000000
vt 0.666667 1.000000
vt 0.750000 1.000000
vt 0.500000 1.000000
vt 0.583333 1.000000
vt 0.333333 1.000000
vt 0.416667 1.000000
vt 0.457846 0.250000
vt 0.405885 0.220000
vt 0.457846 0.130000
vt 0.146077 0.430000
vt 0.146077 0.070000
vt 0.146077 0.130000
vt 0.042154 0.130000
vt 0.166667 1.000000
vt 0.250000 1.000000
vt -0.000000 1.000000
vt 0.083333 1.000000
vt 0.646077 0.430000
vt 0.646077 0.370000
vt 0.542154 0.370000
vt 0.957846 0.250000
vt 0.646077 0.070000
vt 0.698038 0.100000
vt 0.750000 0.010000
vt 0.542154 0.250000
vt 0.594115 0.280000
vt 0.646077 0.190000
vt 0.594115 0.160000
vt 0.542154 0.130000
vt 0.853923 0.070000
vt 0.801962 0.100000
vt 0.853923 0.190000
vt 0.905885 0.160000
vt 0.957846 0.130000
vt 0.853923 0.430000
vt 0.750000 0.370000
vt 0.750000 0.430000
vt 0.750000 0.490000
vt 0.353923 0.070000
vt 0.353923 0.130000
vt 0.250000 0.130000
vt 0.250000 0.070000
vt 0.250000 0.010000
vt 0.042154 0.250000
vt 0.094115 0.220000
vt 0.146077 0.310000
vt 0.094115 0.340000
vt 0.042154 0.370000
vt 0.353923 0.430000
vt 0.353923 0.310000
vt 0.405885 0.340000
vt 0.457846 0.370000
vt 1.000000 1.000000
vt 0.698038 0.280000
vt 0.801962 0.280000
vt 0.750000 0.190000
vt 0.301962 0.220000
vt 0.250000 0.310000
vt 0.198038 0.220000
vt 1.000000 0.500000
s 0
f 25/1/1 3/2/1 13/3/1
f 26/4/2 5/5/2 15/6/2
f 27/7/3 7/8/3 17/9/3
f 28/10/4 9/11/4 19/12/4
f 2/13/5 38/14/5 43/15/5
f 32/16/6 11/17/6 21/18/6
f 33/19/7 1/20/7 23/21/7
f 3/22/8 41/23/8 46/24/8
f 4/25/9 25/1/9 14/26/9
f 6/27/10 26/4/10 16/28/10
f 8/29/11 27/7/11 18/30/11
f 10/31/12 28/10/12 20/32/12
f 16/33/13 37/34/13 6/35/13
f 24/36/14 38/14/14 2/13/14
f 20/37/15 39/38/15 10/39/15
f 12/40/16 32/16/16 22/41/16
f 2/42/17 33/19/17 24/43/17
f 23/44/18 40/45/18 11/46/18
f 15/47/19 41/23/19 3/22/19
f 19/48/20 42/49/20 7/50/20
f 21/51/21 48/52/21 36/53/21
f 36/53/22 49/54/22 21/51/22
f 9/55/23 49/54/23 19/48/23
f 17/56/24 47/57/24 35/58/24
f 35/58/25 50/59/25 17/56/25
f 5/60/26 50/59/26 15/47/26
f 13/61/27 46/24/27 34/62/27
f 34/62/28 51/63/28 13/61/28
f 1/64/29 51/63/29 23/44/29
f 12/40/30 24/43/30 33/19/30
f 10/31/31 22/41/31 32/16/31
f 18/65/32 45/66/32 31/67/32
f 31/67/33 52/68/33 18/65/33
f 8/69/34 52/68/34 20/37/34
f 22/70/35 44/71/35 30/72/35
f 30/72/36 53/73/36 22/70/36
f 12/74/37 53/73/37 24/36/37
f 14/75/38 43/15/38 29/76/38
f 29/76/39 54/77/39 14/75/39
f 4/78/40 54/77/40 16/33/40
f 8/29/41 20/32/41 28/10/41
f 6/27/42 18/30/42 27/7/42
f 4/25/43 16/28/43 26/4/43
f 2/79/44 14/26/44 25/1/44
f 34/62/45 55/80/45 40/45/45
f 34/62/46 56/81/46 55/80/46
f 35/58/47 47/57/47 57/82/47
f 33/19/48 11/17/48 12/40/48
f 32/16/49 9/11/49 10/31/49
f 29/76/50 58/83/50 37/34/50
f 29/76/51 59/84/51 58/83/51
f 30/72/52 44/71/52 60/85/52
f 28/10/53 7/8/53 8/29/53
f 27/7/54 5/5/54 6/27/54
f 26/4/55 3/2/55 4/25/55
f 25/1/56 1/86/56 2/79/56
f 4/25/57 3/2/57 25/1/57
f 6/27/58 5/5/58 26/4/58
f 8/29/59 7/8/59 27/7/59
f 10/31/60 9/11/60 28/10/60
f 12/40/61 11/17/61 32/16/61
f 2/42/62 1/20/62 33/19/62
f 33/19/63 23/21/63 11/17/63
f 32/16/64 21/18/64 9/11/64
f 28/10/65 19/12/65 7/8/65
f 27/7/66 17/9/66 5/5/66
f 26/4/67 15/6/67 3/2/67
f 25/1/68 13/3/68 1/86/68
f 60/85/69 39/38/69 31/67/69
f 60/85/70 44/71/70 39/38/70
f 44/71/71 10/39/71 39/38/71
f 58/83/72 60/85/72 31/67/72
f 58/83/73 59/84/73 60/85/73
f 59/84/74 30/72/74 60/85/74
f 37/34/75 45/66/75 6/35/75
f 37/34/76 58/83/76 45/66/76
f 58/83/77 31/67/77 45/66/77
f 57/82/78 42/49/78 36/53/78
f 57/82/79 47/57/79 42/49/79
f 47/57/80 7/50/80 42/49/80
f 55/80/81 57/82/81 36/53/81
f 55/80/82 56/81/82 57/82/82
f 56/81/83 35/58/83 57/82/83
f 40/45/84 48/52/84 11/46/84
f 40/45/85 55/80/85 48/52/85
f 55/80/86 36/53/86 48/52/86
f 46/24/87 56/81/87 34/62/87
f 46/24/88 41/23/88 56/81/88
f 41/23/89 35/58/89 56/81/89
f 43/15/90 59/84/90 29/76/90
f 43/15/91 38/14/91 59/84/91
f 38/14/92 30/72/92 59/84/92
f 16/33/93 29/76/93 37/34/93
f 24/36/94 30/72/94 38/14/94
f 20/37/95 31/67/95 39/38/95
f 23/44/96 34/62/96 40/45/96
f 15/47/97 35/58/97 41/23/97
f 19/48/98 36/53/98 42/49/98
f 21/51/99 11/46/99 48/52/99
f 36/53/100 19/48/100 49/54/100
f 9/55/101 21/51/101 49/54/101
f 17/56/102 7/50/102 47/57/102
f 35/58/103 15/47/103 50/59/103
f 5/60/104 17/56/104 50/59/104
f 13/61/105 3/22/105 46/24/105
f 34/62/106 23/44/106 51/63/106
f 1/64/107 13/61/107 51/63/107
f 18/65/108 6/35/108 45/66/108
f 31/67/109 20/37/109 52/68/109
f 8/69/110 18/65/110 52/68/110
f 22/70/111 10/39/111 44/71/111
f 30/72/112 24/36/112 53/73/112
f 12/74/113 22/70/113 53/73/113
f 14/75/114 2/13/114 43/15/114
f 29/76/115 16/33/115 54/77/115
f 4/78/116 14/75/116 54/77/116
