# Blender 4.3.0
# www.blender.org
o Cylinder
v 0.000000 -1.917307 -24.243065
v 0.000000 3.266023 -25.995077
v 22.169050 -2.960821 -12.799307
v 22.227530 3.012798 -12.833070
v 22.239813 -3.023717 12.840162
v 22.206375 2.994000 12.820857
v 0.000000 -3.048207 25.712130
v 0.000000 3.353930 26.109282
v -20.349541 -1.343464 11.748813
v -20.643902 1.605111 11.918762
v -20.880838 -1.815726 -12.055558
v -22.758615 3.484879 -13.139693
v 10.421802 -1.692977 -18.051090
v 10.476475 1.802323 -18.145788
v 21.013762 -1.863133 0.000000
v 20.722458 1.571834 0.000000
v 10.292521 -1.434417 17.827168
v 11.212987 3.275331 19.421463
v -10.426796 -1.702966 18.059740
v -11.137454 3.124267 19.290636
v -21.852242 -2.701604 0.000000
v -20.907177 1.756551 0.000000
v -10.646351 -2.142070 -18.440020
v -11.175994 3.201345 -19.357389
v 10.296434 0.000000 -17.833948
v 22.092052 0.000000 0.000000
v 11.046466 0.000000 19.133041
v -11.431729 0.000000 19.800337
v 10.825317 4.453849 -6.250000
v -10.825317 3.908457 -6.250000
v 0.000000 3.386468 12.500000
v -19.898434 0.000000 0.000000
v -11.512444 0.000000 -19.940140
v 0.000000 -4.403656 -12.500000
v 10.825317 -4.382216 6.250000
v -10.825317 -4.031817 6.250000
v 16.237976 4.169472 3.125000
v -5.412659 2.207259 -15.625000
v -10.825317 3.767317 12.500000
v -10.825317 -2.973354 -12.500000
v 16.237976 -3.294316 -3.125000
v -5.412659 -3.409240 15.625000
v 5.412659 2.269446 -15.625000
v -16.237976 2.860672 3.125000
v 10.825317 3.838911 12.500000
v 10.825317 -3.517358 -12.500000
v 5.412659 -3.746583 15.625000
v -16.237976 -3.073357 -3.125000
v -16.237976 -2.816817 9.375000
v 16.237976 -1.591875 9.375000
v 0.000000 -1.066684 -18.750000
v 0.000000 3.962581 18.750000
v -16.237976 2.924001 -9.375000
v 16.237976 0.746749 -9.375000
v -5.412659 -0.731733 -3.125000
v 5.412659 -1.526920 -3.125000
v 0.000000 -2.208471 6.250000
v 5.412659 1.988288 3.125000
v 0.000000 1.891198 -6.250000
v -5.412659 3.737619 3.125000
vn 0.4168 0.1459 -0.8972
vn 0.8585 -0.4969 -0.1269
vn 0.4935 -0.7129 0.4982
vn -0.3670 -0.7620 0.5336
vn -0.0057 0.9951 0.0986
vn -0.8101 0.5859 -0.0222
vn -0.3620 -0.6285 -0.6885
vn 0.0489 -0.9988 -0.0045
vn 0.4207 -0.1953 -0.8859
vn 0.7445 0.6487 -0.1581
vn 0.5091 -0.1012 0.8547
vn -0.6205 0.1829 0.7626
vn 0.4166 0.8970 -0.1477
vn 0.0784 0.9868 0.1417
vn -0.2190 0.9723 0.0820
vn -0.8658 -0.4972 0.0566
vn -0.5006 0.2057 -0.8409
vn -0.1194 -0.9828 -0.1411
vn 0.2229 -0.9694 0.1033
vn -0.2447 -0.9554 0.1655
vn -0.0927 -0.9945 -0.0482
vn -0.1689 -0.9816 0.0891
vn -0.1944 -0.9481 0.2517
vn 0.3214 -0.9140 0.2475
vn 0.3274 -0.9120 0.2473
vn -0.1931 -0.9787 -0.0700
vn 0.0774 -0.9455 -0.3164
vn -0.0214 -0.8819 -0.4709
vn 0.1037 -0.9829 0.1522
vn -0.4590 0.2056 -0.8643
vn -0.8671 -0.4980 0.0128
vn -0.0416 0.9956 0.0834
vn 0.0664 0.9936 -0.0916
vn -0.0708 0.9941 0.0822
vn -0.2190 0.9756 -0.0174
vn -0.1933 0.9808 0.0259
vn 0.0540 0.9970 0.0551
vn -0.0180 0.9760 -0.2170
vn 0.4697 0.8587 -0.2052
vn -0.3180 0.9456 0.0689
vn -0.5159 0.1850 0.8364
vn 0.5102 -0.1011 0.8541
vn 0.7442 0.6485 0.1601
vn 0.5705 -0.1950 -0.7978
vn -0.1250 -0.9462 0.2984
vn -0.0692 -0.9418 0.3289
vn -0.1967 -0.9793 -0.0471
vn -0.5618 -0.3521 -0.7486
vn -0.9941 -0.0964 -0.0492
vn -0.1955 0.9703 0.1423
vn -0.2286 0.9658 0.1220
vn -0.0806 0.9946 0.0646
vn -0.4701 -0.0546 0.8809
vn 0.4912 0.0055 0.8710
vn 0.9999 -0.0097 0.0083
vn 0.5446 -0.2686 -0.7945
vn 0.3885 -0.0090 -0.9214
vn 0.9999 0.0055 -0.0102
vn 0.5217 -0.0528 0.8515
vn -0.6571 -0.1086 0.7459
vn -0.9431 -0.3089 0.1234
vn -0.3773 -0.2965 -0.8773
vn -0.4261 -0.6282 -0.6510
vn -0.8098 0.5856 0.0359
vn -0.4488 -0.7544 0.4790
vn 0.1871 -0.7133 0.6755
vn 0.8592 -0.4973 0.1202
vn 0.5029 0.1465 -0.8518
vn 0.0352 0.9992 0.0171
vn -0.0806 0.9955 -0.0497
vn -0.2167 0.9758 0.0307
vn 0.1593 0.9857 -0.0550
vn 0.1587 0.9821 -0.1018
vn 0.1825 0.9793 -0.0875
vn 0.0717 0.9945 0.0764
vn -0.1969 0.9772 -0.0792
vn -0.0411 0.9845 -0.1706
vn 0.1660 -0.9857 -0.0304
vn -0.0308 -0.9890 -0.1445
vn -0.0311 -0.9981 0.0524
vn 0.1611 -0.9564 -0.2437
vn -0.0728 -0.9908 -0.1141
vn -0.1936 -0.9641 -0.1819
vn -0.1174 -0.9900 -0.0784
vn 0.2101 -0.9714 0.1109
vn 0.2064 -0.9542 -0.2167
vn 0.0790 -0.9649 0.2505
vn -0.1600 -0.9803 0.1157
vn -0.1578 -0.9663 -0.2032
vn -0.2294 0.9689 -0.0933
vn -0.0057 0.9993 0.0370
vn 0.1827 0.9805 -0.0724
vn 0.3860 0.9015 -0.1955
vn 0.2062 0.9768 -0.0582
vn 0.0350 0.9948 0.0958
vn -0.1297 -0.9814 -0.1413
vn 0.2628 -0.9640 0.0399
vn -0.2294 -0.9534 0.1958
vn -0.1111 -0.9904 -0.0817
vn -0.1058 -0.9749 0.1958
vn -0.2593 -0.9551 0.1436
vn 0.3260 -0.9149 0.2382
vn 0.3520 -0.9131 0.2057
vn -0.1736 -0.9793 -0.1039
vn 0.0382 -0.9485 -0.3145
vn 0.0752 -0.8796 -0.4697
vn -0.0695 -0.9858 0.1527
vn 0.0717 0.9945 0.0770
vn -0.0792 0.9927 -0.0915
vn 0.0561 0.9950 0.0823
vn -0.2413 0.9703 0.0177
vn -0.1512 0.9873 -0.0492
vn 0.0109 0.9916 0.1289
vn 0.1104 0.9932 0.0378
vn 0.4272 0.8597 -0.2800
vn -0.2114 0.9442 0.2525
vt 0.916667 0.750000
vt 0.833333 0.500000
vt 0.916667 0.500000
vt 0.750000 0.750000
vt 0.666667 0.500000
vt 0.750000 0.500000
vt 0.583333 0.750000
vt 0.500000 0.500000
vt 0.583333 0.500000
vt 0.416667 0.750000
vt 0.333333 0.500000
vt 0.416667 0.500000
vt 0.250000 0.490000
vt 0.198038 0.400000
vt 0.301962 0.400000
vt 0.250000 0.750000
vt 0.166667 0.500000
vt 0.250000 0.500000
vt 0.083333 0.750000
vt -0.000000 0.500000
vt 0.083333 0.500000
vt 0.957846 0.370000
vt 0.905885 0.280000
vt 0.853923 0.370000
vt 0.833333 1.000000
vt 0.916667 1.000000
vt 0.666667 1.000000
vt 0.750000 1.000000
vt 0.500000 1.000000
vt 0.583333 1.000000
vt 0.333333 1.000000
vt 0.416667 1.000000
vt 0.457846 0.250000
vt 0.405885 0.220000
vt 0.457846 0.130000
vt 0.146077 0.430000
vt 0.146077 0.070000
vt 0.146077 0.130000
vt 0.042154 0.130000
vt 0.166667 1.000000
vt 0.250000 1.000000
vt -0.000000 1.000000
vt 0.083333 1.000000
vt 0.646077 0.430000
vt 0.646077 0.370000
vt 0.542154 0.370000
vt 0.957846 0.250000
vt 0.646077 0.070000
vt 0.698038 0.100000
vt 0.750000 0.010000
vt 0.542154 0.250000
vt 0.594115 0.280000
vt 0.646077 0.190000
vt 0.594115 0.160000
vt 0.542154 0.130000
vt 0.853923 0.070000
vt 0.801962 0.100000
vt 0.853923 0.190000
vt 0.905885 0.160000
vt 0.957846 0.130000
vt 0.853923 0.430000
vt 0.750000 0.370000
vt 0.750000 0.430000
vt 0.750000 0.490000
vt 0.353923 0.070000
vt 0.353923 0.130000
vt 0.250000 0.130000
vt 0.250000 0.070000
vt 0.250000 0.010000
vt 0.042154 0.250000
vt 0.094115 0.220000
vt 0.146077 0.310000
vt 0.094115 0.340000
vt 0.042154 0.370000
vt 0.353923 0.430000
vt 0.353923 0.310000
vt 0.405885 0.340000
vt 0.457846 0.370000
vt 1.000000 1.000000
vt 0.698038 0.280000
vt 0.801962 0.280000
vt 0.750000 0.190000
vt 0.301962 0.220000
vt 0.250000 0.310000
vt 0.198038 0.220000
vt 1.000000 0.500000
s 0
f 25/1/1 3/2/1 13/3/1
f 26/4/2 5/5/2 15/6/2
f 27/7/3 7/8/3 17/9/3
f 28/10/4 9/11/4 19/12/4
f 2/13/5 38/14/5 43/15/5
f 32/16/6 11/17/6 21/18/6
f 33/19/7 1/20/7 23/21/7
f 3/22/8 41/23/8 46/24/8
f 4/25/9 25/1/9 14/26/9
f 6/27/10 26/4/10 16/28/10
f 8/29/11 27/7/11 18/30/11
f 10/31/12 28/10/12 20/32/12
f 16/33/13 37/34/13 6/35/13
f 24/36/14 38/14/14 2/13/14
f 20/37/15 39/38/15 10/39/15
f 12/40/16 32/16/16 22/41/16
f 2/42/17 33/19/17 24/43/17
f 23/44/18 40/45/18 11/46/18
f 15/47/19 41/23/19 3/22/19
f 19/48/20 42/49/20 7/50/20
f 21/51/21 48/52/21 36/53/21
f 36/53/22 49/54/22 21/51/22
f 9/55/23 49/54/23 19/48/23
f 17/56/24 47/57/24 35/58/24
f 35/58/25 50/59/25 17/56/25
f 5/60/26 50/59/26 15/47/26
f 13/61/27 46/24/27 34/62/27
f 34/62/28 51/63/28 13/61/28
f 1/64/29 51/63/29 23/44/29
f 12/40/30 24/43/30 33/19/30
f 10/31/31 22/41/31 32/16/31
f 18/65/32 45/66/32 31/67/32
f 31/67/33 52/68/33 18/65/33
f 8/69/34 52/68/34 20/37/34
f 22/70/35 44/71/35 30/72/35
f 30/72/36 53/73/36 22/70/36
f 12/74/37 53/73/37 24/36/37
f 14/75/38 43/15/38 29/76/38
f 29/76/39 54/77/39 14/75/39
f 4/78/40 54/77/40 16/33/40
f 8/29/41 20/32/41 28/10/41
f 6/27/42 18/30/42 27/7/42
f 4/25/43 16/28/43 26/4/43
f 2/79/44 14/26/44 25/1/44
f 34/62/45 55/80/45 40/45/45
f 34/62/46 56/81/46 55/80/46
f 35/58/47 47/57/47 57/82/47
f 33/19/48 11/17/48 12/40/48
f 32/16/49 9/11/49 10/31/49
f 29/76/50 58/83/50 37/34/50
f 29/76/51 59/84/51 58/83/51
f 30/72/52 44/71/52 60/85/52
f 28/10/53 7/8/53 8/29/53
f 27/7/54 5/5/54 6/27/54
f 26/4/55 3/2/55 4/25/55
f 25/1/56 1/86/56 2/79/56
f 4/25/57 3/2/57 25/1/57
f 6/27/58 5/5/58 26/4/58
f 8/29/59 7/8/59 27/7/59
f 10/31/60 9/11/60 28/10/60
f 12/40/61 11/17/61 32/16/61
f 2/42/62 1/20/62 33/19/62
f 33/19/63 23/21/63 11/17/63
f 32/16/64 21/18/64 9/11/64
f 28/10/65 19/12/65 7/8/65
f 27/7/66 17/9/66 5/5/66
f 26/4/67 15/6/67 3/2/67
f 25/1/68 13/3/68 1/86/68
f 60/85/69 39/38/69 31/67/69
f 60/85/70 44/71/70 39/38/70
f 44/71/71 10/39/71 39/38/71
f 58/83/72 60/85/72 31/67/72
f 58/83/73 59/84/73 60/85/73
f 59/84/74 30/72/74 60/85/74
f 37/34/75 45/66/75 6/35/75
f 37/34/76 58/83/76 45/66/76
f 58/83/77 31/67/77 45/66/77
f 57/82/78 42/49/78 36/53/78
f 57/82/79 47/57/79 42/49/79
f 47/57/80 7/50/80 42/49/80
f 55/80/81 57/82/81 36/53/81
f 55/80/82 56/81/82 57/82/82
f 56/81/83 35/58/83 57/82/83
f 40/45/84 48/52/84 11/46/84
f 40/45/85 55/80/85 48/52/85
f 55/80/86 36/53/86 48/52/86
f 46/24/87 56/81/87 34/62/87
f 46/24/88 41/23/88 56/81/88
f 41/23/89 35/58/89 56/81/89
f 43/15/90 59/84/90 29/76/90
f 43/15/91 38/14/91 59/84/91
f 38/14/92 30/72/92 59/84/92
f 16/33/93 29/76/93 37/34/93
f 24/36/94 30/72/94 38/14/94
f 20/37/95 31/67/95 39/38/95
f 23/44/96 34/62/96 40/45/96
f 15/47/97 35/58/97 41/23/97
f 19/48/98 36/53/98 42/49/98
f 21/51/99 11/46/99 48/52/99
f 36/53/100 19/48/100 49/54/100
f 9/55/101 21/51/101 49/54/101
f 17/56/102 7/50/102 47/57/102
f 35/58/103 15/47/103 50/59/103
f 5/60/104 17/56/104 50/59/104
f 13/61/105 3/22/105 46/24/105
f 34/62/106 23/44/106 51/63/106
f 1/64/107 13/61/107 51/63/107
f 18/65/108 6/35/108 45/66/108
f 31/67/109 20/37/109 52/68/109
f 8/69/110 18/65/110 52/68/110
f 22/70/111 10/39/111 44/71/111
f 30/72/112 24/36/112 53/73/112
f 12/74/113 22/70/113 53/73/113
f 14/75/114 2/13/114 43/15/114
f 29/76/115 16/33/115 54/77/115
f 4/78/116 14/75/116 54/77/116
