# Blender 4.3.0
# www.blender.org
o Cylinder
v 0.000000 -2.059188 -24.427372
v 0.000000 2.612140 -25.145672
v 20.347969 -1.342057 -11.747906
v 21.701618 2.545319 -12.529435
v 22.666012 -3.402563 13.086228
v 21.410690 2.286712 12.361467
v 0.000000 -2.856499 25.463099
v 0.000000 2.406632 24.878712
v -20.709545 -1.663471 11.956661
v -22.164682 2.956939 12.796786
v -20.486280 -1.465001 -11.827759
v -22.617483 3.359427 -13.058210
v 11.124992 -3.099343 -19.269053
v 11.508701 3.866754 -19.933657
v 22.804930 -3.654284 0.000000
v 22.691099 3.540453 0.000000
v 11.003848 -2.857058 19.059225
v 11.050238 2.949835 19.139572
v -10.163437 -1.176253 17.603588
v -10.507512 1.864395 18.199545
v -21.918829 -2.768191 0.000000
v -22.085308 2.934669 0.000000
v -11.271611 -3.392578 -19.523003
v -10.241685 1.332748 -17.739120
v 11.150909 0.000000 -19.313942
v 21.006275 0.000000 0.000000
v 10.366584 0.000000 17.955450
v -10.159353 0.000000 17.596516
v 10.825317 4.286952 -6.250000
v -10.825317 1.889279 -6.250000
v 0.000000 4.027830 12.500000
v -22.726921 0.000000 0.000000
v -10.302054 0.000000 -17.843681
v 0.000000 -3.242400 -12.500000
v 10.825317 -4.441045 6.250000
v -10.825317 -1.937753 6.250000
v 16.237976 3.974081 3.125000
v -5.412659 4.211319 -15.625000
v -10.825317 1.565545 12.500000
v -10.825317 -4.198016 -12.500000
v 16.237976 -0.663132 -3.125000
v -5.412659 -3.324062 15.625000
v 5.412659 3.687495 -15.625000
v -16.237976 1.872006 3.125000
v 10.825317 4.013971 12.500000
v 10.825317 -3.345482 -12.500000
v 5.412659 -1.936711 15.625000
v -16.237976 -4.398617 -3.125000
v -16.237976 -3.852133 9.375000
v 16.237976 -1.469679 9.375000
v 0.000000 -3.163519 -18.750000
v 0.000000 3.621119 18.750000
v -16.237976 1.881338 -9.375000
v 16.237976 3.401366 -9.375000
v -5.412659 -2.239937 -3.125000
v 5.412659 -2.914067 -3.125000
v 0.000000 -3.351900 6.250000
v 5.412659 3.406340 3.125000
v 0.000000 3.776526 -6.250000
v -5.412659 2.198304 3.125000
vn 0.6338 -0.0165 -0.7733
vn 0.8972 0.4416 0.0010
vn 0.4594 0.4074 0.7893
vn -0.4723 0.0069 0.8814
vn 0.0479 0.9891 -0.1389
vn -0.9497 -0.2772 -0.1456
vn -0.3951 0.4957 -0.7734
vn 0.1904 -0.9674 0.1669
vn 0.5625 -0.1813 -0.8067
vn 0.9018 -0.4292 0.0499
vn 0.4344 -0.4204 0.7966
vn -0.4208 -0.3494 0.8372
vn 0.1208 0.9863 0.1125
vn -0.3615 0.8639 -0.3506
vn 0.1201 0.9910 -0.0587
vn -0.9759 0.2134 0.0467
vn -0.5910 0.0897 -0.8017
vn -0.2770 -0.9565 -0.0921
vn -0.3708 -0.9229 -0.1041
vn -0.3235 -0.9199 0.2217
vn -0.1024 -0.9460 0.3074
vn 0.2022 -0.9513 -0.2325
vn -0.1872 -0.8851 0.4261
vn -0.2340 -0.9645 0.1225
vn 0.4314 -0.8961 0.1048
vn -0.2960 -0.9551 0.0152
vn -0.0095 -0.9993 -0.0368
vn 0.0052 -0.9999 -0.0126
vn 0.0330 -0.9811 -0.1908
vn -0.3396 0.0888 -0.9364
vn -0.9769 0.2136 -0.0064
vn 0.0013 0.9874 0.1582
vn 0.0582 0.9962 0.0648
vn -0.1716 0.9664 0.1915
vn 0.1364 0.9874 0.0806
vn 0.0464 0.9955 -0.0829
vn 0.1868 0.9799 0.0697
vn -0.0529 0.9980 -0.0333
vn 0.1485 0.9886 -0.0229
vn 0.1050 0.9907 -0.0870
vn -0.4896 -0.3498 0.7987
vn 0.4778 -0.4204 0.7714
vn 0.9023 -0.4294 -0.0372
vn 0.4220 -0.1814 -0.8882
vn 0.0869 -0.9840 0.1554
vn -0.0620 -0.9956 0.0707
vn -0.0980 -0.9741 0.2036
vn -0.4244 -0.3952 -0.8147
vn -0.9414 -0.3173 0.1147
vn -0.0523 0.9966 0.0634
vn -0.0470 0.9967 0.0665
vn -0.0301 0.9994 -0.0156
vn -0.5941 0.0888 0.7995
vn 0.4085 0.2035 0.8898
vn 0.9433 -0.3315 -0.0150
vn 0.4337 -0.1369 -0.8906
vn 0.5650 -0.3472 -0.7484
vn 0.9760 0.2064 -0.0701
vn 0.5676 0.0909 0.8183
vn -0.4158 -0.2878 0.8627
vn -0.8970 -0.4261 -0.1172
vn -0.5520 -0.1267 -0.8241
vn -0.4936 0.4950 -0.7151
vn -0.9528 -0.2781 0.1221
vn -0.6110 0.0069 0.7916
vn 0.4314 0.4072 0.8050
vn 0.8927 0.4394 -0.1002
vn 0.4193 -0.0167 -0.9077
vn -0.2214 0.9732 -0.0621
vn -0.0301 0.9983 0.0500
vn 0.1207 0.9920 -0.0373
vn -0.1100 0.9855 -0.1288
vn -0.1103 0.9886 0.1027
vn -0.1714 0.9830 0.0665
vn 0.1615 0.9828 0.0891
vn -0.0523 0.9980 -0.0345
vn 0.0013 0.9979 -0.0654
vn -0.1292 -0.9890 -0.0717
vn 0.1267 -0.9890 0.0761
vn 0.1271 -0.9916 -0.0228
vn -0.1294 -0.9907 -0.0428
vn -0.0619 -0.9947 -0.0822
vn -0.0996 -0.9896 -0.1037
vn -0.2794 -0.9429 -0.1815
vn 0.1947 -0.9766 0.0915
vn 0.1935 -0.9706 0.1430
vn -0.0095 -0.9991 0.0405
vn 0.2009 -0.9664 0.1605
vn 0.1962 -0.9435 -0.2670
vn -0.0471 0.9982 -0.0367
vn 0.0483 0.9987 0.0184
vn -0.1700 0.9750 0.1434
vn 0.0650 0.9979 -0.0042
vn -0.4891 0.8697 -0.0670
vn -0.2216 0.9744 -0.0387
vn 0.0873 -0.9891 -0.1190
vn -0.1804 -0.8718 -0.4554
vn -0.3812 -0.9207 0.0840
vn -0.3454 -0.9274 -0.1440
vn 0.3546 -0.9341 0.0420
vn -0.3781 -0.9176 0.1230
vn -0.0791 -0.9876 -0.1359
vn 0.2608 -0.8837 0.3886
vn -0.1597 -0.9614 -0.2241
vn 0.2078 -0.9778 -0.0264
vn 0.0212 -0.9997 -0.0126
vn -0.0032 -0.9816 -0.1909
vn 0.1611 0.9753 0.1509
vn -0.1678 0.9837 0.0640
vn 0.0527 0.9796 0.1941
vn 0.1791 0.9838 -0.0006
vn 0.0257 0.9986 -0.0471
vn 0.2130 0.9768 0.0231
vn -0.0775 0.9947 -0.0683
vn 0.1098 0.9898 -0.0903
vn 0.1432 0.9895 -0.0205
vt 0.916667 0.750000
vt 0.833333 0.500000
vt 0.916667 0.500000
vt 0.750000 0.750000
vt 0.666667 0.500000
vt 0.750000 0.500000
vt 0.583333 0.750000
vt 0.500000 0.500000
vt 0.583333 0.500000
vt 0.416667 0.750000
vt 0.333333 0.500000
vt 0.416667 0.500000
vt 0.250000 0.490000
vt 0.198038 0.400000
vt 0.301962 0.400000
vt 0.250000 0.750000
vt 0.166667 0.500000
vt 0.250000 0.500000
vt 0.083333 0.750000
vt -0.000000 0.500000
vt 0.083333 0.500000
vt 0.957846 0.370000
vt 0.905885 0.280000
vt 0.853923 0.370000
vt 0.833333 1.000000
vt 0.916667 1.000000
vt 0.666667 1.000000
vt 0.750000 1.000000
vt 0.500000 1.000000
vt 0.583333 1.000000
vt 0.333333 1.000000
vt 0.416667 1.000000
vt 0.457846 0.250000
vt 0.405885 0.220000
vt 0.457846 0.130000
vt 0.146077 0.430000
vt 0.146077 0.070000
vt 0.146077 0.130000
vt 0.042154 0.130000
vt 0.166667 1.000000
vt 0.250000 1.000000
vt -0.000000 1.000000
vt 0.083333 1.000000
vt 0.646077 0.430000
vt 0.646077 0.370000
vt 0.542154 0.370000
vt 0.957846 0.250000
vt 0.646077 0.070000
vt 0.698038 0.100000
vt 0.750000 0.010000
vt 0.542154 0.250000
vt 0.594115 0.280000
vt 0.646077 0.190000
vt 0.594115 0.160000
vt 0.542154 0.130000
vt 0.853923 0.070000
vt 0.801962 0.100000
vt 0.853923 0.190000
vt 0.905885 0.160000
vt 0.957846 0.130000
vt 0.853923 0.430000
vt 0.750000 0.370000
vt 0.750000 0.430000
vt 0.750000 0.490000
vt 0.353923 0.070000
vt 0.353923 0.130000
vt 0.250000 0.130000
vt 0.250000 0.070000
vt 0.250000 0.010000
vt 0.042154 0.250000
vt 0.094115 0.220000
vt 0.146077 0.310000
vt 0.094115 0.340000
vt 0.042154 0.370000
vt 0.353923 0.430000
vt 0.353923 0.310000
vt 0.405885 0.340000
vt 0.457846 0.370000
vt 1.000000 1.000000
vt 0.698038 0.280000
vt 0.801962 0.280000
vt 0.750000 0.190000
vt 0.301962 0.220000
vt 0.250000 0.310000
vt 0.198038 0.220000
vt 1.000000 0.500000
s 0
f 25/1/1 3/2/1 13/3/1
f 26/4/2 5/5/2 15/6/2
f 27/7/3 7/8/3 17/9/3
f 28/10/4 9/11/4 19/12/4
f 2/13/5 38/14/5 43/15/5
f 32/16/6 11/17/6 21/18/6
f 33/19/7 1/20/7 23/21/7
f 3/22/8 41/23/8 46/24/8
f 4/25/9 25/1/9 14/26/9
f 6/27/10 26/4/10 16/28/10
f 8/29/11 27/7/11 18/30/11
f 10/31/12 28/10/12 20/32/12
f 16/33/13 37/34/13 6/35/13
f 24/36/14 38/14/14 2/13/14
f 20/37/15 39/38/15 10/39/15
f 12/40/16 32/16/16 22/41/16
f 2/42/17 33/19/17 24/43/17
f 23/44/18 40/45/18 11/46/18
f 15/47/19 41/23/19 3/22/19
f 19/48/20 42/49/20 7/50/20
f 21/51/21 48/52/21 36/53/21
f 36/53/22 49/54/22 21/51/22
f 9/55/23 49/54/23 19/48/23
f 17/56/24 47/57/24 35/58/24
f 35/58/25 50/59/25 17/56/25
f 5/60/26 50/59/26 15/47/26
f 13/61/27 46/24/27 34/62/27
f 34/62/28 51/63/28 13/61/28
f 1/64/29 51/63/29 23/44/29
f 12/40/30 24/43/30 33/19/30
f 10/31/31 22/41/31 32/16/31
f 18/65/32 45/66/32 31/67/32
f 31/67/33 52/68/33 18/65/33
f 8/69/34 52/68/34 20/37/34
f 22/70/35 44/71/35 30/72/35
f 30/72/36 53/73/36 22/70/36
f 12/74/37 53/73/37 24/36/37
f 14/75/38 43/15/38 29/76/38
f 29/76/39 54/77/39 14/75/39
f 4/78/40 54/77/40 16/33/40
f 8/29/41 20/32/41 28/10/41
f 6/27/42 18/30/42 27/7/42
f 4/25/43 16/28/43 26/4/43
f 2/79/44 14/26/44 25/1/44
f 34/62/45 55/80/45 40/45/45
f 34/62/46 56/81/46 55/80/46
f 35/58/47 47/57/47 57/82/47
f 33/19/48 11/17/48 12/40/48
f 32/16/49 9/11/49 10/31/49
f 29/76/50 58/83/50 37/34/50
f 29/76/51 59/84/51 58/83/51
f 30/72/52 44/71/52 60/85/52
f 28/10/53 7/8/53 8/29/53
f 27/7/54 5/5/54 6/27/54
f 26/4/55 3/2/55 4/25/55
f 25/1/56 1/86/56 2/79/56
f 4/25/57 3/2/57 25/1/57
f 6/27/58 5/5/58 26/4/58
f 8/29/59 7/8/59 27/7/59
f 10/31/60 9/11/60 28/10/60
f 12/40/61 11/17/61 32/16/61
f 2/42/62 1/20/62 33/19/62
f 33/19/63 23/21/63 11/17/63
f 32/16/64 21/18/64 9/11/64
f 28/10/65 19/12/65 7/8/65
f 27/7/66 17/9/66 5/5/66
f 26/4/67 15/6/67 3/2/67
f 25/1/68 13/3/68 1/86/68
f 60/85/69 39/38/69 31/67/69
f 60/85/70 44/71/70 39/38/70
f 44/71/71 10/39/71 39/38/71
f 58/83/72 60/85/72 31/67/72
f 58/83/73 59/84/73 60/85/73
f 59/84/74 30/72/74 60/85/74
f 37/34/75 45/66/75 6/35/75
f 37/34/76 58/83/76 45/66/76
f 58/83/77 31/67/77 45/66/77
f 57/82/78 42/49/78 36/53/78
f 57/82/79 47/57/79 42/49/79
f 47/57/80 7/50/80 42/49/80
f 55/80/81 57/82/81 36/53/81
f 55/80/82 56/81/82 57/82/82
f 56/81/83 35/58/83 57/82/83
f 40/45/84 48/52/84 11/46/84
f 40/45/85 55/80/85 48/52/85
f 55/80/86 36/53/86 48/52/86
f 46/24/87 56/81/87 34/62/87
f 46/24/88 41/23/88 56/81/88
f 41/23/89 35/58/89 56/81/89
f 43/15/90 59/84/90 29/76/90
f 43/15/91 38/14/91 59/84/91
f 38/14/92 30/72/92 59/84/92
f 16/33/93 29/76/93 37/34/93
f 24/36/94 30/72/94 38/14/94
f 20/37/95 31/67/95 39/38/95
f 23/44/96 34/62/96 40/45/96
f 15/47/97 35/58/97 41/23/97
f 19/48/98 36/53/98 42/49/98
f 21/51/99 11/46/99 48/52/99
f 36/53/100 19/48/100 49/54/100
f 9/55/101 21/51/101 49/54/101
f 17/56/102 7/50/102 47/57/102
f 35/58/103 15/47/103 50/59/103
f 5/60/104 17/56/104 50/59/104
f 13/61/105 3/22/105 46/24/105
f 34/62/106 23/44/106 51/63/106
f 1/64/107 13/61/107 51/63/107
f 18/65/108 6/35/108 45/66/108
f 31/67/109 20/37/109 52/68/109
f 8/69/110 18/65/110 52/68/110
f 22/70/111 10/39/111 44/71/111
f 30/72/112 24/36/112 53/73/112
f 12/74/113 22/70/113 53/73/113
f 14/75/114 2/13/114 43/15/114
f 29/76/115 16/33/115 54/77/115
f 4/78/116 14/75/116 54/77/116
