# Blender 4.3.0
# www.blender.org
o Cylinder
v 0.000000 -3.101532 -25.781408
v 0.000000 2.357442 -24.814816
v 21.905003 -2.726109 -12.646859
v 22.951773 3.656574 -13.251212
v 21.852579 -2.679508 12.616593
v 21.920324 2.739727 12.655704
v 0.000000 -1.832110 24.132399
v 0.000000 2.848569 25.452801
v -20.851683 -1.789816 12.038725
v -22.850267 3.566356 13.192608
v -21.802904 -2.635353 -12.587913
v -22.956779 3.661024 -13.254103
v 10.682790 -2.214948 -18.503136
v 11.387833 3.625019 -19.724306
v 21.372522 -2.221890 0.000000
v 22.016766 2.866127 0.000000
v 11.262537 -3.374430 19.507286
v 10.938551 2.726464 18.946125
v -10.228222 -1.305821 17.715799
v -10.744001 2.337369 18.609156
v -21.455362 -2.304730 0.000000
v -22.060619 2.909981 0.000000
v -11.525471 -3.900291 -19.962700
v -11.332673 3.514701 -19.628767
v 11.718083 0.000000 -20.296316
v 22.715401 0.000000 0.000000
v 11.412134 0.000000 19.766396
v -10.704082 0.000000 18.540014
v 10.825317 3.226746 -6.250000
v -10.825317 0.579184 -6.250000
v 0.000000 2.873430 12.500000
v -21.489422 0.000000 0.000000
v -11.199260 0.000000 -19.397686
v 0.000000 -3.453890 -12.500000
v 10.825317 -3.912340 6.250000
v -10.825317 -0.894817 6.250000
v 16.237976 0.900710 3.125000
v -5.412659 2.525909 -15.625000
v -10.825317 2.511234 12.500000
v -10.825317 -2.254721 -12.500000
v 16.237976 -4.411632 -3.125000
v -5.412659 -1.477560 15.625000
v 5.412659 1.675704 -15.625000
v -16.237976 0.988044 3.125000
v 10.825317 2.695164 12.500000
v 10.825317 -2.590418 -12.500000
v 5.412659 -3.275487 15.625000
v -16.237976 -3.406566 -3.125000
v -16.237976 -4.038957 9.375000
v 16.237976 -2.824312 9.375000
v 0.000000 -4.003493 -18.750000
v 0.000000 3.424434 18.750000
v -16.237976 3.244995 -9.375000
v 16.237976 4.214615 -9.375000
v -5.412659 -1.927889 -3.125000
v 5.412659 -4.399461 -3.125000
v 0.000000 -2.348596 6.250000
v 5.412659 4.037571 3.125000
v 0.000000 2.994283 -6.250000
v -5.412659 4.339947 3.125000
vn 0.3138 -0.6817 -0.6609
vn 0.8547 -0.5166 -0.0513
vn 0.3682 -0.0874 0.9256
vn -0.3601 -0.5883 0.7241
vn 0.0783 0.9965 0.0278
vn -0.9995 -0.0148 0.0280
vn -0.4536 0.1648 -0.8758
vn -0.0145 -0.9831 -0.1826
vn 0.4802 0.1792 -0.8587
vn 0.9715 0.2368 0.0098
vn 0.4856 0.3281 0.8102
vn -0.4110 -0.0340 0.9110
vn -0.3186 0.9479 0.0070
vn 0.1271 0.9903 0.0567
vn 0.0889 0.9957 0.0272
vn -0.9798 -0.1923 0.0553
vn -0.4213 -0.0754 -0.9038
vn 0.0322 -0.9767 0.2123
vn 0.3646 -0.9297 0.0524
vn -0.0421 -0.9990 -0.0149
vn -0.0362 -0.9599 0.2781
vn 0.3175 -0.8850 -0.3404
vn -0.1866 -0.8859 0.4247
vn -0.0447 -0.9981 0.0420
vn 0.1780 -0.9834 0.0340
vn 0.0477 -0.9981 -0.0380
vn 0.0793 -0.9948 -0.0641
vn 0.1626 -0.9829 0.0864
vn 0.0045 -0.9919 -0.1272
vn -0.4802 -0.0757 -0.8739
vn -0.9801 -0.1924 -0.0491
vn 0.0165 0.9999 -0.0051
vn 0.0650 0.9940 -0.0876
vn -0.1014 0.9912 0.0852
vn 0.2590 0.9598 0.1077
vn 0.3192 0.9191 0.2311
vn 0.0366 0.9984 0.0438
vn -0.3004 0.9537 0.0156
vn -0.1671 0.9857 0.0222
vn 0.1214 0.9903 0.0676
vn -0.5358 -0.0341 0.8437
vn 0.4692 0.3282 0.8198
vn 0.9682 0.2360 0.0824
vn 0.3850 0.1780 -0.9056
vn -0.1096 -0.9892 0.0977
vn -0.2225 -0.9745 0.0302
vn -0.1430 -0.9896 -0.0153
vn -0.4992 -0.1811 -0.8474
vn -0.9371 -0.3492 -0.0023
vn 0.2775 0.9576 0.0774
vn -0.0214 0.9949 -0.0984
vn -0.2893 0.9344 -0.2078
vn -0.4814 -0.2380 0.8436
vn 0.5627 -0.0130 0.8266
vn 0.9860 -0.1643 -0.0278
vn 0.3831 0.1610 -0.9095
vn 0.5625 -0.1689 -0.8093
vn 0.9978 -0.0129 0.0655
vn 0.3808 -0.2510 0.8899
vn -0.4615 -0.3480 0.8161
vn -0.9829 -0.1737 0.0608
vn -0.4564 0.1551 -0.8761
vn -0.5616 0.1644 -0.8109
vn -0.9986 -0.0148 0.0507
vn -0.4513 -0.5881 0.6712
vn 0.5473 -0.0882 0.8323
vn 0.8545 -0.5164 0.0566
vn 0.4508 -0.6794 -0.5789
vn -0.0329 0.9844 0.1730
vn -0.2957 0.9551 0.0156
vn 0.0741 0.9767 -0.2015
vn 0.0277 0.9899 0.1389
vn 0.0277 0.9916 -0.1263
vn -0.2104 0.9433 -0.2569
vn -0.0013 0.9820 -0.1887
vn 0.2782 0.9602 -0.0232
vn 0.0163 0.9911 0.1325
vn -0.1331 -0.9910 0.0152
vn -0.1638 -0.9865 -0.0029
vn -0.1635 -0.9845 0.0630
vn -0.1330 -0.9906 0.0324
vn -0.2218 -0.9714 0.0845
vn -0.1417 -0.9810 0.1328
vn 0.0353 -0.9942 -0.1018
vn 0.1352 -0.9899 -0.0436
vn 0.1330 -0.9739 0.1841
vn 0.0787 -0.9863 -0.1449
vn -0.0011 -0.9818 -0.1901
vn -0.0011 -0.9986 0.0525
vn -0.0212 0.9883 -0.1513
vn 0.0779 0.9925 -0.0946
vn -0.2171 0.9731 0.0767
vn -0.1470 0.9368 0.3173
vn 0.0187 0.9767 0.2136
vn -0.0334 0.9990 0.0289
vn -0.1073 -0.9687 0.2237
vn 0.2738 -0.9390 0.2081
vn -0.0500 -0.9982 -0.0332
vn -0.1887 -0.9815 0.0310
vn 0.4770 -0.8771 -0.0563
vn -0.4095 -0.9104 0.0595
vn -0.0901 -0.9898 0.1106
vn 0.1779 -0.9834 0.0342
vn 0.0444 -0.9985 -0.0324
vn -0.0130 -0.9980 -0.0621
vn -0.0181 -0.9960 0.0876
vn 0.1666 -0.9780 -0.1255
vn -0.0039 1.0000 -0.0048
vn -0.0991 0.9912 -0.0874
vn 0.0619 0.9944 0.0854
vn 0.3266 0.9448 -0.0275
vn 0.3440 0.9198 0.1888
vn 0.0303 0.9981 0.0545
vn -0.1892 0.9647 0.1830
vn -0.0719 0.9801 0.1853
vn 0.0394 0.9964 -0.0752
vt 0.916667 0.750000
vt 0.833333 0.500000
vt 0.916667 0.500000
vt 0.750000 0.750000
vt 0.666667 0.500000
vt 0.750000 0.500000
vt 0.583333 0.750000
vt 0.500000 0.500000
vt 0.583333 0.500000
vt 0.416667 0.750000
vt 0.333333 0.500000
vt 0.416667 0.500000
vt 0.250000 0.490000
vt 0.198038 0.400000
vt 0.301962 0.400000
vt 0.250000 0.750000
vt 0.166667 0.500000
vt 0.250000 0.500000
vt 0.083333 0.750000
vt -0.000000 0.500000
vt 0.083333 0.500000
vt 0.957846 0.370000
vt 0.905885 0.280000
vt 0.853923 0.370000
vt 0.833333 1.000000
vt 0.916667 1.000000
vt 0.666667 1.000000
vt 0.750000 1.000000
vt 0.500000 1.000000
vt 0.583333 1.000000
vt 0.333333 1.000000
vt 0.416667 1.000000
vt 0.457846 0.250000
vt 0.405885 0.220000
vt 0.457846 0.130000
vt 0.146077 0.430000
vt 0.146077 0.070000
vt 0.146077 0.130000
vt 0.042154 0.130000
vt 0.166667 1.000000
vt 0.250000 1.000000
vt -0.000000 1.000000
vt 0.083333 1.000000
vt 0.646077 0.430000
vt 0.646077 0.370000
vt 0.542154 0.370000
vt 0.957846 0.250000
vt 0.646077 0.070000
vt 0.698038 0.100000
vt 0.750000 0.010000
vt 0.542154 0.250000
vt 0.594115 0.280000
vt 0.646077 0.190000
vt 0.594115 0.160000
vt 0.542154 0.130000
vt 0.853923 0.070000
vt 0.801962 0.100000
vt 0.853923 0.190000
vt 0.905885 0.160000
vt 0.957846 0.130000
vt 0.853923 0.430000
vt 0.750000 0.370000
vt 0.750000 0.430000
vt 0.750000 0.490000
vt 0.353923 0.070000
vt 0.353923 0.130000
vt 0.250000 0.130000
vt 0.250000 0.070000
vt 0.250000 0.010000
vt 0.042154 0.250000
vt 0.094115 0.220000
vt 0.146077 0.310000
vt 0.094115 0.340000
vt 0.042154 0.370000
vt 0.353923 0.430000
vt 0.353923 0.310000
vt 0.405885 0.340000
vt 0.457846 0.370000
vt 1.000000 1.000000
vt 0.698038 0.280000
vt 0.801962 0.280000
vt 0.750000 0.190000
vt 0.301962 0.220000
vt 0.250000 0.310000
vt 0.198038 0.220000
vt 1.000000 0.500000
s 0
f 25/1/1 3/2/1 13/3/1
f 26/4/2 5/5/2 15/6/2
f 27/7/3 7/8/3 17/9/3
f 28/10/4 9/11/4 19/12/4
f 2/13/5 38/14/5 43/15/5
f 32/16/6 11/17/6 21/18/6
f 33/19/7 1/20/7 23/21/7
f 3/22/8 41/23/8 46/24/8
f 4/25/9 25/1/9 14/26/9
f 6/27/10 26/4/10 16/28/10
f 8/29/11 27/7/11 18/30/11
f 10/31/12 28/10/12 20/32/12
f 16/33/13 37/34/13 6/35/13
f 24/36/14 38/14/14 2/13/14
f 20/37/15 39/38/15 10/39/15
f 12/40/16 32/16/16 22/41/16
f 2/42/17 33/19/17 24/43/17
f 23/44/18 40/45/18 11/46/18
f 15/47/19 41/23/19 3/22/19
f 19/48/20 42/49/20 7/50/20
f 21/51/21 48/52/21 36/53/21
f 36/53/22 49/54/22 21/51/22
f 9/55/23 49/54/23 19/48/23
f 17/56/24 47/57/24 35/58/24
f 35/58/25 50/59/25 17/56/25
f 5/60/26 50/59/26 15/47/26
f 13/61/27 46/24/27 34/62/27
f 34/62/28 51/63/28 13/61/28
f 1/64/29 51/63/29 23/44/29
f 12/40/30 24/43/30 33/19/30
f 10/31/31 22/41/31 32/16/31
f 18/65/32 45/66/32 31/67/32
f 31/67/33 52/68/33 18/65/33
f 8/69/34 52/68/34 20/37/34
f 22/70/35 44/71/35 30/72/35
f 30/72/36 53/73/36 22/70/36
f 12/74/37 53/73/37 24/36/37
f 14/75/38 43/15/38 29/76/38
f 29/76/39 54/77/39 14/75/39
f 4/78/40 54/77/40 16/33/40
f 8/29/41 20/32/41 28/10/41
f 6/27/42 18/30/42 27/7/42
f 4/25/43 16/28/43 26/4/43
f 2/79/44 14/26/44 25/1/44
f 34/62/45 55/80/45 40/45/45
f 34/62/46 56/81/46 55/80/46
f 35/58/47 47/57/47 57/82/47
f 33/19/48 11/17/48 12/40/48
f 32/16/49 9/11/49 10/31/49
f 29/76/50 58/83/50 37/34/50
f 29/76/51 59/84/51 58/83/51
f 30/72/52 44/71/52 60/85/52
f 28/10/53 7/8/53 8/29/53
f 27/7/54 5/5/54 6/27/54
f 26/4/55 3/2/55 4/25/55
f 25/1/56 1/86/56 2/79/56
f 4/25/57 3/2/57 25/1/57
f 6/27/58 5/5/58 26/4/58
f 8/29/59 7/8/59 27/7/59
f 10/31/60 9/11/60 28/10/60
f 12/40/61 11/17/61 32/16/61
f 2/42/62 1/20/62 33/19/62
f 33/19/63 23/21/63 11/17/63
f 32/16/64 21/18/64 9/11/64
f 28/10/65 19/12/65 7/8/65
f 27/7/66 17/9/66 5/5/66
f 26/4/67 15/6/67 3/2/67
f 25/1/68 13/3/68 1/86/68
f 60/85/69 39/38/69 31/67/69
f 60/85/70 44/71/70 39/38/70
f 44/71/71 10/39/71 39/38/71
f 58/83/72 60/85/72 31/67/72
f 58/83/73 59/84/73 60/85/73
f 59/84/74 30/72/74 60/85/74
f 37/34/75 45/66/75 6/35/75
f 37/34/76 58/83/76 45/66/76
f 58/83/77 31/67/77 45/66/77
f 57/82/78 42/49/78 36/53/78
f 57/82/79 47/57/79 42/49/79
f 47/57/80 7/50/80 42/49/80
f 55/80/81 57/82/81 36/53/81
f 55/80/82 56/81/82 57/82/82
f 56/81/83 35/58/83 57/82/83
f 40/45/84 48/52/84 11/46/84
f 40/45/85 55/80/85 48/52/85
f 55/80/86 36/53/86 48/52/86
f 46/24/87 56/81/87 34/62/87
f 46/24/88 41/23/88 56/81/88
f 41/23/89 35/58/89 56/81/89
f 43/15/90 59/84/90 29/76/90
f 43/15/91 38/14/91 59/84/91
f 38/14/92 30/72/92 59/84/92
f 16/33/93 29/76/93 37/34/93
f 24/36/94 30/72/94 38/14/94
f 20/37/95 31/67/95 39/38/95
f 23/44/96 34/62/96 40/45/96
f 15/47/97 35/58/97 41/23/97
f 19/48/98 36/53/98 42/49/98
f 21/51/99 11/46/99 48/52/99
f 36/53/100 19/48/100 49/54/100
f 9/55/101 21/51/101 49/54/101
f 17/56/102 7/50/102 47/57/102
f 35/58/103 15/47/103 50/59/103
f 5/60/104 17/56/104 50/59/104
f 13/61/105 3/22/105 46/24/105
f 34/62/106 23/44/106 51/63/106
f 1/64/107 13/61/107 51/63/107
f 18/65/108 6/35/108 45/66/108
f 31/67/109 20/37/109 52/68/109
f 8/69/110 18/65/110 52/68/110
f 22/70/111 10/39/111 44/71/111
f 30/72/112 24/36/112 53/73/112
f 12/74/113 22/70/113 53/73/113
f 14/75/114 2/13/114 43/15/114
f 29/76/115 16/33/115 54/77/115
f 4/78/116 14/75/116 54/77/116
