# Blender 4.3.0
# www.blender.org
o Cylinder
v 0.000000 -1.553052 -23.769886
v 0.000000 1.614430 -23.849628
v 22.144634 -2.939118 -12.785212
v 21.778683 2.613821 -12.573928
v 22.690996 -3.424771 13.100653
v 22.052441 2.857166 12.731982
v 0.000000 -3.219518 25.934666
v 0.000000 1.360209 23.519377
v -21.892666 -2.715140 12.639737
v -22.109079 2.907513 12.764683
v -20.325571 -1.322147 -11.734974
v -20.456608 1.438637 -11.810629
v 10.960906 -2.771174 -18.984846
v 10.141636 1.132652 -17.565830
v 22.395300 -3.244658 0.000000
v 22.101851 2.951211 0.000000
v 10.618125 -2.085619 18.391132
v 11.052946 2.955252 19.144264
v -10.849983 -2.549332 18.792723
v -11.238734 3.326824 19.466059
v -22.380917 -3.230273 0.000000
v -22.179239 3.028600 0.000000
v -10.627056 -2.103482 -18.406601
v -11.070010 2.989381 -19.173820
v 11.299422 0.000000 -19.571175
v 20.726547 0.000000 0.000000
v 10.223551 0.000000 17.707710
v -10.728300 0.000000 18.581963
v 10.825317 3.914902 -6.250000
v -10.825317 2.049693 -6.250000
v 0.000000 0.886668 12.500000
v -23.634249 0.000000 0.000000
v -10.428645 0.000000 -18.062943
v 0.000000 -1.028607 -12.500000
v 10.825317 -2.684713 6.250000
v -10.825317 -4.289125 6.250000
v 16.237976 1.583151 3.125000
v -5.412659 1.370535 -15.625000
v -10.825317 3.552830 12.500000
v -10.825317 -3.620601 -12.500000
v 16.237976 -2.818484 -3.125000
v -5.412659 -1.738629 15.625000
v 5.412659 2.008185 -15.625000
v -16.237976 4.058721 3.125000
v 10.825317 1.727279 12.500000
v 10.825317 -2.674534 -12.500000
v 5.412659 -3.663016 15.625000
v -16.237976 -1.357545 -3.125000
v -16.237976 -1.529427 9.375000
v 16.237976 -3.786359 9.375000
v 0.000000 -2.430376 -18.750000
v 0.000000 4.145717 18.750000
v -16.237976 1.871645 -9.375000
v 16.237976 4.341492 -9.375000
v -5.412659 -3.475556 -3.125000
v 5.412659 -3.843956 -3.125000
v 0.000000 -2.803197 6.250000
v 5.412659 2.197003 3.125000
v 0.000000 0.685315 -6.250000
v -5.412659 2.203179 3.125000
vn 0.4683 -0.2373 -0.8511
vn 0.8892 0.4573 -0.0138
vn 0.5164 0.3533 0.7800
vn -0.4856 0.0950 0.8690
vn -0.0588 0.9982 -0.0091
vn -0.9101 -0.3531 -0.2168
vn -0.4504 0.1852 -0.8734
vn -0.0234 -0.9997 -0.0018
vn 0.0818 0.8873 -0.4539
vn 0.9064 -0.4224 0.0004
vn 0.3812 -0.4885 0.7849
vn -0.4935 -0.2933 0.8188
vn -0.2240 0.9746 0.0063
vn 0.1840 0.9714 0.1499
vn -0.0564 0.9980 0.0290
vn -0.8856 0.4254 -0.1864
vn -0.3988 -0.3934 -0.8284
vn -0.2466 -0.9366 -0.2488
vn -0.0575 -0.9981 -0.0227
vn 0.0493 -0.9847 -0.1673
vn 0.1048 -0.9303 -0.3514
vn -0.2654 -0.9030 0.3377
vn 0.1084 -0.9798 -0.1681
vn 0.2642 -0.9631 0.0520
vn -0.2237 -0.9737 0.0442
vn 0.0647 -0.9978 -0.0152
vn -0.1503 -0.9886 0.0116
vn -0.0256 -0.9754 0.2188
vn -0.0358 -0.9844 -0.1720
vn -0.5264 -0.3931 -0.7539
vn -0.9013 0.4330 0.0091
vn -0.0762 0.9810 -0.1787
vn 0.1113 0.8812 -0.4595
vn -0.0308 0.8631 0.5041
vn -0.0452 0.9711 -0.2342
vn 0.0279 0.9941 -0.1050
vn -0.1280 0.9907 0.0455
vn 0.0795 0.9669 -0.2425
vn -0.2034 0.9536 -0.2222
vn 0.2801 0.9594 -0.0329
vn -0.3692 -0.2912 0.8825
vn 0.4359 -0.4895 0.7552
vn 0.9063 -0.4224 -0.0120
vn 0.2626 0.8972 -0.3551
vn 0.2312 -0.9657 -0.1186
vn -0.0327 -0.9623 -0.2701
vn 0.0109 -0.9952 -0.0976
vn -0.5335 -0.0485 -0.8444
vn -0.9910 -0.0410 0.1277
vn 0.0553 0.9760 0.2108
vn -0.2859 0.9582 0.0105
vn 0.1679 0.9793 -0.1129
vn -0.4226 0.4228 0.8017
vn 0.3672 0.0916 0.9256
vn 0.9935 0.0618 0.0960
vn 0.3511 -0.0236 -0.9361
vn 0.5423 0.0676 -0.8374
vn 0.9879 0.0932 -0.1238
vn 0.4918 0.4062 0.7701
vn -0.4624 -0.0375 0.8859
vn -0.9627 -0.0530 -0.2655
vn -0.4825 -0.0220 -0.8756
vn -0.5468 0.1850 -0.8166
vn -0.9311 -0.3613 0.0507
vn -0.5432 0.0949 0.8342
vn 0.4081 0.3531 0.8419
vn 0.8893 0.4574 -0.0065
vn 0.3668 -0.2352 -0.9001
vn 0.2391 0.9710 -0.0017
vn 0.1688 0.9847 -0.0443
vn -0.0549 0.9948 0.0854
vn 0.0006 0.9903 0.1387
vn 0.0006 0.9872 -0.1595
vn 0.1246 0.9883 -0.0881
vn -0.0984 0.9925 -0.0721
vn 0.0566 0.9982 0.0173
vn -0.0771 0.9926 0.0942
vn 0.1336 -0.9731 0.1876
vn -0.1750 -0.9845 0.0108
vn -0.1748 -0.9834 -0.0495
vn 0.1360 -0.9907 -0.0075
vn -0.0339 -0.9953 0.0909
vn 0.0109 -0.9931 0.1165
vn -0.2260 -0.9686 0.1033
vn -0.1905 -0.9737 0.1251
vn -0.1884 -0.9631 -0.1924
vn -0.1471 -0.9675 -0.2056
vn 0.0941 -0.9931 -0.0696
vn 0.0941 -0.9932 0.0685
vn -0.2858 0.9578 -0.0298
vn -0.0585 0.9926 0.1063
vn 0.1250 0.9922 0.0003
vn -0.0737 0.9570 0.2806
vn 0.2360 0.9695 0.0660
vn 0.2389 0.9700 0.0456
vn 0.2263 -0.9452 -0.2352
vn -0.0590 -0.9981 -0.0198
vn 0.2223 -0.9657 0.1344
vn 0.2353 -0.9650 -0.1157
vn -0.3921 -0.9113 0.1256
vn 0.2223 -0.9745 0.0311
vn 0.2115 -0.9654 0.1526
vn -0.1213 -0.9832 -0.1365
vn -0.0383 -0.9860 0.1621
vn -0.0230 -0.9996 0.0144
vn -0.0229 -0.9755 0.2188
vn -0.0343 -0.9845 -0.1721
vn -0.0949 0.9795 -0.1778
vn -0.0937 0.8828 -0.4603
vn 0.0748 0.8611 0.5029
vn -0.1761 0.9843 0.0103
vn -0.0753 0.9944 0.0737
vn -0.0228 0.9904 -0.1366
vn 0.1281 0.9830 -0.1314
vn 0.0049 0.9896 0.1437
vn 0.0548 0.9152 -0.3993
vt 0.916667 0.750000
vt 0.833333 0.500000
vt 0.916667 0.500000
vt 0.750000 0.750000
vt 0.666667 0.500000
vt 0.750000 0.500000
vt 0.583333 0.750000
vt 0.500000 0.500000
vt 0.583333 0.500000
vt 0.416667 0.750000
vt 0.333333 0.500000
vt 0.416667 0.500000
vt 0.250000 0.490000
vt 0.198038 0.400000
vt 0.301962 0.400000
vt 0.250000 0.750000
vt 0.166667 0.500000
vt 0.250000 0.500000
vt 0.083333 0.750000
vt -0.000000 0.500000
vt 0.083333 0.500000
vt 0.957846 0.370000
vt 0.905885 0.280000
vt 0.853923 0.370000
vt 0.833333 1.000000
vt 0.916667 1.000000
vt 0.666667 1.000000
vt 0.750000 1.000000
vt 0.500000 1.000000
vt 0.583333 1.000000
vt 0.333333 1.000000
vt 0.416667 1.000000
vt 0.457846 0.250000
vt 0.405885 0.220000
vt 0.457846 0.130000
vt 0.146077 0.430000
vt 0.146077 0.070000
vt 0.146077 0.130000
vt 0.042154 0.130000
vt 0.166667 1.000000
vt 0.250000 1.000000
vt -0.000000 1.000000
vt 0.083333 1.000000
vt 0.646077 0.430000
vt 0.646077 0.370000
vt 0.542154 0.370000
vt 0.957846 0.250000
vt 0.646077 0.070000
vt 0.698038 0.100000
vt 0.750000 0.010000
vt 0.542154 0.250000
vt 0.594115 0.280000
vt 0.646077 0.190000
vt 0.594115 0.160000
vt 0.542154 0.130000
vt 0.853923 0.070000
vt 0.801962 0.100000
vt 0.853923 0.190000
vt 0.905885 0.160000
vt 0.957846 0.130000
vt 0.853923 0.430000
vt 0.750000 0.370000
vt 0.750000 0.430000
vt 0.750000 0.490000
vt 0.353923 0.070000
vt 0.353923 0.130000
vt 0.250000 0.130000
vt 0.250000 0.070000
vt 0.250000 0.010000
vt 0.042154 0.250000
vt 0.094115 0.220000
vt 0.146077 0.310000
vt 0.094115 0.340000
vt 0.042154 0.370000
vt 0.353923 0.430000
vt 0.353923 0.310000
vt 0.405885 0.340000
vt 0.457846 0.370000
vt 1.000000 1.000000
vt 0.698038 0.280000
vt 0.801962 0.280000
vt 0.750000 0.190000
vt 0.301962 0.220000
vt 0.250000 0.310000
vt 0.198038 0.220000
vt 1.000000 0.500000
s 0
f 25/1/1 3/2/1 13/3/1
f 26/4/2 5/5/2 15/6/2
f 27/7/3 7/8/3 17/9/3
f 28/10/4 9/11/4 19/12/4
f 2/13/5 38/14/5 43/15/5
f 32/16/6 11/17/6 21/18/6
f 33/19/7 1/20/7 23/21/7
f 3/22/8 41/23/8 46/24/8
f 4/25/9 25/1/9 14/26/9
f 6/27/10 26/4/10 16/28/10
f 8/29/11 27/7/11 18/30/11
f 10/31/12 28/10/12 20/32/12
f 16/33/13 37/34/13 6/35/13
f 24/36/14 38/14/14 2/13/14
f 20/37/15 39/38/15 10/39/15
f 12/40/16 32/16/16 22/41/16
f 2/42/17 33/19/17 24/43/17
f 23/44/18 40/45/18 11/46/18
f 15/47/19 41/23/19 3/22/19
f 19/48/20 42/49/20 7/50/20
f 21/51/21 48/52/21 36/53/21
f 36/53/22 49/54/22 21/51/22
f 9/55/23 49/54/23 19/48/23
f 17/56/24 47/57/24 35/58/24
f 35/58/25 50/59/25 17/56/25
f 5/60/26 50/59/26 15/47/26
f 13/61/27 46/24/27 34/62/27
f 34/62/28 51/63/28 13/61/28
f 1/64/29 51/63/29 23/44/29
f 12/40/30 24/43/30 33/19/30
f 10/31/31 22/41/31 32/16/31
f 18/65/32 45/66/32 31/67/32
f 31/67/33 52/68/33 18/65/33
f 8/69/34 52/68/34 20/37/34
f 22/70/35 44/71/35 30/72/35
f 30/72/36 53/73/36 22/70/36
f 12/74/37 53/73/37 24/36/37
f 14/75/38 43/15/38 29/76/38
f 29/76/39 54/77/39 14/75/39
f 4/78/40 54/77/40 16/33/40
f 8/29/41 20/32/41 28/10/41
f 6/27/42 18/30/42 27/7/42
f 4/25/43 16/28/43 26/4/43
f 2/79/44 14/26/44 25/1/44
f 34/62/45 55/80/45 40/45/45
f 34/62/46 56/81/46 55/80/46
f 35/58/47 47/57/47 57/82/47
f 33/19/48 11/17/48 12/40/48
f 32/16/49 9/11/49 10/31/49
f 29/76/50 58/83/50 37/34/50
f 29/76/51 59/84/51 58/83/51
f 30/72/52 44/71/52 60/85/52
f 28/10/53 7/8/53 8/29/53
f 27/7/54 5/5/54 6/27/54
f 26/4/55 3/2/55 4/25/55
f 25/1/56 1/86/56 2/79/56
f 4/25/57 3/2/57 25/1/57
f 6/27/58 5/5/58 26/4/58
f 8/29/59 7/8/59 27/7/59
f 10/31/60 9/11/60 28/10/60
f 12/40/61 11/17/61 32/16/61
f 2/42/62 1/20/62 33/19/62
f 33/19/63 23/21/63 11/17/63
f 32/16/64 21/18/64 9/11/64
f 28/10/65 19/12/65 7/8/65
f 27/7/66 17/9/66 5/5/66
f 26/4/67 15/6/67 3/2/67
f 25/1/68 13/3/68 1/86/68
f 60/85/69 39/38/69 31/67/69
f 60/85/70 44/71/70 39/38/70
f 44/71/71 10/39/71 39/38/71
f 58/83/72 60/85/72 31/67/72
f 58/83/73 59/84/73 60/85/73
f 59/84/74 30/72/74 60/85/74
f 37/34/75 45/66/75 6/35/75
f 37/34/76 58/83/76 45/66/76
f 58/83/77 31/67/77 45/66/77
f 57/82/78 42/49/78 36/53/78
f 57/82/79 47/57/79 42/49/79
f 47/57/80 7/50/80 42/49/80
f 55/80/81 57/82/81 36/53/81
f 55/80/82 56/81/82 57/82/82
f 56/81/83 35/58/83 57/82/83
f 40/45/84 48/52/84 11/46/84
f 40/45/85 55/80/85 48/52/85
f 55/80/86 36/53/86 48/52/86
f 46/24/87 56/81/87 34/62/87
f 46/24/88 41/23/88 56/81/88
f 41/23/89 35/58/89 56/81/89
f 43/15/90 59/84/90 29/76/90
f 43/15/91 38/14/91 59/84/91
f 38/14/92 30/72/92 59/84/92
f 16/33/93 29/76/93 37/34/93
f 24/36/94 30/72/94 38/14/94
f 20/37/95 31/67/95 39/38/95
f 23/44/96 34/62/96 40/45/96
f 15/47/97 35/58/97 41/23/97
f 19/48/98 36/53/98 42/49/98
f 21/51/99 11/46/99 48/52/99
f 36/53/100 19/48/100 49/54/100
f 9/55/101 21/51/101 49/54/101
f 17/56/102 7/50/102 47/57/102
f 35/58/103 15/47/103 50/59/103
f 5/60/104 17/56/104 50/59/104
f 13/61/105 3/22/105 46/24/105
f 34/62/106 23/44/106 51/63/106
f 1/64/107 13/61/107 51/63/107
f 18/65/108 6/35/108 45/66/108
f 31/67/109 20/37/109 52/68/109
f 8/69/110 18/65/110 52/68/110
f 22/70/111 10/39/111 44/71/111
f 30/72/112 24/36/112 53/73/112
f 12/74/113 22/70/113 53/73/113
f 14/75/114 2/13/114 43/15/114
f 29/76/115 16/33/115 54/77/115
f 4/78/116 14/75/116 54/77/116
