# Blender 4.3.0
# www.blender.org
o Cylinder
v 0.000000 -1.433587 -23.614697
v 0.000000 3.101940 -25.781931
v 21.074337 -1.987728 -12.167274
v 20.754660 1.703573 -11.982709
v 21.898609 -2.720423 12.643168
v 20.800978 1.744737 12.009450
v 0.000000 -2.636551 25.177382
v 0.000000 2.333077 24.783161
v -20.953341 -1.880180 12.097418
v -21.709879 2.552663 12.534205
v -20.396114 -1.384853 -11.775702
v -21.949169 2.765365 -12.672359
v 11.052589 -2.954538 -19.143646
v 10.782981 2.415328 -18.676672
v 22.682995 -3.532350 0.000000
v 20.343758 1.193136 0.000000
v 11.326209 -3.501773 19.617571
v 10.445621 1.740615 18.092346
v -11.355692 -3.560737 19.668634
v -10.856884 2.563133 18.804676
v -22.512791 -3.362147 0.000000
v -20.572657 1.422034 0.000000
v -10.713484 -2.276335 -18.556299
v -11.181161 3.211680 -19.366341
v 11.019241 0.000000 -19.085886
v 20.714354 0.000000 0.000000
v 10.769051 0.000000 18.652542
v -11.485985 0.000000 19.894308
v 10.825317 3.289067 -6.250000
v -10.825317 2.076404 -6.250000
v 0.000000 3.247521 12.500000
v -23.530975 0.000000 0.000000
v -10.236242 0.000000 -17.729692
v 0.000000 -3.721757 -12.500000
v 10.825317 -1.678944 6.250000
v -10.825317 -3.279993 6.250000
v 16.237976 3.847202 3.125000
v -5.412659 1.611220 -15.625000
v -10.825317 3.883323 12.500000
v -10.825317 -1.192681 -12.500000
v 16.237976 -1.415358 -3.125000
v -5.412659 -2.434256 15.625000
v 5.412659 3.655164 -15.625000
v -16.237976 3.063659 3.125000
v 10.825317 4.198795 12.500000
v 10.825317 -3.991585 -12.500000
v 5.412659 -3.251253 15.625000
v -16.237976 -2.851387 -3.125000
v -16.237976 -3.996702 9.375000
v 16.237976 -4.495518 9.375000
v 0.000000 -1.793020 -18.750000
v 0.000000 3.229862 18.750000
v -16.237976 0.543439 -9.375000
v 16.237976 3.912487 -9.375000
v -5.412659 -1.247732 -3.125000
v 5.412659 -3.135347 -3.125000
v 0.000000 -3.421974 6.250000
v 5.412659 3.831748 3.125000
v 0.000000 0.540806 -6.250000
v -5.412659 2.574495 3.125000
vn 0.5697 0.0225 -0.8215
vn 0.8733 0.4867 0.0229
vn 0.4385 0.3029 0.8461
vn -0.6255 -0.0721 0.7769
vn -0.1853 0.9816 0.0453
vn -0.9346 -0.2830 -0.2155
vn -0.4185 0.3862 -0.8220
vn 0.1844 -0.9697 0.1600
vn 0.5564 0.1914 -0.8085
vn 0.9538 0.2963 -0.0499
vn 0.5196 0.3477 0.7804
vn -0.4494 0.4407 0.7771
vn 0.5100 0.8582 -0.0588
vn 0.1312 0.9684 0.2120
vn -0.1182 0.9720 0.2029
vn -0.4289 0.8923 0.1412
vn -0.4327 -0.5071 -0.7454
vn 0.0331 -0.9837 0.1766
vn -0.2733 -0.9581 -0.0855
vn 0.1249 -0.9879 -0.0917
vn 0.0454 -0.9964 -0.0717
vn 0.0667 -0.9915 -0.1118
vn -0.3105 -0.9320 0.1868
vn 0.0504 -0.9893 -0.1368
vn -0.4090 -0.9061 -0.1082
vn 0.2571 -0.9632 0.0778
vn -0.0246 -0.9876 -0.1550
vn -0.1102 -0.9497 -0.2931
vn 0.0436 -0.9963 -0.0736
vn -0.4398 -0.5071 -0.7412
vn -0.4301 0.8948 -0.1197
vn -0.0804 0.9145 0.3965
vn 0.1413 0.9900 0.0028
vn -0.0599 0.9874 0.1468
vn -0.2040 0.9543 -0.2183
vn -0.1753 0.9694 -0.1719
vn 0.1686 0.9277 0.3331
vn 0.1867 0.9799 -0.0695
vn -0.1533 0.9858 -0.0688
vn 0.4635 0.8845 0.0536
vn -0.4259 0.4405 0.7903
vn 0.4747 0.3483 0.8083
vn 0.9540 0.2963 0.0453
vn 0.5485 0.1915 -0.8139
vn -0.2257 -0.9662 0.1246
vn -0.1696 -0.9726 0.1588
vn 0.1585 -0.9846 -0.0736
vn -0.4395 -0.3438 -0.8299
vn -0.9670 -0.1825 0.1777
vn -0.0014 0.9983 -0.0586
vn -0.2414 0.9508 -0.1944
vn 0.0450 0.9959 -0.0789
vn -0.4030 0.0724 0.9123
vn 0.5061 0.2419 0.8278
vn 0.9962 0.0855 0.0155
vn 0.3926 -0.3965 -0.8298
vn 0.5766 0.0905 -0.8120
vn 0.9716 0.2330 -0.0409
vn 0.5047 0.0683 0.8606
vn -0.6039 -0.1796 0.7766
vn -0.9038 -0.3805 -0.1959
vn -0.5011 -0.3731 -0.7808
vn -0.5050 0.3862 -0.7719
vn -0.9452 -0.2862 0.1569
vn -0.4305 -0.0728 0.8996
vn 0.5091 0.3030 0.8056
vn 0.8722 0.4861 -0.0536
vn 0.3776 0.0224 -0.9257
vn 0.0583 0.9928 -0.1049
vn 0.0449 0.9926 -0.1127
vn -0.1214 0.9925 -0.0167
vn -0.1154 0.9933 -0.0047
vn -0.1110 0.9560 -0.2715
vn 0.1392 0.9814 -0.1325
vn 0.2424 0.9646 0.1038
vn -0.0014 0.9993 -0.0383
vn -0.0875 0.9961 0.0115
vn -0.0131 -0.9952 0.0973
vn -0.0751 -0.9953 0.0615
vn -0.0752 -0.9969 0.0215
vn -0.0128 -0.9757 -0.2189
vn -0.1704 -0.9770 -0.1282
vn 0.1587 -0.9854 0.0615
vn 0.0069 -0.9854 -0.1704
vn 0.1459 -0.9852 -0.0900
vn 0.1453 -0.9810 -0.1287
vn -0.0248 -0.9967 0.0767
vn 0.1544 -0.9719 0.1779
vn 0.1566 -0.9857 0.0627
vn -0.2422 0.9539 0.1771
vn -0.1812 0.9598 0.2142
vn 0.1404 0.9896 0.0319
vn 0.3713 0.8892 -0.2673
vn 0.2191 0.9726 0.0782
vn 0.0574 0.9771 0.2049
vn -0.2243 -0.9600 0.1676
vn -0.2357 -0.9581 -0.1630
vn 0.1773 -0.9841 -0.0136
vn -0.0024 -0.9861 -0.1660
vn 0.1222 -0.9924 -0.0159
vn -0.3279 -0.9317 0.1564
vn -0.0619 -0.9977 0.0291
vn -0.2991 -0.9063 -0.2987
vn 0.1943 -0.9630 0.1866
vn 0.1944 -0.9702 -0.1448
vn 0.0377 -0.9549 -0.2947
vn -0.1068 -0.9916 -0.0733
vn 0.2372 0.8833 0.4044
vn -0.0613 0.9981 0.0028
vn 0.1486 0.9781 0.1454
vn -0.2807 0.9533 -0.1115
vn -0.3193 0.9433 0.0903
vn 0.3295 0.9420 0.0641
vn 0.1503 0.9796 -0.1335
vn 0.0402 0.9642 0.2621
vn 0.2702 0.9131 -0.3054
vt 0.916667 0.750000
vt 0.833333 0.500000
vt 0.916667 0.500000
vt 0.750000 0.750000
vt 0.666667 0.500000
vt 0.750000 0.500000
vt 0.583333 0.750000
vt 0.500000 0.500000
vt 0.583333 0.500000
vt 0.416667 0.750000
vt 0.333333 0.500000
vt 0.416667 0.500000
vt 0.250000 0.490000
vt 0.198038 0.400000
vt 0.301962 0.400000
vt 0.250000 0.750000
vt 0.166667 0.500000
vt 0.250000 0.500000
vt 0.083333 0.750000
vt -0.000000 0.500000
vt 0.083333 0.500000
vt 0.957846 0.370000
vt 0.905885 0.280000
vt 0.853923 0.370000
vt 0.833333 1.000000
vt 0.916667 1.000000
vt 0.666667 1.000000
vt 0.750000 1.000000
vt 0.500000 1.000000
vt 0.583333 1.000000
vt 0.333333 1.000000
vt 0.416667 1.000000
vt 0.457846 0.250000
vt 0.405885 0.220000
vt 0.457846 0.130000
vt 0.146077 0.430000
vt 0.146077 0.070000
vt 0.146077 0.130000
vt 0.042154 0.130000
vt 0.166667 1.000000
vt 0.250000 1.000000
vt -0.000000 1.000000
vt 0.083333 1.000000
vt 0.646077 0.430000
vt 0.646077 0.370000
vt 0.542154 0.370000
vt 0.957846 0.250000
vt 0.646077 0.070000
vt 0.698038 0.100000
vt 0.750000 0.010000
vt 0.542154 0.250000
vt 0.594115 0.280000
vt 0.646077 0.190000
vt 0.594115 0.160000
vt 0.542154 0.130000
vt 0.853923 0.070000
vt 0.801962 0.100000
vt 0.853923 0.190000
vt 0.905885 0.160000
vt 0.957846 0.130000
vt 0.853923 0.430000
vt 0.750000 0.370000
vt 0.750000 0.430000
vt 0.750000 0.490000
vt 0.353923 0.070000
vt 0.353923 0.130000
vt 0.250000 0.130000
vt 0.250000 0.070000
vt 0.250000 0.010000
vt 0.042154 0.250000
vt 0.094115 0.220000
vt 0.146077 0.310000
vt 0.094115 0.340000
vt 0.042154 0.370000
vt 0.353923 0.430000
vt 0.353923 0.310000
vt 0.405885 0.340000
vt 0.457846 0.370000
vt 1.000000 1.000000
vt 0.698038 0.280000
vt 0.801962 0.280000
vt 0.750000 0.190000
vt 0.301962 0.220000
vt 0.250000 0.310000
vt 0.198038 0.220000
vt 1.000000 0.500000
s 0
f 25/1/1 3/2/1 13/3/1
f 26/4/2 5/5/2 15/6/2
f 27/7/3 7/8/3 17/9/3
f 28/10/4 9/11/4 19/12/4
f 2/13/5 38/14/5 43/15/5
f 32/16/6 11/17/6 21/18/6
f 33/19/7 1/20/7 23/21/7
f 3/22/8 41/23/8 46/24/8
f 4/25/9 25/1/9 14/26/9
f 6/27/10 26/4/10 16/28/10
f 8/29/11 27/7/11 18/30/11
f 10/31/12 28/10/12 20/32/12
f 16/33/13 37/34/13 6/35/13
f 24/36/14 38/14/14 2/13/14
f 20/37/15 39/38/15 10/39/15
f 12/40/16 32/16/16 22/41/16
f 2/42/17 33/19/17 24/43/17
f 23/44/18 40/45/18 11/46/18
f 15/47/19 41/23/19 3/22/19
f 19/48/20 42/49/20 7/50/20
f 21/51/21 48/52/21 36/53/21
f 36/53/22 49/54/22 21/51/22
f 9/55/23 49/54/23 19/48/23
f 17/56/24 47/57/24 35/58/24
f 35/58/25 50/59/25 17/56/25
f 5/60/26 50/59/26 15/47/26
f 13/61/27 46/24/27 34/62/27
f 34/62/28 51/63/28 13/61/28
f 1/64/29 51/63/29 23/44/29
f 12/40/30 24/43/30 33/19/30
f 10/31/31 22/41/31 32/16/31
f 18/65/32 45/66/32 31/67/32
f 31/67/33 52/68/33 18/65/33
f 8/69/34 52/68/34 20/37/34
f 22/70/35 44/71/35 30/72/35
f 30/72/36 53/73/36 22/70/36
f 12/74/37 53/73/37 24/36/37
f 14/75/38 43/15/38 29/76/38
f 29/76/39 54/77/39 14/75/39
f 4/78/40 54/77/40 16/33/40
f 8/29/41 20/32/41 28/10/41
f 6/27/42 18/30/42 27/7/42
f 4/25/43 16/28/43 26/4/43
f 2/79/44 14/26/44 25/1/44
f 34/62/45 55/80/45 40/45/45
f 34/62/46 56/81/46 55/80/46
f 35/58/47 47/57/47 57/82/47
f 33/19/48 11/17/48 12/40/48
f 32/16/49 9/11/49 10/31/49
f 29/76/50 58/83/50 37/34/50
f 29/76/51 59/84/51 58/83/51
f 30/72/52 44/71/52 60/85/52
f 28/10/53 7/8/53 8/29/53
f 27/7/54 5/5/54 6/27/54
f 26/4/55 3/2/55 4/25/55
f 25/1/56 1/86/56 2/79/56
f 4/25/57 3/2/57 25/1/57
f 6/27/58 5/5/58 26/4/58
f 8/29/59 7/8/59 27/7/59
f 10/31/60 9/11/60 28/10/60
f 12/40/61 11/17/61 32/16/61
f 2/42/62 1/20/62 33/19/62
f 33/19/63 23/21/63 11/17/63
f 32/16/64 21/18/64 9/11/64
f 28/10/65 19/12/65 7/8/65
f 27/7/66 17/9/66 5/5/66
f 26/4/67 15/6/67 3/2/67
f 25/1/68 13/3/68 1/86/68
f 60/85/69 39/38/69 31/67/69
f 60/85/70 44/71/70 39/38/70
f 44/71/71 10/39/71 39/38/71
f 58/83/72 60/85/72 31/67/72
f 58/83/73 59/84/73 60/85/73
f 59/84/74 30/72/74 60/85/74
f 37/34/75 45/66/75 6/35/75
f 37/34/76 58/83/76 45/66/76
f 58/83/77 31/67/77 45/66/77
f 57/82/78 42/49/78 36/53/78
f 57/82/79 47/57/79 42/49/79
f 47/57/80 7/50/80 42/49/80
f 55/80/81 57/82/81 36/53/81
f 55/80/82 56/81/82 57/82/82
f 56/81/83 35/58/83 57/82/83
f 40/45/84 48/52/84 11/46/84
f 40/45/85 55/80/85 48/52/85
f 55/80/86 36/53/86 48/52/86
f 46/24/87 56/81/87 34/62/87
f 46/24/88 41/23/88 56/81/88
f 41/23/89 35/58/89 56/81/89
f 43/15/90 59/84/90 29/76/90
f 43/15/91 38/14/91 59/84/91
f 38/14/92 30/72/92 59/84/92
f 16/33/93 29/76/93 37/34/93
f 24/36/94 30/72/94 38/14/94
f 20/37/95 31/67/95 39/38/95
f 23/44/96 34/62/96 40/45/96
f 15/47/97 35/58/97 41/23/97
f 19/48/98 36/53/98 42/49/98
f 21/51/99 11/46/99 48/52/99
f 36/53/100 19/48/100 49/54/100
f 9/55/101 21/51/101 49/54/101
f 17/56/102 7/50/102 47/57/102
f 35/58/103 15/47/103 50/59/103
f 5/60/104 17/56/104 50/59/104
f 13/61/105 3/22/105 46/24/105
f 34/62/106 23/44/106 51/63/106
f 1/64/107 13/61/107 51/63/107
f 18/65/108 6/35/108 45/66/108
f 31/67/109 20/37/109 52/68/109
f 8/69/110 18/65/110 52/68/110
f 22/70/111 10/39/111 44/71/111
f 30/72/112 24/36/112 53/73/112
f 12/74/113 22/70/113 53/73/113
f 14/75/114 2/13/114 43/15/114
f 29/76/115 16/33/115 54/77/115
f 4/78/116 14/75/116 54/77/116
