# Blender 4.3.0
# www.blender.org
o Cylinder
v 0.000000 -2.485298 -24.980902
v 0.000000 2.466238 -24.956142
v 21.705322 -2.548611 -12.531573
v 21.784176 2.618703 -12.577100
v 21.731747 -2.572099 12.546829
v 21.690121 2.535100 12.522798
v 0.000000 -2.559547 25.077353
v 0.000000 2.641348 25.183615
v -21.526564 -2.389714 12.428368
v -21.500458 2.366508 12.413296
v -21.730141 -2.570672 -12.545902
v -21.665617 2.513317 -12.508650
v 10.807142 -2.463651 -18.718521
v 10.893803 2.636970 -18.868620
v 21.501127 -2.350494 0.000000
v 21.612349 2.461714 0.000000
v 10.745486 -2.340339 18.611729
v 10.907508 2.664379 18.892357
v -10.844431 -2.538227 18.783106
v -10.841490 2.532344 18.778011
v -21.641628 -2.490994 0.000000
v -21.583714 2.433080 0.000000
v -10.757767 -2.364900 -18.632999
v -10.851422 2.552209 -18.795216
v 10.770051 0.000000 -18.654276
v 21.404112 0.000000 0.000000
v 10.887923 0.000000 18.858437
v -10.899650 0.000000 18.878746
v 10.825317 2.718356 -6.250000
v -10.825317 2.334478 -6.250000
v 0.000000 2.704026 12.500000
v -21.590366 0.000000 0.000000
v -10.849827 0.000000 -18.792450
v 0.000000 -2.673506 -12.500000
v 10.825317 -2.270323 6.250000
v -10.825317 -2.384719 6.250000
v 16.237976 2.563884 3.125000
v -5.412659 2.289760 -15.625000
v -10.825317 2.533296 12.500000
v -10.825317 -2.677427 -12.500000
v 16.237976 -2.668546 -3.125000
v -5.412659 -2.603380 15.625000
v 5.412659 2.707850 -15.625000
v -16.237976 2.583408 3.125000
v 10.825317 2.488771 12.500000
v 10.825317 -2.698570 -12.500000
v 5.412659 -2.433710 15.625000
v -16.237976 -2.585473 -3.125000
v -16.237976 -2.587584 9.375000
v 16.237976 -2.569815 9.375000
v 0.000000 -2.380448 -18.750000
v 0.000000 2.549810 18.750000
v -16.237976 2.553620 -9.375000
v 16.237976 2.478572 -9.375000
v -5.412659 -2.681843 -3.125000
v 5.412659 -2.599996 -3.125000
v 0.000000 -2.518399 6.250000
v 5.412659 2.330215 3.125000
v 0.000000 2.662090 -6.250000
v -5.412659 2.649804 3.125000
vn 0.4936 0.0301 -0.8691
vn 0.9990 0.0412 -0.0176
vn 0.5136 -0.1208 0.8495
vn -0.5112 -0.0435 0.8583
vn -0.0386 0.9992 -0.0035
vn -0.9998 0.0206 0.0069
vn -0.5073 -0.0776 -0.8583
vn 0.0138 -0.9999 -0.0047
vn 0.4979 -0.0934 -0.8622
vn 0.9964 -0.0843 -0.0057
vn 0.4996 -0.0147 0.8661
vn -0.5127 0.0459 0.8574
vn 0.0155 0.9999 -0.0060
vn 0.0278 0.9990 0.0350
vn -0.0156 0.9999 0.0001
vn -1.0000 0.0027 0.0066
vn -0.4937 -0.0013 -0.8696
vn -0.0096 -0.9987 -0.0510
vn 0.0505 -0.9986 0.0166
vn -0.0070 -0.9999 0.0086
vn -0.0038 -0.9997 0.0236
vn 0.0236 -0.9994 -0.0239
vn -0.0258 -0.9995 0.0200
vn 0.0206 -0.9998 -0.0055
vn -0.0518 -0.9986 -0.0060
vn 0.0099 -0.9998 -0.0178
vn -0.0023 -0.9993 -0.0377
vn -0.0076 -0.9989 -0.0468
vn -0.0013 -0.9999 0.0168
vn -0.5026 -0.0013 -0.8645
vn -1.0000 0.0027 0.0067
vn 0.0199 0.9994 -0.0277
vn -0.0108 0.9996 0.0247
vn -0.0016 0.9999 -0.0142
vn -0.0094 0.9994 -0.0320
vn 0.0249 0.9993 0.0270
vn -0.0055 1.0000 -0.0033
vn 0.0091 0.9999 -0.0064
vn 0.0407 0.9992 -0.0062
vn -0.0182 0.9998 0.0122
vn -0.5085 0.0459 0.8598
vn 0.5084 -0.0147 0.8610
vn 0.9964 -0.0843 0.0126
vn 0.4868 -0.0934 -0.8685
vn 0.0004 -1.0000 -0.0007
vn 0.0076 -1.0000 0.0035
vn 0.0229 -0.9997 -0.0042
vn -0.5001 0.0127 -0.8659
vn -1.0000 0.0055 0.0062
vn -0.0216 0.9993 0.0289
vn -0.0052 0.9993 0.0384
vn -0.0061 0.9995 -0.0301
vn -0.4974 -0.0177 0.8673
vn 0.5045 0.0082 0.8634
vn 0.9995 -0.0150 0.0271
vn 0.5058 0.0043 -0.8627
vn 0.4858 -0.0151 -0.8739
vn 0.9997 0.0080 -0.0245
vn 0.4990 -0.0177 0.8664
vn -0.5198 0.0056 0.8543
vn -0.9999 0.0126 0.0086
vn -0.4947 0.0043 -0.8691
vn -0.4825 -0.0776 -0.8724
vn -0.9997 0.0206 0.0091
vn -0.5016 -0.0435 0.8640
vn 0.4778 -0.1208 0.8701
vn 0.9990 0.0412 0.0156
vn 0.5011 0.0301 -0.8649
vn -0.0158 0.9999 0.0033
vn -0.0061 0.9999 0.0089
vn -0.0157 0.9998 0.0144
vn 0.0295 0.9993 -0.0228
vn 0.0295 0.9994 0.0183
vn -0.0302 0.9994 -0.0162
vn -0.0043 1.0000 0.0055
vn -0.0216 0.9998 -0.0044
vn 0.0199 0.9994 -0.0284
vn -0.0123 -0.9998 -0.0162
vn 0.0157 -0.9999 -0.0000
vn 0.0157 -0.9999 -0.0043
vn -0.0123 -0.9996 0.0246
vn 0.0076 -0.9999 0.0131
vn 0.0229 -0.9995 0.0219
vn -0.0098 -0.9999 0.0041
vn -0.0089 -0.9999 0.0047
vn -0.0089 -0.9996 0.0265
vn -0.0023 -1.0000 0.0092
vn -0.0063 -1.0000 0.0069
vn -0.0063 -0.9992 0.0388
vn -0.0052 1.0000 0.0019
vn -0.0386 0.9991 -0.0174
vn -0.0302 0.9993 -0.0222
vn 0.0214 0.9998 0.0041
vn 0.0382 0.9991 0.0173
vn -0.0158 0.9999 0.0001
vn 0.0004 -0.9987 -0.0509
vn 0.0262 -0.9980 0.0575
vn -0.0191 -0.9997 -0.0123
vn -0.0138 -0.9999 0.0064
vn 0.0304 -0.9995 -0.0122
vn -0.0325 -0.9994 0.0084
vn 0.0189 -0.9998 -0.0025
vn -0.0315 -0.9987 -0.0411
vn -0.0110 -0.9998 0.0183
vn 0.0137 -0.9992 -0.0378
vn -0.0020 -0.9989 -0.0468
vn -0.0077 -0.9998 0.0168
vn -0.0042 0.9996 -0.0274
vn -0.0015 0.9997 0.0247
vn -0.0103 0.9998 -0.0142
vn -0.0314 0.9995 0.0056
vn 0.0305 0.9994 0.0173
vn -0.0112 0.9999 0.0065
vn -0.0018 0.9997 -0.0249
vn 0.0340 0.9993 -0.0177
vn -0.0118 0.9997 0.0233
vt 0.916667 0.750000
vt 0.833333 0.500000
vt 0.916667 0.500000
vt 0.750000 0.750000
vt 0.666667 0.500000
vt 0.750000 0.500000
vt 0.583333 0.750000
vt 0.500000 0.500000
vt 0.583333 0.500000
vt 0.416667 0.750000
vt 0.333333 0.500000
vt 0.416667 0.500000
vt 0.250000 0.490000
vt 0.198038 0.400000
vt 0.301962 0.400000
vt 0.250000 0.750000
vt 0.166667 0.500000
vt 0.250000 0.500000
vt 0.083333 0.750000
vt -0.000000 0.500000
vt 0.083333 0.500000
vt 0.957846 0.370000
vt 0.905885 0.280000
vt 0.853923 0.370000
vt 0.833333 1.000000
vt 0.916667 1.000000
vt 0.666667 1.000000
vt 0.750000 1.000000
vt 0.500000 1.000000
vt 0.583333 1.000000
vt 0.333333 1.000000
vt 0.416667 1.000000
vt 0.457846 0.250000
vt 0.405885 0.220000
vt 0.457846 0.130000
vt 0.146077 0.430000
vt 0.146077 0.070000
vt 0.146077 0.130000
vt 0.042154 0.130000
vt 0.166667 1.000000
vt 0.250000 1.000000
vt -0.000000 1.000000
vt 0.083333 1.000000
vt 0.646077 0.430000
vt 0.646077 0.370000
vt 0.542154 0.370000
vt 0.957846 0.250000
vt 0.646077 0.070000
vt 0.698038 0.100000
vt 0.750000 0.010000
vt 0.542154 0.250000
vt 0.594115 0.280000
vt 0.646077 0.190000
vt 0.594115 0.160000
vt 0.542154 0.130000
vt 0.853923 0.070000
vt 0.801962 0.100000
vt 0.853923 0.190000
vt 0.905885 0.160000
vt 0.957846 0.130000
vt 0.853923 0.430000
vt 0.750000 0.370000
vt 0.750000 0.430000
vt 0.750000 0.490000
vt 0.353923 0.070000
vt 0.353923 0.130000
vt 0.250000 0.130000
vt 0.250000 0.070000
vt 0.250000 0.010000
vt 0.042154 0.250000
vt 0.094115 0.220000
vt 0.146077 0.310000
vt 0.094115 0.340000
vt 0.042154 0.370000
vt 0.353923 0.430000
vt 0.353923 0.310000
vt 0.405885 0.340000
vt 0.457846 0.370000
vt 1.000000 1.000000
vt 0.698038 0.280000
vt 0.801962 0.280000
vt 0.750000 0.190000
vt 0.301962 0.220000
vt 0.250000 0.310000
vt 0.198038 0.220000
vt 1.000000 0.500000
s 0
f 25/1/1 3/2/1 13/3/1
f 26/4/2 5/5/2 15/6/2
f 27/7/3 7/8/3 17/9/3
f 28/10/4 9/11/4 19/12/4
f 2/13/5 38/14/5 43/15/5
f 32/16/6 11/17/6 21/18/6
f 33/19/7 1/20/7 23/21/7
f 3/22/8 41/23/8 46/24/8
f 4/25/9 25/1/9 14/26/9
f 6/27/10 26/4/10 16/28/10
f 8/29/11 27/7/11 18/30/11
f 10/31/12 28/10/12 20/32/12
f 16/33/13 37/34/13 6/35/13
f 24/36/14 38/14/14 2/13/14
f 20/37/15 39/38/15 10/39/15
f 12/40/16 32/16/16 22/41/16
f 2/42/17 33/19/17 24/43/17
f 23/44/18 40/45/18 11/46/18
f 15/47/19 41/23/19 3/22/19
f 19/48/20 42/49/20 7/50/20
f 21/51/21 48/52/21 36/53/21
f 36/53/22 49/54/22 21/51/22
f 9/55/23 49/54/23 19/48/23
f 17/56/24 47/57/24 35/58/24
f 35/58/25 50/59/25 17/56/25
f 5/60/26 50/59/26 15/47/26
f 13/61/27 46/24/27 34/62/27
f 34/62/28 51/63/28 13/61/28
f 1/64/29 51/63/29 23/44/29
f 12/40/30 24/43/30 33/19/30
f 10/31/31 22/41/31 32/16/31
f 18/65/32 45/66/32 31/67/32
f 31/67/33 52/68/33 18/65/33
f 8/69/34 52/68/34 20/37/34
f 22/70/35 44/71/35 30/72/35
f 30/72/36 53/73/36 22/70/36
f 12/74/37 53/73/37 24/36/37
f 14/75/38 43/15/38 29/76/38
f 29/76/39 54/77/39 14/75/39
f 4/78/40 54/77/40 16/33/40
f 8/29/41 20/32/41 28/10/41
f 6/27/42 18/30/42 27/7/42
f 4/25/43 16/28/43 26/4/43
f 2/79/44 14/26/44 25/1/44
f 34/62/45 55/80/45 40/45/45
f 34/62/46 56/81/46 55/80/46
f 35/58/47 47/57/47 57/82/47
f 33/19/48 11/17/48 12/40/48
f 32/16/49 9/11/49 10/31/49
f 29/76/50 58/83/50 37/34/50
f 29/76/51 59/84/51 58/83/51
f 30/72/52 44/71/52 60/85/52
f 28/10/53 7/8/53 8/29/53
f 27/7/54 5/5/54 6/27/54
f 26/4/55 3/2/55 4/25/55
f 25/1/56 1/86/56 2/79/56
f 4/25/57 3/2/57 25/1/57
f 6/27/58 5/5/58 26/4/58
f 8/29/59 7/8/59 27/7/59
f 10/31/60 9/11/60 28/10/60
f 12/40/61 11/17/61 32/16/61
f 2/42/62 1/20/62 33/19/62
f 33/19/63 23/21/63 11/17/63
f 32/16/64 21/18/64 9/11/64
f 28/10/65 19/12/65 7/8/65
f 27/7/66 17/9/66 5/5/66
f 26/4/67 15/6/67 3/2/67
f 25/1/68 13/3/68 1/86/68
f 60/85/69 39/38/69 31/67/69
f 60/85/70 44/71/70 39/38/70
f 44/71/71 10/39/71 39/38/71
f 58/83/72 60/85/72 31/67/72
f 58/83/73 59/84/73 60/85/73
f 59/84/74 30/72/74 60/85/74
f 37/34/75 45/66/75 6/35/75
f 37/34/76 58/83/76 45/66/76
f 58/83/77 31/67/77 45/66/77
f 57/82/78 42/49/78 36/53/78
f 57/82/79 47/57/79 42/49/79
f 47/57/80 7/50/80 42/49/80
f 55/80/81 57/82/81 36/53/81
f 55/80/82 56/81/82 57/82/82
f 56/81/83 35/58/83 57/82/83
f 40/45/84 48/52/84 11/46/84
f 40/45/85 55/80/85 48/52/85
f 55/80/86 36/53/86 48/52/86
f 46/24/87 56/81/87 34/62/87
f 46/24/88 41/23/88 56/81/88
f 41/23/89 35/58/89 56/81/89
f 43/15/90 59/84/90 29/76/90
f 43/15/91 38/14/91 59/84/91
f 38/14/92 30/72/92 59/84/92
f 16/33/93 29/76/93 37/34/93
f 24/36/94 30/72/94 38/14/94
f 20/37/95 31/67/95 39/38/95
f 23/44/96 34/62/96 40/45/96
f 15/47/97 35/58/97 41/23/97
f 19/48/98 36/53/98 42/49/98
f 21/51/99 11/46/99 48/52/99
f 36/53/100 19/48/100 49/54/100
f 9/55/101 21/51/101 49/54/101
f 17/56/102 7/50/102 47/57/102
f 35/58/103 15/47/103 50/59/103
f 5/60/104 17/56/104 50/59/104
f 13/61/105 3/22/105 46/24/105
f 34/62/106 23/44/106 51/63/106
f 1/64/107 13/61/107 51/63/107
f 18/65/108 6/35/108 45/66/108
f 31/67/109 20/37/109 52/68/109
f 8/69/110 18/65/110 52/68/110
f 22/70/111 10/39/111 44/71/111
f 30/72/112 24/36/112 53/73/112
f 12/74/113 22/70/113 53/73/113
f 14/75/114 2/13/114 43/15/114
f 29/76/115 16/33/115 54/77/115
f 4/78/116 14/75/116 54/77/116
