# Blender 4.3.0
# www.blender.org
o Cylinder
v 0.000000 -2.397756 -24.867182
v 0.000000 2.577599 -25.100803
v 21.717352 -2.559305 -12.538519
v 21.507792 2.373028 -12.417530
v 21.794783 -2.628132 12.583223
v 21.770634 2.606667 12.569282
v 0.000000 -2.620137 25.156061
v 0.000000 2.467649 24.957975
v -21.740608 -2.579977 12.551947
v -21.673965 2.520738 12.513470
v -21.559355 -2.418860 -12.447299
v -21.783840 2.618405 -12.576906
v 10.810943 -2.471250 -18.725101
v 10.814321 2.478007 -18.730953
v 21.514256 -2.363622 0.000000
v 21.772308 2.621672 0.000000
v 10.786462 -2.422291 18.682701
v 10.787512 2.424390 18.684519
v -10.742281 -2.333928 18.606176
v -10.871318 2.592000 18.829676
v -21.776930 -2.626293 0.000000
v -21.568722 2.418088 0.000000
v -10.910748 -2.670859 -18.897970
v -10.847738 2.544841 -18.788834
v 10.810382 0.000000 -18.724131
v 21.760424 0.000000 0.000000
v 10.891622 0.000000 18.864843
v -10.910515 0.000000 18.897566
v 10.825317 2.448828 -6.250000
v -10.825317 2.356050 -6.250000
v 0.000000 2.453907 12.500000
v -21.792671 0.000000 0.000000
v -10.824934 0.000000 -18.749336
v 0.000000 -2.599905 -12.500000
v 10.825317 -2.430021 6.250000
v -10.825317 -2.504935 6.250000
v 16.237976 2.373609 3.125000
v -5.412659 2.339169 -15.625000
v -10.825317 2.313266 12.500000
v -10.825317 -2.480363 -12.500000
v 16.237976 -2.340057 -3.125000
v -5.412659 -2.455971 15.625000
v 5.412659 2.445896 -15.625000
v -16.237976 2.454186 3.125000
v 10.825317 2.536545 12.500000
v 10.825317 -2.387319 -12.500000
v 5.412659 -2.495551 15.625000
v -16.237976 -2.434492 -3.125000
v -16.237976 -2.700429 9.375000
v 16.237976 -2.631624 9.375000
v 0.000000 -2.306805 -18.750000
v 0.000000 2.502445 18.750000
v -16.237976 2.714757 -9.375000
v 16.237976 2.524309 -9.375000
v -5.412659 -2.565046 -3.125000
v 5.412659 -2.314892 -3.125000
v 0.000000 -2.440573 6.250000
v 5.412659 2.724719 3.125000
v 0.000000 2.448921 -6.250000
v -5.412659 2.602343 3.125000
vn 0.4934 0.0005 -0.8698
vn 0.9943 -0.1036 -0.0243
vn 0.5138 -0.0865 0.8535
vn -0.4749 -0.1427 0.8684
vn -0.0099 0.9998 0.0195
vn -0.9998 -0.0060 -0.0176
vn -0.4802 0.0641 -0.8748
vn -0.0157 -0.9998 0.0141
vn 0.5084 -0.0032 -0.8611
vn 1.0000 -0.0045 0.0001
vn 0.5011 0.0856 0.8611
vn -0.5047 0.0302 0.8628
vn -0.0441 0.9990 0.0012
vn 0.0174 0.9992 0.0351
vn 0.0190 0.9989 -0.0438
vn -0.9956 0.0922 0.0185
vn -0.5028 -0.0179 -0.8642
vn -0.0056 -0.9995 0.0298
vn -0.0136 -0.9998 0.0154
vn -0.0247 -0.9997 -0.0032
vn 0.0229 -0.9995 -0.0207
vn 0.0235 -0.9995 -0.0218
vn 0.0008 -0.9992 0.0392
vn 0.0133 -0.9999 0.0007
vn -0.0375 -0.9993 0.0005
vn 0.0129 -0.9997 -0.0213
vn 0.0196 -0.9997 0.0134
vn -0.0151 -0.9988 -0.0468
vn 0.0331 -0.9993 0.0149
vn -0.4939 -0.0179 -0.8693
vn -0.9957 0.0922 -0.0091
vn -0.0076 0.9998 0.0181
vn 0.0072 0.9999 -0.0078
vn 0.0083 1.0000 0.0056
vn -0.0005 0.9999 -0.0107
vn 0.0361 0.9980 0.0521
vn -0.0052 0.9998 -0.0210
vn -0.0046 1.0000 0.0023
vn -0.0126 0.9999 0.0023
vn 0.0169 0.9996 -0.0204
vn -0.4906 0.0302 0.8709
vn 0.4836 0.0856 0.8711
vn 0.9998 -0.0045 -0.0212
vn 0.5075 -0.0032 -0.8616
vn -0.0110 -0.9999 -0.0027
vn 0.0231 -0.9996 0.0171
vn 0.0010 -1.0000 -0.0064
vn -0.4983 -0.0445 -0.8659
vn -0.9999 0.0131 0.0068
vn 0.0324 0.9994 -0.0107
vn -0.0000 0.9996 -0.0294
vn -0.0137 0.9997 -0.0184
vn -0.4912 0.0339 0.8704
vn 0.5000 0.0046 0.8660
vn 0.9990 0.0427 -0.0122
vn 0.5004 -0.0406 -0.8648
vn 0.5004 0.0425 -0.8648
vn 1.0000 0.0046 -0.0018
vn 0.4938 0.0338 0.8689
vn -0.5078 0.0131 0.8614
vn -0.9989 -0.0448 -0.0100
vn -0.4984 -0.0407 -0.8660
vn -0.5159 0.0641 -0.8542
vn -1.0000 -0.0060 0.0029
vn -0.5180 -0.1426 0.8434
vn 0.4816 -0.0865 0.8721
vn 0.9945 -0.1036 0.0177
vn 0.4940 0.0005 -0.8695
vn -0.0130 0.9996 0.0233
vn -0.0137 0.9996 0.0229
vn 0.0191 0.9998 0.0040
vn -0.0113 0.9997 0.0224
vn -0.0113 0.9997 -0.0229
vn -0.0086 0.9997 -0.0213
vn -0.0063 0.9998 -0.0210
vn 0.0324 0.9995 0.0013
vn -0.0076 0.9997 0.0245
vn 0.0059 -1.0000 0.0018
vn -0.0037 -1.0000 -0.0038
vn -0.0037 -0.9999 -0.0151
vn 0.0059 -0.9999 0.0098
vn 0.0231 -0.9997 -0.0001
vn 0.0010 -0.9999 -0.0128
vn -0.0057 -1.0000 0.0016
vn -0.0121 -0.9999 -0.0021
vn -0.0121 -0.9999 -0.0006
vn 0.0196 -0.9996 0.0191
vn -0.0023 -1.0000 0.0064
vn -0.0023 -0.9999 -0.0109
vn -0.0000 1.0000 -0.0003
vn -0.0099 0.9999 -0.0060
vn -0.0086 0.9999 -0.0068
vn -0.0304 0.9992 0.0255
vn 0.0291 0.9995 0.0150
vn -0.0130 0.9989 -0.0441
vn -0.0110 -0.9995 0.0299
vn 0.0009 -1.0000 -0.0091
vn -0.0151 -0.9998 0.0139
vn 0.0255 -0.9995 -0.0162
vn 0.0439 -0.9989 0.0135
vn -0.0197 -0.9998 0.0037
vn 0.0159 -0.9999 -0.0040
vn -0.0156 -0.9992 -0.0374
vn -0.0092 -0.9998 0.0171
vn -0.0157 -0.9998 0.0135
vn 0.0339 -0.9983 -0.0468
vn -0.0152 -0.9998 0.0149
vn -0.0065 0.9998 0.0181
vn 0.0082 0.9999 -0.0078
vn 0.0073 1.0000 0.0056
vn -0.0020 1.0000 -0.0082
vn 0.0575 0.9982 0.0149
vn -0.0268 0.9995 0.0164
vn 0.0015 0.9999 0.0130
vn -0.0149 0.9999 -0.0016
vn 0.0194 0.9997 -0.0162
vt 0.916667 0.750000
vt 0.833333 0.500000
vt 0.916667 0.500000
vt 0.750000 0.750000
vt 0.666667 0.500000
vt 0.750000 0.500000
vt 0.583333 0.750000
vt 0.500000 0.500000
vt 0.583333 0.500000
vt 0.416667 0.750000
vt 0.333333 0.500000
vt 0.416667 0.500000
vt 0.250000 0.490000
vt 0.198038 0.400000
vt 0.301962 0.400000
vt 0.250000 0.750000
vt 0.166667 0.500000
vt 0.250000 0.500000
vt 0.083333 0.750000
vt -0.000000 0.500000
vt 0.083333 0.500000
vt 0.957846 0.370000
vt 0.905885 0.280000
vt 0.853923 0.370000
vt 0.833333 1.000000
vt 0.916667 1.000000
vt 0.666667 1.000000
vt 0.750000 1.000000
vt 0.500000 1.000000
vt 0.583333 1.000000
vt 0.333333 1.000000
vt 0.416667 1.000000
vt 0.457846 0.250000
vt 0.405885 0.220000
vt 0.457846 0.130000
vt 0.146077 0.430000
vt 0.146077 0.070000
vt 0.146077 0.130000
vt 0.042154 0.130000
vt 0.166667 1.000000
vt 0.250000 1.000000
vt -0.000000 1.000000
vt 0.083333 1.000000
vt 0.646077 0.430000
vt 0.646077 0.370000
vt 0.542154 0.370000
vt 0.957846 0.250000
vt 0.646077 0.070000
vt 0.698038 0.100000
vt 0.750000 0.010000
vt 0.542154 0.250000
vt 0.594115 0.280000
vt 0.646077 0.190000
vt 0.594115 0.160000
vt 0.542154 0.130000
vt 0.853923 0.070000
vt 0.801962 0.100000
vt 0.853923 0.190000
vt 0.905885 0.160000
vt 0.957846 0.130000
vt 0.853923 0.430000
vt 0.750000 0.370000
vt 0.750000 0.430000
vt 0.750000 0.490000
vt 0.353923 0.070000
vt 0.353923 0.130000
vt 0.250000 0.130000
vt 0.250000 0.070000
vt 0.250000 0.010000
vt 0.042154 0.250000
vt 0.094115 0.220000
vt 0.146077 0.310000
vt 0.094115 0.340000
vt 0.042154 0.370000
vt 0.353923 0.430000
vt 0.353923 0.310000
vt 0.405885 0.340000
vt 0.457846 0.370000
vt 1.000000 1.000000
vt 0.698038 0.280000
vt 0.801962 0.280000
vt 0.750000 0.190000
vt 0.301962 0.220000
vt 0.250000 0.310000
vt 0.198038 0.220000
vt 1.000000 0.500000
s 0
f 25/1/1 3/2/1 13/3/1
f 26/4/2 5/5/2 15/6/2
f 27/7/3 7/8/3 17/9/3
f 28/10/4 9/11/4 19/12/4
f 2/13/5 38/14/5 43/15/5
f 32/16/6 11/17/6 21/18/6
f 33/19/7 1/20/7 23/21/7
f 3/22/8 41/23/8 46/24/8
f 4/25/9 25/1/9 14/26/9
f 6/27/10 26/4/10 16/28/10
f 8/29/11 27/7/11 18/30/11
f 10/31/12 28/10/12 20/32/12
f 16/33/13 37/34/13 6/35/13
f 24/36/14 38/14/14 2/13/14
f 20/37/15 39/38/15 10/39/15
f 12/40/16 32/16/16 22/41/16
f 2/42/17 33/19/17 24/43/17
f 23/44/18 40/45/18 11/46/18
f 15/47/19 41/23/19 3/22/19
f 19/48/20 42/49/20 7/50/20
f 21/51/21 48/52/21 36/53/21
f 36/53/22 49/54/22 21/51/22
f 9/55/23 49/54/23 19/48/23
f 17/56/24 47/57/24 35/58/24
f 35/58/25 50/59/25 17/56/25
f 5/60/26 50/59/26 15/47/26
f 13/61/27 46/24/27 34/62/27
f 34/62/28 51/63/28 13/61/28
f 1/64/29 51/63/29 23/44/29
f 12/40/30 24/43/30 33/19/30
f 10/31/31 22/41/31 32/16/31
f 18/65/32 45/66/32 31/67/32
f 31/67/33 52/68/33 18/65/33
f 8/69/34 52/68/34 20/37/34
f 22/70/35 44/71/35 30/72/35
f 30/72/36 53/73/36 22/70/36
f 12/74/37 53/73/37 24/36/37
f 14/75/38 43/15/38 29/76/38
f 29/76/39 54/77/39 14/75/39
f 4/78/40 54/77/40 16/33/40
f 8/29/41 20/32/41 28/10/41
f 6/27/42 18/30/42 27/7/42
f 4/25/43 16/28/43 26/4/43
f 2/79/44 14/26/44 25/1/44
f 34/62/45 55/80/45 40/45/45
f 34/62/46 56/81/46 55/80/46
f 35/58/47 47/57/47 57/82/47
f 33/19/48 11/17/48 12/40/48
f 32/16/49 9/11/49 10/31/49
f 29/76/50 58/83/50 37/34/50
f 29/76/51 59/84/51 58/83/51
f 30/72/52 44/71/52 60/85/52
f 28/10/53 7/8/53 8/29/53
f 27/7/54 5/5/54 6/27/54
f 26/4/55 3/2/55 4/25/55
f 25/1/56 1/86/56 2/79/56
f 4/25/57 3/2/57 25/1/57
f 6/27/58 5/5/58 26/4/58
f 8/29/59 7/8/59 27/7/59
f 10/31/60 9/11/60 28/10/60
f 12/40/61 11/17/61 32/16/61
f 2/42/62 1/20/62 33/19/62
f 33/19/63 23/21/63 11/17/63
f 32/16/64 21/18/64 9/11/64
f 28/10/65 19/12/65 7/8/65
f 27/7/66 17/9/66 5/5/66
f 26/4/67 15/6/67 3/2/67
f 25/1/68 13/3/68 1/86/68
f 60/85/69 39/38/69 31/67/69
f 60/85/70 44/71/70 39/38/70
f 44/71/71 10/39/71 39/38/71
f 58/83/72 60/85/72 31/67/72
f 58/83/73 59/84/73 60/85/73
f 59/84/74 30/72/74 60/85/74
f 37/34/75 45/66/75 6/35/75
f 37/34/76 58/83/76 45/66/76
f 58/83/77 31/67/77 45/66/77
f 57/82/78 42/49/78 36/53/78
f 57/82/79 47/57/79 42/49/79
f 47/57/80 7/50/80 42/49/80
f 55/80/81 57/82/81 36/53/81
f 55/80/82 56/81/82 57/82/82
f 56/81/83 35/58/83 57/82/83
f 40/45/84 48/52/84 11/46/84
f 40/45/85 55/80/85 48/52/85
f 55/80/86 36/53/86 48/52/86
f 46/24/87 56/81/87 34/62/87
f 46/24/88 41/23/88 56/81/88
f 41/23/89 35/58/89 56/81/89
f 43/15/90 59/84/90 29/76/90
f 43/15/91 38/14/91 59/84/91
f 38/14/92 30/72/92 59/84/92
f 16/33/93 29/76/93 37/34/93
f 24/36/94 30/72/94 38/14/94
f 20/37/95 31/67/95 39/38/95
f 23/44/96 34/62/96 40/45/96
f 15/47/97 35/58/97 41/23/97
f 19/48/98 36/53/98 42/49/98
f 21/51/99 11/46/99 48/52/99
f 36/53/100 19/48/100 49/54/100
f 9/55/101 21/51/101 49/54/101
f 17/56/102 7/50/102 47/57/102
f 35/58/103 15/47/103 50/59/103
f 5/60/104 17/56/104 50/59/104
f 13/61/105 3/22/105 46/24/105
f 34/62/106 23/44/106 51/63/106
f 1/64/107 13/61/107 51/63/107
f 18/65/108 6/35/108 45/66/108
f 31/67/109 20/37/109 52/68/109
f 8/69/110 18/65/110 52/68/110
f 22/70/111 10/39/111 44/71/111
f 30/72/112 24/36/112 53/73/112
f 12/74/113 22/70/113 53/73/113
f 14/75/114 2/13/114 43/15/114
f 29/76/115 16/33/115 54/77/115
f 4/78/116 14/75/116 54/77/116
