# Blender 4.3.0
# www.blender.org
o Cylinder
v 0.000000 -2.442164 -24.924870
v 0.000000 2.435381 -24.916059
v 21.803368 -2.635765 -12.588181
v 21.602997 2.457655 -12.472496
v 21.768402 -2.604682 12.567992
v 21.717440 2.559382 12.538569
v 0.000000 -2.525598 25.033253
v 0.000000 2.624856 25.162193
v -21.627762 -2.479669 12.486794
v -21.728884 2.569556 12.545177
v -21.516199 -2.380500 -12.422383
v -21.672264 2.519226 -12.512487
v 10.850913 -2.551192 -18.794334
v 10.908753 2.666871 -18.894516
v 21.595325 -2.444691 0.000000
v 21.790354 2.639718 0.000000
v 10.879516 -2.608395 18.843874
v 10.827347 2.504058 18.753515
v -10.766335 -2.382035 18.647839
v -10.805230 2.459826 18.715208
v -21.526690 -2.376057 0.000000
v -21.683720 2.533085 0.000000
v -10.835749 -2.520863 -18.768068
v -10.881306 2.611976 -18.846975
v 10.892097 0.000000 -18.865667
v 21.880518 0.000000 0.000000
v 10.838530 0.000000 18.772884
v -10.934723 0.000000 18.939495
v 10.825317 2.367832 -6.250000
v -10.825317 2.397177 -6.250000
v 0.000000 2.281530 12.500000
v -21.519957 0.000000 0.000000
v -10.837059 0.000000 -18.770338
v 0.000000 -2.310122 -12.500000
v 10.825317 -2.440889 6.250000
v -10.825317 -2.677986 6.250000
v 16.237976 2.729015 3.125000
v -5.412659 2.383349 -15.625000
v -10.825317 2.541140 12.500000
v -10.825317 -2.668884 -12.500000
v 16.237976 -2.648942 -3.125000
v -5.412659 -2.507432 15.625000
v 5.412659 2.338378 -15.625000
v -16.237976 2.749410 3.125000
v 10.825317 2.502851 12.500000
v 10.825317 -2.293597 -12.500000
v 5.412659 -2.492008 15.625000
v -16.237976 -2.737259 -3.125000
v -16.237976 -2.371789 9.375000
v 16.237976 -2.478247 9.375000
v 0.000000 -2.654797 -18.750000
v 0.000000 2.681411 18.750000
v -16.237976 2.742746 -9.375000
v 16.237976 2.734161 -9.375000
v -5.412659 -2.451434 -3.125000
v 5.412659 -2.390158 -3.125000
v 0.000000 -2.507188 6.250000
v 5.412659 2.585375 3.125000
v 0.000000 2.565841 -6.250000
v -5.412659 2.677271 3.125000
vn 0.4926 -0.0323 -0.8697
vn 0.9932 -0.1159 -0.0152
vn 0.4944 0.0314 0.8687
vn -0.4876 -0.1400 0.8618
vn 0.0042 1.0000 0.0080
vn -1.0000 0.0028 -0.0008
vn -0.4940 -0.0010 -0.8695
vn -0.0313 -0.9993 -0.0198
vn 0.5146 -0.0125 -0.8573
vn 0.9994 0.0341 0.0060
vn 0.5094 0.0089 0.8605
vn -0.4883 0.1047 0.8664
vn 0.0197 0.9998 0.0065
vn 0.0286 0.9993 0.0223
vn 0.0027 0.9999 0.0131
vn -0.9979 -0.0645 -0.0008
vn -0.4872 -0.0339 -0.8726
vn -0.0271 -0.9994 -0.0236
vn 0.0290 -0.9995 0.0156
vn -0.0185 -0.9998 0.0087
vn -0.0481 -0.9983 0.0341
vn -0.0424 -0.9988 0.0244
vn 0.0145 -0.9998 -0.0096
vn -0.0135 -0.9998 -0.0132
vn 0.0008 -0.9999 -0.0133
vn -0.0156 -0.9998 -0.0125
vn 0.0015 -0.9992 0.0409
vn 0.0098 -0.9984 0.0551
vn -0.0123 -0.9993 -0.0344
vn -0.5057 -0.0339 -0.8620
vn -0.9979 -0.0645 -0.0034
vn -0.0204 0.9998 -0.0002
vn 0.0164 0.9978 -0.0638
vn -0.0205 0.9998 0.0088
vn -0.0136 0.9989 -0.0454
vn 0.0381 0.9983 0.0444
vn -0.0250 0.9993 -0.0279
vn -0.0458 0.9987 0.0233
vn -0.0541 0.9983 0.0233
vn 0.0427 0.9990 -0.0152
vn -0.5107 0.1047 0.8533
vn 0.4956 0.0089 0.8685
vn 0.9993 0.0341 -0.0155
vn 0.4834 -0.0125 -0.8753
vn 0.0331 -0.9994 0.0041
vn 0.0057 -0.9999 -0.0118
vn 0.0061 -1.0000 -0.0019
vn -0.5054 -0.0320 -0.8623
vn -0.9997 -0.0199 -0.0126
vn -0.0133 0.9994 -0.0308
vn 0.0183 0.9998 -0.0126
vn 0.0067 0.9994 -0.0337
vn -0.4905 -0.0218 0.8712
vn 0.4954 0.0098 0.8686
vn 0.9991 0.0396 -0.0144
vn 0.4859 0.0016 -0.8740
vn 0.5054 0.0395 -0.8620
vn 0.9999 0.0099 0.0110
vn 0.5038 -0.0216 0.8635
vn -0.5131 -0.0202 0.8581
vn -0.9995 -0.0317 0.0058
vn -0.4936 0.0016 -0.8697
vn -0.5108 -0.0010 -0.8597
vn -1.0000 0.0028 -0.0081
vn -0.5065 -0.1400 0.8508
vn 0.4991 0.0314 0.8660
vn 0.9931 -0.1159 0.0182
vn 0.4914 -0.0323 -0.8703
vn 0.0240 0.9993 0.0283
vn 0.0067 0.9998 0.0184
vn 0.0027 0.9998 0.0207
vn 0.0085 0.9993 0.0373
vn 0.0085 0.9999 -0.0070
vn -0.0156 0.9997 -0.0209
vn -0.0053 0.9998 0.0211
vn -0.0133 0.9998 0.0165
vn -0.0204 0.9996 0.0206
vn 0.0158 -0.9998 0.0091
vn 0.0014 -1.0000 0.0008
vn 0.0014 -1.0000 -0.0028
vn 0.0158 -0.9998 -0.0151
vn 0.0057 -0.9999 -0.0092
vn 0.0061 -0.9999 -0.0089
vn -0.0271 -0.9994 -0.0229
vn 0.0264 -0.9996 0.0079
vn 0.0264 -0.9996 -0.0089
vn 0.0015 -1.0000 -0.0094
vn -0.0239 -0.9994 -0.0241
vn -0.0239 -0.9997 0.0084
vn 0.0183 0.9997 -0.0137
vn 0.0042 0.9998 -0.0219
vn -0.0156 0.9998 -0.0105
vn -0.0042 0.9993 -0.0361
vn 0.0318 0.9994 0.0169
vn 0.0240 0.9996 0.0130
vn 0.0331 -0.9992 -0.0237
vn 0.0188 -0.9993 0.0330
vn -0.0099 -0.9997 0.0239
vn -0.0680 -0.9977 0.0003
vn -0.0426 -0.9988 0.0240
vn 0.0153 -0.9998 -0.0082
vn -0.0143 -0.9998 -0.0118
vn -0.0036 -1.0000 -0.0057
vn -0.0112 -0.9997 -0.0201
vn -0.0308 -0.9987 0.0407
vn -0.0124 -0.9984 0.0551
vn 0.0094 -0.9994 -0.0344
vn -0.0052 1.0000 -0.0002
vn -0.0203 0.9978 -0.0638
vn 0.0164 0.9998 0.0088
vn -0.0379 0.9993 -0.0030
vn 0.0541 0.9984 0.0168
vn -0.0404 0.9992 -0.0011
vn -0.0397 0.9986 0.0336
vn -0.0460 0.9982 0.0373
vn 0.0358 0.9990 -0.0271
vt 0.916667 0.750000
vt 0.833333 0.500000
vt 0.916667 0.500000
vt 0.750000 0.750000
vt 0.666667 0.500000
vt 0.750000 0.500000
vt 0.583333 0.750000
vt 0.500000 0.500000
vt 0.583333 0.500000
vt 0.416667 0.750000
vt 0.333333 0.500000
vt 0.416667 0.500000
vt 0.250000 0.490000
vt 0.198038 0.400000
vt 0.301962 0.400000
vt 0.250000 0.750000
vt 0.166667 0.500000
vt 0.250000 0.500000
vt 0.083333 0.750000
vt -0.000000 0.500000
vt 0.083333 0.500000
vt 0.957846 0.370000
vt 0.905885 0.280000
vt 0.853923 0.370000
vt 0.833333 1.000000
vt 0.916667 1.000000
vt 0.666667 1.000000
vt 0.750000 1.000000
vt 0.500000 1.000000
vt 0.583333 1.000000
vt 0.333333 1.000000
vt 0.416667 1.000000
vt 0.457846 0.250000
vt 0.405885 0.220000
vt 0.457846 0.130000
vt 0.146077 0.430000
vt 0.146077 0.070000
vt 0.146077 0.130000
vt 0.042154 0.130000
vt 0.166667 1.000000
vt 0.250000 1.000000
vt -0.000000 1.000000
vt 0.083333 1.000000
vt 0.646077 0.430000
vt 0.646077 0.370000
vt 0.542154 0.370000
vt 0.957846 0.250000
vt 0.646077 0.070000
vt 0.698038 0.100000
vt 0.750000 0.010000
vt 0.542154 0.250000
vt 0.594115 0.280000
vt 0.646077 0.190000
vt 0.594115 0.160000
vt 0.542154 0.130000
vt 0.853923 0.070000
vt 0.801962 0.100000
vt 0.853923 0.190000
vt 0.905885 0.160000
vt 0.957846 0.130000
vt 0.853923 0.430000
vt 0.750000 0.370000
vt 0.750000 0.430000
vt 0.750000 0.490000
vt 0.353923 0.070000
vt 0.353923 0.130000
vt 0.250000 0.130000
vt 0.250000 0.070000
vt 0.250000 0.010000
vt 0.042154 0.250000
vt 0.094115 0.220000
vt 0.146077 0.310000
vt 0.094115 0.340000
vt 0.042154 0.370000
vt 0.353923 0.430000
vt 0.353923 0.310000
vt 0.405885 0.340000
vt 0.457846 0.370000
vt 1.000000 1.000000
vt 0.698038 0.280000
vt 0.801962 0.280000
vt 0.750000 0.190000
vt 0.301962 0.220000
vt 0.250000 0.310000
vt 0.198038 0.220000
vt 1.000000 0.500000
s 0
f 25/1/1 3/2/1 13/3/1
f 26/4/2 5/5/2 15/6/2
f 27/7/3 7/8/3 17/9/3
f 28/10/4 9/11/4 19/12/4
f 2/13/5 38/14/5 43/15/5
f 32/16/6 11/17/6 21/18/6
f 33/19/7 1/20/7 23/21/7
f 3/22/8 41/23/8 46/24/8
f 4/25/9 25/1/9 14/26/9
f 6/27/10 26/4/10 16/28/10
f 8/29/11 27/7/11 18/30/11
f 10/31/12 28/10/12 20/32/12
f 16/33/13 37/34/13 6/35/13
f 24/36/14 38/14/14 2/13/14
f 20/37/15 39/38/15 10/39/15
f 12/40/16 32/16/16 22/41/16
f 2/42/17 33/19/17 24/43/17
f 23/44/18 40/45/18 11/46/18
f 15/47/19 41/23/19 3/22/19
f 19/48/20 42/49/20 7/50/20
f 21/51/21 48/52/21 36/53/21
f 36/53/22 49/54/22 21/51/22
f 9/55/23 49/54/23 19/48/23
f 17/56/24 47/57/24 35/58/24
f 35/58/25 50/59/25 17/56/25
f 5/60/26 50/59/26 15/47/26
f 13/61/27 46/24/27 34/62/27
f 34/62/28 51/63/28 13/61/28
f 1/64/29 51/63/29 23/44/29
f 12/40/30 24/43/30 33/19/30
f 10/31/31 22/41/31 32/16/31
f 18/65/32 45/66/32 31/67/32
f 31/67/33 52/68/33 18/65/33
f 8/69/34 52/68/34 20/37/34
f 22/70/35 44/71/35 30/72/35
f 30/72/36 53/73/36 22/70/36
f 12/74/37 53/73/37 24/36/37
f 14/75/38 43/15/38 29/76/38
f 29/76/39 54/77/39 14/75/39
f 4/78/40 54/77/40 16/33/40
f 8/29/41 20/32/41 28/10/41
f 6/27/42 18/30/42 27/7/42
f 4/25/43 16/28/43 26/4/43
f 2/79/44 14/26/44 25/1/44
f 34/62/45 55/80/45 40/45/45
f 34/62/46 56/81/46 55/80/46
f 35/58/47 47/57/47 57/82/47
f 33/19/48 11/17/48 12/40/48
f 32/16/49 9/11/49 10/31/49
f 29/76/50 58/83/50 37/34/50
f 29/76/51 59/84/51 58/83/51
f 30/72/52 44/71/52 60/85/52
f 28/10/53 7/8/53 8/29/53
f 27/7/54 5/5/54 6/27/54
f 26/4/55 3/2/55 4/25/55
f 25/1/56 1/86/56 2/79/56
f 4/25/57 3/2/57 25/1/57
f 6/27/58 5/5/58 26/4/58
f 8/29/59 7/8/59 27/7/59
f 10/31/60 9/11/60 28/10/60
f 12/40/61 11/17/61 32/16/61
f 2/42/62 1/20/62 33/19/62
f 33/19/63 23/21/63 11/17/63
f 32/16/64 21/18/64 9/11/64
f 28/10/65 19/12/65 7/8/65
f 27/7/66 17/9/66 5/5/66
f 26/4/67 15/6/67 3/2/67
f 25/1/68 13/3/68 1/86/68
f 60/85/69 39/38/69 31/67/69
f 60/85/70 44/71/70 39/38/70
f 44/71/71 10/39/71 39/38/71
f 58/83/72 60/85/72 31/67/72
f 58/83/73 59/84/73 60/85/73
f 59/84/74 30/72/74 60/85/74
f 37/34/75 45/66/75 6/35/75
f 37/34/76 58/83/76 45/66/76
f 58/83/77 31/67/77 45/66/77
f 57/82/78 42/49/78 36/53/78
f 57/82/79 47/57/79 42/49/79
f 47/57/80 7/50/80 42/49/80
f 55/80/81 57/82/81 36/53/81
f 55/80/82 56/81/82 57/82/82
f 56/81/83 35/58/83 57/82/83
f 40/45/84 48/52/84 11/46/84
f 40/45/85 55/80/85 48/52/85
f 55/80/86 36/53/86 48/52/86
f 46/24/87 56/81/87 34/62/87
f 46/24/88 41/23/88 56/81/88
f 41/23/89 35/58/89 56/81/89
f 43/15/90 59/84/90 29/76/90
f 43/15/91 38/14/91 59/84/91
f 38/14/92 30/72/92 59/84/92
f 16/33/93 29/76/93 37/34/93
f 24/36/94 30/72/94 38/14/94
f 20/37/95 31/67/95 39/38/95
f 23/44/96 34/62/96 40/45/96
f 15/47/97 35/58/97 41/23/97
f 19/48/98 36/53/98 42/49/98
f 21/51/99 11/46/99 48/52/99
f 36/53/100 19/48/100 49/54/100
f 9/55/101 21/51/101 49/54/101
f 17/56/102 7/50/102 47/57/102
f 35/58/103 15/47/103 50/59/103
f 5/60/104 17/56/104 50/59/104
f 13/61/105 3/22/105 46/24/105
f 34/62/106 23/44/106 51/63/106
f 1/64/107 13/61/107 51/63/107
f 18/65/108 6/35/108 45/66/108
f 31/67/109 20/37/109 52/68/109
f 8/69/110 18/65/110 52/68/110
f 22/70/111 10/39/111 44/71/111
f 30/72/112 24/36/112 53/73/112
f 12/74/113 22/70/113 53/73/113
f 14/75/114 2/13/114 43/15/114
f 29/76/115 16/33/115 54/77/115
f 4/78/116 14/75/116 54/77/116
