# Blender 4.3.0
# www.blender.org
o Cylinder
v 0.000000 -2.544575 -25.057905
v 0.000000 2.520723 -25.026920
v 21.758038 -2.595470 -12.562009
v 21.659954 2.508284 -12.505381
v 21.487873 -2.355322 12.406030
v 21.548111 2.408866 12.440807
v 0.000000 -2.351139 24.806627
v 0.000000 2.593141 25.120993
v -21.708214 -2.551182 12.533243
v -21.763191 2.600051 12.564984
v -21.577623 -2.435100 -12.457847
v -21.763628 2.600439 -12.565237
v 10.793839 -2.437046 -18.695480
v 10.793600 2.436567 -18.695065
v 21.572071 -2.421437 0.000000
v 21.518475 2.367841 0.000000
v 10.830983 -2.511331 18.759813
v 10.865630 2.580624 18.819824
v -10.784726 -2.418819 18.679695
v -10.910975 2.671314 18.898363
v -21.497412 -2.346778 0.000000
v -21.695421 2.544786 0.000000
v -10.834372 -2.518107 -18.765682
v -10.772322 2.394009 -18.658209
v 10.906428 0.000000 -18.890488
v 21.578074 0.000000 0.000000
v 10.769824 0.000000 18.653883
v -10.937940 0.000000 18.945068
v 10.825317 2.452298 -6.250000
v -10.825317 2.694010 -6.250000
v 0.000000 2.559767 12.500000
v -21.511223 0.000000 0.000000
v -10.855103 0.000000 -18.801590
v 0.000000 -2.458354 -12.500000
v 10.825317 -2.394347 6.250000
v -10.825317 -2.410521 6.250000
v 16.237976 2.453864 3.125000
v -5.412659 2.593934 -15.625000
v -10.825317 2.586451 12.500000
v -10.825317 -2.582479 -12.500000
v 16.237976 -2.433321 -3.125000
v -5.412659 -2.552866 15.625000
v 5.412659 2.622713 -15.625000
v -16.237976 2.699039 3.125000
v 10.825317 2.660164 12.500000
v 10.825317 -2.677107 -12.500000
v 5.412659 -2.259855 15.625000
v -16.237976 -2.490601 -3.125000
v -16.237976 -2.603385 9.375000
v 16.237976 -2.454983 9.375000
v 0.000000 -2.540329 -18.750000
v 0.000000 2.494139 18.750000
v -16.237976 2.415974 -9.375000
v 16.237976 2.492586 -9.375000
v -5.412659 -2.631326 -3.125000
v 5.412659 -2.721587 -3.125000
v 0.000000 -2.258353 6.250000
v 5.412659 2.591035 3.125000
v 0.000000 2.329077 -6.250000
v -5.412659 2.495267 3.125000
vn 0.4851 -0.0920 -0.8696
vn 1.0000 -0.0025 0.0068
vn 0.4874 0.0486 0.8718
vn -0.4853 -0.1257 0.8652
vn -0.0027 1.0000 -0.0093
vn -1.0000 -0.0059 0.0065
vn -0.5022 -0.0165 -0.8646
vn 0.0076 -0.9997 0.0216
vn 0.4924 0.0922 -0.8655
vn 0.9997 0.0252 -0.0025
vn 0.5002 -0.0740 0.8627
vn -0.5040 0.0202 0.8634
vn 0.0143 0.9999 -0.0033
vn -0.0248 0.9994 -0.0221
vn 0.0012 0.9999 -0.0132
vn -0.9974 -0.0722 0.0051
vn -0.5083 0.0690 -0.8584
vn -0.0137 -0.9999 -0.0103
vn -0.0058 -0.9999 0.0138
vn -0.0093 -0.9996 0.0275
vn -0.0166 -0.9997 0.0181
vn 0.0150 -0.9992 -0.0357
vn 0.0014 -0.9998 0.0190
vn -0.0410 -0.9991 -0.0093
vn -0.0058 -0.9999 -0.0093
vn 0.0158 -0.9999 0.0054
vn -0.0202 -0.9991 -0.0386
vn 0.0095 -0.9999 0.0131
vn -0.0021 -1.0000 0.0007
vn -0.4827 0.0690 -0.8731
vn -0.9974 -0.0722 -0.0051
vn -0.0093 0.9999 0.0126
vn -0.0080 0.9999 0.0105
vn 0.0160 0.9998 -0.0155
vn -0.0210 0.9997 -0.0127
vn -0.0325 0.9989 -0.0326
vn 0.0259 0.9996 0.0129
vn 0.0338 0.9994 -0.0013
vn -0.0082 1.0000 -0.0012
vn 0.0036 0.9999 0.0113
vn -0.4952 0.0202 0.8685
vn 0.5104 -0.0740 0.8567
vn 0.9996 0.0252 0.0116
vn 0.5044 0.0922 -0.8585
vn 0.0115 -0.9999 -0.0118
vn -0.0083 -0.9997 -0.0233
vn -0.0126 -0.9999 0.0071
vn -0.5026 -0.0370 -0.8637
vn -0.9998 -0.0106 -0.0179
vn 0.0127 0.9999 -0.0075
vn -0.0114 0.9997 -0.0214
vn 0.0188 0.9998 0.0103
vn -0.4809 -0.0556 0.8750
vn 0.5015 -0.0127 0.8651
vn 0.9998 0.0191 0.0104
vn 0.4913 0.0053 -0.8710
vn 0.5071 0.0193 -0.8617
vn 0.9999 -0.0127 0.0049
vn 0.5043 -0.0548 0.8618
vn -0.5096 -0.0107 0.8603
vn -0.9993 -0.0366 0.0125
vn -0.4984 0.0053 -0.8669
vn -0.5063 -0.0165 -0.8622
vn -0.9998 -0.0059 -0.0169
vn -0.4895 -0.1257 0.8629
vn 0.5110 0.0486 0.8582
vn 0.9999 -0.0025 0.0148
vn 0.5063 -0.0920 -0.8574
vn 0.0025 1.0000 -0.0083
vn 0.0188 0.9998 0.0011
vn 0.0013 0.9999 0.0113
vn -0.0088 1.0000 -0.0018
vn -0.0088 0.9997 -0.0228
vn 0.0337 0.9994 0.0017
vn 0.0234 0.9997 -0.0085
vn 0.0127 0.9998 -0.0147
vn -0.0093 1.0000 -0.0020
vn 0.0141 -0.9996 -0.0233
vn 0.0271 -0.9995 -0.0158
vn 0.0271 -0.9996 0.0060
vn 0.0140 -0.9994 0.0316
vn -0.0083 -0.9990 0.0446
vn -0.0126 -0.9990 0.0421
vn -0.0137 -0.9999 0.0019
vn -0.0130 -0.9999 0.0023
vn -0.0130 -0.9998 0.0160
vn -0.0202 -0.9997 -0.0164
vn 0.0266 -0.9996 0.0106
vn 0.0266 -0.9995 0.0195
vn -0.0114 0.9996 0.0247
vn -0.0027 0.9996 0.0298
vn 0.0337 0.9994 0.0088
vn 0.0121 0.9999 -0.0071
vn -0.0235 0.9994 -0.0243
vn 0.0025 0.9999 -0.0132
vn 0.0115 -0.9999 -0.0103
vn -0.0002 -1.0000 0.0041
vn -0.0253 -0.9997 -0.0006
vn -0.0230 -0.9997 0.0072
vn 0.0352 -0.9994 -0.0008
vn -0.0191 -0.9997 -0.0166
vn -0.0303 -0.9992 -0.0278
vn -0.0069 -0.9999 -0.0075
vn 0.0168 -0.9999 0.0037
vn 0.0072 -0.9992 -0.0388
vn -0.0021 -0.9999 0.0131
vn 0.0096 -1.0000 0.0007
vn 0.0235 0.9996 0.0124
vn 0.0164 0.9998 0.0105
vn -0.0079 0.9998 -0.0155
vn -0.0257 0.9997 -0.0045
vn -0.0373 0.9990 -0.0243
vn 0.0309 0.9995 0.0043
vn 0.0214 0.9995 -0.0231
vn 0.0002 0.9999 0.0132
vn -0.0048 1.0000 -0.0032
vt 0.916667 0.750000
vt 0.833333 0.500000
vt 0.916667 0.500000
vt 0.750000 0.750000
vt 0.666667 0.500000
vt 0.750000 0.500000
vt 0.583333 0.750000
vt 0.500000 0.500000
vt 0.583333 0.500000
vt 0.416667 0.750000
vt 0.333333 0.500000
vt 0.416667 0.500000
vt 0.250000 0.490000
vt 0.198038 0.400000
vt 0.301962 0.400000
vt 0.250000 0.750000
vt 0.166667 0.500000
vt 0.250000 0.500000
vt 0.083333 0.750000
vt -0.000000 0.500000
vt 0.083333 0.500000
vt 0.957846 0.370000
vt 0.905885 0.280000
vt 0.853923 0.370000
vt 0.833333 1.000000
vt 0.916667 1.000000
vt 0.666667 1.000000
vt 0.750000 1.000000
vt 0.500000 1.000000
vt 0.583333 1.000000
vt 0.333333 1.000000
vt 0.416667 1.000000
vt 0.457846 0.250000
vt 0.405885 0.220000
vt 0.457846 0.130000
vt 0.146077 0.430000
vt 0.146077 0.070000
vt 0.146077 0.130000
vt 0.042154 0.130000
vt 0.166667 1.000000
vt 0.250000 1.000000
vt -0.000000 1.000000
vt 0.083333 1.000000
vt 0.646077 0.430000
vt 0.646077 0.370000
vt 0.542154 0.370000
vt 0.957846 0.250000
vt 0.646077 0.070000
vt 0.698038 0.100000
vt 0.750000 0.010000
vt 0.542154 0.250000
vt 0.594115 0.280000
vt 0.646077 0.190000
vt 0.594115 0.160000
vt 0.542154 0.130000
vt 0.853923 0.070000
vt 0.801962 0.100000
vt 0.853923 0.190000
vt 0.905885 0.160000
vt 0.957846 0.130000
vt 0.853923 0.430000
vt 0.750000 0.370000
vt 0.750000 0.430000
vt 0.750000 0.490000
vt 0.353923 0.070000
vt 0.353923 0.130000
vt 0.250000 0.130000
vt 0.250000 0.070000
vt 0.250000 0.010000
vt 0.042154 0.250000
vt 0.094115 0.220000
vt 0.146077 0.310000
vt 0.094115 0.340000
vt 0.042154 0.370000
vt 0.353923 0.430000
vt 0.353923 0.310000
vt 0.405885 0.340000
vt 0.457846 0.370000
vt 1.000000 1.000000
vt 0.698038 0.280000
vt 0.801962 0.280000
vt 0.750000 0.190000
vt 0.301962 0.220000
vt 0.250000 0.310000
vt 0.198038 0.220000
vt 1.000000 0.500000
s 0
f 25/1/1 3/2/1 13/3/1
f 26/4/2 5/5/2 15/6/2
f 27/7/3 7/8/3 17/9/3
f 28/10/4 9/11/4 19/12/4
f 2/13/5 38/14/5 43/15/5
f 32/16/6 11/17/6 21/18/6
f 33/19/7 1/20/7 23/21/7
f 3/22/8 41/23/8 46/24/8
f 4/25/9 25/1/9 14/26/9
f 6/27/10 26/4/10 16/28/10
f 8/29/11 27/7/11 18/30/11
f 10/31/12 28/10/12 20/32/12
f 16/33/13 37/34/13 6/35/13
f 24/36/14 38/14/14 2/13/14
f 20/37/15 39/38/15 10/39/15
f 12/40/16 32/16/16 22/41/16
f 2/42/17 33/19/17 24/43/17
f 23/44/18 40/45/18 11/46/18
f 15/47/19 41/23/19 3/22/19
f 19/48/20 42/49/20 7/50/20
f 21/51/21 48/52/21 36/53/21
f 36/53/22 49/54/22 21/51/22
f 9/55/23 49/54/23 19/48/23
f 17/56/24 47/57/24 35/58/24
f 35/58/25 50/59/25 17/56/25
f 5/60/26 50/59/26 15/47/26
f 13/61/27 46/24/27 34/62/27
f 34/62/28 51/63/28 13/61/28
f 1/64/29 51/63/29 23/44/29
f 12/40/30 24/43/30 33/19/30
f 10/31/31 22/41/31 32/16/31
f 18/65/32 45/66/32 31/67/32
f 31/67/33 52/68/33 18/65/33
f 8/69/34 52/68/34 20/37/34
f 22/70/35 44/71/35 30/72/35
f 30/72/36 53/73/36 22/70/36
f 12/74/37 53/73/37 24/36/37
f 14/75/38 43/15/38 29/76/38
f 29/76/39 54/77/39 14/75/39
f 4/78/40 54/77/40 16/33/40
f 8/29/41 20/32/41 28/10/41
f 6/27/42 18/30/42 27/7/42
f 4/25/43 16/28/43 26/4/43
f 2/79/44 14/26/44 25/1/44
f 34/62/45 55/80/45 40/45/45
f 34/62/46 56/81/46 55/80/46
f 35/58/47 47/57/47 57/82/47
f 33/19/48 11/17/48 12/40/48
f 32/16/49 9/11/49 10/31/49
f 29/76/50 58/83/50 37/34/50
f 29/76/51 59/84/51 58/83/51
f 30/72/52 44/71/52 60/85/52
f 28/10/53 7/8/53 8/29/53
f 27/7/54 5/5/54 6/27/54
f 26/4/55 3/2/55 4/25/55
f 25/1/56 1/86/56 2/79/56
f 4/25/57 3/2/57 25/1/57
f 6/27/58 5/5/58 26/4/58
f 8/29/59 7/8/59 27/7/59
f 10/31/60 9/11/60 28/10/60
f 12/40/61 11/17/61 32/16/61
f 2/42/62 1/20/62 33/19/62
f 33/19/63 23/21/63 11/17/63
f 32/16/64 21/18/64 9/11/64
f 28/10/65 19/12/65 7/8/65
f 27/7/66 17/9/66 5/5/66
f 26/4/67 15/6/67 3/2/67
f 25/1/68 13/3/68 1/86/68
f 60/85/69 39/38/69 31/67/69
f 60/85/70 44/71/70 39/38/70
f 44/71/71 10/39/71 39/38/71
f 58/83/72 60/85/72 31/67/72
f 58/83/73 59/84/73 60/85/73
f 59/84/74 30/72/74 60/85/74
f 37/34/75 45/66/75 6/35/75
f 37/34/76 58/83/76 45/66/76
f 58/83/77 31/67/77 45/66/77
f 57/82/78 42/49/78 36/53/78
f 57/82/79 47/57/79 42/49/79
f 47/57/80 7/50/80 42/49/80
f 55/80/81 57/82/81 36/53/81
f 55/80/82 56/81/82 57/82/82
f 56/81/83 35/58/83 57/82/83
f 40/45/84 48/52/84 11/46/84
f 40/45/85 55/80/85 48/52/85
f 55/80/86 36/53/86 48/52/86
f 46/24/87 56/81/87 34/62/87
f 46/24/88 41/23/88 56/81/88
f 41/23/89 35/58/89 56/81/89
f 43/15/90 59/84/90 29/76/90
f 43/15/91 38/14/91 59/84/91
f 38/14/92 30/72/92 59/84/92
f 16/33/93 29/76/93 37/34/93
f 24/36/94 30/72/94 38/14/94
f 20/37/95 31/67/95 39/38/95
f 23/44/96 34/62/96 40/45/96
f 15/47/97 35/58/97 41/23/97
f 19/48/98 36/53/98 42/49/98
f 21/51/99 11/46/99 48/52/99
f 36/53/100 19/48/100 49/54/100
f 9/55/101 21/51/101 49/54/101
f 17/56/102 7/50/102 47/57/102
f 35/58/103 15/47/103 50/59/103
f 5/60/104 17/56/104 50/59/104
f 13/61/105 3/22/105 46/24/105
f 34/62/106 23/44/106 51/63/106
f 1/64/107 13/61/107 51/63/107
f 18/65/108 6/35/108 45/66/108
f 31/67/109 20/37/109 52/68/109
f 8/69/110 18/65/110 52/68/110
f 22/70/111 10/39/111 44/71/111
f 30/72/112 24/36/112 53/73/112
f 12/74/113 22/70/113 53/73/113
f 14/75/114 2/13/114 43/15/114
f 29/76/115 16/33/115 54/77/115
f 4/78/116 14/75/116 54/77/116
