# Blender 4.3.0
# www.blender.org
o Cylinder
v 0.000000 -2.518591 -25.024151
v 0.000000 2.578429 -25.101881
v 21.775318 -2.610831 -12.571986
v 21.715563 2.557714 -12.537486
v 21.534058 -2.396374 12.432693
v 21.691980 2.536752 12.523871
v 0.000000 -2.355113 24.811789
v 0.000000 2.422070 24.898766
v -21.694557 -2.539043 12.525359
v -21.668858 2.516198 12.510521
v -21.727747 -2.568545 -12.544520
v -21.794493 2.627874 -12.583056
v 10.846674 -2.542713 -18.786991
v 10.759072 2.367511 -18.635260
v 21.530844 -2.380211 0.000000
v 21.823807 2.673169 0.000000
v 10.739102 -2.327572 18.600672
v 10.777921 2.405209 18.667908
v -10.801997 -2.453361 18.709608
v -10.888592 2.626548 18.859594
v -21.522081 -2.371448 0.000000
v -21.762398 2.611762 0.000000
v -10.836342 -2.522048 -18.769094
v -10.744737 2.338840 -18.610430
v 10.778493 0.000000 -18.668898
v 21.670942 0.000000 0.000000
v 10.716749 0.000000 18.561954
v -10.792173 0.000000 18.692593
v 10.825317 2.287886 -6.250000
v -10.825317 2.525630 -6.250000
v 0.000000 2.408854 12.500000
v -21.872122 0.000000 0.000000
v -10.938477 0.000000 -18.945997
v 0.000000 -2.613259 -12.500000
v 10.825317 -2.331118 6.250000
v -10.825317 -2.300719 6.250000
v 16.237976 2.331571 3.125000
v -5.412659 2.300797 -15.625000
v -10.825317 2.457224 12.500000
v -10.825317 -2.385419 -12.500000
v 16.237976 -2.736093 -3.125000
v -5.412659 -2.417396 15.625000
v 5.412659 2.348958 -15.625000
v -16.237976 2.312511 3.125000
v 10.825317 2.349040 12.500000
v 10.825317 -2.714527 -12.500000
v 5.412659 -2.261383 15.625000
v -16.237976 -2.438189 -3.125000
v -16.237976 -2.655113 9.375000
v 16.237976 -2.516546 9.375000
v 0.000000 -2.396589 -18.750000
v 0.000000 2.344423 18.750000
v -16.237976 2.701461 -9.375000
v 16.237976 2.275806 -9.375000
v -5.412659 -2.458301 -3.125000
v 5.412659 -2.512914 -3.125000
v 0.000000 -2.681988 6.250000
v 5.412659 2.253650 3.125000
v 0.000000 2.382850 -6.250000
v -5.412659 2.363352 3.125000
vn 0.4939 0.0536 -0.8679
vn 0.9983 -0.0588 -0.0003
vn 0.5005 0.0192 0.8655
vn -0.4938 0.0080 0.8696
vn -0.0044 0.9996 0.0267
vn -0.9891 -0.1460 0.0185
vn -0.4983 -0.0807 -0.8633
vn 0.0094 -0.9999 -0.0077
vn 0.4860 0.0164 -0.8738
vn 0.9983 -0.0571 0.0099
vn 0.4998 -0.0508 0.8647
vn -0.5056 -0.0732 0.8597
vn -0.0553 0.9984 0.0103
vn -0.0070 0.9997 0.0253
vn 0.0054 0.9996 -0.0266
vn -0.9991 0.0420 0.0026
vn -0.5128 0.1634 -0.8428
vn 0.0167 -0.9996 0.0218
vn 0.0557 -0.9983 0.0194
vn 0.0079 -1.0000 0.0021
vn -0.0030 -0.9999 0.0164
vn 0.0361 -0.9981 -0.0506
vn -0.0066 -0.9997 0.0254
vn -0.0125 -0.9999 0.0002
vn -0.0343 -0.9994 -0.0000
vn 0.0234 -0.9997 -0.0013
vn -0.0094 -0.9996 -0.0273
vn -0.0136 -0.9993 -0.0346
vn 0.0115 -0.9997 0.0194
vn -0.4691 0.1634 -0.8679
vn -0.9991 0.0420 0.0078
vn 0.0055 0.9999 -0.0091
vn -0.0056 0.9999 0.0103
vn 0.0258 0.9996 -0.0126
vn 0.0311 0.9987 0.0407
vn 0.0201 0.9996 0.0214
vn 0.0070 0.9994 -0.0351
vn 0.0001 1.0000 0.0064
vn 0.0059 1.0000 0.0064
vn -0.0564 0.9984 -0.0087
vn -0.4848 -0.0732 0.8716
vn 0.4904 -0.0508 0.8700
vn 0.9983 -0.0571 -0.0081
vn 0.5153 0.0164 -0.8568
vn -0.0210 -0.9998 0.0044
vn -0.0050 -0.9999 0.0136
vn 0.0324 -0.9991 0.0261
vn -0.5079 -0.0129 -0.8613
vn -0.9999 0.0051 0.0152
vn -0.0072 1.0000 -0.0005
vn 0.0088 0.9999 0.0087
vn -0.0047 0.9998 0.0200
vn -0.4958 -0.0158 0.8683
vn 0.4874 -0.0317 0.8726
vn 0.9999 0.0115 0.0059
vn 0.5101 -0.0131 -0.8600
vn 0.4869 0.0115 -0.8734
vn 0.9995 -0.0321 0.0048
vn 0.5063 -0.0157 0.8622
vn -0.4932 0.0051 0.8699
vn -0.9999 -0.0129 -0.0089
vn -0.4880 -0.0133 -0.8727
vn -0.4943 -0.0807 -0.8655
vn -0.9892 -0.1460 -0.0156
vn -0.4919 0.0080 0.8706
vn 0.4961 0.0192 0.8680
vn 0.9981 -0.0587 0.0205
vn 0.4979 0.0536 -0.8656
vn 0.0045 1.0000 -0.0074
vn -0.0047 0.9999 -0.0127
vn 0.0054 0.9998 -0.0186
vn 0.0101 0.9999 -0.0107
vn 0.0101 0.9999 0.0079
vn 0.0132 0.9999 0.0097
vn -0.0172 0.9998 -0.0118
vn -0.0072 1.0000 -0.0060
vn 0.0055 0.9999 -0.0134
vn -0.0352 -0.9993 0.0079
vn 0.0144 -0.9992 0.0365
vn 0.0144 -0.9999 -0.0017
vn -0.0352 -0.9994 -0.0035
vn -0.0050 -0.9998 -0.0209
vn 0.0324 -0.9995 0.0007
vn 0.0168 -0.9999 0.0041
vn -0.0019 -1.0000 -0.0067
vn -0.0019 -0.9999 0.0157
vn -0.0094 -0.9998 0.0161
vn -0.0206 -0.9997 0.0096
vn -0.0206 -0.9993 0.0313
vn 0.0088 1.0000 0.0014
vn -0.0044 1.0000 -0.0062
vn 0.0132 0.9998 -0.0164
vn -0.0481 0.9986 0.0231
vn 0.0155 0.9998 -0.0150
vn 0.0045 0.9996 -0.0266
vn -0.0210 -0.9995 0.0218
vn 0.0311 -0.9977 0.0610
vn -0.0003 -0.9999 -0.0122
vn -0.0033 -0.9999 0.0158
vn 0.0582 -0.9982 -0.0123
vn -0.0292 -0.9995 -0.0138
vn -0.0051 -0.9999 -0.0132
vn -0.0195 -0.9995 -0.0255
vn 0.0081 -0.9996 0.0253
vn 0.0093 -0.9996 -0.0273
vn 0.0116 -0.9993 -0.0346
vn -0.0134 -0.9997 0.0194
vn -0.0173 0.9998 -0.0092
vn 0.0260 0.9996 0.0103
vn -0.0057 0.9999 -0.0126
vn 0.0500 0.9987 0.0073
vn 0.0410 0.9990 -0.0148
vn -0.0140 0.9999 0.0013
vn 0.0077 0.9998 0.0198
vn -0.0165 0.9993 -0.0325
vn -0.0341 0.9990 0.0300
vt 0.916667 0.750000
vt 0.833333 0.500000
vt 0.916667 0.500000
vt 0.750000 0.750000
vt 0.666667 0.500000
vt 0.750000 0.500000
vt 0.583333 0.750000
vt 0.500000 0.500000
vt 0.583333 0.500000
vt 0.416667 0.750000
vt 0.333333 0.500000
vt 0.416667 0.500000
vt 0.250000 0.490000
vt 0.198038 0.400000
vt 0.301962 0.400000
vt 0.250000 0.750000
vt 0.166667 0.500000
vt 0.250000 0.500000
vt 0.083333 0.750000
vt -0.000000 0.500000
vt 0.083333 0.500000
vt 0.957846 0.370000
vt 0.905885 0.280000
vt 0.853923 0.370000
vt 0.833333 1.000000
vt 0.916667 1.000000
vt 0.666667 1.000000
vt 0.750000 1.000000
vt 0.500000 1.000000
vt 0.583333 1.000000
vt 0.333333 1.000000
vt 0.416667 1.000000
vt 0.457846 0.250000
vt 0.405885 0.220000
vt 0.457846 0.130000
vt 0.146077 0.430000
vt 0.146077 0.070000
vt 0.146077 0.130000
vt 0.042154 0.130000
vt 0.166667 1.000000
vt 0.250000 1.000000
vt -0.000000 1.000000
vt 0.083333 1.000000
vt 0.646077 0.430000
vt 0.646077 0.370000
vt 0.542154 0.370000
vt 0.957846 0.250000
vt 0.646077 0.070000
vt 0.698038 0.100000
vt 0.750000 0.010000
vt 0.542154 0.250000
vt 0.594115 0.280000
vt 0.646077 0.190000
vt 0.594115 0.160000
vt 0.542154 0.130000
vt 0.853923 0.070000
vt 0.801962 0.100000
vt 0.853923 0.190000
vt 0.905885 0.160000
vt 0.957846 0.130000
vt 0.853923 0.430000
vt 0.750000 0.370000
vt 0.750000 0.430000
vt 0.750000 0.490000
vt 0.353923 0.070000
vt 0.353923 0.130000
vt 0.250000 0.130000
vt 0.250000 0.070000
vt 0.250000 0.010000
vt 0.042154 0.250000
vt 0.094115 0.220000
vt 0.146077 0.310000
vt 0.094115 0.340000
vt 0.042154 0.370000
vt 0.353923 0.430000
vt 0.353923 0.310000
vt 0.405885 0.340000
vt 0.457846 0.370000
vt 1.000000 1.000000
vt 0.698038 0.280000
vt 0.801962 0.280000
vt 0.750000 0.190000
vt 0.301962 0.220000
vt 0.250000 0.310000
vt 0.198038 0.220000
vt 1.000000 0.500000
s 0
f 25/1/1 3/2/1 13/3/1
f 26/4/2 5/5/2 15/6/2
f 27/7/3 7/8/3 17/9/3
f 28/10/4 9/11/4 19/12/4
f 2/13/5 38/14/5 43/15/5
f 32/16/6 11/17/6 21/18/6
f 33/19/7 1/20/7 23/21/7
f 3/22/8 41/23/8 46/24/8
f 4/25/9 25/1/9 14/26/9
f 6/27/10 26/4/10 16/28/10
f 8/29/11 27/7/11 18/30/11
f 10/31/12 28/10/12 20/32/12
f 16/33/13 37/34/13 6/35/13
f 24/36/14 38/14/14 2/13/14
f 20/37/15 39/38/15 10/39/15
f 12/40/16 32/16/16 22/41/16
f 2/42/17 33/19/17 24/43/17
f 23/44/18 40/45/18 11/46/18
f 15/47/19 41/23/19 3/22/19
f 19/48/20 42/49/20 7/50/20
f 21/51/21 48/52/21 36/53/21
f 36/53/22 49/54/22 21/51/22
f 9/55/23 49/54/23 19/48/23
f 17/56/24 47/57/24 35/58/24
f 35/58/25 50/59/25 17/56/25
f 5/60/26 50/59/26 15/47/26
f 13/61/27 46/24/27 34/62/27
f 34/62/28 51/63/28 13/61/28
f 1/64/29 51/63/29 23/44/29
f 12/40/30 24/43/30 33/19/30
f 10/31/31 22/41/31 32/16/31
f 18/65/32 45/66/32 31/67/32
f 31/67/33 52/68/33 18/65/33
f 8/69/34 52/68/34 20/37/34
f 22/70/35 44/71/35 30/72/35
f 30/72/36 53/73/36 22/70/36
f 12/74/37 53/73/37 24/36/37
f 14/75/38 43/15/38 29/76/38
f 29/76/39 54/77/39 14/75/39
f 4/78/40 54/77/40 16/33/40
f 8/29/41 20/32/41 28/10/41
f 6/27/42 18/30/42 27/7/42
f 4/25/43 16/28/43 26/4/43
f 2/79/44 14/26/44 25/1/44
f 34/62/45 55/80/45 40/45/45
f 34/62/46 56/81/46 55/80/46
f 35/58/47 47/57/47 57/82/47
f 33/19/48 11/17/48 12/40/48
f 32/16/49 9/11/49 10/31/49
f 29/76/50 58/83/50 37/34/50
f 29/76/51 59/84/51 58/83/51
f 30/72/52 44/71/52 60/85/52
f 28/10/53 7/8/53 8/29/53
f 27/7/54 5/5/54 6/27/54
f 26/4/55 3/2/55 4/25/55
f 25/1/56 1/86/56 2/79/56
f 4/25/57 3/2/57 25/1/57
f 6/27/58 5/5/58 26/4/58
f 8/29/59 7/8/59 27/7/59
f 10/31/60 9/11/60 28/10/60
f 12/40/61 11/17/61 32/16/61
f 2/42/62 1/20/62 33/19/62
f 33/19/63 23/21/63 11/17/63
f 32/16/64 21/18/64 9/11/64
f 28/10/65 19/12/65 7/8/65
f 27/7/66 17/9/66 5/5/66
f 26/4/67 15/6/67 3/2/67
f 25/1/68 13/3/68 1/86/68
f 60/85/69 39/38/69 31/67/69
f 60/85/70 44/71/70 39/38/70
f 44/71/71 10/39/71 39/38/71
f 58/83/72 60/85/72 31/67/72
f 58/83/73 59/84/73 60/85/73
f 59/84/74 30/72/74 60/85/74
f 37/34/75 45/66/75 6/35/75
f 37/34/76 58/83/76 45/66/76
f 58/83/77 31/67/77 45/66/77
f 57/82/78 42/49/78 36/53/78
f 57/82/79 47/57/79 42/49/79
f 47/57/80 7/50/80 42/49/80
f 55/80/81 57/82/81 36/53/81
f 55/80/82 56/81/82 57/82/82
f 56/81/83 35/58/83 57/82/83
f 40/45/84 48/52/84 11/46/84
f 40/45/85 55/80/85 48/52/85
f 55/80/86 36/53/86 48/52/86
f 46/24/87 56/81/87 34/62/87
f 46/24/88 41/23/88 56/81/88
f 41/23/89 35/58/89 56/81/89
f 43/15/90 59/84/90 29/76/90
f 43/15/91 38/14/91 59/84/91
f 38/14/92 30/72/92 59/84/92
f 16/33/93 29/76/93 37/34/93
f 24/36/94 30/72/94 38/14/94
f 20/37/95 31/67/95 39/38/95
f 23/44/96 34/62/96 40/45/96
f 15/47/97 35/58/97 41/23/97
f 19/48/98 36/53/98 42/49/98
f 21/51/99 11/46/99 48/52/99
f 36/53/100 19/48/100 49/54/100
f 9/55/101 21/51/101 49/54/101
f 17/56/102 7/50/102 47/57/102
f 35/58/103 15/47/103 50/59/103
f 5/60/104 17/56/104 50/59/104
f 13/61/105 3/22/105 46/24/105
f 34/62/106 23/44/106 51/63/106
f 1/64/107 13/61/107 51/63/107
f 18/65/108 6/35/108 45/66/108
f 31/67/109 20/37/109 52/68/109
f 8/69/110 18/65/110 52/68/110
f 22/70/111 10/39/111 44/71/111
f 30/72/112 24/36/112 53/73/112
f 12/74/113 22/70/113 53/73/113
f 14/75/114 2/13/114 43/15/114
f 29/76/115 16/33/115 54/77/115
f 4/78/116 14/75/116 54/77/116
