# Blender 4.3.0
# www.blender.org
o Cylinder
v 0.000000 -2.364571 -24.824074
v 0.000000 2.474793 -24.967255
v 21.638834 -2.489510 -12.493187
v 21.624638 2.476892 -12.484991
v 21.590055 -2.446151 12.465024
v 21.790335 2.624179 12.580655
v 0.000000 -2.367174 24.827457
v 0.000000 2.380739 24.845078
v -21.804424 -2.636702 12.588790
v -21.803541 2.635920 12.588281
v -21.491476 -2.358524 -12.408110
v -21.731243 2.571652 -12.546539
v 10.849648 -2.548661 -18.792141
v 10.910388 2.670140 -18.897346
v 21.492395 -2.341763 0.000000
v 21.808107 2.657471 0.000000
v 10.893772 -2.636908 18.868567
v 10.833154 2.515672 18.763573
v -10.783109 -2.415584 18.676893
v -10.767646 2.384658 18.650110
v -21.723927 -2.573290 0.000000
v -21.655035 2.504400 0.000000
v -10.788728 -2.426822 -18.686625
v -10.741899 2.333166 -18.605516
v 10.899717 0.000000 -18.878864
v 21.585445 0.000000 0.000000
v 10.704358 0.000000 18.540493
v -10.746974 0.000000 18.614305
v 10.825317 2.692961 -6.250000
v -10.825317 2.586581 -6.250000
v 0.000000 2.361931 12.500000
v -21.731180 0.000000 0.000000
v -10.938149 0.000000 -18.945431
v 0.000000 -2.726496 -12.500000
v 10.825317 -2.574954 6.250000
v -10.825317 -2.324824 6.250000
v 16.237976 2.497913 3.125000
v -5.412659 2.534815 -15.625000
v -10.825317 2.621569 12.500000
v -10.825317 -2.706717 -12.500000
v 16.237976 -2.553414 -3.125000
v -5.412659 -2.499808 15.625000
v 5.412659 2.291903 -15.625000
v -16.237976 2.355669 3.125000
v 10.825317 2.670817 12.500000
v 10.825317 -2.416703 -12.500000
v 5.412659 -2.714106 15.625000
v -16.237976 -2.679582 -3.125000
v -16.237976 -2.622349 9.375000
v 16.237976 -2.480067 9.375000
v 0.000000 -2.679595 -18.750000
v 0.000000 2.324293 18.750000
v -16.237976 2.486901 -9.375000
v 16.237976 2.515459 -9.375000
v -5.412659 -2.358244 -3.125000
v 5.412659 -2.390432 -3.125000
v 0.000000 -2.365810 6.250000
v 5.412659 2.681023 3.125000
v 0.000000 2.329075 -6.250000
v -5.412659 2.422975 3.125000
vn 0.5040 -0.0393 -0.8628
vn 0.9992 -0.0397 -0.0082
vn 0.4777 0.1422 0.8669
vn -0.4838 0.0299 0.8747
vn 0.0224 0.9997 0.0066
vn -0.9998 -0.0028 -0.0188
vn -0.4902 -0.1222 -0.8630
vn -0.0067 -0.9999 -0.0107
vn 0.5134 -0.0080 -0.8581
vn 0.9965 -0.0835 0.0012
vn 0.4879 -0.1019 0.8669
vn -0.4817 -0.0173 0.8762
vn -0.0272 0.9996 0.0026
vn -0.0258 0.9994 -0.0214
vn 0.0016 0.9993 0.0385
vn -0.9995 0.0304 0.0062
vn -0.5041 0.1659 -0.8475
vn -0.0330 -0.9984 -0.0454
vn 0.0330 -0.9994 0.0122
vn -0.0056 -0.9998 0.0177
vn 0.0016 -0.9993 0.0369
vn 0.0388 -0.9989 -0.0279
vn 0.0115 -0.9998 0.0155
vn 0.0170 -0.9998 -0.0050
vn 0.0204 -0.9998 -0.0050
vn 0.0112 -0.9999 -0.0085
vn 0.0286 -0.9994 0.0211
vn 0.0120 -0.9999 -0.0075
vn -0.0237 -0.9984 -0.0518
vn -0.4734 0.1659 -0.8651
vn -0.9995 0.0304 -0.0121
vn -0.0285 0.9993 0.0248
vn -0.0177 0.9998 0.0060
vn 0.0057 0.9999 -0.0093
vn 0.0099 0.9995 0.0304
vn -0.0130 0.9999 -0.0094
vn 0.0186 0.9998 -0.0056
vn -0.0700 0.9975 -0.0023
vn 0.0319 0.9995 -0.0016
vn -0.0012 0.9999 -0.0144
vn -0.4986 -0.0173 0.8666
vn 0.4896 -0.1019 0.8660
vn 0.9964 -0.0835 -0.0134
vn 0.4863 -0.0080 -0.8738
vn -0.0018 -0.9993 0.0382
vn -0.0030 -0.9993 0.0375
vn -0.0193 -0.9995 -0.0260
vn -0.5180 -0.0492 -0.8540
vn -1.0000 0.0002 -0.0058
vn 0.0169 0.9998 0.0110
vn -0.0336 0.9993 -0.0181
vn -0.0062 0.9998 0.0210
vn -0.5010 -0.0032 0.8654
vn 0.4803 -0.0390 0.8762
vn 1.0000 0.0029 0.0037
vn 0.4830 -0.0259 -0.8752
vn 0.5116 0.0029 -0.8592
vn 0.9992 -0.0393 -0.0081
vn 0.5070 -0.0032 0.8620
vn -0.4785 0.0002 0.8781
vn -0.9988 -0.0489 -0.0100
vn -0.4776 -0.0260 -0.8782
vn -0.5028 -0.1222 -0.8557
vn -1.0000 -0.0028 -0.0064
vn -0.4953 0.0299 0.8682
vn 0.5066 0.1422 0.8504
vn 0.9991 -0.0397 0.0122
vn 0.4850 -0.0393 -0.8736
vn 0.0240 0.9997 -0.0073
vn -0.0062 0.9997 -0.0248
vn 0.0011 0.9996 -0.0290
vn -0.0238 0.9995 0.0203
vn -0.0238 0.9994 -0.0238
vn 0.0238 0.9997 0.0037
vn 0.0044 0.9999 -0.0159
vn 0.0169 0.9998 -0.0087
vn -0.0285 0.9994 0.0176
vn -0.0038 -0.9999 -0.0165
vn -0.0198 -0.9995 -0.0257
vn -0.0198 -0.9995 0.0260
vn -0.0038 -1.0000 0.0014
vn -0.0030 -1.0000 0.0009
vn -0.0193 -0.9998 -0.0085
vn -0.0328 -0.9993 -0.0160
vn 0.0297 -0.9994 0.0200
vn 0.0297 -0.9993 0.0207
vn 0.0286 -0.9994 0.0193
vn -0.0151 -0.9999 -0.0059
vn -0.0151 -0.9998 -0.0110
vn -0.0336 0.9992 -0.0234
vn 0.0224 0.9997 0.0090
vn 0.0238 0.9997 0.0082
vn -0.0128 0.9995 0.0282
vn -0.0263 0.9994 -0.0207
vn 0.0240 0.9990 0.0383
vn -0.0018 -0.9990 -0.0452
vn 0.0310 -0.9994 0.0156
vn -0.0198 -0.9998 -0.0072
vn -0.0295 -0.9994 -0.0179
vn 0.0506 -0.9987 -0.0075
vn -0.0003 -1.0000 -0.0050
vn -0.0061 -0.9994 0.0341
vn 0.0197 -0.9998 -0.0037
vn 0.0120 -0.9999 -0.0098
vn -0.0067 -0.9998 0.0209
vn -0.0235 -0.9997 -0.0075
vn 0.0118 -0.9986 -0.0518
vn 0.0041 0.9997 0.0248
vn 0.0056 1.0000 0.0060
vn -0.0177 0.9998 -0.0093
vn 0.0332 0.9994 -0.0100
vn -0.0065 0.9998 -0.0205
vn 0.0124 0.9999 0.0053
vn -0.0424 0.9981 0.0441
vn 0.0179 0.9995 -0.0258
vn 0.0125 0.9999 0.0092
vt 0.916667 0.750000
vt 0.833333 0.500000
vt 0.916667 0.500000
vt 0.750000 0.750000
vt 0.666667 0.500000
vt 0.750000 0.500000
vt 0.583333 0.750000
vt 0.500000 0.500000
vt 0.583333 0.500000
vt 0.416667 0.750000
vt 0.333333 0.500000
vt 0.416667 0.500000
vt 0.250000 0.490000
vt 0.198038 0.400000
vt 0.301962 0.400000
vt 0.250000 0.750000
vt 0.166667 0.500000
vt 0.250000 0.500000
vt 0.083333 0.750000
vt -0.000000 0.500000
vt 0.083333 0.500000
vt 0.957846 0.370000
vt 0.905885 0.280000
vt 0.853923 0.370000
vt 0.833333 1.000000
vt 0.916667 1.000000
vt 0.666667 1.000000
vt 0.750000 1.000000
vt 0.500000 1.000000
vt 0.583333 1.000000
vt 0.333333 1.000000
vt 0.416667 1.000000
vt 0.457846 0.250000
vt 0.405885 0.220000
vt 0.457846 0.130000
vt 0.146077 0.430000
vt 0.146077 0.070000
vt 0.146077 0.130000
vt 0.042154 0.130000
vt 0.166667 1.000000
vt 0.250000 1.000000
vt -0.000000 1.000000
vt 0.083333 1.000000
vt 0.646077 0.430000
vt 0.646077 0.370000
vt 0.542154 0.370000
vt 0.957846 0.250000
vt 0.646077 0.070000
vt 0.698038 0.100000
vt 0.750000 0.010000
vt 0.542154 0.250000
vt 0.594115 0.280000
vt 0.646077 0.190000
vt 0.594115 0.160000
vt 0.542154 0.130000
vt 0.853923 0.070000
vt 0.801962 0.100000
vt 0.853923 0.190000
vt 0.905885 0.160000
vt 0.957846 0.130000
vt 0.853923 0.430000
vt 0.750000 0.370000
vt 0.750000 0.430000
vt 0.750000 0.490000
vt 0.353923 0.070000
vt 0.353923 0.130000
vt 0.250000 0.130000
vt 0.250000 0.070000
vt 0.250000 0.010000
vt 0.042154 0.250000
vt 0.094115 0.220000
vt 0.146077 0.310000
vt 0.094115 0.340000
vt 0.042154 0.370000
vt 0.353923 0.430000
vt 0.353923 0.310000
vt 0.405885 0.340000
vt 0.457846 0.370000
vt 1.000000 1.000000
vt 0.698038 0.280000
vt 0.801962 0.280000
vt 0.750000 0.190000
vt 0.301962 0.220000
vt 0.250000 0.310000
vt 0.198038 0.220000
vt 1.000000 0.500000
s 0
f 25/1/1 3/2/1 13/3/1
f 26/4/2 5/5/2 15/6/2
f 27/7/3 7/8/3 17/9/3
f 28/10/4 9/11/4 19/12/4
f 2/13/5 38/14/5 43/15/5
f 32/16/6 11/17/6 21/18/6
f 33/19/7 1/20/7 23/21/7
f 3/22/8 41/23/8 46/24/8
f 4/25/9 25/1/9 14/26/9
f 6/27/10 26/4/10 16/28/10
f 8/29/11 27/7/11 18/30/11
f 10/31/12 28/10/12 20/32/12
f 16/33/13 37/34/13 6/35/13
f 24/36/14 38/14/14 2/13/14
f 20/37/15 39/38/15 10/39/15
f 12/40/16 32/16/16 22/41/16
f 2/42/17 33/19/17 24/43/17
f 23/44/18 40/45/18 11/46/18
f 15/47/19 41/23/19 3/22/19
f 19/48/20 42/49/20 7/50/20
f 21/51/21 48/52/21 36/53/21
f 36/53/22 49/54/22 21/51/22
f 9/55/23 49/54/23 19/48/23
f 17/56/24 47/57/24 35/58/24
f 35/58/25 50/59/25 17/56/25
f 5/60/26 50/59/26 15/47/26
f 13/61/27 46/24/27 34/62/27
f 34/62/28 51/63/28 13/61/28
f 1/64/29 51/63/29 23/44/29
f 12/40/30 24/43/30 33/19/30
f 10/31/31 22/41/31 32/16/31
f 18/65/32 45/66/32 31/67/32
f 31/67/33 52/68/33 18/65/33
f 8/69/34 52/68/34 20/37/34
f 22/70/35 44/71/35 30/72/35
f 30/72/36 53/73/36 22/70/36
f 12/74/37 53/73/37 24/36/37
f 14/75/38 43/15/38 29/76/38
f 29/76/39 54/77/39 14/75/39
f 4/78/40 54/77/40 16/33/40
f 8/29/41 20/32/41 28/10/41
f 6/27/42 18/30/42 27/7/42
f 4/25/43 16/28/43 26/4/43
f 2/79/44 14/26/44 25/1/44
f 34/62/45 55/80/45 40/45/45
f 34/62/46 56/81/46 55/80/46
f 35/58/47 47/57/47 57/82/47
f 33/19/48 11/17/48 12/40/48
f 32/16/49 9/11/49 10/31/49
f 29/76/50 58/83/50 37/34/50
f 29/76/51 59/84/51 58/83/51
f 30/72/52 44/71/52 60/85/52
f 28/10/53 7/8/53 8/29/53
f 27/7/54 5/5/54 6/27/54
f 26/4/55 3/2/55 4/25/55
f 25/1/56 1/86/56 2/79/56
f 4/25/57 3/2/57 25/1/57
f 6/27/58 5/5/58 26/4/58
f 8/29/59 7/8/59 27/7/59
f 10/31/60 9/11/60 28/10/60
f 12/40/61 11/17/61 32/16/61
f 2/42/62 1/20/62 33/19/62
f 33/19/63 23/21/63 11/17/63
f 32/16/64 21/18/64 9/11/64
f 28/10/65 19/12/65 7/8/65
f 27/7/66 17/9/66 5/5/66
f 26/4/67 15/6/67 3/2/67
f 25/1/68 13/3/68 1/86/68
f 60/85/69 39/38/69 31/67/69
f 60/85/70 44/71/70 39/38/70
f 44/71/71 10/39/71 39/38/71
f 58/83/72 60/85/72 31/67/72
f 58/83/73 59/84/73 60/85/73
f 59/84/74 30/72/74 60/85/74
f 37/34/75 45/66/75 6/35/75
f 37/34/76 58/83/76 45/66/76
f 58/83/77 31/67/77 45/66/77
f 57/82/78 42/49/78 36/53/78
f 57/82/79 47/57/79 42/49/79
f 47/57/80 7/50/80 42/49/80
f 55/80/81 57/82/81 36/53/81
f 55/80/82 56/81/82 57/82/82
f 56/81/83 35/58/83 57/82/83
f 40/45/84 48/52/84 11/46/84
f 40/45/85 55/80/85 48/52/85
f 55/80/86 36/53/86 48/52/86
f 46/24/87 56/81/87 34/62/87
f 46/24/88 41/23/88 56/81/88
f 41/23/89 35/58/89 56/81/89
f 43/15/90 59/84/90 29/76/90
f 43/15/91 38/14/91 59/84/91
f 38/14/92 30/72/92 59/84/92
f 16/33/93 29/76/93 37/34/93
f 24/36/94 30/72/94 38/14/94
f 20/37/95 31/67/95 39/38/95
f 23/44/96 34/62/96 40/45/96
f 15/47/97 35/58/97 41/23/97
f 19/48/98 36/53/98 42/49/98
f 21/51/99 11/46/99 48/52/99
f 36/53/100 19/48/100 49/54/100
f 9/55/101 21/51/101 49/54/101
f 17/56/102 7/50/102 47/57/102
f 35/58/103 15/47/103 50/59/103
f 5/60/104 17/56/104 50/59/104
f 13/61/105 3/22/105 46/24/105
f 34/62/106 23/44/106 51/63/106
f 1/64/107 13/61/107 51/63/107
f 18/65/108 6/35/108 45/66/108
f 31/67/109 20/37/109 52/68/109
f 8/69/110 18/65/110 52/68/110
f 22/70/111 10/39/111 44/71/111
f 30/72/112 24/36/112 53/73/112
f 12/74/113 22/70/113 53/73/113
f 14/75/114 2/13/114 43/15/114
f 29/76/115 16/33/115 54/77/115
f 4/78/116 14/75/116 54/77/116
