# Blender 4.3.0
# www.blender.org
o Cylinder
v 0.000000 -2.395434 -24.864166
v 0.000000 2.526433 -25.034338
v 21.700163 -2.544026 -12.528595
v 21.782518 2.617230 -12.576142
v 21.669693 -2.516941 12.511003
v 21.778923 2.614036 12.574067
v 0.000000 -2.559830 25.077721
v 0.000000 2.421182 24.897614
v -21.653648 -2.502679 12.501740
v -21.531240 2.393870 12.431067
v -21.586454 -2.442950 -12.462946
v -21.737320 2.577055 -12.550048
v 10.809830 -2.469024 -18.723173
v 10.860484 2.570333 -18.810911
v 21.782125 -2.631490 0.000000
v 21.668404 2.517769 0.000000
v 10.905560 -2.660482 18.888983
v 10.760515 2.370396 18.637758
v -10.741134 -2.331635 18.604191
v -10.820867 2.491099 18.742290
v -21.480972 -2.330340 0.000000
v -21.482592 2.331959 0.000000
v -10.907436 -2.664236 -18.892235
v -10.888035 2.625434 -18.858631
v 10.812644 0.000000 -18.728050
v 21.828341 0.000000 0.000000
v 10.750488 0.000000 18.620392
v -10.883512 0.000000 18.850798
v 10.825317 2.495105 -6.250000
v -10.825317 2.447815 -6.250000
v 0.000000 2.471512 12.500000
v -21.762318 0.000000 0.000000
v -10.913766 0.000000 -18.903196
v 0.000000 -2.478309 -12.500000
v 10.825317 -2.687968 6.250000
v -10.825317 -2.412893 6.250000
v 16.237976 2.665246 3.125000
v -5.412659 2.353119 -15.625000
v -10.825317 2.702246 12.500000
v -10.825317 -2.514549 -12.500000
v 16.237976 -2.422102 -3.125000
v -5.412659 -2.625065 15.625000
v 5.412659 2.702684 -15.625000
v -16.237976 2.443599 3.125000
v 10.825317 2.598087 12.500000
v 10.825317 -2.709263 -12.500000
v 5.412659 -2.403567 15.625000
v -16.237976 -2.627875 -3.125000
v -16.237976 -2.400709 9.375000
v 16.237976 -2.304579 9.375000
v 0.000000 -2.673387 -18.750000
v 0.000000 2.515715 18.750000
v -16.237976 2.388389 -9.375000
v 16.237976 2.358533 -9.375000
v -5.412659 -2.631870 -3.125000
v 5.412659 -2.306382 -3.125000
v 0.000000 -2.611714 6.250000
v 5.412659 2.632610 3.125000
v 0.000000 2.595490 -6.250000
v -5.412659 2.667943 3.125000
vn 0.4944 -0.0023 -0.8692
vn 0.9998 -0.0176 0.0091
vn 0.4910 0.1158 0.8634
vn -0.4830 -0.1212 0.8672
vn -0.0323 0.9995 -0.0002
vn -0.9927 -0.1199 0.0095
vn -0.4801 -0.0048 -0.8772
vn 0.0152 -0.9996 0.0218
vn 0.4955 -0.0372 -0.8678
vn 0.9979 0.0634 -0.0093
vn 0.5028 -0.0085 0.8644
vn -0.5074 0.0502 0.8603
vn 0.0226 0.9997 -0.0079
vn 0.0290 0.9990 0.0351
vn -0.0290 0.9990 0.0338
vn -0.9926 0.1191 0.0225
vn -0.4931 0.0196 -0.8697
vn -0.0066 -0.9997 0.0235
vn -0.0339 -0.9994 -0.0068
vn -0.0387 -0.9988 0.0291
vn -0.0320 -0.9986 0.0414
vn -0.0050 -1.0000 -0.0047
vn 0.0172 -0.9998 -0.0028
vn -0.0482 -0.9988 0.0025
vn 0.0697 -0.9976 0.0017
vn -0.0441 -0.9990 0.0088
vn -0.0213 -0.9990 -0.0385
vn 0.0188 -0.9993 0.0312
vn -0.0002 -0.9990 -0.0454
vn -0.5026 0.0196 -0.8643
vn -0.9929 0.1191 -0.0045
vn -0.0117 0.9992 0.0369
vn 0.0134 0.9999 -0.0071
vn -0.0023 0.9999 0.0154
vn -0.0160 0.9998 -0.0088
vn -0.0109 0.9999 -0.0001
vn 0.0150 0.9993 0.0334
vn 0.0278 0.9996 0.0061
vn 0.0287 0.9996 0.0061
vn -0.0423 0.9991 0.0075
vn -0.4936 0.0502 0.8683
vn 0.4823 -0.0085 0.8760
vn 0.9979 0.0634 0.0096
vn 0.4970 -0.0372 -0.8670
vn 0.0033 -0.9999 -0.0144
vn 0.0301 -0.9995 0.0010
vn -0.0070 -0.9996 0.0263
vn -0.5113 -0.0303 -0.8589
vn -0.9996 0.0252 0.0137
vn -0.0030 0.9999 -0.0164
vn 0.0093 0.9999 -0.0093
vn -0.0207 0.9997 -0.0115
vn -0.4908 0.0315 0.8707
vn 0.4845 -0.0211 0.8746
vn 0.9998 -0.0160 -0.0070
vn 0.4983 -0.0300 -0.8665
vn 0.4920 -0.0159 -0.8705
vn 0.9997 -0.0214 0.0084
vn 0.5092 0.0311 0.8601
vn -0.5120 0.0252 0.8586
vn -0.9995 -0.0302 -0.0082
vn -0.4842 -0.0302 -0.8744
vn -0.5159 -0.0048 -0.8567
vn -0.9927 -0.1198 -0.0154
vn -0.5143 -0.1212 0.8490
vn 0.5052 0.1158 0.8552
vn 0.9998 -0.0176 -0.0067
vn 0.4939 -0.0023 -0.8695
vn 0.0213 0.9997 0.0086
vn -0.0207 0.9997 -0.0156
vn -0.0287 0.9995 -0.0110
vn 0.0033 0.9998 0.0191
vn 0.0033 1.0000 -0.0058
vn -0.0136 0.9998 -0.0156
vn -0.0015 1.0000 0.0063
vn -0.0030 1.0000 0.0054
vn -0.0117 0.9999 0.0104
vn -0.0184 -0.9998 -0.0120
vn 0.0205 -0.9997 0.0104
vn 0.0205 -0.9998 -0.0048
vn -0.0184 -0.9998 0.0128
vn 0.0301 -0.9994 -0.0152
vn -0.0070 -0.9993 -0.0366
vn -0.0067 -0.9999 -0.0160
vn -0.0004 -0.9999 -0.0123
vn -0.0004 -0.9997 0.0231
vn -0.0213 -0.9993 0.0306
vn -0.0107 -0.9993 0.0368
vn -0.0107 -0.9993 -0.0345
vn 0.0093 0.9998 0.0168
vn -0.0323 0.9995 -0.0072
vn -0.0136 0.9997 -0.0180
vn 0.0125 0.9996 -0.0254
vn 0.0415 0.9990 0.0139
vn 0.0213 0.9992 0.0338
vn 0.0033 -0.9997 0.0234
vn -0.0164 -0.9991 -0.0378
vn -0.0511 -0.9987 0.0069
vn -0.0510 -0.9987 0.0095
vn 0.0015 -1.0000 0.0066
vn 0.0110 -0.9998 -0.0136
vn -0.0275 -0.9991 -0.0323
vn 0.0377 -0.9977 0.0571
vn -0.0132 -0.9989 -0.0448
vn 0.0151 -0.9991 -0.0386
vn -0.0012 -0.9995 0.0312
vn 0.0190 -0.9988 -0.0454
vn -0.0017 0.9993 0.0371
vn -0.0023 1.0000 -0.0071
vn 0.0137 0.9998 0.0154
vn -0.0183 0.9998 -0.0051
vn -0.0192 0.9997 0.0142
vn 0.0233 0.9995 0.0190
vn 0.0100 0.9997 -0.0245
vn 0.0116 0.9997 -0.0237
vn -0.0253 0.9990 0.0369
vt 0.916667 0.750000
vt 0.833333 0.500000
vt 0.916667 0.500000
vt 0.750000 0.750000
vt 0.666667 0.500000
vt 0.750000 0.500000
vt 0.583333 0.750000
vt 0.500000 0.500000
vt 0.583333 0.500000
vt 0.416667 0.750000
vt 0.333333 0.500000
vt 0.416667 0.500000
vt 0.250000 0.490000
vt 0.198038 0.400000
vt 0.301962 0.400000
vt 0.250000 0.750000
vt 0.166667 0.500000
vt 0.250000 0.500000
vt 0.083333 0.750000
vt -0.000000 0.500000
vt 0.083333 0.500000
vt 0.957846 0.370000
vt 0.905885 0.280000
vt 0.853923 0.370000
vt 0.833333 1.000000
vt 0.916667 1.000000
vt 0.666667 1.000000
vt 0.750000 1.000000
vt 0.500000 1.000000
vt 0.583333 1.000000
vt 0.333333 1.000000
vt 0.416667 1.000000
vt 0.457846 0.250000
vt 0.405885 0.220000
vt 0.457846 0.130000
vt 0.146077 0.430000
vt 0.146077 0.070000
vt 0.146077 0.130000
vt 0.042154 0.130000
vt 0.166667 1.000000
vt 0.250000 1.000000
vt -0.000000 1.000000
vt 0.083333 1.000000
vt 0.646077 0.430000
vt 0.646077 0.370000
vt 0.542154 0.370000
vt 0.957846 0.250000
vt 0.646077 0.070000
vt 0.698038 0.100000
vt 0.750000 0.010000
vt 0.542154 0.250000
vt 0.594115 0.280000
vt 0.646077 0.190000
vt 0.594115 0.160000
vt 0.542154 0.130000
vt 0.853923 0.070000
vt 0.801962 0.100000
vt 0.853923 0.190000
vt 0.905885 0.160000
vt 0.957846 0.130000
vt 0.853923 0.430000
vt 0.750000 0.370000
vt 0.750000 0.430000
vt 0.750000 0.490000
vt 0.353923 0.070000
vt 0.353923 0.130000
vt 0.250000 0.130000
vt 0.250000 0.070000
vt 0.250000 0.010000
vt 0.042154 0.250000
vt 0.094115 0.220000
vt 0.146077 0.310000
vt 0.094115 0.340000
vt 0.042154 0.370000
vt 0.353923 0.430000
vt 0.353923 0.310000
vt 0.405885 0.340000
vt 0.457846 0.370000
vt 1.000000 1.000000
vt 0.698038 0.280000
vt 0.801962 0.280000
vt 0.750000 0.190000
vt 0.301962 0.220000
vt 0.250000 0.310000
vt 0.198038 0.220000
vt 1.000000 0.500000
s 0
f 25/1/1 3/2/1 13/3/1
f 26/4/2 5/5/2 15/6/2
f 27/7/3 7/8/3 17/9/3
f 28/10/4 9/11/4 19/12/4
f 2/13/5 38/14/5 43/15/5
f 32/16/6 11/17/6 21/18/6
f 33/19/7 1/20/7 23/21/7
f 3/22/8 41/23/8 46/24/8
f 4/25/9 25/1/9 14/26/9
f 6/27/10 26/4/10 16/28/10
f 8/29/11 27/7/11 18/30/11
f 10/31/12 28/10/12 20/32/12
f 16/33/13 37/34/13 6/35/13
f 24/36/14 38/14/14 2/13/14
f 20/37/15 39/38/15 10/39/15
f 12/40/16 32/16/16 22/41/16
f 2/42/17 33/19/17 24/43/17
f 23/44/18 40/45/18 11/46/18
f 15/47/19 41/23/19 3/22/19
f 19/48/20 42/49/20 7/50/20
f 21/51/21 48/52/21 36/53/21
f 36/53/22 49/54/22 21/51/22
f 9/55/23 49/54/23 19/48/23
f 17/56/24 47/57/24 35/58/24
f 35/58/25 50/59/25 17/56/25
f 5/60/26 50/59/26 15/47/26
f 13/61/27 46/24/27 34/62/27
f 34/62/28 51/63/28 13/61/28
f 1/64/29 51/63/29 23/44/29
f 12/40/30 24/43/30 33/19/30
f 10/31/31 22/41/31 32/16/31
f 18/65/32 45/66/32 31/67/32
f 31/67/33 52/68/33 18/65/33
f 8/69/34 52/68/34 20/37/34
f 22/70/35 44/71/35 30/72/35
f 30/72/36 53/73/36 22/70/36
f 12/74/37 53/73/37 24/36/37
f 14/75/38 43/15/38 29/76/38
f 29/76/39 54/77/39 14/75/39
f 4/78/40 54/77/40 16/33/40
f 8/29/41 20/32/41 28/10/41
f 6/27/42 18/30/42 27/7/42
f 4/25/43 16/28/43 26/4/43
f 2/79/44 14/26/44 25/1/44
f 34/62/45 55/80/45 40/45/45
f 34/62/46 56/81/46 55/80/46
f 35/58/47 47/57/47 57/82/47
f 33/19/48 11/17/48 12/40/48
f 32/16/49 9/11/49 10/31/49
f 29/76/50 58/83/50 37/34/50
f 29/76/51 59/84/51 58/83/51
f 30/72/52 44/71/52 60/85/52
f 28/10/53 7/8/53 8/29/53
f 27/7/54 5/5/54 6/27/54
f 26/4/55 3/2/55 4/25/55
f 25/1/56 1/86/56 2/79/56
f 4/25/57 3/2/57 25/1/57
f 6/27/58 5/5/58 26/4/58
f 8/29/59 7/8/59 27/7/59
f 10/31/60 9/11/60 28/10/60
f 12/40/61 11/17/61 32/16/61
f 2/42/62 1/20/62 33/19/62
f 33/19/63 23/21/63 11/17/63
f 32/16/64 21/18/64 9/11/64
f 28/10/65 19/12/65 7/8/65
f 27/7/66 17/9/66 5/5/66
f 26/4/67 15/6/67 3/2/67
f 25/1/68 13/3/68 1/86/68
f 60/85/69 39/38/69 31/67/69
f 60/85/70 44/71/70 39/38/70
f 44/71/71 10/39/71 39/38/71
f 58/83/72 60/85/72 31/67/72
f 58/83/73 59/84/73 60/85/73
f 59/84/74 30/72/74 60/85/74
f 37/34/75 45/66/75 6/35/75
f 37/34/76 58/83/76 45/66/76
f 58/83/77 31/67/77 45/66/77
f 57/82/78 42/49/78 36/53/78
f 57/82/79 47/57/79 42/49/79
f 47/57/80 7/50/80 42/49/80
f 55/80/81 57/82/81 36/53/81
f 55/80/82 56/81/82 57/82/82
f 56/81/83 35/58/83 57/82/83
f 40/45/84 48/52/84 11/46/84
f 40/45/85 55/80/85 48/52/85
f 55/80/86 36/53/86 48/52/86
f 46/24/87 56/81/87 34/62/87
f 46/24/88 41/23/88 56/81/88
f 41/23/89 35/58/89 56/81/89
f 43/15/90 59/84/90 29/76/90
f 43/15/91 38/14/91 59/84/91
f 38/14/92 30/72/92 59/84/92
f 16/33/93 29/76/93 37/34/93
f 24/36/94 30/72/94 38/14/94
f 20/37/95 31/67/95 39/38/95
f 23/44/96 34/62/96 40/45/96
f 15/47/97 35/58/97 41/23/97
f 19/48/98 36/53/98 42/49/98
f 21/51/99 11/46/99 48/52/99
f 36/53/100 19/48/100 49/54/100
f 9/55/101 21/51/101 49/54/101
f 17/56/102 7/50/102 47/57/102
f 35/58/103 15/47/103 50/59/103
f 5/60/104 17/56/104 50/59/104
f 13/61/105 3/22/105 46/24/105
f 34/62/106 23/44/106 51/63/106
f 1/64/107 13/61/107 51/63/107
f 18/65/108 6/35/108 45/66/108
f 31/67/109 20/37/109 52/68/109
f 8/69/110 18/65/110 52/68/110
f 22/70/111 10/39/111 44/71/111
f 30/72/112 24/36/112 53/73/112
f 12/74/113 22/70/113 53/73/113
f 14/75/114 2/13/114 43/15/114
f 29/76/115 16/33/115 54/77/115
f 4/78/116 14/75/116 54/77/116
