# Blender 4.3.0
# www.blender.org
o Cylinder
v 0.000000 -2.507430 -25.009651
v 0.000000 2.378445 -24.842098
v 21.654871 -2.503765 -12.502445
v 21.602097 2.456855 -12.471976
v 21.689100 -2.534192 12.522208
v 21.821859 2.652202 12.598856
v 0.000000 -2.373087 24.835138
v 0.000000 2.474575 24.966972
v -21.700418 -2.544253 12.528743
v -21.675859 2.522423 12.514564
v -21.633892 -2.485117 -12.490334
v -21.592257 2.448108 -12.466295
v 10.781735 -2.412837 -18.674513
v 10.819571 2.488507 -18.740046
v 21.747986 -2.597351 0.000000
v 21.634455 2.483821 0.000000
v 10.751289 -2.351946 18.621780
v 10.903991 2.657346 18.886267
v -10.896013 -2.641391 18.872450
v -10.866208 2.581780 18.820824
v -21.565199 -2.414565 0.000000
v -21.508312 2.357679 0.000000
v -10.770805 -2.390977 -18.655582
v -10.792625 2.434616 -18.693375
v 10.780528 0.000000 -18.672422
v 21.624525 0.000000 0.000000
v 10.726774 0.000000 18.579317
v -10.904860 0.000000 18.887772
v 10.825317 2.282960 -6.250000
v -10.825317 2.275698 -6.250000
v 0.000000 2.310512 12.500000
v -21.779013 0.000000 0.000000
v -10.852704 0.000000 -18.797434
v 0.000000 -2.320258 -12.500000
v 10.825317 -2.664033 6.250000
v -10.825317 -2.677448 6.250000
v 16.237976 2.729004 3.125000
v -5.412659 2.420688 -15.625000
v -10.825317 2.435382 12.500000
v -10.825317 -2.455624 -12.500000
v 16.237976 -2.376273 -3.125000
v -5.412659 -2.614886 15.625000
v 5.412659 2.454424 -15.625000
v -16.237976 2.284750 3.125000
v 10.825317 2.659299 12.500000
v 10.825317 -2.649888 -12.500000
v 5.412659 -2.611406 15.625000
v -16.237976 -2.455726 -3.125000
v -16.237976 -2.740579 9.375000
v 16.237976 -2.649315 9.375000
v 0.000000 -2.598209 -18.750000
v 0.000000 2.348006 18.750000
v -16.237976 2.543248 -9.375000
v 16.237976 2.451544 -9.375000
v -5.412659 -2.376147 -3.125000
v 5.412659 -2.453914 -3.125000
v 0.000000 -2.398393 6.250000
v 5.412659 2.320339 3.125000
v 0.000000 2.518896 -6.250000
v -5.412659 2.528676 3.125000
vn 0.4937 0.0010 -0.8697
vn 0.9989 0.0475 0.0045
vn 0.5002 0.0208 0.8656
vn -0.5064 -0.0067 0.8623
vn -0.0031 1.0000 -0.0064
vn -0.9961 -0.0882 0.0060
vn -0.5075 -0.0683 -0.8590
vn 0.0135 -0.9997 0.0214
vn 0.5023 -0.0314 -0.8642
vn 0.9999 -0.0040 -0.0148
vn 0.4845 -0.1322 0.8648
vn -0.5038 0.0299 0.8633
vn 0.0373 0.9992 -0.0139
vn 0.0039 1.0000 -0.0023
vn 0.0080 0.9997 -0.0231
vn -0.9934 0.1141 0.0075
vn -0.4942 0.0493 -0.8679
vn 0.0027 -0.9999 -0.0105
vn -0.0360 -0.9993 -0.0072
vn 0.0151 -0.9997 0.0174
vn -0.0161 -0.9998 -0.0143
vn -0.0063 -0.9995 -0.0312
vn -0.0226 -0.9995 0.0231
vn 0.0343 -0.9991 0.0254
vn -0.0118 -0.9996 0.0251
vn 0.0182 -0.9998 0.0051
vn -0.0304 -0.9988 -0.0381
vn 0.0169 -0.9989 0.0444
vn -0.0194 -0.9997 -0.0145
vn -0.4989 0.0493 -0.8653
vn -0.9934 0.1141 -0.0148
vn -0.0322 0.9995 0.0007
vn -0.0283 0.9996 -0.0060
vn 0.0214 0.9996 -0.0203
vn 0.0107 0.9999 0.0052
vn 0.0287 0.9989 0.0359
vn -0.0083 0.9998 -0.0165
vn 0.0032 0.9999 0.0165
vn -0.0216 0.9996 0.0165
vn -0.0022 1.0000 -0.0022
vn -0.4919 0.0299 0.8701
vn 0.4946 -0.1322 0.8590
vn 1.0000 -0.0040 -0.0026
vn 0.4912 -0.0314 -0.8705
vn 0.0125 -0.9999 0.0013
vn -0.0072 -0.9999 -0.0101
vn -0.0245 -0.9997 -0.0086
vn -0.5064 0.0085 -0.8623
vn -1.0000 0.0049 0.0073
vn -0.0377 0.9990 -0.0258
vn 0.0218 0.9997 0.0086
vn -0.0225 0.9996 -0.0140
vn -0.4827 -0.0238 0.8755
vn 0.4790 -0.0252 0.8775
vn 0.9999 0.0106 0.0003
vn 0.5014 0.0297 -0.8647
vn 0.4953 0.0106 -0.8687
vn 0.9996 -0.0254 -0.0103
vn 0.5075 -0.0234 0.8613
vn -0.5084 0.0049 0.8611
vn -0.9999 0.0085 -0.0133
vn -0.4914 0.0299 -0.8704
vn -0.4920 -0.0683 -0.8679
vn -0.9960 -0.0882 -0.0117
vn -0.4799 -0.0067 0.8773
vn 0.4872 0.0208 0.8730
vn 0.9988 0.0475 -0.0071
vn 0.5066 0.0010 -0.8622
vn 0.0115 0.9998 0.0166
vn -0.0225 0.9997 -0.0031
vn 0.0080 0.9998 -0.0207
vn 0.0192 0.9997 0.0122
vn 0.0192 0.9998 0.0101
vn 0.0006 1.0000 0.0078
vn -0.0377 0.9992 -0.0143
vn -0.0322 0.9993 -0.0175
vn 0.0258 -0.9996 -0.0082
vn 0.0003 -0.9997 -0.0229
vn 0.0003 -0.9997 0.0261
vn 0.0258 -0.9995 -0.0172
vn -0.0072 -1.0000 0.0018
vn -0.0245 -0.9997 -0.0082
vn 0.0027 -1.0000 0.0016
vn 0.0074 -1.0000 0.0042
vn 0.0073 -0.9996 -0.0279
vn -0.0304 -0.9995 0.0033
vn 0.0072 -0.9997 0.0250
vn 0.0072 -0.9996 -0.0265
vn 0.0218 0.9997 0.0057
vn -0.0031 1.0000 -0.0087
vn -0.0225 0.9997 0.0025
vn 0.0134 0.9984 -0.0552
vn -0.0047 0.9999 0.0128
vn 0.0115 0.9997 -0.0231
vn 0.0125 -0.9999 -0.0104
vn -0.0171 -0.9990 -0.0405
vn 0.0065 -1.0000 0.0029
vn -0.0044 -1.0000 0.0057
vn 0.0134 -0.9999 0.0029
vn -0.0421 -0.9991 -0.0108
vn 0.0256 -0.9988 0.0409
vn 0.0044 -1.0000 -0.0029
vn 0.0019 -0.9994 0.0333
vn 0.0135 -0.9992 -0.0385
vn -0.0188 -0.9988 0.0444
vn 0.0173 -0.9997 -0.0145
vn 0.0006 1.0000 0.0003
vn 0.0215 0.9998 -0.0060
vn -0.0281 0.9994 -0.0203
vn 0.0215 0.9997 -0.0129
vn 0.0420 0.9990 0.0129
vn -0.0220 0.9997 0.0074
vn -0.0083 1.0000 -0.0034
vn -0.0249 0.9996 0.0109
vn 0.0010 1.0000 0.0034
vt 0.916667 0.750000
vt 0.833333 0.500000
vt 0.916667 0.500000
vt 0.750000 0.750000
vt 0.666667 0.500000
vt 0.750000 0.500000
vt 0.583333 0.750000
vt 0.500000 0.500000
vt 0.583333 0.500000
vt 0.416667 0.750000
vt 0.333333 0.500000
vt 0.416667 0.500000
vt 0.250000 0.490000
vt 0.198038 0.400000
vt 0.301962 0.400000
vt 0.250000 0.750000
vt 0.166667 0.500000
vt 0.250000 0.500000
vt 0.083333 0.750000
vt -0.000000 0.500000
vt 0.083333 0.500000
vt 0.957846 0.370000
vt 0.905885 0.280000
vt 0.853923 0.370000
vt 0.833333 1.000000
vt 0.916667 1.000000
vt 0.666667 1.000000
vt 0.750000 1.000000
vt 0.500000 1.000000
vt 0.583333 1.000000
vt 0.333333 1.000000
vt 0.416667 1.000000
vt 0.457846 0.250000
vt 0.405885 0.220000
vt 0.457846 0.130000
vt 0.146077 0.430000
vt 0.146077 0.070000
vt 0.146077 0.130000
vt 0.042154 0.130000
vt 0.166667 1.000000
vt 0.250000 1.000000
vt -0.000000 1.000000
vt 0.083333 1.000000
vt 0.646077 0.430000
vt 0.646077 0.370000
vt 0.542154 0.370000
vt 0.957846 0.250000
vt 0.646077 0.070000
vt 0.698038 0.100000
vt 0.750000 0.010000
vt 0.542154 0.250000
vt 0.594115 0.280000
vt 0.646077 0.190000
vt 0.594115 0.160000
vt 0.542154 0.130000
vt 0.853923 0.070000
vt 0.801962 0.100000
vt 0.853923 0.190000
vt 0.905885 0.160000
vt 0.957846 0.130000
vt 0.853923 0.430000
vt 0.750000 0.370000
vt 0.750000 0.430000
vt 0.750000 0.490000
vt 0.353923 0.070000
vt 0.353923 0.130000
vt 0.250000 0.130000
vt 0.250000 0.070000
vt 0.250000 0.010000
vt 0.042154 0.250000
vt 0.094115 0.220000
vt 0.146077 0.310000
vt 0.094115 0.340000
vt 0.042154 0.370000
vt 0.353923 0.430000
vt 0.353923 0.310000
vt 0.405885 0.340000
vt 0.457846 0.370000
vt 1.000000 1.000000
vt 0.698038 0.280000
vt 0.801962 0.280000
vt 0.750000 0.190000
vt 0.301962 0.220000
vt 0.250000 0.310000
vt 0.198038 0.220000
vt 1.000000 0.500000
s 0
f 25/1/1 3/2/1 13/3/1
f 26/4/2 5/5/2 15/6/2
f 27/7/3 7/8/3 17/9/3
f 28/10/4 9/11/4 19/12/4
f 2/13/5 38/14/5 43/15/5
f 32/16/6 11/17/6 21/18/6
f 33/19/7 1/20/7 23/21/7
f 3/22/8 41/23/8 46/24/8
f 4/25/9 25/1/9 14/26/9
f 6/27/10 26/4/10 16/28/10
f 8/29/11 27/7/11 18/30/11
f 10/31/12 28/10/12 20/32/12
f 16/33/13 37/34/13 6/35/13
f 24/36/14 38/14/14 2/13/14
f 20/37/15 39/38/15 10/39/15
f 12/40/16 32/16/16 22/41/16
f 2/42/17 33/19/17 24/43/17
f 23/44/18 40/45/18 11/46/18
f 15/47/19 41/23/19 3/22/19
f 19/48/20 42/49/20 7/50/20
f 21/51/21 48/52/21 36/53/21
f 36/53/22 49/54/22 21/51/22
f 9/55/23 49/54/23 19/48/23
f 17/56/24 47/57/24 35/58/24
f 35/58/25 50/59/25 17/56/25
f 5/60/26 50/59/26 15/47/26
f 13/61/27 46/24/27 34/62/27
f 34/62/28 51/63/28 13/61/28
f 1/64/29 51/63/29 23/44/29
f 12/40/30 24/43/30 33/19/30
f 10/31/31 22/41/31 32/16/31
f 18/65/32 45/66/32 31/67/32
f 31/67/33 52/68/33 18/65/33
f 8/69/34 52/68/34 20/37/34
f 22/70/35 44/71/35 30/72/35
f 30/72/36 53/73/36 22/70/36
f 12/74/37 53/73/37 24/36/37
f 14/75/38 43/15/38 29/76/38
f 29/76/39 54/77/39 14/75/39
f 4/78/40 54/77/40 16/33/40
f 8/29/41 20/32/41 28/10/41
f 6/27/42 18/30/42 27/7/42
f 4/25/43 16/28/43 26/4/43
f 2/79/44 14/26/44 25/1/44
f 34/62/45 55/80/45 40/45/45
f 34/62/46 56/81/46 55/80/46
f 35/58/47 47/57/47 57/82/47
f 33/19/48 11/17/48 12/40/48
f 32/16/49 9/11/49 10/31/49
f 29/76/50 58/83/50 37/34/50
f 29/76/51 59/84/51 58/83/51
f 30/72/52 44/71/52 60/85/52
f 28/10/53 7/8/53 8/29/53
f 27/7/54 5/5/54 6/27/54
f 26/4/55 3/2/55 4/25/55
f 25/1/56 1/86/56 2/79/56
f 4/25/57 3/2/57 25/1/57
f 6/27/58 5/5/58 26/4/58
f 8/29/59 7/8/59 27/7/59
f 10/31/60 9/11/60 28/10/60
f 12/40/61 11/17/61 32/16/61
f 2/42/62 1/20/62 33/19/62
f 33/19/63 23/21/63 11/17/63
f 32/16/64 21/18/64 9/11/64
f 28/10/65 19/12/65 7/8/65
f 27/7/66 17/9/66 5/5/66
f 26/4/67 15/6/67 3/2/67
f 25/1/68 13/3/68 1/86/68
f 60/85/69 39/38/69 31/67/69
f 60/85/70 44/71/70 39/38/70
f 44/71/71 10/39/71 39/38/71
f 58/83/72 60/85/72 31/67/72
f 58/83/73 59/84/73 60/85/73
f 59/84/52 30/72/52 60/85/52
f 37/34/74 45/66/74 6/35/74
f 37/34/75 58/83/75 45/66/75
f 58/83/76 31/67/76 45/66/76
f 57/82/77 42/49/77 36/53/77
f 57/82/78 47/57/78 42/49/78
f 47/57/79 7/50/79 42/49/79
f 55/80/80 57/82/80 36/53/80
f 55/80/81 56/81/81 57/82/81
f 56/81/82 35/58/82 57/82/82
f 40/45/83 48/52/83 11/46/83
f 40/45/84 55/80/84 48/52/84
f 55/80/85 36/53/85 48/52/85
f 46/24/86 56/81/86 34/62/86
f 46/24/87 41/23/87 56/81/87
f 41/23/88 35/58/88 56/81/88
f 43/15/89 59/84/89 29/76/89
f 43/15/90 38/14/90 59/84/90
f 38/14/91 30/72/91 59/84/91
f 16/33/92 29/76/92 37/34/92
f 24/36/93 30/72/93 38/14/93
f 20/37/94 31/67/94 39/38/94
f 23/44/95 34/62/95 40/45/95
f 15/47/96 35/58/96 41/23/96
f 19/48/97 36/53/97 42/49/97
f 21/51/98 11/46/98 48/52/98
f 36/53/99 19/48/99 49/54/99
f 9/55/100 21/51/100 49/54/100
f 17/56/101 7/50/101 47/57/101
f 35/58/102 15/47/102 50/59/102
f 5/60/103 17/56/103 50/59/103
f 13/61/104 3/22/104 46/24/104
f 34/62/105 23/44/105 51/63/105
f 1/64/106 13/61/106 51/63/106
f 18/65/107 6/35/107 45/66/107
f 31/67/108 20/37/108 52/68/108
f 8/69/109 18/65/109 52/68/109
f 22/70/110 10/39/110 44/71/110
f 30/72/111 24/36/111 53/73/111
f 12/74/112 22/70/112 53/73/112
f 14/75/113 2/13/113 43/15/113
f 29/76/114 16/33/114 54/77/114
f 4/78/115 14/75/115 54/77/115
