# Blender 4.3.0
# www.blender.org
o Cylinder
v 0.000000 -2.390137 -24.857285
v 0.000000 2.625057 -25.162451
v 21.649822 -2.499279 -12.499532
v 21.628448 2.480278 -12.487190
v 21.612501 -2.466103 12.477983
v 21.570515 2.428781 12.453743
v 0.000000 -2.440459 24.922655
v 0.000000 2.517059 25.022161
v -21.713579 -2.555951 12.536341
v -21.652386 2.501556 12.501011
v -21.665464 -2.513182 -12.508562
v -21.724802 2.565927 -12.542820
v 10.874664 -2.598693 -18.835472
v 10.769610 2.388586 -18.653511
v 21.588976 -2.438342 0.000000
v 21.616364 2.465730 0.000000
v 10.900167 -2.649696 18.879642
v 10.746051 2.341468 18.612705
v -10.892262 -2.633889 18.865953
v -10.802057 2.453480 18.709713
v -21.477934 -2.327301 0.000000
v -21.714388 2.563753 0.000000
v -10.738896 -2.327161 -18.600315
v -10.858770 2.566905 -18.807941
v 10.847689 0.000000 -18.788748
v 21.682251 0.000000 0.000000
v 10.736035 0.000000 18.595360
v -10.860246 0.000000 18.810497
v 10.825317 2.355155 -6.250000
v -10.825317 2.412677 -6.250000
v 0.000000 2.686522 12.500000
v -21.522017 0.000000 0.000000
v -10.886935 0.000000 -18.856724
v 0.000000 -2.368215 -12.500000
v 10.825317 -2.338162 6.250000
v -10.825317 -2.671908 6.250000
v 16.237976 2.470756 3.125000
v -5.412659 2.280968 -15.625000
v -10.825317 2.348945 12.500000
v -10.825317 -2.483666 -12.500000
v 16.237976 -2.593181 -3.125000
v -5.412659 -2.672093 15.625000
v 5.412659 2.295164 -15.625000
v -16.237976 2.622151 3.125000
v 10.825317 2.427585 12.500000
v 10.825317 -2.655860 -12.500000
v 5.412659 -2.463832 15.625000
v -16.237976 -2.435489 -3.125000
v -16.237976 -2.295714 9.375000
v 16.237976 -2.639294 9.375000
v 0.000000 -2.674234 -18.750000
v 0.000000 2.456740 18.750000
v -16.237976 2.624051 -9.375000
v 16.237976 2.683830 -9.375000
v -5.412659 -2.287740 -3.125000
v 5.412659 -2.463112 -3.125000
v 0.000000 -2.319273 6.250000
v 5.412659 2.347714 3.125000
v 0.000000 2.476916 -6.250000
v -5.412659 2.640210 3.125000
vn 0.5066 0.0208 -0.8619
vn 0.9993 -0.0382 -0.0020
vn 0.4830 0.1229 0.8670
vn -0.5046 0.0243 0.8630
vn -0.0013 0.9994 0.0353
vn -0.9997 -0.0189 0.0153
vn -0.5000 -0.1262 -0.8568
vn 0.0145 -0.9999 -0.0017
vn 0.4923 0.0652 -0.8680
vn 0.9996 0.0267 0.0038
vn 0.5121 -0.0086 0.8589
vn -0.4959 0.0474 0.8671
vn 0.0027 1.0000 0.0030
vn 0.0236 0.9985 0.0494
vn 0.0141 0.9998 -0.0169
vn -0.9972 -0.0748 0.0008
vn -0.5050 0.0219 -0.8628
vn 0.0027 -0.9997 -0.0256
vn 0.0260 -0.9996 0.0050
vn 0.0058 -0.9998 0.0215
vn -0.0265 -0.9996 -0.0099
vn -0.0510 -0.9982 0.0319
vn 0.0203 -0.9987 -0.0470
vn -0.0193 -0.9995 -0.0245
vn -0.0415 -0.9988 -0.0244
vn 0.0335 -0.9994 -0.0023
vn -0.0266 -0.9996 -0.0092
vn 0.0073 -0.9988 0.0489
vn -0.0329 -0.9984 -0.0464
vn -0.4994 0.0219 -0.8661
vn -0.9972 -0.0748 0.0046
vn 0.0239 0.9996 0.0144
vn 0.0112 0.9993 0.0367
vn -0.0003 1.0000 -0.0096
vn 0.0016 0.9998 -0.0214
vn 0.0264 0.9994 0.0219
vn -0.0053 0.9999 -0.0091
vn -0.0159 0.9999 0.0028
vn -0.0589 0.9983 0.0030
vn 0.0384 0.9993 0.0012
vn -0.5042 0.0474 0.8623
vn 0.4946 -0.0086 0.8691
vn 0.9996 0.0267 0.0010
vn 0.5172 0.0652 -0.8534
vn 0.0107 -0.9998 0.0147
vn -0.0162 -0.9999 -0.0008
vn -0.0017 -0.9999 -0.0144
vn -0.5054 -0.0117 -0.8628
vn -0.9998 0.0120 -0.0128
vn -0.0114 0.9999 -0.0058
vn 0.0112 0.9999 0.0073
vn -0.0017 0.9997 -0.0233
vn -0.4934 -0.0175 0.8696
vn 0.4917 0.0085 0.8707
vn 1.0000 0.0043 -0.0035
vn 0.4964 -0.0527 -0.8665
vn 0.5039 0.0043 -0.8638
vn 0.9999 0.0086 0.0073
vn 0.5106 -0.0173 0.8597
vn -0.5026 0.0121 0.8644
vn -0.9998 -0.0116 0.0138
vn -0.4909 -0.0529 -0.8696
vn -0.4814 -0.1262 -0.8674
vn -0.9996 -0.0189 -0.0191
vn -0.4862 0.0243 0.8735
vn 0.5075 0.1229 0.8528
vn 0.9993 -0.0382 0.0051
vn 0.4846 0.0208 -0.8745
vn -0.0312 0.9994 0.0131
vn -0.0017 0.9995 0.0301
vn 0.0141 0.9997 0.0210
vn 0.0270 0.9994 -0.0205
vn 0.0270 0.9996 -0.0018
vn -0.0059 0.9998 -0.0208
vn -0.0001 1.0000 0.0046
vn -0.0114 0.9999 -0.0020
vn 0.0239 0.9995 -0.0223
vn 0.0326 -0.9993 -0.0188
vn 0.0192 -0.9995 -0.0265
vn 0.0192 -0.9997 0.0137
vn 0.0325 -0.9992 -0.0222
vn -0.0162 -0.9999 0.0060
vn -0.0017 -0.9999 0.0143
vn 0.0027 -1.0000 0.0067
vn 0.0136 -0.9998 0.0130
vn 0.0136 -0.9994 -0.0331
vn -0.0266 -0.9996 0.0052
vn -0.0120 -0.9998 0.0136
vn -0.0120 -0.9997 0.0203
vn 0.0112 0.9999 -0.0129
vn -0.0013 0.9998 -0.0201
vn -0.0059 0.9998 -0.0175
vn -0.0047 0.9999 -0.0096
vn 0.0453 0.9989 0.0121
vn -0.0312 0.9994 -0.0167
vn 0.0107 -0.9996 -0.0255
vn 0.0098 -0.9994 0.0328
vn -0.0052 -1.0000 0.0030
vn -0.0117 -0.9998 0.0150
vn -0.0678 -0.9977 0.0026
vn 0.0374 -0.9991 -0.0175
vn -0.0263 -0.9996 -0.0128
vn -0.0325 -0.9987 -0.0400
vn 0.0248 -0.9996 0.0128
vn 0.0145 -0.9999 -0.0089
vn -0.0316 -0.9983 0.0489
vn 0.0066 -0.9989 -0.0465
vn -0.0001 0.9999 0.0141
vn -0.0004 0.9993 0.0367
vn 0.0106 0.9999 -0.0096
vn -0.0135 0.9999 0.0050
vn 0.0320 0.9994 0.0122
vn -0.0107 0.9999 0.0002
vn 0.0016 0.9994 0.0337
vn -0.0355 0.9984 0.0436
vn 0.0145 0.9991 -0.0403
vt 0.916667 0.750000
vt 0.833333 0.500000
vt 0.916667 0.500000
vt 0.750000 0.750000
vt 0.666667 0.500000
vt 0.750000 0.500000
vt 0.583333 0.750000
vt 0.500000 0.500000
vt 0.583333 0.500000
vt 0.416667 0.750000
vt 0.333333 0.500000
vt 0.416667 0.500000
vt 0.250000 0.490000
vt 0.198038 0.400000
vt 0.301962 0.400000
vt 0.250000 0.750000
vt 0.166667 0.500000
vt 0.250000 0.500000
vt 0.083333 0.750000
vt -0.000000 0.500000
vt 0.083333 0.500000
vt 0.957846 0.370000
vt 0.905885 0.280000
vt 0.853923 0.370000
vt 0.833333 1.000000
vt 0.916667 1.000000
vt 0.666667 1.000000
vt 0.750000 1.000000
vt 0.500000 1.000000
vt 0.583333 1.000000
vt 0.333333 1.000000
vt 0.416667 1.000000
vt 0.457846 0.250000
vt 0.405885 0.220000
vt 0.457846 0.130000
vt 0.146077 0.430000
vt 0.146077 0.070000
vt 0.146077 0.130000
vt 0.042154 0.130000
vt 0.166667 1.000000
vt 0.250000 1.000000
vt -0.000000 1.000000
vt 0.083333 1.000000
vt 0.646077 0.430000
vt 0.646077 0.370000
vt 0.542154 0.370000
vt 0.957846 0.250000
vt 0.646077 0.070000
vt 0.698038 0.100000
vt 0.750000 0.010000
vt 0.542154 0.250000
vt 0.594115 0.280000
vt 0.646077 0.190000
vt 0.594115 0.160000
vt 0.542154 0.130000
vt 0.853923 0.070000
vt 0.801962 0.100000
vt 0.853923 0.190000
vt 0.905885 0.160000
vt 0.957846 0.130000
vt 0.853923 0.430000
vt 0.750000 0.370000
vt 0.750000 0.430000
vt 0.750000 0.490000
vt 0.353923 0.070000
vt 0.353923 0.130000
vt 0.250000 0.130000
vt 0.250000 0.070000
vt 0.250000 0.010000
vt 0.042154 0.250000
vt 0.094115 0.220000
vt 0.146077 0.310000
vt 0.094115 0.340000
vt 0.042154 0.370000
vt 0.353923 0.430000
vt 0.353923 0.310000
vt 0.405885 0.340000
vt 0.457846 0.370000
vt 1.000000 1.000000
vt 0.698038 0.280000
vt 0.801962 0.280000
vt 0.750000 0.190000
vt 0.301962 0.220000
vt 0.250000 0.310000
vt 0.198038 0.220000
vt 1.000000 0.500000
s 0
f 25/1/1 3/2/1 13/3/1
f 26/4/2 5/5/2 15/6/2
f 27/7/3 7/8/3 17/9/3
f 28/10/4 9/11/4 19/12/4
f 2/13/5 38/14/5 43/15/5
f 32/16/6 11/17/6 21/18/6
f 33/19/7 1/20/7 23/21/7
f 3/22/8 41/23/8 46/24/8
f 4/25/9 25/1/9 14/26/9
f 6/27/10 26/4/10 16/28/10
f 8/29/11 27/7/11 18/30/11
f 10/31/12 28/10/12 20/32/12
f 16/33/13 37/34/13 6/35/13
f 24/36/14 38/14/14 2/13/14
f 20/37/15 39/38/15 10/39/15
f 12/40/16 32/16/16 22/41/16
f 2/42/17 33/19/17 24/43/17
f 23/44/18 40/45/18 11/46/18
f 15/47/19 41/23/19 3/22/19
f 19/48/20 42/49/20 7/50/20
f 21/51/21 48/52/21 36/53/21
f 36/53/22 49/54/22 21/51/22
f 9/55/23 49/54/23 19/48/23
f 17/56/24 47/57/24 35/58/24
f 35/58/25 50/59/25 17/56/25
f 5/60/26 50/59/26 15/47/26
f 13/61/27 46/24/27 34/62/27
f 34/62/28 51/63/28 13/61/28
f 1/64/29 51/63/29 23/44/29
f 12/40/30 24/43/30 33/19/30
f 10/31/31 22/41/31 32/16/31
f 18/65/32 45/66/32 31/67/32
f 31/67/33 52/68/33 18/65/33
f 8/69/34 52/68/34 20/37/34
f 22/70/35 44/71/35 30/72/35
f 30/72/36 53/73/36 22/70/36
f 12/74/37 53/73/37 24/36/37
f 14/75/38 43/15/38 29/76/38
f 29/76/39 54/77/39 14/75/39
f 4/78/40 54/77/40 16/33/40
f 8/29/41 20/32/41 28/10/41
f 6/27/42 18/30/42 27/7/42
f 4/25/43 16/28/43 26/4/43
f 2/79/44 14/26/44 25/1/44
f 34/62/45 55/80/45 40/45/45
f 34/62/46 56/81/46 55/80/46
f 35/58/47 47/57/47 57/82/47
f 33/19/48 11/17/48 12/40/48
f 32/16/49 9/11/49 10/31/49
f 29/76/50 58/83/50 37/34/50
f 29/76/51 59/84/51 58/83/51
f 30/72/52 44/71/52 60/85/52
f 28/10/53 7/8/53 8/29/53
f 27/7/54 5/5/54 6/27/54
f 26/4/55 3/2/55 4/25/55
f 25/1/56 1/86/56 2/79/56
f 4/25/57 3/2/57 25/1/57
f 6/27/58 5/5/58 26/4/58
f 8/29/59 7/8/59 27/7/59
f 10/31/60 9/11/60 28/10/60
f 12/40/61 11/17/61 32/16/61
f 2/42/62 1/20/62 33/19/62
f 33/19/63 23/21/63 11/17/63
f 32/16/64 21/18/64 9/11/64
f 28/10/65 19/12/65 7/8/65
f 27/7/66 17/9/66 5/5/66
f 26/4/67 15/6/67 3/2/67
f 25/1/68 13/3/68 1/86/68
f 60/85/69 39/38/69 31/67/69
f 60/85/70 44/71/70 39/38/70
f 44/71/71 10/39/71 39/38/71
f 58/83/72 60/85/72 31/67/72
f 58/83/73 59/84/73 60/85/73
f 59/84/74 30/72/74 60/85/74
f 37/34/75 45/66/75 6/35/75
f 37/34/76 58/83/76 45/66/76
f 58/83/77 31/67/77 45/66/77
f 57/82/78 42/49/78 36/53/78
f 57/82/79 47/57/79 42/49/79
f 47/57/80 7/50/80 42/49/80
f 55/80/81 57/82/81 36/53/81
f 55/80/82 56/81/82 57/82/82
f 56/81/83 35/58/83 57/82/83
f 40/45/84 48/52/84 11/46/84
f 40/45/85 55/80/85 48/52/85
f 55/80/86 36/53/86 48/52/86
f 46/24/87 56/81/87 34/62/87
f 46/24/88 41/23/88 56/81/88
f 41/23/89 35/58/89 56/81/89
f 43/15/90 59/84/90 29/76/90
f 43/15/91 38/14/91 59/84/91
f 38/14/92 30/72/92 59/84/92
f 16/33/93 29/76/93 37/34/93
f 24/36/94 30/72/94 38/14/94
f 20/37/95 31/67/95 39/38/95
f 23/44/96 34/62/96 40/45/96
f 15/47/97 35/58/97 41/23/97
f 19/48/98 36/53/98 42/49/98
f 21/51/99 11/46/99 48/52/99
f 36/53/100 19/48/100 49/54/100
f 9/55/101 21/51/101 49/54/101
f 17/56/102 7/50/102 47/57/102
f 35/58/103 15/47/103 50/59/103
f 5/60/104 17/56/104 50/59/104
f 13/61/105 3/22/105 46/24/105
f 34/62/106 23/44/106 51/63/106
f 1/64/107 13/61/107 51/63/107
f 18/65/108 6/35/108 45/66/108
f 31/67/109 20/37/109 52/68/109
f 8/69/110 18/65/110 52/68/110
f 22/70/111 10/39/111 44/71/111
f 30/72/112 24/36/112 53/73/112
f 12/74/113 22/70/113 53/73/113
f 14/75/114 2/13/114 43/15/114
f 29/76/115 16/33/115 54/77/115
f 4/78/116 14/75/116 54/77/116
