# Blender 5.1.1
# www.blender.org
mtllib aggregate-2p9mm.mtl
o HexagonalBullet.002
v 253.332321 -424.062164 48.163666
v -131.134155 209.674927 -28.917353
v 22.133867 -328.956207 49.626480
v 76.546936 -312.833893 -89.223412
v 204.565765 -237.863235 -111.372520
v 278.171539 -179.014908 5.328249
v 223.758453 -195.137222 144.178131
v 95.739624 -270.107880 166.327240
v -336.171509 367.472443 -171.968628
v -390.584564 351.350128 -33.118729
v -208.152679 442.443085 -194.117737
v -134.546921 501.291412 -77.416954
v -188.959991 485.169098 61.432926
v -316.978821 410.198456 83.582039
v 250.580490 -433.949371 50.023392
v -32.218002 -1110.236938 184.332306
v 313.022888 -673.430725 85.373138
v 234.257874 -665.800964 -42.054768
v 95.920639 -607.815491 -41.359901
v 36.348328 -557.459656 86.762871
v 115.113327 -565.089478 214.190750
v 253.450546 -623.075012 213.495880
v -69.321732 -1391.784546 102.123634
v 9.443346 -1399.414429 229.551514
v -207.658951 -1333.799072 102.818497
v -267.231171 -1283.443359 230.941284
v -188.466202 -1291.073120 358.369141
v -50.128983 -1349.058594 357.674286
v 261.982025 -427.541565 48.095776
v 1002.621826 -497.559113 4.177663
v 473.156555 -299.047241 10.752668
v 457.356018 -394.052765 -104.244278
v 444.947662 -541.337708 -78.687492
v 448.339844 -593.617249 61.866207
v 464.140350 -498.611816 176.863159
v 476.548706 -351.326752 151.306366
v 1252.420654 -469.215332 -151.389664
v 1268.221191 -374.209839 -36.392719
v 1240.012329 -616.500427 -125.832863
v 1243.404541 -668.779968 14.720846
v 1259.205078 -573.774475 129.717789
v 1271.613525 -426.489380 104.161003
v 457.054565 -616.116882 354.533356
v 457.054535 129.120468 354.533264
v 457.054535 -416.116882 204.533340
v 586.958374 -416.116821 279.533356
v 586.958374 -416.116852 429.533325
v 457.054565 -416.116852 504.533356
v 327.150757 -416.116852 429.533325
v 327.150757 -416.116852 279.533356
v 586.958313 383.883148 279.533264
v 457.054535 383.883148 204.533264
v 586.958374 383.883148 429.533295
v 457.054504 383.883179 504.533295
v 327.150696 383.883148 429.533295
v 327.150696 383.883179 279.533295
v 457.054565 -623.297424 346.968536
v 457.054626 -1066.397583 -252.231949
v 457.054535 -862.818542 275.346893
v 586.958374 -802.515564 230.753708
v 586.958313 -681.909546 141.567352
v 457.054565 -621.606689 96.974190
v 327.150787 -681.909607 141.567352
v 327.150818 -802.515503 230.753708
v 586.958435 -1278.176270 -412.478119
v 457.054565 -1338.479126 -367.884949
v 586.958374 -1157.570190 -501.664429
v 457.054565 -1097.267334 -546.257690
v 327.150818 -1157.570312 -501.664429
v 327.150848 -1278.176270 -412.478180
v 457.054596 -623.531067 360.186523
v 457.054565 -1060.624878 963.782166
v 457.054596 -619.343628 610.151428
v 586.958313 -680.088928 566.162720
v 586.958374 -801.579529 478.185242
v 457.054626 -862.324890 434.196564
v 327.150818 -801.579590 478.185272
v 327.150818 -680.088989 566.162659
v 586.958435 -1149.302002 1214.112671
v 457.054626 -1088.556641 1258.101440
v 586.958374 -1270.792725 1126.135132
v 457.054688 -1331.537842 1082.146484
v 327.150818 -1270.792725 1126.135132
v 327.150848 -1149.302124 1214.112671
v 281.111481 -404.406555 954.622314
v 281.111389 228.118347 1348.692017
v 152.190323 -194.109726 995.299072
v 283.055054 -155.344315 933.076355
v 411.976135 -195.889862 998.156433
v 410.032562 -275.200806 1125.459229
v 279.167847 -313.966278 1187.681763
v 150.246719 -273.420685 1122.601807
v 283.054962 523.660767 1356.103760
v 152.190231 484.895294 1418.326416
v 411.976044 483.115204 1421.183716
v 410.032471 403.804230 1548.486450
v 279.167786 365.038788 1610.709229
v 150.246658 405.584351 1545.629150
v 274.609680 -408.456329 947.543152
v -240.387497 -622.574158 453.265625
v 213.052826 -592.391785 789.813904
v 241.130264 -470.117340 707.591003
v 164.476913 -343.644867 732.670532
v 59.746048 -339.446869 839.973022
v 31.668627 -461.721344 922.196106
v 108.322006 -588.193726 897.116516
v -311.710754 -699.969299 176.992157
v -339.788177 -822.243774 259.215210
v -388.364014 -573.496826 202.071716
v -493.094910 -569.298889 309.374237
v -521.172302 -691.573303 391.597290
v -444.519135 -818.045715 366.517609
v 285.970184 -412.227448 953.154419
v 804.744995 -946.367615 983.906372
v 500.808533 -476.239807 1063.820190
v 529.405518 -456.869202 917.851074
v 453.791229 -536.204529 815.438293
v 349.579956 -634.910400 858.994568
v 320.983002 -654.281006 1004.963745
v 396.597290 -574.945618 1107.376587
v 1086.301758 -1030.260010 950.862549
v 1057.704834 -1049.630615 1096.831787
v 1010.687317 -1109.595459 848.449646
v 906.476074 -1208.301147 892.006042
v 877.879028 -1227.671631 1037.975098
v 953.493469 -1148.336304 1140.388062
vn -0.7761 -0.5151 -0.3639
vn -0.0739 -0.1645 -0.9836
vn 0.7022 0.3506 -0.6197
vn 0.7761 0.5151 0.3639
vn 0.0739 0.1645 0.9836
vn -0.7022 -0.3506 0.6197
vn -0.3079 -0.7572 0.5760
vn 0.3430 -0.3253 0.8812
vn 0.9318 -0.0313 0.3615
vn 0.8699 -0.1692 -0.4633
vn 0.2191 -0.6011 -0.7685
vn -0.3698 -0.8952 -0.2489
vn 0.4570 0.8452 0.2772
vn -0.1685 0.5328 0.8293
vn -0.8599 0.0739 0.5051
vn -0.9257 -0.0726 -0.3712
vn -0.3002 0.2398 -0.9233
vn 0.3912 0.6986 -0.5990
vn 0.7618 -0.4170 -0.4958
vn -0.8356 0.2526 -0.4878
vn -0.7618 0.4170 0.4958
vn 0.8356 -0.2526 0.4878
vn 0.9075 0.2825 0.3109
vn 0.2687 0.6322 0.7267
vn -0.4321 0.8440 0.3176
vn -0.4941 0.7061 -0.5072
vn 0.1447 0.3564 -0.9231
vn 0.8455 0.1446 -0.5140
vn -0.8510 -0.0407 0.5236
vn -0.1066 -0.2657 0.9581
vn 0.5721 -0.6372 0.5164
vn 0.5062 -0.7837 -0.3598
vn -0.2382 -0.5587 -0.7944
vn -0.9168 -0.1872 -0.3527
vn 0.0347 0.7681 -0.6394
vn -0.1086 -0.9326 -0.3443
vn -0.0347 -0.7681 0.6394
vn 0.1086 0.9326 0.3443
vn -0.4503 0.8333 0.3208
vn -0.4794 0.1891 0.8570
vn -0.5704 -0.5930 0.5683
vn -0.6324 -0.7309 -0.2566
vn -0.6033 -0.0867 -0.7928
vn -0.5122 0.6953 -0.5041
vn 0.4205 -0.7270 0.5428
vn 0.5173 0.1038 0.8495
vn 0.5482 0.7881 0.2799
vn 0.4824 0.6416 -0.5964
vn 0.3856 -0.1892 -0.9030
vn 0.3547 -0.8735 -0.3335
vn 0.5000 -0.0000 -0.8660
vn 1.0000 -0.0000 -0.0000
vn 0.5000 -0.0000 0.8660
vn -0.5000 -0.0000 0.8660
vn -1.0000 -0.0000 -0.0000
vn -0.5000 -0.0000 -0.8660
vn -0.4193 -0.5447 -0.7263
vn -0.8386 -0.5447 -0.0000
vn -0.4193 -0.5447 0.7263
vn 0.4193 -0.5447 0.7263
vn 0.8386 -0.5447 -0.0000
vn 0.4193 -0.5447 -0.7263
vn -0.4454 0.4543 0.7715
vn -0.8909 0.4543 -0.0000
vn -0.4454 0.4543 -0.7715
vn 0.4454 0.4543 -0.7715
vn 0.8909 0.4543 -0.0000
vn 0.4454 0.4543 0.7715
vn 0.5000 -0.6963 0.5149
vn 0.5000 0.6963 -0.5149
vn -0.5000 0.6963 -0.5149
vn -0.5000 -0.6963 0.5149
vn -0.4193 -0.2601 0.8698
vn -0.8386 0.3239 0.4380
vn -0.4193 0.9078 0.0061
vn 0.4193 0.9078 0.0061
vn 0.8386 0.3239 0.4380
vn 0.4193 -0.2601 0.8698
vn -0.4454 0.3502 -0.8240
vn -0.8909 -0.2701 -0.3652
vn -0.4454 -0.8904 0.0935
vn 0.4454 -0.8904 0.0935
vn 0.8909 -0.2701 -0.3652
vn 0.4454 0.3502 -0.8240
vn 0.5000 0.7014 0.5079
vn 0.5000 -0.7014 -0.5079
vn -0.5000 -0.7014 -0.5079
vn -0.5000 0.7014 0.5079
vn -0.4193 0.9077 -0.0152
vn -0.8386 0.3195 -0.4412
vn -0.4193 -0.2688 -0.8671
vn 0.4193 -0.2688 -0.8671
vn 0.8386 0.3195 -0.4412
vn 0.4193 0.9077 -0.0152
vn -0.4454 -0.8913 -0.0846
vn -0.8909 -0.2664 0.3679
vn -0.4454 0.3585 0.8204
vn 0.4454 0.3585 0.8204
vn 0.8909 -0.2664 0.3679
vn 0.4454 -0.8913 -0.0846
vn -0.4887 0.4613 -0.7405
vn 0.5112 0.4545 -0.7295
vn 0.9999 -0.0069 0.0110
vn 0.4887 -0.4613 0.7405
vn -0.5112 -0.4545 0.7295
vn -0.9999 0.0069 -0.0110
vn -0.8386 -0.4566 -0.2973
vn -0.4287 -0.8435 0.3237
vn 0.4099 -0.8492 0.3330
vn 0.8386 -0.4681 -0.2788
vn 0.4287 -0.0812 -0.8998
vn -0.4099 -0.0754 -0.9090
vn 0.4354 -0.0254 0.8999
vn -0.4554 -0.0193 0.8901
vn -0.8908 0.3917 0.2304
vn -0.4354 0.7965 -0.4195
vn 0.4554 0.7904 -0.4097
vn 0.8908 0.3794 0.2500
vn 0.6981 -0.5030 -0.5095
vn -0.1870 0.9574 -0.2199
vn -0.6981 0.5030 0.5095
vn 0.1870 -0.9574 0.2199
vn 0.5332 -0.6464 0.5457
vn -0.0523 -0.2246 0.9730
vn -0.2091 0.5783 0.7886
vn 0.2196 0.9594 0.1768
vn 0.8051 0.5376 -0.2505
vn 0.9619 -0.2653 -0.0660
vn -0.9359 0.3175 0.1526
vn -0.7693 -0.5354 0.3486
vn -0.1473 -0.9835 -0.1053
vn 0.3080 -0.5786 -0.7552
vn 0.1415 0.2744 -0.9512
vn -0.4805 0.7224 -0.4972
vn 0.6921 0.6853 0.2265
vn -0.1810 -0.2308 -0.9560
vn -0.6921 -0.6853 -0.2265
vn 0.1810 0.2308 0.9560
vn -0.2274 0.5840 0.7793
vn -0.8079 0.0093 0.5893
vn -0.9596 -0.1843 -0.2125
vn -0.5309 0.1969 -0.8242
vn 0.0495 0.7715 -0.6342
vn 0.2013 0.9651 0.1675
vn -0.3004 -0.9361 -0.1831
vn -0.1392 -0.7305 0.6686
vn 0.4774 -0.1200 0.8704
vn 0.9328 0.2849 0.2206
vn 0.7716 0.0793 -0.6311
vn 0.1550 -0.5312 -0.8329
vt 1.000000 0.750000
vt 1.000000 1.000000
vt 0.833333 1.000000
vt 0.833333 0.750000
vt 0.666667 1.000000
vt 0.666667 0.750000
vt 0.500000 1.000000
vt 0.500000 0.750000
vt 0.333333 1.000000
vt 0.333333 0.750000
vt 0.166667 1.000000
vt 0.166667 0.750000
vt -0.000000 1.000000
vt -0.000000 0.750000
vt 0.166667 0.500000
vt 0.333333 0.500000
vt 0.500000 0.500000
vt 0.666667 0.500000
vt 0.833333 0.500000
vt 1.000000 0.500000
vt 0.397846 0.335359
vt 0.457846 0.370000
vt 0.250000 0.490000
vt 0.397846 0.164641
vt 0.457846 0.130000
vt 0.250000 0.079282
vt 0.250000 0.010000
vt 0.102154 0.164641
vt 0.042154 0.130000
vt 0.102154 0.335359
vt 0.042154 0.370000
vt 0.250000 0.420718
s 1
f 3/1/1 10/2/1 9/3/1 4/4/1
f 4/4/2 9/3/2 11/5/2 5/6/2
f 5/6/3 11/5/3 12/7/3 6/8/3
f 6/8/4 12/7/4 13/9/4 7/10/4
f 7/10/5 13/9/5 14/11/5 8/12/5
f 8/12/6 14/11/6 10/13/6 3/14/6
f 1/15/7 8/12/7 3/14/7
f 1/16/8 7/10/8 8/12/8
f 1/17/9 6/8/9 7/10/9
f 1/18/10 5/6/10 6/8/10
f 1/19/11 4/4/11 5/6/11
f 1/20/12 3/1/12 4/4/12
f 2/21/13 9/22/13 10/23/13
f 2/24/14 11/25/14 9/22/14
f 2/26/15 12/27/15 11/25/15
f 2/28/16 13/29/16 12/27/16
f 2/30/17 14/31/17 13/29/17
f 2/32/18 10/23/18 14/31/18
f 17/1/19 24/2/19 23/3/19 18/4/19
f 18/4/2 23/3/2 25/5/2 19/6/2
f 19/6/20 25/5/20 26/7/20 20/8/20
f 20/8/21 26/7/21 27/9/21 21/10/21
f 21/10/5 27/9/5 28/11/5 22/12/5
f 22/12/22 28/11/22 24/13/22 17/14/22
f 15/15/23 22/12/23 17/14/23
f 15/16/24 21/10/24 22/12/24
f 15/17/25 20/8/25 21/10/25
f 15/18/26 19/6/26 20/8/26
f 15/19/27 18/4/27 19/6/27
f 15/20/28 17/1/28 18/4/28
f 16/21/29 23/22/29 24/23/29
f 16/24/30 25/25/30 23/22/30
f 16/26/31 26/27/31 25/25/31
f 16/28/32 27/29/32 26/27/32
f 16/30/33 28/31/33 27/29/33
f 16/32/34 24/23/34 28/31/34
f 31/1/35 38/2/35 37/3/35 32/4/35
f 32/4/2 37/3/2 39/5/2 33/6/2
f 33/6/36 39/5/36 40/7/36 34/8/36
f 34/8/37 40/7/37 41/9/37 35/10/37
f 35/10/5 41/9/5 42/11/5 36/12/5
f 36/12/38 42/11/38 38/13/38 31/14/38
f 29/15/39 36/12/39 31/14/39
f 29/16/40 35/10/40 36/12/40
f 29/17/41 34/8/41 35/10/41
f 29/18/42 33/6/42 34/8/42
f 29/19/43 32/4/43 33/6/43
f 29/20/44 31/1/44 32/4/44
f 30/21/45 37/22/45 38/23/45
f 30/24/46 39/25/46 37/22/46
f 30/26/47 40/27/47 39/25/47
f 30/28/48 41/29/48 40/27/48
f 30/30/49 42/31/49 41/29/49
f 30/32/50 38/23/50 42/31/50
f 45/1/51 52/2/51 51/3/51 46/4/51
f 46/4/52 51/3/52 53/5/52 47/6/52
f 47/6/53 53/5/53 54/7/53 48/8/53
f 48/8/54 54/7/54 55/9/54 49/10/54
f 49/10/55 55/9/55 56/11/55 50/12/55
f 50/12/56 56/11/56 52/13/56 45/14/56
f 43/15/57 50/12/57 45/14/57
f 43/16/58 49/10/58 50/12/58
f 43/17/59 48/8/59 49/10/59
f 43/18/60 47/6/60 48/8/60
f 43/19/61 46/4/61 47/6/61
f 43/20/62 45/1/62 46/4/62
f 44/21/63 51/22/63 52/23/63
f 44/24/64 53/25/64 51/22/64
f 44/26/65 54/27/65 53/25/65
f 44/28/66 55/29/66 54/27/66
f 44/30/67 56/31/67 55/29/67
f 44/32/68 52/23/68 56/31/68
f 59/1/69 66/2/69 65/3/69 60/4/69
f 60/4/52 65/3/52 67/5/52 61/6/52
f 61/6/70 67/5/70 68/7/70 62/8/70
f 62/8/71 68/7/71 69/9/71 63/10/71
f 63/10/55 69/9/55 70/11/55 64/12/55
f 64/12/72 70/11/72 66/13/72 59/14/72
f 57/15/73 64/12/73 59/14/73
f 57/16/74 63/10/74 64/12/74
f 57/17/75 62/8/75 63/10/75
f 57/18/76 61/6/76 62/8/76
f 57/19/77 60/4/77 61/6/77
f 57/20/78 59/1/78 60/4/78
f 58/21/79 65/22/79 66/23/79
f 58/24/80 67/25/80 65/22/80
f 58/26/81 68/27/81 67/25/81
f 58/28/82 69/29/82 68/27/82
f 58/30/83 70/31/83 69/29/83
f 58/32/84 66/23/84 70/31/84
f 73/1/85 80/2/85 79/3/85 74/4/85
f 74/4/52 79/3/52 81/5/52 75/6/52
f 75/6/86 81/5/86 82/7/86 76/8/86
f 76/8/87 82/7/87 83/9/87 77/10/87
f 77/10/55 83/9/55 84/11/55 78/12/55
f 78/12/88 84/11/88 80/13/88 73/14/88
f 71/15/89 78/12/89 73/14/89
f 71/16/90 77/10/90 78/12/90
f 71/17/91 76/8/91 77/10/91
f 71/18/92 75/6/92 76/8/92
f 71/19/93 74/4/93 75/6/93
f 71/20/94 73/1/94 74/4/94
f 72/21/95 79/22/95 80/23/95
f 72/24/96 81/25/96 79/22/96
f 72/26/97 82/27/97 81/25/97
f 72/28/98 83/29/98 82/27/98
f 72/30/99 84/31/99 83/29/99
f 72/32/100 80/23/100 84/31/100
f 87/1/101 94/2/101 93/3/101 88/4/101
f 88/4/102 93/3/102 95/5/102 89/6/102
f 89/6/103 95/5/103 96/7/103 90/8/103
f 90/8/104 96/7/104 97/9/104 91/10/104
f 91/10/105 97/9/105 98/11/105 92/12/105
f 92/12/106 98/11/106 94/13/106 87/14/106
f 85/15/107 92/12/107 87/14/107
f 85/16/108 91/10/108 92/12/108
f 85/17/109 90/8/109 91/10/109
f 85/18/110 89/6/110 90/8/110
f 85/19/111 88/4/111 89/6/111
f 85/20/112 87/1/112 88/4/112
f 86/21/113 93/22/113 94/23/113
f 86/24/114 95/25/114 93/22/114
f 86/26/115 96/27/115 95/25/115
f 86/28/116 97/29/116 96/27/116
f 86/30/117 98/31/117 97/29/117
f 86/32/118 94/23/118 98/31/118
f 101/1/119 108/2/119 107/3/119 102/4/119
f 102/4/102 107/3/102 109/5/102 103/6/102
f 103/6/120 109/5/120 110/7/120 104/8/120
f 104/8/121 110/7/121 111/9/121 105/10/121
f 105/10/105 111/9/105 112/11/105 106/12/105
f 106/12/122 112/11/122 108/13/122 101/14/122
f 99/15/123 106/12/123 101/14/123
f 99/16/124 105/10/124 106/12/124
f 99/17/125 104/8/125 105/10/125
f 99/18/126 103/6/126 104/8/126
f 99/19/127 102/4/127 103/6/127
f 99/20/128 101/1/128 102/4/128
f 100/21/129 107/22/129 108/23/129
f 100/24/130 109/25/130 107/22/130
f 100/26/131 110/27/131 109/25/131
f 100/28/132 111/29/132 110/27/132
f 100/30/133 112/31/133 111/29/133
f 100/32/134 108/23/134 112/31/134
f 115/1/135 122/2/135 121/3/135 116/4/135
f 116/4/102 121/3/102 123/5/102 117/6/102
f 117/6/136 123/5/136 124/7/136 118/8/136
f 118/8/137 124/7/137 125/9/137 119/10/137
f 119/10/105 125/9/105 126/11/105 120/12/105
f 120/12/138 126/11/138 122/13/138 115/14/138
f 113/15/139 120/12/139 115/14/139
f 113/16/140 119/10/140 120/12/140
f 113/17/141 118/8/141 119/10/141
f 113/18/142 117/6/142 118/8/142
f 113/19/143 116/4/143 117/6/143
f 113/20/144 115/1/144 116/4/144
f 114/21/145 121/22/145 122/23/145
f 114/24/146 123/25/146 121/22/146
f 114/26/147 124/27/147 123/25/147
f 114/28/148 125/29/148 124/27/148
f 114/30/149 126/31/149 125/29/149
f 114/32/150 122/23/150 126/31/150
