# Blender 4.5.3 LTS
# www.blender.org
o HexagonalBullet.002
v 253.332321 -424.062164 48.163696
v -131.134155 209.674927 -28.917368
v 22.133867 -328.956207 49.626507
v 76.546936 -312.833893 -89.223389
v 204.565765 -237.863251 -111.372505
v 278.171539 -179.014908 5.328262
v 223.758453 -195.137207 144.178146
v 95.739624 -270.107880 166.327255
v -336.171509 367.472443 -171.968658
v -390.584564 351.350128 -33.118755
v -208.152679 442.443085 -194.117767
v -134.546921 501.291412 -77.416992
v -188.959991 485.169098 61.432888
v -316.978821 410.198456 83.582008
v 250.580490 -433.949371 50.023426
v -32.218002 -1110.236938 184.332382
v 313.022888 -673.430725 85.373192
v 234.257874 -665.800964 -42.054718
v 95.920639 -607.815491 -41.359856
v 36.348328 -557.459656 86.762917
v 115.113327 -565.089478 214.190796
v 253.450546 -623.075012 213.495926
v -69.321732 -1391.784546 102.123741
v 9.443346 -1399.414429 229.551620
v -207.658951 -1333.799072 102.818596
v -267.231171 -1283.443359 230.941376
v -188.466202 -1291.073120 358.369232
v -50.128983 -1349.058594 357.674377
v 261.982025 -427.541565 48.095806
v 1002.621826 -497.559113 4.177701
v 473.156555 -299.047241 10.752691
v 457.356018 -394.052765 -104.244247
v 444.947662 -541.337708 -78.687454
v 448.339844 -593.617249 61.866253
v 464.140350 -498.611816 176.863190
v 476.548706 -351.326752 151.306396
v 1252.420654 -469.215332 -151.389633
v 1268.221191 -374.209839 -36.392693
v 1240.012329 -616.500427 -125.832817
v 1243.404541 -668.779968 14.720897
v 1259.205078 -573.774475 129.717834
v 1271.613525 -426.489380 104.161034
v 457.054565 -616.116882 354.533417
v 457.054535 129.120499 354.533264
v 457.054535 -416.116852 204.533371
v 586.958374 -416.116791 279.533386
v 586.958374 -416.116821 429.533356
v 457.054565 -416.116821 504.533386
v 327.150757 -416.116821 429.533356
v 327.150757 -416.116821 279.533386
v 586.958313 383.883179 279.533234
v 457.054535 383.883179 204.533234
v 586.958374 383.883179 429.533264
v 457.054504 383.883209 504.533264
v 327.150696 383.883179 429.533264
v 327.150696 383.883209 279.533264
v 457.054565 -623.297424 346.968597
v 457.054626 -1066.397583 -252.231873
v 457.054535 -862.818542 275.346954
v 586.958374 -802.515564 230.753769
v 586.958313 -681.909546 141.567398
v 457.054565 -621.606689 96.974236
v 327.150787 -681.909607 141.567398
v 327.150818 -802.515503 230.753769
v 586.958435 -1278.176270 -412.478027
v 457.054565 -1338.479126 -367.884857
v 586.958374 -1157.570190 -501.664337
v 457.054565 -1097.267334 -546.257629
v 327.150818 -1157.570312 -501.664337
v 327.150848 -1278.176270 -412.478088
v 457.054596 -623.531067 360.186584
v 457.054565 -1060.624756 963.782227
v 457.054596 -619.343567 610.151489
v 586.958313 -680.088867 566.162781
v 586.958374 -801.579468 478.185303
v 457.054626 -862.324829 434.196625
v 327.150818 -801.579529 478.185333
v 327.150818 -680.088928 566.162720
v 586.958435 -1149.301880 1214.112793
v 457.054626 -1088.556519 1258.101562
v 586.958374 -1270.792603 1126.135254
v 457.054688 -1331.537720 1082.146606
v 327.150818 -1270.792603 1126.135254
v 327.150848 -1149.302002 1214.112793
v 281.111481 -404.406494 954.622375
v 281.111389 228.118454 1348.692017
v 152.190323 -194.109650 995.299072
v 283.055054 -155.344238 933.076355
v 411.976135 -195.889786 998.156433
v 410.032562 -275.200714 1125.459229
v 279.167847 -313.966187 1187.681763
v 150.246719 -273.420593 1122.601807
v 283.054962 523.660889 1356.103760
v 152.190231 484.895416 1418.326416
v 411.976044 483.115326 1421.183716
v 410.032471 403.804352 1548.486450
v 279.167786 365.038910 1610.709229
v 150.246658 405.584473 1545.629150
v 274.609680 -408.456268 947.543213
v -240.387497 -622.574097 453.265686
v 213.052826 -592.391724 789.813965
v 241.130264 -470.117279 707.591064
v 164.476913 -343.644806 732.670532
v 59.746048 -339.446808 839.973022
v 31.668627 -461.721283 922.196167
v 108.322006 -588.193665 897.116577
v -311.710754 -699.969299 176.992203
v -339.788177 -822.243774 259.215271
v -388.364014 -573.496826 202.071762
v -493.094910 -569.298889 309.374268
v -521.172302 -691.573303 391.597351
v -444.519135 -818.045715 366.517670
v 285.970184 -412.227386 953.154480
v 804.744995 -946.367554 983.906433
v 500.808533 -476.239716 1063.820190
v 529.405518 -456.869141 917.851135
v 453.791229 -536.204468 815.438354
v 349.579956 -634.910339 858.994629
v 320.983002 -654.280945 1004.963806
v 396.597290 -574.945557 1107.376587
v 1086.301758 -1030.259888 950.862610
v 1057.704834 -1049.630493 1096.831909
v 1010.687317 -1109.595337 848.449707
v 906.476074 -1208.301025 892.006104
v 877.879028 -1227.671509 1037.975220
v 953.493469 -1148.336182 1140.388184
vn -0.7761 -0.5151 -0.3639
vn -0.0739 -0.1645 -0.9836
vn 0.7022 0.3506 -0.6197
vn 0.7761 0.5151 0.3639
vn 0.0739 0.1645 0.9836
vn -0.7022 -0.3506 0.6197
vn -0.3079 -0.7572 0.5760
vn 0.3430 -0.3253 0.8812
vn 0.9318 -0.0313 0.3615
vn 0.8699 -0.1692 -0.4633
vn 0.2191 -0.6011 -0.7685
vn -0.3698 -0.8952 -0.2489
vn 0.4570 0.8452 0.2772
vn -0.1685 0.5328 0.8293
vn -0.8599 0.0739 0.5051
vn -0.9257 -0.0726 -0.3712
vn -0.3002 0.2398 -0.9233
vn 0.3912 0.6986 -0.5990
vn 0.7618 -0.4170 -0.4958
vn -0.8356 0.2526 -0.4878
vn -0.7618 0.4170 0.4958
vn 0.8356 -0.2526 0.4878
vn 0.9075 0.2825 0.3109
vn 0.2687 0.6322 0.7267
vn -0.4321 0.8440 0.3176
vn -0.4941 0.7061 -0.5072
vn 0.1447 0.3564 -0.9231
vn 0.8455 0.1446 -0.5140
vn -0.8510 -0.0407 0.5236
vn -0.1066 -0.2657 0.9581
vn 0.5721 -0.6372 0.5164
vn 0.5062 -0.7837 -0.3598
vn -0.2382 -0.5587 -0.7944
vn -0.9168 -0.1872 -0.3527
vn 0.0347 0.7681 -0.6394
vn -0.1086 -0.9326 -0.3443
vn -0.0347 -0.7681 0.6394
vn 0.1086 0.9326 0.3443
vn -0.4503 0.8333 0.3208
vn -0.4794 0.1891 0.8570
vn -0.5704 -0.5930 0.5683
vn -0.6324 -0.7309 -0.2566
vn -0.6033 -0.0867 -0.7928
vn -0.5122 0.6953 -0.5041
vn 0.4205 -0.7270 0.5428
vn 0.5173 0.1038 0.8495
vn 0.5482 0.7881 0.2799
vn 0.4824 0.6416 -0.5964
vn 0.3856 -0.1892 -0.9030
vn 0.3547 -0.8735 -0.3335
vn 0.5000 -0.0000 -0.8660
vn 1.0000 -0.0000 -0.0000
vn 0.5000 -0.0000 0.8660
vn -0.5000 -0.0000 0.8660
vn -1.0000 -0.0000 -0.0000
vn -0.5000 -0.0000 -0.8660
vn -0.4193 -0.5447 -0.7263
vn -0.8386 -0.5447 -0.0000
vn -0.4193 -0.5447 0.7263
vn 0.4193 -0.5447 0.7263
vn 0.8386 -0.5447 -0.0000
vn 0.4193 -0.5447 -0.7263
vn -0.4454 0.4543 0.7715
vn -0.8909 0.4543 -0.0000
vn -0.4454 0.4543 -0.7715
vn 0.4454 0.4543 -0.7715
vn 0.8909 0.4543 -0.0000
vn 0.4454 0.4543 0.7715
vn 0.5000 -0.6963 0.5149
vn 0.5000 0.6963 -0.5149
vn -0.5000 0.6963 -0.5149
vn -0.5000 -0.6963 0.5149
vn -0.4193 -0.2601 0.8698
vn -0.8386 0.3239 0.4380
vn -0.4193 0.9078 0.0061
vn 0.4193 0.9078 0.0061
vn 0.8386 0.3239 0.4380
vn 0.4193 -0.2601 0.8698
vn -0.4454 0.3502 -0.8240
vn -0.8909 -0.2701 -0.3652
vn -0.4454 -0.8904 0.0935
vn 0.4454 -0.8904 0.0935
vn 0.8909 -0.2701 -0.3652
vn 0.4454 0.3502 -0.8240
vn 0.5000 0.7014 0.5079
vn 0.5000 -0.7014 -0.5079
vn -0.5000 -0.7014 -0.5079
vn -0.5000 0.7014 0.5079
vn -0.4193 0.9077 -0.0152
vn -0.8386 0.3195 -0.4412
vn -0.4193 -0.2688 -0.8671
vn 0.4193 -0.2688 -0.8671
vn 0.8386 0.3195 -0.4412
vn 0.4193 0.9077 -0.0152
vn -0.4454 -0.8913 -0.0846
vn -0.8909 -0.2664 0.3679
vn -0.4454 0.3585 0.8204
vn 0.4454 0.3585 0.8204
vn 0.8909 -0.2664 0.3679
vn 0.4454 -0.8913 -0.0846
vn -0.4887 0.4613 -0.7405
vn 0.5112 0.4545 -0.7295
vn 0.9999 -0.0069 0.0110
vn 0.4887 -0.4613 0.7405
vn -0.5112 -0.4545 0.7295
vn -0.9999 0.0069 -0.0110
vn -0.8386 -0.4566 -0.2973
vn -0.4287 -0.8435 0.3237
vn 0.4099 -0.8492 0.3330
vn 0.8386 -0.4681 -0.2788
vn 0.4287 -0.0812 -0.8998
vn -0.4099 -0.0754 -0.9090
vn 0.4354 -0.0254 0.8999
vn -0.4554 -0.0193 0.8901
vn -0.8908 0.3917 0.2304
vn -0.4354 0.7965 -0.4195
vn 0.4554 0.7904 -0.4097
vn 0.8908 0.3794 0.2500
vn 0.6981 -0.5030 -0.5095
vn -0.1870 0.9574 -0.2199
vn -0.6981 0.5030 0.5095
vn 0.1870 -0.9574 0.2199
vn 0.5332 -0.6464 0.5457
vn -0.0523 -0.2246 0.9730
vn -0.2091 0.5783 0.7886
vn 0.2196 0.9594 0.1768
vn 0.8051 0.5376 -0.2505
vn 0.9619 -0.2653 -0.0660
vn -0.9359 0.3175 0.1526
vn -0.7693 -0.5354 0.3486
vn -0.1473 -0.9835 -0.1053
vn 0.3080 -0.5786 -0.7552
vn 0.1415 0.2744 -0.9512
vn -0.4805 0.7224 -0.4972
vn 0.6921 0.6853 0.2265
vn -0.1810 -0.2308 -0.9560
vn -0.6921 -0.6853 -0.2265
vn 0.1810 0.2308 0.9560
vn -0.2274 0.5840 0.7793
vn -0.8079 0.0093 0.5893
vn -0.9596 -0.1843 -0.2125
vn -0.5309 0.1969 -0.8242
vn 0.0495 0.7715 -0.6342
vn 0.2013 0.9651 0.1675
vn -0.3004 -0.9361 -0.1831
vn -0.1392 -0.7305 0.6686
vn 0.4774 -0.1200 0.8704
vn 0.9328 0.2849 0.2206
vn 0.7716 0.0793 -0.6311
vn 0.1550 -0.5312 -0.8329
s 1
f 10//1 4//1 3//1
f 9//2 5//2 4//2
f 11//3 6//3 5//3
f 6//4 13//4 7//4
f 13//5 8//5 7//5
f 14//6 3//6 8//6
f 1//7 8//7 3//7
f 1//8 7//8 8//8
f 1//9 6//9 7//9
f 1//10 5//10 6//10
f 1//11 4//11 5//11
f 1//12 3//12 4//12
f 2//13 9//13 10//13
f 2//14 11//14 9//14
f 2//15 12//15 11//15
f 2//16 13//16 12//16
f 2//17 14//17 13//17
f 2//18 10//18 14//18
f 24//19 18//19 17//19
f 23//2 19//2 18//2
f 25//20 20//20 19//20
f 26//21 21//21 20//21
f 27//5 22//5 21//5
f 22//22 24//22 17//22
f 15//23 22//23 17//23
f 15//24 21//24 22//24
f 15//25 20//25 21//25
f 15//26 19//26 20//26
f 15//27 18//27 19//27
f 15//28 17//28 18//28
f 16//29 23//29 24//29
f 16//30 25//30 23//30
f 16//31 26//31 25//31
f 16//32 27//32 26//32
f 16//33 28//33 27//33
f 16//34 24//34 28//34
f 31//35 37//35 32//35
f 37//2 33//2 32//2
f 39//36 34//36 33//36
f 40//37 35//37 34//37
f 35//5 42//5 36//5
f 42//38 31//38 36//38
f 29//39 36//39 31//39
f 29//40 35//40 36//40
f 29//41 34//41 35//41
f 29//42 33//42 34//42
f 29//43 32//43 33//43
f 29//44 31//44 32//44
f 30//45 37//45 38//45
f 30//46 39//46 37//46
f 30//47 40//47 39//47
f 30//48 41//48 40//48
f 30//49 42//49 41//49
f 30//50 38//50 42//50
f 52//51 46//51 45//51
f 51//52 47//52 46//52
f 53//53 48//53 47//53
f 54//54 49//54 48//54
f 55//55 50//55 49//55
f 56//56 45//56 50//56
f 43//57 50//57 45//57
f 43//58 49//58 50//58
f 43//59 48//59 49//59
f 43//60 47//60 48//60
f 43//61 46//61 47//61
f 43//62 45//62 46//62
f 44//63 51//63 52//63
f 44//64 53//64 51//64
f 44//65 54//65 53//65
f 44//66 55//66 54//66
f 44//67 56//67 55//67
f 44//68 52//68 56//68
f 66//69 60//69 59//69
f 65//52 61//52 60//52
f 67//70 62//70 61//70
f 68//71 63//71 62//71
f 63//55 70//55 64//55
f 70//72 59//72 64//72
f 57//73 64//73 59//73
f 57//74 63//74 64//74
f 57//75 62//75 63//75
f 57//76 61//76 62//76
f 57//77 60//77 61//77
f 57//78 59//78 60//78
f 58//79 65//79 66//79
f 58//80 67//80 65//80
f 58//81 68//81 67//81
f 58//82 69//82 68//82
f 58//83 70//83 69//83
f 58//84 66//84 70//84
f 80//85 74//85 73//85
f 74//52 81//52 75//52
f 81//86 76//86 75//86
f 82//87 77//87 76//87
f 83//55 78//55 77//55
f 84//88 73//88 78//88
f 71//89 78//89 73//89
f 71//90 77//90 78//90
f 71//91 76//91 77//91
f 71//92 75//92 76//92
f 71//93 74//93 75//93
f 71//94 73//94 74//94
f 72//95 79//95 80//95
f 72//96 81//96 79//96
f 72//97 82//97 81//97
f 72//98 83//98 82//98
f 72//99 84//99 83//99
f 72//100 80//100 84//100
f 87//101 93//101 88//101
f 93//102 89//102 88//102
f 95//103 90//103 89//103
f 96//104 91//104 90//104
f 97//105 92//105 91//105
f 98//106 87//106 92//106
f 85//107 92//107 87//107
f 85//108 91//108 92//108
f 85//109 90//109 91//109
f 85//110 89//110 90//110
f 85//111 88//111 89//111
f 85//112 87//112 88//112
f 86//113 93//113 94//113
f 86//114 95//114 93//114
f 86//115 96//115 95//115
f 86//116 97//116 96//116
f 86//117 98//117 97//117
f 86//118 94//118 98//118
f 108//119 102//119 101//119
f 102//102 109//102 103//102
f 109//120 104//120 103//120
f 104//121 111//121 105//121
f 111//105 106//105 105//105
f 106//122 108//122 101//122
f 99//123 106//123 101//123
f 99//124 105//124 106//124
f 99//125 104//125 105//125
f 99//126 103//126 104//126
f 99//127 102//127 103//127
f 99//128 101//128 102//128
f 100//129 107//129 108//129
f 100//130 109//130 107//130
f 100//131 110//131 109//131
f 100//132 111//132 110//132
f 100//133 112//133 111//133
f 100//134 108//134 112//134
f 115//135 121//135 116//135
f 121//102 117//102 116//102
f 123//136 118//136 117//136
f 118//137 125//137 119//137
f 119//105 126//105 120//105
f 126//138 115//138 120//138
f 113//139 120//139 115//139
f 113//140 119//140 120//140
f 113//141 118//141 119//141
f 113//142 117//142 118//142
f 113//143 116//143 117//143
f 113//144 115//144 116//144
f 114//145 121//145 122//145
f 114//146 123//146 121//146
f 114//147 124//147 123//147
f 114//148 125//148 124//148
f 114//149 126//149 125//149
f 114//150 122//150 126//150
f 10//1 9//1 4//1
f 9//2 11//2 5//2
f 11//3 12//3 6//3
f 6//4 12//4 13//4
f 13//5 14//5 8//5
f 14//6 10//6 3//6
f 24//19 23//19 18//19
f 23//2 25//2 19//2
f 25//20 26//20 20//20
f 26//21 27//21 21//21
f 27//5 28//5 22//5
f 22//22 28//22 24//22
f 31//35 38//35 37//35
f 37//2 39//2 33//2
f 39//36 40//36 34//36
f 40//37 41//37 35//37
f 35//5 41//5 42//5
f 42//38 38//38 31//38
f 52//51 51//51 46//51
f 51//52 53//52 47//52
f 53//53 54//53 48//53
f 54//54 55//54 49//54
f 55//55 56//55 50//55
f 56//56 52//56 45//56
f 66//69 65//69 60//69
f 65//52 67//52 61//52
f 67//70 68//70 62//70
f 68//71 69//71 63//71
f 63//55 69//55 70//55
f 70//72 66//72 59//72
f 80//85 79//85 74//85
f 74//52 79//52 81//52
f 81//86 82//86 76//86
f 82//87 83//87 77//87
f 83//55 84//55 78//55
f 84//88 80//88 73//88
f 87//101 94//101 93//101
f 93//102 95//102 89//102
f 95//103 96//103 90//103
f 96//104 97//104 91//104
f 97//105 98//105 92//105
f 98//106 94//106 87//106
f 108//119 107//119 102//119
f 102//102 107//102 109//102
f 109//120 110//120 104//120
f 104//121 110//121 111//121
f 111//105 112//105 106//105
f 106//122 112//122 108//122
f 115//135 122//135 121//135
f 121//102 123//102 117//102
f 123//136 124//136 118//136
f 118//137 124//137 125//137
f 119//105 125//105 126//105
f 126//138 122//138 115//138
