# Blender 4.5.3 LTS
# www.blender.org
o HexagonalBullet
v 0.000000 -5.000000 0.000000
v 0.000000 2.452373 0.000000
v 0.000000 -3.000000 -1.500000
v 1.299038 -3.000000 -0.750000
v 1.299038 -3.000000 0.750000
v 0.000000 -3.000000 1.500000
v -1.299038 -3.000000 0.750000
v -1.299038 -3.000000 -0.750000
v 1.299038 5.000000 -0.750000
v 0.000000 5.000000 -1.500000
v 1.299038 5.000000 0.750000
v 0.000000 5.000000 1.500000
v -1.299038 5.000000 0.750000
v -1.299038 5.000000 -0.750000
vn 0.5000 -0.0000 -0.8660
vn 1.0000 -0.0000 -0.0000
vn 0.5000 -0.0000 0.8660
vn -0.5000 -0.0000 0.8660
vn -1.0000 -0.0000 -0.0000
vn -0.5000 -0.0000 -0.8660
vn -0.4193 -0.5447 -0.7263
vn -0.8386 -0.5447 -0.0000
vn -0.4193 -0.5447 0.7263
vn 0.4193 -0.5447 0.7263
vn 0.8386 -0.5447 -0.0000
vn 0.4193 -0.5447 -0.7263
vn -0.4454 0.4543 0.7715
vn -0.8909 0.4543 -0.0000
vn -0.4454 0.4543 -0.7715
vn 0.4454 0.4543 -0.7715
vn 0.8909 0.4543 -0.0000
vn 0.4454 0.4543 0.7715
vt 1.000000 0.750000
vt 1.000000 1.000000
vt 0.833333 1.000000
vt 0.833333 0.750000
vt 0.666667 1.000000
vt 0.666667 0.750000
vt 0.500000 1.000000
vt 0.500000 0.750000
vt 0.333333 1.000000
vt 0.333333 0.750000
vt 0.166667 1.000000
vt 0.166667 0.750000
vt -0.000000 1.000000
vt -0.000000 0.750000
vt 0.166667 0.500000
vt 0.333333 0.500000
vt 0.500000 0.500000
vt 0.666667 0.500000
vt 0.833333 0.500000
vt 1.000000 0.500000
vt 0.397846 0.335359
vt 0.457846 0.370000
vt 0.250000 0.490000
vt 0.397846 0.164641
vt 0.457846 0.130000
vt 0.250000 0.079282
vt 0.250000 0.010000
vt 0.102154 0.164641
vt 0.042154 0.130000
vt 0.102154 0.335359
vt 0.042154 0.370000
vt 0.250000 0.420718
s 0
f 3/1/1 10/2/1 9/3/1 4/4/1
f 4/4/2 9/3/2 11/5/2 5/6/2
f 5/6/3 11/5/3 12/7/3 6/8/3
f 6/8/4 12/7/4 13/9/4 7/10/4
f 7/10/5 13/9/5 14/11/5 8/12/5
f 8/12/6 14/11/6 10/13/6 3/14/6
f 1/15/7 8/12/7 3/14/7
f 1/16/8 7/10/8 8/12/8
f 1/17/9 6/8/9 7/10/9
f 1/18/10 5/6/10 6/8/10
f 1/19/11 4/4/11 5/6/11
f 1/20/12 3/1/12 4/4/12
f 2/21/13 9/22/13 10/23/13
f 2/24/14 11/25/14 9/22/14
f 2/26/15 12/27/15 11/25/15
f 2/28/16 13/29/16 12/27/16
f 2/30/17 14/31/17 13/29/17
f 2/32/18 10/23/18 14/31/18
