# Blender 4.3.0
# www.blender.org
o Cylinder
v 0.000000 -3.860243 -26.766996
v 0.000000 0.754262 -22.732254
v 20.654156 -1.614226 -11.924682
v 23.420528 4.073248 -13.521848
v 20.226274 -1.233895 11.677646
v 22.632900 3.373139 13.067112
v 0.000000 -2.526138 25.033955
v 0.000000 0.614975 22.551296
v -23.682024 -4.305691 13.672824
v -20.517231 1.492514 11.845629
v -20.967258 -1.892544 -12.105453
v -22.976791 3.678813 -13.265657
v 10.626583 -2.102536 -18.405783
v 10.889002 2.627367 -18.860304
v 22.625010 -3.474364 0.000000
v 19.442827 0.292216 0.000000
v 9.901483 -0.652350 17.149872
v 10.816618 2.482602 18.734932
v -10.673706 -2.196780 18.487400
v -10.950390 2.750143 18.966633
v -21.421175 -2.270543 0.000000
v -20.113396 0.962777 0.000000
v -10.612499 -2.074368 -18.381388
v -11.470932 3.791216 -19.868238
v 12.418350 0.000000 -21.509212
v 22.783413 0.000000 0.000000
v 10.843000 0.000000 18.780628
v -10.136492 0.000000 17.556919
v 10.825317 0.537226 -6.250000
v -10.825317 3.722755 -6.250000
v 0.000000 5.766789 12.500000
v -23.070332 0.000000 0.000000
v -11.675548 0.000000 -20.222641
v 0.000000 -5.683533 -12.500000
v 10.825317 -0.374338 6.250000
v -10.825317 -5.796081 6.250000
v 16.237976 2.544655 3.125000
v -5.412659 -0.470677 -15.625000
v -10.825317 1.825222 12.500000
v -10.825317 -0.058928 -12.500000
v 16.237976 -2.876226 -3.125000
v -5.412659 -4.287548 15.625000
v 5.412659 3.103093 -15.625000
v -16.237976 3.839127 3.125000
v 10.825317 0.951148 12.500000
v 10.825317 -3.577081 -12.500000
v 5.412659 -0.712393 15.625000
v -16.237976 -1.779415 -3.125000
v -16.237976 0.222613 9.375000
v 16.237976 -1.181993 9.375000
v 0.000000 -1.812402 -18.750000
v 0.000000 3.940346 18.750000
v -16.237976 4.612904 -9.375000
v 16.237976 4.694221 -9.375000
v -5.412659 -1.301427 -3.125000
v 5.412659 -0.705236 -3.125000
v 0.000000 -5.908285 6.250000
v 5.412659 3.689974 3.125000
v 0.000000 -0.281951 -6.250000
v -5.412659 5.169562 3.125000
vn 0.3051 -0.8609 -0.4071
vn 0.9769 -0.0445 0.2092
vn 0.3229 -0.9282 0.1849
vn -0.3736 0.4378 0.8178
vn -0.3126 0.9469 -0.0749
vn -0.8081 -0.5870 -0.0486
vn -0.5104 -0.7022 -0.4964
vn 0.1980 -0.9793 -0.0411
vn 0.1846 0.7490 -0.6363
vn 0.0844 0.9650 -0.2481
vn 0.3294 0.0209 0.9439
vn -0.4700 -0.5088 0.7213
vn 0.3411 0.8929 -0.2938
vn 0.3262 0.8582 0.3963
vn -0.0244 0.9896 -0.1420
vn -0.2995 0.9199 0.2530
vn -0.2154 0.1024 -0.9712
vn 0.1805 -0.9284 0.3247
vn -0.0186 -0.9883 -0.1511
vn -0.2098 -0.9321 0.2952
vn -0.1135 -0.9353 -0.3352
vn -0.5172 -0.7118 0.4752
vn 0.2912 -0.8655 -0.4076
vn 0.0214 -0.9995 -0.0237
vn -0.1271 -0.9912 -0.0361
vn -0.1085 -0.9802 0.1658
vn 0.1852 -0.9519 -0.2439
vn -0.0062 -0.8501 -0.5265
vn 0.0325 -0.9684 0.2474
vn -0.4956 0.1073 -0.8619
vn -0.3092 0.9495 -0.0530
vn 0.3966 0.8916 -0.2184
vn 0.1287 0.9519 0.2782
vn -0.0686 0.7509 0.6569
vn -0.4316 0.8638 -0.2599
vn -0.0456 0.9371 0.3460
vn -0.0733 0.9911 -0.1109
vn 0.1798 0.9703 0.1617
vn -0.5541 0.8217 0.1334
vn 0.2699 0.9038 0.3321
vn -0.3558 -0.5076 0.7847
vn 0.4311 0.0212 0.9021
vn 0.0834 0.9531 0.2910
vn 0.1104 0.7368 -0.6670
vn -0.4561 -0.8777 0.1470
vn 0.0492 -0.8936 0.4461
vn 0.4435 -0.8676 0.2248
vn -0.5713 -0.3597 -0.7378
vn -0.8549 0.5046 0.1207
vn 0.1015 0.9592 -0.2640
vn -0.0706 0.9325 -0.3543
vn -0.1216 0.9892 -0.0825
vn -0.3905 0.5708 0.7223
vn 0.4901 -0.4762 0.7301
vn 0.8842 -0.4571 -0.0960
vn 0.1134 0.6540 -0.7480
vn 0.6251 -0.4774 -0.6175
vn 0.8605 -0.4907 0.1366
vn 0.2943 0.5926 0.7498
vn -0.3766 0.4591 0.8046
vn -0.9282 -0.3568 -0.1055
vn -0.2002 0.6449 -0.7376
vn -0.3712 -0.7155 -0.5918
vn -0.7900 -0.5738 -0.2160
vn -0.4598 0.4393 0.7717
vn 0.1125 -0.9433 0.3124
vn 0.9845 -0.0449 -0.1697
vn 0.4073 -0.8479 -0.3393
vn -0.3389 0.9309 0.1364
vn -0.1174 0.9549 0.2729
vn -0.0493 0.9703 0.2369
vn 0.1341 0.9810 -0.1399
vn 0.1212 0.8869 -0.4457
vn 0.3280 0.8866 -0.3262
vn -0.2030 0.9780 0.0491
vn 0.1025 0.9692 0.2239
vn 0.4062 0.9132 0.0322
vn -0.0102 -0.9863 0.1646
vn 0.2964 -0.8976 0.3263
vn 0.3136 -0.9496 -0.0026
vn -0.0093 -0.8996 -0.4367
vn 0.0487 -0.8850 -0.4630
vn 0.4435 -0.8675 -0.2254
vn 0.1744 -0.9815 -0.0795
vn 0.0436 -0.9868 -0.1559
vn 0.0402 -0.9098 -0.4130
vn 0.1767 -0.9079 0.3801
vn -0.1933 -0.9638 0.1836
vn -0.1945 -0.9699 0.1465
vn -0.0719 0.9507 0.3017
vn -0.3095 0.9374 0.1598
vn 0.3389 0.9161 -0.2141
vn 0.2819 0.8919 -0.3537
vn 0.5863 0.8098 -0.0237
vn -0.3388 0.9304 -0.1396
vn -0.4431 -0.8528 0.2762
vn -0.1700 -0.9722 0.1613
vn -0.2205 -0.9350 0.2777
vn 0.0774 -0.9966 -0.0282
vn -0.6667 -0.7127 0.2179
vn 0.4996 -0.8650 -0.0462
vn 0.0651 -0.9861 -0.1527
vn -0.2030 -0.9741 0.0999
vn -0.0355 -0.9986 0.0391
vn 0.2036 -0.9483 -0.2436
vn 0.0027 -0.8501 -0.5266
vn -0.0344 -0.9683 0.2473
vn -0.1845 0.9544 -0.2347
vn -0.0983 0.9552 0.2791
vn 0.1018 0.7487 0.6550
vn -0.5655 0.8228 -0.0561
vn 0.1639 0.9865 -0.0028
vn -0.2726 0.9293 0.2491
vn -0.0719 0.9621 -0.2632
vn -0.3338 0.8042 0.4917
vn -0.0291 0.9799 -0.1971
vt 0.916667 0.750000
vt 0.833333 0.500000
vt 0.916667 0.500000
vt 0.750000 0.750000
vt 0.666667 0.500000
vt 0.750000 0.500000
vt 0.583333 0.750000
vt 0.500000 0.500000
vt 0.583333 0.500000
vt 0.416667 0.750000
vt 0.333333 0.500000
vt 0.416667 0.500000
vt 0.250000 0.490000
vt 0.198038 0.400000
vt 0.301962 0.400000
vt 0.250000 0.750000
vt 0.166667 0.500000
vt 0.250000 0.500000
vt 0.083333 0.750000
vt -0.000000 0.500000
vt 0.083333 0.500000
vt 0.957846 0.370000
vt 0.905885 0.280000
vt 0.853923 0.370000
vt 0.833333 1.000000
vt 0.916667 1.000000
vt 0.666667 1.000000
vt 0.750000 1.000000
vt 0.500000 1.000000
vt 0.583333 1.000000
vt 0.333333 1.000000
vt 0.416667 1.000000
vt 0.457846 0.250000
vt 0.405885 0.220000
vt 0.457846 0.130000
vt 0.146077 0.430000
vt 0.146077 0.070000
vt 0.146077 0.130000
vt 0.042154 0.130000
vt 0.166667 1.000000
vt 0.250000 1.000000
vt -0.000000 1.000000
vt 0.083333 1.000000
vt 0.646077 0.430000
vt 0.646077 0.370000
vt 0.542154 0.370000
vt 0.957846 0.250000
vt 0.646077 0.070000
vt 0.698038 0.100000
vt 0.750000 0.010000
vt 0.542154 0.250000
vt 0.594115 0.280000
vt 0.646077 0.190000
vt 0.594115 0.160000
vt 0.542154 0.130000
vt 0.853923 0.070000
vt 0.801962 0.100000
vt 0.853923 0.190000
vt 0.905885 0.160000
vt 0.957846 0.130000
vt 0.853923 0.430000
vt 0.750000 0.370000
vt 0.750000 0.430000
vt 0.750000 0.490000
vt 0.353923 0.070000
vt 0.353923 0.130000
vt 0.250000 0.130000
vt 0.250000 0.070000
vt 0.250000 0.010000
vt 0.042154 0.250000
vt 0.094115 0.220000
vt 0.146077 0.310000
vt 0.094115 0.340000
vt 0.042154 0.370000
vt 0.353923 0.430000
vt 0.353923 0.310000
vt 0.405885 0.340000
vt 0.457846 0.370000
vt 1.000000 1.000000
vt 0.698038 0.280000
vt 0.801962 0.280000
vt 0.750000 0.190000
vt 0.301962 0.220000
vt 0.250000 0.310000
vt 0.198038 0.220000
vt 1.000000 0.500000
s 0
f 25/1/1 3/2/1 13/3/1
f 26/4/2 5/5/2 15/6/2
f 27/7/3 7/8/3 17/9/3
f 28/10/4 9/11/4 19/12/4
f 2/13/5 38/14/5 43/15/5
f 32/16/6 11/17/6 21/18/6
f 33/19/7 1/20/7 23/21/7
f 3/22/8 41/23/8 46/24/8
f 4/25/9 25/1/9 14/26/9
f 6/27/10 26/4/10 16/28/10
f 8/29/11 27/7/11 18/30/11
f 10/31/12 28/10/12 20/32/12
f 16/33/13 37/34/13 6/35/13
f 24/36/14 38/14/14 2/13/14
f 20/37/15 39/38/15 10/39/15
f 12/40/16 32/16/16 22/41/16
f 2/42/17 33/19/17 24/43/17
f 23/44/18 40/45/18 11/46/18
f 15/47/19 41/23/19 3/22/19
f 19/48/20 42/49/20 7/50/20
f 21/51/21 48/52/21 36/53/21
f 36/53/22 49/54/22 21/51/22
f 9/55/23 49/54/23 19/48/23
f 17/56/24 47/57/24 35/58/24
f 35/58/25 50/59/25 17/56/25
f 5/60/26 50/59/26 15/47/26
f 13/61/27 46/24/27 34/62/27
f 34/62/28 51/63/28 13/61/28
f 1/64/29 51/63/29 23/44/29
f 12/40/30 24/43/30 33/19/30
f 10/31/31 22/41/31 32/16/31
f 18/65/32 45/66/32 31/67/32
f 31/67/33 52/68/33 18/65/33
f 8/69/34 52/68/34 20/37/34
f 22/70/35 44/71/35 30/72/35
f 30/72/36 53/73/36 22/70/36
f 12/74/37 53/73/37 24/36/37
f 14/75/38 43/15/38 29/76/38
f 29/76/39 54/77/39 14/75/39
f 4/78/40 54/77/40 16/33/40
f 8/29/41 20/32/41 28/10/41
f 6/27/42 18/30/42 27/7/42
f 4/25/43 16/28/43 26/4/43
f 2/79/44 14/26/44 25/1/44
f 34/62/45 55/80/45 40/45/45
f 34/62/46 56/81/46 55/80/46
f 35/58/47 47/57/47 57/82/47
f 33/19/48 11/17/48 12/40/48
f 32/16/49 9/11/49 10/31/49
f 29/76/50 58/83/50 37/34/50
f 29/76/51 59/84/51 58/83/51
f 30/72/52 44/71/52 60/85/52
f 28/10/53 7/8/53 8/29/53
f 27/7/54 5/5/54 6/27/54
f 26/4/55 3/2/55 4/25/55
f 25/1/56 1/86/56 2/79/56
f 4/25/57 3/2/57 25/1/57
f 6/27/58 5/5/58 26/4/58
f 8/29/59 7/8/59 27/7/59
f 10/31/60 9/11/60 28/10/60
f 12/40/61 11/17/61 32/16/61
f 2/42/62 1/20/62 33/19/62
f 33/19/63 23/21/63 11/17/63
f 32/16/64 21/18/64 9/11/64
f 28/10/65 19/12/65 7/8/65
f 27/7/66 17/9/66 5/5/66
f 26/4/67 15/6/67 3/2/67
f 25/1/68 13/3/68 1/86/68
f 60/85/69 39/38/69 31/67/69
f 60/85/70 44/71/70 39/38/70
f 44/71/71 10/39/71 39/38/71
f 58/83/72 60/85/72 31/67/72
f 58/83/73 59/84/73 60/85/73
f 59/84/74 30/72/74 60/85/74
f 37/34/75 45/66/75 6/35/75
f 37/34/76 58/83/76 45/66/76
f 58/83/77 31/67/77 45/66/77
f 57/82/78 42/49/78 36/53/78
f 57/82/79 47/57/79 42/49/79
f 47/57/80 7/50/80 42/49/80
f 55/80/81 57/82/81 36/53/81
f 55/80/82 56/81/82 57/82/82
f 56/81/83 35/58/83 57/82/83
f 40/45/84 48/52/84 11/46/84
f 40/45/85 55/80/85 48/52/85
f 55/80/86 36/53/86 48/52/86
f 46/24/87 56/81/87 34/62/87
f 46/24/88 41/23/88 56/81/88
f 41/23/89 35/58/89 56/81/89
f 43/15/90 59/84/90 29/76/90
f 43/15/91 38/14/91 59/84/91
f 38/14/92 30/72/92 59/84/92
f 16/33/93 29/76/93 37/34/93
f 24/36/94 30/72/94 38/14/94
f 20/37/95 31/67/95 39/38/95
f 23/44/96 34/62/96 40/45/96
f 15/47/97 35/58/97 41/23/97
f 19/48/98 36/53/98 42/49/98
f 21/51/99 11/46/99 48/52/99
f 36/53/100 19/48/100 49/54/100
f 9/55/101 21/51/101 49/54/101
f 17/56/102 7/50/102 47/57/102
f 35/58/103 15/47/103 50/59/103
f 5/60/104 17/56/104 50/59/104
f 13/61/105 3/22/105 46/24/105
f 34/62/106 23/44/106 51/63/106
f 1/64/107 13/61/107 51/63/107
f 18/65/108 6/35/108 45/66/108
f 31/67/109 20/37/109 52/68/109
f 8/69/110 18/65/110 52/68/110
f 22/70/111 10/39/111 44/71/111
f 30/72/112 24/36/112 53/73/112
f 12/74/113 22/70/113 53/73/113
f 14/75/114 2/13/114 43/15/114
f 29/76/115 16/33/115 54/77/115
f 4/78/116 14/75/116 54/77/116
