# Blender 4.3.0
# www.blender.org
o Cylinder
v 0.000000 -2.503417 -25.004438
v 0.000000 2.084552 -24.460325
v 20.178493 -1.191409 -11.650059
v 20.157343 1.172622 -11.637848
v 20.057381 -1.083765 11.580133
v 21.976177 2.789376 12.687952
v 0.000000 -2.963736 25.602402
v 0.000000 4.090548 27.066170
v -23.882099 -4.483537 13.788338
v -19.900829 0.944593 11.489750
v -22.280140 -3.059568 -12.863444
v -21.513186 2.377822 -12.420644
v 11.559331 -3.968012 -20.021349
v 10.710595 2.270558 -18.551296
v 22.529631 -3.378987 0.000000
v 22.390787 3.240144 0.000000
v 10.657010 -2.163389 18.458483
v 10.549168 1.947706 18.271694
v -9.894398 -0.638180 17.137598
v -10.134948 1.119275 17.554245
v -21.722601 -2.571965 0.000000
v -20.653194 1.502570 0.000000
v -11.579350 -4.008050 -20.056025
v -9.872305 0.593995 -17.099333
v 11.262482 0.000000 -19.507191
v 23.688650 0.000000 0.000000
v 12.446060 0.000000 21.557209
v -10.779328 0.000000 18.670345
v 10.825317 0.793102 -6.250000
v -10.825317 -0.816674 -6.250000
v 0.000000 -0.715325 12.500000
v -20.097340 0.000000 0.000000
v 0.000000 -1.337405 -12.500000
v 10.825317 -2.301286 6.250000
v -10.825317 -4.958891 6.250000
v 16.237976 2.967182 3.125000
v -5.412659 5.432285 -15.625000
v -10.825317 2.823221 12.500000
v -10.825317 -0.021051 -12.500000
v 16.237976 -5.715386 -3.125000
v -5.412659 0.186754 15.625000
v 5.412659 4.814377 -15.625000
v -16.237976 4.480545 3.125000
v 10.825317 0.808026 12.500000
v 10.825317 -1.194242 -12.500000
v 5.412659 -3.166996 15.625000
v -16.237976 -2.022920 -3.125000
v -16.237976 -0.923658 9.375000
v 16.237976 -0.467162 9.375000
v 0.000000 -4.595618 -18.750000
v 0.000000 1.566803 18.750000
v -16.237976 1.400841 -9.375000
v 16.237976 2.231145 -9.375000
v -5.412659 -3.453995 -3.125000
v 5.412659 0.211924 -3.125000
v 0.000000 -5.176660 6.250000
v 5.412659 2.831479 3.125000
v 0.000000 5.376251 -6.250000
v -5.412659 0.224998 3.125000
vn 0.6650 0.1447 -0.7327
vn 0.9141 -0.3135 0.2573
vn 0.3338 -0.8524 0.4024
vn 0.1361 -0.8842 0.4468
vn 0.0539 0.9443 -0.3248
vn -0.8452 0.5341 0.0164
vn -0.3799 0.5956 -0.7078
vn 0.0415 -0.8904 -0.4533
vn 0.5646 0.4330 -0.7027
vn 0.9274 0.3715 0.0435
vn 0.4090 0.8689 0.2789
vn -0.3559 0.7546 0.5513
vn -0.0267 0.9990 0.0346
vn -0.5162 0.6469 -0.5613
vn -0.2267 0.9131 0.3388
vn -0.9371 -0.3467 0.0405
vn 0.2174 -0.8721 0.4385
vn 0.4441 -0.8601 -0.2511
vn 0.0617 -0.9417 -0.3308
vn -0.0567 -0.9616 -0.2684
vn -0.4010 -0.8330 0.3811
vn 0.3066 -0.9269 -0.2165
vn 0.1808 -0.9834 0.0136
vn 0.3131 -0.9496 0.0150
vn -0.2362 -0.9616 0.1402
vn 0.0124 -0.9378 0.3470
vn 0.0985 -0.8824 0.4600
vn -0.0123 -0.9483 -0.3172
vn -0.9370 -0.3466 0.0445
vn -0.1366 0.9706 -0.1982
vn -0.0494 0.9382 -0.3426
vn -0.0080 0.9569 -0.2904
vn -0.1593 0.8173 -0.5538
vn 0.3080 0.9418 0.1348
vn 0.1640 0.9859 0.0322
vn 0.4752 0.8741 0.1006
vn -0.1903 0.9745 0.1188
vn 0.1461 0.9688 -0.2002
vn -0.5758 0.7192 0.3888
vn 0.1493 0.8860 0.4390
vn 0.9018 0.3612 -0.2372
vn 0.4286 0.4371 -0.7907
vn -0.1158 -0.9524 -0.2819
vn 0.3206 -0.9468 -0.0286
vn 0.2563 -0.9648 0.0589
vn -0.3534 0.1253 -0.9270
vn -0.8127 0.5817 -0.0339
vn -0.0122 0.9756 -0.2192
vn 0.3898 0.9206 0.0249
vn 0.3490 0.8878 -0.3001
vn -0.5654 -0.1676 0.8076
vn 0.6662 -0.4907 0.5616
vn 0.9572 0.0101 -0.2894
vn 0.4168 0.1071 -0.9027
vn 0.6619 0.0098 -0.7496
vn 0.8474 -0.4829 0.2205
vn 0.3442 -0.1908 0.9193
vn -0.4514 0.6077 0.6534
vn -0.9824 0.1275 0.1364
vn -0.6042 0.0938 -0.7913
vn -0.4110 0.5958 -0.6900
vn -0.8439 0.5333 -0.0582
vn -0.3625 -0.9160 0.1721
vn 0.3730 -0.8479 0.3767
vn 0.9173 -0.3146 -0.2442
vn 0.4072 0.1473 -0.9014
vn 0.3096 0.9472 -0.0837
vn 0.3655 0.9297 -0.0467
vn -0.2250 0.9289 0.2941
vn -0.2280 0.9469 0.2266
vn -0.2174 0.9030 0.3706
vn -0.4878 0.8527 0.1869
vn -0.1756 0.9767 0.1235
vn -0.0122 0.9759 0.2177
vn -0.1337 0.9500 0.2822
vn -0.0175 -0.8722 0.4888
vn -0.2770 -0.8942 0.3516
vn -0.2930 -0.9458 -0.1397
vn -0.0198 -0.9853 -0.1696
vn 0.3019 -0.8914 -0.3381
vn 0.2377 -0.8951 -0.3772
vn 0.2577 -0.9645 -0.0572
vn -0.1260 -0.9528 -0.2762
vn -0.1276 -0.9651 -0.2286
vn 0.0131 -0.9877 0.1557
vn -0.4752 -0.8680 -0.1442
vn -0.4798 -0.8763 0.0421
vn 0.3844 0.9079 0.1675
vn 0.0570 0.9980 -0.0269
vn -0.4767 0.8332 0.2802
vn -0.1229 0.9800 -0.1563
vn -0.7385 0.6738 0.0227
vn 0.2993 0.9158 0.2678
vn -0.1064 -0.8750 0.4723
vn 0.1338 -0.9038 0.4064
vn 0.2784 -0.9007 0.3336
vn 0.1179 -0.9925 0.0325
vn -0.4108 -0.8348 0.3664
vn 0.3895 -0.9186 -0.0664
vn 0.1375 -0.9860 0.0947
vn 0.1066 -0.9270 0.3595
vn -0.0387 -0.9777 -0.2064
vn -0.0309 -0.9388 0.3432
vn -0.0967 -0.8826 0.4601
vn 0.0166 -0.9482 -0.3172
vn -0.1682 0.9655 -0.1987
vn -0.0010 0.9393 -0.3430
vn -0.0477 0.9558 -0.2901
vn -0.5947 0.8001 0.0778
vn 0.3001 0.9422 0.1489
vn 0.1486 0.9871 0.0593
vn 0.2063 0.8921 -0.4020
vn -0.2310 0.9718 0.0470
vn 0.1969 0.9737 -0.1144
vt 0.916667 0.750000
vt 0.833333 0.500000
vt 0.916667 0.500000
vt 0.750000 0.750000
vt 0.666667 0.500000
vt 0.750000 0.500000
vt 0.583333 0.750000
vt 0.500000 0.500000
vt 0.583333 0.500000
vt 0.416667 0.750000
vt 0.333333 0.500000
vt 0.416667 0.500000
vt 0.250000 0.490000
vt 0.198038 0.400000
vt 0.301962 0.400000
vt 0.250000 0.750000
vt 0.166667 0.500000
vt 0.250000 0.500000
vt 0.083333 0.750000
vt -0.000000 0.500000
vt 0.083333 0.500000
vt 0.957846 0.370000
vt 0.905885 0.280000
vt 0.853923 0.370000
vt 0.833333 1.000000
vt 0.916667 1.000000
vt 0.666667 1.000000
vt 0.750000 1.000000
vt 0.500000 1.000000
vt 0.583333 1.000000
vt 0.333333 1.000000
vt 0.416667 1.000000
vt 0.457846 0.250000
vt 0.405885 0.220000
vt 0.457846 0.130000
vt 0.146077 0.430000
vt 0.146077 0.070000
vt 0.146077 0.130000
vt 0.042154 0.130000
vt 0.166667 1.000000
vt 0.250000 1.000000
vt 0.646077 0.430000
vt 0.646077 0.370000
vt 0.542154 0.370000
vt 0.957846 0.250000
vt 0.646077 0.070000
vt 0.698038 0.100000
vt 0.750000 0.010000
vt 0.542154 0.250000
vt 0.594115 0.280000
vt 0.646077 0.190000
vt 0.594115 0.160000
vt 0.542154 0.130000
vt 0.853923 0.070000
vt 0.801962 0.100000
vt 0.853923 0.190000
vt 0.905885 0.160000
vt 0.957846 0.130000
vt 0.853923 0.430000
vt 0.750000 0.370000
vt 0.750000 0.430000
vt 0.750000 0.490000
vt 0.353923 0.070000
vt 0.353923 0.130000
vt 0.250000 0.130000
vt 0.250000 0.070000
vt 0.250000 0.010000
vt 0.042154 0.250000
vt 0.094115 0.220000
vt 0.146077 0.310000
vt 0.094115 0.340000
vt 0.042154 0.370000
vt 0.353923 0.430000
vt 0.353923 0.310000
vt 0.405885 0.340000
vt 0.457846 0.370000
vt 1.000000 1.000000
vt 0.698038 0.280000
vt 0.801962 0.280000
vt 0.750000 0.190000
vt 0.301962 0.220000
vt 0.250000 0.310000
vt 0.198038 0.220000
vt 1.000000 0.500000
vt -0.000000 1.000000
s 0
f 25/1/1 3/2/1 13/3/1
f 26/4/2 5/5/2 15/6/2
f 27/7/3 7/8/3 17/9/3
f 28/10/4 9/11/4 19/12/4
f 2/13/5 37/14/5 42/15/5
f 32/16/6 11/17/6 21/18/6
f 24/19/7 1/20/7 23/21/7
f 3/22/8 40/23/8 45/24/8
f 4/25/9 25/1/9 14/26/9
f 6/27/10 26/4/10 16/28/10
f 8/29/11 27/7/11 18/30/11
f 10/31/12 28/10/12 20/32/12
f 16/33/13 36/34/13 6/35/13
f 24/36/14 37/14/14 2/13/14
f 20/37/15 38/38/15 10/39/15
f 12/40/16 32/16/16 22/41/16
f 23/42/17 39/43/17 11/44/17
f 15/45/18 40/23/18 3/22/18
f 19/46/19 41/47/19 7/48/19
f 21/49/20 47/50/20 35/51/20
f 35/51/21 48/52/21 21/49/21
f 9/53/22 48/52/22 19/46/22
f 17/54/23 46/55/23 34/56/23
f 34/56/24 49/57/24 17/54/24
f 5/58/25 49/57/25 15/45/25
f 13/59/26 45/24/26 33/60/26
f 33/60/27 50/61/27 13/59/27
f 1/62/28 50/61/28 23/42/28
f 10/31/29 22/41/29 32/16/29
f 18/63/30 44/64/30 31/65/30
f 31/65/31 51/66/31 18/63/31
f 8/67/32 51/66/32 20/37/32
f 22/68/33 43/69/33 30/70/33
f 30/70/34 52/71/34 22/68/34
f 12/72/35 52/71/35 24/36/35
f 14/73/36 42/15/36 29/74/36
f 29/74/37 53/75/37 14/73/37
f 4/76/38 53/75/38 16/33/38
f 8/29/39 20/32/39 28/10/39
f 6/27/40 18/30/40 27/7/40
f 4/25/41 16/28/41 26/4/41
f 2/77/42 14/26/42 25/1/42
f 33/60/43 54/78/43 39/43/43
f 33/60/44 55/79/44 54/78/44
f 34/56/45 46/55/45 56/80/45
f 24/19/46 11/17/46 12/40/46
f 32/16/47 9/11/47 10/31/47
f 29/74/48 57/81/48 36/34/48
f 29/74/49 58/82/49 57/81/49
f 30/70/50 43/69/50 59/83/50
f 28/10/51 7/8/51 8/29/51
f 27/7/52 5/5/52 6/27/52
f 26/4/53 3/2/53 4/25/53
f 25/1/54 1/84/54 2/77/54
f 4/25/55 3/2/55 25/1/55
f 6/27/56 5/5/56 26/4/56
f 8/29/57 7/8/57 27/7/57
f 10/31/58 9/11/58 28/10/58
f 12/40/59 11/17/59 32/16/59
f 2/85/60 1/20/60 24/19/60
f 24/19/61 23/21/61 11/17/61
f 32/16/62 21/18/62 9/11/62
f 28/10/63 19/12/63 7/8/63
f 27/7/64 17/9/64 5/5/64
f 26/4/65 15/6/65 3/2/65
f 25/1/66 13/3/66 1/84/66
f 59/83/67 38/38/67 31/65/67
f 59/83/68 43/69/68 38/38/68
f 43/69/69 10/39/69 38/38/69
f 57/81/70 59/83/70 31/65/70
f 57/81/71 58/82/71 59/83/71
f 58/82/72 30/70/72 59/83/72
f 36/34/73 44/64/73 6/35/73
f 36/34/74 57/81/74 44/64/74
f 57/81/75 31/65/75 44/64/75
f 56/80/76 41/47/76 35/51/76
f 56/80/77 46/55/77 41/47/77
f 46/55/78 7/48/78 41/47/78
f 54/78/79 56/80/79 35/51/79
f 54/78/80 55/79/80 56/80/80
f 55/79/81 34/56/81 56/80/81
f 39/43/82 47/50/82 11/44/82
f 39/43/83 54/78/83 47/50/83
f 54/78/84 35/51/84 47/50/84
f 45/24/85 55/79/85 33/60/85
f 45/24/86 40/23/86 55/79/86
f 40/23/87 34/56/87 55/79/87
f 42/15/88 58/82/88 29/74/88
f 42/15/89 37/14/89 58/82/89
f 37/14/90 30/70/90 58/82/90
f 16/33/91 29/74/91 36/34/91
f 24/36/92 30/70/92 37/14/92
f 20/37/93 31/65/93 38/38/93
f 23/42/94 33/60/94 39/43/94
f 15/45/95 34/56/95 40/23/95
f 19/46/96 35/51/96 41/47/96
f 21/49/97 11/44/97 47/50/97
f 35/51/98 19/46/98 48/52/98
f 9/53/99 21/49/99 48/52/99
f 17/54/100 7/48/100 46/55/100
f 34/56/101 15/45/101 49/57/101
f 5/58/102 17/54/102 49/57/102
f 13/59/103 3/22/103 45/24/103
f 33/60/104 23/42/104 50/61/104
f 1/62/105 13/59/105 50/61/105
f 18/63/106 6/35/106 44/64/106
f 31/65/107 20/37/107 51/66/107
f 8/67/108 18/63/108 51/66/108
f 22/68/109 10/39/109 43/69/109
f 30/70/110 24/36/110 52/71/110
f 12/72/111 22/68/111 52/71/111
f 14/73/112 2/13/112 42/15/112
f 29/74/113 16/33/113 53/75/113
f 4/76/114 14/73/114 53/75/114
