# Blender 4.3.0
# www.blender.org
o Cylinder
v 0.000000 -3.267091 -25.996475
v 0.000000 4.591702 -27.717157
v 19.474865 -0.565952 -11.243818
v 21.359272 2.241009 -12.331781
v 20.076714 -1.100950 11.591295
v 19.874765 0.921424 11.474701
v 0.000000 -4.008255 26.959249
v 0.000000 2.189082 24.596107
v -21.982380 -2.794886 12.691533
v -19.259529 0.374538 11.119494
v -19.720694 -0.784469 -11.385748
v -19.387997 0.488753 -11.193665
v 10.573184 -1.995739 -18.313292
v 10.712555 2.274478 -18.554689
v 19.282141 -0.131531 0.000000
v 21.766878 2.616241 0.000000
v 11.393888 -3.637127 19.734793
v 10.001423 0.852228 17.322971
v -10.593205 -2.035782 18.347971
v -10.740876 2.331119 18.603743
v -22.426891 -3.276248 0.000000
v -23.183821 4.033169 0.000000
v -10.103516 -1.056412 -17.499802
v -11.801387 4.452118 -20.440601
v 11.883793 0.000000 -20.583334
v 23.169439 0.000000 0.000000
v 12.552836 0.000000 21.742151
v -10.801222 0.000000 18.708265
v 10.825317 4.597169 -6.250000
v -10.825317 1.659953 -6.250000
v 0.000000 4.329138 12.500000
v -23.211023 0.000000 0.000000
v -11.130360 0.000000 -19.278349
v 0.000000 -4.468506 -12.500000
v 10.825317 -4.117591 6.250000
v -10.825317 -1.878457 6.250000
v 16.237976 -0.037806 3.125000
v -5.412659 1.949537 -15.625000
v -10.825317 5.604184 12.500000
v -10.825317 -0.175825 -12.500000
v 16.237976 -0.637008 -3.125000
v -5.412659 -0.360920 15.625000
v 5.412659 4.250957 -15.625000
v -16.237976 2.111217 3.125000
v 10.825317 0.907008 12.500000
v 10.825317 0.170670 -12.500000
v 5.412659 -0.410887 15.625000
v -16.237976 -2.497434 -3.125000
v -16.237976 -0.958351 9.375000
v 16.237976 -0.754227 9.375000
v 0.000000 -3.556854 -18.750000
v 0.000000 2.399373 18.750000
v -16.237976 -0.136984 -9.375000
v 16.237976 0.937153 -9.375000
v -5.412659 -2.456625 -3.125000
v 5.412659 -4.833994 -3.125000
v 0.000000 -4.656967 6.250000
v 5.412659 -0.285718 3.125000
v 0.000000 5.379249 -6.250000
v -5.412659 0.970916 3.125000
vn 0.4602 -0.7815 -0.4214
vn 0.0337 -0.9958 -0.0856
vn 0.4642 -0.5368 0.7045
vn -0.4251 -0.1997 0.8828
vn -0.2065 0.9711 0.1198
vn -0.9360 -0.2240 -0.2715
vn -0.4188 -0.8662 -0.2727
vn -0.0790 -0.9961 -0.0402
vn 0.3532 0.7174 -0.6004
vn 0.8616 0.4619 0.2103
vn 0.1888 0.9788 0.0797
vn -0.6657 0.0506 0.7445
vn -0.3997 0.9140 0.0691
vn 0.1607 0.9468 0.2788
vn -0.5286 0.7451 0.4068
vn -0.9464 0.0064 -0.3229
vn -0.5000 -0.2885 -0.8165
vn 0.0902 -0.9785 0.1854
vn 0.1232 -0.9916 0.0404
vn 0.1144 -0.9284 -0.3534
vn 0.1223 -0.9925 -0.0051
vn -0.0191 -0.9676 0.2518
vn 0.1760 -0.9582 -0.2258
vn -0.5015 -0.8636 0.0519
vn 0.5243 -0.8515 0.0082
vn -0.0436 -0.9958 -0.0803
vn 0.3746 -0.8740 0.3095
vn 0.1503 -0.9783 -0.1427
vn -0.2446 -0.9689 -0.0387
vn -0.6801 -0.2794 -0.6778
vn -0.9423 0.0064 0.3347
vn 0.3008 0.9516 0.0622
vn 0.1866 0.9387 0.2898
vn -0.0068 0.9993 0.0359
vn 0.2296 0.9695 0.0859
vn -0.0473 0.8992 -0.4350
vn -0.0307 0.9276 0.3724
vn 0.2539 0.9500 -0.1817
vn 0.4845 0.8588 -0.1665
vn -0.2580 0.9659 -0.0209
vn -0.4860 0.0517 0.8724
vn 0.0788 0.9863 0.1447
vn 0.8805 0.4720 -0.0435
vn 0.5477 0.6961 -0.4643
vn -0.3686 -0.9295 -0.0133
vn -0.2137 -0.9732 0.0855
vn 0.0458 -0.9196 0.3901
vn -0.6635 0.2782 -0.6945
vn -0.6836 0.6961 0.2195
vn -0.0204 0.8915 0.4525
vn 0.0628 0.8698 0.4893
vn 0.1047 0.9944 0.0126
vn -0.5027 0.3080 0.8077
vn 0.8040 0.1139 0.5836
vn 0.7676 -0.6013 -0.2219
vn 0.4499 -0.1910 -0.8724
vn 0.5993 -0.6054 -0.5238
vn 0.9576 0.1110 0.2660
vn 0.2648 0.3436 0.9010
vn -0.4713 0.6822 0.5590
vn -0.9113 0.2832 -0.2989
vn -0.5464 -0.1791 -0.8181
vn -0.2638 -0.8885 -0.3754
vn -0.9716 -0.2326 0.0429
vn -0.6403 -0.1968 0.7425
vn 0.6623 -0.5126 0.5465
vn 0.0338 -0.9987 0.0392
vn 0.4213 -0.7878 -0.4494
vn 0.1077 0.9146 -0.3898
vn 0.0962 0.9133 -0.3958
vn -0.5253 0.8508 -0.0137
vn 0.1062 0.9150 -0.3891
vn 0.1017 0.8763 0.4708
vn -0.3147 0.9159 0.2490
vn -0.0138 0.9940 -0.1082
vn -0.0227 0.9933 -0.1132
vn 0.2891 0.9144 -0.2832
vn -0.2381 -0.9277 0.2876
vn -0.0042 -0.9100 0.4146
vn -0.0044 -0.9525 -0.3044
vn -0.2477 -0.9652 -0.0835
vn -0.2133 -0.9713 -0.1048
vn 0.0497 -0.9976 0.0475
vn 0.0393 -0.9750 -0.2187
vn 0.0037 -0.9712 -0.2384
vn 0.0038 -0.9980 0.0637
vn 0.3809 -0.8889 -0.2546
vn 0.3473 -0.8957 -0.2777
vn 0.3581 -0.9237 -0.1362
vn 0.0718 0.9943 -0.0782
vn -0.2023 0.9516 -0.2313
vn -0.3209 0.9341 -0.1564
vn -0.1296 0.8571 0.4986
vn 0.2450 0.9543 0.1709
vn 0.1033 0.8772 0.4689
vn -0.3664 -0.9240 0.1098
vn 0.3207 -0.9333 -0.1614
vn 0.2989 -0.9541 -0.0181
vn 0.0170 -0.9776 -0.2099
vn -0.1729 -0.9849 -0.0095
vn 0.3174 -0.9480 0.0248
vn -0.2167 -0.8959 -0.3878
vn 0.4833 -0.8698 0.0991
vn 0.0536 -0.9682 -0.2444
vn -0.1300 -0.9272 0.3512
vn -0.2541 -0.9570 -0.1396
vn 0.1475 -0.9883 -0.0395
vn -0.0003 0.9999 0.0113
vn -0.0101 0.9554 0.2950
vn 0.1577 0.9868 0.0355
vn 0.1459 0.9539 0.2624
vn -0.4121 0.8882 0.2031
vn 0.2981 0.9344 -0.1948
vn 0.2957 0.9494 -0.1056
vn 0.3653 0.8548 -0.3685
vn -0.1226 0.9689 0.2149
vt 0.916667 0.750000
vt 0.833333 0.500000
vt 0.916667 0.500000
vt 0.750000 0.750000
vt 0.666667 0.500000
vt 0.750000 0.500000
vt 0.583333 0.750000
vt 0.500000 0.500000
vt 0.583333 0.500000
vt 0.416667 0.750000
vt 0.333333 0.500000
vt 0.416667 0.500000
vt 0.250000 0.490000
vt 0.198038 0.400000
vt 0.301962 0.400000
vt 0.250000 0.750000
vt 0.166667 0.500000
vt 0.250000 0.500000
vt 0.083333 0.750000
vt -0.000000 0.500000
vt 0.083333 0.500000
vt 0.957846 0.370000
vt 0.905885 0.280000
vt 0.853923 0.370000
vt 0.833333 1.000000
vt 0.916667 1.000000
vt 0.666667 1.000000
vt 0.750000 1.000000
vt 0.500000 1.000000
vt 0.583333 1.000000
vt 0.333333 1.000000
vt 0.416667 1.000000
vt 0.457846 0.250000
vt 0.405885 0.220000
vt 0.457846 0.130000
vt 0.146077 0.430000
vt 0.146077 0.070000
vt 0.146077 0.130000
vt 0.042154 0.130000
vt 0.166667 1.000000
vt 0.250000 1.000000
vt -0.000000 1.000000
vt 0.083333 1.000000
vt 0.646077 0.430000
vt 0.646077 0.370000
vt 0.542154 0.370000
vt 0.957846 0.250000
vt 0.646077 0.070000
vt 0.698038 0.100000
vt 0.750000 0.010000
vt 0.542154 0.250000
vt 0.594115 0.280000
vt 0.646077 0.190000
vt 0.594115 0.160000
vt 0.542154 0.130000
vt 0.853923 0.070000
vt 0.801962 0.100000
vt 0.853923 0.190000
vt 0.905885 0.160000
vt 0.957846 0.130000
vt 0.853923 0.430000
vt 0.750000 0.370000
vt 0.750000 0.430000
vt 0.750000 0.490000
vt 0.353923 0.070000
vt 0.353923 0.130000
vt 0.250000 0.130000
vt 0.250000 0.070000
vt 0.250000 0.010000
vt 0.042154 0.250000
vt 0.094115 0.220000
vt 0.146077 0.310000
vt 0.094115 0.340000
vt 0.042154 0.370000
vt 0.353923 0.430000
vt 0.353923 0.310000
vt 0.405885 0.340000
vt 0.457846 0.370000
vt 1.000000 1.000000
vt 0.698038 0.280000
vt 0.801962 0.280000
vt 0.750000 0.190000
vt 0.301962 0.220000
vt 0.250000 0.310000
vt 0.198038 0.220000
vt 1.000000 0.500000
s 0
f 25/1/1 3/2/1 13/3/1
f 26/4/2 5/5/2 15/6/2
f 27/7/3 7/8/3 17/9/3
f 28/10/4 9/11/4 19/12/4
f 2/13/5 38/14/5 43/15/5
f 32/16/6 11/17/6 21/18/6
f 33/19/7 1/20/7 23/21/7
f 3/22/8 41/23/8 46/24/8
f 4/25/9 25/1/9 14/26/9
f 6/27/10 26/4/10 16/28/10
f 8/29/11 27/7/11 18/30/11
f 10/31/12 28/10/12 20/32/12
f 16/33/13 37/34/13 6/35/13
f 24/36/14 38/14/14 2/13/14
f 20/37/15 39/38/15 10/39/15
f 12/40/16 32/16/16 22/41/16
f 2/42/17 33/19/17 24/43/17
f 23/44/18 40/45/18 11/46/18
f 15/47/19 41/23/19 3/22/19
f 19/48/20 42/49/20 7/50/20
f 21/51/21 48/52/21 36/53/21
f 36/53/22 49/54/22 21/51/22
f 9/55/23 49/54/23 19/48/23
f 17/56/24 47/57/24 35/58/24
f 35/58/25 50/59/25 17/56/25
f 5/60/26 50/59/26 15/47/26
f 13/61/27 46/24/27 34/62/27
f 34/62/28 51/63/28 13/61/28
f 1/64/29 51/63/29 23/44/29
f 12/40/30 24/43/30 33/19/30
f 10/31/31 22/41/31 32/16/31
f 18/65/32 45/66/32 31/67/32
f 31/67/33 52/68/33 18/65/33
f 8/69/34 52/68/34 20/37/34
f 22/70/35 44/71/35 30/72/35
f 30/72/36 53/73/36 22/70/36
f 12/74/37 53/73/37 24/36/37
f 14/75/38 43/15/38 29/76/38
f 29/76/39 54/77/39 14/75/39
f 4/78/40 54/77/40 16/33/40
f 8/29/41 20/32/41 28/10/41
f 6/27/42 18/30/42 27/7/42
f 4/25/43 16/28/43 26/4/43
f 2/79/44 14/26/44 25/1/44
f 34/62/45 55/80/45 40/45/45
f 34/62/46 56/81/46 55/80/46
f 35/58/47 47/57/47 57/82/47
f 33/19/48 11/17/48 12/40/48
f 32/16/49 9/11/49 10/31/49
f 29/76/50 58/83/50 37/34/50
f 29/76/51 59/84/51 58/83/51
f 30/72/52 44/71/52 60/85/52
f 28/10/53 7/8/53 8/29/53
f 27/7/54 5/5/54 6/27/54
f 26/4/55 3/2/55 4/25/55
f 25/1/56 1/86/56 2/79/56
f 4/25/57 3/2/57 25/1/57
f 6/27/58 5/5/58 26/4/58
f 8/29/59 7/8/59 27/7/59
f 10/31/60 9/11/60 28/10/60
f 12/40/61 11/17/61 32/16/61
f 2/42/62 1/20/62 33/19/62
f 33/19/63 23/21/63 11/17/63
f 32/16/64 21/18/64 9/11/64
f 28/10/65 19/12/65 7/8/65
f 27/7/66 17/9/66 5/5/66
f 26/4/67 15/6/67 3/2/67
f 25/1/68 13/3/68 1/86/68
f 60/85/69 39/38/69 31/67/69
f 60/85/70 44/71/70 39/38/70
f 44/71/71 10/39/71 39/38/71
f 58/83/72 60/85/72 31/67/72
f 58/83/73 59/84/73 60/85/73
f 59/84/74 30/72/74 60/85/74
f 37/34/75 45/66/75 6/35/75
f 37/34/76 58/83/76 45/66/76
f 58/83/77 31/67/77 45/66/77
f 57/82/78 42/49/78 36/53/78
f 57/82/79 47/57/79 42/49/79
f 47/57/80 7/50/80 42/49/80
f 55/80/81 57/82/81 36/53/81
f 55/80/82 56/81/82 57/82/82
f 56/81/83 35/58/83 57/82/83
f 40/45/84 48/52/84 11/46/84
f 40/45/85 55/80/85 48/52/85
f 55/80/86 36/53/86 48/52/86
f 46/24/87 56/81/87 34/62/87
f 46/24/88 41/23/88 56/81/88
f 41/23/89 35/58/89 56/81/89
f 43/15/90 59/84/90 29/76/90
f 43/15/91 38/14/91 59/84/91
f 38/14/92 30/72/92 59/84/92
f 16/33/93 29/76/93 37/34/93
f 24/36/94 30/72/94 38/14/94
f 20/37/95 31/67/95 39/38/95
f 23/44/96 34/62/96 40/45/96
f 15/47/97 35/58/97 41/23/97
f 19/48/98 36/53/98 42/49/98
f 21/51/99 11/46/99 48/52/99
f 36/53/100 19/48/100 49/54/100
f 9/55/101 21/51/101 49/54/101
f 17/56/102 7/50/102 47/57/102
f 35/58/103 15/47/103 50/59/103
f 5/60/104 17/56/104 50/59/104
f 13/61/105 3/22/105 46/24/105
f 34/62/106 23/44/106 51/63/106
f 1/64/107 13/61/107 51/63/107
f 18/65/108 6/35/108 45/66/108
f 31/67/109 20/37/109 52/68/109
f 8/69/110 18/65/110 52/68/110
f 22/70/111 10/39/111 44/71/111
f 30/72/112 24/36/112 53/73/112
f 12/74/113 22/70/113 53/73/113
f 14/75/114 2/13/114 43/15/114
f 29/76/115 16/33/115 54/77/115
f 4/78/116 14/75/116 54/77/116
