# Blender 4.3.0
# www.blender.org
o Cylinder
v 0.000000 -1.646561 -23.891357
v 0.000000 3.875571 -26.786890
v 20.229639 -1.236873 -11.679587
v 20.315348 1.313070 -11.729072
v 21.052925 -1.968700 12.154912
v 20.585459 1.553161 11.885020
v 0.000000 -3.004240 25.655016
v 0.000000 3.212295 25.925293
v -20.859365 -1.796646 12.043160
v -20.297222 1.296948 11.718607
v -22.089615 -2.890210 -12.753445
v -19.337883 0.444207 -11.164732
v 12.004163 -4.857666 -20.791821
v 11.124925 3.099209 -19.268936
v 21.038763 -1.888134 0.000000
v 20.615028 1.464405 0.000000
v 11.993513 -4.836367 20.773375
v 11.593171 4.035692 20.079962
v -10.049776 -0.948934 17.406723
v -10.792839 2.435044 18.693747
v -21.132885 -1.982256 0.000000
v -22.689535 3.538889 0.000000
v -10.765953 -2.381272 -18.647177
v -10.306141 1.461659 -17.850761
v 10.205625 0.000000 -17.676661
v 20.261562 0.000000 0.000000
v 9.386320 0.000000 16.257584
v -12.174158 0.000000 21.086260
v 10.825317 -0.493649 -6.250000
v -10.825317 1.486395 -6.250000
v 0.000000 4.942884 12.500000
v -24.057384 0.000000 0.000000
v -10.633791 0.000000 -18.418266
v 0.000000 -3.747377 -12.500000
v 10.825317 -1.842841 6.250000
v -10.825317 0.811211 6.250000
v 16.237976 2.009315 3.125000
v -5.412659 4.646240 -15.625000
v -10.825317 1.603018 12.500000
v -10.825317 -0.944235 -12.500000
v 16.237976 0.807390 -3.125000
v -5.412659 -2.913624 15.625000
v 5.412659 3.788640 -15.625000
v -16.237976 -0.183518 3.125000
v 10.825317 5.847091 12.500000
v 10.825317 0.407952 -12.500000
v 5.412659 -3.514157 15.625000
v -16.237976 -4.815375 -3.125000
v -16.237976 -1.901686 9.375000
v 16.237976 0.844410 9.375000
v 0.000000 -5.814918 -18.750000
v 0.000000 3.889133 18.750000
v -16.237976 1.591452 -9.375000
v 16.237976 4.500196 -9.375000
v -5.412659 0.911631 -3.125000
v 5.412659 0.630650 -3.125000
v 0.000000 -0.214365 6.250000
v 5.412659 2.943353 3.125000
v 0.000000 2.012124 -6.250000
v -5.412659 1.807987 3.125000
vn 0.4659 0.5934 -0.6564
vn 0.9247 0.3806 0.0014
vn 0.3495 0.7331 0.5834
vn -0.0375 -0.9727 0.2292
vn 0.0789 0.9964 -0.0305
vn -0.5582 -0.8236 0.1005
vn -0.4413 0.1101 -0.8906
vn -0.1828 -0.9721 0.1470
vn 0.4846 -0.5092 -0.7113
vn 0.9721 -0.2346 0.0042
vn 0.3449 -0.7380 0.5800
vn -0.4519 0.7424 0.4946
vn 0.1185 0.9929 -0.0071
vn -0.4356 0.8585 -0.2705
vn -0.0210 0.9909 -0.1330
vn -0.8719 0.3370 -0.3552
vn -0.6526 0.3969 -0.6454
vn 0.1609 -0.9607 0.2261
vn -0.4818 -0.8761 -0.0155
vn -0.3287 -0.9292 0.1690
vn -0.1172 -0.8202 0.5599
vn 0.3567 -0.9170 -0.1783
vn 0.0315 -0.9951 0.0938
vn -0.0415 -0.9792 -0.1985
vn 0.5300 -0.8211 -0.2119
vn -0.5022 -0.8647 -0.0051
vn 0.3013 -0.7850 0.5413
vn 0.1281 -0.9416 0.3115
vn -0.2460 -0.7529 -0.6104
vn -0.5730 0.4051 -0.7124
vn -0.9029 0.3490 0.2511
vn -0.0808 0.9676 0.2394
vn -0.0315 0.9856 0.1662
vn -0.1334 0.9867 0.0931
vn 0.3355 0.8748 0.3495
vn 0.0983 0.9857 -0.1371
vn -0.2448 0.9516 -0.1859
vn 0.2783 0.9242 0.2615
vn -0.5995 0.7750 0.2001
vn 0.6064 0.7948 -0.0257
vn -0.4062 0.7472 0.5260
vn 0.3318 -0.7380 0.5876
vn 0.9719 -0.2346 -0.0218
vn 0.4569 -0.5100 -0.7288
vn -0.2376 -0.9176 0.3188
vn -0.0234 -0.9006 0.4341
vn -0.1439 -0.9565 -0.2536
vn -0.4598 0.6617 -0.5923
vn -0.9392 0.2000 0.2792
vn 0.0820 0.9501 -0.3010
vn 0.2199 0.9501 -0.2213
vn -0.1805 0.9810 0.0705
vn -0.3598 -0.0405 0.9321
vn 0.3470 0.1174 0.9305
vn 0.9994 -0.0336 0.0008
vn 0.5234 -0.3957 -0.7546
vn 0.5100 -0.0338 -0.8595
vn 0.9908 0.1282 -0.0437
vn 0.7121 -0.0305 0.7015
vn -0.7262 0.2009 0.6575
vn -0.6802 0.6853 -0.2603
vn -0.4667 -0.4107 -0.7833
vn -0.4628 0.1102 -0.8796
vn -0.5609 -0.8275 0.0255
vn -0.2706 -0.9584 0.0909
vn 0.3324 0.7332 0.5933
vn 0.9239 0.3803 -0.0428
vn 0.3464 0.5939 -0.7262
vn -0.2916 0.9451 -0.1477
vn -0.1803 0.9801 -0.0827
vn -0.0171 0.9840 -0.1776
vn -0.1006 0.9596 -0.2628
vn -0.1042 0.9938 -0.0385
vn -0.0485 0.9988 -0.0063
vn 0.3906 0.9088 -0.1465
vn 0.0809 0.9379 -0.3372
vn -0.0805 0.9643 -0.2522
vn -0.0893 -0.9422 -0.3228
vn -0.0528 -0.9511 -0.3043
vn -0.0554 -0.9982 0.0209
vn -0.0941 -0.9934 -0.0650
vn -0.0258 -0.9942 -0.1045
vn -0.1465 -0.9741 -0.1724
vn 0.1692 -0.9416 -0.2911
vn 0.4655 -0.8800 -0.0946
vn 0.4525 -0.8554 0.2521
vn 0.3493 -0.9100 0.2233
vn 0.0163 -0.9993 0.0332
vn 0.0157 -0.9645 -0.2636
vn 0.2151 0.9293 0.3003
vn 0.0769 0.9705 0.2283
vn -0.0464 0.9544 0.2949
vn -0.0455 0.9714 -0.2331
vn -0.5370 0.8432 -0.0258
vn -0.2925 0.9480 -0.1258
vn -0.2446 -0.9447 0.2185
vn -0.2435 -0.8874 -0.3914
vn -0.4239 -0.8987 -0.1123
vn -0.4515 -0.8870 0.0970
vn 0.3615 -0.9168 -0.1698
vn -0.0136 -0.9998 0.0157
vn -0.1667 -0.9852 -0.0399
vn 0.2273 -0.8975 0.3780
vn -0.2058 -0.8431 -0.4968
vn -0.1912 -0.8407 0.5067
vn -0.2872 -0.9094 0.3008
vn -0.0451 -0.7760 -0.6291
vn 0.4057 0.8974 0.1734
vn -0.1325 0.9774 0.1648
vn -0.0234 0.9953 0.0939
vn 0.4722 0.8786 0.0717
vn 0.0201 0.9998 -0.0012
vn -0.1676 0.9359 -0.3097
vn 0.0955 0.9947 -0.0385
vn -0.4459 0.7694 0.4573
vn 0.4450 0.8256 -0.3469
vt 0.916667 0.750000
vt 0.833333 0.500000
vt 0.916667 0.500000
vt 0.750000 0.750000
vt 0.666667 0.500000
vt 0.750000 0.500000
vt 0.583333 0.750000
vt 0.500000 0.500000
vt 0.583333 0.500000
vt 0.416667 0.750000
vt 0.333333 0.500000
vt 0.416667 0.500000
vt 0.250000 0.490000
vt 0.198038 0.400000
vt 0.301962 0.400000
vt 0.250000 0.750000
vt 0.166667 0.500000
vt 0.250000 0.500000
vt 0.083333 0.750000
vt -0.000000 0.500000
vt 0.083333 0.500000
vt 0.957846 0.370000
vt 0.905885 0.280000
vt 0.853923 0.370000
vt 0.833333 1.000000
vt 0.916667 1.000000
vt 0.666667 1.000000
vt 0.750000 1.000000
vt 0.500000 1.000000
vt 0.583333 1.000000
vt 0.333333 1.000000
vt 0.416667 1.000000
vt 0.457846 0.250000
vt 0.405885 0.220000
vt 0.457846 0.130000
vt 0.146077 0.430000
vt 0.146077 0.070000
vt 0.146077 0.130000
vt 0.042154 0.130000
vt 0.166667 1.000000
vt 0.250000 1.000000
vt -0.000000 1.000000
vt 0.083333 1.000000
vt 0.646077 0.430000
vt 0.646077 0.370000
vt 0.542154 0.370000
vt 0.957846 0.250000
vt 0.646077 0.070000
vt 0.698038 0.100000
vt 0.750000 0.010000
vt 0.542154 0.250000
vt 0.594115 0.280000
vt 0.646077 0.190000
vt 0.594115 0.160000
vt 0.542154 0.130000
vt 0.853923 0.070000
vt 0.801962 0.100000
vt 0.853923 0.190000
vt 0.905885 0.160000
vt 0.957846 0.130000
vt 0.853923 0.430000
vt 0.750000 0.370000
vt 0.750000 0.430000
vt 0.750000 0.490000
vt 0.353923 0.070000
vt 0.353923 0.130000
vt 0.250000 0.130000
vt 0.250000 0.070000
vt 0.250000 0.010000
vt 0.042154 0.250000
vt 0.094115 0.220000
vt 0.146077 0.310000
vt 0.094115 0.340000
vt 0.042154 0.370000
vt 0.353923 0.430000
vt 0.353923 0.310000
vt 0.405885 0.340000
vt 0.457846 0.370000
vt 1.000000 1.000000
vt 0.698038 0.280000
vt 0.801962 0.280000
vt 0.750000 0.190000
vt 0.301962 0.220000
vt 0.250000 0.310000
vt 0.198038 0.220000
vt 1.000000 0.500000
s 0
f 25/1/1 3/2/1 13/3/1
f 26/4/2 5/5/2 15/6/2
f 27/7/3 7/8/3 17/9/3
f 28/10/4 9/11/4 19/12/4
f 2/13/5 38/14/5 43/15/5
f 32/16/6 11/17/6 21/18/6
f 33/19/7 1/20/7 23/21/7
f 3/22/8 41/23/8 46/24/8
f 4/25/9 25/1/9 14/26/9
f 6/27/10 26/4/10 16/28/10
f 8/29/11 27/7/11 18/30/11
f 10/31/12 28/10/12 20/32/12
f 16/33/13 37/34/13 6/35/13
f 24/36/14 38/14/14 2/13/14
f 20/37/15 39/38/15 10/39/15
f 12/40/16 32/16/16 22/41/16
f 2/42/17 33/19/17 24/43/17
f 23/44/18 40/45/18 11/46/18
f 15/47/19 41/23/19 3/22/19
f 19/48/20 42/49/20 7/50/20
f 21/51/21 48/52/21 36/53/21
f 36/53/22 49/54/22 21/51/22
f 9/55/23 49/54/23 19/48/23
f 17/56/24 47/57/24 35/58/24
f 35/58/25 50/59/25 17/56/25
f 5/60/26 50/59/26 15/47/26
f 13/61/27 46/24/27 34/62/27
f 34/62/28 51/63/28 13/61/28
f 1/64/29 51/63/29 23/44/29
f 12/40/30 24/43/30 33/19/30
f 10/31/31 22/41/31 32/16/31
f 18/65/32 45/66/32 31/67/32
f 31/67/33 52/68/33 18/65/33
f 8/69/34 52/68/34 20/37/34
f 22/70/35 44/71/35 30/72/35
f 30/72/36 53/73/36 22/70/36
f 12/74/37 53/73/37 24/36/37
f 14/75/38 43/15/38 29/76/38
f 29/76/39 54/77/39 14/75/39
f 4/78/40 54/77/40 16/33/40
f 8/29/41 20/32/41 28/10/41
f 6/27/42 18/30/42 27/7/42
f 4/25/43 16/28/43 26/4/43
f 2/79/44 14/26/44 25/1/44
f 34/62/45 55/80/45 40/45/45
f 34/62/46 56/81/46 55/80/46
f 35/58/47 47/57/47 57/82/47
f 33/19/48 11/17/48 12/40/48
f 32/16/49 9/11/49 10/31/49
f 29/76/50 58/83/50 37/34/50
f 29/76/51 59/84/51 58/83/51
f 30/72/52 44/71/52 60/85/52
f 28/10/53 7/8/53 8/29/53
f 27/7/54 5/5/54 6/27/54
f 26/4/55 3/2/55 4/25/55
f 25/1/56 1/86/56 2/79/56
f 4/25/57 3/2/57 25/1/57
f 6/27/58 5/5/58 26/4/58
f 8/29/59 7/8/59 27/7/59
f 10/31/60 9/11/60 28/10/60
f 12/40/61 11/17/61 32/16/61
f 2/42/62 1/20/62 33/19/62
f 33/19/63 23/21/63 11/17/63
f 32/16/64 21/18/64 9/11/64
f 28/10/65 19/12/65 7/8/65
f 27/7/66 17/9/66 5/5/66
f 26/4/67 15/6/67 3/2/67
f 25/1/68 13/3/68 1/86/68
f 60/85/69 39/38/69 31/67/69
f 60/85/70 44/71/70 39/38/70
f 44/71/71 10/39/71 39/38/71
f 58/83/72 60/85/72 31/67/72
f 58/83/73 59/84/73 60/85/73
f 59/84/74 30/72/74 60/85/74
f 37/34/75 45/66/75 6/35/75
f 37/34/76 58/83/76 45/66/76
f 58/83/77 31/67/77 45/66/77
f 57/82/78 42/49/78 36/53/78
f 57/82/79 47/57/79 42/49/79
f 47/57/80 7/50/80 42/49/80
f 55/80/81 57/82/81 36/53/81
f 55/80/82 56/81/82 57/82/82
f 56/81/83 35/58/83 57/82/83
f 40/45/84 48/52/84 11/46/84
f 40/45/85 55/80/85 48/52/85
f 55/80/86 36/53/86 48/52/86
f 46/24/87 56/81/87 34/62/87
f 46/24/88 41/23/88 56/81/88
f 41/23/89 35/58/89 56/81/89
f 43/15/90 59/84/90 29/76/90
f 43/15/91 38/14/91 59/84/91
f 38/14/92 30/72/92 59/84/92
f 16/33/93 29/76/93 37/34/93
f 24/36/94 30/72/94 38/14/94
f 20/37/95 31/67/95 39/38/95
f 23/44/96 34/62/96 40/45/96
f 15/47/97 35/58/97 41/23/97
f 19/48/98 36/53/98 42/49/98
f 21/51/99 11/46/99 48/52/99
f 36/53/100 19/48/100 49/54/100
f 9/55/101 21/51/101 49/54/101
f 17/56/102 7/50/102 47/57/102
f 35/58/103 15/47/103 50/59/103
f 5/60/104 17/56/104 50/59/104
f 13/61/105 3/22/105 46/24/105
f 34/62/106 23/44/106 51/63/106
f 1/64/107 13/61/107 51/63/107
f 18/65/108 6/35/108 45/66/108
f 31/67/109 20/37/109 52/68/109
f 8/69/110 18/65/110 52/68/110
f 22/70/111 10/39/111 44/71/111
f 30/72/112 24/36/112 53/73/112
f 12/74/113 22/70/113 53/73/113
f 14/75/114 2/13/114 43/15/114
f 29/76/115 16/33/115 54/77/115
f 4/78/116 14/75/116 54/77/116
