# Blender 4.3.0
# www.blender.org
o Cylinder
v 0.000000 -4.212051 -27.224007
v 0.000000 0.569409 -22.492128
v 22.067984 -2.870983 -12.740957
v 23.754700 4.370292 -13.714783
v 20.125443 -1.144264 11.619430
v 20.064514 1.090093 11.584253
v 0.000000 -2.926970 25.554642
v 0.000000 1.001768 23.053751
v -23.992125 -4.581338 13.851860
v -23.970907 4.562497 13.839610
v -21.008265 -1.928995 -12.129128
v -23.185715 3.864523 -13.386278
v 11.393755 -3.636862 -19.734562
v 10.705976 2.261320 -18.543295
v 22.383335 -3.232693 0.000000
v 21.653458 2.502823 0.000000
v 11.612679 -4.074706 20.113750
v 9.792808 0.435003 16.961641
v -10.666944 -2.183255 18.475687
v -10.020542 0.890467 17.356089
v -21.862314 -2.711677 0.000000
v -23.732956 4.582298 0.000000
v -11.766750 -4.382846 -20.380610
v -10.488498 1.826368 -18.166611
v 11.402821 0.000000 -19.750263
v 24.764269 0.000000 0.000000
v 11.770069 0.000000 20.386358
v -12.016636 0.000000 20.813425
v 10.825317 3.011844 -6.250000
v -10.825317 1.356894 -6.250000
v 0.000000 -0.171297 12.500000
v -24.536856 0.000000 0.000000
v -10.283373 0.000000 -17.811325
v 0.000000 -3.082887 -12.500000
v 10.825317 -4.932445 6.250000
v -10.825317 -5.017384 6.250000
v 16.237976 1.543927 3.125000
v -5.412659 1.967615 -15.625000
v -10.825317 3.058598 12.500000
v -10.825317 -0.210380 -12.500000
v 16.237976 -5.143653 -3.125000
v -5.412659 -4.349893 15.625000
v 5.412659 0.475407 -15.625000
v -16.237976 -0.820878 3.125000
v 10.825317 4.599875 12.500000
v 10.825317 -2.408966 -12.500000
v 5.412659 -2.707573 15.625000
v -16.237976 -0.526466 -3.125000
v -16.237976 -5.089683 9.375000
v 16.237976 -5.482798 9.375000
v 0.000000 -0.596123 -18.750000
v 0.000000 5.324223 18.750000
v -16.237976 4.423662 -9.375000
v 16.237976 4.930072 -9.375000
v -5.412659 -1.696679 -3.125000
v 5.412659 -4.310290 -3.125000
v 0.000000 -4.721231 6.250000
v 5.412659 2.595227 3.125000
v 0.000000 2.966682 -6.250000
v -5.412659 2.514851 3.125000
vn 0.5483 -0.0050 -0.8363
vn 0.7787 -0.5735 0.2544
vn 0.4168 -0.0767 0.9058
vn -0.0904 -0.7534 0.6514
vn 0.1360 0.9863 -0.0937
vn -0.7087 -0.6990 -0.0950
vn -0.4224 0.5605 -0.7123
vn -0.0452 -0.9657 -0.2556
vn 0.2242 0.5118 -0.8294
vn 0.6168 0.7667 0.1781
vn 0.1000 0.9926 0.0684
vn 0.1609 0.9294 0.3323
vn -0.1145 0.9879 0.1048
vn 0.0524 0.9858 -0.1594
vn 0.1435 0.9123 0.3836
vn -0.9838 0.1726 -0.0495
vn -0.3943 -0.2180 -0.8928
vn 0.1647 -0.8797 0.4461
vn 0.3128 -0.9492 -0.0347
vn -0.2411 -0.9336 0.2652
vn 0.0815 -0.8797 -0.4685
vn -0.0966 -0.9770 -0.1899
vn 0.0846 -0.9630 0.2558
vn -0.2659 -0.9611 0.0746
vn -0.1403 -0.9877 0.0691
vn 0.6508 -0.7151 0.2550
vn 0.0612 -0.9832 0.1717
vn -0.2696 -0.8948 -0.3560
vn 0.2348 -0.8940 0.3815
vn -0.3743 -0.2174 -0.9015
vn -0.9848 0.1728 -0.0167
vn -0.3210 0.7282 0.6055
vn 0.2465 0.7278 -0.6399
vn -0.3800 0.6527 0.6555
vn 0.4071 0.8095 0.4231
vn 0.3535 0.8964 0.2674
vn 0.0633 0.9676 -0.2445
vn -0.3457 0.9368 -0.0538
vn -0.3608 0.9311 -0.0533
vn 0.1636 0.9739 0.1577
vn -0.1158 0.9760 0.1845
vn 0.0021 0.9922 0.1248
vn 0.6144 0.7637 0.1981
vn 0.2249 0.5118 -0.8291
vn -0.2565 -0.9665 -0.0052
vn -0.2347 -0.9720 0.0082
vn -0.0190 -0.9752 0.2205
vn -0.3937 -0.3338 -0.8565
vn -0.9992 0.0024 0.0401
vn 0.0962 0.9904 0.0995
vn -0.0042 0.9991 0.0420
vn -0.2941 0.9544 0.0519
vn -0.1980 0.5264 0.8269
vn 0.7255 0.0306 0.6875
vn 0.9586 -0.2432 -0.1481
vn 0.2018 0.6889 -0.6962
vn 0.4913 -0.2275 -0.8407
vn 0.9272 0.0312 0.3732
vn 0.2305 0.5225 0.8209
vn -0.5032 0.0023 0.8641
vn -0.9017 -0.3826 -0.2015
vn -0.3408 0.6613 -0.6682
vn -0.4644 0.5596 -0.6865
vn -0.6976 -0.6880 -0.2001
vn -0.3862 -0.7748 0.5006
vn 0.7171 -0.0741 0.6931
vn 0.8046 -0.5926 -0.0367
vn 0.5495 -0.0050 -0.8355
vn 0.2842 0.9526 0.1088
vn -0.2873 0.9323 -0.2199
vn 0.0620 0.9091 -0.4120
vn -0.0071 0.9602 0.2792
vn -0.0074 0.9990 0.0439
vn -0.1470 0.9884 -0.0372
vn 0.3440 0.9330 -0.1055
vn 0.0934 0.9612 -0.2594
vn -0.4030 0.9144 0.0372
vn 0.0273 -0.9981 0.0553
vn 0.1488 -0.9810 0.1248
vn 0.1497 -0.9869 0.0598
vn 0.0259 -0.9469 -0.3204
vn -0.2311 -0.9570 -0.1753
vn -0.0195 -0.9983 -0.0550
vn 0.1683 -0.9836 0.0640
vn -0.1070 -0.9897 -0.0951
vn -0.0993 -0.9185 -0.3827
vn 0.0613 -0.9845 -0.1643
vn -0.0745 -0.9681 -0.2394
vn -0.0767 -0.9968 -0.0218
vn -0.0040 0.9659 -0.2590
vn 0.1343 0.9742 -0.1814
vn -0.1471 0.9889 -0.0205
vn -0.0637 0.9797 0.1902
vn -0.0468 0.9982 0.0380
vn 0.2672 0.8956 0.3556
vn -0.2254 -0.8496 0.4768
vn 0.2230 -0.9631 0.1504
vn -0.2670 -0.9380 0.2209
vn 0.3443 -0.9381 -0.0363
vn 0.1410 -0.9648 0.2218
vn -0.1537 -0.9758 -0.1553
vn -0.1444 -0.9844 -0.1004
vn 0.0261 -0.9758 -0.2171
vn 0.5991 -0.7190 0.3523
vn -0.0370 -0.9857 0.1644
vn 0.3306 -0.8769 -0.3489
vn -0.2070 -0.8998 0.3840
vn 0.3170 0.6556 0.6854
vn -0.2338 0.7302 -0.6420
vn 0.4340 0.6357 0.6384
vn 0.5817 0.8133 0.0112
vn 0.4713 0.8807 0.0480
vn -0.0482 0.9973 -0.0554
vn -0.2201 0.9574 0.1866
vn -0.1436 0.9347 0.3250
vn -0.0672 0.9681 -0.2413
vt 0.916667 0.750000
vt 0.833333 0.500000
vt 0.916667 0.500000
vt 0.750000 0.750000
vt 0.666667 0.500000
vt 0.750000 0.500000
vt 0.583333 0.750000
vt 0.500000 0.500000
vt 0.583333 0.500000
vt 0.416667 0.750000
vt 0.333333 0.500000
vt 0.416667 0.500000
vt 0.250000 0.490000
vt 0.198038 0.400000
vt 0.301962 0.400000
vt 0.250000 0.750000
vt 0.166667 0.500000
vt 0.250000 0.500000
vt 0.083333 0.750000
vt -0.000000 0.500000
vt 0.083333 0.500000
vt 0.957846 0.370000
vt 0.905885 0.280000
vt 0.853923 0.370000
vt 0.833333 1.000000
vt 0.916667 1.000000
vt 0.666667 1.000000
vt 0.750000 1.000000
vt 0.500000 1.000000
vt 0.583333 1.000000
vt 0.333333 1.000000
vt 0.416667 1.000000
vt 0.457846 0.250000
vt 0.405885 0.220000
vt 0.457846 0.130000
vt 0.146077 0.430000
vt 0.146077 0.070000
vt 0.146077 0.130000
vt 0.042154 0.130000
vt 0.166667 1.000000
vt 0.250000 1.000000
vt -0.000000 1.000000
vt 0.083333 1.000000
vt 0.646077 0.430000
vt 0.646077 0.370000
vt 0.542154 0.370000
vt 0.957846 0.250000
vt 0.646077 0.070000
vt 0.698038 0.100000
vt 0.750000 0.010000
vt 0.542154 0.250000
vt 0.594115 0.280000
vt 0.646077 0.190000
vt 0.594115 0.160000
vt 0.542154 0.130000
vt 0.853923 0.070000
vt 0.801962 0.100000
vt 0.853923 0.190000
vt 0.905885 0.160000
vt 0.957846 0.130000
vt 0.853923 0.430000
vt 0.750000 0.370000
vt 0.750000 0.430000
vt 0.750000 0.490000
vt 0.353923 0.070000
vt 0.353923 0.130000
vt 0.250000 0.130000
vt 0.250000 0.070000
vt 0.250000 0.010000
vt 0.042154 0.250000
vt 0.094115 0.220000
vt 0.146077 0.310000
vt 0.094115 0.340000
vt 0.042154 0.370000
vt 0.353923 0.430000
vt 0.353923 0.310000
vt 0.405885 0.340000
vt 0.457846 0.370000
vt 1.000000 1.000000
vt 0.698038 0.280000
vt 0.801962 0.280000
vt 0.750000 0.190000
vt 0.301962 0.220000
vt 0.250000 0.310000
vt 0.198038 0.220000
vt 1.000000 0.500000
s 0
f 25/1/1 3/2/1 13/3/1
f 26/4/2 5/5/2 15/6/2
f 27/7/3 7/8/3 17/9/3
f 28/10/4 9/11/4 19/12/4
f 2/13/5 38/14/5 43/15/5
f 32/16/6 11/17/6 21/18/6
f 33/19/7 1/20/7 23/21/7
f 3/22/8 41/23/8 46/24/8
f 4/25/9 25/1/9 14/26/9
f 6/27/10 26/4/10 16/28/10
f 8/29/11 27/7/11 18/30/11
f 10/31/12 28/10/12 20/32/12
f 16/33/13 37/34/13 6/35/13
f 24/36/14 38/14/14 2/13/14
f 20/37/15 39/38/15 10/39/15
f 12/40/16 32/16/16 22/41/16
f 2/42/17 33/19/17 24/43/17
f 23/44/18 40/45/18 11/46/18
f 15/47/19 41/23/19 3/22/19
f 19/48/20 42/49/20 7/50/20
f 21/51/21 48/52/21 36/53/21
f 36/53/22 49/54/22 21/51/22
f 9/55/23 49/54/23 19/48/23
f 17/56/24 47/57/24 35/58/24
f 35/58/25 50/59/25 17/56/25
f 5/60/26 50/59/26 15/47/26
f 13/61/27 46/24/27 34/62/27
f 34/62/28 51/63/28 13/61/28
f 1/64/29 51/63/29 23/44/29
f 12/40/30 24/43/30 33/19/30
f 10/31/31 22/41/31 32/16/31
f 18/65/32 45/66/32 31/67/32
f 31/67/33 52/68/33 18/65/33
f 8/69/34 52/68/34 20/37/34
f 22/70/35 44/71/35 30/72/35
f 30/72/36 53/73/36 22/70/36
f 12/74/37 53/73/37 24/36/37
f 14/75/38 43/15/38 29/76/38
f 29/76/39 54/77/39 14/75/39
f 4/78/40 54/77/40 16/33/40
f 8/29/41 20/32/41 28/10/41
f 6/27/42 18/30/42 27/7/42
f 4/25/43 16/28/43 26/4/43
f 2/79/44 14/26/44 25/1/44
f 34/62/45 55/80/45 40/45/45
f 34/62/46 56/81/46 55/80/46
f 35/58/47 47/57/47 57/82/47
f 33/19/48 11/17/48 12/40/48
f 32/16/49 9/11/49 10/31/49
f 29/76/50 58/83/50 37/34/50
f 29/76/51 59/84/51 58/83/51
f 30/72/52 44/71/52 60/85/52
f 28/10/53 7/8/53 8/29/53
f 27/7/54 5/5/54 6/27/54
f 26/4/55 3/2/55 4/25/55
f 25/1/56 1/86/56 2/79/56
f 4/25/57 3/2/57 25/1/57
f 6/27/58 5/5/58 26/4/58
f 8/29/59 7/8/59 27/7/59
f 10/31/60 9/11/60 28/10/60
f 12/40/61 11/17/61 32/16/61
f 2/42/62 1/20/62 33/19/62
f 33/19/63 23/21/63 11/17/63
f 32/16/64 21/18/64 9/11/64
f 28/10/65 19/12/65 7/8/65
f 27/7/66 17/9/66 5/5/66
f 26/4/67 15/6/67 3/2/67
f 25/1/68 13/3/68 1/86/68
f 60/85/69 39/38/69 31/67/69
f 60/85/70 44/71/70 39/38/70
f 44/71/71 10/39/71 39/38/71
f 58/83/72 60/85/72 31/67/72
f 58/83/73 59/84/73 60/85/73
f 59/84/74 30/72/74 60/85/74
f 37/34/75 45/66/75 6/35/75
f 37/34/76 58/83/76 45/66/76
f 58/83/77 31/67/77 45/66/77
f 57/82/78 42/49/78 36/53/78
f 57/82/79 47/57/79 42/49/79
f 47/57/80 7/50/80 42/49/80
f 55/80/81 57/82/81 36/53/81
f 55/80/82 56/81/82 57/82/82
f 56/81/83 35/58/83 57/82/83
f 40/45/84 48/52/84 11/46/84
f 40/45/85 55/80/85 48/52/85
f 55/80/86 36/53/86 48/52/86
f 46/24/87 56/81/87 34/62/87
f 46/24/88 41/23/88 56/81/88
f 41/23/89 35/58/89 56/81/89
f 43/15/90 59/84/90 29/76/90
f 43/15/91 38/14/91 59/84/91
f 38/14/92 30/72/92 59/84/92
f 16/33/93 29/76/93 37/34/93
f 24/36/94 30/72/94 38/14/94
f 20/37/95 31/67/95 39/38/95
f 23/44/96 34/62/96 40/45/96
f 15/47/97 35/58/97 41/23/97
f 19/48/98 36/53/98 42/49/98
f 21/51/99 11/46/99 48/52/99
f 36/53/100 19/48/100 49/54/100
f 9/55/101 21/51/101 49/54/101
f 17/56/102 7/50/102 47/57/102
f 35/58/103 15/47/103 50/59/103
f 5/60/104 17/56/104 50/59/104
f 13/61/105 3/22/105 46/24/105
f 34/62/106 23/44/106 51/63/106
f 1/64/107 13/61/107 51/63/107
f 18/65/108 6/35/108 45/66/108
f 31/67/109 20/37/109 52/68/109
f 8/69/110 18/65/110 52/68/110
f 22/70/111 10/39/111 44/71/111
f 30/72/112 24/36/112 53/73/112
f 12/74/113 22/70/113 53/73/113
f 14/75/114 2/13/114 43/15/114
f 29/76/115 16/33/115 54/77/115
f 4/78/116 14/75/116 54/77/116
