# Blender 4.3.0
# www.blender.org
o Cylinder
v 0.000000 -2.020159 -24.376673
v 0.000000 1.403558 -23.575703
v 24.041702 -4.625426 -13.880484
v 19.350128 0.455093 -11.171802
v 19.776962 -0.834503 11.418235
v 19.673481 0.742501 11.358489
v 0.000000 -3.691426 26.547684
v 0.000000 4.769077 27.947599
v -22.452967 -3.213188 12.963226
v -23.397144 4.052478 13.508348
v -23.400877 -4.055795 -13.510503
v -19.724182 0.787587 -11.387762
v 9.778809 -0.407005 -16.937393
v 11.246155 3.341665 -19.478910
v 20.765661 -1.615035 0.000000
v 21.314442 2.163811 0.000000
v 10.997098 -2.843558 19.047533
v 11.465462 3.780276 19.858763
v -10.618200 -2.085770 18.391262
v -10.230129 1.309636 17.719103
v -21.794992 -2.644356 0.000000
v -23.216843 4.066191 0.000000
v -9.805838 -0.461063 -16.984211
v -10.363111 1.575597 -17.949434
v 12.172723 0.000000 -21.083775
v 18.374043 0.000000 0.000000
v 12.277611 0.000000 21.265446
v -10.143862 0.000000 17.569685
v 10.825317 5.324046 -6.250000
v -10.825317 3.655386 -6.250000
v 0.000000 1.340794 12.500000
v -20.682671 0.000000 0.000000
v -10.939869 0.000000 -18.948408
v 0.000000 -5.363478 -12.500000
v 10.825317 -1.594195 6.250000
v -10.825317 -5.516793 6.250000
v 16.237976 2.661960 3.125000
v -5.412659 3.505021 -15.625000
v -10.825317 6.019016 12.500000
v -10.825317 -5.976014 -12.500000
v 16.237976 -0.888925 -3.125000
v -5.412659 -1.290026 15.625000
v 5.412659 5.329553 -15.625000
v -16.237976 4.561658 3.125000
v 10.825317 5.310841 12.500000
v 10.825317 -5.341385 -12.500000
v 5.412659 -1.265121 15.625000
v -16.237976 0.014843 -3.125000
v -16.237976 -2.324636 9.375000
v 16.237976 -0.949115 9.375000
v 0.000000 -2.052532 -18.750000
v 0.000000 3.709634 18.750000
v -16.237976 3.216790 -9.375000
v 16.237976 4.117157 -9.375000
v -5.412659 -4.361453 -3.125000
v 5.412659 -6.144480 -3.125000
v 0.000000 0.169196 6.250000
v 5.412659 3.653222 3.125000
v 0.000000 4.874184 -6.250000
v -5.412659 2.888365 3.125000
vn -0.2313 -0.9462 -0.2264
vn 0.5596 0.8287 -0.0082
vn 0.4547 -0.6660 0.5914
vn -0.4118 0.4135 0.8120
vn -0.1557 0.9237 -0.3501
vn -0.9196 0.3868 0.0689
vn -0.2269 -0.9691 -0.0965
vn 0.0899 -0.9188 0.3844
vn 0.7114 0.4546 -0.5360
vn 0.5926 -0.8053 -0.0152
vn 0.5526 0.3923 0.7353
vn -0.3262 -0.1283 0.9365
vn 0.1867 0.9711 0.1485
vn -0.1836 0.9123 -0.3661
vn -0.0614 0.7375 0.6725
vn -0.8438 -0.5259 -0.1074
vn -0.3775 0.5905 -0.7133
vn -0.0332 -0.6268 -0.7785
vn -0.2548 -0.9557 0.1471
vn 0.0278 -0.9733 -0.2277
vn 0.0923 -0.8333 -0.5450
vn -0.3781 -0.8901 0.2544
vn 0.1155 -0.9923 -0.0457
vn -0.2183 -0.9715 -0.0919
vn 0.1734 -0.9800 -0.0980
vn -0.0067 -0.9977 0.0676
vn 0.0014 -0.6685 -0.7437
vn 0.2292 -0.8601 -0.4557
vn -0.1612 -0.9869 -0.0057
vn -0.4972 0.5871 -0.6388
vn -0.8486 -0.5289 -0.0119
vn -0.3359 0.9159 0.2197
vn 0.0285 0.9347 -0.3543
vn -0.2163 0.9699 -0.1117
vn -0.0219 0.9938 -0.1087
vn -0.0200 0.9943 -0.1050
vn -0.3543 0.8433 -0.4041
vn 0.2375 0.9617 -0.1366
vn 0.1363 0.9804 -0.1426
vn 0.6846 0.6929 -0.2263
vn -0.6795 -0.1272 0.7226
vn 0.7308 0.3704 0.5733
vn 0.5926 -0.8053 0.0190
vn 0.2287 0.4723 -0.8513
vn 0.0560 -0.9889 0.1380
vn -0.1625 -0.9866 0.0116
vn -0.1605 -0.9853 -0.0581
vn -0.4737 0.6295 -0.6159
vn -0.9800 -0.1152 -0.1624
vn 0.0889 0.9705 0.2243
vn -0.0410 0.9875 0.1523
vn 0.1528 0.9882 -0.0073
vn -0.6820 -0.1194 0.7215
vn 0.7964 0.0750 0.6001
vn 0.7556 0.6485 0.0924
vn 0.2201 0.2222 -0.9498
vn 0.5408 0.7259 -0.4249
vn 0.9912 0.0606 -0.1174
vn 0.4280 -0.1475 0.8917
vn -0.3224 -0.1124 0.9399
vn -0.7911 0.6112 -0.0243
vn -0.4036 0.2084 -0.8909
vn 0.1664 -0.9343 -0.3154
vn -0.9214 0.3876 -0.0298
vn -0.5147 0.4130 0.7513
vn 0.5789 -0.6474 0.4957
vn 0.5590 0.8278 -0.0476
vn 0.1642 -0.9864 -0.0020
vn 0.3955 0.9152 -0.0773
vn 0.1485 0.9606 -0.2350
vn -0.1591 0.9854 -0.0613
vn -0.0690 0.9771 0.2012
vn -0.0695 0.9833 0.1682
vn -0.1107 0.9833 0.1444
vn 0.4602 0.8877 0.0149
vn 0.0889 0.9708 -0.2230
vn -0.3441 0.9384 0.0328
vn 0.4611 -0.8778 0.1296
vn 0.0023 -0.9883 -0.1525
vn 0.0022 -0.9764 -0.2158
vn 0.4592 -0.8743 0.1574
vn -0.1412 -0.8570 0.4956
vn -0.1396 -0.8568 0.4964
vn -0.1700 -0.8720 0.4591
vn -0.3508 -0.8678 0.3520
vn -0.3558 -0.8802 -0.3139
vn 0.0020 -0.9964 -0.0842
vn 0.4302 -0.8861 0.1725
vn 0.4295 -0.8847 0.1814
vn -0.0415 0.9988 0.0246
vn -0.1660 0.9850 -0.0480
vn -0.1115 0.9905 -0.0803
vn 0.1948 0.9673 0.1622
vn -0.2833 0.9422 -0.1787
vn 0.3123 0.7227 0.6165
vn 0.0359 -0.6345 -0.7721
vn -0.0768 -0.9899 -0.1188
vn 0.2780 -0.9256 0.2568
vn 0.4494 -0.8924 0.0398
vn -0.3760 -0.8900 0.2579
vn 0.1202 -0.9920 -0.0374
vn -0.1076 -0.9579 -0.2661
vn 0.0607 -0.9931 0.0999
vn 0.1091 -0.9850 -0.1338
vn -0.0407 -0.6729 -0.7386
vn -0.2220 -0.8616 -0.4564
vn 0.1670 -0.9859 -0.0057
vn 0.4685 0.8722 0.1407
vn -0.1806 0.9197 -0.3486
vn 0.0049 0.9934 -0.1144
vn -0.0708 0.9975 0.0001
vn 0.0208 0.9845 -0.1742
vn -0.3830 0.8498 -0.3621
vn 0.0090 0.8942 -0.4476
vn 0.2525 0.9655 0.0644
vn 0.6171 0.7004 -0.3586
vt 0.916667 0.750000
vt 0.833333 0.500000
vt 0.916667 0.500000
vt 0.750000 0.750000
vt 0.666667 0.500000
vt 0.750000 0.500000
vt 0.583333 0.750000
vt 0.500000 0.500000
vt 0.583333 0.500000
vt 0.416667 0.750000
vt 0.333333 0.500000
vt 0.416667 0.500000
vt 0.250000 0.490000
vt 0.198038 0.400000
vt 0.301962 0.400000
vt 0.250000 0.750000
vt 0.166667 0.500000
vt 0.250000 0.500000
vt 0.083333 0.750000
vt -0.000000 0.500000
vt 0.083333 0.500000
vt 0.957846 0.370000
vt 0.905885 0.280000
vt 0.853923 0.370000
vt 0.833333 1.000000
vt 0.916667 1.000000
vt 0.666667 1.000000
vt 0.750000 1.000000
vt 0.500000 1.000000
vt 0.583333 1.000000
vt 0.333333 1.000000
vt 0.416667 1.000000
vt 0.457846 0.250000
vt 0.405885 0.220000
vt 0.457846 0.130000
vt 0.146077 0.430000
vt 0.146077 0.070000
vt 0.146077 0.130000
vt 0.042154 0.130000
vt 0.166667 1.000000
vt 0.250000 1.000000
vt -0.000000 1.000000
vt 0.083333 1.000000
vt 0.646077 0.430000
vt 0.646077 0.370000
vt 0.542154 0.370000
vt 0.957846 0.250000
vt 0.646077 0.070000
vt 0.698038 0.100000
vt 0.750000 0.010000
vt 0.542154 0.250000
vt 0.594115 0.280000
vt 0.646077 0.190000
vt 0.594115 0.160000
vt 0.542154 0.130000
vt 0.853923 0.070000
vt 0.801962 0.100000
vt 0.853923 0.190000
vt 0.905885 0.160000
vt 0.957846 0.130000
vt 0.853923 0.430000
vt 0.750000 0.370000
vt 0.750000 0.430000
vt 0.750000 0.490000
vt 0.353923 0.070000
vt 0.353923 0.130000
vt 0.250000 0.130000
vt 0.250000 0.070000
vt 0.250000 0.010000
vt 0.042154 0.250000
vt 0.094115 0.220000
vt 0.146077 0.310000
vt 0.094115 0.340000
vt 0.042154 0.370000
vt 0.353923 0.430000
vt 0.353923 0.310000
vt 0.405885 0.340000
vt 0.457846 0.370000
vt 1.000000 1.000000
vt 0.698038 0.280000
vt 0.801962 0.280000
vt 0.750000 0.190000
vt 0.301962 0.220000
vt 0.250000 0.310000
vt 0.198038 0.220000
vt 1.000000 0.500000
s 0
f 25/1/1 3/2/1 13/3/1
f 26/4/2 5/5/2 15/6/2
f 27/7/3 7/8/3 17/9/3
f 28/10/4 9/11/4 19/12/4
f 2/13/5 38/14/5 43/15/5
f 32/16/6 11/17/6 21/18/6
f 33/19/7 1/20/7 23/21/7
f 3/22/8 41/23/8 46/24/8
f 4/25/9 25/1/9 14/26/9
f 6/27/10 26/4/10 16/28/10
f 8/29/11 27/7/11 18/30/11
f 10/31/12 28/10/12 20/32/12
f 16/33/13 37/34/13 6/35/13
f 24/36/14 38/14/14 2/13/14
f 20/37/15 39/38/15 10/39/15
f 12/40/16 32/16/16 22/41/16
f 2/42/17 33/19/17 24/43/17
f 23/44/18 40/45/18 11/46/18
f 15/47/19 41/23/19 3/22/19
f 19/48/20 42/49/20 7/50/20
f 21/51/21 48/52/21 36/53/21
f 36/53/22 49/54/22 21/51/22
f 9/55/23 49/54/23 19/48/23
f 17/56/24 47/57/24 35/58/24
f 35/58/25 50/59/25 17/56/25
f 5/60/26 50/59/26 15/47/26
f 13/61/27 46/24/27 34/62/27
f 34/62/28 51/63/28 13/61/28
f 1/64/29 51/63/29 23/44/29
f 12/40/30 24/43/30 33/19/30
f 10/31/31 22/41/31 32/16/31
f 18/65/32 45/66/32 31/67/32
f 31/67/33 52/68/33 18/65/33
f 8/69/34 52/68/34 20/37/34
f 22/70/35 44/71/35 30/72/35
f 30/72/36 53/73/36 22/70/36
f 12/74/37 53/73/37 24/36/37
f 14/75/38 43/15/38 29/76/38
f 29/76/39 54/77/39 14/75/39
f 4/78/40 54/77/40 16/33/40
f 8/29/41 20/32/41 28/10/41
f 6/27/42 18/30/42 27/7/42
f 4/25/43 16/28/43 26/4/43
f 2/79/44 14/26/44 25/1/44
f 34/62/45 55/80/45 40/45/45
f 34/62/46 56/81/46 55/80/46
f 35/58/47 47/57/47 57/82/47
f 33/19/48 11/17/48 12/40/48
f 32/16/49 9/11/49 10/31/49
f 29/76/50 58/83/50 37/34/50
f 29/76/51 59/84/51 58/83/51
f 30/72/52 44/71/52 60/85/52
f 28/10/53 7/8/53 8/29/53
f 27/7/54 5/5/54 6/27/54
f 26/4/55 3/2/55 4/25/55
f 25/1/56 1/86/56 2/79/56
f 4/25/57 3/2/57 25/1/57
f 6/27/58 5/5/58 26/4/58
f 8/29/59 7/8/59 27/7/59
f 10/31/60 9/11/60 28/10/60
f 12/40/61 11/17/61 32/16/61
f 2/42/62 1/20/62 33/19/62
f 33/19/63 23/21/63 11/17/63
f 32/16/64 21/18/64 9/11/64
f 28/10/65 19/12/65 7/8/65
f 27/7/66 17/9/66 5/5/66
f 26/4/67 15/6/67 3/2/67
f 25/1/68 13/3/68 1/86/68
f 60/85/69 39/38/69 31/67/69
f 60/85/70 44/71/70 39/38/70
f 44/71/71 10/39/71 39/38/71
f 58/83/72 60/85/72 31/67/72
f 58/83/73 59/84/73 60/85/73
f 59/84/74 30/72/74 60/85/74
f 37/34/75 45/66/75 6/35/75
f 37/34/76 58/83/76 45/66/76
f 58/83/77 31/67/77 45/66/77
f 57/82/78 42/49/78 36/53/78
f 57/82/79 47/57/79 42/49/79
f 47/57/80 7/50/80 42/49/80
f 55/80/81 57/82/81 36/53/81
f 55/80/82 56/81/82 57/82/82
f 56/81/83 35/58/83 57/82/83
f 40/45/84 48/52/84 11/46/84
f 40/45/85 55/80/85 48/52/85
f 55/80/86 36/53/86 48/52/86
f 46/24/87 56/81/87 34/62/87
f 46/24/88 41/23/88 56/81/88
f 41/23/89 35/58/89 56/81/89
f 43/15/90 59/84/90 29/76/90
f 43/15/91 38/14/91 59/84/91
f 38/14/92 30/72/92 59/84/92
f 16/33/93 29/76/93 37/34/93
f 24/36/94 30/72/94 38/14/94
f 20/37/95 31/67/95 39/38/95
f 23/44/96 34/62/96 40/45/96
f 15/47/97 35/58/97 41/23/97
f 19/48/98 36/53/98 42/49/98
f 21/51/99 11/46/99 48/52/99
f 36/53/100 19/48/100 49/54/100
f 9/55/101 21/51/101 49/54/101
f 17/56/102 7/50/102 47/57/102
f 35/58/103 15/47/103 50/59/103
f 5/60/104 17/56/104 50/59/104
f 13/61/105 3/22/105 46/24/105
f 34/62/106 23/44/106 51/63/106
f 1/64/107 13/61/107 51/63/107
f 18/65/108 6/35/108 45/66/108
f 31/67/109 20/37/109 52/68/109
f 8/69/110 18/65/110 52/68/110
f 22/70/111 10/39/111 44/71/111
f 30/72/112 24/36/112 53/73/112
f 12/74/113 22/70/113 53/73/113
f 14/75/114 2/13/114 43/15/114
f 29/76/115 16/33/115 54/77/115
f 4/78/116 14/75/116 54/77/116
