# Blender 4.3.0
# www.blender.org
o Cylinder
v 0.000000 -4.609791 -27.740683
v 0.000000 1.217420 -23.333906
v 23.088249 -3.777901 -13.330008
v 20.983232 1.906750 -12.114676
v 20.800642 -1.744447 12.009257
v 23.935310 4.530855 13.819058
v 0.000000 -2.346902 24.801123
v 0.000000 1.866249 24.176739
v -23.974974 -4.566092 13.841958
v -20.028563 1.058136 11.563497
v -19.328007 -0.435409 -11.159030
v -21.175560 2.077708 -12.225715
v 12.133333 -5.116005 -21.015551
v 12.133603 5.116543 -21.016018
v 23.838264 -4.687606 0.000000
v 21.833044 2.682407 0.000000
v 9.771699 -0.392786 16.925079
v 10.644032 2.137433 18.436005
v -12.057053 -4.963445 20.883429
v -10.844934 2.539234 18.783978
v -20.127176 -0.976558 0.000000
v -21.295671 2.145040 0.000000
v -10.039592 -0.928566 -17.389084
v -10.110064 1.069508 -17.511145
v 11.356879 0.000000 -19.670692
v 22.294395 0.000000 0.000000
v 12.623182 0.000000 21.863995
v -12.119939 0.000000 20.992352
v 10.825317 -0.358451 -6.250000
v -10.825317 1.154652 -6.250000
v 0.000000 3.250224 12.500000
v -10.230748 0.000000 -17.720177
v 0.000000 0.185268 -12.500000
v 10.825317 -3.282513 6.250000
v -10.825317 -2.304168 6.250000
v 16.237976 1.149373 3.125000
v -5.412659 2.270442 -15.625000
v -10.825317 1.323702 12.500000
v -10.825317 -4.607450 -12.500000
v 16.237976 0.776300 -3.125000
v -5.412659 -0.045848 15.625000
v 5.412659 6.093829 -15.625000
v -16.237976 0.657783 3.125000
v 10.825317 -1.039983 12.500000
v 10.825317 -2.181468 -12.500000
v 5.412659 0.894528 15.625000
v -16.237976 -1.629877 -3.125000
v -16.237976 0.289503 9.375000
v 16.237976 -3.603143 9.375000
v 0.000000 -4.518341 -18.750000
v 0.000000 3.720204 18.750000
v -16.237976 1.595371 -9.375000
v 16.237976 5.573507 -9.375000
v -5.412659 -3.200049 -3.125000
v 5.412659 -4.687071 -3.125000
v 0.000000 -3.567486 6.250000
v 5.412659 4.024106 3.125000
v 0.000000 5.813066 -6.250000
v -5.412659 0.935030 3.125000
vn 0.5256 0.2900 -0.7997
vn 0.9374 0.3087 0.1614
vn 0.1773 -0.9839 -0.0241
vn -0.5091 -0.0253 0.8603
vn -0.3131 0.8864 -0.3409
vn -0.7307 -0.3578 -0.5815
vn -0.0976 -0.9316 0.3502
vn 0.6261 -0.2858 -0.7255
vn 0.9712 0.1670 -0.1701
vn 0.2084 0.8794 0.4280
vn -0.5099 0.6959 0.5058
vn -0.3050 0.9489 -0.0805
vn -0.1504 0.9599 -0.2367
vn -0.0090 0.9818 -0.1899
vn -0.9365 -0.3506 -0.0073
vn -0.4893 0.2201 -0.8439
vn -0.4295 -0.6871 -0.5860
vn -0.5772 -0.8162 -0.0232
vn 0.3171 -0.8588 -0.4024
vn -0.1524 -0.9882 0.0169
vn -0.2983 -0.9216 0.2482
vn 0.2534 -0.8420 -0.4764
vn -0.3351 -0.9173 0.2152
vn -0.1940 -0.9516 0.2384
vn 0.2167 -0.9341 0.2837
vn -0.2044 -0.9347 0.2907
vn 0.0727 -0.7969 0.5997
vn -0.3355 -0.9420 0.0096
vn -0.4042 0.2192 -0.8880
vn -0.9343 -0.3497 0.0695
vn 0.3313 0.8360 -0.4374
vn 0.1445 0.9867 -0.0742
vn -0.1015 0.9414 0.3216
vn 0.1867 0.9694 0.1592
vn 0.0876 0.9961 -0.0112
vn 0.0937 0.9956 0.0062
vn 0.4032 0.8458 0.3493
vn -0.6661 0.7167 0.2067
vn 0.5749 0.8130 -0.0924
vn -0.2796 0.7062 0.6505
vn 0.0260 0.8549 0.5181
vn 0.9824 0.1690 -0.0797
vn 0.2669 -0.2828 -0.9213
vn 0.4030 -0.9102 -0.0960
vn -0.1247 -0.9080 -0.3999
vn 0.0239 -0.9080 0.4183
vn -0.4456 -0.6069 -0.6581
vn -0.8320 0.5476 -0.0893
vn 0.2456 0.9248 -0.2905
vn 0.4917 0.8625 -0.1193
vn -0.0256 0.9989 0.0382
vn -0.2718 0.1411 0.9519
vn 0.6271 -0.4883 0.6068
vn 0.9336 0.3554 -0.0451
vn 0.3064 0.5742 -0.7592
vn 0.5307 0.3605 -0.7671
vn 0.8886 -0.4566 0.0442
vn 0.1989 0.1437 0.9694
vn -0.5666 0.6183 0.5447
vn -0.7850 -0.6136 -0.0860
vn -0.4539 0.5375 -0.7107
vn -0.5292 -0.3795 -0.7589
vn -0.3041 -0.0248 0.9523
vn -0.0686 -0.9906 0.1184
vn 0.9493 0.3127 -0.0321
vn 0.4731 0.2904 -0.8317
vn -0.1735 0.9748 -0.1406
vn -0.0256 0.9981 -0.0561
vn -0.0229 0.9981 -0.0577
vn -0.2735 0.9586 -0.0788
vn -0.2596 0.9099 0.3235
vn -0.3835 0.8912 0.2423
vn -0.3902 0.9207 -0.0103
vn 0.2404 0.9053 0.3502
vn 0.3539 0.8930 0.2780
vn -0.1108 -0.9497 0.2928
vn 0.0797 -0.9171 0.3905
vn 0.0829 -0.9540 -0.2881
vn -0.1159 -0.9929 0.0280
vn -0.1360 -0.9899 0.0397
vn 0.0261 -0.9907 0.1334
vn -0.4359 -0.8993 0.0340
vn -0.1398 -0.9642 0.2255
vn -0.1435 -0.9896 0.0117
vn -0.1994 -0.9119 -0.3588
vn 0.4505 -0.8925 0.0215
vn 0.4470 -0.8857 -0.1254
vn 0.4728 0.8293 0.2978
vn -0.3286 0.9305 -0.1619
vn -0.3925 0.9121 -0.1181
vn -0.2653 0.9642 -0.0019
vn -0.2391 0.9707 -0.0225
vn -0.1721 0.9671 -0.1876
vn 0.3436 -0.7761 -0.5288
vn -0.3392 -0.7760 -0.5318
vn 0.5353 -0.8379 -0.1072
vn -0.2141 -0.9748 -0.0626
vn -0.5132 -0.8358 -0.1951
vn 0.4928 -0.8657 -0.0875
vn -0.1458 -0.9027 -0.4049
vn -0.0854 -0.9953 0.0459
vn 0.0957 -0.8839 0.4578
vn -0.1021 -0.9452 0.3101
vn -0.2001 -0.7829 0.5892
vn -0.0473 -0.9988 0.0102
vn -0.3088 0.8346 -0.4562
vn -0.1082 0.9913 -0.0745
vn 0.1486 0.9358 0.3197
vn 0.2449 0.9674 0.0641
vn 0.0825 0.9966 -0.0023
vn 0.0998 0.9950 -0.0045
vn -0.2051 0.8858 -0.4163
vn -0.4853 0.7110 0.5089
vn 0.5166 0.8289 -0.2147
vt 0.916667 0.750000
vt 0.833333 0.500000
vt 0.916667 0.500000
vt 0.750000 0.750000
vt 0.666667 0.500000
vt 0.750000 0.500000
vt 0.583333 0.750000
vt 0.500000 0.500000
vt 0.583333 0.500000
vt 0.416667 0.750000
vt 0.333333 0.500000
vt 0.416667 0.500000
vt 0.250000 0.490000
vt 0.198038 0.400000
vt 0.301962 0.400000
vt 0.083333 0.750000
vt -0.000000 0.500000
vt 0.083333 0.500000
vt 0.957846 0.370000
vt 0.905885 0.280000
vt 0.853923 0.370000
vt 0.833333 1.000000
vt 0.916667 1.000000
vt 0.666667 1.000000
vt 0.750000 1.000000
vt 0.500000 1.000000
vt 0.583333 1.000000
vt 0.333333 1.000000
vt 0.416667 1.000000
vt 0.457846 0.250000
vt 0.405885 0.220000
vt 0.457846 0.130000
vt 0.146077 0.430000
vt 0.146077 0.070000
vt 0.146077 0.130000
vt 0.042154 0.130000
vt 0.166667 1.000000
vt 0.250000 0.750000
vt 0.250000 1.000000
vt -0.000000 1.000000
vt 0.083333 1.000000
vt 0.646077 0.430000
vt 0.646077 0.370000
vt 0.542154 0.370000
vt 0.957846 0.250000
vt 0.646077 0.070000
vt 0.698038 0.100000
vt 0.750000 0.010000
vt 0.542154 0.250000
vt 0.594115 0.280000
vt 0.646077 0.190000
vt 0.594115 0.160000
vt 0.542154 0.130000
vt 0.853923 0.070000
vt 0.801962 0.100000
vt 0.853923 0.190000
vt 0.905885 0.160000
vt 0.957846 0.130000
vt 0.853923 0.430000
vt 0.750000 0.370000
vt 0.750000 0.430000
vt 0.750000 0.490000
vt 0.353923 0.070000
vt 0.353923 0.130000
vt 0.250000 0.130000
vt 0.250000 0.070000
vt 0.250000 0.010000
vt 0.042154 0.250000
vt 0.094115 0.220000
vt 0.146077 0.310000
vt 0.094115 0.340000
vt 0.042154 0.370000
vt 0.353923 0.430000
vt 0.353923 0.310000
vt 0.405885 0.340000
vt 0.457846 0.370000
vt 1.000000 1.000000
vt 0.698038 0.280000
vt 0.801962 0.280000
vt 0.750000 0.190000
vt 0.166667 0.500000
vt 0.301962 0.220000
vt 0.250000 0.310000
vt 0.198038 0.220000
vt 1.000000 0.500000
s 0
f 25/1/1 3/2/1 13/3/1
f 26/4/2 5/5/2 15/6/2
f 27/7/3 7/8/3 17/9/3
f 28/10/4 9/11/4 19/12/4
f 2/13/5 37/14/5 42/15/5
f 32/16/6 1/17/6 23/18/6
f 3/19/7 40/20/7 45/21/7
f 4/22/8 25/1/8 14/23/8
f 6/24/9 26/4/9 16/25/9
f 8/26/10 27/7/10 18/27/10
f 10/28/11 28/10/11 20/29/11
f 16/30/12 36/31/12 6/32/12
f 24/33/13 37/14/13 2/13/13
f 20/34/14 38/35/14 10/36/14
f 12/37/15 21/38/15 22/39/15
f 2/40/16 32/16/16 24/41/16
f 23/42/17 39/43/17 11/44/17
f 15/45/18 40/20/18 3/19/18
f 19/46/19 41/47/19 7/48/19
f 21/49/20 47/50/20 35/51/20
f 35/51/21 48/52/21 21/49/21
f 9/53/22 48/52/22 19/46/22
f 17/54/23 46/55/23 34/56/23
f 34/56/24 49/57/24 17/54/24
f 5/58/25 49/57/25 15/45/25
f 13/59/26 45/21/26 33/60/26
f 33/60/27 50/61/27 13/59/27
f 1/62/28 50/61/28 23/42/28
f 12/37/29 24/41/29 32/16/29
f 10/28/30 22/39/30 21/38/30
f 18/63/31 44/64/31 31/65/31
f 31/65/32 51/66/32 18/63/32
f 8/67/33 51/66/33 20/34/33
f 22/68/34 43/69/34 30/70/34
f 30/70/35 52/71/35 22/68/35
f 12/72/36 52/71/36 24/33/36
f 14/73/37 42/15/37 29/74/37
f 29/74/38 53/75/38 14/73/38
f 4/76/39 53/75/39 16/30/39
f 8/26/40 20/29/40 28/10/40
f 6/24/41 18/27/41 27/7/41
f 4/22/42 16/25/42 26/4/42
f 2/77/43 14/23/43 25/1/43
f 33/60/44 54/78/44 39/43/44
f 33/60/45 55/79/45 54/78/45
f 34/56/46 46/55/46 56/80/46
f 32/16/47 11/81/47 12/37/47
f 21/38/48 9/11/48 10/28/48
f 29/74/49 57/82/49 36/31/49
f 29/74/50 58/83/50 57/82/50
f 30/70/51 43/69/51 59/84/51
f 28/10/52 7/8/52 8/26/52
f 27/7/53 5/5/53 6/24/53
f 26/4/54 3/2/54 4/22/54
f 25/1/55 1/85/55 2/77/55
f 4/22/56 3/2/56 25/1/56
f 6/24/57 5/5/57 26/4/57
f 8/26/58 7/8/58 27/7/58
f 10/28/59 9/11/59 28/10/59
f 12/37/60 11/81/60 21/38/60
f 2/40/61 1/17/61 32/16/61
f 32/16/62 23/18/62 11/81/62
f 28/10/63 19/12/63 7/8/63
f 27/7/64 17/9/64 5/5/64
f 26/4/65 15/6/65 3/2/65
f 25/1/66 13/3/66 1/85/66
f 59/84/67 38/35/67 31/65/67
f 59/84/68 43/69/68 38/35/68
f 43/69/69 10/36/69 38/35/69
f 57/82/70 59/84/70 31/65/70
f 57/82/71 58/83/71 59/84/71
f 58/83/72 30/70/72 59/84/72
f 36/31/73 44/64/73 6/32/73
f 36/31/74 57/82/74 44/64/74
f 57/82/75 31/65/75 44/64/75
f 56/80/76 41/47/76 35/51/76
f 56/80/77 46/55/77 41/47/77
f 46/55/78 7/48/78 41/47/78
f 54/78/79 56/80/79 35/51/79
f 54/78/80 55/79/80 56/80/80
f 55/79/81 34/56/81 56/80/81
f 39/43/82 47/50/82 11/44/82
f 39/43/83 54/78/83 47/50/83
f 54/78/84 35/51/84 47/50/84
f 45/21/85 55/79/85 33/60/85
f 45/21/86 40/20/86 55/79/86
f 40/20/87 34/56/87 55/79/87
f 42/15/88 58/83/88 29/74/88
f 42/15/89 37/14/89 58/83/89
f 37/14/90 30/70/90 58/83/90
f 16/30/91 29/74/91 36/31/91
f 24/33/92 30/70/92 37/14/92
f 20/34/93 31/65/93 38/35/93
f 23/42/94 33/60/94 39/43/94
f 15/45/95 34/56/95 40/20/95
f 19/46/96 35/51/96 41/47/96
f 21/49/97 11/44/97 47/50/97
f 35/51/98 19/46/98 48/52/98
f 9/53/99 21/49/99 48/52/99
f 17/54/100 7/48/100 46/55/100
f 34/56/101 15/45/101 49/57/101
f 5/58/102 17/54/102 49/57/102
f 13/59/103 3/19/103 45/21/103
f 33/60/104 23/42/104 50/61/104
f 1/62/105 13/59/105 50/61/105
f 18/63/106 6/32/106 44/64/106
f 31/65/107 20/34/107 51/66/107
f 8/67/108 18/63/108 51/66/108
f 22/68/109 10/36/109 43/69/109
f 30/70/110 24/33/110 52/71/110
f 12/72/111 22/68/111 52/71/111
f 14/73/112 2/13/112 42/15/112
f 29/74/113 16/30/113 53/75/113
f 4/76/114 14/73/114 53/75/114
