# Blender 4.3.0
# www.blender.org
o Cylinder
v 0.000000 -1.595974 -23.825642
v 0.000000 4.048466 -27.011486
v 20.051182 -1.078241 -11.576555
v 22.030264 2.837451 -12.719179
v 20.740244 -1.690759 11.974386
v 22.588892 3.334020 13.041703
v 0.000000 -4.342658 27.393644
v 0.000000 3.731418 26.599649
v -22.730589 -3.459965 13.123511
v -20.127163 1.145782 11.620423
v -23.656260 -4.282805 -13.657948
v -19.390284 0.490787 -11.194985
v 11.451047 -3.751446 -19.833796
v 11.992574 4.834487 -20.771748
v 20.774380 -1.623754 0.000000
v 22.995825 3.845175 0.000000
v 10.840931 -2.531226 18.777042
v 10.747660 2.344687 18.615494
v -11.713346 -4.276037 20.288109
v -10.820739 2.490843 18.742069
v -19.093180 0.057427 0.000000
v -21.648174 2.497540 0.000000
v -10.602208 -2.053786 -18.363564
v -10.041694 0.932770 -17.392725
v 12.460862 0.000000 -21.582848
v 17.910984 0.000000 0.000000
v 11.211411 0.000000 19.418734
v -9.121996 0.000000 15.799761
v 10.825317 3.944391 -6.250000
v -10.825317 1.348534 -6.250000
v 0.000000 1.488853 12.500000
v -20.899746 0.000000 0.000000
v -9.041508 0.000000 -15.660351
v 0.000000 -0.485435 -12.500000
v 10.825317 -2.863827 6.250000
v -10.825317 -3.247764 6.250000
v 16.237976 3.678368 3.125000
v -5.412659 3.586508 -15.625000
v -10.825317 0.397939 12.500000
v -10.825317 -5.712646 -12.500000
v 16.237976 -0.620564 -3.125000
v -5.412659 -2.841022 15.625000
v 5.412659 6.111218 -15.625000
v -16.237976 3.243869 3.125000
v 10.825317 6.062196 12.500000
v 10.825317 -2.128386 -12.500000
v 5.412659 -5.250723 15.625000
v -16.237976 1.013882 -3.125000
v -16.237976 0.129114 9.375000
v 16.237976 -6.240544 9.375000
v 0.000000 -5.067398 -18.750000
v 0.000000 5.083764 18.750000
v -16.237976 2.441413 -9.375000
v 16.237976 0.836668 -9.375000
v -5.412659 -5.082763 -3.125000
v 5.412659 1.141165 -3.125000
v 0.000000 -2.606320 6.250000
v 5.412659 1.613383 3.125000
v 0.000000 0.586517 -6.250000
v -5.412659 0.970828 3.125000
vn 0.6872 -0.4506 -0.5698
vn 0.4933 0.8699 0.0063
vn 0.6259 -0.2765 0.7293
vn -0.3059 0.7713 0.5582
vn -0.2266 0.9716 -0.0683
vn 0.0304 -0.9555 0.2935
vn -0.2798 0.8354 -0.4731
vn 0.1027 -0.9897 0.0999
vn 0.6371 0.1872 -0.7477
vn 0.6031 -0.7976 -0.0124
vn 0.5852 0.3640 0.7246
vn -0.2815 -0.8064 0.5201
vn -0.0067 0.9992 0.0390
vn -0.4393 0.8815 -0.1731
vn 0.1057 0.9428 -0.3162
vn -0.9484 -0.2842 -0.1403
vn -0.1193 -0.9013 -0.4164
vn -0.0465 -0.8467 -0.5301
vn -0.1933 -0.9805 -0.0341
vn 0.0975 -0.9806 -0.1700
vn -0.0922 -0.9255 -0.3675
vn -0.4610 -0.8751 0.1471
vn 0.2239 -0.8680 -0.4432
vn 0.4369 -0.8992 0.0233
vn -0.5387 -0.8422 0.0230
vn 0.7114 -0.7028 -0.0019
vn -0.1470 -0.9683 0.2018
vn 0.1470 -0.7977 0.5848
vn -0.2473 -0.7998 -0.5470
vn -0.2030 -0.9063 -0.3708
vn -0.9539 -0.2858 0.0916
vn -0.3403 0.8054 0.4853
vn 0.2099 0.8475 -0.4875
vn -0.2299 0.9591 0.1652
vn -0.0155 0.9783 -0.2067
vn 0.1517 0.9850 0.0817
vn -0.3051 0.8649 -0.3985
vn 0.2492 0.9652 0.0792
vn 0.5362 0.8388 0.0945
vn -0.3505 0.9354 -0.0475
vn -0.2841 -0.8064 0.5186
vn 0.3712 0.3658 0.8535
vn 0.6031 -0.7975 0.0174
vn 0.4433 0.1899 -0.8760
vn 0.4271 -0.8846 -0.1872
vn 0.4938 -0.8589 -0.1361
vn -0.0230 -0.9656 -0.2591
vn -0.2832 0.6274 -0.7254
vn -0.8692 0.4943 0.0091
vn -0.1857 0.9733 0.1348
vn -0.2956 0.9530 0.0663
vn 0.2049 0.9756 -0.0790
vn -0.7730 0.0621 0.6314
vn 0.5342 -0.3591 0.7653
vn 0.8965 -0.3940 0.2024
vn 0.2146 -0.4801 -0.8506
vn 0.6641 -0.4983 -0.5574
vn 0.9231 -0.2848 -0.2583
vn 0.5566 0.0813 0.8268
vn -0.2792 0.4369 0.8551
vn -0.7262 0.6841 -0.0679
vn -0.6577 -0.3702 -0.6560
vn -0.3072 0.8348 -0.4569
vn 0.0308 -0.9676 -0.2508
vn -0.3269 0.7713 0.5461
vn 0.5598 -0.2797 0.7800
vn 0.4933 0.8698 0.0102
vn 0.2140 -0.4595 -0.8620
vn -0.1003 0.9950 0.0029
vn 0.2023 0.9634 0.1757
vn 0.0527 0.9636 0.2621
vn -0.0592 0.9980 -0.0209
vn -0.0591 0.9954 -0.0749
vn 0.0702 0.9975 -0.0004
vn 0.2294 0.9667 -0.1134
vn -0.1764 0.9248 -0.3370
vn -0.3807 0.9011 -0.2078
vn 0.0591 -0.9982 0.0092
vn -0.2149 -0.9653 -0.1482
vn -0.2172 -0.9758 -0.0246
vn 0.0577 -0.9729 0.2237
vn 0.4976 -0.8654 -0.0587
vn -0.0220 -0.9239 -0.3820
vn -0.1409 -0.8411 0.5222
vn -0.4643 -0.8245 0.3235
vn -0.4876 -0.8658 -0.1121
vn -0.1453 -0.9573 0.2500
vn -0.1558 -0.9572 0.2439
vn -0.1526 -0.9376 -0.3124
vn -0.2758 0.8893 0.3648
vn -0.2077 0.8905 0.4049
vn 0.0676 0.9609 0.2684
vn -0.0091 0.9994 0.0336
vn -0.4771 0.8764 -0.0663
vn -0.0951 0.9438 -0.3164
vn 0.3817 -0.7906 -0.4788
vn -0.0389 -0.9665 -0.2537
vn 0.1788 -0.9820 -0.0606
vn 0.4432 -0.8864 0.1336
vn -0.5661 -0.8187 -0.0958
vn 0.4250 -0.8969 -0.1226
vn 0.3302 -0.9173 0.2227
vn -0.2199 -0.8288 -0.5146
vn 0.4286 -0.7290 0.5337
vn 0.0883 -0.9709 0.2224
vn -0.2033 -0.7896 0.5789
vn 0.0414 -0.8247 -0.5640
vn 0.1714 0.8409 0.5133
vn -0.2030 0.8488 -0.4882
vn 0.2455 0.9553 0.1646
vn -0.2145 0.9666 0.1405
vn 0.2099 0.9775 -0.0217
vn -0.4068 0.8814 -0.2400
vn 0.0374 0.9800 -0.1953
vn 0.2368 0.8624 -0.4474
vn -0.1087 0.9247 0.3649
vt 0.916667 0.750000
vt 0.833333 0.500000
vt 0.916667 0.500000
vt 0.750000 0.750000
vt 0.666667 0.500000
vt 0.750000 0.500000
vt 0.583333 0.750000
vt 0.500000 0.500000
vt 0.583333 0.500000
vt 0.416667 0.750000
vt 0.333333 0.500000
vt 0.416667 0.500000
vt 0.250000 0.490000
vt 0.198038 0.400000
vt 0.301962 0.400000
vt 0.250000 0.750000
vt 0.166667 0.500000
vt 0.250000 0.500000
vt 0.083333 0.750000
vt -0.000000 0.500000
vt 0.083333 0.500000
vt 0.957846 0.370000
vt 0.905885 0.280000
vt 0.853923 0.370000
vt 0.833333 1.000000
vt 0.916667 1.000000
vt 0.666667 1.000000
vt 0.750000 1.000000
vt 0.500000 1.000000
vt 0.583333 1.000000
vt 0.333333 1.000000
vt 0.416667 1.000000
vt 0.457846 0.250000
vt 0.405885 0.220000
vt 0.457846 0.130000
vt 0.146077 0.430000
vt 0.146077 0.070000
vt 0.146077 0.130000
vt 0.042154 0.130000
vt 0.166667 1.000000
vt 0.250000 1.000000
vt -0.000000 1.000000
vt 0.083333 1.000000
vt 0.646077 0.430000
vt 0.646077 0.370000
vt 0.542154 0.370000
vt 0.957846 0.250000
vt 0.646077 0.070000
vt 0.698038 0.100000
vt 0.750000 0.010000
vt 0.542154 0.250000
vt 0.594115 0.280000
vt 0.646077 0.190000
vt 0.594115 0.160000
vt 0.542154 0.130000
vt 0.853923 0.070000
vt 0.801962 0.100000
vt 0.853923 0.190000
vt 0.905885 0.160000
vt 0.957846 0.130000
vt 0.853923 0.430000
vt 0.750000 0.370000
vt 0.750000 0.430000
vt 0.750000 0.490000
vt 0.353923 0.070000
vt 0.353923 0.130000
vt 0.250000 0.130000
vt 0.250000 0.070000
vt 0.250000 0.010000
vt 0.042154 0.250000
vt 0.094115 0.220000
vt 0.146077 0.310000
vt 0.094115 0.340000
vt 0.042154 0.370000
vt 0.353923 0.430000
vt 0.353923 0.310000
vt 0.405885 0.340000
vt 0.457846 0.370000
vt 1.000000 1.000000
vt 0.698038 0.280000
vt 0.801962 0.280000
vt 0.750000 0.190000
vt 0.301962 0.220000
vt 0.250000 0.310000
vt 0.198038 0.220000
vt 1.000000 0.500000
s 0
f 25/1/1 3/2/1 13/3/1
f 26/4/2 5/5/2 15/6/2
f 27/7/3 7/8/3 17/9/3
f 28/10/4 9/11/4 19/12/4
f 2/13/5 38/14/5 43/15/5
f 32/16/6 11/17/6 21/18/6
f 33/19/7 1/20/7 23/21/7
f 3/22/8 41/23/8 46/24/8
f 4/25/9 25/1/9 14/26/9
f 6/27/10 26/4/10 16/28/10
f 8/29/11 27/7/11 18/30/11
f 10/31/12 28/10/12 20/32/12
f 16/33/13 37/34/13 6/35/13
f 24/36/14 38/14/14 2/13/14
f 20/37/15 39/38/15 10/39/15
f 12/40/16 32/16/16 22/41/16
f 2/42/17 33/19/17 24/43/17
f 23/44/18 40/45/18 11/46/18
f 15/47/19 41/23/19 3/22/19
f 19/48/20 42/49/20 7/50/20
f 21/51/21 48/52/21 36/53/21
f 36/53/22 49/54/22 21/51/22
f 9/55/23 49/54/23 19/48/23
f 17/56/24 47/57/24 35/58/24
f 35/58/25 50/59/25 17/56/25
f 5/60/26 50/59/26 15/47/26
f 13/61/27 46/24/27 34/62/27
f 34/62/28 51/63/28 13/61/28
f 1/64/29 51/63/29 23/44/29
f 12/40/30 24/43/30 33/19/30
f 10/31/31 22/41/31 32/16/31
f 18/65/32 45/66/32 31/67/32
f 31/67/33 52/68/33 18/65/33
f 8/69/34 52/68/34 20/37/34
f 22/70/35 44/71/35 30/72/35
f 30/72/36 53/73/36 22/70/36
f 12/74/37 53/73/37 24/36/37
f 14/75/38 43/15/38 29/76/38
f 29/76/39 54/77/39 14/75/39
f 4/78/40 54/77/40 16/33/40
f 8/29/41 20/32/41 28/10/41
f 6/27/42 18/30/42 27/7/42
f 4/25/43 16/28/43 26/4/43
f 2/79/44 14/26/44 25/1/44
f 34/62/45 55/80/45 40/45/45
f 34/62/46 56/81/46 55/80/46
f 35/58/47 47/57/47 57/82/47
f 33/19/48 11/17/48 12/40/48
f 32/16/49 9/11/49 10/31/49
f 29/76/50 58/83/50 37/34/50
f 29/76/51 59/84/51 58/83/51
f 30/72/52 44/71/52 60/85/52
f 28/10/53 7/8/53 8/29/53
f 27/7/54 5/5/54 6/27/54
f 26/4/55 3/2/55 4/25/55
f 25/1/56 1/86/56 2/79/56
f 4/25/57 3/2/57 25/1/57
f 6/27/58 5/5/58 26/4/58
f 8/29/59 7/8/59 27/7/59
f 10/31/60 9/11/60 28/10/60
f 12/40/61 11/17/61 32/16/61
f 2/42/62 1/20/62 33/19/62
f 33/19/63 23/21/63 11/17/63
f 32/16/64 21/18/64 9/11/64
f 28/10/65 19/12/65 7/8/65
f 27/7/66 17/9/66 5/5/66
f 26/4/67 15/6/67 3/2/67
f 25/1/68 13/3/68 1/86/68
f 60/85/69 39/38/69 31/67/69
f 60/85/70 44/71/70 39/38/70
f 44/71/71 10/39/71 39/38/71
f 58/83/72 60/85/72 31/67/72
f 58/83/73 59/84/73 60/85/73
f 59/84/74 30/72/74 60/85/74
f 37/34/75 45/66/75 6/35/75
f 37/34/76 58/83/76 45/66/76
f 58/83/77 31/67/77 45/66/77
f 57/82/78 42/49/78 36/53/78
f 57/82/79 47/57/79 42/49/79
f 47/57/80 7/50/80 42/49/80
f 55/80/81 57/82/81 36/53/81
f 55/80/82 56/81/82 57/82/82
f 56/81/83 35/58/83 57/82/83
f 40/45/84 48/52/84 11/46/84
f 40/45/85 55/80/85 48/52/85
f 55/80/86 36/53/86 48/52/86
f 46/24/87 56/81/87 34/62/87
f 46/24/88 41/23/88 56/81/88
f 41/23/89 35/58/89 56/81/89
f 43/15/90 59/84/90 29/76/90
f 43/15/91 38/14/91 59/84/91
f 38/14/92 30/72/92 59/84/92
f 16/33/93 29/76/93 37/34/93
f 24/36/94 30/72/94 38/14/94
f 20/37/95 31/67/95 39/38/95
f 23/44/96 34/62/96 40/45/96
f 15/47/97 35/58/97 41/23/97
f 19/48/98 36/53/98 42/49/98
f 21/51/99 11/46/99 48/52/99
f 36/53/100 19/48/100 49/54/100
f 9/55/101 21/51/101 49/54/101
f 17/56/102 7/50/102 47/57/102
f 35/58/103 15/47/103 50/59/103
f 5/60/104 17/56/104 50/59/104
f 13/61/105 3/22/105 46/24/105
f 34/62/106 23/44/106 51/63/106
f 1/64/107 13/61/107 51/63/107
f 18/65/108 6/35/108 45/66/108
f 31/67/109 20/37/109 52/68/109
f 8/69/110 18/65/110 52/68/110
f 22/70/111 10/39/111 44/71/111
f 30/72/112 24/36/112 53/73/112
f 12/74/113 22/70/113 53/73/113
f 14/75/114 2/13/114 43/15/114
f 29/76/115 16/33/115 54/77/115
f 4/78/116 14/75/116 54/77/116
