# Blender 4.3.0
# www.blender.org
o Cylinder
v 0.000000 -3.208926 -25.920918
v 0.000000 3.116035 -25.800240
v 21.452190 -2.323602 -12.385428
v 22.282545 3.061702 -12.864834
v 19.994804 -1.028142 11.544006
v 20.152411 1.168224 11.635000
v 0.000000 -2.745667 25.319126
v 0.000000 3.198080 25.906826
v -22.772821 -3.497506 13.147896
v -22.682381 3.417122 13.095679
v -21.504612 -2.370200 -12.415693
v -23.688129 4.311117 -13.676348
v 12.084428 -5.018195 -20.930843
v 10.142847 1.135075 -17.567928
v 24.113462 -4.962801 0.000000
v 20.445492 1.294869 0.000000
v 11.133251 -3.115861 19.283358
v 10.218484 1.286346 17.698933
v -11.739508 -4.328361 20.333424
v -11.501422 3.852195 19.921047
v -20.409481 -1.258859 0.000000
v -23.811657 4.660998 0.000000
v -9.984398 -0.818178 -17.293484
v -12.076168 5.001675 -20.916536
v 11.127615 0.000000 -19.273594
v 22.010647 0.000000 0.000000
v 11.442267 0.000000 19.818588
v -9.811625 0.000000 16.994234
v 10.825317 2.572726 -6.250000
v -10.825317 1.417692 -6.250000
v 0.000000 0.865858 12.500000
v -19.896646 0.000000 0.000000
v 0.000000 -3.262692 -12.500000
v 10.825317 -6.208043 6.250000
v -10.825317 0.823346 6.250000
v 16.237976 3.335129 3.125000
v -5.412659 -1.042497 -15.625000
v -10.825317 0.161290 12.500000
v -10.825317 -5.569414 -12.500000
v 16.237976 -5.712289 -3.125000
v -5.412659 -0.891806 15.625000
v 5.412659 5.220877 -15.625000
v -16.237976 1.592689 3.125000
v 10.825317 5.912533 12.500000
v 10.825317 -3.996670 -12.500000
v 5.412659 -3.476717 15.625000
v -16.237976 -4.853227 -3.125000
v -16.237976 -0.731158 9.375000
v 16.237976 1.127727 9.375000
v 0.000000 -2.780622 -18.750000
v 0.000000 3.223995 18.750000
v -16.237976 -0.322436 -9.375000
v 16.237976 -0.721631 -9.375000
v -5.412659 0.071492 -3.125000
v 5.412659 0.328407 -3.125000
v 0.000000 -3.715676 6.250000
v 5.412659 -0.682585 3.125000
v 0.000000 1.981016 -6.250000
v -5.412659 3.287759 3.125000
vn 0.5729 0.3535 -0.7395
vn 0.9036 0.3829 0.1919
vn 0.4625 -0.1945 0.8650
vn -0.3717 0.6652 0.6476
vn -0.4989 0.8623 0.0870
vn -0.9250 0.3768 0.0479
vn 0.1528 -0.9527 -0.2626
vn 0.0687 0.8484 -0.5249
vn 0.6373 0.7703 0.0244
vn 0.3998 0.8676 0.2957
vn -0.3728 -0.6595 0.6528
vn 0.4488 0.8934 0.0210
vn 0.3279 0.8006 0.5016
vn 0.2209 0.8811 -0.4181
vn -0.7657 -0.6431 0.0095
vn -0.3811 -0.5834 -0.7172
vn -0.2081 -0.6762 -0.7067
vn 0.1870 -0.9518 -0.2430
vn 0.2583 -0.9120 -0.3186
vn -0.2202 -0.7729 0.5951
vn 0.2461 -0.9677 -0.0550
vn 0.1725 -0.9127 -0.3704
vn -0.0872 -0.9688 0.2319
vn 0.7706 -0.6239 0.1298
vn -0.5360 -0.8389 0.0947
vn -0.0672 -0.9916 0.1101
vn -0.1947 -0.9780 -0.0754
vn -0.1843 -0.9811 0.0586
vn -0.4043 -0.5837 -0.7042
vn -0.7657 -0.6432 0.0049
vn -0.3369 0.7226 0.6037
vn 0.1397 0.9264 -0.3495
vn 0.0549 0.9985 0.0036
vn 0.3121 0.9360 0.1627
vn -0.0088 0.8800 -0.4749
vn 0.2480 0.8426 0.4781
vn 0.6151 0.7767 -0.1357
vn 0.4550 0.8796 -0.1392
vn -0.5113 0.8582 0.0449
vn -0.3762 -0.6595 0.6508
vn 0.2502 0.8850 0.3926
vn 0.6254 0.7560 0.1931
vn 0.4244 0.8475 -0.3189
vn 0.1887 -0.8858 0.4240
vn 0.0223 -0.9378 0.3464
vn -0.2217 -0.9631 0.1526
vn -0.3419 -0.2809 -0.8968
vn -0.9775 0.0112 -0.2108
vn -0.3453 0.9303 0.1237
vn -0.0521 0.9523 0.3006
vn -0.1538 0.9823 -0.1071
vn -0.6572 -0.0742 0.7501
vn 0.6882 -0.0793 0.7212
vn 0.9880 -0.1537 -0.0157
vn 0.5093 0.0164 -0.8604
vn 0.5238 -0.1553 -0.8375
vn 0.9833 -0.0774 0.1648
vn 0.4486 -0.0879 0.8894
vn -0.2872 0.0110 0.9578
vn -0.9451 -0.2758 0.1751
vn -0.6518 0.0145 -0.7583
vn -0.9213 0.3753 -0.1017
vn -0.3661 0.6651 0.6508
vn 0.6708 -0.1897 0.7169
vn 0.9148 0.3876 -0.1140
vn 0.4017 0.3553 -0.8440
vn -0.0623 0.9570 0.2832
vn -0.1504 0.9606 0.2335
vn 0.2645 0.9644 -0.0055
vn 0.3440 0.9379 0.0437
vn 0.3435 0.9367 0.0678
vn -0.0512 0.9847 -0.1668
vn 0.4546 0.8905 0.0176
vn -0.3163 0.8522 -0.4169
vn -0.3932 0.8434 -0.3663
vn -0.3861 -0.9208 0.0545
vn -0.2294 -0.9606 0.1569
vn -0.2319 -0.9711 -0.0562
vn -0.3824 -0.9121 -0.1477
vn 0.0219 -0.9225 -0.3853
vn -0.1966 -0.8539 -0.4819
vn -0.2864 -0.9536 -0.0925
vn 0.3957 -0.8698 0.2949
vn 0.3953 -0.8689 0.2979
vn -0.0623 -0.9195 0.3882
vn -0.4837 -0.8669 0.1206
vn -0.4631 -0.8299 -0.3112
vn -0.0521 0.9528 0.2992
vn -0.5008 0.8655 0.0100
vn -0.0499 0.9586 -0.2804
vn 0.2768 0.9316 -0.2356
vn 0.6014 0.7864 0.1409
vn -0.0580 0.8917 -0.4488
vn 0.1524 -0.7152 -0.6821
vn 0.0941 -0.9956 0.0017
vn 0.2597 -0.9122 -0.3168
vn -0.5930 -0.7956 0.1235
vn 0.0741 -0.9381 -0.3383
vn 0.3393 -0.9355 -0.0983
vn 0.0109 -0.9966 0.0812
vn 0.3886 -0.5887 0.7089
vn -0.2147 -0.8529 -0.4759
vn 0.1525 -0.9782 0.1413
vn -0.2029 -0.9763 -0.0753
vn -0.1715 -0.9834 0.0587
vn 0.3960 0.6626 0.6358
vn 0.0152 0.9355 -0.3530
vn 0.1867 0.9824 0.0036
vn 0.3542 0.9334 0.0581
vn -0.4237 0.8709 0.2490
vn 0.5350 0.8447 -0.0168
vn 0.4891 0.7653 -0.4185
vn 0.3377 0.8776 -0.3403
vn -0.2976 0.8592 0.4161
vt 0.916667 0.750000
vt 0.833333 0.500000
vt 0.916667 0.500000
vt 0.750000 0.750000
vt 0.666667 0.500000
vt 0.750000 0.500000
vt 0.583333 0.750000
vt 0.500000 0.500000
vt 0.583333 0.500000
vt 0.416667 0.750000
vt 0.333333 0.500000
vt 0.416667 0.500000
vt 0.250000 0.490000
vt 0.198038 0.400000
vt 0.301962 0.400000
vt 0.250000 0.750000
vt 0.166667 0.500000
vt 0.250000 0.500000
vt 0.957846 0.370000
vt 0.905885 0.280000
vt 0.853923 0.370000
vt 0.833333 1.000000
vt 0.916667 1.000000
vt 0.666667 1.000000
vt 0.750000 1.000000
vt 0.500000 1.000000
vt 0.583333 1.000000
vt 0.333333 1.000000
vt 0.416667 1.000000
vt 0.457846 0.250000
vt 0.405885 0.220000
vt 0.457846 0.130000
vt 0.146077 0.430000
vt 0.146077 0.070000
vt 0.146077 0.130000
vt 0.042154 0.130000
vt 0.166667 1.000000
vt 0.250000 1.000000
vt -0.000000 1.000000
vt 0.083333 0.750000
vt 0.083333 1.000000
vt 0.646077 0.430000
vt 0.646077 0.370000
vt 0.542154 0.370000
vt 0.957846 0.250000
vt 0.646077 0.070000
vt 0.698038 0.100000
vt 0.750000 0.010000
vt 0.542154 0.250000
vt 0.594115 0.280000
vt 0.646077 0.190000
vt 0.594115 0.160000
vt 0.542154 0.130000
vt 0.853923 0.070000
vt 0.801962 0.100000
vt 0.853923 0.190000
vt 0.905885 0.160000
vt 0.957846 0.130000
vt 0.853923 0.430000
vt 0.750000 0.370000
vt 0.750000 0.430000
vt 0.750000 0.490000
vt 0.353923 0.070000
vt 0.353923 0.130000
vt 0.250000 0.130000
vt 0.250000 0.070000
vt 0.250000 0.010000
vt 0.042154 0.250000
vt 0.094115 0.220000
vt 0.146077 0.310000
vt 0.094115 0.340000
vt 0.042154 0.370000
vt 0.353923 0.430000
vt 0.353923 0.310000
vt 0.405885 0.340000
vt 0.457846 0.370000
vt 1.000000 1.000000
vt 0.698038 0.280000
vt 0.801962 0.280000
vt 0.750000 0.190000
vt 0.301962 0.220000
vt 0.250000 0.310000
vt 0.198038 0.220000
vt 1.000000 0.500000
vt -0.000000 0.500000
s 0
f 25/1/1 3/2/1 13/3/1
f 26/4/2 5/5/2 15/6/2
f 27/7/3 7/8/3 17/9/3
f 28/10/4 9/11/4 19/12/4
f 2/13/5 37/14/5 42/15/5
f 32/16/6 11/17/6 21/18/6
f 3/19/7 40/20/7 45/21/7
f 4/22/8 25/1/8 14/23/8
f 6/24/9 26/4/9 16/25/9
f 8/26/10 27/7/10 18/27/10
f 10/28/11 28/10/11 20/29/11
f 16/30/12 36/31/12 6/32/12
f 24/33/13 37/14/13 2/13/13
f 20/34/14 38/35/14 10/36/14
f 12/37/15 32/16/15 22/38/15
f 2/39/16 23/40/16 24/41/16
f 23/42/17 39/43/17 11/44/17
f 15/45/18 40/20/18 3/19/18
f 19/46/19 41/47/19 7/48/19
f 21/49/20 47/50/20 35/51/20
f 35/51/21 48/52/21 21/49/21
f 9/53/22 48/52/22 19/46/22
f 17/54/23 46/55/23 34/56/23
f 34/56/24 49/57/24 17/54/24
f 5/58/25 49/57/25 15/45/25
f 13/59/26 45/21/26 33/60/26
f 33/60/27 50/61/27 13/59/27
f 1/62/28 50/61/28 23/42/28
f 12/37/29 24/41/29 23/40/29
f 10/28/30 22/38/30 32/16/30
f 18/63/31 44/64/31 31/65/31
f 31/65/32 51/66/32 18/63/32
f 8/67/33 51/66/33 20/34/33
f 22/68/34 43/69/34 30/70/34
f 30/70/35 52/71/35 22/68/35
f 12/72/36 52/71/36 24/33/36
f 14/73/37 42/15/37 29/74/37
f 29/74/38 53/75/38 14/73/38
f 4/76/39 53/75/39 16/30/39
f 8/26/40 20/29/40 28/10/40
f 6/24/41 18/27/41 27/7/41
f 4/22/42 16/25/42 26/4/42
f 2/77/43 14/23/43 25/1/43
f 33/60/44 54/78/44 39/43/44
f 33/60/45 55/79/45 54/78/45
f 34/56/46 46/55/46 56/80/46
f 23/40/47 11/17/47 12/37/47
f 32/16/48 9/11/48 10/28/48
f 29/74/49 57/81/49 36/31/49
f 29/74/50 58/82/50 57/81/50
f 30/70/51 43/69/51 59/83/51
f 28/10/52 7/8/52 8/26/52
f 27/7/53 5/5/53 6/24/53
f 26/4/54 3/2/54 4/22/54
f 25/1/55 1/84/55 2/77/55
f 4/22/56 3/2/56 25/1/56
f 6/24/57 5/5/57 26/4/57
f 8/26/58 7/8/58 27/7/58
f 10/28/59 9/11/59 28/10/59
f 12/37/60 11/17/60 32/16/60
f 2/39/61 1/85/61 23/40/61
f 32/16/62 21/18/62 9/11/62
f 28/10/63 19/12/63 7/8/63
f 27/7/64 17/9/64 5/5/64
f 26/4/65 15/6/65 3/2/65
f 25/1/66 13/3/66 1/84/66
f 59/83/67 38/35/67 31/65/67
f 59/83/68 43/69/68 38/35/68
f 43/69/69 10/36/69 38/35/69
f 57/81/70 59/83/70 31/65/70
f 57/81/71 58/82/71 59/83/71
f 58/82/72 30/70/72 59/83/72
f 36/31/73 44/64/73 6/32/73
f 36/31/74 57/81/74 44/64/74
f 57/81/75 31/65/75 44/64/75
f 56/80/76 41/47/76 35/51/76
f 56/80/77 46/55/77 41/47/77
f 46/55/78 7/48/78 41/47/78
f 54/78/79 56/80/79 35/51/79
f 54/78/80 55/79/80 56/80/80
f 55/79/81 34/56/81 56/80/81
f 39/43/82 47/50/82 11/44/82
f 39/43/83 54/78/83 47/50/83
f 54/78/84 35/51/84 47/50/84
f 45/21/85 55/79/85 33/60/85
f 45/21/86 40/20/86 55/79/86
f 40/20/87 34/56/87 55/79/87
f 42/15/88 58/82/88 29/74/88
f 42/15/89 37/14/89 58/82/89
f 37/14/90 30/70/90 58/82/90
f 16/30/91 29/74/91 36/31/91
f 24/33/92 30/70/92 37/14/92
f 20/34/93 31/65/93 38/35/93
f 23/42/94 33/60/94 39/43/94
f 15/45/95 34/56/95 40/20/95
f 19/46/96 35/51/96 41/47/96
f 21/49/97 11/44/97 47/50/97
f 35/51/98 19/46/98 48/52/98
f 9/53/99 21/49/99 48/52/99
f 17/54/100 7/48/100 46/55/100
f 34/56/101 15/45/101 49/57/101
f 5/58/102 17/54/102 49/57/102
f 13/59/103 3/19/103 45/21/103
f 33/60/104 23/42/104 50/61/104
f 1/62/105 13/59/105 50/61/105
f 18/63/106 6/32/106 44/64/106
f 31/65/107 20/34/107 51/66/107
f 8/67/108 18/63/108 51/66/108
f 22/68/109 10/36/109 43/69/109
f 30/70/110 24/33/110 52/71/110
f 12/72/111 22/68/111 52/71/111
f 14/73/112 2/13/112 42/15/112
f 29/74/113 16/30/113 53/75/113
f 4/76/114 14/73/114 53/75/114
