# Blender 4.3.0
# www.blender.org
o Cylinder
v 0.000000 -0.583001 -22.509760
v 0.000000 1.769433 -24.050980
v 21.186489 -2.087420 -12.232026
v 23.750488 4.366548 -13.712351
v 23.924305 -4.521053 13.812704
v 22.050915 2.855811 12.731102
v 0.000000 -0.976034 23.020342
v 0.000000 4.024311 26.980125
v -23.608276 -4.240137 13.630245
v -22.238274 3.022353 12.839273
v -19.259922 -0.374889 -11.119721
v -24.078627 4.658229 -13.901802
v 11.810332 -4.470009 -20.456097
v 11.175157 3.199671 -19.355940
v 19.039309 0.111298 0.000000
v 22.969215 3.818567 0.000000
v 11.464535 -3.778421 19.857157
v 11.060928 2.971217 19.158091
v -10.974090 -2.797541 19.007681
v -11.836626 4.522596 20.501638
v -21.966997 -2.816360 0.000000
v -23.109907 3.959256 0.000000
v -11.266685 3.382724 -19.514469
v 11.319407 0.000000 -19.605787
v 22.727837 0.000000 0.000000
v 10.406362 0.000000 18.024347
v -10.489088 0.000000 18.167633
v 10.825317 2.751848 -6.250000
v -10.825317 -0.932637 -6.250000
v 0.000000 2.289816 12.500000
v -18.481438 0.000000 0.000000
v -10.160320 0.000000 -17.598192
v 0.000000 0.360960 -12.500000
v 10.825317 -5.218991 6.250000
v -10.825317 0.219354 6.250000
v 16.237976 3.394070 3.125000
v -5.412659 6.235648 -15.625000
v -10.825317 2.631220 12.500000
v -10.825317 -0.469090 -12.500000
v 16.237976 -2.413194 -3.125000
v -5.412659 -4.068629 15.625000
v 5.412659 0.437741 -15.625000
v -16.237976 5.444237 3.125000
v 10.825317 6.044326 12.500000
v 10.825317 0.112071 -12.500000
v 5.412659 -5.670104 15.625000
v -16.237976 1.085310 -3.125000
v -16.237976 -2.966572 9.375000
v 16.237976 0.549417 9.375000
v 0.000000 0.641309 -18.750000
v 0.000000 -1.247890 18.750000
v -16.237976 2.708683 -9.375000
v 16.237976 2.282950 -9.375000
v -5.412659 -2.495002 -3.125000
v 5.412659 -0.256316 -3.125000
v 0.000000 -4.100179 6.250000
v 5.412659 5.746739 3.125000
v 0.000000 3.880609 -6.250000
v -5.412659 3.481231 3.125000
vn 0.6134 0.2121 -0.7608
vn -0.0287 -0.9507 -0.3087
vn 0.3408 0.4859 0.8048
vn -0.4015 0.3265 0.8557
vn 0.4659 0.8699 -0.1618
vn -0.6284 0.7777 0.0178
vn -0.2019 -0.9687 -0.1444
vn 0.4009 0.0893 -0.9118
vn 0.9958 -0.0629 0.0671
vn 0.5027 -0.4026 0.7650
vn -0.4606 -0.5116 0.7254
vn -0.0288 0.9969 0.0733
vn -0.0813 0.8581 -0.5070
vn 0.0266 0.9736 -0.2268
vn -0.6500 -0.7599 0.0071
vn -0.3789 -0.5469 -0.7466
vn -0.0267 -0.9951 -0.0950
vn 0.4911 -0.8382 0.2369
vn 0.0165 -0.9267 0.3754
vn 0.4103 -0.8555 -0.3159
vn 0.3814 -0.8907 -0.2474
vn 0.1375 -0.9888 -0.0578
vn 0.2385 -0.9669 0.0912
vn 0.7178 -0.6951 0.0399
vn -0.5023 -0.8577 -0.1100
vn -0.0199 -0.8675 0.4971
vn -0.4018 -0.9148 -0.0410
vn 0.0947 -0.9466 0.3082
vn -0.3810 -0.5469 -0.7455
vn -0.6500 -0.7599 -0.0113
vn -0.2991 0.8623 0.4086
vn -0.3305 0.8214 0.4649
vn 0.3140 0.7995 -0.5121
vn 0.0621 0.8416 -0.5366
vn 0.4549 0.8634 0.2182
vn 0.1600 0.9766 0.1434
vn -0.4217 0.9065 0.0197
vn 0.1073 0.9935 0.0368
vn -0.2542 0.9668 0.0242
vn -0.4289 -0.5119 0.7443
vn 0.4588 -0.4032 0.7918
vn 0.9965 -0.0630 0.0543
vn 0.3761 0.0890 -0.9223
vn 0.0740 -0.9651 -0.2513
vn 0.1993 -0.9636 -0.1785
vn -0.1022 -0.9890 -0.1066
vn -0.3928 -0.7035 -0.5924
vn -0.9402 0.1437 -0.3089
vn 0.2087 0.9601 -0.1862
vn 0.1004 0.9631 -0.2497
vn 0.1553 0.8562 -0.4928
vn -0.3876 -0.5723 0.7227
vn 0.3573 0.2237 0.9068
vn 0.9240 -0.3789 -0.0518
vn 0.2360 -0.5325 -0.8128
vn 0.5016 -0.3778 -0.7782
vn 0.9694 0.2456 -0.0036
vn 0.3986 -0.5694 0.7190
vn -0.3706 0.1694 0.9132
vn -0.7405 -0.6679 0.0744
vn -0.3995 -0.5024 -0.7668
vn -0.6285 0.7778 0.0056
vn -0.3719 0.3255 0.8693
vn 0.4043 0.4884 0.7734
vn -0.0297 -0.9847 0.1718
vn 0.2332 0.2064 -0.9503
vn 0.0313 0.9936 0.1082
vn 0.1752 0.9663 0.1888
vn 0.0409 0.9633 0.2654
vn -0.1991 0.9512 0.2358
vn -0.2042 0.9759 -0.0763
vn -0.3987 0.8967 -0.1920
vn 0.2736 0.9553 -0.1121
vn 0.2099 0.9659 -0.1519
vn -0.3236 0.9330 0.1572
vn -0.3626 -0.9088 -0.2063
vn -0.1459 -0.9860 -0.0809
vn -0.1298 -0.8774 0.4619
vn -0.3700 -0.9274 0.0549
vn 0.1948 -0.9419 -0.2737
vn -0.0931 -0.9012 -0.4233
vn 0.0174 -0.9847 0.1733
vn -0.3139 -0.9492 -0.0239
vn -0.3126 -0.9453 0.0932
vn -0.0230 -0.9984 -0.0525
vn -0.1932 -0.9697 -0.1496
vn -0.1810 -0.9086 -0.3764
vn 0.0992 0.9512 -0.2921
vn 0.4715 0.8804 -0.0511
vn -0.3685 0.8288 0.4210
vn -0.0746 0.9969 -0.0252
vn -0.5618 0.7810 0.2728
vn 0.0307 0.9736 -0.2262
vn 0.0762 -0.9938 -0.0815
vn 0.5972 -0.7950 0.1069
vn -0.3426 -0.9134 -0.2200
vn 0.5426 -0.8384 -0.0520
vn 0.4054 -0.8907 -0.2059
vn 0.1195 -0.9888 -0.0889
vn -0.0752 -0.8659 0.4946
vn 0.6458 -0.7290 0.2270
vn -0.2789 -0.8362 -0.4723
vn -0.1948 -0.8602 0.4713
vn 0.0579 -0.9973 -0.0447
vn -0.3444 -0.8927 0.2907
vn 0.2429 0.8840 0.3994
vn 0.4452 0.7793 0.4411
vn -0.2885 0.8062 -0.5165
vn -0.2482 0.9648 0.0872
vn 0.4271 0.8639 0.2668
vn 0.2229 0.9743 0.0335
vn -0.2452 0.9209 0.3030
vn -0.0055 0.9875 -0.1578
vn -0.1683 0.9702 0.1745
vt 0.916667 0.750000
vt 0.833333 0.500000
vt 0.916667 0.500000
vt 0.750000 0.750000
vt 0.666667 0.500000
vt 0.750000 0.500000
vt 0.583333 0.750000
vt 0.500000 0.500000
vt 0.583333 0.500000
vt 0.416667 0.750000
vt 0.333333 0.500000
vt 0.416667 0.500000
vt 0.250000 0.490000
vt 0.198038 0.400000
vt 0.301962 0.400000
vt 0.250000 0.750000
vt 0.166667 0.500000
vt 0.250000 0.500000
vt 0.957846 0.370000
vt 0.905885 0.280000
vt 0.853923 0.370000
vt 0.833333 1.000000
vt 0.916667 1.000000
vt 0.666667 1.000000
vt 0.750000 1.000000
vt 0.500000 1.000000
vt 0.583333 1.000000
vt 0.333333 1.000000
vt 0.416667 1.000000
vt 0.457846 0.250000
vt 0.405885 0.220000
vt 0.457846 0.130000
vt 0.146077 0.430000
vt 0.146077 0.070000
vt 0.146077 0.130000
vt 0.042154 0.130000
vt 0.166667 1.000000
vt 0.250000 1.000000
vt -0.000000 1.000000
vt 0.083333 0.750000
vt 0.083333 1.000000
vt 0.646077 0.430000
vt 0.646077 0.370000
vt 0.542154 0.370000
vt 0.957846 0.250000
vt 0.646077 0.070000
vt 0.698038 0.100000
vt 0.750000 0.010000
vt 0.542154 0.250000
vt 0.594115 0.280000
vt 0.646077 0.190000
vt 0.594115 0.160000
vt 0.542154 0.130000
vt 0.853923 0.070000
vt 0.801962 0.100000
vt 0.853923 0.190000
vt 0.905885 0.160000
vt 0.957846 0.130000
vt 0.853923 0.430000
vt 0.750000 0.370000
vt 0.750000 0.430000
vt 0.750000 0.490000
vt 0.353923 0.070000
vt 0.353923 0.130000
vt 0.250000 0.130000
vt 0.250000 0.070000
vt 0.250000 0.010000
vt 0.042154 0.250000
vt 0.094115 0.220000
vt 0.146077 0.310000
vt 0.094115 0.340000
vt 0.042154 0.370000
vt 0.353923 0.430000
vt 0.353923 0.310000
vt 0.405885 0.340000
vt 0.457846 0.370000
vt 1.000000 1.000000
vt 0.698038 0.280000
vt 0.801962 0.280000
vt 0.750000 0.190000
vt 0.301962 0.220000
vt 0.250000 0.310000
vt 0.198038 0.220000
vt 1.000000 0.500000
vt -0.000000 0.500000
s 0
f 24/1/1 3/2/1 13/3/1
f 25/4/2 5/5/2 15/6/2
f 26/7/3 7/8/3 17/9/3
f 27/10/4 9/11/4 19/12/4
f 2/13/5 37/14/5 42/15/5
f 31/16/6 11/17/6 21/18/6
f 3/19/7 40/20/7 45/21/7
f 4/22/8 24/1/8 14/23/8
f 6/24/9 25/4/9 16/25/9
f 8/26/10 26/7/10 18/27/10
f 10/28/11 27/10/11 20/29/11
f 16/30/12 36/31/12 6/32/12
f 23/33/13 37/14/13 2/13/13
f 20/34/14 38/35/14 10/36/14
f 12/37/15 31/16/15 22/38/15
f 2/39/16 32/40/16 23/41/16
f 32/42/17 39/43/17 11/44/17
f 15/45/18 40/20/18 3/19/18
f 19/46/19 41/47/19 7/48/19
f 21/49/20 47/50/20 35/51/20
f 35/51/21 48/52/21 21/49/21
f 9/53/22 48/52/22 19/46/22
f 17/54/23 46/55/23 34/56/23
f 34/56/24 49/57/24 17/54/24
f 5/58/25 49/57/25 15/45/25
f 13/59/26 45/21/26 33/60/26
f 33/60/27 50/61/27 13/59/27
f 1/62/28 50/61/28 32/42/28
f 12/37/29 23/41/29 32/40/29
f 10/28/30 22/38/30 31/16/30
f 18/63/31 44/64/31 30/65/31
f 30/65/32 51/66/32 18/63/32
f 8/67/33 51/66/33 20/34/33
f 22/68/34 43/69/34 29/70/34
f 29/70/35 52/71/35 22/68/35
f 12/72/36 52/71/36 23/33/36
f 14/73/37 42/15/37 28/74/37
f 28/74/38 53/75/38 14/73/38
f 4/76/39 53/75/39 16/30/39
f 8/26/40 20/29/40 27/10/40
f 6/24/41 18/27/41 26/7/41
f 4/22/42 16/25/42 25/4/42
f 2/77/43 14/23/43 24/1/43
f 33/60/44 54/78/44 39/43/44
f 33/60/45 55/79/45 54/78/45
f 34/56/46 46/55/46 56/80/46
f 32/40/47 11/17/47 12/37/47
f 31/16/48 9/11/48 10/28/48
f 28/74/49 57/81/49 36/31/49
f 28/74/50 58/82/50 57/81/50
f 29/70/51 43/69/51 59/83/51
f 27/10/52 7/8/52 8/26/52
f 26/7/53 5/5/53 6/24/53
f 25/4/54 3/2/54 4/22/54
f 24/1/55 1/84/55 2/77/55
f 4/22/56 3/2/56 24/1/56
f 6/24/57 5/5/57 25/4/57
f 8/26/58 7/8/58 26/7/58
f 10/28/59 9/11/59 27/10/59
f 12/37/60 11/17/60 31/16/60
f 2/39/61 1/85/61 32/40/61
f 31/16/62 21/18/62 9/11/62
f 27/10/63 19/12/63 7/8/63
f 26/7/64 17/9/64 5/5/64
f 25/4/65 15/6/65 3/2/65
f 24/1/66 13/3/66 1/84/66
f 59/83/67 38/35/67 30/65/67
f 59/83/68 43/69/68 38/35/68
f 43/69/69 10/36/69 38/35/69
f 57/81/70 59/83/70 30/65/70
f 57/81/71 58/82/71 59/83/71
f 58/82/72 29/70/72 59/83/72
f 36/31/73 44/64/73 6/32/73
f 36/31/74 57/81/74 44/64/74
f 57/81/75 30/65/75 44/64/75
f 56/80/76 41/47/76 35/51/76
f 56/80/77 46/55/77 41/47/77
f 46/55/78 7/48/78 41/47/78
f 54/78/79 56/80/79 35/51/79
f 54/78/80 55/79/80 56/80/80
f 55/79/81 34/56/81 56/80/81
f 39/43/82 47/50/82 11/44/82
f 39/43/83 54/78/83 47/50/83
f 54/78/84 35/51/84 47/50/84
f 45/21/85 55/79/85 33/60/85
f 45/21/86 40/20/86 55/79/86
f 40/20/87 34/56/87 55/79/87
f 42/15/88 58/82/88 28/74/88
f 42/15/89 37/14/89 58/82/89
f 37/14/90 29/70/90 58/82/90
f 16/30/91 28/74/91 36/31/91
f 23/33/92 29/70/92 37/14/92
f 20/34/93 30/65/93 38/35/93
f 32/42/94 33/60/94 39/43/94
f 15/45/95 34/56/95 40/20/95
f 19/46/96 35/51/96 41/47/96
f 21/49/97 11/44/97 47/50/97
f 35/51/98 19/46/98 48/52/98
f 9/53/99 21/49/99 48/52/99
f 17/54/100 7/48/100 46/55/100
f 34/56/101 15/45/101 49/57/101
f 5/58/102 17/54/102 49/57/102
f 13/59/103 3/19/103 45/21/103
f 33/60/104 32/42/104 50/61/104
f 1/62/105 13/59/105 50/61/105
f 18/63/106 6/32/106 44/64/106
f 30/65/107 20/34/107 51/66/107
f 8/67/108 18/63/108 51/66/108
f 22/68/109 10/36/109 43/69/109
f 29/70/110 23/33/110 52/71/110
f 12/72/111 22/68/111 52/71/111
f 14/73/112 2/13/112 42/15/112
f 28/74/113 16/30/113 53/75/113
f 4/76/114 14/73/114 53/75/114
