# Blender 4.3.0
# www.blender.org
o Cylinder
v 0.000000 -3.149670 -25.843941
v 0.000000 2.667127 -25.217102
v 20.053495 -1.080298 -11.577890
v 23.307665 3.972924 -13.456686
v 20.292620 -1.292867 11.715949
v 21.227589 2.123953 12.255754
v 0.000000 -2.643415 25.186298
v 0.000000 1.345191 23.499868
v -19.218094 -0.337727 11.095572
v -22.973822 3.676184 13.263942
v -21.477135 -2.345775 -12.399830
v -21.382977 2.262081 -12.345468
v 9.647987 -0.145364 -16.710804
v 10.341597 1.532568 -17.912170
v 18.928574 0.222031 0.000000
v 21.423256 2.272624 0.000000
v 11.064140 -2.977640 19.163652
v 11.229235 3.307826 19.449604
v -11.945148 -4.739635 20.689602
v -10.059843 0.969068 17.424160
v -22.343082 -3.192440 0.000000
v -19.214502 0.063893 0.000000
v -10.231805 -1.312987 -17.722006
v -10.018425 0.886232 -17.352421
v 12.433834 0.000000 -21.536034
v 19.962896 0.000000 0.000000
v 12.029182 0.000000 20.835155
v -12.475579 0.000000 21.608337
v 10.825317 1.257294 -6.250000
v -10.825317 4.221418 -6.250000
v 0.000000 1.150639 12.500000
v -17.567455 0.000000 0.000000
v -12.280776 0.000000 -21.270929
v 0.000000 -1.968945 -12.500000
v 10.825317 1.472350 6.250000
v -10.825317 -5.202313 6.250000
v 16.237976 -0.723099 3.125000
v -5.412659 2.179042 -15.625000
v -10.825317 6.419047 12.500000
v -10.825317 0.839111 -12.500000
v 16.237976 0.356245 -3.125000
v -5.412659 -4.379498 15.625000
v 5.412659 1.823672 -15.625000
v -16.237976 2.325575 3.125000
v 10.825317 5.983872 12.500000
v 10.825317 -2.261437 -12.500000
v 5.412659 -5.273459 15.625000
v -16.237976 -3.262220 -3.125000
v -16.237976 -0.404065 9.375000
v 16.237976 0.523433 9.375000
v 0.000000 -4.902093 -18.750000
v 0.000000 -1.393998 18.750000
v -16.237976 4.373807 -9.375000
v 16.237976 6.377614 -9.375000
v -5.412659 -4.142097 -3.125000
v 5.412659 -1.913830 -3.125000
v 0.000000 -4.472182 6.250000
v 5.412659 2.362083 3.125000
v 0.000000 6.502131 -6.250000
v -5.412659 2.390012 3.125000
vn -0.0581 -0.9963 -0.0636
vn -0.2088 -0.9727 -0.1015
vn 0.3886 -0.5436 0.7440
vn -0.8226 -0.1956 0.5339
vn 0.0327 0.9971 0.0692
vn -0.5557 0.8312 0.0180
vn -0.3041 -0.9371 -0.1712
vn 0.1032 -0.9719 0.2118
vn -0.0327 0.9136 -0.4053
vn 0.8413 -0.5406 0.0069
vn 0.2408 0.4239 0.8731
vn 0.1085 0.9529 0.2833
vn -0.4991 0.8665 0.0025
vn -0.2393 0.9671 -0.0858
vn -0.1019 0.6590 0.7452
vn -0.0382 -0.9849 -0.1687
vn -0.2367 0.9681 -0.0823
vn 0.2668 -0.8800 0.3930
vn -0.1594 -0.9826 0.0950
vn 0.1342 -0.9856 0.1030
vn -0.0892 -0.9843 -0.1522
vn -0.4015 -0.7729 0.4913
vn -0.1875 -0.9389 -0.2886
vn 0.5099 -0.8103 -0.2887
vn 0.0226 -0.9451 -0.3261
vn -0.3705 -0.9257 -0.0766
vn -0.0242 -0.8960 -0.4435
vn 0.3358 -0.8527 0.4002
vn -0.3426 -0.9121 -0.2253
vn 0.0166 0.9731 -0.2297
vn -0.0375 -0.9668 0.2527
vn -0.3817 0.8549 0.3514
vn -0.3804 0.8566 0.3487
vn 0.2601 0.8365 -0.4824
vn -0.5137 0.8488 -0.1250
vn -0.1833 0.9140 0.3620
vn -0.0962 0.8823 -0.4607
vn 0.0685 0.9974 0.0207
vn -0.6726 0.7386 0.0453
vn 0.4040 0.8988 0.1701
vn -0.1288 0.9799 0.1526
vn 0.5599 0.4316 0.7072
vn 0.8403 -0.5399 0.0494
vn 0.2706 0.9327 -0.2382
vn -0.2355 -0.9080 -0.3465
vn 0.2004 -0.9735 -0.1100
vn 0.4539 -0.8266 -0.3327
vn -0.6971 0.0227 -0.7166
vn -0.7584 -0.6382 -0.1323
vn 0.2738 0.9607 0.0449
vn 0.4315 0.8905 0.1442
vn -0.0058 0.9808 0.1950
vn -0.1787 0.3832 0.9062
vn 0.6874 -0.2931 0.6645
vn 0.8487 -0.5259 0.0557
vn 0.3025 0.1021 -0.9477
vn 0.6094 -0.5895 -0.5302
vn 0.9653 -0.2554 -0.0553
vn 0.2403 0.3780 0.8941
vn -0.5617 -0.7329 0.3838
vn -0.9545 0.0160 0.2979
vn -0.3242 0.1014 -0.9405
vn -0.0619 -0.9472 -0.3147
vn -0.5548 0.8300 -0.0573
vn -0.3110 -0.2143 0.9259
vn 0.5884 -0.5323 0.6086
vn -0.2090 -0.9738 0.0892
vn 0.2137 -0.9724 0.0941
vn 0.4337 0.8912 -0.1326
vn -0.0055 0.9176 -0.3975
vn -0.2282 0.9337 -0.2760
vn 0.0026 0.9916 0.1296
vn 0.0024 0.9153 0.4028
vn -0.1969 0.9346 0.2963
vn 0.3049 0.8491 -0.4314
vn 0.2422 0.8498 -0.4681
vn -0.4049 0.9069 -0.1166
vn 0.0672 -0.9966 0.0487
vn -0.0822 -0.9959 -0.0376
vn -0.0802 -0.9718 0.2219
vn 0.0671 -0.9950 -0.0738
vn 0.1994 -0.9685 -0.1492
vn 0.4810 -0.8759 0.0387
vn 0.2754 -0.9289 -0.2474
vn -0.0730 -0.8976 -0.4348
vn -0.0800 -0.9843 -0.1575
vn -0.0270 -0.9994 0.0215
vn 0.2028 -0.9672 0.1530
vn 0.1998 -0.9528 0.2288
vn 0.4278 0.8829 -0.1936
vn 0.0296 0.9011 -0.4326
vn -0.1956 0.9286 -0.3153
vn -0.2959 0.8856 0.3579
vn -0.1543 0.9431 -0.2945
vn 0.3209 0.6594 0.6799
vn -0.2355 -0.9077 0.3473
vn -0.1118 -0.9923 0.0536
vn 0.0847 -0.9957 0.0385
vn -0.0479 -0.9963 -0.0714
vn -0.6722 -0.7398 -0.0284
vn 0.1053 -0.9698 0.2199
vn 0.1598 -0.9249 0.3449
vn -0.1640 -0.9863 -0.0154
vn -0.1660 -0.8974 -0.4087
vn 0.1584 -0.8638 -0.4784
vn -0.2650 -0.8729 0.4097
vn 0.4678 -0.8580 -0.2120
vn 0.3361 0.8853 0.3214
vn 0.1655 0.9134 0.3719
vn -0.3147 0.8222 -0.4742
vn -0.3235 0.8857 -0.3329
vn 0.1829 0.9452 -0.2706
vn -0.4821 0.8440 0.2350
vn 0.0788 0.9960 0.0431
vn -0.3909 0.7440 0.5420
vn 0.0077 0.8674 -0.4976
vt 0.916667 0.750000
vt 0.833333 0.500000
vt 0.916667 0.500000
vt 0.750000 0.750000
vt 0.666667 0.500000
vt 0.750000 0.500000
vt 0.583333 0.750000
vt 0.500000 0.500000
vt 0.583333 0.500000
vt 0.416667 0.750000
vt 0.333333 0.500000
vt 0.416667 0.500000
vt 0.250000 0.490000
vt 0.198038 0.400000
vt 0.301962 0.400000
vt 0.250000 0.750000
vt 0.166667 0.500000
vt 0.250000 0.500000
vt 0.083333 0.750000
vt -0.000000 0.500000
vt 0.083333 0.500000
vt 0.957846 0.370000
vt 0.905885 0.280000
vt 0.853923 0.370000
vt 0.833333 1.000000
vt 0.916667 1.000000
vt 0.666667 1.000000
vt 0.750000 1.000000
vt 0.500000 1.000000
vt 0.583333 1.000000
vt 0.333333 1.000000
vt 0.416667 1.000000
vt 0.457846 0.250000
vt 0.405885 0.220000
vt 0.457846 0.130000
vt 0.146077 0.430000
vt 0.146077 0.070000
vt 0.146077 0.130000
vt 0.042154 0.130000
vt 0.166667 1.000000
vt 0.250000 1.000000
vt -0.000000 1.000000
vt 0.083333 1.000000
vt 0.646077 0.430000
vt 0.646077 0.370000
vt 0.542154 0.370000
vt 0.957846 0.250000
vt 0.646077 0.070000
vt 0.698038 0.100000
vt 0.750000 0.010000
vt 0.542154 0.250000
vt 0.594115 0.280000
vt 0.646077 0.190000
vt 0.594115 0.160000
vt 0.542154 0.130000
vt 0.853923 0.070000
vt 0.801962 0.100000
vt 0.853923 0.190000
vt 0.905885 0.160000
vt 0.957846 0.130000
vt 0.853923 0.430000
vt 0.750000 0.370000
vt 0.750000 0.430000
vt 0.750000 0.490000
vt 0.353923 0.070000
vt 0.353923 0.130000
vt 0.250000 0.130000
vt 0.250000 0.070000
vt 0.250000 0.010000
vt 0.042154 0.250000
vt 0.094115 0.220000
vt 0.146077 0.310000
vt 0.094115 0.340000
vt 0.042154 0.370000
vt 0.353923 0.430000
vt 0.353923 0.310000
vt 0.405885 0.340000
vt 0.457846 0.370000
vt 1.000000 1.000000
vt 0.698038 0.280000
vt 0.801962 0.280000
vt 0.750000 0.190000
vt 0.301962 0.220000
vt 0.250000 0.310000
vt 0.198038 0.220000
vt 1.000000 0.500000
s 0
f 25/1/1 3/2/1 13/3/1
f 26/4/2 5/5/2 15/6/2
f 27/7/3 7/8/3 17/9/3
f 28/10/4 9/11/4 19/12/4
f 2/13/5 38/14/5 43/15/5
f 32/16/6 11/17/6 21/18/6
f 33/19/7 1/20/7 23/21/7
f 3/22/8 41/23/8 46/24/8
f 4/25/9 25/1/9 14/26/9
f 6/27/10 26/4/10 16/28/10
f 8/29/11 27/7/11 18/30/11
f 10/31/12 28/10/12 20/32/12
f 16/33/13 37/34/13 6/35/13
f 24/36/14 38/14/14 2/13/14
f 20/37/15 39/38/15 10/39/15
f 12/40/16 32/16/16 22/41/16
f 2/42/17 33/19/17 24/43/17
f 23/44/18 40/45/18 11/46/18
f 15/47/19 41/23/19 3/22/19
f 19/48/20 42/49/20 7/50/20
f 21/51/21 48/52/21 36/53/21
f 36/53/22 49/54/22 21/51/22
f 9/55/23 49/54/23 19/48/23
f 17/56/24 47/57/24 35/58/24
f 35/58/25 50/59/25 17/56/25
f 5/60/26 50/59/26 15/47/26
f 13/61/27 46/24/27 34/62/27
f 34/62/28 51/63/28 13/61/28
f 1/64/29 51/63/29 23/44/29
f 12/40/30 24/43/30 33/19/30
f 10/31/31 22/41/31 32/16/31
f 18/65/32 45/66/32 31/67/32
f 31/67/33 52/68/33 18/65/33
f 8/69/34 52/68/34 20/37/34
f 22/70/35 44/71/35 30/72/35
f 30/72/36 53/73/36 22/70/36
f 12/74/37 53/73/37 24/36/37
f 14/75/38 43/15/38 29/76/38
f 29/76/39 54/77/39 14/75/39
f 4/78/40 54/77/40 16/33/40
f 8/29/41 20/32/41 28/10/41
f 6/27/42 18/30/42 27/7/42
f 4/25/43 16/28/43 26/4/43
f 2/79/44 14/26/44 25/1/44
f 34/62/45 55/80/45 40/45/45
f 34/62/46 56/81/46 55/80/46
f 35/58/47 47/57/47 57/82/47
f 33/19/48 11/17/48 12/40/48
f 32/16/49 9/11/49 10/31/49
f 29/76/50 58/83/50 37/34/50
f 29/76/51 59/84/51 58/83/51
f 30/72/52 44/71/52 60/85/52
f 28/10/53 7/8/53 8/29/53
f 27/7/54 5/5/54 6/27/54
f 26/4/55 3/2/55 4/25/55
f 25/1/56 1/86/56 2/79/56
f 4/25/57 3/2/57 25/1/57
f 6/27/58 5/5/58 26/4/58
f 8/29/59 7/8/59 27/7/59
f 10/31/60 9/11/60 28/10/60
f 12/40/61 11/17/61 32/16/61
f 2/42/62 1/20/62 33/19/62
f 33/19/63 23/21/63 11/17/63
f 32/16/64 21/18/64 9/11/64
f 28/10/65 19/12/65 7/8/65
f 27/7/66 17/9/66 5/5/66
f 26/4/67 15/6/67 3/2/67
f 25/1/68 13/3/68 1/86/68
f 60/85/69 39/38/69 31/67/69
f 60/85/70 44/71/70 39/38/70
f 44/71/71 10/39/71 39/38/71
f 58/83/72 60/85/72 31/67/72
f 58/83/73 59/84/73 60/85/73
f 59/84/74 30/72/74 60/85/74
f 37/34/75 45/66/75 6/35/75
f 37/34/76 58/83/76 45/66/76
f 58/83/77 31/67/77 45/66/77
f 57/82/78 42/49/78 36/53/78
f 57/82/79 47/57/79 42/49/79
f 47/57/80 7/50/80 42/49/80
f 55/80/81 57/82/81 36/53/81
f 55/80/82 56/81/82 57/82/82
f 56/81/83 35/58/83 57/82/83
f 40/45/84 48/52/84 11/46/84
f 40/45/85 55/80/85 48/52/85
f 55/80/86 36/53/86 48/52/86
f 46/24/87 56/81/87 34/62/87
f 46/24/88 41/23/88 56/81/88
f 41/23/89 35/58/89 56/81/89
f 43/15/90 59/84/90 29/76/90
f 43/15/91 38/14/91 59/84/91
f 38/14/92 30/72/92 59/84/92
f 16/33/93 29/76/93 37/34/93
f 24/36/94 30/72/94 38/14/94
f 20/37/95 31/67/95 39/38/95
f 23/44/96 34/62/96 40/45/96
f 15/47/97 35/58/97 41/23/97
f 19/48/98 36/53/98 42/49/98
f 21/51/99 11/46/99 48/52/99
f 36/53/100 19/48/100 49/54/100
f 9/55/101 21/51/101 49/54/101
f 17/56/102 7/50/102 47/57/102
f 35/58/103 15/47/103 50/59/103
f 5/60/104 17/56/104 50/59/104
f 13/61/105 3/22/105 46/24/105
f 34/62/106 23/44/106 51/63/106
f 1/64/107 13/61/107 51/63/107
f 18/65/108 6/35/108 45/66/108
f 31/67/109 20/37/109 52/68/109
f 8/69/110 18/65/110 52/68/110
f 22/70/111 10/39/111 44/71/111
f 30/72/112 24/36/112 53/73/112
f 12/74/113 22/70/113 53/73/113
f 14/75/114 2/13/114 43/15/114
f 29/76/115 16/33/115 54/77/115
f 4/78/116 14/75/116 54/77/116
