# Blender 4.3.0
# www.blender.org
o Cylinder
v 0.000000 -2.053886 -24.420485
v 0.000000 3.469804 -26.259792
v 20.662382 -1.621540 -11.929432
v 22.268967 3.049631 -12.856994
v 20.651674 -1.612030 11.923250
v 22.128803 2.925045 12.776071
v 0.000000 -1.743780 24.017656
v 0.000000 3.826433 26.723078
v -24.232479 -4.794987 13.990628
v -22.925274 3.633030 13.235913
v -20.699446 -1.654485 -11.950830
v -21.578272 2.435678 -12.458221
v 9.564650 0.021308 -16.566460
v 10.023499 0.896381 -17.361210
v 24.574759 5.424093 0.000000
v 9.339195 0.472213 16.175961
v 11.645341 4.140030 20.170322
v -12.193012 -5.235361 21.118917
v -10.392230 1.633834 17.999870
v -23.851267 -4.700608 0.000000
v -22.798883 3.648237 0.000000
v -11.969625 -4.788593 -20.732000
v -11.756988 4.363320 -20.363701
v 10.956540 0.000000 -18.977283
v 19.534021 0.000000 0.000000
v 12.779794 0.000000 22.135252
v -12.398049 0.000000 21.474052
v 10.825317 -1.712414 -6.250000
v -10.825317 5.988981 -6.250000
v 0.000000 -1.169800 12.500000
v -18.634098 0.000000 0.000000
v -12.505630 0.000000 -21.660387
v 0.000000 -4.765984 -12.500000
v 10.825317 -1.665149 6.250000
v -10.825317 -5.040479 6.250000
v 16.237976 5.248001 3.125000
v -5.412659 5.869816 -15.625000
v -10.825317 3.406712 12.500000
v -10.825317 0.760001 -12.500000
v 16.237976 -2.373876 -3.125000
v -5.412659 -2.649345 15.625000
v 5.412659 -0.975038 -15.625000
v -16.237976 0.624509 3.125000
v 10.825317 -0.152831 12.500000
v 10.825317 -4.445532 -12.500000
v 5.412659 -5.777431 15.625000
v -16.237976 -1.079284 -3.125000
v -16.237976 -1.657468 9.375000
v 16.237976 -2.347614 9.375000
v 0.000000 0.746338 -18.750000
v 0.000000 1.388251 18.750000
v -16.237976 2.360046 -9.375000
v 16.237976 3.411372 -9.375000
v -5.412659 1.441547 -3.125000
v 5.412659 0.759656 -3.125000
v 0.000000 -3.970703 6.250000
v 5.412659 -1.487668 3.125000
v 0.000000 1.238827 -6.250000
v -5.412659 2.397658 3.125000
vn -0.1211 -0.9908 -0.0612
vn 0.1131 -0.9832 -0.1432
vn -0.5100 -0.0781 0.8566
vn 0.5327 0.8424 0.0810
vn -0.6693 0.7429 0.0128
vn -0.2436 -0.2108 -0.9467
vn 0.2726 -0.9606 0.0549
vn 0.0204 0.8793 -0.4759
vn 0.7325 -0.6807 0.0071
vn 0.4202 0.4805 0.7698
vn -0.0143 0.9080 0.4187
vn 0.0550 0.9779 0.2018
vn -0.0484 0.9688 -0.2432
vn 0.0363 0.9520 0.3040
vn -0.6589 -0.7522 0.0087
vn -0.4044 0.3236 -0.8554
vn 0.2299 -0.8215 0.5218
vn 0.4706 -0.8673 0.1624
vn 0.2932 -0.9521 -0.0863
vn 0.2082 -0.8521 -0.4802
vn -0.2509 -0.8422 0.4772
vn 0.1672 -0.9256 -0.3396
vn 0.8133 -0.5318 0.2363
vn -0.2212 -0.9597 0.1735
vn 0.2475 -0.9568 -0.1526
vn 0.0198 -0.6700 -0.7421
vn 0.0937 -0.7467 -0.6585
vn 0.3230 -0.8486 0.4190
vn -0.6315 0.3184 -0.7069
vn -0.6589 -0.7522 -0.0072
vn -0.0821 0.8734 -0.4800
vn -0.1700 0.9120 -0.3733
vn 0.0437 0.9554 -0.2922
vn 0.1225 0.8293 0.5452
vn -0.3605 0.8563 -0.3699
vn -0.0727 0.9860 0.1501
vn -0.2868 0.9278 0.2385
vn -0.5988 0.7690 0.2238
vn -0.0416 0.9838 -0.1742
vn -0.3692 0.9048 0.2124
vn 0.5429 0.4769 0.6913
vn 0.7325 -0.6807 -0.0056
vn 0.4315 0.8712 -0.2341
vn -0.4321 -0.8465 0.3110
vn -0.0533 -0.8465 0.5297
vn 0.1990 -0.9345 -0.2950
vn -0.7225 -0.2359 -0.6499
vn -0.9352 0.1151 -0.3348
vn -0.5024 0.8074 -0.3094
vn 0.2609 0.9569 0.1277
vn -0.1462 0.8927 0.4264
vn -0.2389 -0.4242 0.8735
vn 0.7155 -0.3469 0.6063
vn 0.9453 -0.2993 0.1301
vn 0.4687 -0.2791 -0.8381
vn 0.5166 -0.3342 -0.7883
vn 0.9499 -0.2853 -0.1276
vn 0.1887 -0.4290 0.8834
vn -0.5732 0.1609 0.8034
vn -0.9641 -0.1833 0.1920
vn -0.2528 -0.3057 -0.9180
vn -0.7298 -0.2080 -0.6513
vn -0.6693 0.7429 -0.0132
vn -0.2104 -0.0744 0.9748
vn -0.1732 -0.9846 0.0220
vn 0.1403 -0.9860 0.0897
vn 0.3864 0.9139 0.1247
vn -0.1585 0.9678 -0.1957
vn 0.0006 0.9586 -0.2848
vn 0.3334 0.9289 0.1610
vn 0.3368 0.9383 0.0785
vn 0.3990 0.9093 0.1180
vn -0.2525 0.8943 0.3694
vn -0.5196 0.8350 0.1811
vn -0.0932 0.9918 -0.0874
vn 0.0965 -0.9764 0.1933
vn -0.2775 -0.9604 -0.0249
vn -0.2671 -0.9245 0.2720
vn 0.0832 -0.8415 -0.5338
vn -0.0553 -0.8782 -0.4751
vn 0.1952 -0.9163 -0.3497
vn 0.2343 -0.9706 -0.0552
vn 0.2264 -0.9722 -0.0600
vn 0.1994 -0.8561 -0.4768
vn 0.0257 -0.8676 0.4966
vn -0.2605 -0.9001 0.3493
vn -0.2770 -0.9569 -0.0876
vn 0.2623 0.9620 -0.0758
vn 0.5313 0.8402 0.1083
vn 0.3924 0.8943 0.2152
vn -0.2065 0.8389 -0.5036
vn -0.1565 0.9823 -0.1028
vn 0.3763 0.8901 0.2573
vn -0.3788 -0.7422 0.5529
vn 0.3710 -0.8851 0.2811
vn 0.3718 -0.9280 0.0220
vn 0.3807 -0.9151 -0.1328
vn -0.5544 -0.8299 -0.0619
vn 0.3672 -0.9301 0.0037
vn 0.6338 -0.4534 0.6267
vn 0.0149 -0.9712 -0.2379
vn -0.0430 -0.9376 0.3451
vn 0.2220 -0.6214 -0.7514
vn 0.4151 -0.6823 -0.6018
vn -0.1667 -0.8841 0.4366
vn -0.2232 0.8606 -0.4578
vn 0.0492 0.9244 -0.3783
vn -0.1869 0.9394 -0.2873
vn 0.4166 0.9091 0.0050
vn -0.5307 0.8453 -0.0623
vn 0.0662 0.9937 -0.0902
vn -0.1816 0.8710 0.4565
vn -0.5471 0.7733 0.3204
vn -0.0813 0.9670 -0.2413
vt 0.916667 0.750000
vt 0.833333 0.500000
vt 0.916667 0.500000
vt 0.583333 0.750000
vt 0.500000 0.500000
vt 0.583333 0.500000
vt 0.416667 0.750000
vt 0.333333 0.500000
vt 0.416667 0.500000
vt 0.250000 0.490000
vt 0.198038 0.400000
vt 0.301962 0.400000
vt 0.250000 0.750000
vt 0.166667 0.500000
vt 0.250000 0.500000
vt 0.083333 0.750000
vt -0.000000 0.500000
vt 0.083333 0.500000
vt 0.957846 0.370000
vt 0.905885 0.280000
vt 0.853923 0.370000
vt 0.833333 1.000000
vt 0.916667 1.000000
vt 0.666667 1.000000
vt 0.750000 0.750000
vt 0.750000 1.000000
vt 0.500000 1.000000
vt 0.583333 1.000000
vt 0.333333 1.000000
vt 0.416667 1.000000
vt 0.457846 0.250000
vt 0.405885 0.220000
vt 0.457846 0.130000
vt 0.146077 0.430000
vt 0.146077 0.070000
vt 0.146077 0.130000
vt 0.042154 0.130000
vt 0.166667 1.000000
vt 0.250000 1.000000
vt -0.000000 1.000000
vt 0.083333 1.000000
vt 0.646077 0.430000
vt 0.646077 0.370000
vt 0.542154 0.370000
vt 0.957846 0.250000
vt 0.646077 0.070000
vt 0.698038 0.100000
vt 0.750000 0.010000
vt 0.542154 0.250000
vt 0.594115 0.280000
vt 0.646077 0.190000
vt 0.594115 0.160000
vt 0.542154 0.130000
vt 0.853923 0.070000
vt 0.801962 0.100000
vt 0.853923 0.190000
vt 0.905885 0.160000
vt 0.957846 0.130000
vt 0.853923 0.430000
vt 0.750000 0.370000
vt 0.750000 0.430000
vt 0.750000 0.490000
vt 0.353923 0.070000
vt 0.353923 0.130000
vt 0.250000 0.130000
vt 0.250000 0.070000
vt 0.250000 0.010000
vt 0.042154 0.250000
vt 0.094115 0.220000
vt 0.146077 0.310000
vt 0.094115 0.340000
vt 0.042154 0.370000
vt 0.353923 0.430000
vt 0.353923 0.310000
vt 0.405885 0.340000
vt 0.457846 0.370000
vt 1.000000 1.000000
vt 0.698038 0.280000
vt 0.801962 0.280000
vt 0.750000 0.190000
vt 0.301962 0.220000
vt 0.250000 0.310000
vt 0.198038 0.220000
vt 0.666667 0.500000
vt 1.000000 0.500000
s 0
f 24/1/1 3/2/1 13/3/1
f 26/4/2 7/5/2 16/6/2
f 27/7/3 9/8/3 18/9/3
f 2/10/4 37/11/4 42/12/4
f 31/13/5 11/14/5 20/15/5
f 32/16/6 1/17/6 22/18/6
f 3/19/7 40/20/7 45/21/7
f 4/22/8 24/1/8 14/23/8
f 6/24/9 25/25/9 15/26/9
f 8/27/10 26/4/10 17/28/10
f 10/29/11 27/7/11 19/30/11
f 15/31/12 36/32/12 6/33/12
f 23/34/13 37/11/13 2/10/13
f 19/35/14 38/36/14 10/37/14
f 12/38/15 31/13/15 21/39/15
f 2/40/16 32/16/16 23/41/16
f 22/42/17 39/43/17 11/44/17
f 25/45/18 40/20/18 3/19/18
f 18/46/19 41/47/19 7/48/19
f 20/49/20 47/50/20 35/51/20
f 35/51/21 48/52/21 20/49/21
f 9/53/22 48/52/22 18/46/22
f 16/54/23 46/55/23 34/56/23
f 34/56/24 49/57/24 16/54/24
f 5/58/25 49/57/25 25/45/25
f 13/59/26 45/21/26 33/60/26
f 33/60/27 50/61/27 13/59/27
f 1/62/28 50/61/28 22/42/28
f 12/38/29 23/41/29 32/16/29
f 10/29/30 21/39/30 31/13/30
f 17/63/31 44/64/31 30/65/31
f 30/65/32 51/66/32 17/63/32
f 8/67/33 51/66/33 19/35/33
f 21/68/34 43/69/34 29/70/34
f 29/70/35 52/71/35 21/68/35
f 12/72/36 52/71/36 23/34/36
f 14/73/37 42/12/37 28/74/37
f 28/74/38 53/75/38 14/73/38
f 4/76/39 53/75/39 15/31/39
f 8/27/40 19/30/40 27/7/40
f 6/24/41 17/28/41 26/4/41
f 4/22/42 15/26/42 25/25/42
f 2/77/43 14/23/43 24/1/43
f 33/60/44 54/78/44 39/43/44
f 33/60/45 55/79/45 54/78/45
f 34/56/46 46/55/46 56/80/46
f 32/16/47 11/14/47 12/38/47
f 31/13/48 9/8/48 10/29/48
f 28/74/49 57/81/49 36/32/49
f 28/74/50 58/82/50 57/81/50
f 29/70/51 43/69/51 59/83/51
f 27/7/52 7/5/52 8/27/52
f 26/4/53 5/84/53 6/24/53
f 25/25/54 3/2/54 4/22/54
f 24/1/55 1/85/55 2/77/55
f 4/22/56 3/2/56 24/1/56
f 6/24/57 5/84/57 25/25/57
f 8/27/58 7/5/58 26/4/58
f 10/29/59 9/8/59 27/7/59
f 12/38/60 11/14/60 31/13/60
f 2/40/61 1/17/61 32/16/61
f 32/16/62 22/18/62 11/14/62
f 31/13/63 20/15/63 9/8/63
f 27/7/64 18/9/64 7/5/64
f 26/4/65 16/6/65 5/84/65
f 24/1/66 13/3/66 1/85/66
f 59/83/67 38/36/67 30/65/67
f 59/83/68 43/69/68 38/36/68
f 43/69/69 10/37/69 38/36/69
f 57/81/70 59/83/70 30/65/70
f 57/81/71 58/82/71 59/83/71
f 58/82/72 29/70/72 59/83/72
f 36/32/73 44/64/73 6/33/73
f 36/32/74 57/81/74 44/64/74
f 57/81/75 30/65/75 44/64/75
f 56/80/76 41/47/76 35/51/76
f 56/80/77 46/55/77 41/47/77
f 46/55/78 7/48/78 41/47/78
f 54/78/79 56/80/79 35/51/79
f 54/78/80 55/79/80 56/80/80
f 55/79/81 34/56/81 56/80/81
f 39/43/82 47/50/82 11/44/82
f 39/43/83 54/78/83 47/50/83
f 54/78/84 35/51/84 47/50/84
f 45/21/85 55/79/85 33/60/85
f 45/21/86 40/20/86 55/79/86
f 40/20/87 34/56/87 55/79/87
f 42/12/88 58/82/88 28/74/88
f 42/12/89 37/11/89 58/82/89
f 37/11/90 29/70/90 58/82/90
f 15/31/91 28/74/91 36/32/91
f 23/34/92 29/70/92 37/11/92
f 19/35/93 30/65/93 38/36/93
f 22/42/94 33/60/94 39/43/94
f 25/45/95 34/56/95 40/20/95
f 18/46/96 35/51/96 41/47/96
f 20/49/97 11/44/97 47/50/97
f 35/51/98 18/46/98 48/52/98
f 9/53/99 20/49/99 48/52/99
f 16/54/100 7/48/100 46/55/100
f 34/56/101 25/45/101 49/57/101
f 5/58/102 16/54/102 49/57/102
f 13/59/103 3/19/103 45/21/103
f 33/60/104 22/42/104 50/61/104
f 1/62/105 13/59/105 50/61/105
f 17/63/106 6/33/106 44/64/106
f 30/65/107 19/35/107 51/66/107
f 8/67/108 17/63/108 51/66/108
f 21/68/109 10/37/109 43/69/109
f 29/70/110 23/34/110 52/71/110
f 12/72/111 21/68/111 52/71/111
f 14/73/112 2/10/112 42/12/112
f 28/74/113 15/31/113 53/75/113
f 4/76/114 14/73/114 53/75/114
