# Blender 4.3.0
# www.blender.org
o Cylinder
v 0.000000 -4.984613 -28.227587
v 0.000000 1.826034 -24.124506
v 19.767290 -0.825889 -11.412650
v 21.390545 2.268807 -12.349836
v 23.974743 -4.565887 13.841825
v 20.486055 1.464802 11.827629
v 0.000000 -3.695812 26.553381
v 0.000000 4.847243 28.049139
v -23.572781 -4.208585 13.609752
v -22.508551 3.262604 12.995317
v -20.134470 -1.152276 -11.624641
v -19.115511 0.246543 -11.036345
v 11.403740 -3.656832 -19.751858
v 10.785957 2.421280 -18.681826
v 20.129364 -0.978746 0.000000
v 23.131519 3.980870 0.000000
v 12.132303 -5.113945 21.013767
v 11.055508 2.960375 19.148701
v -9.684407 -0.218204 16.773886
v -10.142496 1.134372 17.567318
v -22.702194 -3.551548 0.000000
v -20.109608 0.958990 0.000000
v -11.849060 -4.547464 -20.523174
v -9.859965 0.569317 -17.077961
v 11.210018 0.000000 -19.416321
v 24.326984 0.000000 0.000000
v 8.931238 0.000000 15.469358
v 10.825317 5.195258 -6.250000
v -10.825317 2.144885 -6.250000
v 0.000000 -0.920534 12.500000
v -18.726490 0.000000 0.000000
v -9.135176 0.000000 -15.822590
v 0.000000 -4.929638 -12.500000
v 10.825317 -2.073742 6.250000
v -10.825317 -2.343052 6.250000
v 16.237976 4.920514 3.125000
v -5.412659 0.332215 -15.625000
v -10.825317 1.171797 12.500000
v -10.825317 -5.132331 -12.500000
v 16.237976 -4.329486 -3.125000
v -5.412659 -2.475132 15.625000
v 5.412659 -0.601517 -15.625000
v -16.237976 -1.664974 3.125000
v 10.825317 2.667532 12.500000
v 10.825317 -3.980184 -12.500000
v 5.412659 -4.800639 15.625000
v -16.237976 -5.058587 -3.125000
v -16.237976 -2.744791 9.375000
v 16.237976 -1.765148 9.375000
v 0.000000 1.238179 -18.750000
v 0.000000 -0.425282 18.750000
v -16.237976 0.158257 -9.375000
v 16.237976 4.971932 -9.375000
v -5.412659 0.412784 -3.125000
v 5.412659 -5.221826 -3.125000
v 0.000000 -1.603414 6.250000
v 5.412659 -1.478221 3.125000
v 0.000000 5.808779 -6.250000
v -5.412659 0.998324 3.125000
vn 0.6847 0.1025 -0.7215
vn 0.2166 -0.9288 -0.3009
vn 0.3326 0.7811 0.5284
vn 0.0838 0.9710 0.2240
vn -0.6662 0.7458 0.0068
vn -0.3300 0.7665 -0.5510
vn 0.3486 -0.9073 -0.2351
vn 0.4873 0.3305 -0.8082
vn 0.9234 0.2773 0.2655
vn 0.2672 -0.8203 0.5057
vn -0.3704 -0.5601 0.7410
vn 0.2425 0.9364 0.2535
vn -0.0033 0.9853 0.1710
vn 0.1755 0.9843 -0.0164
vn -0.5698 -0.8218 0.0017
vn -0.1293 -0.9290 -0.3467
vn -0.3944 -0.9188 -0.0167
vn 0.6664 -0.7449 -0.0311
vn -0.4389 -0.8908 0.1179
vn -0.0689 -0.9469 0.3141
vn 0.0883 -0.9958 0.0248
vn 0.2525 -0.9619 0.1048
vn 0.1237 -0.9697 -0.2106
vn 0.1781 -0.9606 -0.2136
vn -0.2412 -0.9536 -0.1801
vn 0.0873 -0.9955 -0.0374
vn -0.3447 -0.6681 -0.6594
vn 0.3100 -0.7947 0.5218
vn -0.1765 -0.9308 -0.3202
vn -0.5693 -0.8211 0.0405
vn -0.3145 0.9488 -0.0309
vn -0.2895 0.9542 -0.0756
vn 0.1879 0.8544 -0.4844
vn 0.2051 0.8597 0.4678
vn -0.2443 0.9524 -0.1823
vn -0.0001 0.9986 0.0532
vn -0.5578 0.8104 -0.1791
vn -0.0850 0.9725 -0.2167
vn 0.3741 0.9100 -0.1789
vn -0.4883 -0.5587 0.6704
vn 0.2639 -0.8202 0.5075
vn 0.9434 0.2833 -0.1723
vn 0.4107 0.3298 -0.8500
vn 0.0162 -0.8647 0.5021
vn -0.4491 -0.8628 0.2324
vn -0.0414 -0.9527 -0.3010
vn -0.3450 0.5662 -0.7486
vn -0.9466 0.1099 -0.3031
vn -0.4848 0.8201 0.3039
vn 0.0454 0.8013 0.5966
vn -0.2314 0.9406 0.2486
vn -0.7263 -0.1185 0.6771
vn 0.2233 0.4225 0.8784
vn 0.8100 -0.5117 -0.2866
vn 0.4057 0.4717 -0.7829
vn 0.5669 -0.4964 -0.6574
vn 0.8181 0.5397 0.1988
vn 0.7912 -0.1055 0.6024
vn -0.2519 0.1149 0.9609
vn -0.8158 0.5768 0.0416
vn -0.6613 0.3871 -0.6425
vn -0.2976 0.7662 -0.5695
vn -0.6662 0.7458 -0.0066
vn 0.2965 0.7812 0.5493
vn 0.2270 -0.9737 -0.0202
vn 0.5854 0.1048 -0.8040
vn 0.1890 0.9778 0.0910
vn -0.2360 0.9595 -0.1540
vn 0.1491 0.9193 -0.3642
vn 0.2225 0.9724 0.0706
vn 0.1888 0.8252 0.5324
vn -0.3070 0.9070 0.2882
vn 0.1386 0.9418 0.3063
vn -0.5069 0.8576 -0.0866
vn -0.3061 0.9234 -0.2316
vn 0.0681 -0.9963 -0.0533
vn -0.2055 -0.9564 -0.2075
vn -0.2100 -0.9777 -0.0052
vn 0.0661 -0.9670 -0.2461
vn -0.4604 -0.8845 0.0756
vn -0.0408 -0.9398 0.3392
vn -0.4009 -0.8882 -0.2244
vn 0.4358 -0.8622 0.2584
vn 0.4511 -0.8925 -0.0019
vn 0.0871 -0.9929 -0.0812
vn 0.0819 -0.9931 -0.0843
vn 0.0790 -0.9579 0.2761
vn 0.0474 0.8371 -0.5450
vn 0.0727 0.8423 -0.5340
vn -0.3008 0.8889 -0.3456
vn 0.1176 0.9923 -0.0388
vn 0.0966 0.9861 -0.1349
vn 0.1897 0.9817 -0.0183
vn 0.0187 -0.9970 -0.0751
vn 0.3773 -0.8270 0.4168
vn -0.4078 -0.8854 0.2230
vn -0.3371 -0.9045 -0.2612
vn 0.1739 -0.9688 0.1767
vn 0.1754 -0.9838 -0.0363
vn -0.0909 -0.9943 0.0555
vn 0.0847 -0.9952 -0.0483
vn -0.1520 -0.9343 -0.3225
vn 0.3343 -0.9423 -0.0154
vn 0.4124 -0.6484 -0.6399
vn -0.2966 -0.7983 0.5241
vn 0.1201 0.9916 -0.0478
vn 0.1604 0.9840 -0.0780
vn -0.2413 0.8442 -0.4787
vn 0.5809 0.8131 -0.0369
vn -0.2565 0.9529 -0.1615
vn 0.0643 0.9962 -0.0585
vn -0.2566 0.8738 0.4130
vn 0.0715 0.9960 0.0527
vn 0.2436 0.8896 -0.3865
vt 0.916667 0.750000
vt 0.833333 0.500000
vt 0.916667 0.500000
vt 0.750000 0.750000
vt 0.666667 0.500000
vt 0.750000 0.500000
vt 0.583333 0.750000
vt 0.500000 0.500000
vt 0.583333 0.500000
vt 0.250000 0.490000
vt 0.198038 0.400000
vt 0.301962 0.400000
vt 0.250000 0.750000
vt 0.166667 0.500000
vt 0.250000 0.500000
vt 0.083333 0.750000
vt -0.000000 0.500000
vt 0.083333 0.500000
vt 0.957846 0.370000
vt 0.905885 0.280000
vt 0.853923 0.370000
vt 0.833333 1.000000
vt 0.916667 1.000000
vt 0.666667 1.000000
vt 0.750000 1.000000
vt 0.500000 1.000000
vt 0.583333 1.000000
vt 0.333333 1.000000
vt 0.416667 0.750000
vt 0.416667 1.000000
vt 0.457846 0.250000
vt 0.405885 0.220000
vt 0.457846 0.130000
vt 0.146077 0.430000
vt 0.146077 0.070000
vt 0.146077 0.130000
vt 0.042154 0.130000
vt 0.166667 1.000000
vt 0.250000 1.000000
vt -0.000000 1.000000
vt 0.083333 1.000000
vt 0.646077 0.430000
vt 0.646077 0.370000
vt 0.542154 0.370000
vt 0.957846 0.250000
vt 0.646077 0.070000
vt 0.698038 0.100000
vt 0.750000 0.010000
vt 0.542154 0.250000
vt 0.594115 0.280000
vt 0.646077 0.190000
vt 0.594115 0.160000
vt 0.542154 0.130000
vt 0.853923 0.070000
vt 0.801962 0.100000
vt 0.853923 0.190000
vt 0.905885 0.160000
vt 0.957846 0.130000
vt 0.853923 0.430000
vt 0.750000 0.370000
vt 0.750000 0.430000
vt 0.750000 0.490000
vt 0.353923 0.070000
vt 0.353923 0.130000
vt 0.250000 0.130000
vt 0.250000 0.070000
vt 0.250000 0.010000
vt 0.042154 0.250000
vt 0.094115 0.220000
vt 0.146077 0.310000
vt 0.094115 0.340000
vt 0.042154 0.370000
vt 0.353923 0.430000
vt 0.353923 0.310000
vt 0.405885 0.340000
vt 0.457846 0.370000
vt 1.000000 1.000000
vt 0.698038 0.280000
vt 0.801962 0.280000
vt 0.750000 0.190000
vt 0.333333 0.500000
vt 0.301962 0.220000
vt 0.250000 0.310000
vt 0.198038 0.220000
vt 1.000000 0.500000
s 0
f 25/1/1 3/2/1 13/3/1
f 26/4/2 5/5/2 15/6/2
f 27/7/3 7/8/3 17/9/3
f 2/10/4 37/11/4 42/12/4
f 31/13/5 11/14/5 21/15/5
f 32/16/6 1/17/6 23/18/6
f 3/19/7 40/20/7 45/21/7
f 4/22/8 25/1/8 14/23/8
f 6/24/9 26/4/9 16/25/9
f 8/26/10 27/7/10 18/27/10
f 10/28/11 19/29/11 20/30/11
f 16/31/12 36/32/12 6/33/12
f 24/34/13 37/11/13 2/10/13
f 20/35/14 38/36/14 10/37/14
f 12/38/15 31/13/15 22/39/15
f 2/40/16 32/16/16 24/41/16
f 23/42/17 39/43/17 11/44/17
f 15/45/18 40/20/18 3/19/18
f 19/46/19 41/47/19 7/48/19
f 21/49/20 47/50/20 35/51/20
f 35/51/21 48/52/21 21/49/21
f 9/53/22 48/52/22 19/46/22
f 17/54/23 46/55/23 34/56/23
f 34/56/24 49/57/24 17/54/24
f 5/58/25 49/57/25 15/45/25
f 13/59/26 45/21/26 33/60/26
f 33/60/27 50/61/27 13/59/27
f 1/62/28 50/61/28 23/42/28
f 12/38/29 24/41/29 32/16/29
f 10/28/30 22/39/30 31/13/30
f 18/63/31 44/64/31 30/65/31
f 30/65/32 51/66/32 18/63/32
f 8/67/33 51/66/33 20/35/33
f 22/68/34 43/69/34 29/70/34
f 29/70/35 52/71/35 22/68/35
f 12/72/36 52/71/36 24/34/36
f 14/73/37 42/12/37 28/74/37
f 28/74/38 53/75/38 14/73/38
f 4/76/39 53/75/39 16/31/39
f 8/26/40 20/30/40 19/29/40
f 6/24/41 18/27/41 27/7/41
f 4/22/42 16/25/42 26/4/42
f 2/77/43 14/23/43 25/1/43
f 33/60/44 54/78/44 39/43/44
f 33/60/45 55/79/45 54/78/45
f 34/56/46 46/55/46 56/80/46
f 32/16/47 11/14/47 12/38/47
f 31/13/48 9/81/48 10/28/48
f 28/74/49 57/82/49 36/32/49
f 28/74/50 58/83/50 57/82/50
f 29/70/51 43/69/51 59/84/51
f 19/29/52 7/8/52 8/26/52
f 27/7/53 5/5/53 6/24/53
f 26/4/54 3/2/54 4/22/54
f 25/1/55 1/85/55 2/77/55
f 4/22/56 3/2/56 25/1/56
f 6/24/57 5/5/57 26/4/57
f 8/26/58 7/8/58 27/7/58
f 10/28/59 9/81/59 19/29/59
f 12/38/60 11/14/60 31/13/60
f 2/40/61 1/17/61 32/16/61
f 32/16/62 23/18/62 11/14/62
f 31/13/63 21/15/63 9/81/63
f 27/7/64 17/9/64 5/5/64
f 26/4/65 15/6/65 3/2/65
f 25/1/66 13/3/66 1/85/66
f 59/84/67 38/36/67 30/65/67
f 59/84/68 43/69/68 38/36/68
f 43/69/69 10/37/69 38/36/69
f 57/82/70 59/84/70 30/65/70
f 57/82/71 58/83/71 59/84/71
f 58/83/72 29/70/72 59/84/72
f 36/32/73 44/64/73 6/33/73
f 36/32/74 57/82/74 44/64/74
f 57/82/75 30/65/75 44/64/75
f 56/80/76 41/47/76 35/51/76
f 56/80/77 46/55/77 41/47/77
f 46/55/78 7/48/78 41/47/78
f 54/78/79 56/80/79 35/51/79
f 54/78/80 55/79/80 56/80/80
f 55/79/81 34/56/81 56/80/81
f 39/43/82 47/50/82 11/44/82
f 39/43/83 54/78/83 47/50/83
f 54/78/84 35/51/84 47/50/84
f 45/21/85 55/79/85 33/60/85
f 45/21/86 40/20/86 55/79/86
f 40/20/87 34/56/87 55/79/87
f 42/12/88 58/83/88 28/74/88
f 42/12/89 37/11/89 58/83/89
f 37/11/90 29/70/90 58/83/90
f 16/31/91 28/74/91 36/32/91
f 24/34/92 29/70/92 37/11/92
f 20/35/93 30/65/93 38/36/93
f 23/42/94 33/60/94 39/43/94
f 15/45/95 34/56/95 40/20/95
f 19/46/96 35/51/96 41/47/96
f 21/49/97 11/44/97 47/50/97
f 35/51/98 19/46/98 48/52/98
f 9/53/99 21/49/99 48/52/99
f 17/54/100 7/48/100 46/55/100
f 34/56/101 15/45/101 49/57/101
f 5/58/102 17/54/102 49/57/102
f 13/59/103 3/19/103 45/21/103
f 33/60/104 23/42/104 50/61/104
f 1/62/105 13/59/105 50/61/105
f 18/63/106 6/33/106 44/64/106
f 30/65/107 20/35/107 51/66/107
f 8/67/108 18/63/108 51/66/108
f 22/68/109 10/37/109 43/69/109
f 29/70/110 24/34/110 52/71/110
f 12/72/111 22/68/111 52/71/111
f 14/73/112 2/10/112 42/12/112
f 28/74/113 16/31/113 53/75/113
f 4/76/114 14/73/114 53/75/114
