# Blender 4.3.0
# www.blender.org
o Cylinder
v 0.000000 -2.044703 -24.408556
v 0.000000 3.551961 -26.366516
v 24.313353 -4.866899 -14.037321
v 20.036917 1.065576 -11.568320
v 21.026588 -1.945289 12.139707
v 19.669018 0.738535 11.355913
v 0.000000 -4.475087 27.565672
v 0.000000 3.564672 26.383039
v -19.037933 -0.177585 10.991556
v -24.290188 4.846308 14.023948
v -20.807550 -1.750580 -12.013245
v -20.568983 1.538526 -11.875508
v 10.250209 -1.349795 -17.753883
v 9.943579 0.736542 -17.222784
v 21.646370 -2.495734 0.000000
v 19.465767 0.315155 0.000000
v 9.664310 -0.178010 16.739075
v 12.138785 5.126908 21.024994
v -12.006637 -4.862613 20.796104
v -10.113909 1.077198 17.517805
v -24.095297 -4.944636 0.000000
v -18.652458 -0.498145 0.000000
v -10.654156 -2.157681 -18.453541
v -10.519960 1.889293 -18.221107
v 11.502886 0.000000 -19.923584
v 22.831350 0.000000 0.000000
v 10.601482 0.000000 18.362307
v -8.743749 0.000000 15.144617
v 10.825317 4.110974 -6.250000
v -10.825317 1.489076 -6.250000
v 0.000000 5.433823 12.500000
v -8.849232 0.000000 -15.327318
v 0.000000 0.659588 -12.500000
v 10.825317 -2.263739 6.250000
v -10.825317 -4.695111 6.250000
v 16.237976 4.282954 3.125000
v -5.412659 3.400263 -15.625000
v -10.825317 2.788779 12.500000
v -10.825317 0.382778 -12.500000
v 16.237976 -5.483448 -3.125000
v -5.412659 -5.077584 15.625000
v 5.412659 1.400491 -15.625000
v -16.237976 4.310165 3.125000
v 10.825317 0.235058 12.500000
v 10.825317 -3.052233 -12.500000
v 5.412659 -4.589432 15.625000
v -16.237976 -0.306885 -3.125000
v -16.237976 0.624586 9.375000
v 16.237976 -1.975685 9.375000
v 0.000000 -1.384758 -18.750000
v 0.000000 0.277447 18.750000
v -16.237976 1.395413 -9.375000
v 16.237976 0.771834 -9.375000
v -5.412659 0.847605 -3.125000
v 5.412659 -4.283226 -3.125000
v 0.000000 1.574813 6.250000
v 5.412659 0.148830 3.125000
v 0.000000 5.442883 -6.250000
v -5.412659 -0.206020 3.125000
vn -0.0618 -0.8311 -0.5527
vn 0.9014 -0.4280 0.0654
vn 0.3246 -0.9421 -0.0841
vn -0.2364 0.7998 0.5517
vn 0.1807 0.9779 0.1048
vn -0.6323 0.7740 0.0327
vn -0.2572 0.8584 -0.4439
vn -0.1501 -0.9746 -0.1661
vn 0.0883 0.9728 -0.2143
vn 0.0932 0.9949 -0.0388
vn 0.4009 -0.5140 0.7583
vn -0.3046 -0.9212 0.2422
vn 0.7604 0.6483 -0.0378
vn -0.2332 0.9669 -0.1039
vn 0.1769 0.9389 0.2952
vn -0.2088 -0.8697 -0.4472
vn 0.2106 -0.8969 0.3888
vn 0.3697 -0.9021 0.2226
vn 0.0051 -0.9988 0.0481
vn 0.2648 -0.8056 -0.5300
vn -0.2976 -0.6903 0.6595
vn 0.0068 -0.9004 -0.4351
vn 0.6755 -0.7053 0.2150
vn -0.0568 -0.9804 0.1887
vn -0.0192 -0.9988 0.0443
vn -0.3131 -0.9130 -0.2616
vn -0.0270 -0.9501 0.3108
vn 0.0751 -0.9905 0.1155
vn -0.2407 -0.8705 -0.4293
vn 0.3738 0.7784 -0.5043
vn -0.3930 0.7093 0.5852
vn 0.1199 0.9118 -0.3927
vn -0.5764 0.6287 -0.5220
vn -0.1141 0.9791 0.1684
vn 0.0006 0.9984 0.0561
vn 0.0354 0.9544 -0.2964
vn 0.3693 0.8795 -0.3001
vn -0.0409 0.9972 0.0627
vn -0.0934 -0.9258 0.3663
vn 0.5520 -0.5087 0.6607
vn 0.0930 0.9933 0.0690
vn 0.3286 0.9421 -0.0672
vn 0.0255 -0.9991 0.0348
vn -0.4175 -0.8808 -0.2234
vn -0.3074 -0.8669 -0.3925
vn -0.2747 0.0601 -0.9596
vn -0.6922 -0.7217 -0.0032
vn -0.3506 0.9180 0.1856
vn 0.1097 0.8913 0.4400
vn 0.3844 0.9215 -0.0553
vn -0.7995 0.0874 0.5943
vn 0.5154 0.4700 0.7166
vn 0.7775 0.6151 -0.1312
vn 0.3925 -0.3037 -0.8682
vn 0.5099 0.6170 -0.5995
vn 0.8482 0.4887 0.2044
vn 0.6235 0.1138 0.7735
vn -0.2625 -0.6848 0.6799
vn -0.9834 0.0642 0.1697
vn -0.7225 -0.2283 -0.6526
vn -0.2499 0.8583 -0.4482
vn -0.6320 0.7737 -0.0447
vn -0.3130 0.8018 0.5092
vn -0.0886 -0.9833 0.1590
vn 0.8776 -0.4167 0.2371
vn 0.3012 -0.8779 -0.3723
vn -0.2167 0.8867 -0.4084
vn 0.3840 0.9205 -0.0723
vn 0.1583 0.9850 0.0685
vn -0.0283 0.8637 -0.5032
vn -0.0283 0.8633 0.5039
vn -0.3220 0.8815 0.3453
vn -0.0011 0.9183 0.3959
vn -0.3500 0.9165 0.1936
vn 0.4192 0.8728 -0.2500
vn 0.4767 -0.8230 -0.3088
vn 0.0372 -0.8250 -0.5639
vn 0.0450 -0.9985 0.0300
vn 0.4893 -0.8447 -0.2169
vn -0.4082 -0.8613 0.3025
vn -0.3107 -0.8763 0.3682
vn 0.2111 -0.9762 0.0500
vn 0.1060 -0.9943 -0.0119
vn 0.0938 -0.8798 -0.4660
vn -0.3097 -0.9031 -0.2974
vn -0.1082 -0.9757 -0.1906
vn -0.1062 -0.9577 0.2676
vn 0.1150 0.9346 -0.3366
vn 0.1731 0.9368 -0.3040
vn -0.3431 0.9393 -0.0066
vn 0.5757 0.7408 -0.3460
vn -0.2950 0.9552 0.0244
vn -0.2230 0.9125 0.3429
vn 0.0235 -0.9193 0.3929
vn 0.2313 -0.8713 0.4328
vn -0.0444 -0.9989 -0.0151
vn 0.4751 -0.8739 -0.1023
vn -0.7186 -0.6922 -0.0663
vn 0.3814 -0.8992 0.2145
vn 0.6478 -0.7001 0.3003
vn 0.0159 -0.9978 0.0645
vn -0.0873 -0.9829 0.1620
vn -0.1599 -0.9441 -0.2884
vn 0.0774 -0.9476 0.3100
vn -0.0079 -0.9932 0.1158
vn -0.1118 0.8692 -0.4816
vn -0.0165 0.7713 0.6363
vn -0.2810 0.8814 -0.3796
vn -0.6141 0.6231 -0.4843
vn -0.0360 0.9988 0.0325
vn -0.0714 0.9811 0.1798
vn 0.1803 0.9780 0.1050
vn 0.4704 0.8743 -0.1194
vn -0.0545 0.9977 0.0392
vt 0.916667 0.750000
vt 0.833333 0.500000
vt 0.916667 0.500000
vt 0.750000 0.750000
vt 0.666667 0.500000
vt 0.750000 0.500000
vt 0.583333 0.750000
vt 0.500000 0.500000
vt 0.583333 0.500000
vt 0.416667 0.750000
vt 0.333333 0.500000
vt 0.416667 0.500000
vt 0.250000 0.490000
vt 0.198038 0.400000
vt 0.301962 0.400000
vt 0.250000 0.750000
vt 0.166667 0.500000
vt 0.250000 0.500000
vt 0.083333 0.750000
vt -0.000000 0.500000
vt 0.083333 0.500000
vt 0.957846 0.370000
vt 0.905885 0.280000
vt 0.853923 0.370000
vt 0.833333 1.000000
vt 0.916667 1.000000
vt 0.666667 1.000000
vt 0.750000 1.000000
vt 0.500000 1.000000
vt 0.583333 1.000000
vt 0.333333 1.000000
vt 0.416667 1.000000
vt 0.457846 0.250000
vt 0.405885 0.220000
vt 0.457846 0.130000
vt 0.146077 0.430000
vt 0.146077 0.070000
vt 0.146077 0.130000
vt 0.042154 0.130000
vt -0.000000 1.000000
vt 0.083333 1.000000
vt 0.646077 0.430000
vt 0.646077 0.370000
vt 0.542154 0.370000
vt 0.957846 0.250000
vt 0.646077 0.070000
vt 0.698038 0.100000
vt 0.750000 0.010000
vt 0.542154 0.250000
vt 0.594115 0.280000
vt 0.646077 0.190000
vt 0.594115 0.160000
vt 0.542154 0.130000
vt 0.853923 0.070000
vt 0.801962 0.100000
vt 0.853923 0.190000
vt 0.905885 0.160000
vt 0.957846 0.130000
vt 0.853923 0.430000
vt 0.750000 0.370000
vt 0.750000 0.430000
vt 0.750000 0.490000
vt 0.166667 1.000000
vt 0.353923 0.070000
vt 0.353923 0.130000
vt 0.250000 0.130000
vt 0.250000 0.070000
vt 0.250000 0.010000
vt 0.042154 0.250000
vt 0.094115 0.220000
vt 0.146077 0.310000
vt 0.094115 0.340000
vt 0.042154 0.370000
vt 0.353923 0.430000
vt 0.353923 0.310000
vt 0.405885 0.340000
vt 0.457846 0.370000
vt 1.000000 1.000000
vt 0.698038 0.280000
vt 0.801962 0.280000
vt 0.750000 0.190000
vt 0.301962 0.220000
vt 0.250000 0.310000
vt 0.198038 0.220000
vt 1.000000 0.500000
s 0
f 25/1/1 3/2/1 13/3/1
f 26/4/2 5/5/2 15/6/2
f 27/7/3 7/8/3 17/9/3
f 28/10/4 9/11/4 19/12/4
f 2/13/5 37/14/5 42/15/5
f 22/16/6 11/17/6 21/18/6
f 32/19/7 1/20/7 23/21/7
f 3/22/8 40/23/8 45/24/8
f 4/25/9 25/1/9 14/26/9
f 6/27/10 26/4/10 16/28/10
f 8/29/11 27/7/11 18/30/11
f 10/31/12 28/10/12 20/32/12
f 16/33/13 36/34/13 6/35/13
f 24/36/14 37/14/14 2/13/14
f 20/37/15 38/38/15 10/39/15
f 2/40/16 32/19/16 24/41/16
f 23/42/17 39/43/17 11/44/17
f 15/45/18 40/23/18 3/22/18
f 19/46/19 41/47/19 7/48/19
f 21/49/20 47/50/20 35/51/20
f 35/51/21 48/52/21 21/49/21
f 9/53/22 48/52/22 19/46/22
f 17/54/23 46/55/23 34/56/23
f 34/56/24 49/57/24 17/54/24
f 5/58/25 49/57/25 15/45/25
f 13/59/26 45/24/26 33/60/26
f 33/60/27 50/61/27 13/59/27
f 1/62/28 50/61/28 23/42/28
f 12/63/29 24/41/29 32/19/29
f 18/64/30 44/65/30 31/66/30
f 31/66/31 51/67/31 18/64/31
f 8/68/32 51/67/32 20/37/32
f 22/69/33 43/70/33 30/71/33
f 30/71/34 52/72/34 22/69/34
f 12/73/35 52/72/35 24/36/35
f 14/74/36 42/15/36 29/75/36
f 29/75/37 53/76/37 14/74/37
f 4/77/38 53/76/38 16/33/38
f 8/29/39 20/32/39 28/10/39
f 6/27/40 18/30/40 27/7/40
f 4/25/41 16/28/41 26/4/41
f 2/78/42 14/26/42 25/1/42
f 33/60/43 54/79/43 39/43/43
f 33/60/44 55/80/44 54/79/44
f 34/56/45 46/55/45 56/81/45
f 32/19/46 11/17/46 12/63/46
f 22/16/47 9/11/47 10/31/47
f 29/75/48 57/82/48 36/34/48
f 29/75/49 58/83/49 57/82/49
f 30/71/50 43/70/50 59/84/50
f 28/10/51 7/8/51 8/29/51
f 27/7/52 5/5/52 6/27/52
f 26/4/53 3/2/53 4/25/53
f 25/1/54 1/85/54 2/78/54
f 4/25/55 3/2/55 25/1/55
f 6/27/56 5/5/56 26/4/56
f 8/29/57 7/8/57 27/7/57
f 10/31/58 9/11/58 28/10/58
f 12/63/59 11/17/59 22/16/59
f 2/40/60 1/20/60 32/19/60
f 32/19/61 23/21/61 11/17/61
f 22/16/62 21/18/62 9/11/62
f 28/10/63 19/12/63 7/8/63
f 27/7/64 17/9/64 5/5/64
f 26/4/65 15/6/65 3/2/65
f 25/1/66 13/3/66 1/85/66
f 59/84/67 38/38/67 31/66/67
f 59/84/68 43/70/68 38/38/68
f 43/70/69 10/39/69 38/38/69
f 57/82/70 59/84/70 31/66/70
f 57/82/71 58/83/71 59/84/71
f 58/83/72 30/71/72 59/84/72
f 36/34/73 44/65/73 6/35/73
f 36/34/74 57/82/74 44/65/74
f 57/82/75 31/66/75 44/65/75
f 56/81/76 41/47/76 35/51/76
f 56/81/77 46/55/77 41/47/77
f 46/55/78 7/48/78 41/47/78
f 54/79/79 56/81/79 35/51/79
f 54/79/80 55/80/80 56/81/80
f 55/80/81 34/56/81 56/81/81
f 39/43/82 47/50/82 11/44/82
f 39/43/83 54/79/83 47/50/83
f 54/79/84 35/51/84 47/50/84
f 45/24/85 55/80/85 33/60/85
f 45/24/86 40/23/86 55/80/86
f 40/23/87 34/56/87 55/80/87
f 42/15/88 58/83/88 29/75/88
f 42/15/89 37/14/89 58/83/89
f 37/14/90 30/71/90 58/83/90
f 16/33/91 29/75/91 36/34/91
f 24/36/92 30/71/92 37/14/92
f 20/37/93 31/66/93 38/38/93
f 23/42/94 33/60/94 39/43/94
f 15/45/95 34/56/95 40/23/95
f 19/46/96 35/51/96 41/47/96
f 21/49/97 11/44/97 47/50/97
f 35/51/98 19/46/98 48/52/98
f 9/53/99 21/49/99 48/52/99
f 17/54/100 7/48/100 46/55/100
f 34/56/101 15/45/101 49/57/101
f 5/58/102 17/54/102 49/57/102
f 13/59/103 3/22/103 45/24/103
f 33/60/104 23/42/104 50/61/104
f 1/62/105 13/59/105 50/61/105
f 18/64/106 6/35/106 44/65/106
f 31/66/107 20/37/107 51/67/107
f 8/68/108 18/64/108 51/67/108
f 22/69/109 10/39/109 43/70/109
f 30/71/110 24/36/110 52/72/110
f 12/73/111 22/69/111 52/72/111
f 14/74/112 2/13/112 42/15/112
f 29/75/113 16/33/113 53/76/113
f 4/77/114 14/74/114 53/76/114
