# Blender 4.3.0
# www.blender.org
o Cylinder
v 0.000000 -0.469369 -22.362148
v 0.000000 5.037107 -28.295748
v 20.095770 -1.117876 -11.602298
v 20.397705 1.386279 -11.776621
v 23.697277 -4.319250 13.681630
v 23.339333 4.001088 13.474970
v 0.000000 -0.030102 21.791557
v -22.763208 -3.488961 13.142345
v -24.443604 4.982678 14.112521
v -24.484707 -5.019216 -14.136252
v -24.185907 4.753590 -13.963740
v 10.389112 -1.627597 -17.994469
v 11.807133 4.463610 -20.450554
v 24.155243 -5.004580 0.000000
v 23.808327 4.657669 0.000000
v 11.501761 -3.852873 19.921635
v 11.042261 2.933883 19.125757
v -11.582714 -4.014777 20.061850
v -9.983379 0.816142 17.291721
v -22.947683 -3.797034 0.000000
v -19.955547 0.804931 0.000000
v -10.629478 -2.108325 -18.410797
v -9.618629 0.086649 -16.659954
v 9.355396 0.000000 -16.204021
v 22.489243 0.000000 0.000000
v 9.376520 0.000000 16.240608
v -11.465373 0.000000 19.858608
v 10.825317 5.245004 -6.250000
v -10.825317 -0.934048 -6.250000
v 0.000000 -0.529006 12.500000
v -18.896215 0.000000 0.000000
v -10.430521 0.000000 -18.066193
v 0.000000 -0.665942 -12.500000
v 10.825317 0.024154 6.250000
v -10.825317 -3.362815 6.250000
v 16.237976 1.317894 3.125000
v -5.412659 5.644905 -15.625000
v -10.825317 4.331922 12.500000
v -10.825317 -6.468573 -12.500000
v 16.237976 -6.396820 -3.125000
v -5.412659 -1.600175 15.625000
v 5.412659 3.420803 -15.625000
v -16.237976 2.788136 3.125000
v 10.825317 1.703050 12.500000
v 10.825317 -2.444715 -12.500000
v 5.412659 -4.173462 15.625000
v -16.237976 -0.807017 -3.125000
v -16.237976 -4.116071 9.375000
v 16.237976 -5.076925 9.375000
v 0.000000 -6.486205 -18.750000
v 0.000000 0.058227 18.750000
v -16.237976 -1.184152 -9.375000
v 16.237976 5.745992 -9.375000
v -5.412659 -2.315458 -3.125000
v 5.412659 -1.805179 -3.125000
v 0.000000 -1.200340 6.250000
v 5.412659 3.133808 3.125000
v 0.000000 0.821829 -6.250000
v -5.412659 3.782069 3.125000
vn 0.3109 0.7857 -0.5348
vn 0.9487 0.3158 0.0159
vn 0.3404 0.7409 0.5790
vn -0.5234 0.0583 0.8501
vn 0.2011 0.9788 0.0390
vn -0.6838 0.7296 0.0113
vn -0.3673 0.1837 -0.9118
vn 0.1694 -0.8693 -0.4643
vn 0.3284 -0.7395 -0.5876
vn 0.9620 -0.2724 0.0202
vn 0.3385 -0.7504 0.5677
vn 0.1752 0.9045 0.3887
vn -0.3927 0.9192 0.0311
vn -0.7197 0.6073 -0.3366
vn 0.1069 0.8105 0.5759
vn -0.6045 -0.7955 -0.0418
vn -0.3250 0.9368 0.1299
vn -0.0142 -0.8044 -0.5939
vn 0.3088 -0.8641 -0.3975
vn 0.3317 -0.9420 -0.0513
vn 0.2258 -0.8989 -0.3754
vn 0.0839 -0.9920 -0.0938
vn -0.0722 -0.9966 0.0409
vn 0.2435 -0.9299 -0.2757
vn -0.6144 -0.7665 -0.1870
vn 0.0710 -0.9961 0.0523
vn -0.1607 -0.9780 -0.1327
vn 0.2809 -0.7024 0.6541
vn -0.2328 -0.5006 -0.8338
vn 0.2629 0.9417 -0.2098
vn -0.6044 -0.7955 0.0433
vn -0.1989 0.9647 -0.1727
vn -0.2481 0.9645 -0.0906
vn 0.0715 0.9970 0.0290
vn -0.1206 0.8968 -0.4257
vn 0.0609 0.9810 -0.1840
vn 0.3470 0.8184 0.4580
vn -0.2105 0.9752 -0.0682
vn -0.1282 0.9897 -0.0633
vn 0.5627 0.7399 -0.3685
vn -0.0446 0.9592 0.2792
vn 0.3286 -0.7505 0.5734
vn 0.9429 -0.2670 -0.1989
vn 0.3473 -0.7394 -0.5767
vn 0.4692 -0.8753 0.1169
vn 0.0466 -0.9880 -0.1470
vn 0.1051 -0.9289 -0.3552
vn -0.2776 0.0254 -0.9604
vn -0.9370 -0.1497 -0.3155
vn 0.1577 0.9400 0.3027
vn -0.3782 0.9257 -0.0099
vn -0.0834 0.9087 -0.4090
vn 0.1853 0.0324 0.9822
vn 0.9734 -0.1305 -0.1882
vn 0.4360 -0.6596 -0.6122
vn 0.3818 -0.1099 -0.9177
vn 0.9963 0.0410 -0.0750
vn -0.4576 -0.1902 0.8686
vn -0.9324 0.0221 0.3607
vn -0.2988 -0.6995 -0.6491
vn -0.3246 0.1823 -0.9281
vn -0.6838 0.7296 -0.0075
vn -0.1659 0.0547 0.9846
vn 0.3282 0.7409 0.5860
vn 0.9254 0.3081 -0.2206
vn 0.3121 0.7857 -0.5341
vn 0.4029 0.8973 0.1800
vn -0.0909 0.9897 -0.1105
vn 0.0260 0.9839 -0.1771
vn 0.0550 0.9188 0.3908
vn 0.0576 0.9611 -0.2702
vn -0.1484 0.9152 -0.3747
vn -0.1685 0.9761 -0.1374
vn 0.1652 0.9847 0.0549
vn -0.1952 0.9465 0.2571
vn 0.1954 -0.9781 0.0711
vn -0.2278 -0.9583 -0.1724
vn -0.2108 -0.8870 0.4109
vn 0.1959 -0.9806 0.0035
vn 0.0469 -0.9947 0.0912
vn 0.1115 -0.9855 0.1279
vn -0.1472 -0.8820 0.4477
vn -0.1225 -0.8793 0.4603
vn -0.1356 -0.9730 -0.1870
vn -0.1621 -0.9864 -0.0263
vn -0.3854 -0.9087 -0.1605
vn -0.3619 -0.8533 0.3754
vn -0.3780 0.9250 0.0382
vn 0.1876 0.9133 0.3615
vn -0.1373 0.8463 0.5147
vn -0.1869 0.8630 0.4694
vn -0.7941 0.6069 -0.0325
vn 0.3517 0.7832 0.5128
vn 0.3989 -0.7442 -0.5358
vn -0.0647 -0.8403 0.5382
vn 0.3486 -0.9369 -0.0251
vn 0.4195 -0.9071 0.0328
vn 0.1147 -0.9926 -0.0406
vn -0.0816 -0.9964 0.0245
vn -0.2315 -0.8893 0.3944
vn -0.4851 -0.7694 -0.4156
vn 0.0272 -0.9915 0.1273
vn 0.1548 -0.9753 -0.1573
vn -0.2693 -0.7048 0.6563
vn 0.2900 -0.4926 -0.8205
vn -0.1646 0.9707 -0.1749
vn 0.0889 0.9917 -0.0932
vn -0.2528 0.9671 0.0281
vn -0.2063 0.9185 -0.3375
vn -0.0956 0.9917 0.0862
vn 0.5767 0.8150 0.0558
vn -0.0499 0.9878 0.1473
vn -0.0173 0.9915 0.1290
vn 0.5902 0.7404 -0.3218
vt 0.916667 0.750000
vt 0.833333 0.500000
vt 0.916667 0.500000
vt 0.750000 0.750000
vt 0.666667 0.500000
vt 0.750000 0.500000
vt 0.583333 0.750000
vt 0.500000 0.500000
vt 0.583333 0.500000
vt 0.416667 0.750000
vt 0.333333 0.500000
vt 0.416667 0.500000
vt 0.250000 0.490000
vt 0.198038 0.400000
vt 0.301962 0.400000
vt 0.250000 0.750000
vt 0.166667 0.500000
vt 0.250000 0.500000
vt 0.083333 0.750000
vt -0.000000 0.500000
vt 0.083333 0.500000
vt 0.957846 0.370000
vt 0.905885 0.280000
vt 0.853923 0.370000
vt 0.833333 1.000000
vt 0.916667 1.000000
vt 0.666667 1.000000
vt 0.750000 1.000000
vt 0.500000 1.000000
vt 0.583333 1.000000
vt 0.333333 1.000000
vt 0.416667 1.000000
vt 0.457846 0.250000
vt 0.405885 0.220000
vt 0.457846 0.130000
vt 0.146077 0.430000
vt 0.146077 0.070000
vt 0.146077 0.130000
vt 0.042154 0.130000
vt 0.166667 1.000000
vt 0.250000 1.000000
vt -0.000000 1.000000
vt 0.083333 1.000000
vt 0.646077 0.430000
vt 0.646077 0.370000
vt 0.542154 0.370000
vt 0.957846 0.250000
vt 0.646077 0.070000
vt 0.698038 0.100000
vt 0.750000 0.010000
vt 0.542154 0.250000
vt 0.594115 0.280000
vt 0.646077 0.190000
vt 0.594115 0.160000
vt 0.542154 0.130000
vt 0.853923 0.070000
vt 0.801962 0.100000
vt 0.853923 0.190000
vt 0.905885 0.160000
vt 0.957846 0.130000
vt 0.853923 0.430000
vt 0.750000 0.370000
vt 0.750000 0.430000
vt 0.750000 0.490000
vt 0.353923 0.070000
vt 0.353923 0.130000
vt 0.250000 0.130000
vt 0.250000 0.070000
vt 0.250000 0.010000
vt 0.042154 0.250000
vt 0.094115 0.220000
vt 0.146077 0.310000
vt 0.094115 0.340000
vt 0.042154 0.370000
vt 0.353923 0.430000
vt 0.353923 0.310000
vt 0.405885 0.340000
vt 0.457846 0.370000
vt 1.000000 1.000000
vt 0.698038 0.280000
vt 0.801962 0.280000
vt 0.750000 0.190000
vt 0.301962 0.220000
vt 0.250000 0.310000
vt 0.198038 0.220000
vt 1.000000 0.500000
s 0
f 24/1/1 3/2/1 12/3/1
f 25/4/2 5/5/2 14/6/2
f 26/7/3 7/8/3 16/9/3
f 27/10/4 8/11/4 18/12/4
f 2/13/5 37/14/5 42/15/5
f 31/16/6 10/17/6 20/18/6
f 32/19/7 1/20/7 22/21/7
f 3/22/8 40/23/8 45/24/8
f 4/25/9 24/1/9 13/26/9
f 6/27/10 25/4/10 15/28/10
f 7/29/11 26/7/11 17/30/11
f 9/31/12 27/10/12 19/32/12
f 15/33/13 36/34/13 6/35/13
f 23/36/14 37/14/14 2/13/14
f 19/37/15 38/38/15 9/39/15
f 11/40/16 31/16/16 21/41/16
f 2/42/17 32/19/17 23/43/17
f 22/44/18 39/45/18 10/46/18
f 14/47/19 40/23/19 3/22/19
f 18/48/20 41/49/20 7/50/20
f 20/51/21 47/52/21 35/53/21
f 35/53/22 48/54/22 20/51/22
f 8/55/23 48/54/23 18/48/23
f 16/56/24 46/57/24 34/58/24
f 34/58/25 49/59/25 16/56/25
f 5/60/26 49/59/26 14/47/26
f 12/61/27 45/24/27 33/62/27
f 33/62/28 50/63/28 12/61/28
f 1/64/29 50/63/29 22/44/29
f 11/40/30 23/43/30 32/19/30
f 9/31/31 21/41/31 31/16/31
f 17/65/32 44/66/32 30/67/32
f 30/67/33 51/68/33 17/65/33
f 7/69/34 51/68/34 19/37/34
f 21/70/35 43/71/35 29/72/35
f 29/72/36 52/73/36 21/70/36
f 11/74/37 52/73/37 23/36/37
f 13/75/38 42/15/38 28/76/38
f 28/76/39 53/77/39 13/75/39
f 4/78/40 53/77/40 15/33/40
f 7/29/41 19/32/41 27/10/41
f 6/27/42 17/30/42 26/7/42
f 4/25/43 15/28/43 25/4/43
f 2/79/44 13/26/44 24/1/44
f 33/62/45 54/80/45 39/45/45
f 33/62/46 55/81/46 54/80/46
f 34/58/47 46/57/47 56/82/47
f 32/19/48 10/17/48 11/40/48
f 31/16/49 8/11/49 9/31/49
f 28/76/50 57/83/50 36/34/50
f 28/76/51 58/84/51 57/83/51
f 29/72/52 43/71/52 59/85/52
f 26/7/53 5/5/53 6/27/53
f 25/4/54 3/2/54 4/25/54
f 24/1/55 1/86/55 2/79/55
f 4/25/56 3/2/56 24/1/56
f 6/27/57 5/5/57 25/4/57
f 9/31/58 8/11/58 27/10/58
f 11/40/59 10/17/59 31/16/59
f 2/42/60 1/20/60 32/19/60
f 32/19/61 22/21/61 10/17/61
f 31/16/62 20/18/62 8/11/62
f 27/10/63 18/12/63 7/8/63
f 26/7/64 16/9/64 5/5/64
f 25/4/65 14/6/65 3/2/65
f 24/1/66 12/3/66 1/86/66
f 59/85/67 38/38/67 30/67/67
f 59/85/68 43/71/68 38/38/68
f 43/71/69 9/39/69 38/38/69
f 57/83/70 59/85/70 30/67/70
f 57/83/71 58/84/71 59/85/71
f 58/84/72 29/72/72 59/85/72
f 36/34/73 44/66/73 6/35/73
f 36/34/74 57/83/74 44/66/74
f 57/83/75 30/67/75 44/66/75
f 56/82/76 41/49/76 35/53/76
f 56/82/77 46/57/77 41/49/77
f 46/57/78 7/50/78 41/49/78
f 54/80/79 56/82/79 35/53/79
f 54/80/80 55/81/80 56/82/80
f 55/81/81 34/58/81 56/82/81
f 39/45/82 47/52/82 10/46/82
f 39/45/83 54/80/83 47/52/83
f 54/80/84 35/53/84 47/52/84
f 45/24/85 55/81/85 33/62/85
f 45/24/86 40/23/86 55/81/86
f 40/23/87 34/58/87 55/81/87
f 42/15/88 58/84/88 28/76/88
f 42/15/89 37/14/89 58/84/89
f 37/14/90 29/72/90 58/84/90
f 15/33/91 28/76/91 36/34/91
f 23/36/92 29/72/92 37/14/92
f 19/37/93 30/67/93 38/38/93
f 22/44/94 33/62/94 39/45/94
f 14/47/95 34/58/95 40/23/95
f 18/48/96 35/53/96 41/49/96
f 20/51/97 10/46/97 47/52/97
f 35/53/98 18/48/98 48/54/98
f 8/55/99 20/51/99 48/54/99
f 16/56/100 7/50/100 46/57/100
f 34/58/101 14/47/101 49/59/101
f 5/60/102 16/56/102 49/59/102
f 12/61/103 3/22/103 45/24/103
f 33/62/104 22/44/104 50/63/104
f 1/64/105 12/61/105 50/63/105
f 17/65/106 6/35/106 44/66/106
f 30/67/107 19/37/107 51/68/107
f 7/69/108 17/65/108 51/68/108
f 21/70/109 9/39/109 43/71/109
f 29/72/110 23/36/110 52/73/110
f 11/74/111 21/70/111 52/73/111
f 13/75/112 2/13/112 42/15/112
f 28/76/113 15/33/113 53/77/113
f 4/78/114 13/75/114 53/77/114
