# Blender 4.3.0
# www.blender.org
o Cylinder
v 0.000000 -2.836755 -25.437454
v 0.000000 3.477929 -26.270348
v 19.814426 -0.867788 -11.439864
v 24.908705 5.396080 -14.381048
v 20.869806 -1.805926 12.049189
v 24.695335 5.206444 14.257859
v 0.000000 -0.328161 22.178743
v -19.993246 -1.026756 11.543106
v -22.371771 3.141019 12.916348
v -21.279900 -2.170452 -12.285955
v -21.205334 2.104174 -12.242905
v 11.242297 -3.333950 -19.472229
v 11.079082 3.007523 -19.189533
v 23.333080 -4.182427 0.000000
v 21.533726 2.383093 0.000000
v 9.579334 -0.008060 16.591892
v 12.057141 4.963622 20.883581
v -11.941684 -4.732709 20.683603
v -9.805536 0.460460 16.983688
v -18.811659 0.338945 0.000000
v -23.329880 4.179226 0.000000
v -10.891428 -2.632219 -18.864506
v -9.612188 0.073767 -16.648798
v 11.280173 0.000000 -19.537832
v 26.463509 0.000000 0.000000
v 10.825317 0.402531 -6.250000
v -10.825317 6.116533 -6.250000
v 0.000000 -1.312449 12.500000
v -16.938232 0.000000 0.000000
v -10.177324 0.000000 -17.627644
v 0.000000 -0.880745 -12.500000
v 10.825317 -4.155520 6.250000
v -10.825317 -4.851052 6.250000
v 16.237976 4.982732 3.125000
v -5.412659 -1.643626 -15.625000
v -10.825317 0.169570 12.500000
v -10.825317 0.945616 -12.500000
v 16.237976 -1.738566 -3.125000
v -5.412659 -3.113693 15.625000
v 5.412659 6.425611 -15.625000
v -16.237976 3.234499 3.125000
v 10.825317 1.581125 12.500000
v 10.825317 -1.660977 -12.500000
v 5.412659 1.877831 15.625000
v -16.237976 -5.249578 -3.125000
v -16.237976 -3.232649 9.375000
v 16.237976 -2.547690 9.375000
v 0.000000 -2.180557 -18.750000
v 0.000000 -1.145704 18.750000
v -16.237976 5.226233 -9.375000
v 16.237976 6.357289 -9.375000
v -5.412659 -3.773585 -3.125000
v 5.412659 0.190992 -3.125000
v 0.000000 -4.152843 6.250000
v 5.412659 -0.164113 3.125000
v 0.000000 1.531767 -6.250000
v -5.412659 3.512900 3.125000
vn 0.6870 -0.0221 -0.7263
vn 0.7706 -0.5767 0.2713
vn -0.4342 0.6343 0.6396
vn -0.5956 0.7991 0.0816
vn 0.1732 0.9576 -0.2304
vn -0.4476 0.4769 -0.7565
vn 0.0951 -0.9935 -0.0631
vn 0.3056 0.1297 -0.9433
vn 0.4197 0.8681 -0.2650
vn 0.3744 -0.7058 0.6015
vn 0.3041 0.9194 -0.2495
vn 0.2160 0.8324 0.5103
vn 0.2435 0.9627 -0.1178
vn -0.5467 -0.8360 0.0468
vn -0.2619 0.9619 0.0787
vn 0.2608 -0.8427 0.4710
vn -0.2383 -0.9500 -0.2020
vn 0.3294 -0.9358 0.1257
vn -0.7040 -0.5649 0.4305
vn -0.3979 -0.8883 -0.2292
vn -0.4772 -0.8764 0.0651
vn -0.4494 -0.8465 0.2854
vn 0.0566 -0.9243 0.3775
vn 0.0405 -0.9787 0.2013
vn -0.0700 -0.9710 0.2288
vn -0.0870 -0.9753 0.2028
vn 0.0402 -0.9944 0.0976
vn 0.1181 0.9828 -0.1422
vn -0.5471 -0.8367 -0.0267
vn -0.2436 0.9113 -0.3319
vn -0.4485 0.8935 -0.0238
vn 0.1972 0.9536 -0.2274
vn -0.0017 0.9561 0.2929
vn -0.1574 0.9875 -0.0088
vn -0.1095 0.7613 -0.6391
vn 0.5856 0.7924 0.1710
vn -0.6996 0.7030 0.1278
vn 0.2505 0.9341 0.2545
vn 0.3395 -0.7059 0.6217
vn 0.4179 0.8645 0.2792
vn 0.5378 0.1324 -0.8326
vn -0.1544 -0.9154 -0.3716
vn 0.3425 -0.9351 -0.0908
vn -0.0002 -0.8410 0.5411
vn -0.4361 0.0167 -0.8997
vn -0.8722 -0.4097 -0.2673
vn -0.4216 0.8867 -0.1898
vn 0.1030 0.9875 0.1192
vn -0.0247 0.9595 0.2807
vn 0.2792 -0.4237 0.8617
vn 0.6521 -0.6839 -0.3271
vn 0.4829 -0.1145 -0.8682
vn 0.4800 -0.6611 -0.5767
vn 0.7981 -0.5272 0.2915
vn -0.3610 -0.4712 0.8048
vn -0.9435 0.0131 0.3311
vn -0.6234 -0.1022 -0.7752
vn -0.4550 0.4768 -0.7520
vn 0.1764 0.9752 0.1334
vn -0.3218 0.6336 0.7036
vn 0.7382 -0.5525 -0.3871
vn 0.4678 -0.0227 -0.8835
vn 0.1245 0.9096 0.3963
vn -0.0243 0.9460 0.3233
vn 0.2514 0.9534 0.1666
vn 0.3079 0.9065 0.2888
vn 0.3216 0.9468 -0.0144
vn 0.3898 0.9204 0.0306
vn -0.2705 0.9445 0.1865
vn -0.4280 0.9003 0.0795
vn -0.2581 0.9656 -0.0307
vn 0.0637 -0.9872 0.1462
vn 0.3961 -0.8591 0.3239
vn 0.4184 -0.9074 0.0401
vn 0.0642 -0.9949 -0.0773
vn 0.3347 -0.9138 -0.2302
vn -0.0002 -0.9073 -0.4205
vn 0.2499 -0.8679 -0.4293
vn 0.1170 -0.8583 -0.4996
vn 0.1350 -0.9902 -0.0359
vn -0.0710 -0.9856 0.1537
vn -0.1747 -0.9802 0.0928
vn -0.1654 -0.9277 -0.3346
vn 0.0898 0.8607 0.5011
vn -0.5960 0.7996 0.0733
vn 0.3436 0.8112 -0.4731
vn 0.1298 0.8593 -0.4948
vn 0.4293 0.8018 -0.4158
vn 0.1350 0.9863 -0.0947
vn -0.1454 -0.8618 0.4860
vn -0.1704 -0.9259 -0.3371
vn 0.2610 -0.9649 0.0281
vn -0.8087 -0.5230 0.2693
vn -0.2943 -0.9556 -0.0149
vn -0.5650 -0.8107 -0.1537
vn -0.2606 -0.8293 -0.4944
vn 0.1305 -0.9553 0.2654
vn -0.0267 -0.9504 0.3098
vn 0.0577 -0.9700 0.2362
vn 0.0384 -0.9783 0.2035
vn -0.0954 -0.9907 0.0972
vn -0.1969 0.9189 -0.3418
vn 0.1662 0.9857 -0.0263
vn -0.4118 0.8864 -0.2114
vn 0.1003 0.9923 0.0723
vn 0.1383 0.8632 -0.4855
vn -0.4236 0.8782 -0.2223
vn 0.2850 0.8767 -0.3876
vn -0.4519 0.7006 0.5523
vn -0.0631 0.9542 -0.2925
vt 0.916667 0.750000
vt 0.833333 0.500000
vt 0.916667 0.500000
vt 0.750000 0.750000
vt 0.666667 0.500000
vt 0.750000 0.500000
vt 0.416667 0.750000
vt 0.333333 0.500000
vt 0.416667 0.500000
vt 0.250000 0.490000
vt 0.198038 0.400000
vt 0.301962 0.400000
vt 0.250000 0.750000
vt 0.166667 0.500000
vt 0.250000 0.500000
vt 0.083333 0.750000
vt -0.000000 0.500000
vt 0.083333 0.500000
vt 0.957846 0.370000
vt 0.905885 0.280000
vt 0.853923 0.370000
vt 0.833333 1.000000
vt 0.916667 1.000000
vt 0.666667 1.000000
vt 0.750000 1.000000
vt 0.500000 1.000000
vt 0.583333 0.750000
vt 0.583333 1.000000
vt 0.457846 0.250000
vt 0.405885 0.220000
vt 0.457846 0.130000
vt 0.146077 0.430000
vt 0.146077 0.070000
vt 0.146077 0.130000
vt 0.042154 0.130000
vt 0.166667 1.000000
vt 0.250000 1.000000
vt -0.000000 1.000000
vt 0.083333 1.000000
vt 0.646077 0.430000
vt 0.646077 0.370000
vt 0.542154 0.370000
vt 0.957846 0.250000
vt 0.646077 0.070000
vt 0.698038 0.100000
vt 0.750000 0.010000
vt 0.542154 0.250000
vt 0.594115 0.280000
vt 0.646077 0.190000
vt 0.594115 0.160000
vt 0.542154 0.130000
vt 0.853923 0.070000
vt 0.801962 0.100000
vt 0.853923 0.190000
vt 0.905885 0.160000
vt 0.957846 0.130000
vt 0.853923 0.430000
vt 0.750000 0.370000
vt 0.750000 0.430000
vt 0.750000 0.490000
vt 0.333333 1.000000
vt 0.353923 0.070000
vt 0.353923 0.130000
vt 0.250000 0.130000
vt 0.250000 0.070000
vt 0.250000 0.010000
vt 0.042154 0.250000
vt 0.094115 0.220000
vt 0.146077 0.310000
vt 0.094115 0.340000
vt 0.042154 0.370000
vt 0.353923 0.430000
vt 0.353923 0.310000
vt 0.405885 0.340000
vt 0.457846 0.370000
vt 1.000000 1.000000
vt 0.698038 0.280000
vt 0.801962 0.280000
vt 0.750000 0.190000
vt 0.301962 0.220000
vt 0.250000 0.310000
vt 0.198038 0.220000
vt 1.000000 0.500000
vt 0.500000 0.500000
s 0
f 24/1/1 3/2/1 12/3/1
f 25/4/2 5/5/2 14/6/2
f 19/7/3 8/8/3 18/9/3
f 2/10/4 35/11/4 40/12/4
f 29/13/5 10/14/5 20/15/5
f 30/16/6 1/17/6 22/18/6
f 3/19/7 38/20/7 43/21/7
f 4/22/8 24/1/8 13/23/8
f 6/24/9 25/4/9 15/25/9
f 7/26/10 16/27/10 17/28/10
f 15/29/11 34/30/11 6/31/11
f 23/32/12 35/11/12 2/10/12
f 19/33/13 36/34/13 9/35/13
f 11/36/14 29/13/14 21/37/14
f 2/38/15 30/16/15 23/39/15
f 22/40/16 37/41/16 10/42/16
f 14/43/17 38/20/17 3/19/17
f 18/44/18 39/45/18 7/46/18
f 20/47/19 45/48/19 33/49/19
f 33/49/20 46/50/20 20/47/20
f 8/51/21 46/50/21 18/44/21
f 16/52/22 44/53/22 32/54/22
f 32/54/23 47/55/23 16/52/23
f 5/56/24 47/55/24 14/43/24
f 12/57/25 43/21/25 31/58/25
f 31/58/26 48/59/26 12/57/26
f 1/60/27 48/59/27 22/40/27
f 11/36/28 23/39/28 30/16/28
f 9/61/29 21/37/29 29/13/29
f 17/62/30 42/63/30 28/64/30
f 28/64/31 49/65/31 17/62/31
f 7/66/32 49/65/32 19/33/32
f 21/67/33 41/68/33 27/69/33
f 27/69/34 50/70/34 21/67/34
f 11/71/35 50/70/35 23/32/35
f 13/72/36 40/12/36 26/73/36
f 26/73/37 51/74/37 13/72/37
f 4/75/38 51/74/38 15/29/38
f 6/24/39 17/28/39 16/27/39
f 4/22/40 15/25/40 25/4/40
f 2/76/41 13/23/41 24/1/41
f 31/58/42 52/77/42 37/41/42
f 31/58/43 53/78/43 52/77/43
f 32/54/44 44/53/44 54/79/44
f 30/16/45 10/14/45 11/36/45
f 29/13/46 8/8/46 9/61/46
f 26/73/47 55/80/47 34/30/47
f 26/73/48 56/81/48 55/80/48
f 27/69/49 41/68/49 57/82/49
f 16/27/50 5/5/50 6/24/50
f 25/4/51 3/2/51 4/22/51
f 24/1/52 1/83/52 2/76/52
f 4/22/53 3/2/53 24/1/53
f 6/24/54 5/5/54 25/4/54
f 9/61/55 8/8/55 19/7/55
f 11/36/56 10/14/56 29/13/56
f 2/38/57 1/17/57 30/16/57
f 30/16/58 22/18/58 10/14/58
f 29/13/59 20/15/59 8/8/59
f 19/7/60 18/9/60 7/84/60
f 25/4/61 14/6/61 3/2/61
f 24/1/62 12/3/62 1/83/62
f 57/82/63 36/34/63 28/64/63
f 57/82/64 41/68/64 36/34/64
f 41/68/65 9/35/65 36/34/65
f 55/80/66 57/82/66 28/64/66
f 55/80/67 56/81/67 57/82/67
f 56/81/68 27/69/68 57/82/68
f 34/30/69 42/63/69 6/31/69
f 34/30/70 55/80/70 42/63/70
f 55/80/71 28/64/71 42/63/71
f 54/79/72 39/45/72 33/49/72
f 54/79/73 44/53/73 39/45/73
f 44/53/74 7/46/74 39/45/74
f 52/77/75 54/79/75 33/49/75
f 52/77/76 53/78/76 54/79/76
f 53/78/77 32/54/77 54/79/77
f 37/41/78 45/48/78 10/42/78
f 37/41/79 52/77/79 45/48/79
f 52/77/80 33/49/80 45/48/80
f 43/21/81 53/78/81 31/58/81
f 43/21/82 38/20/82 53/78/82
f 38/20/83 32/54/83 53/78/83
f 40/12/84 56/81/84 26/73/84
f 40/12/85 35/11/85 56/81/85
f 35/11/86 27/69/86 56/81/86
f 15/29/87 26/73/87 34/30/87
f 23/32/88 27/69/88 35/11/88
f 19/33/89 28/64/89 36/34/89
f 22/40/90 31/58/90 37/41/90
f 14/43/91 32/54/91 38/20/91
f 18/44/92 33/49/92 39/45/92
f 20/47/93 10/42/93 45/48/93
f 33/49/94 18/44/94 46/50/94
f 8/51/95 20/47/95 46/50/95
f 16/52/96 7/46/96 44/53/96
f 32/54/97 14/43/97 47/55/97
f 5/56/98 16/52/98 47/55/98
f 12/57/99 3/19/99 43/21/99
f 31/58/100 22/40/100 48/59/100
f 1/60/101 12/57/101 48/59/101
f 17/62/102 6/31/102 42/63/102
f 28/64/103 19/33/103 49/65/103
f 7/66/104 17/62/104 49/65/104
f 21/67/105 9/35/105 41/68/105
f 27/69/106 23/32/106 50/70/106
f 11/71/107 21/67/107 50/70/107
f 13/72/108 2/10/108 40/12/108
f 26/73/109 15/29/109 51/74/109
f 4/75/110 13/72/110 51/74/110
