# Blender 4.3.0
# www.blender.org
o Cylinder
v 0.000000 -0.533168 -22.445026
v 0.000000 2.400904 -24.871273
v 23.145130 -3.828461 -13.362847
v 20.604197 1.569827 -11.895839
v 19.643673 -0.716022 11.341279
v 21.938683 2.756046 12.666305
v 0.000000 -4.073985 27.044634
v 0.000000 4.155407 27.150423
v -19.709871 -0.774866 11.379499
v -23.743971 4.360772 13.708588
v -18.787415 0.045125 -10.846919
v 11.772274 4.393894 -20.390179
v 22.401375 -3.250732 0.000000
v 21.429552 2.278919 0.000000
v 11.833750 -4.516843 20.496656
v 10.948400 2.746163 18.963186
v -11.631941 -4.113229 20.147112
v -9.646744 0.142877 16.708649
v -20.299637 -1.149017 0.000000
v -21.707783 2.557148 0.000000
v -10.528040 -1.905452 -18.235102
v -12.527291 5.903911 -21.697905
v 9.453971 0.000000 -16.374758
v 25.774933 0.000000 0.000000
v 11.868765 0.000000 20.557304
v -10.271585 0.000000 17.790907
v 10.825317 7.351308 -6.250000
v -10.825317 6.914925 -6.250000
v 0.000000 2.046217 12.500000
v -21.633606 0.000000 0.000000
v -11.188312 0.000000 -19.378725
v 0.000000 -2.133686 -12.500000
v 10.825317 -2.597911 6.250000
v -10.825317 -2.665695 6.250000
v 16.237976 4.133667 3.125000
v -5.412659 3.916779 -15.625000
v -10.825317 -0.776048 12.500000
v -10.825317 -0.352270 -12.500000
v 16.237976 1.748340 -3.125000
v -5.412659 -2.852827 15.625000
v 5.412659 0.208795 -15.625000
v -16.237976 6.796412 3.125000
v 10.825317 4.063961 12.500000
v 10.825317 -7.415622 -12.500000
v 5.412659 -7.099631 15.625000
v -16.237976 -2.053397 -3.125000
v -16.237976 -2.178414 9.375000
v 16.237976 -5.923932 9.375000
v 0.000000 -2.438768 -18.750000
v 0.000000 6.610590 18.750000
v -16.237976 4.143758 -9.375000
v 16.237976 6.060726 -9.375000
v -5.412659 0.164839 -3.125000
v 5.412659 -0.979023 -3.125000
v 0.000000 1.200289 6.250000
v 5.412659 -1.042175 3.125000
v 0.000000 6.451898 -6.250000
v -5.412659 2.831971 3.125000
vn 0.6590 -0.6839 0.3131
vn 0.4837 -0.0155 0.8751
vn -0.5000 0.5490 0.6697
vn 0.3239 0.9455 0.0346
vn -0.6429 -0.7464 -0.1718
vn -0.2437 -0.5598 -0.7920
vn 0.2632 -0.7615 0.5924
vn 0.3419 -0.7258 -0.5968
vn 0.4638 0.8844 -0.0520
vn 0.5444 0.5501 0.6333
vn 0.2269 0.9399 0.2551
vn 0.3102 0.9495 -0.0482
vn 0.2692 0.9631 -0.0003
vn 0.3303 0.8986 -0.2887
vn -0.9668 -0.0280 -0.2538
vn -0.3299 -0.4090 -0.8508
vn 0.0062 -0.9651 0.2617
vn -0.6295 -0.7770 -0.0014
vn 0.0915 -0.9847 -0.1486
vn -0.1855 -0.9817 0.0430
vn -0.1216 -0.9910 -0.0561
vn -0.3773 -0.9261 -0.0050
vn 0.4650 -0.8724 -0.1504
vn -0.4867 -0.8697 -0.0827
vn 0.7364 -0.5998 0.3131
vn -0.2361 -0.4840 -0.8426
vn 0.2383 -0.9700 0.0474
vn -0.0673 -0.8868 -0.4573
vn -0.6870 -0.3953 -0.6098
vn -0.9893 -0.0287 -0.1432
vn -0.1795 0.9632 0.1998
vn 0.2843 0.7742 -0.5654
vn -0.5751 0.7853 0.2295
vn -0.4880 0.8296 -0.2713
vn -0.4133 0.9063 -0.0878
vn -0.8103 0.5628 -0.1636
vn -0.6382 0.7439 -0.1983
vn 0.1192 0.9734 -0.1956
vn 0.6881 0.7199 -0.0907
vn -0.3246 0.9438 -0.0628
vn 0.4126 0.5568 0.7210
vn 0.4628 0.8824 -0.0847
vn 0.3486 -0.7258 -0.5930
vn -0.1606 -0.9761 0.1466
vn -0.1034 -0.9782 0.1802
vn -0.2783 -0.7932 -0.5416
vn -0.7643 -0.6392 0.0857
vn -0.3766 0.7876 0.4877
vn -0.0633 0.7614 0.6452
vn 0.3365 0.9189 0.2059
vn -0.6714 -0.0095 0.7410
vn 0.5896 -0.5972 0.5438
vn 0.8297 0.4717 -0.2984
vn 0.4688 -0.5629 -0.6807
vn 0.2986 0.3786 -0.8761
vn 0.7153 -0.6058 0.3484
vn 0.4826 -0.0113 0.8758
vn -0.4045 -0.6218 0.6706
vn -0.2348 -0.6194 -0.7491
vn -0.6254 -0.5493 -0.5542
vn -0.6515 -0.7564 0.0586
vn -0.4268 0.5517 0.7166
vn 0.7637 -0.0146 0.6454
vn 0.6922 -0.7183 0.0696
vn -0.2460 0.9437 0.2211
vn 0.3001 0.8193 0.4886
vn 0.3663 0.8158 0.4475
vn 0.3347 0.9353 -0.1149
vn 0.2942 0.8222 0.4873
vn 0.0395 0.9243 0.3797
vn 0.1155 0.9905 0.0740
vn -0.4192 0.8768 -0.2355
vn -0.1684 0.9032 -0.3948
vn 0.3289 -0.9211 -0.2083
vn -0.3113 -0.7936 -0.5228
vn -0.3642 -0.9284 0.0734
vn 0.3350 -0.9379 -0.0898
vn -0.1036 -0.9803 0.1681
vn -0.3309 -0.9432 0.0282
vn -0.0963 -0.9681 -0.2313
vn 0.2004 -0.9778 -0.0617
vn 0.1976 -0.9642 -0.1770
vn -0.4121 -0.8446 0.3419
vn 0.1901 -0.7547 0.6279
vn 0.2335 -0.9266 -0.2948
vn -0.0675 0.8120 -0.5797
vn 0.2963 0.8650 -0.4050
vn 0.0410 0.9583 -0.2828
vn 0.3843 0.9185 0.0933
vn 0.3453 0.9333 -0.0991
vn -0.2498 0.9582 -0.1393
vn -0.1572 -0.9553 0.2506
vn -0.3399 -0.7629 -0.5499
vn 0.1308 -0.9868 -0.0952
vn -0.3220 -0.9351 -0.1478
vn -0.1526 -0.9820 -0.1111
vn -0.3500 -0.9355 0.0489
vn 0.1390 -0.9390 0.3147
vn -0.2800 -0.8588 -0.4290
vn 0.7134 -0.6020 0.3587
vn 0.0693 -0.4519 -0.8894
vn -0.0482 -0.9977 0.0487
vn 0.3257 -0.8403 -0.4334
vn 0.1117 0.9741 0.1965
vn -0.3846 0.7455 -0.5444
vn 0.3162 0.9106 0.2661
vn -0.5325 0.8254 -0.1877
vn -0.4518 0.8921 -0.0086
vn -0.7417 0.5814 -0.3343
vn -0.2930 0.8775 0.3796
vn 0.3302 0.9246 0.1901
vn 0.5695 0.7467 -0.3438
vt 0.750000 0.750000
vt 0.666667 0.500000
vt 0.750000 0.500000
vt 0.583333 0.750000
vt 0.500000 0.500000
vt 0.583333 0.500000
vt 0.416667 0.750000
vt 0.333333 0.500000
vt 0.416667 0.500000
vt 0.250000 0.490000
vt 0.198038 0.400000
vt 0.301962 0.400000
vt 0.250000 0.750000
vt 0.166667 0.500000
vt 0.250000 0.500000
vt 0.083333 0.750000
vt -0.000000 0.500000
vt 0.083333 0.500000
vt 0.957846 0.370000
vt 0.905885 0.280000
vt 0.853923 0.370000
vt 0.833333 1.000000
vt 0.916667 0.750000
vt 0.916667 1.000000
vt 0.666667 1.000000
vt 0.750000 1.000000
vt 0.500000 1.000000
vt 0.583333 1.000000
vt 0.333333 1.000000
vt 0.416667 1.000000
vt 0.457846 0.250000
vt 0.405885 0.220000
vt 0.457846 0.130000
vt 0.146077 0.430000
vt 0.146077 0.070000
vt 0.146077 0.130000
vt 0.042154 0.130000
vt 0.166667 1.000000
vt 0.250000 1.000000
vt -0.000000 1.000000
vt 0.083333 1.000000
vt 0.646077 0.430000
vt 0.646077 0.370000
vt 0.542154 0.370000
vt 0.957846 0.250000
vt 0.646077 0.070000
vt 0.698038 0.100000
vt 0.750000 0.010000
vt 0.542154 0.250000
vt 0.594115 0.280000
vt 0.646077 0.190000
vt 0.594115 0.160000
vt 0.542154 0.130000
vt 0.853923 0.070000
vt 0.801962 0.100000
vt 0.853923 0.190000
vt 0.905885 0.160000
vt 0.957846 0.130000
vt 0.853923 0.430000
vt 0.750000 0.370000
vt 0.750000 0.430000
vt 0.750000 0.490000
vt 0.353923 0.070000
vt 0.353923 0.130000
vt 0.250000 0.130000
vt 0.250000 0.070000
vt 0.250000 0.010000
vt 0.042154 0.250000
vt 0.094115 0.220000
vt 0.146077 0.310000
vt 0.094115 0.340000
vt 0.042154 0.370000
vt 0.353923 0.430000
vt 0.353923 0.310000
vt 0.405885 0.340000
vt 0.457846 0.370000
vt 1.000000 1.000000
vt 0.698038 0.280000
vt 0.801962 0.280000
vt 0.750000 0.190000
vt 0.301962 0.220000
vt 0.250000 0.310000
vt 0.198038 0.220000
vt 0.833333 0.500000
vt 1.000000 0.500000
s 0
f 24/1/1 5/2/1 13/3/1
f 25/4/2 7/5/2 15/6/2
f 26/7/3 9/8/3 17/9/3
f 2/10/4 36/11/4 41/12/4
f 30/13/5 11/14/5 19/15/5
f 31/16/6 1/17/6 21/18/6
f 3/19/7 39/20/7 44/21/7
f 4/22/8 23/23/8 12/24/8
f 6/25/9 24/1/9 14/26/9
f 8/27/10 25/4/10 16/28/10
f 10/29/11 26/7/11 18/30/11
f 14/31/12 35/32/12 6/33/12
f 22/34/13 36/11/13 2/10/13
f 18/35/14 37/36/14 10/37/14
f 11/38/15 30/13/15 20/39/15
f 2/40/16 31/16/16 22/41/16
f 21/42/17 38/43/17 11/44/17
f 13/45/18 39/20/18 3/19/18
f 17/46/19 40/47/19 7/48/19
f 19/49/20 46/50/20 34/51/20
f 34/51/21 47/52/21 19/49/21
f 9/53/22 47/52/22 17/46/22
f 15/54/23 45/55/23 33/56/23
f 33/56/24 48/57/24 15/54/24
f 5/58/25 48/57/25 13/45/25
f 23/59/26 44/21/26 32/60/26
f 32/60/27 49/61/27 23/59/27
f 1/62/28 49/61/28 21/42/28
f 11/38/29 22/41/29 31/16/29
f 10/29/30 20/39/30 30/13/30
f 16/63/31 43/64/31 29/65/31
f 29/65/32 50/66/32 16/63/32
f 8/67/33 50/66/33 18/35/33
f 20/68/34 42/69/34 28/70/34
f 28/70/35 51/71/35 20/68/35
f 11/72/36 51/71/36 22/34/36
f 12/73/37 41/12/37 27/74/37
f 27/74/38 52/75/38 12/73/38
f 4/76/39 52/75/39 14/31/39
f 8/27/40 18/30/40 26/7/40
f 6/25/41 16/28/41 25/4/41
f 4/22/42 14/26/42 24/1/42
f 2/77/43 12/24/43 23/23/43
f 32/60/44 53/78/44 38/43/44
f 32/60/45 54/79/45 53/78/45
f 33/56/46 45/55/46 55/80/46
f 30/13/47 9/8/47 10/29/47
f 27/74/48 56/81/48 35/32/48
f 27/74/49 57/82/49 56/81/49
f 28/70/50 42/69/50 58/83/50
f 26/7/51 7/5/51 8/27/51
f 25/4/52 5/2/52 6/25/52
f 24/1/53 3/84/53 4/22/53
f 23/23/54 1/85/54 2/77/54
f 4/22/55 3/84/55 23/23/55
f 6/25/56 5/2/56 24/1/56
f 8/27/57 7/5/57 25/4/57
f 10/29/58 9/8/58 26/7/58
f 2/40/59 1/17/59 31/16/59
f 31/16/60 21/18/60 11/14/60
f 30/13/61 19/15/61 9/8/61
f 26/7/62 17/9/62 7/5/62
f 25/4/63 15/6/63 5/2/63
f 24/1/64 13/3/64 3/84/64
f 58/83/65 37/36/65 29/65/65
f 58/83/66 42/69/66 37/36/66
f 42/69/67 10/37/67 37/36/67
f 56/81/68 58/83/68 29/65/68
f 56/81/69 57/82/69 58/83/69
f 57/82/70 28/70/70 58/83/70
f 35/32/71 43/64/71 6/33/71
f 35/32/72 56/81/72 43/64/72
f 56/81/73 29/65/73 43/64/73
f 55/80/74 40/47/74 34/51/74
f 55/80/75 45/55/75 40/47/75
f 45/55/76 7/48/76 40/47/76
f 53/78/77 55/80/77 34/51/77
f 53/78/78 54/79/78 55/80/78
f 54/79/79 33/56/79 55/80/79
f 38/43/80 46/50/80 11/44/80
f 38/43/81 53/78/81 46/50/81
f 53/78/82 34/51/82 46/50/82
f 44/21/83 54/79/83 32/60/83
f 44/21/84 39/20/84 54/79/84
f 39/20/85 33/56/85 54/79/85
f 41/12/86 57/82/86 27/74/86
f 41/12/87 36/11/87 57/82/87
f 36/11/88 28/70/88 57/82/88
f 14/31/89 27/74/89 35/32/89
f 22/34/90 28/70/90 36/11/90
f 18/35/91 29/65/91 37/36/91
f 21/42/92 32/60/92 38/43/92
f 13/45/93 33/56/93 39/20/93
f 17/46/94 34/51/94 40/47/94
f 19/49/95 11/44/95 46/50/95
f 34/51/96 17/46/96 47/52/96
f 9/53/97 19/49/97 47/52/97
f 15/54/98 7/48/98 45/55/98
f 33/56/99 13/45/99 48/57/99
f 5/58/100 15/54/100 48/57/100
f 23/59/101 3/19/101 44/21/101
f 32/60/102 21/42/102 49/61/102
f 1/62/103 23/59/103 49/61/103
f 16/63/104 6/33/104 43/64/104
f 29/65/105 18/35/105 50/66/105
f 8/67/106 16/63/106 50/66/106
f 20/68/107 10/37/107 42/69/107
f 28/70/108 22/34/108 51/71/108
f 11/72/109 20/68/109 51/71/109
f 12/73/110 2/10/110 41/12/110
f 27/74/111 14/31/111 52/75/111
f 4/76/112 12/73/112 52/75/112
