# Blender 4.3.0
# www.blender.org
o Cylinder
v 0.000000 0.359842 -21.284979
v 0.000000 5.007583 -28.257395
v 18.244585 0.527647 -10.533516
v 22.194221 2.983191 -12.813840
v 20.897110 -1.830196 12.064953
v 24.115582 4.691099 13.923138
v 0.000000 -5.131176 28.417944
v 0.000000 3.522663 26.328470
v -18.359285 0.425663 10.599738
v -21.422567 2.297270 12.368325
v -23.431080 -4.082644 -13.527941
v -24.986797 5.465496 -14.426134
v 10.568527 -1.986426 -18.305227
v 11.528718 3.906787 -19.968327
v 20.213747 -1.063128 0.000000
v 23.378784 4.228131 0.000000
v 11.724535 -4.298416 20.307491
v 10.883107 2.615579 18.850096
v -10.188710 -1.226799 17.647364
v -12.209690 5.268716 21.147804
v -18.784019 0.366585 0.000000
v -23.059393 3.908744 0.000000
v -11.793659 -4.436664 -20.427217
v -12.333013 5.515358 -21.361404
v 13.028905 0.000000 -22.566727
v 21.714342 0.000000 0.000000
v 12.680347 0.000000 21.963007
v -8.347059 0.000000 14.457531
v 10.825317 3.990447 -6.250000
v -10.825317 2.202861 -6.250000
v 0.000000 4.800407 12.500000
v -24.866199 0.000000 0.000000
v -10.951814 0.000000 -18.969099
v 0.000000 -5.995692 -12.500000
v 10.825317 -1.897154 6.250000
v -10.825317 -5.252814 6.250000
v 16.237976 1.290106 3.125000
v -5.412659 2.324864 -15.625000
v -10.825317 2.207772 12.500000
v -10.825317 -1.712234 -12.500000
v 16.237976 -5.518569 -3.125000
v -5.412659 1.299996 15.625000
v 5.412659 4.138375 -15.625000
v -16.237976 4.149362 3.125000
v 10.825317 4.465091 12.500000
v 10.825317 -6.277597 -12.500000
v 5.412659 -0.029021 15.625000
v -16.237976 -5.909643 -3.125000
v -16.237976 0.509964 9.375000
v 16.237976 -7.119223 9.375000
v 0.000000 2.424788 -18.750000
v 0.000000 0.854020 18.750000
v -16.237976 5.698149 -9.375000
v 16.237976 4.920105 -9.375000
v -5.412659 1.580050 -3.125000
v 5.412659 -1.742115 -3.125000
v 0.000000 -1.378763 6.250000
v 5.412659 5.349663 3.125000
v 0.000000 -1.472401 -6.250000
v -5.412659 0.572755 3.125000
vn 0.4451 -0.8821 -0.1542
vn 0.5760 -0.8131 -0.0843
vn 0.5396 -0.4044 0.7385
vn -0.0817 0.9451 0.3163
vn -0.1637 0.9769 0.1373
vn 0.0575 -0.9541 0.2940
vn -0.2052 0.3405 -0.9176
vn 0.6828 -0.6456 -0.3420
vn 0.4786 0.6062 -0.6352
vn 0.9299 -0.3660 -0.0370
vn 0.3805 0.8044 0.4562
vn -0.2276 -0.8246 0.5179
vn -0.3843 0.9231 -0.0104
vn 0.1973 0.9383 0.2838
vn 0.0121 0.9432 -0.3319
vn -0.8954 0.4139 0.1643
vn -0.4503 -0.4478 -0.7724
vn 0.1520 -0.9403 0.3046
vn 0.8011 -0.5514 -0.2330
vn 0.2226 -0.8300 -0.5114
vn -0.7236 -0.5197 0.4542
vn -0.6618 -0.7250 0.1908
vn -0.0564 -0.9846 -0.1655
vn -0.4965 -0.8604 -0.1152
vn -0.6664 -0.7409 -0.0839
vn 0.7685 -0.6343 -0.0839
vn -0.0209 -0.8044 -0.5937
vn -0.2102 -0.5827 -0.7850
vn 0.3398 -0.7292 0.5940
vn -0.4284 -0.4477 -0.7849
vn -0.8942 0.4133 0.1722
vn 0.0297 0.9598 0.2793
vn -0.1404 0.8372 0.5286
vn 0.2659 0.9093 -0.3202
vn 0.0465 0.9831 -0.1772
vn 0.3235 0.8579 0.3992
vn -0.0150 0.9997 -0.0201
vn 0.0348 0.9994 -0.0043
vn -0.1777 0.9840 -0.0151
vn 0.2458 0.9623 -0.1162
vn -0.3164 -0.8255 0.4674
vn 0.1014 0.7897 0.6050
vn 0.9293 -0.3658 -0.0504
vn 0.5024 0.6043 -0.6185
vn -0.3239 -0.8185 0.4744
vn -0.2512 -0.8186 0.5165
vn -0.0471 -0.9845 0.1690
vn -0.3553 -0.1448 -0.9235
vn -0.3832 -0.8831 0.2707
vn 0.3503 0.9342 0.0668
vn -0.4198 0.8319 -0.3630
vn 0.3137 0.9494 -0.0160
vn -0.8289 0.1313 0.5438
vn 0.6275 -0.4836 0.6103
vn 0.4379 -0.8791 -0.1883
vn -0.0773 -0.8296 -0.5530
vn 0.4538 -0.8769 -0.1583
vn 0.8974 -0.4412 -0.0061
vn 0.3713 0.2179 0.9026
vn -0.2265 -0.8387 0.4953
vn -0.9847 -0.1656 -0.0545
vn -0.0896 -0.8287 -0.5524
vn -0.4688 0.3548 -0.8089
vn 0.0602 -0.9982 0.0032
vn -0.0136 0.9359 0.3521
vn 0.6711 -0.3917 0.6295
vn 0.5632 -0.7950 -0.2253
vn -0.0692 -0.8883 -0.4540
vn -0.2228 0.9304 -0.2909
vn 0.3137 0.9494 0.0155
vn 0.0058 0.9799 0.1996
vn -0.3974 0.9005 -0.1767
vn -0.3705 0.8397 -0.3971
vn 0.3214 0.9467 -0.0210
vn 0.0172 0.9500 -0.3118
vn 0.3489 0.9303 -0.1136
vn 0.0309 0.9966 0.0762
vn 0.3057 -0.8542 0.4206
vn -0.1192 -0.9707 0.2086
vn -0.1112 -0.9060 -0.4084
vn 0.3024 -0.8449 -0.4412
vn -0.2908 -0.9477 -0.1312
vn -0.0478 -0.9988 0.0111
vn 0.1999 -0.9321 -0.3019
vn 0.5685 -0.8217 -0.0397
vn 0.5492 -0.7938 -0.2615
vn -0.0236 -0.9052 0.4243
vn -0.3183 -0.9123 0.2576
vn -0.3245 -0.9301 0.1720
vn -0.4345 0.8610 0.2644
vn -0.1481 0.8839 0.4435
vn 0.3154 0.9289 0.1942
vn -0.2056 0.9024 0.3786
vn 0.2867 0.9414 0.1778
vn -0.2176 0.9086 -0.3564
vn -0.3457 -0.8736 0.3425
vn 0.4165 -0.7410 0.5267
vn 0.5343 -0.8060 0.2549
vn -0.7452 -0.5139 0.4250
vn -0.6122 -0.7342 0.2935
vn 0.0419 -0.9991 0.0039
vn -0.2487 -0.8588 -0.4478
vn -0.3409 -0.7171 -0.6078
vn 0.5662 -0.7109 0.4172
vn 0.6624 -0.5881 -0.4640
vn 0.4186 -0.5413 -0.7292
vn -0.3305 -0.7318 0.5961
vn -0.0463 0.9590 0.2797
vn 0.3798 0.7822 0.4939
vn -0.1480 0.9328 -0.3285
vn -0.0996 0.9849 0.1415
vn 0.4776 0.8669 0.1424
vn -0.0952 0.9883 0.1194
vn 0.0663 0.9970 0.0402
vn -0.0885 0.9862 0.1402
vn 0.2065 0.9611 -0.1837
vt 0.916667 0.750000
vt 0.833333 0.500000
vt 0.916667 0.500000
vt 0.750000 0.750000
vt 0.666667 0.500000
vt 0.750000 0.500000
vt 0.583333 0.750000
vt 0.500000 0.500000
vt 0.583333 0.500000
vt 0.416667 0.750000
vt 0.333333 0.500000
vt 0.416667 0.500000
vt 0.250000 0.490000
vt 0.198038 0.400000
vt 0.301962 0.400000
vt 0.250000 0.750000
vt 0.166667 0.500000
vt 0.250000 0.500000
vt 0.083333 0.750000
vt -0.000000 0.500000
vt 0.083333 0.500000
vt 0.957846 0.370000
vt 0.905885 0.280000
vt 0.853923 0.370000
vt 0.833333 1.000000
vt 0.916667 1.000000
vt 0.666667 1.000000
vt 0.750000 1.000000
vt 0.500000 1.000000
vt 0.583333 1.000000
vt 0.333333 1.000000
vt 0.416667 1.000000
vt 0.457846 0.250000
vt 0.405885 0.220000
vt 0.457846 0.130000
vt 0.146077 0.430000
vt 0.146077 0.070000
vt 0.146077 0.130000
vt 0.042154 0.130000
vt 0.166667 1.000000
vt 0.250000 1.000000
vt -0.000000 1.000000
vt 0.083333 1.000000
vt 0.646077 0.430000
vt 0.646077 0.370000
vt 0.542154 0.370000
vt 0.957846 0.250000
vt 0.646077 0.070000
vt 0.698038 0.100000
vt 0.750000 0.010000
vt 0.542154 0.250000
vt 0.594115 0.280000
vt 0.646077 0.190000
vt 0.594115 0.160000
vt 0.542154 0.130000
vt 0.853923 0.070000
vt 0.801962 0.100000
vt 0.853923 0.190000
vt 0.905885 0.160000
vt 0.957846 0.130000
vt 0.853923 0.430000
vt 0.750000 0.370000
vt 0.750000 0.430000
vt 0.750000 0.490000
vt 0.353923 0.070000
vt 0.353923 0.130000
vt 0.250000 0.130000
vt 0.250000 0.070000
vt 0.250000 0.010000
vt 0.042154 0.250000
vt 0.094115 0.220000
vt 0.146077 0.310000
vt 0.094115 0.340000
vt 0.042154 0.370000
vt 0.353923 0.430000
vt 0.353923 0.310000
vt 0.405885 0.340000
vt 0.457846 0.370000
vt 1.000000 1.000000
vt 0.698038 0.280000
vt 0.801962 0.280000
vt 0.750000 0.190000
vt 0.301962 0.220000
vt 0.250000 0.310000
vt 0.198038 0.220000
vt 1.000000 0.500000
s 0
f 25/1/1 3/2/1 13/3/1
f 26/4/2 5/5/2 15/6/2
f 27/7/3 7/8/3 17/9/3
f 28/10/4 9/11/4 19/12/4
f 2/13/5 38/14/5 43/15/5
f 32/16/6 11/17/6 21/18/6
f 33/19/7 1/20/7 23/21/7
f 3/22/8 41/23/8 46/24/8
f 4/25/9 25/1/9 14/26/9
f 6/27/10 26/4/10 16/28/10
f 8/29/11 27/7/11 18/30/11
f 10/31/12 28/10/12 20/32/12
f 16/33/13 37/34/13 6/35/13
f 24/36/14 38/14/14 2/13/14
f 20/37/15 39/38/15 10/39/15
f 12/40/16 32/16/16 22/41/16
f 2/42/17 33/19/17 24/43/17
f 23/44/18 40/45/18 11/46/18
f 15/47/19 41/23/19 3/22/19
f 19/48/20 42/49/20 7/50/20
f 21/51/21 48/52/21 36/53/21
f 36/53/22 49/54/22 21/51/22
f 9/55/23 49/54/23 19/48/23
f 17/56/24 47/57/24 35/58/24
f 35/58/25 50/59/25 17/56/25
f 5/60/26 50/59/26 15/47/26
f 13/61/27 46/24/27 34/62/27
f 34/62/28 51/63/28 13/61/28
f 1/64/29 51/63/29 23/44/29
f 12/40/30 24/43/30 33/19/30
f 10/31/31 22/41/31 32/16/31
f 18/65/32 45/66/32 31/67/32
f 31/67/33 52/68/33 18/65/33
f 8/69/34 52/68/34 20/37/34
f 22/70/35 44/71/35 30/72/35
f 30/72/36 53/73/36 22/70/36
f 12/74/37 53/73/37 24/36/37
f 14/75/38 43/15/38 29/76/38
f 29/76/39 54/77/39 14/75/39
f 4/78/40 54/77/40 16/33/40
f 8/29/41 20/32/41 28/10/41
f 6/27/42 18/30/42 27/7/42
f 4/25/43 16/28/43 26/4/43
f 2/79/44 14/26/44 25/1/44
f 34/62/45 55/80/45 40/45/45
f 34/62/46 56/81/46 55/80/46
f 35/58/47 47/57/47 57/82/47
f 33/19/48 11/17/48 12/40/48
f 32/16/49 9/11/49 10/31/49
f 29/76/50 58/83/50 37/34/50
f 29/76/51 59/84/51 58/83/51
f 30/72/52 44/71/52 60/85/52
f 28/10/53 7/8/53 8/29/53
f 27/7/54 5/5/54 6/27/54
f 26/4/55 3/2/55 4/25/55
f 25/1/56 1/86/56 2/79/56
f 4/25/57 3/2/57 25/1/57
f 6/27/58 5/5/58 26/4/58
f 8/29/59 7/8/59 27/7/59
f 10/31/60 9/11/60 28/10/60
f 12/40/61 11/17/61 32/16/61
f 2/42/62 1/20/62 33/19/62
f 33/19/63 23/21/63 11/17/63
f 32/16/64 21/18/64 9/11/64
f 28/10/65 19/12/65 7/8/65
f 27/7/66 17/9/66 5/5/66
f 26/4/67 15/6/67 3/2/67
f 25/1/68 13/3/68 1/86/68
f 60/85/69 39/38/69 31/67/69
f 60/85/70 44/71/70 39/38/70
f 44/71/71 10/39/71 39/38/71
f 58/83/72 60/85/72 31/67/72
f 58/83/73 59/84/73 60/85/73
f 59/84/74 30/72/74 60/85/74
f 37/34/75 45/66/75 6/35/75
f 37/34/76 58/83/76 45/66/76
f 58/83/77 31/67/77 45/66/77
f 57/82/78 42/49/78 36/53/78
f 57/82/79 47/57/79 42/49/79
f 47/57/80 7/50/80 42/49/80
f 55/80/81 57/82/81 36/53/81
f 55/80/82 56/81/82 57/82/82
f 56/81/83 35/58/83 57/82/83
f 40/45/84 48/52/84 11/46/84
f 40/45/85 55/80/85 48/52/85
f 55/80/86 36/53/86 48/52/86
f 46/24/87 56/81/87 34/62/87
f 46/24/88 41/23/88 56/81/88
f 41/23/89 35/58/89 56/81/89
f 43/15/90 59/84/90 29/76/90
f 43/15/91 38/14/91 59/84/91
f 38/14/92 30/72/92 59/84/92
f 16/33/93 29/76/93 37/34/93
f 24/36/94 30/72/94 38/14/94
f 20/37/95 31/67/95 39/38/95
f 23/44/96 34/62/96 40/45/96
f 15/47/97 35/58/97 41/23/97
f 19/48/98 36/53/98 42/49/98
f 21/51/99 11/46/99 48/52/99
f 36/53/100 19/48/100 49/54/100
f 9/55/101 21/51/101 49/54/101
f 17/56/102 7/50/102 47/57/102
f 35/58/103 15/47/103 50/59/103
f 5/60/104 17/56/104 50/59/104
f 13/61/105 3/22/105 46/24/105
f 34/62/106 23/44/106 51/63/106
f 1/64/107 13/61/107 51/63/107
f 18/65/108 6/35/108 45/66/108
f 31/67/109 20/37/109 52/68/109
f 8/69/110 18/65/110 52/68/110
f 22/70/111 10/39/111 44/71/111
f 30/72/112 24/36/112 53/73/112
f 12/74/113 22/70/113 53/73/113
f 14/75/114 2/13/114 43/15/114
f 29/76/115 16/33/115 54/77/115
f 4/78/116 14/75/116 54/77/116
