# Blender 4.3.0
# www.blender.org
o Cylinder
v 0.000000 -4.755818 -27.930376
v 0.000000 1.825651 -24.124008
v 20.873549 -1.809245 -12.051349
v 19.787838 0.844170 -11.424514
v 24.546495 -5.074114 14.171926
v 19.389305 0.489897 11.194420
v 0.000000 0.203772 21.487751
v 0.000000 5.338587 28.687410
v -20.708073 -1.662162 11.955812
v -23.051071 3.744853 13.308542
v -23.389185 -4.045403 -13.503753
v -19.887852 0.933072 -11.482257
v 11.851250 -4.551844 -20.526968
v 9.220385 -0.709831 -15.970175
v 21.305099 -2.154469 0.000000
v 24.764414 5.613745 0.000000
v 12.199890 -5.249116 21.130831
v 12.427155 5.703640 21.524464
v -9.581416 -0.012224 16.595499
v -24.162926 -5.012264 0.000000
v -21.978338 2.827699 0.000000
v -11.101881 -3.053122 -19.229023
v -12.329603 5.508540 -21.355499
v 12.389900 0.000000 -21.459938
v 18.813694 0.000000 0.000000
v 11.909323 0.000000 20.627554
v -10.323360 0.000000 17.880587
v 10.825317 4.577315 -6.250000
v -10.825317 6.640731 -6.250000
v 0.000000 -1.602817 12.500000
v -17.470554 0.000000 0.000000
v -8.765123 0.000000 -15.181640
v 0.000000 0.489819 -12.500000
v 10.825317 1.560180 6.250000
v -10.825317 1.017853 6.250000
v 16.237976 6.576225 3.125000
v -5.412659 4.439748 -15.625000
v -10.825317 2.668561 12.500000
v -10.825317 -4.199693 -12.500000
v 16.237976 0.632333 -3.125000
v -5.412659 -3.439329 15.625000
v 5.412659 2.215785 -15.625000
v -16.237976 6.743402 3.125000
v 10.825317 6.419640 12.500000
v 10.825317 1.906577 -12.500000
v 5.412659 -5.458308 15.625000
v -16.237976 2.249080 -3.125000
v -16.237976 -0.726652 9.375000
v 16.237976 -3.234016 9.375000
v 0.000000 -2.480683 -18.750000
v 0.000000 -1.102576 18.750000
v -16.237976 6.734491 -9.375000
v 16.237976 1.762430 -9.375000
v -5.412659 -2.081483 -3.125000
v 5.412659 0.060937 -3.125000
v 0.000000 1.971556 6.250000
v 5.412659 5.442091 3.125000
v 0.000000 1.235556 -6.250000
v -5.412659 -1.813535 3.125000
vn 0.7026 -0.2217 -0.6762
vn 0.6541 0.7564 0.0062
vn 0.0734 0.0992 0.9924
vn 0.1152 -0.9904 0.0759
vn 0.1983 0.9652 -0.1706
vn -0.5993 0.8002 0.0230
vn -0.2523 0.8369 -0.4857
vn -0.3488 -0.9342 0.0744
vn -0.1602 0.9865 0.0351
vn 0.6862 -0.7274 -0.0035
vn 0.4953 -0.1787 0.8502
vn 0.2374 0.9630 0.1279
vn 0.2779 0.8160 0.5069
vn 0.2566 0.9576 -0.1311
vn 0.1090 0.8466 0.5210
vn -0.5309 -0.8463 0.0430
vn -0.3491 -0.7903 -0.5036
vn 0.0013 -0.9858 -0.1680
vn -0.4781 -0.8783 -0.0080
vn -0.3457 -0.6200 0.7044
vn 0.5270 -0.7484 -0.4026
vn 0.3641 -0.9243 0.1147
vn 0.1710 -0.9834 -0.0603
vn 0.3626 -0.8343 -0.4153
vn -0.5209 -0.7934 -0.3149
vn -0.1155 -0.9778 -0.1750
vn 0.1006 -0.7688 0.6315
vn -0.0931 -0.8993 0.4274
vn 0.0396 -0.9699 0.2404
vn -0.2522 -0.7898 -0.5591
vn -0.5313 -0.8470 0.0155
vn -0.5870 0.7921 0.1670
vn -0.4670 0.8814 -0.0705
vn 0.2128 0.8199 -0.5315
vn -0.4412 0.8576 -0.2641
vn -0.1554 0.9420 0.2974
vn -0.7522 0.5841 -0.3051
vn 0.5088 0.7182 -0.4747
vn 0.1609 0.8556 -0.4920
vn 0.0130 0.9207 -0.3900
vn -0.2965 0.9379 -0.1801
vn 0.7769 -0.1660 0.6074
vn 0.6862 -0.7274 0.0048
vn 0.1039 0.9770 0.1863
vn 0.3974 -0.9174 -0.0222
vn 0.1918 -0.9691 -0.1551
vn -0.0301 -0.7917 -0.6101
vn -0.2345 0.5028 -0.8320
vn -0.9027 -0.3189 -0.2888
vn -0.1030 0.9833 -0.1502
vn -0.2856 0.9251 -0.2502
vn 0.5854 0.7406 0.3299
vn -0.1836 -0.8003 0.5708
vn 0.5213 0.7245 0.4510
vn 0.9288 0.3551 0.1054
vn 0.2515 0.4845 -0.8378
vn 0.7118 0.4236 -0.5603
vn 0.7495 0.6586 -0.0674
vn 0.0280 -0.8138 0.5804
vn -0.4102 -0.3846 0.8269
vn -0.8378 0.5010 0.2171
vn -0.7026 0.3562 -0.6160
vn -0.2851 0.8371 -0.4668
vn -0.5987 0.7994 -0.0510
vn 0.0137 -0.9998 0.0174
vn 0.4868 0.1100 0.8665
vn 0.6541 0.7564 -0.0018
vn 0.5184 -0.2302 -0.8236
vn 0.3575 0.9060 -0.2268
vn 0.6200 0.7844 -0.0170
vn 0.1049 0.9328 0.3449
vn -0.5329 0.7950 0.2898
vn -0.5560 0.8296 -0.0512
vn 0.3916 0.7843 0.4812
vn 0.5697 0.7476 0.3414
vn -0.1041 0.9936 -0.0435
vn -0.5762 0.7776 0.2516
vn 0.0777 -0.8822 -0.4643
vn -0.1521 -0.8155 -0.5585
vn -0.1446 -0.7751 0.6151
vn 0.0820 -0.9312 0.3552
vn 0.1853 -0.9364 0.2978
vn -0.0374 -0.9832 0.1788
vn -0.0538 -0.8369 0.5446
vn -0.3419 -0.8547 0.3905
vn -0.3698 -0.9245 0.0921
vn 0.1288 -0.9844 -0.1194
vn 0.0520 -0.9851 -0.1639
vn 0.0523 -0.9904 0.1282
vn -0.2942 0.9531 -0.0702
vn 0.1966 0.9569 0.2136
vn 0.4462 0.8937 0.0478
vn 0.0279 0.9742 -0.2238
vn 0.2287 0.9688 -0.0954
vn 0.3286 0.8329 0.4454
vn 0.3917 -0.9042 -0.1702
vn -0.4064 -0.9020 -0.1454
vn -0.6351 -0.7724 -0.0005
vn 0.6724 -0.7401 -0.0145
vn 0.2385 -0.9631 -0.1246
vn 0.2983 -0.9380 0.1766
vn -0.3504 -0.8142 0.4629
vn -0.4944 -0.7919 -0.3584
vn -0.0996 -0.9745 -0.2013
vn -0.3067 -0.7603 0.5726
vn 0.0280 -0.9028 0.4291
vn -0.1324 -0.9621 0.2384
vn 0.5653 0.8241 -0.0350
vn 0.1303 0.9883 -0.0791
vn -0.3203 0.7949 -0.5152
vn -0.5228 0.8465 -0.1005
vn 0.0639 0.9947 -0.0809
vn -0.7810 0.5776 -0.2375
vn 0.5418 0.7500 -0.3795
vn 0.1585 0.8543 -0.4951
vn 0.0243 0.9273 -0.3734
vt 0.916667 0.750000
vt 0.833333 0.500000
vt 0.916667 0.500000
vt 0.750000 0.750000
vt 0.666667 0.500000
vt 0.750000 0.500000
vt 0.583333 0.750000
vt 0.500000 0.500000
vt 0.583333 0.500000
vt 0.416667 0.750000
vt 0.333333 0.500000
vt 0.416667 0.500000
vt 0.250000 0.490000
vt 0.198038 0.400000
vt 0.301962 0.400000
vt 0.250000 0.750000
vt 0.166667 0.500000
vt 0.250000 0.500000
vt 0.083333 0.750000
vt -0.000000 0.500000
vt 0.083333 0.500000
vt 0.957846 0.370000
vt 0.905885 0.280000
vt 0.853923 0.370000
vt 0.833333 1.000000
vt 0.916667 1.000000
vt 0.666667 1.000000
vt 0.750000 1.000000
vt 0.500000 1.000000
vt 0.583333 1.000000
vt 0.333333 1.000000
vt 0.416667 1.000000
vt 0.457846 0.250000
vt 0.405885 0.220000
vt 0.457846 0.130000
vt 0.146077 0.430000
vt 0.146077 0.070000
vt 0.146077 0.130000
vt 0.042154 0.130000
vt 0.166667 1.000000
vt 0.250000 1.000000
vt -0.000000 1.000000
vt 0.083333 1.000000
vt 0.646077 0.430000
vt 0.646077 0.370000
vt 0.542154 0.370000
vt 0.957846 0.250000
vt 0.646077 0.070000
vt 0.698038 0.100000
vt 0.750000 0.010000
vt 0.542154 0.250000
vt 0.594115 0.280000
vt 0.646077 0.190000
vt 0.594115 0.160000
vt 0.542154 0.130000
vt 0.853923 0.070000
vt 0.801962 0.100000
vt 0.853923 0.190000
vt 0.905885 0.160000
vt 0.957846 0.130000
vt 0.853923 0.430000
vt 0.750000 0.370000
vt 0.750000 0.430000
vt 0.750000 0.490000
vt 0.353923 0.070000
vt 0.353923 0.130000
vt 0.250000 0.130000
vt 0.250000 0.070000
vt 0.250000 0.010000
vt 0.042154 0.250000
vt 0.094115 0.220000
vt 0.146077 0.310000
vt 0.094115 0.340000
vt 0.042154 0.370000
vt 0.353923 0.430000
vt 0.353923 0.310000
vt 0.405885 0.340000
vt 0.457846 0.370000
vt 1.000000 1.000000
vt 0.698038 0.280000
vt 0.801962 0.280000
vt 0.750000 0.190000
vt 0.301962 0.220000
vt 0.250000 0.310000
vt 0.198038 0.220000
vt 1.000000 0.500000
s 0
f 24/1/1 3/2/1 13/3/1
f 25/4/2 5/5/2 15/6/2
f 26/7/3 7/8/3 17/9/3
f 27/10/4 9/11/4 19/12/4
f 2/13/5 37/14/5 42/15/5
f 31/16/6 11/17/6 20/18/6
f 32/19/7 1/20/7 22/21/7
f 3/22/8 40/23/8 45/24/8
f 4/25/9 24/1/9 14/26/9
f 6/27/10 25/4/10 16/28/10
f 8/29/11 26/7/11 18/30/11
f 10/31/12 27/10/12 19/32/12
f 16/33/13 36/34/13 6/35/13
f 23/36/14 37/14/14 2/13/14
f 19/37/15 38/38/15 10/39/15
f 12/40/16 31/16/16 21/41/16
f 2/42/17 32/19/17 23/43/17
f 22/44/18 39/45/18 11/46/18
f 15/47/19 40/23/19 3/22/19
f 19/48/20 41/49/20 7/50/20
f 20/51/21 47/52/21 35/53/21
f 35/53/22 48/54/22 20/51/22
f 9/55/23 48/54/23 19/48/23
f 17/56/24 46/57/24 34/58/24
f 34/58/25 49/59/25 17/56/25
f 5/60/26 49/59/26 15/47/26
f 13/61/27 45/24/27 33/62/27
f 33/62/28 50/63/28 13/61/28
f 1/64/29 50/63/29 22/44/29
f 12/40/30 23/43/30 32/19/30
f 10/31/31 21/41/31 31/16/31
f 18/65/32 44/66/32 30/67/32
f 30/67/33 51/68/33 18/65/33
f 8/69/34 51/68/34 19/37/34
f 21/70/35 43/71/35 29/72/35
f 29/72/36 52/73/36 21/70/36
f 12/74/37 52/73/37 23/36/37
f 14/75/38 42/15/38 28/76/38
f 28/76/39 53/77/39 14/75/39
f 4/78/40 53/77/40 16/33/40
f 8/29/41 19/32/41 27/10/41
f 6/27/42 18/30/42 26/7/42
f 4/25/43 16/28/43 25/4/43
f 2/79/44 14/26/44 24/1/44
f 33/62/45 54/80/45 39/45/45
f 33/62/46 55/81/46 54/80/46
f 34/58/47 46/57/47 56/82/47
f 32/19/48 11/17/48 12/40/48
f 31/16/49 9/11/49 10/31/49
f 28/76/50 57/83/50 36/34/50
f 28/76/51 58/84/51 57/83/51
f 29/72/52 43/71/52 59/85/52
f 27/10/53 7/8/53 8/29/53
f 26/7/54 5/5/54 6/27/54
f 25/4/55 3/2/55 4/25/55
f 24/1/56 1/86/56 2/79/56
f 4/25/57 3/2/57 24/1/57
f 6/27/58 5/5/58 25/4/58
f 8/29/59 7/8/59 26/7/59
f 10/31/60 9/11/60 27/10/60
f 12/40/61 11/17/61 31/16/61
f 2/42/62 1/20/62 32/19/62
f 32/19/63 22/21/63 11/17/63
f 31/16/64 20/18/64 9/11/64
f 27/10/65 19/12/65 7/8/65
f 26/7/66 17/9/66 5/5/66
f 25/4/67 15/6/67 3/2/67
f 24/1/68 13/3/68 1/86/68
f 59/85/69 38/38/69 30/67/69
f 59/85/70 43/71/70 38/38/70
f 43/71/71 10/39/71 38/38/71
f 57/83/72 59/85/72 30/67/72
f 57/83/73 58/84/73 59/85/73
f 58/84/74 29/72/74 59/85/74
f 36/34/75 44/66/75 6/35/75
f 36/34/76 57/83/76 44/66/76
f 57/83/77 30/67/77 44/66/77
f 56/82/78 41/49/78 35/53/78
f 56/82/79 46/57/79 41/49/79
f 46/57/80 7/50/80 41/49/80
f 54/80/81 56/82/81 35/53/81
f 54/80/82 55/81/82 56/82/82
f 55/81/83 34/58/83 56/82/83
f 39/45/84 47/52/84 11/46/84
f 39/45/85 54/80/85 47/52/85
f 54/80/86 35/53/86 47/52/86
f 45/24/87 55/81/87 33/62/87
f 45/24/88 40/23/88 55/81/88
f 40/23/89 34/58/89 55/81/89
f 42/15/90 58/84/90 28/76/90
f 42/15/91 37/14/91 58/84/91
f 37/14/92 29/72/92 58/84/92
f 16/33/93 28/76/93 36/34/93
f 23/36/94 29/72/94 37/14/94
f 19/37/95 30/67/95 38/38/95
f 22/44/96 33/62/96 39/45/96
f 15/47/97 34/58/97 40/23/97
f 19/48/98 35/53/98 41/49/98
f 20/51/99 11/46/99 47/52/99
f 35/53/100 19/48/100 48/54/100
f 9/55/101 20/51/101 48/54/101
f 17/56/102 7/50/102 46/57/102
f 34/58/103 15/47/103 49/59/103
f 5/60/104 17/56/104 49/59/104
f 13/61/105 3/22/105 45/24/105
f 33/62/106 22/44/106 50/63/106
f 1/64/107 13/61/107 50/63/107
f 18/65/108 6/35/108 44/66/108
f 30/67/109 19/37/109 51/68/109
f 8/69/110 18/65/110 51/68/110
f 21/70/111 10/39/111 43/71/111
f 29/72/112 23/36/112 52/73/112
f 12/74/113 21/70/113 52/73/113
f 14/75/114 2/13/114 42/15/114
f 28/76/115 16/33/115 53/77/115
f 4/78/116 14/75/116 53/77/116
