# Blender 4.3.0
# www.blender.org
o Cylinder
v 0.000000 0.149366 -21.558393
v 0.000000 5.492164 -28.886873
v 20.867001 -1.803425 -12.047568
v 25.016495 5.491895 -14.443281
v 21.909630 -2.730220 12.649531
v 21.481554 2.349703 12.402381
v 0.000000 -3.114074 25.797691
v 0.000000 4.123765 27.109320
v -23.719555 -4.339052 13.694492
v -22.397993 3.164329 12.931488
v -18.479958 0.318425 -10.669409
v -22.691698 3.425395 -13.101058
v 11.054948 -2.959256 -19.147732
v 11.552645 3.954638 -20.009768
v 20.619675 1.469050 0.000000
v 9.842772 -0.534929 17.048180
v 9.951462 0.752307 17.236437
v -11.471330 -3.792010 19.868925
v -10.348637 1.546648 17.924364
v -24.320374 -5.169711 0.000000
v -19.916538 0.765922 0.000000
v -10.141272 -1.131924 -17.565199
v -11.130583 3.110524 -19.278736
v 11.352675 0.000000 -19.663412
v 19.345598 0.000000 0.000000
v 8.943151 0.000000 15.489990
v -11.543237 0.000000 19.993473
v 10.825317 -0.123920 -6.250000
v -10.825317 -0.001401 -6.250000
v 0.000000 3.771729 12.500000
v -23.323290 0.000000 0.000000
v -12.943569 0.000000 -22.418919
v 0.000000 -6.865125 -12.500000
v 10.825317 -2.050510 6.250000
v -10.825317 -2.516400 6.250000
v 16.237976 5.806878 3.125000
v -5.412659 0.554344 -15.625000
v -10.825317 -0.968251 12.500000
v -10.825317 -6.305924 -12.500000
v 16.237976 -6.423620 -3.125000
v -5.412659 -4.057846 15.625000
v 5.412659 6.980295 -15.625000
v -16.237976 3.404613 3.125000
v 10.825317 -1.095099 12.500000
v 10.825317 0.580952 -12.500000
v 5.412659 -5.995826 15.625000
v -16.237976 0.062670 -3.125000
v -16.237976 -3.238717 9.375000
v 16.237976 -4.191848 9.375000
v 0.000000 -4.556397 -18.750000
v 0.000000 3.111640 18.750000
v -16.237976 4.228453 -9.375000
v 16.237976 -1.567859 -9.375000
v -5.412659 -7.314510 -3.125000
v 5.412659 -1.223715 -3.125000
v 0.000000 -1.589057 6.250000
v 5.412659 1.277641 3.125000
v 0.000000 0.715582 -6.250000
v -5.412659 3.686909 3.125000
vn 0.5899 -0.1959 -0.7834
vn 0.0271 0.9502 0.3106
vn -0.4485 -0.0378 0.8930
vn -0.5073 0.8546 0.1111
vn -0.8987 0.1733 -0.4028
vn 0.0273 -0.9699 -0.2419
vn -0.1746 -0.8345 -0.5227
vn 0.3899 -0.0999 -0.9154
vn 0.7554 -0.6552 -0.0060
vn 0.0522 -0.9278 0.3695
vn -0.1171 0.8267 0.5504
vn 0.6636 0.7415 -0.0988
vn 0.1501 0.9049 0.3982
vn 0.2906 0.8581 -0.4234
vn -0.2131 0.9477 0.2375
vn -0.5254 0.7364 -0.4261
vn -0.5963 -0.5200 -0.6117
vn 0.8477 -0.4985 0.1817
vn 0.0153 -0.9963 0.0843
vn 0.3639 -0.8228 -0.4365
vn 0.1659 -0.9843 0.0598
vn 0.0916 -0.9914 -0.0939
vn 0.7461 -0.6466 0.1586
vn -0.4109 -0.9073 0.0900
vn 0.3828 -0.8840 -0.2684
vn 0.5152 -0.7490 0.4167
vn 0.1221 -0.9310 -0.3439
vn -0.2637 -0.4943 -0.8283
vn -0.2910 0.7584 -0.5832
vn -0.2141 0.9522 -0.2177
vn 0.3948 0.8783 -0.2697
vn 0.2441 0.9644 0.1019
vn -0.1392 0.9831 -0.1190
vn -0.2362 0.8615 -0.4494
vn 0.3760 0.8115 0.4473
vn -0.0452 0.9898 -0.1350
vn 0.5702 0.7789 0.2610
vn 0.3952 0.8748 0.2802
vn -0.6150 0.7879 0.0322
vn -0.4888 0.8102 0.3234
vn 0.2400 -0.9342 0.2638
vn 0.7546 -0.6545 0.0474
vn 0.5979 -0.0999 -0.7954
vn -0.0514 -0.9957 -0.0774
vn 0.4767 -0.8472 0.2346
vn -0.0389 -0.9128 -0.4066
vn -0.4980 -0.8409 -0.2119
vn -0.9840 0.1761 0.0273
vn -0.3631 0.8678 -0.3393
vn 0.0769 0.9916 -0.1038
vn -0.0244 0.9350 -0.3538
vn -0.4771 -0.1567 0.8648
vn 0.2268 0.0664 0.9717
vn 0.8794 -0.4420 0.1772
vn 0.0874 -0.8050 -0.5869
vn 0.4779 -0.5073 -0.7171
vn 0.9804 0.0737 -0.1828
vn 0.7672 -0.1144 0.6311
vn -0.5008 0.1744 0.8478
vn -0.4808 -0.8423 -0.2434
vn 0.0484 -0.8071 -0.5884
vn -0.2400 -0.9669 -0.0869
vn -0.9814 0.1893 0.0316
vn -0.4570 -0.0379 0.8886
vn 0.2415 0.9521 0.1874
vn 0.1594 -0.1850 -0.9697
vn -0.3915 0.8940 0.2179
vn -0.0235 0.9007 0.4337
vn 0.3348 0.9131 0.2327
vn 0.2153 0.9674 -0.1331
vn 0.2137 0.9600 -0.1809
vn -0.0623 0.9405 -0.3340
vn -0.2683 0.8432 0.4659
vn -0.3511 0.8393 0.4151
vn 0.4100 0.9120 -0.0059
vn 0.0835 -0.9745 -0.2084
vn -0.1658 -0.9259 -0.3395
vn -0.1733 -0.9679 0.1820
vn 0.0745 -0.8696 0.4881
vn 0.4758 -0.8457 0.2418
vn -0.0425 -0.9971 -0.0634
vn -0.6239 -0.7650 0.1595
vn -0.5481 -0.8042 0.2299
vn -0.5605 -0.8224 0.0973
vn 0.5588 -0.8124 0.1662
vn -0.3987 -0.8300 -0.3900
vn -0.4268 -0.8886 0.1681
vn 0.0630 0.8126 0.5794
vn -0.4916 0.8281 0.2696
vn -0.0661 0.9976 0.0210
vn 0.2789 0.7306 -0.6232
vn 0.2796 0.9353 0.2169
vn -0.3738 0.8536 -0.3629
vn -0.0360 -0.6967 -0.7165
vn 0.5719 -0.5657 0.5941
vn -0.1120 -0.9889 -0.0979
vn 0.4870 -0.8560 -0.1737
vn 0.0810 -0.9927 -0.0891
vn 0.1746 -0.9833 0.0520
vn 0.6054 -0.6209 0.4980
vn -0.1032 -0.8948 -0.4343
vn -0.0107 -0.9061 0.4229
vn -0.2253 -0.8632 0.4519
vn -0.3364 -0.8834 -0.3263
vn 0.0431 -0.5120 -0.8579
vn -0.2860 0.8737 -0.3935
vn -0.1568 0.9822 0.1037
vn 0.2121 0.9702 -0.1175
vn -0.4207 0.8741 -0.2428
vn 0.5371 0.8232 0.1840
vn -0.2574 0.9349 0.2443
vn 0.2965 0.9281 -0.2252
vn 0.0591 0.9412 -0.3325
vn -0.3134 0.7793 0.5427
vt 0.916667 0.750000
vt 0.833333 0.500000
vt 0.916667 0.500000
vt 0.583333 0.750000
vt 0.500000 0.500000
vt 0.583333 0.500000
vt 0.416667 0.750000
vt 0.333333 0.500000
vt 0.416667 0.500000
vt 0.250000 0.490000
vt 0.198038 0.400000
vt 0.301962 0.400000
vt 0.250000 0.750000
vt 0.166667 0.500000
vt 0.250000 0.500000
vt 0.083333 0.750000
vt -0.000000 0.500000
vt 0.083333 0.500000
vt 0.957846 0.370000
vt 0.905885 0.280000
vt 0.853923 0.370000
vt 0.833333 1.000000
vt 0.916667 1.000000
vt 0.666667 1.000000
vt 0.750000 0.750000
vt 0.750000 1.000000
vt 0.500000 1.000000
vt 0.583333 1.000000
vt 0.333333 1.000000
vt 0.416667 1.000000
vt 0.457846 0.250000
vt 0.405885 0.220000
vt 0.457846 0.130000
vt 0.146077 0.430000
vt 0.146077 0.070000
vt 0.146077 0.130000
vt 0.042154 0.130000
vt 0.166667 1.000000
vt 0.250000 1.000000
vt -0.000000 1.000000
vt 0.083333 1.000000
vt 0.646077 0.430000
vt 0.646077 0.370000
vt 0.542154 0.370000
vt 0.957846 0.250000
vt 0.646077 0.070000
vt 0.698038 0.100000
vt 0.750000 0.010000
vt 0.542154 0.250000
vt 0.594115 0.280000
vt 0.646077 0.190000
vt 0.594115 0.160000
vt 0.542154 0.130000
vt 0.853923 0.070000
vt 0.801962 0.100000
vt 0.853923 0.190000
vt 0.905885 0.160000
vt 0.957846 0.130000
vt 0.853923 0.430000
vt 0.750000 0.370000
vt 0.750000 0.430000
vt 0.750000 0.490000
vt 0.353923 0.070000
vt 0.353923 0.130000
vt 0.250000 0.130000
vt 0.250000 0.070000
vt 0.250000 0.010000
vt 0.042154 0.250000
vt 0.094115 0.220000
vt 0.146077 0.310000
vt 0.094115 0.340000
vt 0.042154 0.370000
vt 0.353923 0.430000
vt 0.353923 0.310000
vt 0.405885 0.340000
vt 0.457846 0.370000
vt 1.000000 1.000000
vt 0.698038 0.280000
vt 0.801962 0.280000
vt 0.750000 0.190000
vt 0.301962 0.220000
vt 0.250000 0.310000
vt 0.198038 0.220000
vt 0.666667 0.500000
vt 1.000000 0.500000
s 0
f 24/1/1 3/2/1 13/3/1
f 26/4/2 7/5/2 16/6/2
f 27/7/3 9/8/3 18/9/3
f 2/10/4 37/11/4 42/12/4
f 31/13/5 11/14/5 20/15/5
f 32/16/6 1/17/6 22/18/6
f 3/19/7 40/20/7 45/21/7
f 4/22/8 24/1/8 14/23/8
f 6/24/9 25/25/9 15/26/9
f 8/27/10 26/4/10 17/28/10
f 10/29/11 27/7/11 19/30/11
f 15/31/12 36/32/12 6/33/12
f 23/34/13 37/11/13 2/10/13
f 19/35/14 38/36/14 10/37/14
f 12/38/15 31/13/15 21/39/15
f 2/40/16 32/16/16 23/41/16
f 22/42/17 39/43/17 11/44/17
f 25/45/18 40/20/18 3/19/18
f 18/46/19 41/47/19 7/48/19
f 20/49/20 47/50/20 35/51/20
f 35/51/21 48/52/21 20/49/21
f 9/53/22 48/52/22 18/46/22
f 16/54/23 46/55/23 34/56/23
f 34/56/24 49/57/24 16/54/24
f 5/58/25 49/57/25 25/45/25
f 13/59/26 45/21/26 33/60/26
f 33/60/27 50/61/27 13/59/27
f 1/62/28 50/61/28 22/42/28
f 12/38/29 23/41/29 32/16/29
f 10/29/30 21/39/30 31/13/30
f 17/63/31 44/64/31 30/65/31
f 30/65/32 51/66/32 17/63/32
f 8/67/33 51/66/33 19/35/33
f 21/68/34 43/69/34 29/70/34
f 29/70/35 52/71/35 21/68/35
f 12/72/36 52/71/36 23/34/36
f 14/73/37 42/12/37 28/74/37
f 28/74/38 53/75/38 14/73/38
f 4/76/39 53/75/39 15/31/39
f 8/27/40 19/30/40 27/7/40
f 6/24/41 17/28/41 26/4/41
f 4/22/42 15/26/42 25/25/42
f 2/77/43 14/23/43 24/1/43
f 33/60/44 54/78/44 39/43/44
f 33/60/45 55/79/45 54/78/45
f 34/56/46 46/55/46 56/80/46
f 32/16/47 11/14/47 12/38/47
f 31/13/48 9/8/48 10/29/48
f 28/74/49 57/81/49 36/32/49
f 28/74/50 58/82/50 57/81/50
f 29/70/51 43/69/51 59/83/51
f 27/7/52 7/5/52 8/27/52
f 26/4/53 5/84/53 6/24/53
f 25/25/54 3/2/54 4/22/54
f 24/1/55 1/85/55 2/77/55
f 4/22/56 3/2/56 24/1/56
f 6/24/57 5/84/57 25/25/57
f 8/27/58 7/5/58 26/4/58
f 10/29/59 9/8/59 27/7/59
f 12/38/60 11/14/60 31/13/60
f 2/40/61 1/17/61 32/16/61
f 32/16/62 22/18/62 11/14/62
f 31/13/63 20/15/63 9/8/63
f 27/7/64 18/9/64 7/5/64
f 26/4/65 16/6/65 5/84/65
f 24/1/66 13/3/66 1/85/66
f 59/83/67 38/36/67 30/65/67
f 59/83/68 43/69/68 38/36/68
f 43/69/69 10/37/69 38/36/69
f 57/81/70 59/83/70 30/65/70
f 57/81/71 58/82/71 59/83/71
f 58/82/72 29/70/72 59/83/72
f 36/32/73 44/64/73 6/33/73
f 36/32/74 57/81/74 44/64/74
f 57/81/75 30/65/75 44/64/75
f 56/80/76 41/47/76 35/51/76
f 56/80/77 46/55/77 41/47/77
f 46/55/78 7/48/78 41/47/78
f 54/78/79 56/80/79 35/51/79
f 54/78/80 55/79/80 56/80/80
f 55/79/81 34/56/81 56/80/81
f 39/43/82 47/50/82 11/44/82
f 39/43/83 54/78/83 47/50/83
f 54/78/84 35/51/84 47/50/84
f 45/21/85 55/79/85 33/60/85
f 45/21/86 40/20/86 55/79/86
f 40/20/87 34/56/87 55/79/87
f 42/12/88 58/82/88 28/74/88
f 42/12/89 37/11/89 58/82/89
f 37/11/90 29/70/90 58/82/90
f 15/31/91 28/74/91 36/32/91
f 23/34/92 29/70/92 37/11/92
f 19/35/93 30/65/93 38/36/93
f 22/42/94 33/60/94 39/43/94
f 25/45/95 34/56/95 40/20/95
f 18/46/96 35/51/96 41/47/96
f 20/49/97 11/44/97 47/50/97
f 35/51/98 18/46/98 48/52/98
f 9/53/99 20/49/99 48/52/99
f 16/54/100 7/48/100 46/55/100
f 34/56/101 25/45/101 49/57/101
f 5/58/102 16/54/102 49/57/102
f 13/59/103 3/19/103 45/21/103
f 33/60/104 22/42/104 50/61/104
f 1/62/105 13/59/105 50/61/105
f 17/63/106 6/33/106 44/64/106
f 30/65/107 19/35/107 51/66/107
f 8/67/108 17/63/108 51/66/108
f 21/68/109 10/37/109 43/69/109
f 29/70/110 23/34/110 52/71/110
f 12/72/111 21/68/111 52/71/111
f 14/73/112 2/10/112 42/12/112
f 28/74/113 15/31/113 53/75/113
f 4/76/114 14/73/114 53/75/114
