# Blender 4.3.0
# www.blender.org
o Cylinder
v 0.000000 -0.792229 -22.781555
v 0.000000 1.663179 -23.912956
v 23.036871 -3.732230 -13.300344
v 19.670721 0.740065 -11.356895
v 24.866978 -5.358990 14.356956
v 20.524544 1.499015 11.849852
v 0.000000 -0.337214 22.190502
v 0.000000 1.173230 23.276485
v -20.439901 -1.423786 11.800982
v -23.477373 4.123793 13.554667
v -18.754545 0.074342 -10.827942
v -21.375828 2.255726 -12.341340
v 10.192389 -1.234158 -17.653736
v 10.834479 2.518324 -18.765869
v 24.803944 -5.653275 0.000000
v 22.981251 3.830601 0.000000
v 9.508419 0.133770 16.469065
v 12.438016 5.725363 21.543276
v -9.758233 -0.365854 16.901754
v -10.657595 2.164558 18.459496
v -24.183332 -5.032671 0.000000
v -19.707508 0.556895 0.000000
v -10.920816 -2.690996 -18.915409
v -11.947409 4.744158 -20.693520
v 12.188231 0.000000 -21.110638
v 22.014566 0.000000 0.000000
v 10.695832 0.000000 18.525724
v -10.645458 0.000000 18.438475
v 10.825317 7.223507 -6.250000
v -10.825317 4.063548 -6.250000
v 0.000000 0.097616 12.500000
v -20.641108 0.000000 0.000000
v -10.259922 0.000000 -17.770706
v 0.000000 -7.033771 -12.500000
v 10.825317 -6.472616 6.250000
v -10.825317 0.525962 6.250000
v 16.237976 1.611879 3.125000
v -5.412659 -2.463272 -15.625000
v -10.825317 1.013871 12.500000
v -10.825317 -4.087224 -12.500000
v 16.237976 2.257152 -3.125000
v -5.412659 -6.526928 15.625000
v 5.412659 2.237822 -15.625000
v -16.237976 0.617346 3.125000
v 10.825317 0.672295 12.500000
v 10.825317 -0.997846 -12.500000
v 5.412659 -2.983195 15.625000
v -16.237976 -5.893117 -3.125000
v -16.237976 -2.884381 9.375000
v 16.237976 -1.252383 9.375000
v 0.000000 -0.596720 -18.750000
v 0.000000 2.323915 18.750000
v -16.237976 3.458049 -9.375000
v 16.237976 6.064806 -9.375000
v -5.412659 -5.450207 -3.125000
v 5.412659 -4.957061 -3.125000
v 0.000000 -4.645969 6.250000
v 5.412659 2.629970 3.125000
v 0.000000 6.598101 -6.250000
v -5.412659 4.014193 3.125000
vn -0.0571 -0.9293 -0.3648
vn 0.8967 0.4424 -0.0130
vn 0.0077 -0.9976 -0.0693
vn -0.0112 -0.9742 0.2255
vn -0.3909 0.9000 0.1929
vn -0.8100 0.5701 -0.1372
vn -0.3667 0.4390 -0.8203
vn -0.1735 -0.8950 0.4109
vn 0.5292 0.7129 -0.4601
vn 0.9585 -0.2419 0.1511
vn 0.3003 -0.5146 0.8031
vn -0.3588 -0.0111 0.9334
vn -0.2521 0.9581 0.1362
vn 0.3470 0.7293 0.5897
vn 0.2193 0.9568 -0.1909
vn -0.5035 0.8441 0.1843
vn -0.3480 -0.5784 -0.7379
vn -0.4865 -0.8552 -0.1789
vn -0.6750 -0.7376 -0.0169
vn -0.4221 -0.4597 0.7814
vn 0.1114 -0.8488 0.5169
vn 0.4483 -0.8757 -0.1792
vn -0.0946 -0.9167 0.3882
vn 0.4437 -0.7255 0.5262
vn 0.4082 -0.7418 0.5321
vn -0.4392 -0.8982 0.0203
vn 0.4869 -0.8732 -0.0198
vn 0.0336 -0.6962 -0.7170
vn 0.1874 -0.9811 0.0476
vn -0.4497 -0.5790 -0.6801
vn -0.4807 0.8058 -0.3457
vn -0.0465 0.8755 -0.4809
vn -0.1793 0.9268 -0.3301
vn -0.0212 0.9690 0.2463
vn -0.2178 0.9501 0.2235
vn -0.2276 0.9508 0.2100
vn -0.2387 0.9709 0.0199
vn -0.2447 0.9075 -0.3414
vn -0.0028 0.9360 -0.3519
vn 0.7121 0.5967 -0.3700
vn -0.4127 -0.0112 0.9108
vn 0.5338 -0.5157 0.6702
vn 0.9477 -0.2392 -0.2112
vn 0.2464 0.7281 -0.6397
vn -0.2626 -0.9648 0.0114
vn 0.0447 -0.9805 0.1914
vn -0.1606 -0.9517 0.2615
vn -0.3896 -0.7931 -0.4682
vn -0.8819 -0.4697 -0.0416
vn 0.0823 0.8753 0.4764
vn -0.0525 0.9084 0.4148
vn -0.2948 0.9394 0.1751
vn -0.2914 -0.5584 0.7767
vn 0.4180 0.5335 0.7353
vn 0.7682 0.6293 -0.1175
vn 0.1500 -0.4138 -0.8979
vn 0.5785 0.6497 -0.4931
vn 0.8382 0.5441 0.0366
vn 0.2844 -0.5597 0.7784
vn -0.4426 -0.4815 0.7565
vn -0.5977 -0.7942 -0.1096
vn -0.4297 -0.3779 -0.8201
vn -0.5671 0.4364 -0.6985
vn -0.8149 0.5736 0.0831
vn -0.0941 -0.9794 0.1789
vn -0.3191 -0.9397 0.1231
vn 0.8954 0.4418 -0.0552
vn 0.1007 -0.9540 -0.2824
vn 0.0792 0.9353 0.3450
vn -0.2968 0.9459 0.1314
vn 0.2220 0.9603 -0.1688
vn 0.1200 0.9388 0.3229
vn 0.1198 0.9372 0.3275
vn -0.2259 0.9647 0.1355
vn -0.0813 0.9953 0.0528
vn 0.0925 0.9840 0.1521
vn -0.0516 0.9712 0.2326
vn -0.3960 -0.8289 -0.3950
vn 0.3111 -0.9503 -0.0111
vn 0.2621 -0.8007 0.5388
vn -0.4098 -0.8578 0.3102
vn 0.0454 -0.9972 0.0593
vn -0.1661 -0.9841 -0.0632
vn -0.4891 -0.7596 -0.4287
vn 0.0403 -0.9852 -0.1665
vn 0.0341 -0.8337 0.5511
vn 0.4851 -0.8701 -0.0874
vn 0.5543 -0.8317 -0.0312
vn 0.5048 -0.7575 -0.4139
vn -0.0516 0.8938 -0.4455
vn -0.3330 0.7667 -0.5489
vn -0.1772 0.7568 -0.6292
vn -0.0346 0.8486 0.5279
vn 0.7500 0.6609 -0.0271
vn 0.0828 0.9781 -0.1912
vn -0.2572 -0.9450 -0.2018
vn -0.2937 -0.6091 -0.7367
vn -0.8135 -0.5806 0.0329
vn -0.2927 -0.7998 -0.5240
vn 0.4783 -0.8698 -0.1207
vn -0.1351 -0.9347 0.3287
vn 0.3988 -0.6882 0.6061
vn 0.3220 -0.7093 0.6271
vn -0.3514 -0.9237 -0.1528
vn -0.2135 -0.9744 0.0709
vn 0.1430 -0.6894 -0.7101
vn -0.0675 -0.9965 0.0483
vn -0.1062 0.8760 -0.4705
vn -0.0049 0.9420 -0.3356
vn -0.3051 0.9230 0.2346
vn 0.1692 0.9637 -0.2065
vn -0.1438 0.9879 0.0577
vn -0.3172 0.9328 0.1713
vn -0.0665 0.9975 -0.0257
vn 0.2407 0.9689 0.0577
vn 0.5866 0.5862 -0.5589
vt 0.916667 0.750000
vt 0.833333 0.500000
vt 0.916667 0.500000
vt 0.750000 0.750000
vt 0.666667 0.500000
vt 0.750000 0.500000
vt 0.583333 0.750000
vt 0.500000 0.500000
vt 0.583333 0.500000
vt 0.416667 0.750000
vt 0.333333 0.500000
vt 0.416667 0.500000
vt 0.250000 0.490000
vt 0.198038 0.400000
vt 0.301962 0.400000
vt 0.250000 0.750000
vt 0.166667 0.500000
vt 0.250000 0.500000
vt 0.083333 0.750000
vt -0.000000 0.500000
vt 0.083333 0.500000
vt 0.957846 0.370000
vt 0.905885 0.280000
vt 0.853923 0.370000
vt 0.833333 1.000000
vt 0.916667 1.000000
vt 0.666667 1.000000
vt 0.750000 1.000000
vt 0.500000 1.000000
vt 0.583333 1.000000
vt 0.333333 1.000000
vt 0.416667 1.000000
vt 0.457846 0.250000
vt 0.405885 0.220000
vt 0.457846 0.130000
vt 0.146077 0.430000
vt 0.146077 0.070000
vt 0.146077 0.130000
vt 0.042154 0.130000
vt 0.166667 1.000000
vt 0.250000 1.000000
vt -0.000000 1.000000
vt 0.083333 1.000000
vt 0.646077 0.430000
vt 0.646077 0.370000
vt 0.542154 0.370000
vt 0.957846 0.250000
vt 0.646077 0.070000
vt 0.698038 0.100000
vt 0.750000 0.010000
vt 0.542154 0.250000
vt 0.594115 0.280000
vt 0.646077 0.190000
vt 0.594115 0.160000
vt 0.542154 0.130000
vt 0.853923 0.070000
vt 0.801962 0.100000
vt 0.853923 0.190000
vt 0.905885 0.160000
vt 0.957846 0.130000
vt 0.853923 0.430000
vt 0.750000 0.370000
vt 0.750000 0.430000
vt 0.750000 0.490000
vt 0.353923 0.070000
vt 0.353923 0.130000
vt 0.250000 0.130000
vt 0.250000 0.070000
vt 0.250000 0.010000
vt 0.042154 0.250000
vt 0.094115 0.220000
vt 0.146077 0.310000
vt 0.094115 0.340000
vt 0.042154 0.370000
vt 0.353923 0.430000
vt 0.353923 0.310000
vt 0.405885 0.340000
vt 0.457846 0.370000
vt 1.000000 1.000000
vt 0.698038 0.280000
vt 0.801962 0.280000
vt 0.750000 0.190000
vt 0.301962 0.220000
vt 0.250000 0.310000
vt 0.198038 0.220000
vt 1.000000 0.500000
s 0
f 25/1/1 3/2/1 13/3/1
f 26/4/2 5/5/2 15/6/2
f 27/7/3 7/8/3 17/9/3
f 28/10/4 9/11/4 19/12/4
f 2/13/5 38/14/5 43/15/5
f 32/16/6 11/17/6 21/18/6
f 33/19/7 1/20/7 23/21/7
f 3/22/8 41/23/8 46/24/8
f 4/25/9 25/1/9 14/26/9
f 6/27/10 26/4/10 16/28/10
f 8/29/11 27/7/11 18/30/11
f 10/31/12 28/10/12 20/32/12
f 16/33/13 37/34/13 6/35/13
f 24/36/14 38/14/14 2/13/14
f 20/37/15 39/38/15 10/39/15
f 12/40/16 32/16/16 22/41/16
f 2/42/17 33/19/17 24/43/17
f 23/44/18 40/45/18 11/46/18
f 15/47/19 41/23/19 3/22/19
f 19/48/20 42/49/20 7/50/20
f 21/51/21 48/52/21 36/53/21
f 36/53/22 49/54/22 21/51/22
f 9/55/23 49/54/23 19/48/23
f 17/56/24 47/57/24 35/58/24
f 35/58/25 50/59/25 17/56/25
f 5/60/26 50/59/26 15/47/26
f 13/61/27 46/24/27 34/62/27
f 34/62/28 51/63/28 13/61/28
f 1/64/29 51/63/29 23/44/29
f 12/40/30 24/43/30 33/19/30
f 10/31/31 22/41/31 32/16/31
f 18/65/32 45/66/32 31/67/32
f 31/67/33 52/68/33 18/65/33
f 8/69/34 52/68/34 20/37/34
f 22/70/35 44/71/35 30/72/35
f 30/72/36 53/73/36 22/70/36
f 12/74/37 53/73/37 24/36/37
f 14/75/38 43/15/38 29/76/38
f 29/76/39 54/77/39 14/75/39
f 4/78/40 54/77/40 16/33/40
f 8/29/41 20/32/41 28/10/41
f 6/27/42 18/30/42 27/7/42
f 4/25/43 16/28/43 26/4/43
f 2/79/44 14/26/44 25/1/44
f 34/62/45 55/80/45 40/45/45
f 34/62/46 56/81/46 55/80/46
f 35/58/47 47/57/47 57/82/47
f 33/19/48 11/17/48 12/40/48
f 32/16/49 9/11/49 10/31/49
f 29/76/50 58/83/50 37/34/50
f 29/76/51 59/84/51 58/83/51
f 30/72/52 44/71/52 60/85/52
f 28/10/53 7/8/53 8/29/53
f 27/7/54 5/5/54 6/27/54
f 26/4/55 3/2/55 4/25/55
f 25/1/56 1/86/56 2/79/56
f 4/25/57 3/2/57 25/1/57
f 6/27/58 5/5/58 26/4/58
f 8/29/59 7/8/59 27/7/59
f 10/31/60 9/11/60 28/10/60
f 12/40/61 11/17/61 32/16/61
f 2/42/62 1/20/62 33/19/62
f 33/19/63 23/21/63 11/17/63
f 32/16/64 21/18/64 9/11/64
f 28/10/65 19/12/65 7/8/65
f 27/7/66 17/9/66 5/5/66
f 26/4/67 15/6/67 3/2/67
f 25/1/68 13/3/68 1/86/68
f 60/85/69 39/38/69 31/67/69
f 60/85/70 44/71/70 39/38/70
f 44/71/71 10/39/71 39/38/71
f 58/83/72 60/85/72 31/67/72
f 58/83/73 59/84/73 60/85/73
f 59/84/74 30/72/74 60/85/74
f 37/34/75 45/66/75 6/35/75
f 37/34/76 58/83/76 45/66/76
f 58/83/77 31/67/77 45/66/77
f 57/82/78 42/49/78 36/53/78
f 57/82/79 47/57/79 42/49/79
f 47/57/80 7/50/80 42/49/80
f 55/80/81 57/82/81 36/53/81
f 55/80/82 56/81/82 57/82/82
f 56/81/83 35/58/83 57/82/83
f 40/45/84 48/52/84 11/46/84
f 40/45/85 55/80/85 48/52/85
f 55/80/86 36/53/86 48/52/86
f 46/24/87 56/81/87 34/62/87
f 46/24/88 41/23/88 56/81/88
f 41/23/89 35/58/89 56/81/89
f 43/15/90 59/84/90 29/76/90
f 43/15/91 38/14/91 59/84/91
f 38/14/92 30/72/92 59/84/92
f 16/33/93 29/76/93 37/34/93
f 24/36/94 30/72/94 38/14/94
f 20/37/95 31/67/95 39/38/95
f 23/44/96 34/62/96 40/45/96
f 15/47/97 35/58/97 41/23/97
f 19/48/98 36/53/98 42/49/98
f 21/51/99 11/46/99 48/52/99
f 36/53/100 19/48/100 49/54/100
f 9/55/101 21/51/101 49/54/101
f 17/56/102 7/50/102 47/57/102
f 35/58/103 15/47/103 50/59/103
f 5/60/104 17/56/104 50/59/104
f 13/61/105 3/22/105 46/24/105
f 34/62/106 23/44/106 51/63/106
f 1/64/107 13/61/107 51/63/107
f 18/65/108 6/35/108 45/66/108
f 31/67/109 20/37/109 52/68/109
f 8/69/110 18/65/110 52/68/110
f 22/70/111 10/39/111 44/71/111
f 30/72/112 24/36/112 53/73/112
f 12/74/113 22/70/113 53/73/113
f 14/75/114 2/13/114 43/15/114
f 29/76/115 16/33/115 54/77/115
f 4/78/116 14/75/116 54/77/116
