# Blender 4.3.0
# www.blender.org
o Cylinder
v 0.000000 -0.873603 -22.887260
v 0.000000 2.996519 -25.644987
v 19.424570 -0.521244 -11.214781
v 21.390985 2.269199 -12.350092
v 19.095644 -0.228883 11.024876
v 0.000000 -3.645469 26.487984
v 0.000000 3.050802 25.715509
v -23.709265 -4.329906 13.688551
v -19.046291 0.184990 10.996381
v -20.736084 -1.687054 -11.971984
v -23.476246 4.122776 -13.554018
v 10.611090 2.071548 -18.378946
v 25.149775 -5.999103 0.000000
v 20.506920 1.356297 0.000000
v 12.373706 -5.596744 21.431889
v 9.948497 0.746377 17.231302
v -11.582514 -4.014376 20.061502
v -9.960810 0.771003 17.252628
v -22.936390 -3.785741 0.000000
v -18.529495 -0.621107 0.000000
v -11.252208 -3.353771 -19.489395
v -9.139674 -0.871250 -15.830380
v 8.914286 0.000000 -15.439995
v 19.404648 0.000000 0.000000
v 10.356118 0.000000 17.937323
v -10.819593 0.000000 18.740086
v 10.825317 1.139955 -6.250000
v -10.825317 5.695849 -6.250000
v 0.000000 -2.302194 12.500000
v -22.845552 0.000000 0.000000
v -12.633984 0.000000 -21.882702
v 0.000000 -7.092556 -12.500000
v 10.825317 -2.201247 6.250000
v -10.825317 -2.046605 6.250000
v 16.237976 2.904184 3.125000
v -5.412659 0.580750 -15.625000
v -10.825317 0.620738 12.500000
v -10.825317 -1.973442 -12.500000
v 16.237976 -5.240666 -3.125000
v -5.412659 -2.534364 15.625000
v 5.412659 1.189905 -15.625000
v -16.237976 4.690957 3.125000
v 10.825317 5.699779 12.500000
v 10.825317 -0.838555 -12.500000
v 5.412659 -5.336196 15.625000
v -16.237976 -0.946110 -3.125000
v -16.237976 -2.124578 9.375000
v 16.237976 1.252375 9.375000
v 0.000000 -5.297218 -18.750000
v 0.000000 2.653282 18.750000
v -16.237976 -2.125981 -9.375000
v 16.237976 6.862155 -9.375000
v -5.412659 1.342216 -3.125000
v 5.412659 -1.935746 -3.125000
v 0.000000 -1.555588 6.250000
v 5.412659 4.777583 3.125000
v 0.000000 4.189837 -6.250000
v -5.412659 4.991384 3.125000
vn 0.7218 0.6912 0.0346
vn 0.3842 0.5847 0.7146
vn -0.4421 0.3551 0.8237
vn -0.0550 0.9770 0.2059
vn -0.9840 0.0236 -0.1767
vn -0.1046 -0.6059 -0.7886
vn 0.1027 -0.8763 -0.4707
vn 0.2662 -0.8535 -0.4479
vn 0.7760 -0.6307 0.0087
vn 0.5425 0.7144 0.4420
vn -0.2742 0.9093 0.3130
vn 0.4509 0.8735 0.1833
vn -0.3642 0.9309 0.0277
vn -0.0488 0.9986 -0.0227
vn 0.1366 0.9495 0.2825
vn -0.1592 0.9601 0.2301
vn -0.0180 -0.9807 0.1948
vn 0.0919 -0.8754 -0.4745
vn 0.1200 -0.9798 -0.1600
vn 0.2693 -0.9261 -0.2642
vn 0.0818 -0.9898 0.1169
vn 0.1482 -0.9608 -0.2345
vn 0.1565 -0.9603 -0.2307
vn 0.6147 -0.7541 -0.2313
vn -0.5226 -0.8389 0.1521
vn 0.4342 -0.7516 -0.4966
vn 0.5587 -0.7971 -0.2290
vn -0.0698 -0.6814 -0.7286
vn 0.3215 0.9456 -0.0495
vn 0.1421 0.9877 -0.0657
vn -0.4797 0.6490 0.5905
vn 0.0553 0.7824 -0.6203
vn -0.1772 0.9826 -0.0561
vn -0.7504 0.5443 -0.3749
vn -0.7340 0.6193 -0.2788
vn 0.3523 0.7669 0.5365
vn -0.1263 0.9889 0.0782
vn -0.7065 0.7046 0.0666
vn 0.6942 0.7125 0.1024
vn -0.3986 0.8878 0.2300
vn 0.4338 0.7328 0.5242
vn 0.7760 -0.6307 0.0089
vn 0.2419 -0.8533 -0.4618
vn -0.3720 -0.7866 0.4929
vn -0.2381 -0.7864 0.5700
vn -0.0559 -0.9368 -0.3455
vn -0.6433 -0.4683 -0.6056
vn -0.6190 0.7592 0.2011
vn 0.1640 0.9479 -0.2731
vn 0.2650 0.9407 -0.2120
vn -0.0276 0.9955 0.0908
vn -0.5582 0.0951 0.8242
vn 0.8224 -0.5682 0.0279
vn 0.5934 -0.4671 -0.6555
vn 0.2934 -0.5304 -0.7954
vn 0.6150 0.0904 0.7834
vn -0.4440 0.7505 0.4896
vn -0.8903 -0.4455 -0.0941
vn -0.1043 -0.5771 -0.8100
vn -0.5501 -0.6233 -0.5558
vn -0.9982 0.0240 -0.0554
vn -0.4621 0.3553 0.8125
vn 0.5147 0.5799 0.6315
vn 0.7219 0.6913 -0.0308
vn 0.2235 0.8276 0.5149
vn -0.0253 0.9116 0.4104
vn -0.1302 0.8798 0.4572
vn 0.0157 0.7935 0.6083
vn 0.0197 0.9971 -0.0739
vn 0.1378 0.9904 -0.0051
vn 0.5916 0.7996 0.1031
vn 0.1674 0.9671 -0.1918
vn -0.5747 0.7775 0.2553
vn 0.0452 -0.9959 -0.0779
vn -0.2433 -0.9401 -0.2386
vn -0.2505 -0.9678 0.0258
vn 0.0430 -0.9473 -0.3176
vn -0.2874 -0.9493 -0.1275
vn -0.0595 -0.9982 0.0061
vn -0.0237 -0.9952 0.0954
vn 0.2017 -0.9542 0.2210
vn 0.2014 -0.9526 -0.2281
vn 0.4917 -0.8511 0.1843
vn -0.2811 -0.9209 -0.2701
vn -0.2891 -0.9470 0.1401
vn 0.2681 0.9517 -0.1497
vn -0.0530 0.9418 -0.3320
vn 0.1251 0.8995 -0.4185
vn 0.1505 0.9521 -0.2661
vn -0.2689 0.7717 -0.5763
vn 0.2599 0.9625 -0.0777
vn -0.4188 -0.8857 0.2005
vn -0.1591 -0.9624 0.2202
vn 0.1404 -0.9812 -0.1321
vn 0.3488 -0.9319 -0.0993
vn -0.0692 -0.9871 -0.1444
vn 0.2708 -0.9624 -0.0230
vn -0.1168 -0.9885 0.0957
vn 0.0919 -0.7435 0.6624
vn -0.1353 -0.8423 -0.5218
vn 0.0830 -0.9428 -0.3229
vn -0.1463 -0.9508 -0.2731
vn 0.5607 -0.5656 -0.6048
vn 0.5097 0.5454 0.6654
vn -0.0546 0.7824 -0.6204
vn 0.1797 0.9821 -0.0560
vn -0.8992 0.4313 -0.0739
vn -0.5868 0.6160 -0.5255
vn 0.6418 0.7661 0.0339
vn -0.0563 0.9768 0.2065
vn -0.3982 0.7002 0.5926
vn 0.3178 0.7403 -0.5925
vt 0.750000 0.750000
vt 0.666667 0.500000
vt 0.750000 0.500000
vt 0.583333 0.750000
vt 0.500000 0.500000
vt 0.583333 0.500000
vt 0.416667 0.750000
vt 0.333333 0.500000
vt 0.416667 0.500000
vt 0.250000 0.490000
vt 0.198038 0.400000
vt 0.301962 0.400000
vt 0.250000 0.750000
vt 0.166667 0.500000
vt 0.250000 0.500000
vt 0.083333 0.750000
vt -0.000000 0.500000
vt 0.083333 0.500000
vt 0.957846 0.370000
vt 0.905885 0.280000
vt 0.853923 0.370000
vt 0.833333 1.000000
vt 0.916667 0.750000
vt 0.916667 1.000000
vt 0.666667 1.000000
vt 0.750000 1.000000
vt 0.500000 1.000000
vt 0.583333 1.000000
vt 0.333333 1.000000
vt 0.416667 1.000000
vt 0.457846 0.250000
vt 0.405885 0.220000
vt 0.457846 0.130000
vt 0.146077 0.430000
vt 0.146077 0.070000
vt 0.146077 0.130000
vt 0.042154 0.130000
vt 0.166667 1.000000
vt 0.250000 1.000000
vt -0.000000 1.000000
vt 0.083333 1.000000
vt 0.646077 0.430000
vt 0.646077 0.370000
vt 0.542154 0.370000
vt 0.957846 0.250000
vt 0.646077 0.070000
vt 0.698038 0.100000
vt 0.750000 0.010000
vt 0.542154 0.250000
vt 0.594115 0.280000
vt 0.646077 0.190000
vt 0.594115 0.160000
vt 0.542154 0.130000
vt 0.853923 0.070000
vt 0.801962 0.100000
vt 0.853923 0.190000
vt 0.905885 0.160000
vt 0.957846 0.130000
vt 0.853923 0.430000
vt 0.750000 0.370000
vt 0.750000 0.430000
vt 0.750000 0.490000
vt 0.353923 0.070000
vt 0.353923 0.130000
vt 0.250000 0.130000
vt 0.250000 0.070000
vt 0.250000 0.010000
vt 0.042154 0.250000
vt 0.094115 0.220000
vt 0.146077 0.310000
vt 0.094115 0.340000
vt 0.042154 0.370000
vt 0.353923 0.430000
vt 0.353923 0.310000
vt 0.405885 0.340000
vt 0.457846 0.370000
vt 1.000000 1.000000
vt 0.698038 0.280000
vt 0.801962 0.280000
vt 0.750000 0.190000
vt 0.301962 0.220000
vt 0.250000 0.310000
vt 0.198038 0.220000
vt 0.833333 0.500000
vt 1.000000 0.500000
s 0
f 24/1/1 5/2/1 13/3/1
f 25/4/2 6/5/2 15/6/2
f 26/7/3 8/8/3 17/9/3
f 2/10/4 36/11/4 41/12/4
f 30/13/5 10/14/5 19/15/5
f 31/16/6 1/17/6 21/18/6
f 3/19/7 39/20/7 44/21/7
f 4/22/8 23/23/8 12/24/8
f 5/25/9 24/1/9 14/26/9
f 7/27/10 25/4/10 16/28/10
f 9/29/11 26/7/11 18/30/11
f 14/31/12 35/32/12 5/33/12
f 22/34/13 36/11/13 2/10/13
f 18/35/14 37/36/14 9/37/14
f 11/38/15 30/13/15 20/39/15
f 2/40/16 31/16/16 22/41/16
f 21/42/17 38/43/17 10/44/17
f 13/45/18 39/20/18 3/19/18
f 17/46/19 40/47/19 6/48/19
f 19/49/20 46/50/20 34/51/20
f 34/51/21 47/52/21 19/49/21
f 8/53/22 47/52/22 17/46/22
f 15/54/23 45/55/23 33/56/23
f 33/56/24 48/57/24 15/54/24
f 5/58/25 48/57/25 13/45/25
f 23/59/26 44/21/26 32/60/26
f 32/60/27 49/61/27 23/59/27
f 1/62/28 49/61/28 21/42/28
f 11/38/29 22/41/29 31/16/29
f 9/29/30 20/39/30 30/13/30
f 16/63/31 43/64/31 29/65/31
f 29/65/32 50/66/32 16/63/32
f 7/67/33 50/66/33 18/35/33
f 20/68/34 42/69/34 28/70/34
f 28/70/35 51/71/35 20/68/35
f 11/72/36 51/71/36 22/34/36
f 12/73/37 41/12/37 27/74/37
f 27/74/38 52/75/38 12/73/38
f 4/76/39 52/75/39 14/31/39
f 7/27/40 18/30/40 26/7/40
f 5/25/41 16/28/41 25/4/41
f 4/22/42 14/26/42 24/1/42
f 2/77/43 12/24/43 23/23/43
f 32/60/44 53/78/44 38/43/44
f 32/60/45 54/79/45 53/78/45
f 33/56/46 45/55/46 55/80/46
f 31/16/47 10/14/47 11/38/47
f 30/13/48 8/8/48 9/29/48
f 27/74/49 56/81/49 35/32/49
f 27/74/50 57/82/50 56/81/50
f 28/70/51 42/69/51 58/83/51
f 26/7/52 6/5/52 7/27/52
f 24/1/53 3/84/53 4/22/53
f 23/23/54 1/85/54 2/77/54
f 4/22/55 3/84/55 23/23/55
f 7/27/56 6/5/56 25/4/56
f 9/29/57 8/8/57 26/7/57
f 11/38/58 10/14/58 30/13/58
f 2/40/59 1/17/59 31/16/59
f 31/16/60 21/18/60 10/14/60
f 30/13/61 19/15/61 8/8/61
f 26/7/62 17/9/62 6/5/62
f 25/4/63 15/6/63 5/2/63
f 24/1/64 13/3/64 3/84/64
f 58/83/65 37/36/65 29/65/65
f 58/83/66 42/69/66 37/36/66
f 42/69/67 9/37/67 37/36/67
f 56/81/68 58/83/68 29/65/68
f 56/81/69 57/82/69 58/83/69
f 57/82/70 28/70/70 58/83/70
f 35/32/71 43/64/71 5/33/71
f 35/32/72 56/81/72 43/64/72
f 56/81/73 29/65/73 43/64/73
f 55/80/74 40/47/74 34/51/74
f 55/80/75 45/55/75 40/47/75
f 45/55/76 6/48/76 40/47/76
f 53/78/77 55/80/77 34/51/77
f 53/78/78 54/79/78 55/80/78
f 54/79/79 33/56/79 55/80/79
f 38/43/80 46/50/80 10/44/80
f 38/43/81 53/78/81 46/50/81
f 53/78/82 34/51/82 46/50/82
f 44/21/83 54/79/83 32/60/83
f 44/21/84 39/20/84 54/79/84
f 39/20/85 33/56/85 54/79/85
f 41/12/86 57/82/86 27/74/86
f 41/12/87 36/11/87 57/82/87
f 36/11/88 28/70/88 57/82/88
f 14/31/89 27/74/89 35/32/89
f 22/34/90 28/70/90 36/11/90
f 18/35/91 29/65/91 37/36/91
f 21/42/92 32/60/92 38/43/92
f 13/45/93 33/56/93 39/20/93
f 17/46/94 34/51/94 40/47/94
f 19/49/95 10/44/95 46/50/95
f 34/51/96 17/46/96 47/52/96
f 8/53/97 19/49/97 47/52/97
f 15/54/98 6/48/98 45/55/98
f 33/56/99 13/45/99 48/57/99
f 5/58/100 15/54/100 48/57/100
f 23/59/101 3/19/101 44/21/101
f 32/60/102 21/42/102 49/61/102
f 1/62/103 23/59/103 49/61/103
f 16/63/104 5/33/104 43/64/104
f 29/65/105 18/35/105 50/66/105
f 7/67/106 16/63/106 50/66/106
f 20/68/107 9/37/107 42/69/107
f 28/70/108 22/34/108 51/71/108
f 11/72/109 20/68/109 51/71/109
f 12/73/110 2/10/110 41/12/110
f 27/74/111 14/31/111 52/75/111
f 4/76/112 12/73/112 52/75/112
