# Blender 4.3.0
# www.blender.org
o Cylinder
v 0.000000 -2.761379 -25.339539
v 0.000000 2.007457 -24.360178
v 18.275852 0.499855 -10.551568
v 21.470936 2.340267 -12.396252
v 19.332165 -0.439125 11.161430
v 24.859428 5.352307 14.352598
v 0.000000 -1.661003 23.910128
v 0.000000 4.839331 28.038862
v -18.666391 0.152678 10.777046
v -20.203049 1.213236 11.664235
v -21.216257 -2.113880 -12.249211
v -22.367701 3.137395 -12.913998
v 9.912945 -0.675273 -17.169724
v 10.420419 1.690211 -18.048695
v 24.864561 -5.713891 0.000000
v 24.363710 5.213047 0.000000
v 11.729891 -4.309127 20.316767
v 9.632129 0.113648 16.683336
v -11.037566 -2.924494 19.117626
v -11.162680 3.174718 19.334330
v -21.964285 -2.813647 0.000000
v -23.950544 4.799886 0.000000
v -12.247774 -5.344884 -21.213768
v -10.449148 1.747670 -18.098455
v 10.696568 0.000000 -18.526999
v 20.745207 0.000000 0.000000
v 10.320070 0.000000 17.874887
v -9.811742 0.000000 16.994434
v 10.825317 1.723412 -6.250000
v -10.825317 -0.190146 -6.250000
v 0.000000 -0.893802 12.500000
v -25.022863 0.000000 0.000000
v -9.065733 0.000000 -15.702310
v 0.000000 -4.611752 -12.500000
v 10.825317 -6.133503 6.250000
v -10.825317 -1.636499 6.250000
v 16.237976 -0.192332 3.125000
v -5.412659 5.818081 -15.625000
v -10.825317 2.613519 12.500000
v -10.825317 -3.050220 -12.500000
v 16.237976 -0.588782 -3.125000
v -5.412659 -1.660341 15.625000
v 5.412659 -1.690722 -15.625000
v -16.237976 7.123339 3.125000
v 10.825317 0.108470 12.500000
v 10.825317 2.026513 -12.500000
v 5.412659 0.252940 15.625000
v -16.237976 -2.578637 -3.125000
v -16.237976 0.540280 9.375000
v 16.237976 -3.789163 9.375000
v 0.000000 -1.120636 -18.750000
v 0.000000 -0.458056 18.750000
v -16.237976 6.429915 -9.375000
v 16.237976 -0.985713 -9.375000
v -5.412659 -1.328098 -3.125000
v 5.412659 1.113571 -3.125000
v 0.000000 1.070961 6.250000
v 5.412659 5.245641 3.125000
v 0.000000 2.719946 -6.250000
v -5.412659 6.616938 3.125000
vn 0.3325 -0.9068 -0.2592
vn 0.8048 0.5802 0.1247
vn 0.3556 0.5461 0.7584
vn -0.4335 0.6413 0.6331
vn 0.5699 0.8217 -0.0053
vn -0.6747 -0.7334 -0.0831
vn -0.3445 0.7655 -0.5434
vn -0.1510 -0.9713 -0.1838
vn 0.4184 0.3100 -0.8537
vn 0.8213 -0.5701 -0.0228
vn 0.3359 0.9361 -0.1046
vn -0.4062 -0.6478 0.6444
vn -0.5509 0.8345 0.0109
vn -0.3469 0.7617 -0.5472
vn -0.1394 0.9863 -0.0879
vn -0.9655 0.2157 -0.1461
vn -0.2589 -0.8454 -0.4671
vn -0.0801 -0.9606 0.2661
vn -0.4281 -0.8699 -0.2450
vn 0.1570 -0.9822 -0.1027
vn 0.0726 -0.9957 0.0581
vn -0.1309 -0.9054 0.4039
vn -0.0331 -0.9471 -0.3192
vn -0.6455 -0.7510 0.1389
vn 0.3470 -0.9327 0.0986
vn 0.4439 -0.7050 0.5532
vn 0.4868 -0.7939 0.3642
vn 0.1162 -0.8671 -0.4844
vn 0.2750 -0.9329 0.2323
vn -0.2931 -0.8451 -0.4472
vn -0.9121 0.2038 0.3557
vn -0.0922 0.9954 -0.0275
vn -0.0739 0.9948 -0.0694
vn 0.2487 0.8414 -0.4798
vn 0.0095 0.7911 -0.6116
vn 0.5109 0.6712 0.5370
vn -0.1367 0.8322 -0.5374
vn -0.5539 0.8324 0.0167
vn 0.4394 0.8981 -0.0176
vn -0.5602 0.8262 -0.0607
vn -0.4060 -0.6478 0.6446
vn -0.2805 0.9266 0.2503
vn 0.8200 -0.5692 -0.0595
vn 0.4994 0.3105 -0.8089
vn -0.1380 -0.9569 0.2555
vn 0.1992 -0.8833 0.4244
vn -0.5378 -0.8082 0.2400
vn -0.2411 -0.1737 -0.9548
vn -0.4366 -0.8583 0.2697
vn 0.4476 0.8910 -0.0763
vn 0.0873 0.9481 -0.3058
vn 0.0373 0.7983 -0.6012
vn -0.5655 -0.4422 0.6962
vn 0.4012 -0.7051 0.5847
vn 0.4307 -0.8911 -0.1430
vn 0.4965 0.1746 -0.8503
vn 0.3530 -0.8929 -0.2795
vn 0.7049 -0.7066 0.0614
vn 0.5017 -0.4638 0.7302
vn -0.3237 -0.8374 0.4404
vn -0.9385 -0.2375 -0.2507
vn -0.6999 0.1437 -0.6996
vn -0.2956 0.7654 -0.5716
vn -0.6265 -0.6810 0.3792
vn -0.3659 0.6423 0.6734
vn 0.5183 0.5437 0.6602
vn 0.8007 0.5773 -0.1600
vn 0.3773 -0.8974 -0.2287
vn 0.2661 0.8214 0.5044
vn 0.0426 0.9097 0.4130
vn -0.1713 0.8455 0.5057
vn 0.1019 0.8042 0.5855
vn 0.1190 0.9393 -0.3218
vn -0.2273 0.8457 -0.4828
vn -0.3172 0.9242 -0.2128
vn 0.4374 0.8708 0.2246
vn -0.0791 0.8543 0.5138
vn 0.2402 -0.9604 -0.1411
vn 0.1711 -0.9681 -0.1833
vn 0.1729 -0.9784 -0.1131
vn 0.2412 -0.9645 0.1075
vn 0.2184 -0.9682 0.1217
vn -0.5271 -0.7920 -0.3079
vn -0.0898 -0.9960 -0.0017
vn 0.1140 -0.9868 0.1154
vn 0.1147 -0.9928 0.0336
vn 0.5107 -0.8328 0.2137
vn -0.1527 -0.9712 -0.1828
vn -0.1288 -0.8192 -0.5589
vn 0.0846 0.9195 -0.3837
vn 0.5690 0.8203 -0.0574
vn -0.2350 0.8743 0.4246
vn -0.3970 0.8270 0.3982
vn -0.6550 0.7487 0.1017
vn 0.3076 0.9494 -0.0628
vn -0.1373 -0.9521 0.2731
vn -0.2412 -0.7679 -0.5934
vn 0.1614 -0.9822 -0.0957
vn 0.0102 -0.9984 -0.0564
vn -0.4192 -0.9027 -0.0973
vn 0.2569 -0.9490 0.1826
vn -0.3177 -0.8571 -0.4056
vn 0.1877 -0.9137 0.3603
vn 0.6493 -0.7240 0.2331
vn -0.3000 -0.7991 0.5210
vn 0.3708 -0.8108 -0.4529
vn 0.0051 -0.9704 0.2416
vn -0.3371 0.9364 -0.0973
vn 0.3056 0.9498 -0.0662
vn -0.1559 0.8580 -0.4893
vn -0.4058 0.8288 0.3852
vn 0.7360 0.6640 0.1320
vn -0.3913 0.9054 -0.1645
vn -0.2905 0.8032 0.5201
vn 0.0638 0.8061 -0.5883
vn -0.2798 0.8484 0.4494
vt 0.916667 0.750000
vt 0.833333 0.500000
vt 0.916667 0.500000
vt 0.750000 0.750000
vt 0.666667 0.500000
vt 0.750000 0.500000
vt 0.583333 0.750000
vt 0.500000 0.500000
vt 0.583333 0.500000
vt 0.416667 0.750000
vt 0.333333 0.500000
vt 0.416667 0.500000
vt 0.250000 0.490000
vt 0.198038 0.400000
vt 0.301962 0.400000
vt 0.250000 0.750000
vt 0.166667 0.500000
vt 0.250000 0.500000
vt 0.083333 0.750000
vt -0.000000 0.500000
vt 0.083333 0.500000
vt 0.957846 0.370000
vt 0.905885 0.280000
vt 0.853923 0.370000
vt 0.833333 1.000000
vt 0.916667 1.000000
vt 0.666667 1.000000
vt 0.750000 1.000000
vt 0.500000 1.000000
vt 0.583333 1.000000
vt 0.333333 1.000000
vt 0.416667 1.000000
vt 0.457846 0.250000
vt 0.405885 0.220000
vt 0.457846 0.130000
vt 0.146077 0.430000
vt 0.146077 0.070000
vt 0.146077 0.130000
vt 0.042154 0.130000
vt 0.166667 1.000000
vt 0.250000 1.000000
vt -0.000000 1.000000
vt 0.083333 1.000000
vt 0.646077 0.430000
vt 0.646077 0.370000
vt 0.542154 0.370000
vt 0.957846 0.250000
vt 0.646077 0.070000
vt 0.698038 0.100000
vt 0.750000 0.010000
vt 0.542154 0.250000
vt 0.594115 0.280000
vt 0.646077 0.190000
vt 0.594115 0.160000
vt 0.542154 0.130000
vt 0.853923 0.070000
vt 0.801962 0.100000
vt 0.853923 0.190000
vt 0.905885 0.160000
vt 0.957846 0.130000
vt 0.853923 0.430000
vt 0.750000 0.370000
vt 0.750000 0.430000
vt 0.750000 0.490000
vt 0.353923 0.070000
vt 0.353923 0.130000
vt 0.250000 0.130000
vt 0.250000 0.070000
vt 0.250000 0.010000
vt 0.042154 0.250000
vt 0.094115 0.220000
vt 0.146077 0.310000
vt 0.094115 0.340000
vt 0.042154 0.370000
vt 0.353923 0.430000
vt 0.353923 0.310000
vt 0.405885 0.340000
vt 0.457846 0.370000
vt 1.000000 1.000000
vt 0.698038 0.280000
vt 0.801962 0.280000
vt 0.750000 0.190000
vt 0.301962 0.220000
vt 0.250000 0.310000
vt 0.198038 0.220000
vt 1.000000 0.500000
s 0
f 25/1/1 3/2/1 13/3/1
f 26/4/2 5/5/2 15/6/2
f 27/7/3 7/8/3 17/9/3
f 28/10/4 9/11/4 19/12/4
f 2/13/5 38/14/5 43/15/5
f 32/16/6 11/17/6 21/18/6
f 33/19/7 1/20/7 23/21/7
f 3/22/8 41/23/8 46/24/8
f 4/25/9 25/1/9 14/26/9
f 6/27/10 26/4/10 16/28/10
f 8/29/11 27/7/11 18/30/11
f 10/31/12 28/10/12 20/32/12
f 16/33/13 37/34/13 6/35/13
f 24/36/14 38/14/14 2/13/14
f 20/37/15 39/38/15 10/39/15
f 12/40/16 32/16/16 22/41/16
f 2/42/17 33/19/17 24/43/17
f 23/44/18 40/45/18 11/46/18
f 15/47/19 41/23/19 3/22/19
f 19/48/20 42/49/20 7/50/20
f 21/51/21 48/52/21 36/53/21
f 36/53/22 49/54/22 21/51/22
f 9/55/23 49/54/23 19/48/23
f 17/56/24 47/57/24 35/58/24
f 35/58/25 50/59/25 17/56/25
f 5/60/26 50/59/26 15/47/26
f 13/61/27 46/24/27 34/62/27
f 34/62/28 51/63/28 13/61/28
f 1/64/29 51/63/29 23/44/29
f 12/40/30 24/43/30 33/19/30
f 10/31/31 22/41/31 32/16/31
f 18/65/32 45/66/32 31/67/32
f 31/67/33 52/68/33 18/65/33
f 8/69/34 52/68/34 20/37/34
f 22/70/35 44/71/35 30/72/35
f 30/72/36 53/73/36 22/70/36
f 12/74/37 53/73/37 24/36/37
f 14/75/38 43/15/38 29/76/38
f 29/76/39 54/77/39 14/75/39
f 4/78/40 54/77/40 16/33/40
f 8/29/41 20/32/41 28/10/41
f 6/27/42 18/30/42 27/7/42
f 4/25/43 16/28/43 26/4/43
f 2/79/44 14/26/44 25/1/44
f 34/62/45 55/80/45 40/45/45
f 34/62/46 56/81/46 55/80/46
f 35/58/47 47/57/47 57/82/47
f 33/19/48 11/17/48 12/40/48
f 32/16/49 9/11/49 10/31/49
f 29/76/50 58/83/50 37/34/50
f 29/76/51 59/84/51 58/83/51
f 30/72/52 44/71/52 60/85/52
f 28/10/53 7/8/53 8/29/53
f 27/7/54 5/5/54 6/27/54
f 26/4/55 3/2/55 4/25/55
f 25/1/56 1/86/56 2/79/56
f 4/25/57 3/2/57 25/1/57
f 6/27/58 5/5/58 26/4/58
f 8/29/59 7/8/59 27/7/59
f 10/31/60 9/11/60 28/10/60
f 12/40/61 11/17/61 32/16/61
f 2/42/62 1/20/62 33/19/62
f 33/19/63 23/21/63 11/17/63
f 32/16/64 21/18/64 9/11/64
f 28/10/65 19/12/65 7/8/65
f 27/7/66 17/9/66 5/5/66
f 26/4/67 15/6/67 3/2/67
f 25/1/68 13/3/68 1/86/68
f 60/85/69 39/38/69 31/67/69
f 60/85/70 44/71/70 39/38/70
f 44/71/71 10/39/71 39/38/71
f 58/83/72 60/85/72 31/67/72
f 58/83/73 59/84/73 60/85/73
f 59/84/74 30/72/74 60/85/74
f 37/34/75 45/66/75 6/35/75
f 37/34/76 58/83/76 45/66/76
f 58/83/77 31/67/77 45/66/77
f 57/82/78 42/49/78 36/53/78
f 57/82/79 47/57/79 42/49/79
f 47/57/80 7/50/80 42/49/80
f 55/80/81 57/82/81 36/53/81
f 55/80/82 56/81/82 57/82/82
f 56/81/83 35/58/83 57/82/83
f 40/45/84 48/52/84 11/46/84
f 40/45/85 55/80/85 48/52/85
f 55/80/86 36/53/86 48/52/86
f 46/24/87 56/81/87 34/62/87
f 46/24/88 41/23/88 56/81/88
f 41/23/89 35/58/89 56/81/89
f 43/15/90 59/84/90 29/76/90
f 43/15/91 38/14/91 59/84/91
f 38/14/92 30/72/92 59/84/92
f 16/33/93 29/76/93 37/34/93
f 24/36/94 30/72/94 38/14/94
f 20/37/95 31/67/95 39/38/95
f 23/44/96 34/62/96 40/45/96
f 15/47/97 35/58/97 41/23/97
f 19/48/98 36/53/98 42/49/98
f 21/51/99 11/46/99 48/52/99
f 36/53/100 19/48/100 49/54/100
f 9/55/101 21/51/101 49/54/101
f 17/56/102 7/50/102 47/57/102
f 35/58/103 15/47/103 50/59/103
f 5/60/104 17/56/104 50/59/104
f 13/61/105 3/22/105 46/24/105
f 34/62/106 23/44/106 51/63/106
f 1/64/107 13/61/107 51/63/107
f 18/65/108 6/35/108 45/66/108
f 31/67/109 20/37/109 52/68/109
f 8/69/110 18/65/110 52/68/110
f 22/70/111 10/39/111 44/71/111
f 30/72/112 24/36/112 53/73/112
f 12/74/113 22/70/113 53/73/113
f 14/75/114 2/13/114 43/15/114
f 29/76/115 16/33/115 54/77/115
f 4/78/116 14/75/116 54/77/116
