# Blender 4.3.0
# www.blender.org
o Cylinder
v 0.000000 -0.378643 -22.244293
v 0.000000 3.949753 -26.883255
v 24.856651 -5.349838 -14.350995
v 19.948925 0.987360 -11.517518
v 24.271702 -4.829853 14.013274
v 19.658897 0.729540 11.350070
v 0.000000 -3.150121 25.844519
v 0.000000 2.037119 24.398705
v -20.568369 -1.537980 11.875154
v -19.064941 0.201569 11.007149
v -21.153427 -2.058031 -12.212937
v -24.560852 5.086876 -14.180215
v 11.738705 -4.326755 -20.332033
v 11.132468 3.114295 -19.282001
v 24.301052 -5.150389 0.000000
v 21.605219 2.454585 0.000000
v 10.207757 -1.264893 17.680355
v 11.329370 3.508095 19.623045
v -22.832897 -3.682250 0.000000
v -18.921059 -0.229547 0.000000
v -11.494314 -3.837979 -19.908735
v -11.052723 2.954806 -19.143877
v 11.607632 0.000000 -20.105007
v 24.080530 0.000000 0.000000
v 11.746694 0.000000 20.345871
v -9.467417 0.000000 16.398046
v 10.825317 6.056334 -6.250000
v -10.825317 3.427180 -6.250000
v 0.000000 2.493252 12.500000
v -22.579563 0.000000 0.000000
v -9.280609 0.000000 -16.074486
v 0.000000 -4.157587 -12.500000
v 10.825317 -2.508331 6.250000
v -10.825317 -2.106457 6.250000
v 16.237976 -0.213728 3.125000
v -5.412659 0.902200 -15.625000
v -10.825317 3.761468 12.500000
v -10.825317 -6.681379 -12.500000
v 16.237976 -2.370296 -3.125000
v -5.412659 2.386414 15.625000
v 5.412659 1.802928 -15.625000
v -16.237976 6.619354 3.125000
v 10.825317 1.846716 12.500000
v 10.825317 -1.641337 -12.500000
v 5.412659 -2.321966 15.625000
v -16.237976 -0.319779 -3.125000
v -16.237976 0.500859 9.375000
v 16.237976 -3.174314 9.375000
v 0.000000 -2.852621 -18.750000
v 0.000000 4.925140 18.750000
v -16.237976 5.042374 -9.375000
v 16.237976 2.668046 -9.375000
v -5.412659 0.813400 -3.125000
v 5.412659 0.243315 -3.125000
v 0.000000 -2.280773 6.250000
v 5.412659 -0.731872 3.125000
v 0.000000 1.037282 -6.250000
v -5.412659 4.518294 3.125000
vn 0.4180 0.0602 -0.9065
vn 0.9991 0.0428 0.0011
vn 0.3506 -0.9082 0.2286
vn -0.0808 0.9712 0.2241
vn -0.9896 0.0681 -0.1270
vn -0.3410 0.7555 -0.5594
vn -0.2466 -0.9668 0.0672
vn 0.6714 0.2834 -0.6848
vn 0.6864 0.6922 0.2229
vn 0.3527 0.2289 0.9073
vn -0.4124 0.9085 0.0674
vn 0.1405 0.9366 0.3211
vn -0.3846 0.5937 0.7069
vn 0.0591 0.9422 0.3297
vn -0.3195 -0.7681 -0.5550
vn -0.3970 -0.8683 -0.2974
vn -0.3261 -0.9453 0.0005
vn 0.3290 -0.7464 -0.5786
vn 0.2942 -0.8932 -0.3401
vn -0.1378 -0.8648 0.4828
vn 0.2530 -0.9167 -0.3093
vn 0.1664 -0.9793 0.1155
vn -0.1765 -0.9795 0.0970
vn -0.2139 -0.9766 0.0219
vn 0.2130 -0.9163 0.3390
vn -0.1488 -0.9680 -0.2021
vn 0.1272 -0.8095 -0.5731
vn -0.3242 -0.7681 -0.5522
vn 0.0626 0.9973 -0.0382
vn 0.0580 0.9713 -0.2307
vn 0.1430 0.9224 -0.3589
vn -0.4993 0.7714 0.3944
vn -0.6580 0.5104 -0.5537
vn -0.0197 0.8739 0.4858
vn 0.0968 0.9826 -0.1586
vn -0.3464 0.9133 -0.2143
vn 0.4410 0.8776 -0.1877
vn 0.3260 0.9308 -0.1655
vn 0.7234 0.2208 0.6542
vn 0.6915 0.6974 -0.1883
vn 0.5543 0.2907 -0.7799
vn 0.1906 -0.8175 0.5435
vn -0.0471 -0.8935 0.4466
vn -0.0210 -0.9997 0.0077
vn -0.2317 -0.3594 -0.9040
vn -0.6869 0.6968 0.2066
vn -0.0392 0.8200 0.5711
vn -0.3886 0.8382 0.3826
vn 0.1859 0.9579 -0.2188
vn -0.6571 0.2024 0.7261
vn 0.5224 0.6799 0.5146
vn 0.7274 0.6549 -0.2048
vn 0.1479 -0.7231 -0.6747
vn 0.5081 0.6475 -0.5680
vn 0.6936 0.6839 0.2263
vn 0.3543 0.2511 0.9008
vn -0.3627 0.6478 0.6700
vn -0.8988 -0.4372 -0.0313
vn -0.4352 -0.6583 -0.6142
vn -0.3174 0.7556 -0.5731
vn -0.9822 0.0676 0.1751
vn -0.0988 -0.8757 0.4726
vn 0.9984 0.0427 0.0381
vn 0.1792 0.0570 -0.9822
vn 0.1151 0.9826 0.1458
vn 0.1872 0.9646 0.1860
vn -0.4199 0.7717 0.4777
vn 0.4357 0.8983 -0.0575
vn 0.4349 0.8967 -0.0819
vn 0.2097 0.9499 -0.2316
vn 0.1039 0.9823 -0.1559
vn -0.0464 0.9697 -0.2399
vn 0.0570 0.9537 -0.2952
vn -0.0145 -0.8984 0.4389
vn -0.3890 -0.8944 0.2207
vn -0.3835 -0.8818 -0.2746
vn -0.0153 -0.9521 -0.3054
vn -0.0504 -0.9567 -0.2867
vn -0.0202 -0.9624 -0.2708
vn -0.3720 -0.8537 0.3645
vn 0.0839 -0.8014 0.5922
vn 0.1010 -0.9649 -0.2422
vn 0.2152 -0.9259 0.3104
vn -0.2343 -0.9703 0.0598
vn -0.2321 -0.9613 -0.1482
vn -0.4148 0.8946 -0.1664
vn -0.0829 0.9960 0.0335
vn 0.2135 0.9672 -0.1372
vn -0.0654 0.8116 0.5806
vn 0.3639 0.9305 -0.0405
vn 0.0857 0.7317 0.6762
vn 0.2112 -0.9060 -0.3668
vn -0.2633 -0.9503 -0.1660
vn 0.5193 -0.8479 0.1065
vn 0.4305 -0.9006 -0.0606
vn -0.3097 -0.9219 0.2328
vn 0.4588 -0.8856 0.0724
vn 0.2035 -0.9787 0.0285
vn -0.1610 -0.9845 0.0690
vn -0.2319 -0.9712 0.0549
vn -0.2075 -0.9325 0.2955
vn 0.1040 -0.9736 -0.2033
vn -0.1775 -0.8032 -0.5687
vn 0.0922 0.9682 -0.2324
vn -0.3672 0.8668 -0.3373
vn 0.0761 0.8878 0.4539
vn -0.9266 0.3752 -0.0268
vn 0.3070 0.9509 -0.0402
vn -0.2395 0.8739 0.4229
vn -0.0798 0.9714 0.2236
vn 0.4222 0.8790 -0.2217
vn 0.3431 0.9296 -0.1349
vt 0.916667 0.750000
vt 0.833333 0.500000
vt 0.916667 0.500000
vt 0.750000 0.750000
vt 0.666667 0.500000
vt 0.750000 0.500000
vt 0.583333 0.750000
vt 0.500000 0.500000
vt 0.583333 0.500000
vt 0.250000 0.490000
vt 0.198038 0.400000
vt 0.301962 0.400000
vt 0.250000 0.750000
vt 0.166667 0.500000
vt 0.250000 0.500000
vt 0.083333 0.750000
vt -0.000000 0.500000
vt 0.083333 0.500000
vt 0.957846 0.370000
vt 0.905885 0.280000
vt 0.853923 0.370000
vt 0.833333 1.000000
vt 0.916667 1.000000
vt 0.666667 1.000000
vt 0.750000 1.000000
vt 0.500000 1.000000
vt 0.583333 1.000000
vt 0.457846 0.250000
vt 0.405885 0.220000
vt 0.457846 0.130000
vt 0.146077 0.430000
vt 0.146077 0.070000
vt 0.146077 0.130000
vt 0.042154 0.130000
vt 0.166667 1.000000
vt 0.250000 1.000000
vt -0.000000 1.000000
vt 0.083333 1.000000
vt 0.646077 0.430000
vt 0.646077 0.370000
vt 0.542154 0.370000
vt 0.957846 0.250000
vt 0.646077 0.070000
vt 0.698038 0.100000
vt 0.750000 0.010000
vt 0.542154 0.250000
vt 0.594115 0.280000
vt 0.646077 0.190000
vt 0.594115 0.160000
vt 0.542154 0.130000
vt 0.853923 0.070000
vt 0.801962 0.100000
vt 0.853923 0.190000
vt 0.905885 0.160000
vt 0.957846 0.130000
vt 0.853923 0.430000
vt 0.750000 0.370000
vt 0.750000 0.430000
vt 0.750000 0.490000
vt 0.333333 1.000000
vt 0.353923 0.070000
vt 0.353923 0.130000
vt 0.250000 0.130000
vt 0.250000 0.070000
vt 0.250000 0.010000
vt 0.042154 0.250000
vt 0.094115 0.220000
vt 0.146077 0.310000
vt 0.094115 0.340000
vt 0.042154 0.370000
vt 0.353923 0.430000
vt 0.353923 0.310000
vt 0.405885 0.340000
vt 0.457846 0.370000
vt 1.000000 1.000000
vt 0.698038 0.280000
vt 0.801962 0.280000
vt 0.750000 0.190000
vt 0.333333 0.500000
vt 0.301962 0.220000
vt 0.250000 0.310000
vt 0.198038 0.220000
vt 0.416667 0.750000
vt 1.000000 0.500000
s 0
f 23/1/1 3/2/1 13/3/1
f 24/4/2 5/5/2 15/6/2
f 25/7/3 7/8/3 17/9/3
f 2/10/4 36/11/4 41/12/4
f 30/13/5 11/14/5 19/15/5
f 31/16/6 1/17/6 21/18/6
f 3/19/7 39/20/7 44/21/7
f 4/22/8 23/1/8 14/23/8
f 6/24/9 24/4/9 16/25/9
f 8/26/10 25/7/10 18/27/10
f 16/28/11 35/29/11 6/30/11
f 22/31/12 36/11/12 2/10/12
f 26/32/13 37/33/13 10/34/13
f 12/35/14 30/13/14 20/36/14
f 2/37/15 31/16/15 22/38/15
f 21/39/16 38/40/16 11/41/16
f 15/42/17 39/20/17 3/19/17
f 26/43/18 40/44/18 7/45/18
f 19/46/19 46/47/19 34/48/19
f 34/48/20 47/49/20 19/46/20
f 9/50/21 47/49/21 26/43/21
f 17/51/22 45/52/22 33/53/22
f 33/53/23 48/54/23 17/51/23
f 5/55/24 48/54/24 15/42/24
f 13/56/25 44/21/25 32/57/25
f 32/57/26 49/58/26 13/56/26
f 1/59/27 49/58/27 21/39/27
f 12/35/28 22/38/28 31/16/28
f 10/60/29 20/36/29 30/13/29
f 18/61/30 43/62/30 29/63/30
f 29/63/31 50/64/31 18/61/31
f 8/65/32 50/64/32 26/32/32
f 20/66/33 42/67/33 28/68/33
f 28/68/34 51/69/34 20/66/34
f 12/70/35 51/69/35 22/31/35
f 14/71/36 41/12/36 27/72/36
f 27/72/37 52/73/37 14/71/37
f 4/74/38 52/73/38 16/28/38
f 6/24/39 18/27/39 25/7/39
f 4/22/40 16/25/40 24/4/40
f 2/75/41 14/23/41 23/1/41
f 32/57/42 53/76/42 38/40/42
f 32/57/43 54/77/43 53/76/43
f 33/53/44 45/52/44 55/78/44
f 31/16/45 11/14/45 12/35/45
f 30/13/46 9/79/46 10/60/46
f 27/72/47 56/80/47 35/29/47
f 27/72/48 57/81/48 56/80/48
f 28/68/49 42/67/49 58/82/49
f 26/83/50 7/8/50 8/26/50
f 25/7/51 5/5/51 6/24/51
f 24/4/52 3/2/52 4/22/52
f 23/1/53 1/84/53 2/75/53
f 4/22/54 3/2/54 23/1/54
f 6/24/55 5/5/55 24/4/55
f 8/26/56 7/8/56 25/7/56
f 10/60/57 9/79/57 26/83/57
f 12/35/58 11/14/58 30/13/58
f 2/37/59 1/17/59 31/16/59
f 31/16/60 21/18/60 11/14/60
f 30/13/61 19/15/61 9/79/61
f 25/7/62 17/9/62 5/5/62
f 24/4/63 15/6/63 3/2/63
f 23/1/64 13/3/64 1/84/64
f 58/82/65 37/33/65 29/63/65
f 58/82/66 42/67/66 37/33/66
f 42/67/67 10/34/67 37/33/67
f 56/80/68 58/82/68 29/63/68
f 56/80/69 57/81/69 58/82/69
f 57/81/70 28/68/70 58/82/70
f 35/29/71 43/62/71 6/30/71
f 35/29/72 56/80/72 43/62/72
f 56/80/73 29/63/73 43/62/73
f 55/78/74 40/44/74 34/48/74
f 55/78/75 45/52/75 40/44/75
f 45/52/76 7/45/76 40/44/76
f 53/76/77 55/78/77 34/48/77
f 53/76/78 54/77/78 55/78/78
f 54/77/79 33/53/79 55/78/79
f 38/40/80 46/47/80 11/41/80
f 38/40/81 53/76/81 46/47/81
f 53/76/82 34/48/82 46/47/82
f 44/21/83 54/77/83 32/57/83
f 44/21/84 39/20/84 54/77/84
f 39/20/85 33/53/85 54/77/85
f 41/12/86 57/81/86 27/72/86
f 41/12/87 36/11/87 57/81/87
f 36/11/88 28/68/88 57/81/88
f 16/28/89 27/72/89 35/29/89
f 22/31/90 28/68/90 36/11/90
f 26/32/91 29/63/91 37/33/91
f 21/39/92 32/57/92 38/40/92
f 15/42/93 33/53/93 39/20/93
f 26/43/94 34/48/94 40/44/94
f 19/46/95 11/41/95 46/47/95
f 34/48/96 26/43/96 47/49/96
f 9/50/97 19/46/97 47/49/97
f 17/51/98 7/45/98 45/52/98
f 33/53/99 15/42/99 48/54/99
f 5/55/100 17/51/100 48/54/100
f 13/56/101 3/19/101 44/21/101
f 32/57/102 21/39/102 49/58/102
f 1/59/103 13/56/103 49/58/103
f 18/61/104 6/30/104 43/62/104
f 29/63/105 26/32/105 50/64/105
f 8/65/106 18/61/106 50/64/106
f 20/66/107 10/34/107 42/67/107
f 28/68/108 22/31/108 51/69/108
f 12/70/109 20/66/109 51/69/109
f 14/71/110 2/10/110 41/12/110
f 27/72/111 16/28/111 52/73/111
f 4/74/112 14/71/112 52/73/112
