# Blender 4.3.0
# www.blender.org
o Cylinder
v 0.000000 -1.058232 -23.127100
v 0.000000 1.283185 -23.419336
v 21.403400 -2.280233 -12.357260
v 23.486799 4.132156 -13.560110
v 18.986917 -0.132237 10.962102
v 21.595768 2.451229 12.468323
v 0.000000 -0.604859 22.538177
v 0.000000 3.215398 25.929323
v -24.696411 -5.207373 14.258480
v -20.780249 1.726311 11.997482
v -20.426548 -1.411905 -11.793273
v -21.577354 2.434862 -12.457692
v 9.628227 0.105844 -16.676579
v 21.367516 -2.216883 0.000000
v 23.154039 4.003388 0.000000
v 9.889235 -0.627856 17.128658
v 10.098981 1.047342 17.491947
v -10.542075 -1.933522 18.259411
v -11.036240 2.921841 19.115330
v -21.313683 -2.163052 0.000000
v -19.887295 0.736679 0.000000
v -10.605978 -2.061326 -18.370092
v -11.494284 3.837919 -19.908684
v 20.336720 0.000000 0.000000
v 12.579976 0.000000 21.789158
v -8.821091 0.000000 15.278577
v 10.825317 2.002727 -6.250000
v -10.825317 -0.654511 -6.250000
v 0.000000 -1.201833 12.500000
v -18.106878 0.000000 0.000000
v -11.105783 0.000000 -19.235783
v 0.000000 -0.427539 -12.500000
v 10.825317 -2.751930 6.250000
v -10.825317 0.118582 6.250000
v 16.237976 -1.906177 3.125000
v -5.412659 0.423504 -15.625000
v -10.825317 5.708230 12.500000
v -10.825317 1.387292 -12.500000
v 16.237976 -0.455282 -3.125000
v -5.412659 -6.146988 15.625000
v 5.412659 -0.226269 -15.625000
v -16.237976 0.983202 3.125000
v 10.825317 2.403889 12.500000
v 10.825317 0.282632 -12.500000
v 5.412659 -2.245882 15.625000
v -16.237976 0.322816 -3.125000
v -16.237976 1.400674 9.375000
v 16.237976 -1.839158 9.375000
v 0.000000 -3.778701 -18.750000
v 0.000000 4.555156 18.750000
v -16.237976 0.074820 -9.375000
v 16.237976 3.369567 -9.375000
v -5.412659 -3.640508 -3.125000
v 5.412659 1.186802 -3.125000
v 0.000000 -4.867206 6.250000
v 5.412659 -1.578448 3.125000
v 0.000000 4.785566 -6.250000
v -5.412659 3.732787 3.125000
vn 0.9007 0.4188 0.1160
vn 0.0539 -0.9933 0.1027
vn -0.3099 0.8693 0.3850
vn 0.0592 0.9869 0.1500
vn -0.5592 0.8290 0.0107
vn -0.3346 -0.4327 -0.8372
vn -0.2358 -0.9700 0.0598
vn 0.8174 -0.5752 0.0305
vn 0.2708 0.9595 0.0775
vn -0.2545 -0.8346 0.4886
vn -0.6458 0.7634 0.0143
vn 0.2943 0.9060 0.3043
vn -0.3629 0.8628 0.3519
vn -0.3813 -0.9215 -0.0739
vn -0.3259 -0.1952 -0.9250
vn 0.2766 -0.8240 0.4944
vn -0.3269 -0.9450 0.0039
vn -0.1994 -0.6824 0.7032
vn 0.3243 -0.9229 -0.2074
vn -0.0124 -0.9324 0.3611
vn 0.3279 -0.7959 -0.5089
vn 0.2704 -0.9403 0.2069
vn 0.0522 -0.9793 0.1957
vn 0.3999 -0.8806 0.2543
vn 0.0654 -0.9976 0.0235
vn 0.2460 -0.8542 0.4580
vn -0.1546 -0.8391 -0.5215
vn -0.5646 -0.1977 -0.8013
vn -0.3819 -0.9230 0.0477
vn -0.3092 0.9282 0.2072
vn 0.1686 0.7250 -0.6678
vn -0.1381 0.9736 0.1817
vn 0.0543 0.9885 -0.1413
vn 0.1418 0.9898 -0.0147
vn 0.1687 0.9017 0.3981
vn -0.1182 0.9793 -0.1646
vn -0.3150 0.9395 -0.1347
vn -0.1006 0.9949 0.0070
vn -0.2730 -0.8348 0.4781
vn -0.0121 0.9699 0.2434
vn 0.8177 -0.5754 0.0146
vn -0.1517 -0.9049 -0.3977
vn 0.4060 -0.9106 -0.0776
vn 0.1893 -0.9685 0.1615
vn -0.5665 -0.3019 -0.7668
vn -0.8753 0.4114 -0.2542
vn 0.0281 0.9283 0.3708
vn 0.2215 0.8615 0.4569
vn -0.2350 0.9254 -0.2974
vn -0.5514 -0.5538 0.6239
vn 0.5562 -0.7590 0.3384
vn 0.9496 -0.2833 0.1343
vn 0.5622 -0.1024 -0.8206
vn 0.2842 -0.2652 -0.9214
vn 0.6795 -0.7298 0.0749
vn 0.0762 -0.6619 0.7457
vn -0.1886 0.3991 0.8973
vn -0.9452 -0.2456 0.2153
vn -0.3383 -0.1165 -0.9338
vn -0.5208 -0.4348 -0.7347
vn -0.5587 0.8282 0.0443
vn -0.2748 0.8713 0.4065
vn 0.1039 -0.9919 0.0736
vn 0.9068 0.4216 0.0005
vn 0.5334 0.8356 0.1319
vn -0.2326 0.9158 -0.3273
vn -0.3482 0.9024 -0.2538
vn 0.4303 0.8771 0.2132
vn 0.4151 0.8460 0.3346
vn -0.4435 0.8824 -0.1569
vn -0.0052 0.9074 -0.4202
vn 0.0277 0.9142 -0.4043
vn -0.3086 0.9265 -0.2154
vn -0.3929 -0.8531 -0.3433
vn 0.3383 -0.9387 0.0672
vn 0.3046 -0.8452 0.4391
vn -0.4152 -0.9015 0.1218
vn 0.3838 -0.8608 -0.3342
vn 0.1699 -0.8697 -0.4635
vn 0.2832 -0.9575 0.0548
vn -0.3288 -0.8982 -0.2918
vn -0.3385 -0.9245 0.1753
vn 0.0649 -0.9890 0.1328
vn -0.1500 -0.9887 0.0088
vn -0.1425 -0.9392 -0.3123
vn 0.2332 0.9071 -0.3503
vn 0.0536 0.8932 -0.4465
vn -0.4436 0.8828 -0.1546
vn -0.3937 0.7453 0.5381
vn 0.3100 0.9076 0.2833
vn 0.5043 0.7900 0.3488
vn -0.1434 -0.8556 0.4973
vn -0.1352 -0.9415 -0.3087
vn -0.6642 -0.7393 -0.1107
vn 0.4270 -0.9039 -0.0254
vn -0.3105 -0.9382 -0.1530
vn 0.6061 -0.7950 -0.0259
vn 0.2020 -0.9055 0.3731
vn 0.1093 -0.9890 0.0996
vn 0.3121 -0.8660 0.3908
vn -0.2355 -0.9658 0.1084
vn -0.1248 -0.8744 0.4689
vn 0.4152 -0.7727 -0.4802
vn -0.0035 0.9651 0.2618
vn -0.1302 0.7293 -0.6717
vn 0.3423 0.9236 0.1724
vn 0.0029 0.9966 -0.0820
vn -0.0538 0.9478 0.3144
vn 0.3656 0.9276 0.0768
vn -0.0254 0.9780 0.2070
vn -0.1997 0.9765 0.0813
vn -0.2264 0.9490 -0.2192
vt 0.750000 0.750000
vt 0.666667 0.500000
vt 0.750000 0.500000
vt 0.583333 0.750000
vt 0.500000 0.500000
vt 0.583333 0.500000
vt 0.416667 0.750000
vt 0.333333 0.500000
vt 0.416667 0.500000
vt 0.250000 0.490000
vt 0.198038 0.400000
vt 0.301962 0.400000
vt 0.250000 0.750000
vt 0.166667 0.500000
vt 0.250000 0.500000
vt 0.083333 0.750000
vt -0.000000 0.500000
vt 0.083333 0.500000
vt 0.957846 0.370000
vt 0.905885 0.280000
vt 0.853923 0.370000
vt 0.666667 1.000000
vt 0.750000 1.000000
vt 0.500000 1.000000
vt 0.583333 1.000000
vt 0.333333 1.000000
vt 0.416667 1.000000
vt 0.457846 0.250000
vt 0.405885 0.220000
vt 0.457846 0.130000
vt 0.146077 0.430000
vt 0.146077 0.070000
vt 0.146077 0.130000
vt 0.042154 0.130000
vt 0.166667 1.000000
vt 0.250000 1.000000
vt -0.000000 1.000000
vt 0.083333 1.000000
vt 0.646077 0.430000
vt 0.646077 0.370000
vt 0.542154 0.370000
vt 0.957846 0.250000
vt 0.646077 0.070000
vt 0.698038 0.100000
vt 0.750000 0.010000
vt 0.542154 0.250000
vt 0.594115 0.280000
vt 0.646077 0.190000
vt 0.594115 0.160000
vt 0.542154 0.130000
vt 0.853923 0.070000
vt 0.801962 0.100000
vt 0.853923 0.190000
vt 0.905885 0.160000
vt 0.957846 0.130000
vt 0.853923 0.430000
vt 0.750000 0.370000
vt 0.750000 0.430000
vt 0.750000 0.490000
vt 0.353923 0.070000
vt 0.353923 0.130000
vt 0.250000 0.130000
vt 0.250000 0.070000
vt 0.250000 0.010000
vt 0.042154 0.250000
vt 0.094115 0.220000
vt 0.146077 0.310000
vt 0.094115 0.340000
vt 0.042154 0.370000
vt 0.353923 0.430000
vt 0.353923 0.310000
vt 0.405885 0.340000
vt 0.457846 0.370000
vt 0.833333 1.000000
vt 0.698038 0.280000
vt 0.801962 0.280000
vt 0.750000 0.190000
vt 0.301962 0.220000
vt 0.250000 0.310000
vt 0.198038 0.220000
vt 0.833333 0.500000
vt 0.916667 0.750000
vt 1.000000 0.500000
vt 1.000000 1.000000
s 0
f 24/1/1 5/2/1 14/3/1
f 25/4/2 7/5/2 16/6/2
f 26/7/3 9/8/3 18/9/3
f 2/10/4 36/11/4 41/12/4
f 30/13/5 11/14/5 20/15/5
f 31/16/6 1/17/6 22/18/6
f 3/19/7 39/20/7 44/21/7
f 6/22/8 24/1/8 15/23/8
f 8/24/9 25/4/9 17/25/9
f 10/26/10 26/7/10 19/27/10
f 15/28/11 35/29/11 6/30/11
f 23/31/12 36/11/12 2/10/12
f 19/32/13 37/33/13 10/34/13
f 12/35/14 30/13/14 21/36/14
f 2/37/15 31/16/15 23/38/15
f 22/39/16 38/40/16 11/41/16
f 14/42/17 39/20/17 3/19/17
f 18/43/18 40/44/18 7/45/18
f 20/46/19 46/47/19 34/48/19
f 34/48/20 47/49/20 20/46/20
f 9/50/21 47/49/21 18/43/21
f 16/51/22 45/52/22 33/53/22
f 33/53/23 48/54/23 16/51/23
f 5/55/24 48/54/24 14/42/24
f 13/56/25 44/21/25 32/57/25
f 32/57/26 49/58/26 13/56/26
f 1/59/27 49/58/27 22/39/27
f 12/35/28 23/38/28 31/16/28
f 10/26/29 21/36/29 30/13/29
f 17/60/30 43/61/30 29/62/30
f 29/62/31 50/63/31 17/60/31
f 8/64/32 50/63/32 19/32/32
f 21/65/33 42/66/33 28/67/33
f 28/67/34 51/68/34 21/65/34
f 12/69/35 51/68/35 23/31/35
f 13/70/36 41/12/36 27/71/36
f 27/71/37 52/72/37 13/70/37
f 4/73/38 52/72/38 15/28/38
f 8/24/39 19/27/39 26/7/39
f 6/22/40 17/25/40 25/4/40
f 4/74/41 15/23/41 24/1/41
f 32/57/42 53/75/42 38/40/42
f 32/57/43 54/76/43 53/75/43
f 33/53/44 45/52/44 55/77/44
f 31/16/45 11/14/45 12/35/45
f 30/13/46 9/8/46 10/26/46
f 27/71/47 56/78/47 35/29/47
f 27/71/48 57/79/48 56/78/48
f 28/67/49 42/66/49 58/80/49
f 26/7/50 7/5/50 8/24/50
f 25/4/51 5/2/51 6/22/51
f 24/1/52 3/81/52 4/74/52
f 13/82/53 1/83/53 2/84/53
f 4/74/54 3/81/54 13/82/54
f 6/22/55 5/2/55 24/1/55
f 8/24/56 7/5/56 25/4/56
f 10/26/57 9/8/57 26/7/57
f 12/35/58 11/14/58 30/13/58
f 2/37/59 1/17/59 31/16/59
f 31/16/60 22/18/60 11/14/60
f 30/13/61 20/15/61 9/8/61
f 26/7/62 18/9/62 7/5/62
f 25/4/63 16/6/63 5/2/63
f 24/1/64 14/3/64 3/81/64
f 58/80/65 37/33/65 29/62/65
f 58/80/66 42/66/66 37/33/66
f 42/66/67 10/34/67 37/33/67
f 56/78/68 58/80/68 29/62/68
f 56/78/69 57/79/69 58/80/69
f 57/79/70 28/67/70 58/80/70
f 35/29/71 43/61/71 6/30/71
f 35/29/72 56/78/72 43/61/72
f 56/78/73 29/62/73 43/61/73
f 55/77/74 40/44/74 34/48/74
f 55/77/75 45/52/75 40/44/75
f 45/52/76 7/45/76 40/44/76
f 53/75/77 55/77/77 34/48/77
f 53/75/78 54/76/78 55/77/78
f 54/76/79 33/53/79 55/77/79
f 38/40/80 46/47/80 11/41/80
f 38/40/81 53/75/81 46/47/81
f 53/75/82 34/48/82 46/47/82
f 44/21/83 54/76/83 32/57/83
f 44/21/84 39/20/84 54/76/84
f 39/20/85 33/53/85 54/76/85
f 41/12/86 57/79/86 27/71/86
f 41/12/87 36/11/87 57/79/87
f 36/11/88 28/67/88 57/79/88
f 15/28/89 27/71/89 35/29/89
f 23/31/90 28/67/90 36/11/90
f 19/32/91 29/62/91 37/33/91
f 22/39/92 32/57/92 38/40/92
f 14/42/93 33/53/93 39/20/93
f 18/43/94 34/48/94 40/44/94
f 20/46/95 11/41/95 46/47/95
f 34/48/96 18/43/96 47/49/96
f 9/50/97 20/46/97 47/49/97
f 16/51/98 7/45/98 45/52/98
f 33/53/99 14/42/99 48/54/99
f 5/55/100 16/51/100 48/54/100
f 13/56/101 3/19/101 44/21/101
f 32/57/102 22/39/102 49/58/102
f 1/59/103 13/56/103 49/58/103
f 17/60/104 6/30/104 43/61/104
f 29/62/105 19/32/105 50/63/105
f 8/64/106 17/60/106 50/63/106
f 21/65/107 10/34/107 42/66/107
f 28/67/108 23/31/108 51/68/108
f 12/69/109 21/65/109 51/68/109
f 13/70/110 2/10/110 41/12/110
f 27/71/111 15/28/111 52/72/111
f 4/73/112 13/70/112 52/72/112
